  0
SECTION
  2
BLOCKS
  0
ENDSEC
  0
SECTION
  2
ENTITIES
  0
LINE
  8
0
 10
51.4194
 20
54.036
 11
52.015
 21
54.2167
  0
LINE
  8
0
 10
52.015
 20
54.2167
 11
52.5639
 21
54.5101
  0
LINE
  8
0
 10
52.5639
 20
54.5101
 11
53.0451
 21
54.9049
  0
LINE
  8
0
 10
53.0451
 20
54.9049
 11
53.4399
 21
55.3861
  0
LINE
  8
0
 10
53.4399
 20
55.3861
 11
53.7333
 21
55.935
  0
LINE
  8
0
 10
53.7333
 20
55.935
 11
53.914
 21
56.5306
  0
LINE
  8
0
 10
53.914
 20
56.5306
 11
53.975
 21
57.15
  0
LINE
  8
0
 10
53.975
 20
57.15
 11
53.914
 21
57.7694
  0
LINE
  8
0
 10
53.914
 20
57.7694
 11
53.7333
 21
58.365
  0
LINE
  8
0
 10
53.7333
 20
58.365
 11
53.4399
 21
58.9139
  0
LINE
  8
0
 10
53.4399
 20
58.9139
 11
53.0451
 21
59.3951
  0
LINE
  8
0
 10
53.0451
 20
59.3951
 11
52.5639
 21
59.7899
  0
LINE
  8
0
 10
52.5639
 20
59.7899
 11
52.015
 21
60.0833
  0
LINE
  8
0
 10
52.015
 20
60.0833
 11
51.4194
 21
60.264
  0
LINE
  8
0
 10
51.4194
 20
60.264
 11
50.8
 21
60.325
  0
LINE
  8
0
 10
50.8
 20
60.325
 11
50.1806
 21
60.264
  0
LINE
  8
0
 10
50.1806
 20
60.264
 11
49.585
 21
60.0833
  0
LINE
  8
0
 10
49.585
 20
60.0833
 11
49.0361
 21
59.7899
  0
LINE
  8
0
 10
49.0361
 20
59.7899
 11
48.5549
 21
59.3951
  0
LINE
  8
0
 10
48.5549
 20
59.3951
 11
48.1601
 21
58.9139
  0
LINE
  8
0
 10
48.1601
 20
58.9139
 11
47.8667
 21
58.365
  0
LINE
  8
0
 10
47.8667
 20
58.365
 11
47.686
 21
57.7694
  0
LINE
  8
0
 10
47.686
 20
57.7694
 11
47.625
 21
57.15
  0
LINE
  8
0
 10
47.625
 20
57.15
 11
47.686
 21
56.5306
  0
LINE
  8
0
 10
47.686
 20
56.5306
 11
47.8667
 21
55.935
  0
LINE
  8
0
 10
47.8667
 20
55.935
 11
48.1601
 21
55.3861
  0
LINE
  8
0
 10
48.1601
 20
55.3861
 11
48.5549
 21
54.9049
  0
LINE
  8
0
 10
48.5549
 20
54.9049
 11
49.0361
 21
54.5101
  0
LINE
  8
0
 10
49.0361
 20
54.5101
 11
49.585
 21
54.2167
  0
LINE
  8
0
 10
49.585
 20
54.2167
 11
50.1806
 21
54.036
  0
LINE
  8
0
 10
50.1806
 20
54.036
 11
50.8
 21
53.975
  0
LINE
  8
0
 10
50.8
 20
53.975
 11
51.4194
 21
54.036
  0
LINE
  8
0
 10
26.0194
 20
54.036
 11
26.615
 21
54.2167
  0
LINE
  8
0
 10
26.615
 20
54.2167
 11
27.1639
 21
54.5101
  0
LINE
  8
0
 10
27.1639
 20
54.5101
 11
27.6451
 21
54.9049
  0
LINE
  8
0
 10
27.6451
 20
54.9049
 11
28.0399
 21
55.3861
  0
LINE
  8
0
 10
28.0399
 20
55.3861
 11
28.3333
 21
55.935
  0
LINE
  8
0
 10
28.3333
 20
55.935
 11
28.514
 21
56.5306
  0
LINE
  8
0
 10
28.514
 20
56.5306
 11
28.575
 21
57.15
  0
LINE
  8
0
 10
28.575
 20
57.15
 11
28.514
 21
57.7694
  0
LINE
  8
0
 10
28.514
 20
57.7694
 11
28.3333
 21
58.365
  0
LINE
  8
0
 10
28.3333
 20
58.365
 11
28.0399
 21
58.9139
  0
LINE
  8
0
 10
28.0399
 20
58.9139
 11
27.6451
 21
59.3951
  0
LINE
  8
0
 10
27.6451
 20
59.3951
 11
27.1639
 21
59.7899
  0
LINE
  8
0
 10
27.1639
 20
59.7899
 11
26.615
 21
60.0833
  0
LINE
  8
0
 10
26.615
 20
60.0833
 11
26.0194
 21
60.264
  0
LINE
  8
0
 10
26.0194
 20
60.264
 11
25.4
 21
60.325
  0
LINE
  8
0
 10
25.4
 20
60.325
 11
24.7806
 21
60.264
  0
LINE
  8
0
 10
24.7806
 20
60.264
 11
24.185
 21
60.0833
  0
LINE
  8
0
 10
24.185
 20
60.0833
 11
23.6361
 21
59.7899
  0
LINE
  8
0
 10
23.6361
 20
59.7899
 11
23.1549
 21
59.3951
  0
LINE
  8
0
 10
23.1549
 20
59.3951
 11
22.7601
 21
58.9139
  0
LINE
  8
0
 10
22.7601
 20
58.9139
 11
22.4667
 21
58.365
  0
LINE
  8
0
 10
22.4667
 20
58.365
 11
22.286
 21
57.7694
  0
LINE
  8
0
 10
22.286
 20
57.7694
 11
22.225
 21
57.15
  0
LINE
  8
0
 10
22.225
 20
57.15
 11
22.286
 21
56.5306
  0
LINE
  8
0
 10
22.286
 20
56.5306
 11
22.4667
 21
55.935
  0
LINE
  8
0
 10
22.4667
 20
55.935
 11
22.7601
 21
55.3861
  0
LINE
  8
0
 10
22.7601
 20
55.3861
 11
23.1549
 21
54.9049
  0
LINE
  8
0
 10
23.1549
 20
54.9049
 11
23.6361
 21
54.5101
  0
LINE
  8
0
 10
23.6361
 20
54.5101
 11
24.185
 21
54.2167
  0
LINE
  8
0
 10
24.185
 20
54.2167
 11
24.7806
 21
54.036
  0
LINE
  8
0
 10
24.7806
 20
54.036
 11
25.4
 21
53.975
  0
LINE
  8
0
 10
25.4
 20
53.975
 11
26.0194
 21
54.036
  0
LINE
  8
0
 10
-50.1806
 20
54.036
 11
-49.585
 21
54.2167
  0
LINE
  8
0
 10
-49.585
 20
54.2167
 11
-49.0361
 21
54.5101
  0
LINE
  8
0
 10
-49.0361
 20
54.5101
 11
-48.5549
 21
54.9049
  0
LINE
  8
0
 10
-48.5549
 20
54.9049
 11
-48.1601
 21
55.3861
  0
LINE
  8
0
 10
-48.1601
 20
55.3861
 11
-47.8667
 21
55.935
  0
LINE
  8
0
 10
-47.8667
 20
55.935
 11
-47.686
 21
56.5306
  0
LINE
  8
0
 10
-47.686
 20
56.5306
 11
-47.625
 21
57.15
  0
LINE
  8
0
 10
-47.625
 20
57.15
 11
-47.686
 21
57.7694
  0
LINE
  8
0
 10
-47.686
 20
57.7694
 11
-47.8667
 21
58.365
  0
LINE
  8
0
 10
-47.8667
 20
58.365
 11
-48.1601
 21
58.9139
  0
LINE
  8
0
 10
-48.1601
 20
58.9139
 11
-48.5549
 21
59.3951
  0
LINE
  8
0
 10
-48.5549
 20
59.3951
 11
-49.0361
 21
59.7899
  0
LINE
  8
0
 10
-49.0361
 20
59.7899
 11
-49.585
 21
60.0833
  0
LINE
  8
0
 10
-49.585
 20
60.0833
 11
-50.1806
 21
60.264
  0
LINE
  8
0
 10
-50.1806
 20
60.264
 11
-50.8
 21
60.325
  0
LINE
  8
0
 10
-50.8
 20
60.325
 11
-51.4194
 21
60.264
  0
LINE
  8
0
 10
-51.4194
 20
60.264
 11
-52.015
 21
60.0833
  0
LINE
  8
0
 10
-52.015
 20
60.0833
 11
-52.5639
 21
59.7899
  0
LINE
  8
0
 10
-52.5639
 20
59.7899
 11
-53.0451
 21
59.3951
  0
LINE
  8
0
 10
-53.0451
 20
59.3951
 11
-53.4399
 21
58.9139
  0
LINE
  8
0
 10
-53.4399
 20
58.9139
 11
-53.7333
 21
58.365
  0
LINE
  8
0
 10
-53.7333
 20
58.365
 11
-53.914
 21
57.7694
  0
LINE
  8
0
 10
-53.914
 20
57.7694
 11
-53.975
 21
57.15
  0
LINE
  8
0
 10
-53.975
 20
57.15
 11
-53.914
 21
56.5306
  0
LINE
  8
0
 10
-53.914
 20
56.5306
 11
-53.7333
 21
55.935
  0
LINE
  8
0
 10
-53.7333
 20
55.935
 11
-53.4399
 21
55.3861
  0
LINE
  8
0
 10
-53.4399
 20
55.3861
 11
-53.0451
 21
54.9049
  0
LINE
  8
0
 10
-53.0451
 20
54.9049
 11
-52.5639
 21
54.5101
  0
LINE
  8
0
 10
-52.5639
 20
54.5101
 11
-52.015
 21
54.2167
  0
LINE
  8
0
 10
-52.015
 20
54.2167
 11
-51.4194
 21
54.036
  0
LINE
  8
0
 10
-51.4194
 20
54.036
 11
-50.8
 21
53.975
  0
LINE
  8
0
 10
-50.8
 20
53.975
 11
-50.1806
 21
54.036
  0
LINE
  8
0
 10
-24.7806
 20
54.036
 11
-24.185
 21
54.2167
  0
LINE
  8
0
 10
-24.185
 20
54.2167
 11
-23.6361
 21
54.5101
  0
LINE
  8
0
 10
-23.6361
 20
54.5101
 11
-23.1549
 21
54.9049
  0
LINE
  8
0
 10
-23.1549
 20
54.9049
 11
-22.7601
 21
55.3861
  0
LINE
  8
0
 10
-22.7601
 20
55.3861
 11
-22.4667
 21
55.935
  0
LINE
  8
0
 10
-22.4667
 20
55.935
 11
-22.286
 21
56.5306
  0
LINE
  8
0
 10
-22.286
 20
56.5306
 11
-22.225
 21
57.15
  0
LINE
  8
0
 10
-22.225
 20
57.15
 11
-22.286
 21
57.7694
  0
LINE
  8
0
 10
-22.286
 20
57.7694
 11
-22.4667
 21
58.365
  0
LINE
  8
0
 10
-22.4667
 20
58.365
 11
-22.7601
 21
58.9139
  0
LINE
  8
0
 10
-22.7601
 20
58.9139
 11
-23.1549
 21
59.3951
  0
LINE
  8
0
 10
-23.1549
 20
59.3951
 11
-23.6361
 21
59.7899
  0
LINE
  8
0
 10
-23.6361
 20
59.7899
 11
-24.185
 21
60.0833
  0
LINE
  8
0
 10
-24.185
 20
60.0833
 11
-24.7806
 21
60.264
  0
LINE
  8
0
 10
-24.7806
 20
60.264
 11
-25.4
 21
60.325
  0
LINE
  8
0
 10
-25.4
 20
60.325
 11
-26.0194
 21
60.264
  0
LINE
  8
0
 10
-26.0194
 20
60.264
 11
-26.615
 21
60.0833
  0
LINE
  8
0
 10
-26.615
 20
60.0833
 11
-27.1639
 21
59.7899
  0
LINE
  8
0
 10
-27.1639
 20
59.7899
 11
-27.6451
 21
59.3951
  0
LINE
  8
0
 10
-27.6451
 20
59.3951
 11
-28.0399
 21
58.9139
  0
LINE
  8
0
 10
-28.0399
 20
58.9139
 11
-28.3333
 21
58.365
  0
LINE
  8
0
 10
-28.3333
 20
58.365
 11
-28.514
 21
57.7694
  0
LINE
  8
0
 10
-28.514
 20
57.7694
 11
-28.575
 21
57.15
  0
LINE
  8
0
 10
-28.575
 20
57.15
 11
-28.514
 21
56.5306
  0
LINE
  8
0
 10
-28.514
 20
56.5306
 11
-28.3333
 21
55.935
  0
LINE
  8
0
 10
-28.3333
 20
55.935
 11
-28.0399
 21
55.3861
  0
LINE
  8
0
 10
-28.0399
 20
55.3861
 11
-27.6451
 21
54.9049
  0
LINE
  8
0
 10
-27.6451
 20
54.9049
 11
-27.1639
 21
54.5101
  0
LINE
  8
0
 10
-27.1639
 20
54.5101
 11
-26.615
 21
54.2167
  0
LINE
  8
0
 10
-26.615
 20
54.2167
 11
-26.0194
 21
54.036
  0
LINE
  8
0
 10
-26.0194
 20
54.036
 11
-25.4
 21
53.975
  0
LINE
  8
0
 10
-25.4
 20
53.975
 11
-24.7806
 21
54.036
  0
LINE
  8
0
 10
39.2437
 20
24.4187
 11
38.7057
 21
24.4187
  0
LINE
  8
0
 10
38.7057
 20
24.4187
 11
38.7057
 21
23.7859
  0
LINE
  8
0
 10
38.7057
 20
23.7859
 11
39.2437
 21
23.7859
  0
LINE
  8
0
 10
39.2437
 20
23.7859
 11
39.2437
 21
24.4187
  0
LINE
  8
0
 10
37.4937
 20
24.4187
 11
36.9557
 21
24.4187
  0
LINE
  8
0
 10
36.9557
 20
24.4187
 11
36.9557
 21
23.7859
  0
LINE
  8
0
 10
36.9557
 20
23.7859
 11
37.4937
 21
23.7859
  0
LINE
  8
0
 10
37.4937
 20
23.7859
 11
37.4937
 21
24.4187
  0
LINE
  8
0
 10
-34.4205
 20
24.3728
 11
-35.1803
 21
24.3728
  0
LINE
  8
0
 10
-35.1803
 20
24.3728
 11
-35.1803
 21
23.2967
  0
LINE
  8
0
 10
-35.1803
 20
23.2967
 11
-34.4205
 21
23.2967
  0
LINE
  8
0
 10
-34.4205
 20
23.2967
 11
-34.4205
 21
24.3728
  0
LINE
  8
0
 10
-41.0201
 20
24.3728
 11
-41.7799
 21
24.3728
  0
LINE
  8
0
 10
-41.7799
 20
24.3728
 11
-41.7799
 21
23.2967
  0
LINE
  8
0
 10
-41.7799
 20
23.2967
 11
-41.0201
 21
23.2967
  0
LINE
  8
0
 10
-41.0201
 20
23.2967
 11
-41.0201
 21
24.3728
  0
LINE
  8
0
 10
-31.4703
 20
23.6355
 11
-32.1725
 21
23.9256
  0
LINE
  8
0
 10
-32.1725
 20
23.9256
 11
-32.5846
 21
22.9314
  0
LINE
  8
0
 10
-32.5846
 20
22.9314
 11
-31.8824
 21
22.6414
  0
LINE
  8
0
 10
-31.8824
 20
22.6414
 11
-31.4703
 21
23.6355
  0
LINE
  8
0
 10
-43.6158
 20
22.9314
 11
-44.0279
 21
23.9256
  0
LINE
  8
0
 10
-44.0279
 20
23.9256
 11
-44.7291
 21
23.6355
  0
LINE
  8
0
 10
-44.7291
 20
23.6355
 11
-44.317
 21
22.6414
  0
LINE
  8
0
 10
-44.317
 20
22.6414
 11
-43.6158
 21
22.9314
  0
LINE
  8
0
 10
35.2105
 20
23.8963
 11
34.8941
 21
23.8963
  0
LINE
  8
0
 10
34.8941
 20
23.8963
 11
34.8941
 21
23.5164
  0
LINE
  8
0
 10
34.8941
 20
23.5164
 11
35.2105
 21
23.5164
  0
LINE
  8
0
 10
35.2105
 20
23.5164
 11
35.2105
 21
23.8963
  0
LINE
  8
0
 10
44.5748
 20
23.1824
 11
44.2828
 21
23.3035
  0
LINE
  8
0
 10
44.2828
 20
23.3035
 11
44.1373
 21
22.9529
  0
LINE
  8
0
 10
44.1373
 20
22.9529
 11
44.4293
 21
22.8318
  0
LINE
  8
0
 10
44.4293
 20
22.8318
 11
44.5748
 21
23.1824
  0
LINE
  8
0
 10
46.8844
 20
22.7918
 11
46.3873
 21
22.9978
  0
LINE
  8
0
 10
46.3873
 20
22.9978
 11
46.1451
 21
22.4129
  0
LINE
  8
0
 10
46.1451
 20
22.4129
 11
46.6422
 21
22.2068
  0
LINE
  8
0
 10
46.6422
 20
22.2068
 11
46.8844
 21
22.7918
  0
LINE
  8
0
 10
30.0543
 20
22.4129
 11
29.8121
 21
22.9978
  0
LINE
  8
0
 10
29.8121
 20
22.9978
 11
29.315
 21
22.7918
  0
LINE
  8
0
 10
29.315
 20
22.7918
 11
29.5572
 21
22.2068
  0
LINE
  8
0
 10
29.5572
 20
22.2068
 11
30.0543
 21
22.4129
  0
LINE
  8
0
 10
35.2105
 20
22.7957
 11
34.8941
 21
22.7957
  0
LINE
  8
0
 10
34.8941
 20
22.7957
 11
34.8941
 21
22.4158
  0
LINE
  8
0
 10
34.8941
 20
22.4158
 11
35.2105
 21
22.4158
  0
LINE
  8
0
 10
35.2105
 20
22.4158
 11
35.2105
 21
22.7957
  0
LINE
  8
0
 10
28.4381
 20
21.743
 11
28.1959
 21
22.3279
  0
LINE
  8
0
 10
28.1959
 20
22.3279
 11
27.6988
 21
22.1219
  0
LINE
  8
0
 10
27.6988
 20
22.1219
 11
27.941
 21
21.5369
  0
LINE
  8
0
 10
27.941
 20
21.5369
 11
28.4381
 21
21.743
  0
LINE
  8
0
 10
48.5016
 20
22.1219
 11
48.0045
 21
22.3279
  0
LINE
  8
0
 10
48.0045
 20
22.3279
 11
47.7623
 21
21.743
  0
LINE
  8
0
 10
47.7623
 20
21.743
 11
48.2594
 21
21.5369
  0
LINE
  8
0
 10
48.2594
 20
21.5369
 11
48.5016
 21
22.1219
  0
LINE
  8
0
 10
44.1539
 20
22.1668
 11
43.8609
 21
22.2879
  0
LINE
  8
0
 10
43.8609
 20
22.2879
 11
43.7164
 21
21.9363
  0
LINE
  8
0
 10
43.7164
 20
21.9363
 11
44.0084
 21
21.8152
  0
LINE
  8
0
 10
44.0084
 20
21.8152
 11
44.1539
 21
22.1668
  0
LINE
  8
0
 10
-37.5416
 20
22.202
 11
-37.858
 21
22.202
  0
LINE
  8
0
 10
-37.858
 20
22.202
 11
-37.858
 21
21.5682
  0
LINE
  8
0
 10
-37.858
 20
21.5682
 11
-37.5416
 21
21.5682
  0
LINE
  8
0
 10
-37.5416
 20
21.5682
 11
-37.5416
 21
22.202
  0
LINE
  8
0
 10
-38.3414
 20
22.202
 11
-38.6578
 21
22.202
  0
LINE
  8
0
 10
-38.6578
 20
22.202
 11
-38.6578
 21
21.5682
  0
LINE
  8
0
 10
-38.6578
 20
21.5682
 11
-38.3414
 21
21.5682
  0
LINE
  8
0
 10
-38.3414
 20
21.5682
 11
-38.3414
 21
22.202
  0
LINE
  8
0
 10
-39.1422
 20
22.202
 11
-39.4586
 21
22.202
  0
LINE
  8
0
 10
-39.4586
 20
22.202
 11
-39.4586
 21
21.5682
  0
LINE
  8
0
 10
-39.4586
 20
21.5682
 11
-39.1422
 21
21.5682
  0
LINE
  8
0
 10
-39.1422
 20
21.5682
 11
-39.1422
 21
22.202
  0
LINE
  8
0
 10
-35.942
 20
22.202
 11
-36.2584
 21
22.202
  0
LINE
  8
0
 10
-36.2584
 20
22.202
 11
-36.2584
 21
21.5682
  0
LINE
  8
0
 10
-36.2584
 20
21.5682
 11
-35.942
 21
21.5682
  0
LINE
  8
0
 10
-35.942
 20
21.5682
 11
-35.942
 21
22.202
  0
LINE
  8
0
 10
-36.7418
 20
22.202
 11
-37.0582
 21
22.202
  0
LINE
  8
0
 10
-37.0582
 20
22.202
 11
-37.0582
 21
21.5682
  0
LINE
  8
0
 10
-37.0582
 20
21.5682
 11
-36.7418
 21
21.5682
  0
LINE
  8
0
 10
-36.7418
 20
21.5682
 11
-36.7418
 21
22.202
  0
LINE
  8
0
 10
-39.942
 20
22.202
 11
-40.2584
 21
22.202
  0
LINE
  8
0
 10
-40.2584
 20
22.202
 11
-40.2584
 21
21.5682
  0
LINE
  8
0
 10
-40.2584
 20
21.5682
 11
-39.942
 21
21.5682
  0
LINE
  8
0
 10
-39.942
 20
21.5682
 11
-39.942
 21
22.202
  0
LINE
  8
0
 10
-49.7135
 20
20.4061
 11
-50.1256
 21
21.4002
  0
LINE
  8
0
 10
-50.1256
 20
21.4002
 11
-50.8267
 21
21.1092
  0
LINE
  8
0
 10
-50.8267
 20
21.1092
 11
-50.4146
 21
20.115
  0
LINE
  8
0
 10
-50.4146
 20
20.115
 11
-49.7135
 21
20.4061
  0
LINE
  8
0
 10
-25.3727
 20
21.1092
 11
-26.0748
 21
21.4002
  0
LINE
  8
0
 10
-26.0748
 20
21.4002
 11
-26.4869
 21
20.4061
  0
LINE
  8
0
 10
-26.4869
 20
20.4061
 11
-25.7848
 21
20.115
  0
LINE
  8
0
 10
-25.7848
 20
20.115
 11
-25.3727
 21
21.1092
  0
LINE
  8
0
 10
-44.3599
 20
20.7527
 11
-44.6021
 21
21.3377
  0
LINE
  8
0
 10
-44.6021
 20
21.3377
 11
-44.8941
 21
21.2166
  0
LINE
  8
0
 10
-44.8941
 20
21.2166
 11
-44.6519
 21
20.6316
  0
LINE
  8
0
 10
-44.6519
 20
20.6316
 11
-44.3599
 21
20.7527
  0
LINE
  8
0
 10
-31.3053
 20
21.2166
 11
-31.5982
 21
21.3377
  0
LINE
  8
0
 10
-31.5982
 20
21.3377
 11
-31.8404
 21
20.7527
  0
LINE
  8
0
 10
-31.8404
 20
20.7527
 11
-31.5475
 21
20.6316
  0
LINE
  8
0
 10
-31.5475
 20
20.6316
 11
-31.3053
 21
21.2166
  0
LINE
  8
0
 10
-30.566
 20
20.91
 11
-30.859
 21
21.0311
  0
LINE
  8
0
 10
-30.859
 20
21.0311
 11
-31.1012
 21
20.4461
  0
LINE
  8
0
 10
-31.1012
 20
20.4461
 11
-30.8082
 21
20.325
  0
LINE
  8
0
 10
-30.8082
 20
20.325
 11
-30.566
 21
20.91
  0
LINE
  8
0
 10
-45.0992
 20
20.4461
 11
-45.3414
 21
21.0311
  0
LINE
  8
0
 10
-45.3414
 20
21.0311
 11
-45.6334
 21
20.91
  0
LINE
  8
0
 10
-45.6334
 20
20.91
 11
-45.3912
 21
20.325
  0
LINE
  8
0
 10
-45.3912
 20
20.325
 11
-45.0992
 21
20.4461
  0
LINE
  8
0
 10
26.4312
 20
20.6199
 11
26.2857
 21
20.9715
  0
LINE
  8
0
 10
26.2857
 20
20.9715
 11
25.9928
 21
20.8504
  0
LINE
  8
0
 10
25.9928
 20
20.8504
 11
26.1383
 21
20.4988
  0
LINE
  8
0
 10
26.1383
 20
20.4988
 11
26.4312
 21
20.6199
  0
LINE
  8
0
 10
39.2437
 20
20.9187
 11
38.7057
 21
20.9187
  0
LINE
  8
0
 10
38.7057
 20
20.9187
 11
38.7057
 21
20.2859
  0
LINE
  8
0
 10
38.7057
 20
20.2859
 11
39.2437
 21
20.2859
  0
LINE
  8
0
 10
39.2437
 20
20.2859
 11
39.2437
 21
20.9187
  0
LINE
  8
0
 10
37.4937
 20
20.9187
 11
36.9557
 21
20.9187
  0
LINE
  8
0
 10
36.9557
 20
20.9187
 11
36.9557
 21
20.2859
  0
LINE
  8
0
 10
36.9557
 20
20.2859
 11
37.4937
 21
20.2859
  0
LINE
  8
0
 10
37.4937
 20
20.2859
 11
37.4937
 21
20.9187
  0
LINE
  8
0
 10
-29.8268
 20
20.6043
 11
-30.1197
 21
20.7254
  0
LINE
  8
0
 10
-30.1197
 20
20.7254
 11
-30.3619
 21
20.1404
  0
LINE
  8
0
 10
-30.3619
 20
20.1404
 11
-30.0689
 21
20.0193
  0
LINE
  8
0
 10
-30.0689
 20
20.0193
 11
-29.8268
 21
20.6043
  0
LINE
  8
0
 10
-45.8385
 20
20.1404
 11
-46.0806
 21
20.7254
  0
LINE
  8
0
 10
-46.0806
 20
20.7254
 11
-46.3726
 21
20.6043
  0
LINE
  8
0
 10
-46.3726
 20
20.6043
 11
-46.1304
 21
20.0193
  0
LINE
  8
0
 10
-46.1304
 20
20.0193
 11
-45.8385
 21
20.1404
  0
LINE
  8
0
 10
-46.5777
 20
19.8338
 11
-46.8199
 21
20.4187
  0
LINE
  8
0
 10
-46.8199
 20
20.4187
 11
-47.1119
 21
20.2977
  0
LINE
  8
0
 10
-47.1119
 20
20.2977
 11
-46.8697
 21
19.7127
  0
LINE
  8
0
 10
-46.8697
 20
19.7127
 11
-46.5777
 21
19.8338
  0
LINE
  8
0
 10
-29.0885
 20
20.2977
 11
-29.3805
 21
20.4187
  0
LINE
  8
0
 10
-29.3805
 20
20.4187
 11
-29.6227
 21
19.8338
  0
LINE
  8
0
 10
-29.6227
 20
19.8338
 11
-29.3307
 21
19.7127
  0
LINE
  8
0
 10
-29.3307
 20
19.7127
 11
-29.0885
 21
20.2977
  0
LINE
  8
0
 10
-47.316
 20
19.5281
 11
-47.5582
 21
20.1131
  0
LINE
  8
0
 10
-47.5582
 20
20.1131
 11
-47.8512
 21
19.992
  0
LINE
  8
0
 10
-47.8512
 20
19.992
 11
-47.609
 21
19.407
  0
LINE
  8
0
 10
-47.609
 20
19.407
 11
-47.316
 21
19.5281
  0
LINE
  8
0
 10
-28.3492
 20
19.992
 11
-28.6412
 21
20.1131
  0
LINE
  8
0
 10
-28.6412
 20
20.1131
 11
-28.8834
 21
19.5281
  0
LINE
  8
0
 10
-28.8834
 20
19.5281
 11
-28.5914
 21
19.407
  0
LINE
  8
0
 10
-28.5914
 20
19.407
 11
-28.3492
 21
19.992
  0
LINE
  8
0
 10
26.8521
 20
19.6043
 11
26.7066
 21
19.9549
  0
LINE
  8
0
 10
26.7066
 20
19.9549
 11
26.4146
 21
19.8338
  0
LINE
  8
0
 10
26.4146
 20
19.8338
 11
26.5592
 21
19.4832
  0
LINE
  8
0
 10
26.5592
 20
19.4832
 11
26.8521
 21
19.6043
  0
LINE
  8
0
 10
-22.9303
 20
19.2996
 11
-23.4674
 21
19.8367
  0
LINE
  8
0
 10
-23.4674
 20
19.8367
 11
-24.2281
 21
19.075
  0
LINE
  8
0
 10
-24.2281
 20
19.075
 11
-23.691
 21
18.5379
  0
LINE
  8
0
 10
-23.691
 20
18.5379
 11
-22.9303
 21
19.2996
  0
LINE
  8
0
 10
-27.61
 20
19.6853
 11
-27.9019
 21
19.8064
  0
LINE
  8
0
 10
-27.9019
 20
19.8064
 11
-28.1441
 21
19.2215
  0
LINE
  8
0
 10
-28.1441
 20
19.2215
 11
-27.8521
 21
19.1004
  0
LINE
  8
0
 10
-27.8521
 20
19.1004
 11
-27.61
 21
19.6853
  0
LINE
  8
0
 10
-48.0553
 20
19.2215
 11
-48.2974
 21
19.8064
  0
LINE
  8
0
 10
-48.2974
 20
19.8064
 11
-48.5904
 21
19.6853
  0
LINE
  8
0
 10
-48.5904
 20
19.6853
 11
-48.3482
 21
19.1004
  0
LINE
  8
0
 10
-48.3482
 20
19.1004
 11
-48.0553
 21
19.2215
  0
LINE
  8
0
 10
31.3941
 20
19.1795
 11
31.1519
 21
19.7645
  0
LINE
  8
0
 10
31.1519
 20
19.7645
 11
30.6549
 21
19.5584
  0
LINE
  8
0
 10
30.6549
 20
19.5584
 11
30.8971
 21
18.9734
  0
LINE
  8
0
 10
30.8971
 20
18.9734
 11
31.3941
 21
19.1795
  0
LINE
  8
0
 10
45.5455
 20
19.5584
 11
45.0484
 21
19.7645
  0
LINE
  8
0
 10
45.0484
 20
19.7645
 11
44.8062
 21
19.1795
  0
LINE
  8
0
 10
44.8062
 20
19.1795
 11
45.3033
 21
18.9734
  0
LINE
  8
0
 10
45.3033
 20
18.9734
 11
45.5455
 21
19.5584
  0
LINE
  8
0
 10
52.9537
 20
18.9402
 11
52.7301
 21
19.1639
  0
LINE
  8
0
 10
52.7301
 20
19.1639
 11
52.4615
 21
18.8953
  0
LINE
  8
0
 10
52.4615
 20
18.8953
 11
52.6852
 21
18.6717
  0
LINE
  8
0
 10
52.6852
 20
18.6717
 11
52.9537
 21
18.9402
  0
LINE
  8
0
 10
47.1617
 20
18.8885
 11
46.6646
 21
19.0945
  0
LINE
  8
0
 10
46.6646
 20
19.0945
 11
46.4225
 21
18.5096
  0
LINE
  8
0
 10
46.4225
 20
18.5096
 11
46.9195
 21
18.3035
  0
LINE
  8
0
 10
46.9195
 20
18.3035
 11
47.1617
 21
18.8885
  0
LINE
  8
0
 10
29.7769
 20
18.5096
 11
29.5348
 21
19.0945
  0
LINE
  8
0
 10
29.5348
 20
19.0945
 11
29.0377
 21
18.8885
  0
LINE
  8
0
 10
29.0377
 20
18.8885
 11
29.2799
 21
18.3035
  0
LINE
  8
0
 10
29.2799
 20
18.3035
 11
29.7769
 21
18.5096
  0
LINE
  8
0
 10
52.1754
 20
18.1629
 11
51.9518
 21
18.3865
  0
LINE
  8
0
 10
51.9518
 20
18.3865
 11
51.6832
 21
18.118
  0
LINE
  8
0
 10
51.6832
 20
18.118
 11
51.9068
 21
17.8943
  0
LINE
  8
0
 10
51.9068
 20
17.8943
 11
52.1754
 21
18.1629
  0
LINE
  8
0
 10
22.0904
 20
17.6277
 11
21.6422
 21
18.075
  0
LINE
  8
0
 10
21.6422
 20
18.075
 11
21.2623
 21
17.6951
  0
LINE
  8
0
 10
21.2623
 20
17.6951
 11
21.7096
 21
17.2478
  0
LINE
  8
0
 10
21.7096
 20
17.2478
 11
22.0904
 21
17.6277
  0
LINE
  8
0
 10
54.9381
 20
17.6951
 11
54.5572
 21
18.075
  0
LINE
  8
0
 10
54.5572
 20
18.075
 11
54.11
 21
17.6277
  0
LINE
  8
0
 10
54.11
 20
17.6277
 11
54.4908
 21
17.2478
  0
LINE
  8
0
 10
54.4908
 20
17.2478
 11
54.9381
 21
17.6951
  0
LINE
  8
0
 10
37.2369
 20
17.5564
 11
35.2115
 21
17.5564
  0
LINE
  8
0
 10
35.2115
 20
17.5564
 11
35.2115
 21
16.9236
  0
LINE
  8
0
 10
35.2115
 20
16.9236
 11
37.2369
 21
16.9236
  0
LINE
  8
0
 10
37.2369
 20
16.9236
 11
37.2369
 21
17.5564
  0
LINE
  8
0
 10
44.0367
 20
17.5564
 11
42.0113
 21
17.5564
  0
LINE
  8
0
 10
42.0113
 20
17.5564
 11
42.0113
 21
16.9236
  0
LINE
  8
0
 10
42.0113
 20
16.9236
 11
44.0367
 21
16.9236
  0
LINE
  8
0
 10
44.0367
 20
16.9236
 11
44.0367
 21
17.5564
  0
LINE
  8
0
 10
-23.7037
 20
17.0008
 11
-23.9273
 21
17.2244
  0
LINE
  8
0
 10
-23.9273
 20
17.2244
 11
-24.3746
 21
16.7771
  0
LINE
  8
0
 10
-24.3746
 20
16.7771
 11
-24.151
 21
16.5535
  0
LINE
  8
0
 10
-24.151
 20
16.5535
 11
-23.7037
 21
17.0008
  0
LINE
  8
0
 10
20.8521
 20
16.3904
 11
20.4049
 21
16.8377
  0
LINE
  8
0
 10
20.4049
 20
16.8377
 11
20.025
 21
16.4578
  0
LINE
  8
0
 10
20.025
 20
16.4578
 11
20.4723
 21
16.0096
  0
LINE
  8
0
 10
20.4723
 20
16.0096
 11
20.8521
 21
16.3904
  0
LINE
  8
0
 10
56.1754
 20
16.4578
 11
55.7945
 21
16.8377
  0
LINE
  8
0
 10
55.7945
 20
16.8377
 11
55.3473
 21
16.3904
  0
LINE
  8
0
 10
55.3473
 20
16.3904
 11
55.7281
 21
16.0096
  0
LINE
  8
0
 10
55.7281
 20
16.0096
 11
56.1754
 21
16.4578
  0
LINE
  8
0
 10
-23.1383
 20
16.4353
 11
-23.3619
 21
16.659
  0
LINE
  8
0
 10
-23.3619
 20
16.659
 11
-23.8092
 21
16.2117
  0
LINE
  8
0
 10
-23.8092
 20
16.2117
 11
-23.5855
 21
15.9881
  0
LINE
  8
0
 10
-23.5855
 20
15.9881
 11
-23.1383
 21
16.4353
  0
LINE
  8
0
 10
-22.5719
 20
15.8699
 11
-22.7955
 21
16.0936
  0
LINE
  8
0
 10
-22.7955
 20
16.0936
 11
-23.2437
 21
15.6463
  0
LINE
  8
0
 10
-23.2437
 20
15.6463
 11
-23.0201
 21
15.4227
  0
LINE
  8
0
 10
-23.0201
 20
15.4227
 11
-22.5719
 21
15.8699
  0
LINE
  8
0
 10
24.565
 20
15.1531
 11
24.1178
 21
15.6004
  0
LINE
  8
0
 10
24.1178
 20
15.6004
 11
23.7369
 21
15.2205
  0
LINE
  8
0
 10
23.7369
 20
15.2205
 11
24.1842
 21
14.7723
  0
LINE
  8
0
 10
24.1842
 20
14.7723
 11
24.565
 21
15.1531
  0
LINE
  8
0
 10
52.4635
 20
15.2205
 11
52.0826
 21
15.6004
  0
LINE
  8
0
 10
52.0826
 20
15.6004
 11
51.6353
 21
15.1531
  0
LINE
  8
0
 10
51.6353
 20
15.1531
 11
52.0152
 21
14.7723
  0
LINE
  8
0
 10
52.0152
 20
14.7723
 11
52.4635
 21
15.2205
  0
LINE
  8
0
 10
-22.0064
 20
15.3045
 11
-22.2301
 21
15.5281
  0
LINE
  8
0
 10
-22.2301
 20
15.5281
 11
-22.6773
 21
15.0799
  0
LINE
  8
0
 10
-22.6773
 20
15.0799
 11
-22.4537
 21
14.8562
  0
LINE
  8
0
 10
-22.4537
 20
14.8562
 11
-22.0064
 21
15.3045
  0
LINE
  8
0
 10
-18.2633
 20
14.6326
 11
-18.8004
 21
15.1697
  0
LINE
  8
0
 10
-18.8004
 20
15.1697
 11
-19.5621
 21
14.409
  0
LINE
  8
0
 10
-19.5621
 20
14.409
 11
-19.025
 21
13.8719
  0
LINE
  8
0
 10
-19.025
 20
13.8719
 11
-18.2633
 21
14.6326
  0
LINE
  8
0
 10
28.0348
 20
15.0809
 11
27.4019
 21
15.0809
  0
LINE
  8
0
 10
27.4019
 20
15.0809
 11
27.4019
 21
13.0555
  0
LINE
  8
0
 10
27.4019
 20
13.0555
 11
28.0348
 21
13.0555
  0
LINE
  8
0
 10
28.0348
 20
13.0555
 11
28.0348
 21
15.0809
  0
LINE
  8
0
 10
32.0348
 20
15.0809
 11
31.4019
 21
15.0809
  0
LINE
  8
0
 10
31.4019
 20
15.0809
 11
31.4019
 21
13.0555
  0
LINE
  8
0
 10
31.4019
 20
13.0555
 11
32.0348
 21
13.0555
  0
LINE
  8
0
 10
32.0348
 20
13.0555
 11
32.0348
 21
15.0809
  0
LINE
  8
0
 10
-21.441
 20
14.7381
 11
-21.6646
 21
14.9617
  0
LINE
  8
0
 10
-21.6646
 20
14.9617
 11
-22.1119
 21
14.5145
  0
LINE
  8
0
 10
-22.1119
 20
14.5145
 11
-21.8883
 21
14.2908
  0
LINE
  8
0
 10
-21.8883
 20
14.2908
 11
-21.441
 21
14.7381
  0
LINE
  8
0
 10
19.4283
 20
14.5848
 11
19.1598
 21
14.8533
  0
LINE
  8
0
 10
19.1598
 20
14.8533
 11
18.9361
 21
14.6297
  0
LINE
  8
0
 10
18.9361
 20
14.6297
 11
19.2047
 21
14.3611
  0
LINE
  8
0
 10
19.2047
 20
14.3611
 11
19.4283
 21
14.5848
  0
LINE
  8
0
 10
-20.8756
 20
14.1727
 11
-21.0992
 21
14.3963
  0
LINE
  8
0
 10
-21.0992
 20
14.3963
 11
-21.5465
 21
13.949
  0
LINE
  8
0
 10
-21.5465
 20
13.949
 11
-21.3228
 21
13.7254
  0
LINE
  8
0
 10
-21.3228
 20
13.7254
 11
-20.8756
 21
14.1727
  0
LINE
  8
0
 10
23.3277
 20
13.9158
 11
22.8795
 21
14.3631
  0
LINE
  8
0
 10
22.8795
 20
14.3631
 11
22.4996
 21
13.9822
  0
LINE
  8
0
 10
22.4996
 20
13.9822
 11
22.9469
 21
13.535
  0
LINE
  8
0
 10
22.9469
 20
13.535
 11
23.3277
 21
13.9158
  0
LINE
  8
0
 10
53.7008
 20
13.9822
 11
53.3199
 21
14.3631
  0
LINE
  8
0
 10
53.3199
 20
14.3631
 11
52.8727
 21
13.9158
  0
LINE
  8
0
 10
52.8727
 20
13.9158
 11
53.2525
 21
13.535
  0
LINE
  8
0
 10
53.2525
 20
13.535
 11
53.7008
 21
13.9822
  0
LINE
  8
0
 10
47.7828
 20
14.3582
 11
47.2135
 21
14.3582
  0
LINE
  8
0
 10
47.2135
 20
14.3582
 11
47.2135
 21
14.0418
  0
LINE
  8
0
 10
47.2135
 20
14.0418
 11
47.7828
 21
14.0418
  0
LINE
  8
0
 10
47.7828
 20
14.0418
 11
47.7828
 21
14.3582
  0
LINE
  8
0
 10
20.2057
 20
13.8074
 11
19.9371
 21
14.076
  0
LINE
  8
0
 10
19.9371
 20
14.076
 11
19.7135
 21
13.8523
  0
LINE
  8
0
 10
19.7135
 20
13.8523
 11
19.982
 21
13.5838
  0
LINE
  8
0
 10
19.982
 20
13.5838
 11
20.2057
 21
13.8074
  0
LINE
  8
0
 10
44.0367
 20
13.5564
 11
42.0113
 21
13.5564
  0
LINE
  8
0
 10
42.0113
 20
13.5564
 11
42.0113
 21
12.9236
  0
LINE
  8
0
 10
42.0113
 20
12.9236
 11
44.0367
 21
12.9236
  0
LINE
  8
0
 10
44.0367
 20
12.9236
 11
44.0367
 21
13.5564
  0
LINE
  8
0
 10
37.2369
 20
13.5564
 11
35.2115
 21
13.5564
  0
LINE
  8
0
 10
35.2115
 20
13.5564
 11
35.2115
 21
12.9236
  0
LINE
  8
0
 10
35.2115
 20
12.9236
 11
37.2369
 21
12.9236
  0
LINE
  8
0
 10
37.2369
 20
12.9236
 11
37.2369
 21
13.5564
  0
LINE
  8
0
 10
47.7828
 20
12.8582
 11
47.2135
 21
12.8582
  0
LINE
  8
0
 10
47.2135
 20
12.8582
 11
47.2135
 21
12.5418
  0
LINE
  8
0
 10
47.2135
 20
12.5418
 11
47.7828
 21
12.5418
  0
LINE
  8
0
 10
47.7828
 20
12.5418
 11
47.7828
 21
12.8582
  0
LINE
  8
0
 10
59.0709
 20
11.8143
 11
58.9498
 21
12.1072
  0
LINE
  8
0
 10
58.9498
 20
12.1072
 11
58.5992
 21
11.9617
  0
LINE
  8
0
 10
58.5992
 20
11.9617
 11
58.7203
 21
11.6687
  0
LINE
  8
0
 10
58.7203
 20
11.6687
 11
59.0709
 21
11.8143
  0
LINE
  8
0
 10
58.0553
 20
11.3934
 11
57.9342
 21
11.6853
  0
LINE
  8
0
 10
57.9342
 20
11.6853
 11
57.5826
 21
11.5408
  0
LINE
  8
0
 10
57.5826
 20
11.5408
 11
57.7037
 21
11.2478
  0
LINE
  8
0
 10
57.7037
 20
11.2478
 11
58.0553
 21
11.3934
  0
LINE
  8
0
 10
-16.4
 20
11.2869
 11
-16.4967
 21
11.5203
  0
LINE
  8
0
 10
-16.4967
 20
11.5203
 11
-16.9654
 21
11.327
  0
LINE
  8
0
 10
-16.9654
 20
11.327
 11
-16.8678
 21
11.0926
  0
LINE
  8
0
 10
-16.8678
 20
11.0926
 11
-16.4
 21
11.2869
  0
LINE
  8
0
 10
-29.2027
 20
11.2361
 11
-30.7408
 21
11.2361
  0
LINE
  8
0
 10
-30.7408
 20
11.2361
 11
-30.7408
 21
9.73613
  0
LINE
  8
0
 10
-30.7408
 20
9.73613
 11
-29.2027
 21
9.73613
  0
LINE
  8
0
 10
-29.2027
 20
9.73613
 11
-29.2027
 21
11.2361
  0
LINE
  8
0
 10
36.2262
 20
10.9002
 11
35.9098
 21
10.9002
  0
LINE
  8
0
 10
35.9098
 20
10.9002
 11
35.9098
 21
10.5203
  0
LINE
  8
0
 10
35.9098
 20
10.5203
 11
36.2262
 21
10.5203
  0
LINE
  8
0
 10
36.2262
 20
10.5203
 11
36.2262
 21
10.9002
  0
LINE
  8
0
 10
38.2584
 20
10.9002
 11
37.942
 21
10.9002
  0
LINE
  8
0
 10
37.942
 20
10.9002
 11
37.942
 21
10.5203
  0
LINE
  8
0
 10
37.942
 20
10.5203
 11
38.2584
 21
10.5203
  0
LINE
  8
0
 10
38.2584
 20
10.5203
 11
38.2584
 21
10.9002
  0
LINE
  8
0
 10
-48.6217
 20
10.4451
 11
-48.9381
 21
10.4451
  0
LINE
  8
0
 10
-48.9381
 20
10.4451
 11
-48.9381
 21
9.8748
  0
LINE
  8
0
 10
-48.9381
 20
9.8748
 11
-48.6217
 21
9.8748
  0
LINE
  8
0
 10
-48.6217
 20
9.8748
 11
-48.6217
 21
10.4451
  0
LINE
  8
0
 10
-50.1217
 20
10.4451
 11
-50.4381
 21
10.4451
  0
LINE
  8
0
 10
-50.4381
 20
10.4451
 11
-50.4381
 21
9.8748
  0
LINE
  8
0
 10
-50.4381
 20
9.8748
 11
-50.1217
 21
9.8748
  0
LINE
  8
0
 10
-50.1217
 20
9.8748
 11
-50.1217
 21
10.4451
  0
LINE
  8
0
 10
16.5924
 20
10.159
 11
16.0084
 21
10.4012
  0
LINE
  8
0
 10
16.0084
 20
10.4012
 11
15.8023
 21
9.9041
  0
LINE
  8
0
 10
15.8023
 20
9.9041
 11
16.3873
 21
9.66191
  0
LINE
  8
0
 10
16.3873
 20
9.66191
 11
16.5924
 21
10.159
  0
LINE
  8
0
 10
60.4283
 20
9.9041
 11
60.2223
 21
10.4012
  0
LINE
  8
0
 10
60.2223
 20
10.4012
 11
59.6373
 21
10.159
  0
LINE
  8
0
 10
59.6373
 20
10.159
 11
59.8434
 21
9.66191
  0
LINE
  8
0
 10
59.8434
 20
9.66191
 11
60.4283
 21
9.9041
  0
LINE
  8
0
 10
48.6725
 20
10.0525
 11
48.356
 21
10.0525
  0
LINE
  8
0
 10
48.356
 20
10.0525
 11
48.356
 21
9.67265
  0
LINE
  8
0
 10
48.356
 20
9.67265
 11
48.6725
 21
9.67265
  0
LINE
  8
0
 10
48.6725
 20
9.67265
 11
48.6725
 21
10.0525
  0
LINE
  8
0
 10
38.2584
 20
9.79961
 11
37.942
 21
9.79961
  0
LINE
  8
0
 10
37.942
 20
9.79961
 11
37.942
 21
9.41972
  0
LINE
  8
0
 10
37.942
 20
9.41972
 11
38.2584
 21
9.41972
  0
LINE
  8
0
 10
38.2584
 20
9.41972
 11
38.2584
 21
9.79961
  0
LINE
  8
0
 10
36.2262
 20
9.79961
 11
35.9098
 21
9.79961
  0
LINE
  8
0
 10
35.9098
 20
9.79961
 11
35.9098
 21
9.41972
  0
LINE
  8
0
 10
35.9098
 20
9.41972
 11
36.2262
 21
9.41972
  0
LINE
  8
0
 10
36.2262
 20
9.41972
 11
36.2262
 21
9.79961
  0
LINE
  8
0
 10
45.2603
 20
9.75273
 11
44.691
 21
9.75273
  0
LINE
  8
0
 10
44.691
 20
9.75273
 11
44.691
 21
9.11992
  0
LINE
  8
0
 10
44.691
 20
9.11992
 11
45.2603
 21
9.11992
  0
LINE
  8
0
 10
45.2603
 20
9.11992
 11
45.2603
 21
9.75273
  0
LINE
  8
0
 10
41.1607
 20
9.75273
 11
40.5914
 21
9.75273
  0
LINE
  8
0
 10
40.5914
 20
9.75273
 11
40.5914
 21
9.11992
  0
LINE
  8
0
 10
40.5914
 20
9.11992
 11
41.1607
 21
9.11992
  0
LINE
  8
0
 10
41.1607
 20
9.11992
 11
41.1607
 21
9.75273
  0
LINE
  8
0
 10
-18.3394
 20
9.43535
 11
-18.4117
 21
9.61113
  0
LINE
  8
0
 10
-18.4117
 20
9.61113
 11
-18.8795
 21
9.41679
  0
LINE
  8
0
 10
-18.8795
 20
9.41679
 11
-18.8072
 21
9.24199
  0
LINE
  8
0
 10
-18.8072
 20
9.24199
 11
-18.3394
 21
9.43535
  0
LINE
  8
0
 10
-18.148
 20
8.97343
 11
-18.2203
 21
9.14922
  0
LINE
  8
0
 10
-18.2203
 20
9.14922
 11
-18.6881
 21
8.95488
  0
LINE
  8
0
 10
-18.6881
 20
8.95488
 11
-18.6158
 21
8.78008
  0
LINE
  8
0
 10
-18.6158
 20
8.78008
 11
-18.148
 21
8.97343
  0
LINE
  8
0
 10
19.8268
 20
8.82011
 11
19.2418
 21
9.0623
  0
LINE
  8
0
 10
19.2418
 20
9.0623
 11
19.0357
 21
8.56523
  0
LINE
  8
0
 10
19.0357
 20
8.56523
 11
19.6207
 21
8.32304
  0
LINE
  8
0
 10
19.6207
 20
8.32304
 11
19.8268
 21
8.82011
  0
LINE
  8
0
 10
57.1939
 20
8.56523
 11
56.9889
 21
9.0623
  0
LINE
  8
0
 10
56.9889
 20
9.0623
 11
56.4039
 21
8.82011
  0
LINE
  8
0
 10
56.4039
 20
8.82011
 11
56.61
 21
8.32304
  0
LINE
  8
0
 10
56.61
 20
8.32304
 11
57.1939
 21
8.56523
  0
LINE
  8
0
 10
48.6725
 20
8.95293
 11
48.356
 21
8.95293
  0
LINE
  8
0
 10
48.356
 20
8.95293
 11
48.356
 21
8.57304
  0
LINE
  8
0
 10
48.356
 20
8.57304
 11
48.6725
 21
8.57304
  0
LINE
  8
0
 10
48.6725
 20
8.57304
 11
48.6725
 21
8.95293
  0
LINE
  8
0
 10
50.9478
 20
8.92168
 11
50.568
 21
8.92168
  0
LINE
  8
0
 10
50.568
 20
8.92168
 11
50.568
 21
8.60429
  0
LINE
  8
0
 10
50.568
 20
8.60429
 11
50.9478
 21
8.60429
  0
LINE
  8
0
 10
50.9478
 20
8.60429
 11
50.9478
 21
8.92168
  0
LINE
  8
0
 10
52.0475
 20
8.92168
 11
51.6685
 21
8.92168
  0
LINE
  8
0
 10
51.6685
 20
8.92168
 11
51.6685
 21
8.60429
  0
LINE
  8
0
 10
51.6685
 20
8.60429
 11
52.0475
 21
8.60429
  0
LINE
  8
0
 10
52.0475
 20
8.60429
 11
52.0475
 21
8.92168
  0
LINE
  8
0
 10
15.9234
 20
8.54277
 11
15.3385
 21
8.78496
  0
LINE
  8
0
 10
15.3385
 20
8.78496
 11
15.1324
 21
8.28789
  0
LINE
  8
0
 10
15.1324
 20
8.28789
 11
15.7174
 21
8.0457
  0
LINE
  8
0
 10
15.7174
 20
8.0457
 11
15.9234
 21
8.54277
  0
LINE
  8
0
 10
61.0973
 20
8.28789
 11
60.8912
 21
8.78496
  0
LINE
  8
0
 10
60.8912
 20
8.78496
 11
60.3072
 21
8.54277
  0
LINE
  8
0
 10
60.3072
 20
8.54277
 11
60.5123
 21
8.0457
  0
LINE
  8
0
 10
60.5123
 20
8.0457
 11
61.0973
 21
8.28789
  0
LINE
  8
0
 10
-17.9566
 20
8.51152
 11
-18.0289
 21
8.6873
  0
LINE
  8
0
 10
-18.0289
 20
8.6873
 11
-18.4977
 21
8.49297
  0
LINE
  8
0
 10
-18.4977
 20
8.49297
 11
-18.4244
 21
8.31816
  0
LINE
  8
0
 10
-18.4244
 20
8.31816
 11
-17.9566
 21
8.51152
  0
LINE
  8
0
 10
28.0348
 20
8.28105
 11
27.4019
 21
8.28105
  0
LINE
  8
0
 10
27.4019
 20
8.28105
 11
27.4019
 21
6.25566
  0
LINE
  8
0
 10
27.4019
 20
6.25566
 11
28.0348
 21
6.25566
  0
LINE
  8
0
 10
28.0348
 20
6.25566
 11
28.0348
 21
8.28105
  0
LINE
  8
0
 10
32.0348
 20
8.28105
 11
31.4019
 21
8.28105
  0
LINE
  8
0
 10
31.4019
 20
8.28105
 11
31.4019
 21
6.25566
  0
LINE
  8
0
 10
31.4019
 20
6.25566
 11
32.0348
 21
6.25566
  0
LINE
  8
0
 10
32.0348
 20
6.25566
 11
32.0348
 21
8.28105
  0
LINE
  8
0
 10
-17.7652
 20
8.04961
 11
-17.8385
 21
8.22539
  0
LINE
  8
0
 10
-17.8385
 20
8.22539
 11
-18.3062
 21
8.03105
  0
LINE
  8
0
 10
-18.3062
 20
8.03105
 11
-18.233
 21
7.85527
  0
LINE
  8
0
 10
-18.233
 20
7.85527
 11
-17.7652
 21
8.04961
  0
LINE
  8
0
 10
41.1607
 20
8.15215
 11
40.5914
 21
8.15215
  0
LINE
  8
0
 10
40.5914
 20
8.15215
 11
40.5914
 21
7.51933
  0
LINE
  8
0
 10
40.5914
 20
7.51933
 11
41.1607
 21
7.51933
  0
LINE
  8
0
 10
41.1607
 20
7.51933
 11
41.1607
 21
8.15215
  0
LINE
  8
0
 10
45.2603
 20
8.15215
 11
44.691
 21
8.15215
  0
LINE
  8
0
 10
44.691
 20
8.15215
 11
44.691
 21
7.51933
  0
LINE
  8
0
 10
44.691
 20
7.51933
 11
45.2603
 21
7.51933
  0
LINE
  8
0
 10
45.2603
 20
7.51933
 11
45.2603
 21
8.15215
  0
LINE
  8
0
 10
25.2584
 20
8.12675
 11
24.7535
 21
8.12675
  0
LINE
  8
0
 10
24.7535
 20
8.12675
 11
24.7535
 21
7.62187
  0
LINE
  8
0
 10
24.7535
 20
7.62187
 11
25.2584
 21
7.62187
  0
LINE
  8
0
 10
25.2584
 20
7.62187
 11
25.2584
 21
8.12675
  0
LINE
  8
0
 10
23.7603
 20
8.12675
 11
23.2555
 21
8.12675
  0
LINE
  8
0
 10
23.2555
 20
8.12675
 11
23.2555
 21
7.62187
  0
LINE
  8
0
 10
23.2555
 20
7.62187
 11
23.7603
 21
7.62187
  0
LINE
  8
0
 10
23.7603
 20
7.62187
 11
23.7603
 21
8.12675
  0
LINE
  8
0
 10
-17.5738
 20
7.58769
 11
-17.6471
 21
7.76347
  0
LINE
  8
0
 10
-17.6471
 20
7.76347
 11
-18.1148
 21
7.56914
  0
LINE
  8
0
 10
-18.1148
 20
7.56914
 11
-18.0416
 21
7.39336
  0
LINE
  8
0
 10
-18.0416
 20
7.39336
 11
-17.5738
 21
7.58769
  0
LINE
  8
0
 10
36.1822
 20
7.71367
 11
35.4859
 21
7.71367
  0
LINE
  8
0
 10
35.4859
 20
7.71367
 11
35.4859
 21
6.51054
  0
LINE
  8
0
 10
35.4859
 20
6.51054
 11
36.1822
 21
6.51054
  0
LINE
  8
0
 10
36.1822
 20
6.51054
 11
36.1822
 21
7.71367
  0
LINE
  8
0
 10
38.6822
 20
7.71367
 11
37.9859
 21
7.71367
  0
LINE
  8
0
 10
37.9859
 20
7.71367
 11
37.9859
 21
6.51054
  0
LINE
  8
0
 10
37.9859
 20
6.51054
 11
38.6822
 21
6.51054
  0
LINE
  8
0
 10
38.6822
 20
6.51054
 11
38.6822
 21
7.71367
  0
LINE
  8
0
 10
57.8639
 20
6.94804
 11
57.6578
 21
7.44511
  0
LINE
  8
0
 10
57.6578
 20
7.44511
 11
57.0728
 21
7.20293
  0
LINE
  8
0
 10
57.0728
 20
7.20293
 11
57.2789
 21
6.70586
  0
LINE
  8
0
 10
57.2789
 20
6.70586
 11
57.8639
 21
6.94804
  0
LINE
  8
0
 10
19.1568
 20
7.20293
 11
18.5719
 21
7.44511
  0
LINE
  8
0
 10
18.5719
 20
7.44511
 11
18.3658
 21
6.94804
  0
LINE
  8
0
 10
18.3658
 20
6.94804
 11
18.9508
 21
6.70586
  0
LINE
  8
0
 10
18.9508
 20
6.70586
 11
19.1568
 21
7.20293
  0
LINE
  8
0
 10
-14.6783
 20
7.12968
 11
-14.775
 21
7.36308
  0
LINE
  8
0
 10
-14.775
 20
7.36308
 11
-15.2428
 21
7.16972
  0
LINE
  8
0
 10
-15.2428
 20
7.16972
 11
-15.1461
 21
6.93535
  0
LINE
  8
0
 10
-15.1461
 20
6.93535
 11
-14.6783
 21
7.12968
  0
LINE
  8
0
 10
-17.3824
 20
7.12578
 11
-17.4557
 21
7.30156
  0
LINE
  8
0
 10
-17.4557
 20
7.30156
 11
-17.9234
 21
7.10722
  0
LINE
  8
0
 10
-17.9234
 20
7.10722
 11
-17.8502
 21
6.93144
  0
LINE
  8
0
 10
-17.8502
 20
6.93144
 11
-17.3824
 21
7.12578
  0
LINE
  8
0
 10
51.2555
 20
7.20488
 11
50.5592
 21
7.20488
  0
LINE
  8
0
 10
50.5592
 20
7.20488
 11
50.5592
 21
6.00273
  0
LINE
  8
0
 10
50.5592
 20
6.00273
 11
51.2555
 21
6.00273
  0
LINE
  8
0
 10
51.2555
 20
6.00273
 11
51.2555
 21
7.20488
  0
LINE
  8
0
 10
48.7555
 20
7.20488
 11
48.0592
 21
7.20488
  0
LINE
  8
0
 10
48.0592
 20
7.20488
 11
48.0592
 21
6.00273
  0
LINE
  8
0
 10
48.0592
 20
6.00273
 11
48.7555
 21
6.00273
  0
LINE
  8
0
 10
48.7555
 20
6.00273
 11
48.7555
 21
7.20488
  0
LINE
  8
0
 10
15.2682
 20
6.32988
 11
14.9176
 21
6.47441
  0
LINE
  8
0
 10
14.9176
 20
6.47441
 11
14.7965
 21
6.18242
  0
LINE
  8
0
 10
14.7965
 20
6.18242
 11
15.1471
 21
6.03691
  0
LINE
  8
0
 10
15.1471
 20
6.03691
 11
15.2682
 21
6.32988
  0
LINE
  8
0
 10
45.19
 20
6.25468
 11
44.8102
 21
6.25468
  0
LINE
  8
0
 10
44.8102
 20
6.25468
 11
44.8102
 21
5.9373
  0
LINE
  8
0
 10
44.8102
 20
5.9373
 11
45.19
 21
5.9373
  0
LINE
  8
0
 10
45.19
 20
5.9373
 11
45.19
 21
6.25468
  0
LINE
  8
0
 10
44.0894
 20
6.25468
 11
43.7105
 21
6.25468
  0
LINE
  8
0
 10
43.7105
 20
6.25468
 11
43.7105
 21
5.9373
  0
LINE
  8
0
 10
43.7105
 20
5.9373
 11
44.0894
 21
5.9373
  0
LINE
  8
0
 10
44.0894
 20
5.9373
 11
44.0894
 21
6.25468
  0
LINE
  8
0
 10
25.1656
 20
6.12675
 11
24.8482
 21
6.12675
  0
LINE
  8
0
 10
24.8482
 20
6.12675
 11
24.8482
 21
5.55742
  0
LINE
  8
0
 10
24.8482
 20
5.55742
 11
25.1656
 21
5.55742
  0
LINE
  8
0
 10
25.1656
 20
5.55742
 11
25.1656
 21
6.12675
  0
LINE
  8
0
 10
23.6656
 20
6.12675
 11
23.3492
 21
6.12675
  0
LINE
  8
0
 10
23.3492
 20
6.12675
 11
23.3492
 21
5.55742
  0
LINE
  8
0
 10
23.3492
 20
5.55742
 11
23.6656
 21
5.55742
  0
LINE
  8
0
 10
23.6656
 20
5.55742
 11
23.6656
 21
6.12675
  0
LINE
  8
0
 10
16.2848
 20
5.90898
 11
15.9332
 21
6.05351
  0
LINE
  8
0
 10
15.9332
 20
6.05351
 11
15.8121
 21
5.76152
  0
LINE
  8
0
 10
15.8121
 20
5.76152
 11
16.1637
 21
5.61601
  0
LINE
  8
0
 10
16.1637
 20
5.61601
 11
16.2848
 21
5.90898
  0
LINE
  8
0
 10
-29.2027
 20
4.9959
 11
-30.7408
 21
4.9959
  0
LINE
  8
0
 10
-30.7408
 20
4.9959
 11
-30.7408
 21
3.4959
  0
LINE
  8
0
 10
-30.7408
 20
3.4959
 11
-29.2027
 21
3.4959
  0
LINE
  8
0
 10
-29.2027
 20
3.4959
 11
-29.2027
 21
4.9959
  0
LINE
  8
0
 10
44.8502
 20
4.85722
 11
44.5338
 21
4.85722
  0
LINE
  8
0
 10
44.5338
 20
4.85722
 11
44.5338
 21
4.28691
  0
LINE
  8
0
 10
44.5338
 20
4.28691
 11
44.8502
 21
4.28691
  0
LINE
  8
0
 10
44.8502
 20
4.28691
 11
44.8502
 21
4.85722
  0
LINE
  8
0
 10
39.2857
 20
4.85722
 11
38.9693
 21
4.85722
  0
LINE
  8
0
 10
38.9693
 20
4.85722
 11
38.9693
 21
4.28691
  0
LINE
  8
0
 10
38.9693
 20
4.28691
 11
39.2857
 21
4.28691
  0
LINE
  8
0
 10
39.2857
 20
4.28691
 11
39.2857
 21
4.85722
  0
LINE
  8
0
 10
43.3502
 20
4.85722
 11
43.0338
 21
4.85722
  0
LINE
  8
0
 10
43.0338
 20
4.85722
 11
43.0338
 21
4.28691
  0
LINE
  8
0
 10
43.0338
 20
4.28691
 11
43.3502
 21
4.28691
  0
LINE
  8
0
 10
43.3502
 20
4.28691
 11
43.3502
 21
4.85722
  0
LINE
  8
0
 10
-43.0338
 20
4.85722
 11
-43.3502
 21
4.85722
  0
LINE
  8
0
 10
-43.3502
 20
4.85722
 11
-43.3502
 21
4.28691
  0
LINE
  8
0
 10
-43.3502
 20
4.28691
 11
-43.0338
 21
4.28691
  0
LINE
  8
0
 10
-43.0338
 20
4.28691
 11
-43.0338
 21
4.85722
  0
LINE
  8
0
 10
-44.5338
 20
4.85722
 11
-44.8502
 21
4.85722
  0
LINE
  8
0
 10
-44.8502
 20
4.85722
 11
-44.8502
 21
4.28691
  0
LINE
  8
0
 10
-44.8502
 20
4.28691
 11
-44.5338
 21
4.28691
  0
LINE
  8
0
 10
-44.5338
 20
4.28691
 11
-44.5338
 21
4.85722
  0
LINE
  8
0
 10
40.7857
 20
4.85722
 11
40.4693
 21
4.85722
  0
LINE
  8
0
 10
40.4693
 20
4.85722
 11
40.4693
 21
4.28691
  0
LINE
  8
0
 10
40.4693
 20
4.28691
 11
40.7857
 21
4.28691
  0
LINE
  8
0
 10
40.7857
 20
4.28691
 11
40.7857
 21
4.85722
  0
LINE
  8
0
 10
35.7916
 20
3.96855
 11
35.4117
 21
3.96855
  0
LINE
  8
0
 10
35.4117
 20
3.96855
 11
35.4117
 21
3.65215
  0
LINE
  8
0
 10
35.4117
 20
3.65215
 11
35.7916
 21
3.65215
  0
LINE
  8
0
 10
35.7916
 20
3.65215
 11
35.7916
 21
3.96855
  0
LINE
  8
0
 10
34.692
 20
3.96855
 11
34.3121
 21
3.96855
  0
LINE
  8
0
 10
34.3121
 20
3.96855
 11
34.3121
 21
3.65215
  0
LINE
  8
0
 10
34.3121
 20
3.65215
 11
34.692
 21
3.65215
  0
LINE
  8
0
 10
34.692
 20
3.65215
 11
34.692
 21
3.96855
  0
LINE
  8
0
 10
61.9957
 20
3.20586
 11
61.6158
 21
3.20586
  0
LINE
  8
0
 10
61.6158
 20
3.20586
 11
61.6158
 21
2.88945
  0
LINE
  8
0
 10
61.6158
 20
2.88945
 11
61.9957
 21
2.88945
  0
LINE
  8
0
 10
61.9957
 20
2.88945
 11
61.9957
 21
3.20586
  0
LINE
  8
0
 10
60.8961
 20
3.20586
 11
60.5162
 21
3.20586
  0
LINE
  8
0
 10
60.5162
 20
3.20586
 11
60.5162
 21
2.88945
  0
LINE
  8
0
 10
60.5162
 20
2.88945
 11
60.8961
 21
2.88945
  0
LINE
  8
0
 10
60.8961
 20
2.88945
 11
60.8961
 21
3.20586
  0
LINE
  8
0
 10
45.3707
 20
2.77226
 11
45.0533
 21
2.77226
  0
LINE
  8
0
 10
45.0533
 20
2.77226
 11
45.0533
 21
2.39238
  0
LINE
  8
0
 10
45.0533
 20
2.39238
 11
45.3707
 21
2.39238
  0
LINE
  8
0
 10
45.3707
 20
2.39238
 11
45.3707
 21
2.77226
  0
LINE
  8
0
 10
50.8512
 20
2.62187
 11
50.693
 21
2.62187
  0
LINE
  8
0
 10
50.693
 20
2.62187
 11
50.693
 21
2.17851
  0
LINE
  8
0
 10
50.693
 20
2.17851
 11
50.8512
 21
2.17851
  0
LINE
  8
0
 10
50.8512
 20
2.17851
 11
50.8512
 21
2.62187
  0
LINE
  8
0
 10
48.3512
 20
2.62187
 11
48.193
 21
2.62187
  0
LINE
  8
0
 10
48.193
 20
2.62187
 11
48.193
 21
2.17851
  0
LINE
  8
0
 10
48.193
 20
2.17851
 11
48.3512
 21
2.17851
  0
LINE
  8
0
 10
48.3512
 20
2.17851
 11
48.3512
 21
2.62187
  0
LINE
  8
0
 10
50.3512
 20
2.62187
 11
50.193
 21
2.62187
  0
LINE
  8
0
 10
50.193
 20
2.62187
 11
50.193
 21
2.17851
  0
LINE
  8
0
 10
50.193
 20
2.17851
 11
50.3512
 21
2.17851
  0
LINE
  8
0
 10
50.3512
 20
2.17851
 11
50.3512
 21
2.62187
  0
LINE
  8
0
 10
47.3512
 20
2.62187
 11
47.193
 21
2.62187
  0
LINE
  8
0
 10
47.193
 20
2.62187
 11
47.193
 21
2.17851
  0
LINE
  8
0
 10
47.193
 20
2.17851
 11
47.3512
 21
2.17851
  0
LINE
  8
0
 10
47.3512
 20
2.17851
 11
47.3512
 21
2.62187
  0
LINE
  8
0
 10
47.8512
 20
2.62187
 11
47.693
 21
2.62187
  0
LINE
  8
0
 10
47.693
 20
2.62187
 11
47.693
 21
2.17851
  0
LINE
  8
0
 10
47.693
 20
2.17851
 11
47.8512
 21
2.17851
  0
LINE
  8
0
 10
47.8512
 20
2.17851
 11
47.8512
 21
2.62187
  0
LINE
  8
0
 10
48.8512
 20
2.62187
 11
48.693
 21
2.62187
  0
LINE
  8
0
 10
48.693
 20
2.62187
 11
48.693
 21
2.17851
  0
LINE
  8
0
 10
48.693
 20
2.17851
 11
48.8512
 21
2.17851
  0
LINE
  8
0
 10
48.8512
 20
2.17851
 11
48.8512
 21
2.62187
  0
LINE
  8
0
 10
49.3512
 20
2.62187
 11
49.193
 21
2.62187
  0
LINE
  8
0
 10
49.193
 20
2.62187
 11
49.193
 21
2.17851
  0
LINE
  8
0
 10
49.193
 20
2.17851
 11
49.3512
 21
2.17851
  0
LINE
  8
0
 10
49.3512
 20
2.17851
 11
49.3512
 21
2.62187
  0
LINE
  8
0
 10
49.8512
 20
2.62187
 11
49.693
 21
2.62187
  0
LINE
  8
0
 10
49.693
 20
2.62187
 11
49.693
 21
2.17851
  0
LINE
  8
0
 10
49.693
 20
2.17851
 11
49.8512
 21
2.17851
  0
LINE
  8
0
 10
49.8512
 20
2.17851
 11
49.8512
 21
2.62187
  0
LINE
  8
0
 10
54.2603
 20
2.51836
 11
53.9439
 21
2.51836
  0
LINE
  8
0
 10
53.9439
 20
2.51836
 11
53.9439
 21
2.13847
  0
LINE
  8
0
 10
53.9439
 20
2.13847
 11
54.2603
 21
2.13847
  0
LINE
  8
0
 10
54.2603
 20
2.13847
 11
54.2603
 21
2.51836
  0
LINE
  8
0
 10
-13.733
 20
2.37675
 11
-14.2389
 21
2.37675
  0
LINE
  8
0
 10
-14.2389
 20
2.37675
 11
-14.2389
 21
2.12383
  0
LINE
  8
0
 10
-14.2389
 20
2.12383
 11
-13.733
 21
2.12383
  0
LINE
  8
0
 10
-13.733
 20
2.12383
 11
-13.733
 21
2.37675
  0
LINE
  8
0
 10
-27.1607
 20
1.94316
 11
-27.5719
 21
1.94316
  0
LINE
  8
0
 10
-27.5719
 20
1.94316
 11
-27.5719
 21
1.27226
  0
LINE
  8
0
 10
-27.5719
 20
1.27226
 11
-27.1607
 21
1.27226
  0
LINE
  8
0
 10
-27.1607
 20
1.27226
 11
-27.1607
 21
1.94316
  0
LINE
  8
0
 10
-25.2603
 20
1.94316
 11
-25.6715
 21
1.94316
  0
LINE
  8
0
 10
-25.6715
 20
1.94316
 11
-25.6715
 21
1.27226
  0
LINE
  8
0
 10
-25.6715
 20
1.27226
 11
-25.2603
 21
1.27226
  0
LINE
  8
0
 10
-25.2603
 20
1.27226
 11
-25.2603
 21
1.94316
  0
LINE
  8
0
 10
51.6432
 20
1.8289
 11
51.2008
 21
1.8289
  0
LINE
  8
0
 10
51.2008
 20
1.8289
 11
51.2008
 21
1.6707
  0
LINE
  8
0
 10
51.2008
 20
1.6707
 11
51.6432
 21
1.6707
  0
LINE
  8
0
 10
51.6432
 20
1.6707
 11
51.6432
 21
1.8289
  0
LINE
  8
0
 10
46.8434
 20
1.8289
 11
46.401
 21
1.8289
  0
LINE
  8
0
 10
46.401
 20
1.8289
 11
46.401
 21
1.6707
  0
LINE
  8
0
 10
46.401
 20
1.6707
 11
46.8434
 21
1.6707
  0
LINE
  8
0
 10
46.8434
 20
1.6707
 11
46.8434
 21
1.8289
  0
LINE
  8
0
 10
39.4293
 20
1.71269
 11
39.2711
 21
1.71269
  0
LINE
  8
0
 10
39.2711
 20
1.71269
 11
39.2711
 21
1.41191
  0
LINE
  8
0
 10
39.2711
 20
1.41191
 11
39.4293
 21
1.41191
  0
LINE
  8
0
 10
39.4293
 20
1.41191
 11
39.4293
 21
1.71269
  0
LINE
  8
0
 10
35.9293
 20
1.71269
 11
35.7711
 21
1.71269
  0
LINE
  8
0
 10
35.7711
 20
1.71269
 11
35.7711
 21
1.41191
  0
LINE
  8
0
 10
35.7711
 20
1.41191
 11
35.9293
 21
1.41191
  0
LINE
  8
0
 10
35.9293
 20
1.41191
 11
35.9293
 21
1.71269
  0
LINE
  8
0
 10
36.4293
 20
1.71269
 11
36.2711
 21
1.71269
  0
LINE
  8
0
 10
36.2711
 20
1.71269
 11
36.2711
 21
1.41191
  0
LINE
  8
0
 10
36.2711
 20
1.41191
 11
36.4293
 21
1.41191
  0
LINE
  8
0
 10
36.4293
 20
1.41191
 11
36.4293
 21
1.71269
  0
LINE
  8
0
 10
40.4293
 20
1.71269
 11
40.2711
 21
1.71269
  0
LINE
  8
0
 10
40.2711
 20
1.71269
 11
40.2711
 21
1.41191
  0
LINE
  8
0
 10
40.2711
 20
1.41191
 11
40.4293
 21
1.41191
  0
LINE
  8
0
 10
40.4293
 20
1.41191
 11
40.4293
 21
1.71269
  0
LINE
  8
0
 10
39.9293
 20
1.71269
 11
39.7711
 21
1.71269
  0
LINE
  8
0
 10
39.7711
 20
1.71269
 11
39.7711
 21
1.41191
  0
LINE
  8
0
 10
39.7711
 20
1.41191
 11
39.9293
 21
1.41191
  0
LINE
  8
0
 10
39.9293
 20
1.41191
 11
39.9293
 21
1.71269
  0
LINE
  8
0
 10
37.9293
 20
1.71269
 11
37.7711
 21
1.71269
  0
LINE
  8
0
 10
37.7711
 20
1.71269
 11
37.7711
 21
1.41191
  0
LINE
  8
0
 10
37.7711
 20
1.41191
 11
37.9293
 21
1.41191
  0
LINE
  8
0
 10
37.9293
 20
1.41191
 11
37.9293
 21
1.71269
  0
LINE
  8
0
 10
37.4293
 20
1.71269
 11
37.2711
 21
1.71269
  0
LINE
  8
0
 10
37.2711
 20
1.71269
 11
37.2711
 21
1.41191
  0
LINE
  8
0
 10
37.2711
 20
1.41191
 11
37.4293
 21
1.41191
  0
LINE
  8
0
 10
37.4293
 20
1.41191
 11
37.4293
 21
1.71269
  0
LINE
  8
0
 10
36.9293
 20
1.71269
 11
36.7711
 21
1.71269
  0
LINE
  8
0
 10
36.7711
 20
1.71269
 11
36.7711
 21
1.41191
  0
LINE
  8
0
 10
36.7711
 20
1.41191
 11
36.9293
 21
1.41191
  0
LINE
  8
0
 10
36.9293
 20
1.41191
 11
36.9293
 21
1.71269
  0
LINE
  8
0
 10
38.9293
 20
1.71269
 11
38.7711
 21
1.71269
  0
LINE
  8
0
 10
38.7711
 20
1.71269
 11
38.7711
 21
1.41191
  0
LINE
  8
0
 10
38.7711
 20
1.41191
 11
38.9293
 21
1.41191
  0
LINE
  8
0
 10
38.9293
 20
1.41191
 11
38.9293
 21
1.71269
  0
LINE
  8
0
 10
38.4293
 20
1.71269
 11
38.2711
 21
1.71269
  0
LINE
  8
0
 10
38.2711
 20
1.71269
 11
38.2711
 21
1.41191
  0
LINE
  8
0
 10
38.2711
 20
1.41191
 11
38.4293
 21
1.41191
  0
LINE
  8
0
 10
38.4293
 20
1.41191
 11
38.4293
 21
1.71269
  0
LINE
  8
0
 10
42.3219
 20
1.68242
 11
41.7525
 21
1.68242
  0
LINE
  8
0
 10
41.7525
 20
1.68242
 11
41.7525
 21
1.36601
  0
LINE
  8
0
 10
41.7525
 20
1.36601
 11
42.3219
 21
1.36601
  0
LINE
  8
0
 10
42.3219
 20
1.36601
 11
42.3219
 21
1.68242
  0
LINE
  8
0
 10
45.3707
 20
1.67168
 11
45.0533
 21
1.67168
  0
LINE
  8
0
 10
45.0533
 20
1.67168
 11
45.0533
 21
1.29179
  0
LINE
  8
0
 10
45.0533
 20
1.29179
 11
45.3707
 21
1.29179
  0
LINE
  8
0
 10
45.3707
 20
1.29179
 11
45.3707
 21
1.67168
  0
LINE
  8
0
 10
54.2603
 20
1.41777
 11
53.9439
 21
1.41777
  0
LINE
  8
0
 10
53.9439
 20
1.41777
 11
53.9439
 21
1.03789
  0
LINE
  8
0
 10
53.9439
 20
1.03789
 11
54.2603
 21
1.03789
  0
LINE
  8
0
 10
54.2603
 20
1.03789
 11
54.2603
 21
1.41777
  0
LINE
  8
0
 10
30.8268
 20
1.39531
 11
29.5611
 21
1.39531
  0
LINE
  8
0
 10
29.5611
 20
1.39531
 11
29.5611
 21
0.128708
  0
LINE
  8
0
 10
29.5611
 20
0.128708
 11
30.8268
 21
0.128708
  0
LINE
  8
0
 10
30.8268
 20
0.128708
 11
30.8268
 21
1.39531
  0
LINE
  8
0
 10
26.8268
 20
1.39531
 11
25.5611
 21
1.39531
  0
LINE
  8
0
 10
25.5611
 20
1.39531
 11
25.5611
 21
0.128708
  0
LINE
  8
0
 10
25.5611
 20
0.128708
 11
26.8268
 21
0.128708
  0
LINE
  8
0
 10
26.8268
 20
0.128708
 11
26.8268
 21
1.39531
  0
LINE
  8
0
 10
50.4019
 20
1.37968
 11
49.3668
 21
1.37968
  0
LINE
  8
0
 10
49.3668
 20
1.37968
 11
49.3668
 21
0.344528
  0
LINE
  8
0
 10
49.3668
 20
0.344528
 11
50.4019
 21
0.344528
  0
LINE
  8
0
 10
50.4019
 20
0.344528
 11
50.4019
 21
1.37968
  0
LINE
  8
0
 10
48.6773
 20
1.37968
 11
47.6422
 21
1.37968
  0
LINE
  8
0
 10
47.6422
 20
1.37968
 11
47.6422
 21
0.344528
  0
LINE
  8
0
 10
47.6422
 20
0.344528
 11
48.6773
 21
0.344528
  0
LINE
  8
0
 10
48.6773
 20
0.344528
 11
48.6773
 21
1.37968
  0
LINE
  8
0
 10
33.1783
 20
1.3748
 11
32.8619
 21
1.3748
  0
LINE
  8
0
 10
32.8619
 20
1.3748
 11
32.8619
 21
0.994919
  0
LINE
  8
0
 10
32.8619
 20
0.994919
 11
33.1783
 21
0.994919
  0
LINE
  8
0
 10
33.1783
 20
0.994919
 11
33.1783
 21
1.3748
  0
LINE
  8
0
 10
-16.233
 20
1.34453
 11
-16.7389
 21
1.34453
  0
LINE
  8
0
 10
-16.7389
 20
1.34453
 11
-16.7389
 21
1.15508
  0
LINE
  8
0
 10
-16.7389
 20
1.15508
 11
-16.233
 21
1.15508
  0
LINE
  8
0
 10
-16.233
 20
1.15508
 11
-16.233
 21
1.34453
  0
LINE
  8
0
 10
-54.2144
 20
1.33281
 11
-55.0054
 21
1.33281
  0
LINE
  8
0
 10
-55.0054
 20
1.33281
 11
-55.0054
 21
0.69902
  0
LINE
  8
0
 10
-55.0054
 20
0.69902
 11
-54.2144
 21
0.69902
  0
LINE
  8
0
 10
-54.2144
 20
0.69902
 11
-54.2144
 21
1.33281
  0
LINE
  8
0
 10
46.8434
 20
1.3289
 11
46.401
 21
1.3289
  0
LINE
  8
0
 10
46.401
 20
1.3289
 11
46.401
 21
1.1707
  0
LINE
  8
0
 10
46.401
 20
1.1707
 11
46.8434
 21
1.1707
  0
LINE
  8
0
 10
46.8434
 20
1.1707
 11
46.8434
 21
1.3289
  0
LINE
  8
0
 10
51.6432
 20
1.3289
 11
51.2008
 21
1.3289
  0
LINE
  8
0
 10
51.2008
 20
1.3289
 11
51.2008
 21
1.1707
  0
LINE
  8
0
 10
51.2008
 20
1.1707
 11
51.6432
 21
1.1707
  0
LINE
  8
0
 10
51.6432
 20
1.1707
 11
51.6432
 21
1.3289
  0
LINE
  8
0
 10
-45.1334
 20
1.158
 11
-45.7662
 21
1.158
  0
LINE
  8
0
 10
-45.7662
 20
1.158
 11
-45.7662
 21
0.366013
  0
LINE
  8
0
 10
-45.7662
 20
0.366013
 11
-45.1334
 21
0.366013
  0
LINE
  8
0
 10
-45.1334
 20
0.366013
 11
-45.1334
 21
1.158
  0
LINE
  8
0
 10
-43.1334
 20
1.158
 11
-43.7662
 21
1.158
  0
LINE
  8
0
 10
-43.7662
 20
1.158
 11
-43.7662
 21
0.366013
  0
LINE
  8
0
 10
-43.7662
 20
0.366013
 11
-43.1334
 21
0.366013
  0
LINE
  8
0
 10
-43.1334
 20
0.366013
 11
-43.1334
 21
1.158
  0
LINE
  8
0
 10
62.5182
 20
1.14433
 11
61.8853
 21
1.14433
  0
LINE
  8
0
 10
61.8853
 20
1.14433
 11
61.8853
 21
0.606247
  0
LINE
  8
0
 10
61.8853
 20
0.606247
 11
62.5182
 21
0.606247
  0
LINE
  8
0
 10
62.5182
 20
0.606247
 11
62.5182
 21
1.14433
  0
LINE
  8
0
 10
14.3141
 20
1.14433
 11
13.6812
 21
1.14433
  0
LINE
  8
0
 10
13.6812
 20
1.14433
 11
13.6812
 21
0.606247
  0
LINE
  8
0
 10
13.6812
 20
0.606247
 11
14.3141
 21
0.606247
  0
LINE
  8
0
 10
14.3141
 20
0.606247
 11
14.3141
 21
1.14433
  0
LINE
  8
0
 10
17.8141
 20
1.14433
 11
17.1812
 21
1.14433
  0
LINE
  8
0
 10
17.1812
 20
1.14433
 11
17.1812
 21
0.606247
  0
LINE
  8
0
 10
17.1812
 20
0.606247
 11
17.8141
 21
0.606247
  0
LINE
  8
0
 10
17.8141
 20
0.606247
 11
17.8141
 21
1.14433
  0
LINE
  8
0
 10
59.0182
 20
1.14433
 11
58.3853
 21
1.14433
  0
LINE
  8
0
 10
58.3853
 20
1.14433
 11
58.3853
 21
0.606247
  0
LINE
  8
0
 10
58.3853
 20
0.606247
 11
59.0182
 21
0.606247
  0
LINE
  8
0
 10
59.0182
 20
0.606247
 11
59.0182
 21
1.14433
  0
LINE
  8
0
 10
-16.233
 20
0.844528
 11
-16.7389
 21
0.844528
  0
LINE
  8
0
 10
-16.7389
 20
0.844528
 11
-16.7389
 21
0.655075
  0
LINE
  8
0
 10
-16.7389
 20
0.655075
 11
-16.233
 21
0.655075
  0
LINE
  8
0
 10
-16.233
 20
0.655075
 11
-16.233
 21
0.844528
  0
LINE
  8
0
 10
51.6432
 20
0.828903
 11
51.2008
 21
0.828903
  0
LINE
  8
0
 10
51.2008
 20
0.828903
 11
51.2008
 21
0.6707
  0
LINE
  8
0
 10
51.2008
 20
0.6707
 11
51.6432
 21
0.6707
  0
LINE
  8
0
 10
51.6432
 20
0.6707
 11
51.6432
 21
0.828903
  0
LINE
  8
0
 10
40.4684
 20
0.828903
 11
40.231
 21
0.828903
  0
LINE
  8
0
 10
40.231
 20
0.828903
 11
40.231
 21
0.6707
  0
LINE
  8
0
 10
40.231
 20
0.6707
 11
40.4684
 21
0.6707
  0
LINE
  8
0
 10
40.4684
 20
0.6707
 11
40.4684
 21
0.828903
  0
LINE
  8
0
 10
35.9684
 20
0.828903
 11
35.731
 21
0.828903
  0
LINE
  8
0
 10
35.731
 20
0.828903
 11
35.731
 21
0.6707
  0
LINE
  8
0
 10
35.731
 20
0.6707
 11
35.9684
 21
0.6707
  0
LINE
  8
0
 10
35.9684
 20
0.6707
 11
35.9684
 21
0.828903
  0
LINE
  8
0
 10
46.8434
 20
0.828903
 11
46.401
 21
0.828903
  0
LINE
  8
0
 10
46.401
 20
0.828903
 11
46.401
 21
0.6707
  0
LINE
  8
0
 10
46.401
 20
0.6707
 11
46.8434
 21
0.6707
  0
LINE
  8
0
 10
46.8434
 20
0.6707
 11
46.8434
 21
0.828903
  0
LINE
  8
0
 10
-16.233
 20
0.344528
 11
-16.7389
 21
0.344528
  0
LINE
  8
0
 10
-16.7389
 20
0.344528
 11
-16.7389
 21
0.155075
  0
LINE
  8
0
 10
-16.7389
 20
0.155075
 11
-16.233
 21
0.155075
  0
LINE
  8
0
 10
-16.233
 20
0.155075
 11
-16.233
 21
0.344528
  0
LINE
  8
0
 10
51.6432
 20
0.328903
 11
51.2008
 21
0.328903
  0
LINE
  8
0
 10
51.2008
 20
0.328903
 11
51.2008
 21
0.1707
  0
LINE
  8
0
 10
51.2008
 20
0.1707
 11
51.6432
 21
0.1707
  0
LINE
  8
0
 10
51.6432
 20
0.1707
 11
51.6432
 21
0.328903
  0
LINE
  8
0
 10
35.9684
 20
0.328903
 11
35.731
 21
0.328903
  0
LINE
  8
0
 10
35.731
 20
0.328903
 11
35.731
 21
0.1707
  0
LINE
  8
0
 10
35.731
 20
0.1707
 11
35.9684
 21
0.1707
  0
LINE
  8
0
 10
35.9684
 20
0.1707
 11
35.9684
 21
0.328903
  0
LINE
  8
0
 10
40.4684
 20
0.328903
 11
40.231
 21
0.328903
  0
LINE
  8
0
 10
40.231
 20
0.328903
 11
40.231
 21
0.1707
  0
LINE
  8
0
 10
40.231
 20
0.1707
 11
40.4684
 21
0.1707
  0
LINE
  8
0
 10
40.4684
 20
0.1707
 11
40.4684
 21
0.328903
  0
LINE
  8
0
 10
46.8434
 20
0.328903
 11
46.401
 21
0.328903
  0
LINE
  8
0
 10
46.401
 20
0.328903
 11
46.401
 21
0.1707
  0
LINE
  8
0
 10
46.401
 20
0.1707
 11
46.8434
 21
0.1707
  0
LINE
  8
0
 10
46.8434
 20
0.1707
 11
46.8434
 21
0.328903
  0
LINE
  8
0
 10
33.1783
 20
0.275192
 11
32.8619
 21
0.275192
  0
LINE
  8
0
 10
32.8619
 20
0.275192
 11
32.8619
 21
-0.104675
  0
LINE
  8
0
 10
32.8619
 20
-0.104675
 11
33.1783
 21
-0.104675
  0
LINE
  8
0
 10
33.1783
 20
-0.104675
 11
33.1783
 21
0.275192
  0
LINE
  8
0
 10
42.3219
 20
0.182419
 11
41.7525
 21
0.182419
  0
LINE
  8
0
 10
41.7525
 20
0.182419
 11
41.7525
 21
-0.133972
  0
LINE
  8
0
 10
41.7525
 20
-0.133972
 11
42.3219
 21
-0.133972
  0
LINE
  8
0
 10
42.3219
 20
-0.133972
 11
42.3219
 21
0.182419
  0
LINE
  8
0
 10
54.3394
 20
-0.0128784
 11
53.8648
 21
-0.0128784
  0
LINE
  8
0
 10
53.8648
 20
-0.0128784
 11
53.8648
 21
-0.518738
  0
LINE
  8
0
 10
53.8648
 20
-0.518738
 11
54.3394
 21
-0.518738
  0
LINE
  8
0
 10
54.3394
 20
-0.518738
 11
54.3394
 21
-0.0128784
  0
LINE
  8
0
 10
-16.233
 20
-0.155457
 11
-16.7389
 21
-0.155457
  0
LINE
  8
0
 10
-16.7389
 20
-0.155457
 11
-16.7389
 21
-0.34491
  0
LINE
  8
0
 10
-16.7389
 20
-0.34491
 11
-16.233
 21
-0.34491
  0
LINE
  8
0
 10
-16.233
 20
-0.34491
 11
-16.233
 21
-0.155457
  0
LINE
  8
0
 10
35.9684
 20
-0.171082
 11
35.731
 21
-0.171082
  0
LINE
  8
0
 10
35.731
 20
-0.171082
 11
35.731
 21
-0.329285
  0
LINE
  8
0
 10
35.731
 20
-0.329285
 11
35.9684
 21
-0.329285
  0
LINE
  8
0
 10
35.9684
 20
-0.329285
 11
35.9684
 21
-0.171082
  0
LINE
  8
0
 10
51.6432
 20
-0.171082
 11
51.2008
 21
-0.171082
  0
LINE
  8
0
 10
51.2008
 20
-0.171082
 11
51.2008
 21
-0.329285
  0
LINE
  8
0
 10
51.2008
 20
-0.329285
 11
51.6432
 21
-0.329285
  0
LINE
  8
0
 10
51.6432
 20
-0.329285
 11
51.6432
 21
-0.171082
  0
LINE
  8
0
 10
40.4684
 20
-0.171082
 11
40.231
 21
-0.171082
  0
LINE
  8
0
 10
40.231
 20
-0.171082
 11
40.231
 21
-0.329285
  0
LINE
  8
0
 10
40.231
 20
-0.329285
 11
40.4684
 21
-0.329285
  0
LINE
  8
0
 10
40.4684
 20
-0.329285
 11
40.4684
 21
-0.171082
  0
LINE
  8
0
 10
46.8434
 20
-0.171082
 11
46.401
 21
-0.171082
  0
LINE
  8
0
 10
46.401
 20
-0.171082
 11
46.401
 21
-0.329285
  0
LINE
  8
0
 10
46.401
 20
-0.329285
 11
46.8434
 21
-0.329285
  0
LINE
  8
0
 10
46.8434
 20
-0.329285
 11
46.8434
 21
-0.171082
  0
LINE
  8
0
 10
-27.1607
 20
-0.256042
 11
-27.5719
 21
-0.256042
  0
LINE
  8
0
 10
-27.5719
 20
-0.256042
 11
-27.5719
 21
-0.927917
  0
LINE
  8
0
 10
-27.5719
 20
-0.927917
 11
-27.1607
 21
-0.927917
  0
LINE
  8
0
 10
-27.1607
 20
-0.927917
 11
-27.1607
 21
-0.256042
  0
LINE
  8
0
 10
-26.2105
 20
-0.256042
 11
-26.6217
 21
-0.256042
  0
LINE
  8
0
 10
-26.6217
 20
-0.256042
 11
-26.6217
 21
-0.927917
  0
LINE
  8
0
 10
-26.6217
 20
-0.927917
 11
-26.2105
 21
-0.927917
  0
LINE
  8
0
 10
-26.2105
 20
-0.927917
 11
-26.2105
 21
-0.256042
  0
LINE
  8
0
 10
-25.2603
 20
-0.256042
 11
-25.6715
 21
-0.256042
  0
LINE
  8
0
 10
-25.6715
 20
-0.256042
 11
-25.6715
 21
-0.927917
  0
LINE
  8
0
 10
-25.6715
 20
-0.927917
 11
-25.2603
 21
-0.927917
  0
LINE
  8
0
 10
-25.2603
 20
-0.927917
 11
-25.2603
 21
-0.256042
  0
LINE
  8
0
 10
48.6773
 20
-0.34491
 11
47.6422
 21
-0.34491
  0
LINE
  8
0
 10
47.6422
 20
-0.34491
 11
47.6422
 21
-1.38007
  0
LINE
  8
0
 10
47.6422
 20
-1.38007
 11
48.6773
 21
-1.38007
  0
LINE
  8
0
 10
48.6773
 20
-1.38007
 11
48.6773
 21
-0.34491
  0
LINE
  8
0
 10
50.4019
 20
-0.34491
 11
49.3668
 21
-0.34491
  0
LINE
  8
0
 10
49.3668
 20
-0.34491
 11
49.3668
 21
-1.38007
  0
LINE
  8
0
 10
49.3668
 20
-1.38007
 11
50.4019
 21
-1.38007
  0
LINE
  8
0
 10
50.4019
 20
-1.38007
 11
50.4019
 21
-0.34491
  0
LINE
  8
0
 10
17.8141
 20
-0.605652
 11
17.1812
 21
-0.605652
  0
LINE
  8
0
 10
17.1812
 20
-0.605652
 11
17.1812
 21
-1.14374
  0
LINE
  8
0
 10
17.1812
 20
-1.14374
 11
17.8141
 21
-1.14374
  0
LINE
  8
0
 10
17.8141
 20
-1.14374
 11
17.8141
 21
-0.605652
  0
LINE
  8
0
 10
62.5182
 20
-0.605652
 11
61.8853
 21
-0.605652
  0
LINE
  8
0
 10
61.8853
 20
-0.605652
 11
61.8853
 21
-1.14374
  0
LINE
  8
0
 10
61.8853
 20
-1.14374
 11
62.5182
 21
-1.14374
  0
LINE
  8
0
 10
62.5182
 20
-1.14374
 11
62.5182
 21
-0.605652
  0
LINE
  8
0
 10
14.3141
 20
-0.605652
 11
13.6812
 21
-0.605652
  0
LINE
  8
0
 10
13.6812
 20
-0.605652
 11
13.6812
 21
-1.14374
  0
LINE
  8
0
 10
13.6812
 20
-1.14374
 11
14.3141
 21
-1.14374
  0
LINE
  8
0
 10
14.3141
 20
-1.14374
 11
14.3141
 21
-0.605652
  0
LINE
  8
0
 10
59.0182
 20
-0.605652
 11
58.3853
 21
-0.605652
  0
LINE
  8
0
 10
58.3853
 20
-0.605652
 11
58.3853
 21
-1.14374
  0
LINE
  8
0
 10
58.3853
 20
-1.14374
 11
59.0182
 21
-1.14374
  0
LINE
  8
0
 10
59.0182
 20
-1.14374
 11
59.0182
 21
-0.605652
  0
LINE
  8
0
 10
-16.233
 20
-0.655457
 11
-16.7389
 21
-0.655457
  0
LINE
  8
0
 10
-16.7389
 20
-0.655457
 11
-16.7389
 21
-0.84491
  0
LINE
  8
0
 10
-16.7389
 20
-0.84491
 11
-16.233
 21
-0.84491
  0
LINE
  8
0
 10
-16.233
 20
-0.84491
 11
-16.233
 21
-0.655457
  0
LINE
  8
0
 10
-54.2144
 20
-0.667175
 11
-55.0054
 21
-0.667175
  0
LINE
  8
0
 10
-55.0054
 20
-0.667175
 11
-55.0054
 21
-1.30096
  0
LINE
  8
0
 10
-55.0054
 20
-1.30096
 11
-54.2144
 21
-1.30096
  0
LINE
  8
0
 10
-54.2144
 20
-1.30096
 11
-54.2144
 21
-0.667175
  0
LINE
  8
0
 10
40.4684
 20
-0.671082
 11
40.231
 21
-0.671082
  0
LINE
  8
0
 10
40.231
 20
-0.671082
 11
40.231
 21
-0.829285
  0
LINE
  8
0
 10
40.231
 20
-0.829285
 11
40.4684
 21
-0.829285
  0
LINE
  8
0
 10
40.4684
 20
-0.829285
 11
40.4684
 21
-0.671082
  0
LINE
  8
0
 10
35.9684
 20
-0.671082
 11
35.731
 21
-0.671082
  0
LINE
  8
0
 10
35.731
 20
-0.671082
 11
35.731
 21
-0.829285
  0
LINE
  8
0
 10
35.731
 20
-0.829285
 11
35.9684
 21
-0.829285
  0
LINE
  8
0
 10
35.9684
 20
-0.829285
 11
35.9684
 21
-0.671082
  0
LINE
  8
0
 10
51.6432
 20
-0.671082
 11
51.2008
 21
-0.671082
  0
LINE
  8
0
 10
51.2008
 20
-0.671082
 11
51.2008
 21
-0.829285
  0
LINE
  8
0
 10
51.2008
 20
-0.829285
 11
51.6432
 21
-0.829285
  0
LINE
  8
0
 10
51.6432
 20
-0.829285
 11
51.6432
 21
-0.671082
  0
LINE
  8
0
 10
46.8434
 20
-0.671082
 11
46.401
 21
-0.671082
  0
LINE
  8
0
 10
46.401
 20
-0.671082
 11
46.401
 21
-0.829285
  0
LINE
  8
0
 10
46.401
 20
-0.829285
 11
46.8434
 21
-0.829285
  0
LINE
  8
0
 10
46.8434
 20
-0.829285
 11
46.8434
 21
-0.671082
  0
LINE
  8
0
 10
43.9732
 20
-0.869324
 11
43.4029
 21
-0.869324
  0
LINE
  8
0
 10
43.4029
 20
-0.869324
 11
43.4029
 21
-1.18573
  0
LINE
  8
0
 10
43.4029
 20
-1.18573
 11
43.9732
 21
-1.18573
  0
LINE
  8
0
 10
43.9732
 20
-1.18573
 11
43.9732
 21
-0.869324
  0
LINE
  8
0
 10
-16.233
 20
-1.15546
 11
-16.7389
 21
-1.15546
  0
LINE
  8
0
 10
-16.7389
 20
-1.15546
 11
-16.7389
 21
-1.34491
  0
LINE
  8
0
 10
-16.7389
 20
-1.34491
 11
-16.233
 21
-1.34491
  0
LINE
  8
0
 10
-16.233
 20
-1.34491
 11
-16.233
 21
-1.15546
  0
LINE
  8
0
 10
46.8434
 20
-1.17108
 11
46.401
 21
-1.17108
  0
LINE
  8
0
 10
46.401
 20
-1.17108
 11
46.401
 21
-1.32928
  0
LINE
  8
0
 10
46.401
 20
-1.32928
 11
46.8434
 21
-1.32928
  0
LINE
  8
0
 10
46.8434
 20
-1.32928
 11
46.8434
 21
-1.17108
  0
LINE
  8
0
 10
51.6432
 20
-1.17108
 11
51.2008
 21
-1.17108
  0
LINE
  8
0
 10
51.2008
 20
-1.17108
 11
51.2008
 21
-1.32928
  0
LINE
  8
0
 10
51.2008
 20
-1.32928
 11
51.6432
 21
-1.32928
  0
LINE
  8
0
 10
51.6432
 20
-1.32928
 11
51.6432
 21
-1.17108
  0
LINE
  8
0
 10
37.9293
 20
-1.41229
 11
37.7711
 21
-1.41229
  0
LINE
  8
0
 10
37.7711
 20
-1.41229
 11
37.7711
 21
-1.71307
  0
LINE
  8
0
 10
37.7711
 20
-1.71307
 11
37.9293
 21
-1.71307
  0
LINE
  8
0
 10
37.9293
 20
-1.71307
 11
37.9293
 21
-1.41229
  0
LINE
  8
0
 10
39.9293
 20
-1.41229
 11
39.7711
 21
-1.41229
  0
LINE
  8
0
 10
39.7711
 20
-1.41229
 11
39.7711
 21
-1.71307
  0
LINE
  8
0
 10
39.7711
 20
-1.71307
 11
39.9293
 21
-1.71307
  0
LINE
  8
0
 10
39.9293
 20
-1.71307
 11
39.9293
 21
-1.41229
  0
LINE
  8
0
 10
39.4293
 20
-1.41229
 11
39.2711
 21
-1.41229
  0
LINE
  8
0
 10
39.2711
 20
-1.41229
 11
39.2711
 21
-1.71307
  0
LINE
  8
0
 10
39.2711
 20
-1.71307
 11
39.4293
 21
-1.71307
  0
LINE
  8
0
 10
39.4293
 20
-1.71307
 11
39.4293
 21
-1.41229
  0
LINE
  8
0
 10
38.4293
 20
-1.41229
 11
38.2711
 21
-1.41229
  0
LINE
  8
0
 10
38.2711
 20
-1.41229
 11
38.2711
 21
-1.71307
  0
LINE
  8
0
 10
38.2711
 20
-1.71307
 11
38.4293
 21
-1.71307
  0
LINE
  8
0
 10
38.4293
 20
-1.71307
 11
38.4293
 21
-1.41229
  0
LINE
  8
0
 10
38.9293
 20
-1.41229
 11
38.7711
 21
-1.41229
  0
LINE
  8
0
 10
38.7711
 20
-1.41229
 11
38.7711
 21
-1.71307
  0
LINE
  8
0
 10
38.7711
 20
-1.71307
 11
38.9293
 21
-1.71307
  0
LINE
  8
0
 10
38.9293
 20
-1.71307
 11
38.9293
 21
-1.41229
  0
LINE
  8
0
 10
40.4293
 20
-1.41229
 11
40.2711
 21
-1.41229
  0
LINE
  8
0
 10
40.2711
 20
-1.41229
 11
40.2711
 21
-1.71307
  0
LINE
  8
0
 10
40.2711
 20
-1.71307
 11
40.4293
 21
-1.71307
  0
LINE
  8
0
 10
40.4293
 20
-1.71307
 11
40.4293
 21
-1.41229
  0
LINE
  8
0
 10
37.4293
 20
-1.41229
 11
37.2711
 21
-1.41229
  0
LINE
  8
0
 10
37.2711
 20
-1.41229
 11
37.2711
 21
-1.71307
  0
LINE
  8
0
 10
37.2711
 20
-1.71307
 11
37.4293
 21
-1.71307
  0
LINE
  8
0
 10
37.4293
 20
-1.71307
 11
37.4293
 21
-1.41229
  0
LINE
  8
0
 10
36.4293
 20
-1.41229
 11
36.2711
 21
-1.41229
  0
LINE
  8
0
 10
36.2711
 20
-1.41229
 11
36.2711
 21
-1.71307
  0
LINE
  8
0
 10
36.2711
 20
-1.71307
 11
36.4293
 21
-1.71307
  0
LINE
  8
0
 10
36.4293
 20
-1.71307
 11
36.4293
 21
-1.41229
  0
LINE
  8
0
 10
35.9293
 20
-1.41229
 11
35.7711
 21
-1.41229
  0
LINE
  8
0
 10
35.7711
 20
-1.41229
 11
35.7711
 21
-1.71307
  0
LINE
  8
0
 10
35.7711
 20
-1.71307
 11
35.9293
 21
-1.71307
  0
LINE
  8
0
 10
35.9293
 20
-1.71307
 11
35.9293
 21
-1.41229
  0
LINE
  8
0
 10
36.9293
 20
-1.41229
 11
36.7711
 21
-1.41229
  0
LINE
  8
0
 10
36.7711
 20
-1.41229
 11
36.7711
 21
-1.71307
  0
LINE
  8
0
 10
36.7711
 20
-1.71307
 11
36.9293
 21
-1.71307
  0
LINE
  8
0
 10
36.9293
 20
-1.71307
 11
36.9293
 21
-1.41229
  0
LINE
  8
0
 10
54.3394
 20
-1.51288
 11
53.8648
 21
-1.51288
  0
LINE
  8
0
 10
53.8648
 20
-1.51288
 11
53.8648
 21
-2.01874
  0
LINE
  8
0
 10
53.8648
 20
-2.01874
 11
54.3394
 21
-2.01874
  0
LINE
  8
0
 10
54.3394
 20
-2.01874
 11
54.3394
 21
-1.51288
  0
LINE
  8
0
 10
46.8434
 20
-1.67108
 11
46.401
 21
-1.67108
  0
LINE
  8
0
 10
46.401
 20
-1.67108
 11
46.401
 21
-1.82928
  0
LINE
  8
0
 10
46.401
 20
-1.82928
 11
46.8434
 21
-1.82928
  0
LINE
  8
0
 10
46.8434
 20
-1.82928
 11
46.8434
 21
-1.67108
  0
LINE
  8
0
 10
51.6432
 20
-1.67108
 11
51.2008
 21
-1.67108
  0
LINE
  8
0
 10
51.2008
 20
-1.67108
 11
51.2008
 21
-1.82928
  0
LINE
  8
0
 10
51.2008
 20
-1.82928
 11
51.6432
 21
-1.82928
  0
LINE
  8
0
 10
51.6432
 20
-1.82928
 11
51.6432
 21
-1.67108
  0
LINE
  8
0
 10
-23.0826
 20
-1.88593
 11
-23.6529
 21
-1.88593
  0
LINE
  8
0
 10
-23.6529
 20
-1.88593
 11
-23.6529
 21
-2.20233
  0
LINE
  8
0
 10
-23.6529
 20
-2.20233
 11
-23.0826
 21
-2.20233
  0
LINE
  8
0
 10
-23.0826
 20
-2.20233
 11
-23.0826
 21
-1.88593
  0
LINE
  8
0
 10
-13.733
 20
-2.12323
 11
-14.2389
 21
-2.12323
  0
LINE
  8
0
 10
-14.2389
 20
-2.12323
 11
-14.2389
 21
-2.37616
  0
LINE
  8
0
 10
-14.2389
 20
-2.37616
 11
-13.733
 21
-2.37616
  0
LINE
  8
0
 10
-13.733
 20
-2.37616
 11
-13.733
 21
-2.12323
  0
LINE
  8
0
 10
49.3512
 20
-2.17889
 11
49.193
 21
-2.17889
  0
LINE
  8
0
 10
49.193
 20
-2.17889
 11
49.193
 21
-2.62128
  0
LINE
  8
0
 10
49.193
 20
-2.62128
 11
49.3512
 21
-2.62128
  0
LINE
  8
0
 10
49.3512
 20
-2.62128
 11
49.3512
 21
-2.17889
  0
LINE
  8
0
 10
48.3512
 20
-2.17889
 11
48.193
 21
-2.17889
  0
LINE
  8
0
 10
48.193
 20
-2.17889
 11
48.193
 21
-2.62128
  0
LINE
  8
0
 10
48.193
 20
-2.62128
 11
48.3512
 21
-2.62128
  0
LINE
  8
0
 10
48.3512
 20
-2.62128
 11
48.3512
 21
-2.17889
  0
LINE
  8
0
 10
48.8512
 20
-2.17889
 11
48.693
 21
-2.17889
  0
LINE
  8
0
 10
48.693
 20
-2.17889
 11
48.693
 21
-2.62128
  0
LINE
  8
0
 10
48.693
 20
-2.62128
 11
48.8512
 21
-2.62128
  0
LINE
  8
0
 10
48.8512
 20
-2.62128
 11
48.8512
 21
-2.17889
  0
LINE
  8
0
 10
49.8512
 20
-2.17889
 11
49.693
 21
-2.17889
  0
LINE
  8
0
 10
49.693
 20
-2.17889
 11
49.693
 21
-2.62128
  0
LINE
  8
0
 10
49.693
 20
-2.62128
 11
49.8512
 21
-2.62128
  0
LINE
  8
0
 10
49.8512
 20
-2.62128
 11
49.8512
 21
-2.17889
  0
LINE
  8
0
 10
50.3512
 20
-2.17889
 11
50.193
 21
-2.17889
  0
LINE
  8
0
 10
50.193
 20
-2.17889
 11
50.193
 21
-2.62128
  0
LINE
  8
0
 10
50.193
 20
-2.62128
 11
50.3512
 21
-2.62128
  0
LINE
  8
0
 10
50.3512
 20
-2.62128
 11
50.3512
 21
-2.17889
  0
LINE
  8
0
 10
47.8512
 20
-2.17889
 11
47.693
 21
-2.17889
  0
LINE
  8
0
 10
47.693
 20
-2.17889
 11
47.693
 21
-2.62128
  0
LINE
  8
0
 10
47.693
 20
-2.62128
 11
47.8512
 21
-2.62128
  0
LINE
  8
0
 10
47.8512
 20
-2.62128
 11
47.8512
 21
-2.17889
  0
LINE
  8
0
 10
47.3512
 20
-2.17889
 11
47.193
 21
-2.17889
  0
LINE
  8
0
 10
47.193
 20
-2.17889
 11
47.193
 21
-2.62128
  0
LINE
  8
0
 10
47.193
 20
-2.62128
 11
47.3512
 21
-2.62128
  0
LINE
  8
0
 10
47.3512
 20
-2.62128
 11
47.3512
 21
-2.17889
  0
LINE
  8
0
 10
50.8512
 20
-2.17889
 11
50.693
 21
-2.17889
  0
LINE
  8
0
 10
50.693
 20
-2.17889
 11
50.693
 21
-2.62128
  0
LINE
  8
0
 10
50.693
 20
-2.62128
 11
50.8512
 21
-2.62128
  0
LINE
  8
0
 10
50.8512
 20
-2.62128
 11
50.8512
 21
-2.17889
  0
LINE
  8
0
 10
43.9732
 20
-2.36932
 11
43.4029
 21
-2.36932
  0
LINE
  8
0
 10
43.4029
 20
-2.36932
 11
43.4029
 21
-2.68573
  0
LINE
  8
0
 10
43.4029
 20
-2.68573
 11
43.9732
 21
-2.68573
  0
LINE
  8
0
 10
43.9732
 20
-2.68573
 11
43.9732
 21
-2.36932
  0
LINE
  8
0
 10
37.5084
 20
-2.81561
 11
37.192
 21
-2.81561
  0
LINE
  8
0
 10
37.192
 20
-2.81561
 11
37.192
 21
-3.1955
  0
LINE
  8
0
 10
37.192
 20
-3.1955
 11
37.5084
 21
-3.1955
  0
LINE
  8
0
 10
37.5084
 20
-3.1955
 11
37.5084
 21
-2.81561
  0
LINE
  8
0
 10
14.5836
 20
-2.88983
 11
14.2037
 21
-2.88983
  0
LINE
  8
0
 10
14.2037
 20
-2.88983
 11
14.2037
 21
-3.20624
  0
LINE
  8
0
 10
14.2037
 20
-3.20624
 11
14.5836
 21
-3.20624
  0
LINE
  8
0
 10
14.5836
 20
-3.20624
 11
14.5836
 21
-2.88983
  0
LINE
  8
0
 10
15.6842
 20
-2.88983
 11
15.3043
 21
-2.88983
  0
LINE
  8
0
 10
15.3043
 20
-2.88983
 11
15.3043
 21
-3.20624
  0
LINE
  8
0
 10
15.3043
 20
-3.20624
 11
15.6842
 21
-3.20624
  0
LINE
  8
0
 10
15.6842
 20
-3.20624
 11
15.6842
 21
-2.88983
  0
LINE
  8
0
 10
-25.3394
 20
-3.2951
 11
-26.8404
 21
-3.2951
  0
LINE
  8
0
 10
-26.8404
 20
-3.2951
 11
-26.8404
 21
-4.83319
  0
LINE
  8
0
 10
-26.8404
 20
-4.83319
 11
-25.3394
 21
-4.83319
  0
LINE
  8
0
 10
-25.3394
 20
-4.83319
 11
-25.3394
 21
-3.2951
  0
LINE
  8
0
 10
-31.5797
 20
-3.2951
 11
-33.0797
 21
-3.2951
  0
LINE
  8
0
 10
-33.0797
 20
-3.2951
 11
-33.0797
 21
-4.83319
  0
LINE
  8
0
 10
-33.0797
 20
-4.83319
 11
-31.5797
 21
-4.83319
  0
LINE
  8
0
 10
-31.5797
 20
-4.83319
 11
-31.5797
 21
-3.2951
  0
LINE
  8
0
 10
-23.0826
 20
-3.38593
 11
-23.6529
 21
-3.38593
  0
LINE
  8
0
 10
-23.6529
 20
-3.38593
 11
-23.6529
 21
-3.70233
  0
LINE
  8
0
 10
-23.6529
 20
-3.70233
 11
-23.0826
 21
-3.70233
  0
LINE
  8
0
 10
-23.0826
 20
-3.70233
 11
-23.0826
 21
-3.38593
  0
LINE
  8
0
 10
44.4928
 20
-3.77948
 11
44.1764
 21
-3.77948
  0
LINE
  8
0
 10
44.1764
 20
-3.77948
 11
44.1764
 21
-4.34882
  0
LINE
  8
0
 10
44.1764
 20
-4.34882
 11
44.4928
 21
-4.34882
  0
LINE
  8
0
 10
44.4928
 20
-4.34882
 11
44.4928
 21
-3.77948
  0
LINE
  8
0
 10
45.9928
 20
-3.77948
 11
45.6764
 21
-3.77948
  0
LINE
  8
0
 10
45.6764
 20
-3.77948
 11
45.6764
 21
-4.34882
  0
LINE
  8
0
 10
45.6764
 20
-4.34882
 11
45.9928
 21
-4.34882
  0
LINE
  8
0
 10
45.9928
 20
-4.34882
 11
45.9928
 21
-3.77948
  0
LINE
  8
0
 10
43.0387
 20
-3.81171
 11
42.5338
 21
-3.81171
  0
LINE
  8
0
 10
42.5338
 20
-3.81171
 11
42.5338
 21
-4.31659
  0
LINE
  8
0
 10
42.5338
 20
-4.31659
 11
43.0387
 21
-4.31659
  0
LINE
  8
0
 10
43.0387
 20
-4.31659
 11
43.0387
 21
-3.81171
  0
LINE
  8
0
 10
41.5396
 20
-3.81171
 11
41.0357
 21
-3.81171
  0
LINE
  8
0
 10
41.0357
 20
-3.81171
 11
41.0357
 21
-4.31659
  0
LINE
  8
0
 10
41.0357
 20
-4.31659
 11
41.5396
 21
-4.31659
  0
LINE
  8
0
 10
41.5396
 20
-4.31659
 11
41.5396
 21
-3.81171
  0
LINE
  8
0
 10
37.5084
 20
-3.9162
 11
37.192
 21
-3.9162
  0
LINE
  8
0
 10
37.192
 20
-3.9162
 11
37.192
 21
-4.29608
  0
LINE
  8
0
 10
37.192
 20
-4.29608
 11
37.5084
 21
-4.29608
  0
LINE
  8
0
 10
37.5084
 20
-4.29608
 11
37.5084
 21
-3.9162
  0
LINE
  8
0
 10
24.984
 20
-4.72089
 11
22.7682
 21
-4.72089
  0
LINE
  8
0
 10
22.7682
 20
-4.72089
 11
22.7682
 21
-5.79706
  0
LINE
  8
0
 10
22.7682
 20
-5.79706
 11
24.984
 21
-5.79706
  0
LINE
  8
0
 10
24.984
 20
-5.79706
 11
24.984
 21
-4.72089
  0
LINE
  8
0
 10
-43.3551
 20
-5.19257
 11
-43.9888
 21
-5.19257
  0
LINE
  8
0
 10
-43.9888
 20
-5.19257
 11
-43.9888
 21
-5.98358
  0
LINE
  8
0
 10
-43.9888
 20
-5.98358
 11
-43.3551
 21
-5.98358
  0
LINE
  8
0
 10
-43.3551
 20
-5.98358
 11
-43.3551
 21
-5.19257
  0
LINE
  8
0
 10
-41.3551
 20
-5.19257
 11
-41.9888
 21
-5.19257
  0
LINE
  8
0
 10
-41.9888
 20
-5.19257
 11
-41.9888
 21
-5.98358
  0
LINE
  8
0
 10
-41.9888
 20
-5.98358
 11
-41.3551
 21
-5.98358
  0
LINE
  8
0
 10
-41.3551
 20
-5.98358
 11
-41.3551
 21
-5.19257
  0
LINE
  8
0
 10
60.3873
 20
-5.76093
 11
60.0367
 21
-5.61639
  0
LINE
  8
0
 10
60.0367
 20
-5.61639
 11
59.9156
 21
-5.90839
  0
LINE
  8
0
 10
59.9156
 20
-5.90839
 11
60.2662
 21
-6.05389
  0
LINE
  8
0
 10
60.2662
 20
-6.05389
 11
60.3873
 21
-5.76093
  0
LINE
  8
0
 10
36.0992
 20
-5.9494
 11
35.5289
 21
-5.9494
  0
LINE
  8
0
 10
35.5289
 20
-5.9494
 11
35.5289
 21
-6.26581
  0
LINE
  8
0
 10
35.5289
 20
-6.26581
 11
36.0992
 21
-6.26581
  0
LINE
  8
0
 10
36.0992
 20
-6.26581
 11
36.0992
 21
-5.9494
  0
LINE
  8
0
 10
40.4801
 20
-6.00116
 11
39.8473
 21
-6.00116
  0
LINE
  8
0
 10
39.8473
 20
-6.00116
 11
39.8473
 21
-8.02655
  0
LINE
  8
0
 10
39.8473
 20
-8.02655
 11
40.4801
 21
-8.02655
  0
LINE
  8
0
 10
40.4801
 20
-8.02655
 11
40.4801
 21
-6.00116
  0
LINE
  8
0
 10
44.4801
 20
-6.00116
 11
43.8473
 21
-6.00116
  0
LINE
  8
0
 10
43.8473
 20
-6.00116
 11
43.8473
 21
-8.02655
  0
LINE
  8
0
 10
43.8473
 20
-8.02655
 11
44.4801
 21
-8.02655
  0
LINE
  8
0
 10
44.4801
 20
-8.02655
 11
44.4801
 21
-6.00116
  0
LINE
  8
0
 10
61.4039
 20
-6.1828
 11
61.0533
 21
-6.03729
  0
LINE
  8
0
 10
61.0533
 20
-6.03729
 11
60.9322
 21
-6.32928
  0
LINE
  8
0
 10
60.9322
 20
-6.32928
 11
61.2828
 21
-6.47479
  0
LINE
  8
0
 10
61.2828
 20
-6.47479
 11
61.4039
 21
-6.1828
  0
LINE
  8
0
 10
-39.5865
 20
-6.49237
 11
-39.8111
 21
-6.26874
  0
LINE
  8
0
 10
-39.8111
 20
-6.26874
 11
-40.2135
 21
-6.67108
  0
LINE
  8
0
 10
-40.2135
 20
-6.67108
 11
-39.9898
 21
-6.89471
  0
LINE
  8
0
 10
-39.9898
 20
-6.89471
 11
-39.5865
 21
-6.49237
  0
LINE
  8
0
 10
32.0348
 20
-6.50897
 11
31.4019
 21
-6.50897
  0
LINE
  8
0
 10
31.4019
 20
-6.50897
 11
31.4019
 21
-8.53436
  0
LINE
  8
0
 10
31.4019
 20
-8.53436
 11
32.0348
 21
-8.53436
  0
LINE
  8
0
 10
32.0348
 20
-8.53436
 11
32.0348
 21
-6.50897
  0
LINE
  8
0
 10
28.0348
 20
-6.50897
 11
27.4019
 21
-6.50897
  0
LINE
  8
0
 10
27.4019
 20
-6.50897
 11
27.4019
 21
-8.53436
  0
LINE
  8
0
 10
27.4019
 20
-8.53436
 11
28.0348
 21
-8.53436
  0
LINE
  8
0
 10
28.0348
 20
-8.53436
 11
28.0348
 21
-6.50897
  0
LINE
  8
0
 10
19.1266
 20
-7.20331
 11
18.9205
 21
-6.70624
  0
LINE
  8
0
 10
18.9205
 20
-6.70624
 11
18.3355
 21
-6.94843
  0
LINE
  8
0
 10
18.3355
 20
-6.94843
 11
18.5416
 21
-7.4455
  0
LINE
  8
0
 10
18.5416
 20
-7.4455
 11
19.1266
 21
-7.20331
  0
LINE
  8
0
 10
57.8639
 20
-6.94843
 11
57.2789
 21
-6.70624
  0
LINE
  8
0
 10
57.2789
 20
-6.70624
 11
57.0728
 21
-7.20331
  0
LINE
  8
0
 10
57.0728
 20
-7.20331
 11
57.6578
 21
-7.4455
  0
LINE
  8
0
 10
57.6578
 20
-7.4455
 11
57.8639
 21
-6.94843
  0
LINE
  8
0
 10
-17.3824
 20
-7.12518
 11
-17.8502
 21
-6.93182
  0
LINE
  8
0
 10
-17.8502
 20
-6.93182
 11
-17.9234
 21
-7.1076
  0
LINE
  8
0
 10
-17.9234
 20
-7.1076
 11
-17.4557
 21
-7.30096
  0
LINE
  8
0
 10
-17.4557
 20
-7.30096
 11
-17.3824
 21
-7.12518
  0
LINE
  8
0
 10
-14.6783
 20
-7.12909
 11
-15.1461
 21
-6.93573
  0
LINE
  8
0
 10
-15.1461
 20
-6.93573
 11
-15.2428
 21
-7.16913
  0
LINE
  8
0
 10
-15.2428
 20
-7.16913
 11
-14.775
 21
-7.36346
  0
LINE
  8
0
 10
-14.775
 20
-7.36346
 11
-14.6783
 21
-7.12909
  0
LINE
  8
0
 10
-38.526
 20
-7.55292
 11
-38.7506
 21
-7.32928
  0
LINE
  8
0
 10
-38.7506
 20
-7.32928
 11
-39.1529
 21
-7.73163
  0
LINE
  8
0
 10
-39.1529
 20
-7.73163
 11
-38.9293
 21
-7.95526
  0
LINE
  8
0
 10
-38.9293
 20
-7.95526
 11
-38.526
 21
-7.55292
  0
LINE
  8
0
 10
-17.5738
 20
-7.58807
 11
-18.0416
 21
-7.39374
  0
LINE
  8
0
 10
-18.0416
 20
-7.39374
 11
-18.1148
 21
-7.56952
  0
LINE
  8
0
 10
-18.1148
 20
-7.56952
 11
-17.6471
 21
-7.76288
  0
LINE
  8
0
 10
-17.6471
 20
-7.76288
 11
-17.5738
 21
-7.58807
  0
LINE
  8
0
 10
36.0992
 20
-7.4494
 11
35.5289
 21
-7.4494
  0
LINE
  8
0
 10
35.5289
 20
-7.4494
 11
35.5289
 21
-7.76581
  0
LINE
  8
0
 10
35.5289
 20
-7.76581
 11
36.0992
 21
-7.76581
  0
LINE
  8
0
 10
36.0992
 20
-7.76581
 11
36.0992
 21
-7.4494
  0
LINE
  8
0
 10
-41.2623
 20
-7.70819
 11
-41.6734
 21
-7.70819
  0
LINE
  8
0
 10
-41.6734
 20
-7.70819
 11
-41.6734
 21
-8.37909
  0
LINE
  8
0
 10
-41.6734
 20
-8.37909
 11
-41.2623
 21
-8.37909
  0
LINE
  8
0
 10
-41.2623
 20
-8.37909
 11
-41.2623
 21
-7.70819
  0
LINE
  8
0
 10
-43.1627
 20
-7.70819
 11
-43.5738
 21
-7.70819
  0
LINE
  8
0
 10
-43.5738
 20
-7.70819
 11
-43.5738
 21
-8.37909
  0
LINE
  8
0
 10
-43.5738
 20
-8.37909
 11
-43.1627
 21
-8.37909
  0
LINE
  8
0
 10
-43.1627
 20
-8.37909
 11
-43.1627
 21
-7.70819
  0
LINE
  8
0
 10
-42.2125
 20
-7.70819
 11
-42.6236
 21
-7.70819
  0
LINE
  8
0
 10
-42.6236
 20
-7.70819
 11
-42.6236
 21
-8.37909
  0
LINE
  8
0
 10
-42.6236
 20
-8.37909
 11
-42.2125
 21
-8.37909
  0
LINE
  8
0
 10
-42.2125
 20
-8.37909
 11
-42.2125
 21
-7.70819
  0
LINE
  8
0
 10
-17.7652
 20
-8.04901
 11
-18.233
 21
-7.85565
  0
LINE
  8
0
 10
-18.233
 20
-7.85565
 11
-18.3062
 21
-8.03143
  0
LINE
  8
0
 10
-18.3062
 20
-8.03143
 11
-17.8385
 21
-8.22479
  0
LINE
  8
0
 10
-17.8385
 20
-8.22479
 11
-17.7652
 21
-8.04901
  0
LINE
  8
0
 10
15.8932
 20
-8.54218
 11
15.6871
 21
-8.0451
  0
LINE
  8
0
 10
15.6871
 20
-8.0451
 11
15.1021
 21
-8.28729
  0
LINE
  8
0
 10
15.1021
 20
-8.28729
 11
15.3082
 21
-8.78436
  0
LINE
  8
0
 10
15.3082
 20
-8.78436
 11
15.8932
 21
-8.54218
  0
LINE
  8
0
 10
61.0973
 20
-8.28729
 11
60.5123
 21
-8.0451
  0
LINE
  8
0
 10
60.5123
 20
-8.0451
 11
60.3072
 21
-8.54218
  0
LINE
  8
0
 10
60.3072
 20
-8.54218
 11
60.8912
 21
-8.78436
  0
LINE
  8
0
 10
60.8912
 20
-8.78436
 11
61.0973
 21
-8.28729
  0
LINE
  8
0
 10
-17.9566
 20
-8.5119
 11
-18.4244
 21
-8.31757
  0
LINE
  8
0
 10
-18.4244
 20
-8.31757
 11
-18.4977
 21
-8.49335
  0
LINE
  8
0
 10
-18.4977
 20
-8.49335
 11
-18.0289
 21
-8.68671
  0
LINE
  8
0
 10
-18.0289
 20
-8.68671
 11
-17.9566
 21
-8.5119
  0
LINE
  8
0
 10
57.1939
 20
-8.56464
 11
56.61
 21
-8.32245
  0
LINE
  8
0
 10
56.61
 20
-8.32245
 11
56.4039
 21
-8.81952
  0
LINE
  8
0
 10
56.4039
 20
-8.81952
 11
56.9889
 21
-9.06171
  0
LINE
  8
0
 10
56.9889
 20
-9.06171
 11
57.1939
 21
-8.56464
  0
LINE
  8
0
 10
19.7965
 20
-8.81952
 11
19.5904
 21
-8.32245
  0
LINE
  8
0
 10
19.5904
 20
-8.32245
 11
19.0055
 21
-8.56464
  0
LINE
  8
0
 10
19.0055
 20
-8.56464
 11
19.2115
 21
-9.06171
  0
LINE
  8
0
 10
19.2115
 20
-9.06171
 11
19.7965
 21
-8.81952
  0
LINE
  8
0
 10
49.273
 20
-8.49628
 11
48.6021
 21
-8.49628
  0
LINE
  8
0
 10
48.6021
 20
-8.49628
 11
48.6021
 21
-8.90741
  0
LINE
  8
0
 10
48.6021
 20
-8.90741
 11
49.273
 21
-8.90741
  0
LINE
  8
0
 10
49.273
 20
-8.90741
 11
49.273
 21
-8.49628
  0
LINE
  8
0
 10
51.4732
 20
-8.49628
 11
50.8023
 21
-8.49628
  0
LINE
  8
0
 10
50.8023
 20
-8.49628
 11
50.8023
 21
-8.90741
  0
LINE
  8
0
 10
50.8023
 20
-8.90741
 11
51.4732
 21
-8.90741
  0
LINE
  8
0
 10
51.4732
 20
-8.90741
 11
51.4732
 21
-8.49628
  0
LINE
  8
0
 10
-18.148
 20
-8.97382
 11
-18.6158
 21
-8.77948
  0
LINE
  8
0
 10
-18.6158
 20
-8.77948
 11
-18.6881
 21
-8.95526
  0
LINE
  8
0
 10
-18.6881
 20
-8.95526
 11
-18.2203
 21
-9.14862
  0
LINE
  8
0
 10
-18.2203
 20
-9.14862
 11
-18.148
 21
-8.97382
  0
LINE
  8
0
 10
-18.3394
 20
-9.43573
 11
-18.8072
 21
-9.24139
  0
LINE
  8
0
 10
-18.8072
 20
-9.24139
 11
-18.8795
 21
-9.41718
  0
LINE
  8
0
 10
-18.8795
 20
-9.41718
 11
-18.4117
 21
-9.61053
  0
LINE
  8
0
 10
-18.4117
 20
-9.61053
 11
-18.3394
 21
-9.43573
  0
LINE
  8
0
 10
51.4732
 20
-9.44647
 11
50.8023
 21
-9.44647
  0
LINE
  8
0
 10
50.8023
 20
-9.44647
 11
50.8023
 21
-9.8576
  0
LINE
  8
0
 10
50.8023
 20
-9.8576
 11
51.4732
 21
-9.8576
  0
LINE
  8
0
 10
51.4732
 20
-9.8576
 11
51.4732
 21
-9.44647
  0
LINE
  8
0
 10
60.4283
 20
-9.90448
 11
59.8434
 21
-9.66229
  0
LINE
  8
0
 10
59.8434
 20
-9.66229
 11
59.6373
 21
-10.1594
  0
LINE
  8
0
 10
59.6373
 20
-10.1594
 11
60.2223
 21
-10.4016
  0
LINE
  8
0
 10
60.2223
 20
-10.4016
 11
60.4283
 21
-9.90448
  0
LINE
  8
0
 10
16.5631
 20
-10.1594
 11
16.357
 21
-9.66229
  0
LINE
  8
0
 10
16.357
 20
-9.66229
 11
15.7721
 21
-9.90448
  0
LINE
  8
0
 10
15.7721
 20
-9.90448
 11
15.9781
 21
-10.4016
  0
LINE
  8
0
 10
15.9781
 20
-10.4016
 11
16.5631
 21
-10.1594
  0
LINE
  8
0
 10
-34.7398
 20
-9.83514
 11
-35.1822
 21
-9.83514
  0
LINE
  8
0
 10
-35.1822
 20
-9.83514
 11
-35.1822
 21
-9.99335
  0
LINE
  8
0
 10
-35.1822
 20
-9.99335
 11
-34.7398
 21
-9.99335
  0
LINE
  8
0
 10
-34.7398
 20
-9.99335
 11
-34.7398
 21
-9.83514
  0
LINE
  8
0
 10
-32.8893
 20
-9.83514
 11
-33.3326
 21
-9.83514
  0
LINE
  8
0
 10
-33.3326
 20
-9.83514
 11
-33.3326
 21
-9.99335
  0
LINE
  8
0
 10
-33.3326
 20
-9.99335
 11
-32.8893
 21
-9.99335
  0
LINE
  8
0
 10
-32.8893
 20
-9.99335
 11
-32.8893
 21
-9.83514
  0
LINE
  8
0
 10
-33.8531
 20
-9.84589
 11
-34.2193
 21
-9.84589
  0
LINE
  8
0
 10
-34.2193
 20
-9.84589
 11
-34.2193
 21
-10.2717
  0
LINE
  8
0
 10
-34.2193
 20
-10.2717
 11
-33.8531
 21
-10.2717
  0
LINE
  8
0
 10
-33.8531
 20
-10.2717
 11
-33.8531
 21
-9.84589
  0
LINE
  8
0
 10
-41.2623
 20
-9.90839
 11
-41.6734
 21
-9.90839
  0
LINE
  8
0
 10
-41.6734
 20
-9.90839
 11
-41.6734
 21
-10.5793
  0
LINE
  8
0
 10
-41.6734
 20
-10.5793
 11
-41.2623
 21
-10.5793
  0
LINE
  8
0
 10
-41.2623
 20
-10.5793
 11
-41.2623
 21
-9.90839
  0
LINE
  8
0
 10
-43.1627
 20
-9.90839
 11
-43.5738
 21
-9.90839
  0
LINE
  8
0
 10
-43.5738
 20
-9.90839
 11
-43.5738
 21
-10.5793
  0
LINE
  8
0
 10
-43.5738
 20
-10.5793
 11
-43.1627
 21
-10.5793
  0
LINE
  8
0
 10
-43.1627
 20
-10.5793
 11
-43.1627
 21
-9.90839
  0
LINE
  8
0
 10
24.984
 20
-9.95135
 11
22.7682
 21
-9.95135
  0
LINE
  8
0
 10
22.7682
 20
-9.95135
 11
22.7682
 21
-11.0266
  0
LINE
  8
0
 10
22.7682
 20
-11.0266
 11
24.984
 21
-11.0266
  0
LINE
  8
0
 10
24.984
 20
-11.0266
 11
24.984
 21
-9.95135
  0
LINE
  8
0
 10
-34.7398
 20
-10.3351
 11
-35.1822
 21
-10.3351
  0
LINE
  8
0
 10
-35.1822
 20
-10.3351
 11
-35.1822
 21
-10.4933
  0
LINE
  8
0
 10
-35.1822
 20
-10.4933
 11
-34.7398
 21
-10.4933
  0
LINE
  8
0
 10
-34.7398
 20
-10.4933
 11
-34.7398
 21
-10.3351
  0
LINE
  8
0
 10
-32.8893
 20
-10.3351
 11
-33.3326
 21
-10.3351
  0
LINE
  8
0
 10
-33.3326
 20
-10.3351
 11
-33.3326
 21
-10.4933
  0
LINE
  8
0
 10
-33.3326
 20
-10.4933
 11
-32.8893
 21
-10.4933
  0
LINE
  8
0
 10
-32.8893
 20
-10.4933
 11
-32.8893
 21
-10.3351
  0
LINE
  8
0
 10
51.4732
 20
-10.3967
 11
50.8023
 21
-10.3967
  0
LINE
  8
0
 10
50.8023
 20
-10.3967
 11
50.8023
 21
-10.8078
  0
LINE
  8
0
 10
50.8023
 20
-10.8078
 11
51.4732
 21
-10.8078
  0
LINE
  8
0
 10
51.4732
 20
-10.8078
 11
51.4732
 21
-10.3967
  0
LINE
  8
0
 10
49.273
 20
-10.3967
 11
48.6021
 21
-10.3967
  0
LINE
  8
0
 10
48.6021
 20
-10.3967
 11
48.6021
 21
-10.8078
  0
LINE
  8
0
 10
48.6021
 20
-10.8078
 11
49.273
 21
-10.8078
  0
LINE
  8
0
 10
49.273
 20
-10.8078
 11
49.273
 21
-10.3967
  0
LINE
  8
0
 10
35.0504
 20
-10.4279
 11
34.5455
 21
-10.4279
  0
LINE
  8
0
 10
34.5455
 20
-10.4279
 11
34.5455
 21
-10.9328
  0
LINE
  8
0
 10
34.5455
 20
-10.9328
 11
35.0504
 21
-10.9328
  0
LINE
  8
0
 10
35.0504
 20
-10.9328
 11
35.0504
 21
-10.4279
  0
LINE
  8
0
 10
-50.0621
 20
-10.9953
 11
-50.5094
 21
-10.548
  0
LINE
  8
0
 10
-50.5094
 20
-10.548
 11
-52.0758
 21
-12.1144
  0
LINE
  8
0
 10
-52.0758
 20
-12.1144
 11
-51.6285
 21
-12.5617
  0
LINE
  8
0
 10
-51.6285
 20
-12.5617
 11
-50.0621
 21
-10.9953
  0
LINE
  8
0
 10
-33.8531
 20
-10.5558
 11
-34.2193
 21
-10.5558
  0
LINE
  8
0
 10
-34.2193
 20
-10.5558
 11
-34.2193
 21
-10.9816
  0
LINE
  8
0
 10
-34.2193
 20
-10.9816
 11
-33.8531
 21
-10.9816
  0
LINE
  8
0
 10
-33.8531
 20
-10.9816
 11
-33.8531
 21
-10.5558
  0
LINE
  8
0
 10
-34.7398
 20
-10.8351
 11
-35.1822
 21
-10.8351
  0
LINE
  8
0
 10
-35.1822
 20
-10.8351
 11
-35.1822
 21
-10.9933
  0
LINE
  8
0
 10
-35.1822
 20
-10.9933
 11
-34.7398
 21
-10.9933
  0
LINE
  8
0
 10
-34.7398
 20
-10.9933
 11
-34.7398
 21
-10.8351
  0
LINE
  8
0
 10
-32.8893
 20
-10.8351
 11
-33.3326
 21
-10.8351
  0
LINE
  8
0
 10
-33.3326
 20
-10.8351
 11
-33.3326
 21
-10.9933
  0
LINE
  8
0
 10
-33.3326
 20
-10.9933
 11
-32.8893
 21
-10.9933
  0
LINE
  8
0
 10
-32.8893
 20
-10.9933
 11
-32.8893
 21
-10.8351
  0
LINE
  8
0
 10
-16.4
 20
-11.2863
 11
-16.8678
 21
-11.093
  0
LINE
  8
0
 10
-16.8678
 20
-11.093
 11
-16.9654
 21
-11.3264
  0
LINE
  8
0
 10
-16.9654
 20
-11.3264
 11
-16.4967
 21
-11.5207
  0
LINE
  8
0
 10
-16.4967
 20
-11.5207
 11
-16.4
 21
-11.2863
  0
LINE
  8
0
 10
18.6168
 20
-11.5402
 11
18.4957
 21
-11.2482
  0
LINE
  8
0
 10
18.4957
 20
-11.2482
 11
18.1451
 21
-11.3937
  0
LINE
  8
0
 10
18.1451
 20
-11.3937
 11
18.2662
 21
-11.6857
  0
LINE
  8
0
 10
18.2662
 20
-11.6857
 11
18.6168
 21
-11.5402
  0
LINE
  8
0
 10
17.6012
 20
-11.9611
 11
17.4801
 21
-11.6691
  0
LINE
  8
0
 10
17.4801
 20
-11.6691
 11
17.1285
 21
-11.8146
  0
LINE
  8
0
 10
17.1285
 20
-11.8146
 11
17.2496
 21
-12.1066
  0
LINE
  8
0
 10
17.2496
 20
-12.1066
 11
17.6012
 21
-11.9611
  0
LINE
  8
0
 10
35.0504
 20
-11.9269
 11
34.5455
 21
-11.9269
  0
LINE
  8
0
 10
34.5455
 20
-11.9269
 11
34.5455
 21
-12.4318
  0
LINE
  8
0
 10
34.5455
 20
-12.4318
 11
35.0504
 21
-12.4318
  0
LINE
  8
0
 10
35.0504
 20
-12.4318
 11
35.0504
 21
-11.9269
  0
LINE
  8
0
 10
-48.648
 20
-12.4094
 11
-49.0953
 21
-11.9621
  0
LINE
  8
0
 10
-49.0953
 20
-11.9621
 11
-50.6617
 21
-13.5285
  0
LINE
  8
0
 10
-50.6617
 20
-13.5285
 11
-50.2144
 21
-13.9758
  0
LINE
  8
0
 10
-50.2144
 20
-13.9758
 11
-48.648
 21
-12.4094
  0
LINE
  8
0
 10
51.0318
 20
-12.2873
 11
50.6519
 21
-12.2873
  0
LINE
  8
0
 10
50.6519
 20
-12.2873
 11
50.6519
 21
-12.6047
  0
LINE
  8
0
 10
50.6519
 20
-12.6047
 11
51.0318
 21
-12.6047
  0
LINE
  8
0
 10
51.0318
 20
-12.6047
 11
51.0318
 21
-12.2873
  0
LINE
  8
0
 10
49.9322
 20
-12.2873
 11
49.5523
 21
-12.2873
  0
LINE
  8
0
 10
49.5523
 20
-12.2873
 11
49.5523
 21
-12.6047
  0
LINE
  8
0
 10
49.5523
 20
-12.6047
 11
49.9322
 21
-12.6047
  0
LINE
  8
0
 10
49.9322
 20
-12.6047
 11
49.9322
 21
-12.2873
  0
LINE
  8
0
 10
-55.5719
 20
-13.3791
 11
-56.2877
 21
-12.6633
  0
LINE
  8
0
 10
-56.2877
 20
-12.6633
 11
-57.8092
 21
-14.1848
  0
LINE
  8
0
 10
-57.8092
 20
-14.1848
 11
-57.0933
 21
-14.9016
  0
LINE
  8
0
 10
-57.0933
 20
-14.9016
 11
-55.5719
 21
-13.3791
  0
LINE
  8
0
 10
44.4801
 20
-12.801
 11
43.8473
 21
-12.801
  0
LINE
  8
0
 10
43.8473
 20
-12.801
 11
43.8473
 21
-14.8264
  0
LINE
  8
0
 10
43.8473
 20
-14.8264
 11
44.4801
 21
-14.8264
  0
LINE
  8
0
 10
44.4801
 20
-14.8264
 11
44.4801
 21
-12.801
  0
LINE
  8
0
 10
40.4801
 20
-12.801
 11
39.8473
 21
-12.801
  0
LINE
  8
0
 10
39.8473
 20
-12.801
 11
39.8473
 21
-14.8264
  0
LINE
  8
0
 10
39.8473
 20
-14.8264
 11
40.4801
 21
-14.8264
  0
LINE
  8
0
 10
40.4801
 20
-14.8264
 11
40.4801
 21
-12.801
  0
LINE
  8
0
 10
32.0348
 20
-13.3088
 11
31.4019
 21
-13.3088
  0
LINE
  8
0
 10
31.4019
 20
-13.3088
 11
31.4019
 21
-15.3351
  0
LINE
  8
0
 10
31.4019
 20
-15.3351
 11
32.0348
 21
-15.3351
  0
LINE
  8
0
 10
32.0348
 20
-15.3351
 11
32.0348
 21
-13.3088
  0
LINE
  8
0
 10
28.0348
 20
-13.3088
 11
27.4019
 21
-13.3088
  0
LINE
  8
0
 10
27.4019
 20
-13.3088
 11
27.4019
 21
-15.3351
  0
LINE
  8
0
 10
27.4019
 20
-15.3351
 11
28.0348
 21
-15.3351
  0
LINE
  8
0
 10
28.0348
 20
-15.3351
 11
28.0348
 21
-13.3088
  0
LINE
  8
0
 10
23.3277
 20
-13.9152
 11
22.9469
 21
-13.5353
  0
LINE
  8
0
 10
22.9469
 20
-13.5353
 11
22.4996
 21
-13.9826
  0
LINE
  8
0
 10
22.4996
 20
-13.9826
 11
22.8795
 21
-14.3635
  0
LINE
  8
0
 10
22.8795
 20
-14.3635
 11
23.3277
 21
-13.9152
  0
LINE
  8
0
 10
53.7008
 20
-13.9826
 11
53.2525
 21
-13.5353
  0
LINE
  8
0
 10
53.2525
 20
-13.5353
 11
52.8727
 21
-13.9152
  0
LINE
  8
0
 10
52.8727
 20
-13.9152
 11
53.3199
 21
-14.3635
  0
LINE
  8
0
 10
53.3199
 20
-14.3635
 11
53.7008
 21
-13.9826
  0
LINE
  8
0
 10
56.4859
 20
-13.8517
 11
56.2174
 21
-13.5832
  0
LINE
  8
0
 10
56.2174
 20
-13.5832
 11
55.9937
 21
-13.8068
  0
LINE
  8
0
 10
55.9937
 20
-13.8068
 11
56.2623
 21
-14.0754
  0
LINE
  8
0
 10
56.2623
 20
-14.0754
 11
56.4859
 21
-13.8517
  0
LINE
  8
0
 10
-21.6861
 20
-14.5109
 11
-22.0445
 21
-14.1535
  0
LINE
  8
0
 10
-22.0445
 20
-14.1535
 11
-22.1793
 21
-14.2873
  0
LINE
  8
0
 10
-22.1793
 20
-14.2873
 11
-21.8209
 21
-14.6457
  0
LINE
  8
0
 10
-21.8209
 20
-14.6457
 11
-21.6861
 21
-14.5109
  0
LINE
  8
0
 10
57.2643
 20
-14.6301
 11
56.9957
 21
-14.3615
  0
LINE
  8
0
 10
56.9957
 20
-14.3615
 11
56.7721
 21
-14.5851
  0
LINE
  8
0
 10
56.7721
 20
-14.5851
 11
57.0406
 21
-14.8537
  0
LINE
  8
0
 10
57.0406
 20
-14.8537
 11
57.2643
 21
-14.6301
  0
LINE
  8
0
 10
-22.0396
 20
-14.8654
 11
-22.398
 21
-14.507
  0
LINE
  8
0
 10
-22.398
 20
-14.507
 11
-22.5328
 21
-14.6408
  0
LINE
  8
0
 10
-22.5328
 20
-14.6408
 11
-22.1744
 21
-14.9992
  0
LINE
  8
0
 10
-22.1744
 20
-14.9992
 11
-22.0396
 21
-14.8654
  0
LINE
  8
0
 10
24.565
 20
-15.1525
 11
24.1842
 21
-14.7726
  0
LINE
  8
0
 10
24.1842
 20
-14.7726
 11
23.7369
 21
-15.2199
  0
LINE
  8
0
 10
23.7369
 20
-15.2199
 11
24.1178
 21
-15.6008
  0
LINE
  8
0
 10
24.1178
 20
-15.6008
 11
24.565
 21
-15.1525
  0
LINE
  8
0
 10
52.4635
 20
-15.2199
 11
52.0152
 21
-14.7726
  0
LINE
  8
0
 10
52.0152
 20
-14.7726
 11
51.6353
 21
-15.1525
  0
LINE
  8
0
 10
51.6353
 20
-15.1525
 11
52.0826
 21
-15.6008
  0
LINE
  8
0
 10
52.0826
 20
-15.6008
 11
52.4635
 21
-15.2199
  0
LINE
  8
0
 10
-22.3932
 20
-15.2189
 11
-22.7516
 21
-14.8605
  0
LINE
  8
0
 10
-22.7516
 20
-14.8605
 11
-22.8863
 21
-14.9943
  0
LINE
  8
0
 10
-22.8863
 20
-14.9943
 11
-22.5279
 21
-15.3527
  0
LINE
  8
0
 10
-22.5279
 20
-15.3527
 11
-22.3932
 21
-15.2189
  0
LINE
  8
0
 10
-19.1891
 20
-15.55
 11
-19.5475
 21
-15.1916
  0
LINE
  8
0
 10
-19.5475
 20
-15.1916
 11
-19.7262
 21
-15.3703
  0
LINE
  8
0
 10
-19.7262
 20
-15.3703
 11
-19.3687
 21
-15.7287
  0
LINE
  8
0
 10
-19.3687
 20
-15.7287
 11
-19.1891
 21
-15.55
  0
LINE
  8
0
 10
-22.7477
 20
-15.5724
 11
-23.1051
 21
-15.2141
  0
LINE
  8
0
 10
-23.1051
 20
-15.2141
 11
-23.2398
 21
-15.3478
  0
LINE
  8
0
 10
-23.2398
 20
-15.3478
 11
-22.8814
 21
-15.7062
  0
LINE
  8
0
 10
-22.8814
 20
-15.7062
 11
-22.7477
 21
-15.5724
  0
LINE
  8
0
 10
-23.1012
 20
-15.926
 11
-23.4586
 21
-15.5676
  0
LINE
  8
0
 10
-23.4586
 20
-15.5676
 11
-23.5934
 21
-15.7014
  0
LINE
  8
0
 10
-23.5934
 20
-15.7014
 11
-23.235
 21
-16.0598
  0
LINE
  8
0
 10
-23.235
 20
-16.0598
 11
-23.1012
 21
-15.926
  0
LINE
  8
0
 10
-23.4547
 20
-16.2795
 11
-23.8121
 21
-15.9211
  0
LINE
  8
0
 10
-23.8121
 20
-15.9211
 11
-23.9469
 21
-16.0558
  0
LINE
  8
0
 10
-23.9469
 20
-16.0558
 11
-23.5885
 21
-16.4133
  0
LINE
  8
0
 10
-23.5885
 20
-16.4133
 11
-23.4547
 21
-16.2795
  0
LINE
  8
0
 10
56.1754
 20
-16.4572
 11
55.7281
 21
-16.0099
  0
LINE
  8
0
 10
55.7281
 20
-16.0099
 11
55.3473
 21
-16.3908
  0
LINE
  8
0
 10
55.3473
 20
-16.3908
 11
55.7945
 21
-16.8381
  0
LINE
  8
0
 10
55.7945
 20
-16.8381
 11
56.1754
 21
-16.4572
  0
LINE
  8
0
 10
20.8521
 20
-16.3908
 11
20.4723
 21
-16.0099
  0
LINE
  8
0
 10
20.4723
 20
-16.0099
 11
20.025
 21
-16.4572
  0
LINE
  8
0
 10
20.025
 20
-16.4572
 11
20.4049
 21
-16.8381
  0
LINE
  8
0
 10
20.4049
 20
-16.8381
 11
20.8521
 21
-16.3908
  0
LINE
  8
0
 10
-43.7838
 20
-16.6174
 11
-44.3541
 21
-16.6174
  0
LINE
  8
0
 10
-44.3541
 20
-16.6174
 11
-44.3541
 21
-16.9338
  0
LINE
  8
0
 10
-44.3541
 20
-16.9338
 11
-43.7838
 21
-16.9338
  0
LINE
  8
0
 10
-43.7838
 20
-16.9338
 11
-43.7838
 21
-16.6174
  0
LINE
  8
0
 10
39.6549
 20
-16.8713
 11
39.0855
 21
-16.8713
  0
LINE
  8
0
 10
39.0855
 20
-16.8713
 11
39.0855
 21
-17.1887
  0
LINE
  8
0
 10
39.0855
 20
-17.1887
 11
39.6549
 21
-17.1887
  0
LINE
  8
0
 10
39.6549
 20
-17.1887
 11
39.6549
 21
-16.8713
  0
LINE
  8
0
 10
22.0904
 20
-17.6281
 11
21.7096
 21
-17.2473
  0
LINE
  8
0
 10
21.7096
 20
-17.2473
 11
21.2623
 21
-17.6945
  0
LINE
  8
0
 10
21.2623
 20
-17.6945
 11
21.6422
 21
-18.0754
  0
LINE
  8
0
 10
21.6422
 20
-18.0754
 11
22.0904
 21
-17.6281
  0
LINE
  8
0
 10
54.9381
 20
-17.6945
 11
54.4908
 21
-17.2473
  0
LINE
  8
0
 10
54.4908
 20
-17.2473
 11
54.11
 21
-17.6281
  0
LINE
  8
0
 10
54.11
 20
-17.6281
 11
54.5572
 21
-18.0754
  0
LINE
  8
0
 10
54.5572
 20
-18.0754
 11
54.9381
 21
-17.6945
  0
LINE
  8
0
 10
-50.7633
 20
-18.1877
 11
-51.4791
 21
-17.4719
  0
LINE
  8
0
 10
-51.4791
 20
-17.4719
 11
-53.0015
 21
-18.9933
  0
LINE
  8
0
 10
-53.0015
 20
-18.9933
 11
-52.2847
 21
-19.7092
  0
LINE
  8
0
 10
-52.2847
 20
-19.7092
 11
-50.7633
 21
-18.1877
  0
LINE
  8
0
 10
24.5162
 20
-18.1174
 11
24.2926
 21
-17.8937
  0
LINE
  8
0
 10
24.2926
 20
-17.8937
 11
24.024
 21
-18.1623
  0
LINE
  8
0
 10
24.024
 20
-18.1623
 11
24.2477
 21
-18.3859
  0
LINE
  8
0
 10
24.2477
 20
-18.3859
 11
24.5162
 21
-18.1174
  0
LINE
  8
0
 10
-43.7838
 20
-18.1174
 11
-44.3541
 21
-18.1174
  0
LINE
  8
0
 10
-44.3541
 20
-18.1174
 11
-44.3541
 21
-18.4338
  0
LINE
  8
0
 10
-44.3541
 20
-18.4338
 11
-43.7838
 21
-18.4338
  0
LINE
  8
0
 10
-43.7838
 20
-18.4338
 11
-43.7838
 21
-18.1174
  0
LINE
  8
0
 10
36.4283
 20
-18.1301
 11
36.0484
 21
-18.1301
  0
LINE
  8
0
 10
36.0484
 20
-18.1301
 11
36.0484
 21
-18.4465
  0
LINE
  8
0
 10
36.0484
 20
-18.4465
 11
36.4283
 21
-18.4465
  0
LINE
  8
0
 10
36.4283
 20
-18.4465
 11
36.4283
 21
-18.1301
  0
LINE
  8
0
 10
37.5279
 20
-18.1301
 11
37.148
 21
-18.1301
  0
LINE
  8
0
 10
37.148
 20
-18.1301
 11
37.148
 21
-18.4465
  0
LINE
  8
0
 10
37.148
 20
-18.4465
 11
37.5279
 21
-18.4465
  0
LINE
  8
0
 10
37.5279
 20
-18.4465
 11
37.5279
 21
-18.1301
  0
LINE
  8
0
 10
47.1617
 20
-18.8889
 11
46.9195
 21
-18.3039
  0
LINE
  8
0
 10
46.9195
 20
-18.3039
 11
46.4225
 21
-18.5099
  0
LINE
  8
0
 10
46.4225
 20
-18.5099
 11
46.6646
 21
-19.0939
  0
LINE
  8
0
 10
46.6646
 20
-19.0939
 11
47.1617
 21
-18.8889
  0
LINE
  8
0
 10
29.7769
 20
-18.5099
 11
29.2799
 21
-18.3039
  0
LINE
  8
0
 10
29.2799
 20
-18.3039
 11
29.0377
 21
-18.8889
  0
LINE
  8
0
 10
29.0377
 20
-18.8889
 11
29.5348
 21
-19.0939
  0
LINE
  8
0
 10
29.5348
 20
-19.0939
 11
29.7769
 21
-18.5099
  0
LINE
  8
0
 10
39.6549
 20
-18.3713
 11
39.0855
 21
-18.3713
  0
LINE
  8
0
 10
39.0855
 20
-18.3713
 11
39.0855
 21
-18.6887
  0
LINE
  8
0
 10
39.0855
 20
-18.6887
 11
39.6549
 21
-18.6887
  0
LINE
  8
0
 10
39.6549
 20
-18.6887
 11
39.6549
 21
-18.3713
  0
LINE
  8
0
 10
-22.3717
 20
-18.7316
 11
-22.7291
 21
-18.3732
  0
LINE
  8
0
 10
-22.7291
 20
-18.3732
 11
-22.9088
 21
-18.5529
  0
LINE
  8
0
 10
-22.9088
 20
-18.5529
 11
-22.5504
 21
-18.9103
  0
LINE
  8
0
 10
-22.5504
 20
-18.9103
 11
-22.3717
 21
-18.7316
  0
LINE
  8
0
 10
23.7389
 20
-18.8957
 11
23.5152
 21
-18.6721
  0
LINE
  8
0
 10
23.5152
 20
-18.6721
 11
23.2467
 21
-18.9406
  0
LINE
  8
0
 10
23.2467
 20
-18.9406
 11
23.4703
 21
-19.1642
  0
LINE
  8
0
 10
23.4703
 20
-19.1642
 11
23.7389
 21
-18.8957
  0
LINE
  8
0
 10
31.3941
 20
-19.1789
 11
30.8971
 21
-18.9728
  0
LINE
  8
0
 10
30.8971
 20
-18.9728
 11
30.6549
 21
-19.5578
  0
LINE
  8
0
 10
30.6549
 20
-19.5578
 11
31.1519
 21
-19.7639
  0
LINE
  8
0
 10
31.1519
 20
-19.7639
 11
31.3941
 21
-19.1789
  0
LINE
  8
0
 10
45.5455
 20
-19.5578
 11
45.3033
 21
-18.9728
  0
LINE
  8
0
 10
45.3033
 20
-18.9728
 11
44.8062
 21
-19.1789
  0
LINE
  8
0
 10
44.8062
 20
-19.1789
 11
45.0484
 21
-19.7639
  0
LINE
  8
0
 10
45.0484
 20
-19.7639
 11
45.5455
 21
-19.5578
  0
LINE
  8
0
 10
49.7857
 20
-19.8342
 11
49.6402
 21
-19.4826
  0
LINE
  8
0
 10
49.6402
 20
-19.4826
 11
49.3482
 21
-19.6037
  0
LINE
  8
0
 10
49.3482
 20
-19.6037
 11
49.4937
 21
-19.9553
  0
LINE
  8
0
 10
49.4937
 20
-19.9553
 11
49.7857
 21
-19.8342
  0
LINE
  8
0
 10
39.2437
 20
-20.2853
 11
38.7057
 21
-20.2853
  0
LINE
  8
0
 10
38.7057
 20
-20.2853
 11
38.7057
 21
-20.9182
  0
LINE
  8
0
 10
38.7057
 20
-20.9182
 11
39.2437
 21
-20.9182
  0
LINE
  8
0
 10
39.2437
 20
-20.9182
 11
39.2437
 21
-20.2853
  0
LINE
  8
0
 10
37.4937
 20
-20.2853
 11
36.9557
 21
-20.2853
  0
LINE
  8
0
 10
36.9557
 20
-20.2853
 11
36.9557
 21
-20.9182
  0
LINE
  8
0
 10
36.9557
 20
-20.9182
 11
37.4937
 21
-20.9182
  0
LINE
  8
0
 10
37.4937
 20
-20.9182
 11
37.4937
 21
-20.2853
  0
LINE
  8
0
 10
50.2066
 20
-20.8498
 11
50.0611
 21
-20.4992
  0
LINE
  8
0
 10
50.0611
 20
-20.4992
 11
49.7691
 21
-20.6203
  0
LINE
  8
0
 10
49.7691
 20
-20.6203
 11
49.9146
 21
-20.9709
  0
LINE
  8
0
 10
49.9146
 20
-20.9709
 11
50.2066
 21
-20.8498
  0
LINE
  8
0
 10
-39.273
 20
-20.8703
 11
-39.5269
 21
-20.8703
  0
LINE
  8
0
 10
-39.5269
 20
-20.8703
 11
-39.5269
 21
-21.7248
  0
LINE
  8
0
 10
-39.5269
 20
-21.7248
 11
-39.273
 21
-21.7248
  0
LINE
  8
0
 10
-39.273
 20
-21.7248
 11
-39.273
 21
-20.8703
  0
LINE
  8
0
 10
-38.6236
 20
-20.8703
 11
-38.8765
 21
-20.8703
  0
LINE
  8
0
 10
-38.8765
 20
-20.8703
 11
-38.8765
 21
-21.7248
  0
LINE
  8
0
 10
-38.8765
 20
-21.7248
 11
-38.6236
 21
-21.7248
  0
LINE
  8
0
 10
-38.6236
 20
-21.7248
 11
-38.6236
 21
-20.8703
  0
LINE
  8
0
 10
-37.9732
 20
-20.8703
 11
-38.2262
 21
-20.8703
  0
LINE
  8
0
 10
-38.2262
 20
-20.8703
 11
-38.2262
 21
-21.7248
  0
LINE
  8
0
 10
-38.2262
 20
-21.7248
 11
-37.9732
 21
-21.7248
  0
LINE
  8
0
 10
-37.9732
 20
-21.7248
 11
-37.9732
 21
-20.8703
  0
LINE
  8
0
 10
-37.3238
 20
-20.8703
 11
-37.5768
 21
-20.8703
  0
LINE
  8
0
 10
-37.5768
 20
-20.8703
 11
-37.5768
 21
-21.7248
  0
LINE
  8
0
 10
-37.5768
 20
-21.7248
 11
-37.3238
 21
-21.7248
  0
LINE
  8
0
 10
-37.3238
 20
-21.7248
 11
-37.3238
 21
-20.8703
  0
LINE
  8
0
 10
-36.6734
 20
-20.8703
 11
-36.9264
 21
-20.8703
  0
LINE
  8
0
 10
-36.9264
 20
-20.8703
 11
-36.9264
 21
-21.7248
  0
LINE
  8
0
 10
-36.9264
 20
-21.7248
 11
-36.6734
 21
-21.7248
  0
LINE
  8
0
 10
-36.6734
 20
-21.7248
 11
-36.6734
 21
-20.8703
  0
LINE
  8
0
 10
-35.3453
 20
-21.5803
 11
-35.2555
 21
-21.5275
  0
LINE
  8
0
 10
-35.2555
 20
-21.5275
 11
-35.1881
 21
-21.4474
  0
LINE
  8
0
 10
-35.1881
 20
-21.4474
 11
-35.1519
 21
-21.3498
  0
LINE
  8
0
 10
-35.1519
 20
-21.3498
 11
-35.1519
 21
-21.2453
  0
LINE
  8
0
 10
-35.1519
 20
-21.2453
 11
-35.1881
 21
-21.1467
  0
LINE
  8
0
 10
-35.1881
 20
-21.1467
 11
-35.2555
 21
-21.0676
  0
LINE
  8
0
 10
-35.2555
 20
-21.0676
 11
-35.3453
 21
-21.0148
  0
LINE
  8
0
 10
-35.3453
 20
-21.0148
 11
-35.4478
 21
-20.9973
  0
LINE
  8
0
 10
-35.4478
 20
-20.9973
 11
-35.7516
 21
-20.9973
  0
LINE
  8
0
 10
-35.7516
 20
-20.9973
 11
-35.8551
 21
-21.0148
  0
LINE
  8
0
 10
-35.8551
 20
-21.0148
 11
-35.9449
 21
-21.0676
  0
LINE
  8
0
 10
-35.9449
 20
-21.0676
 11
-36.0123
 21
-21.1467
  0
LINE
  8
0
 10
-36.0123
 20
-21.1467
 11
-36.0475
 21
-21.2453
  0
LINE
  8
0
 10
-36.0475
 20
-21.2453
 11
-36.0475
 21
-21.3498
  0
LINE
  8
0
 10
-36.0475
 20
-21.3498
 11
-36.0123
 21
-21.4474
  0
LINE
  8
0
 10
-36.0123
 20
-21.4474
 11
-35.9449
 21
-21.5275
  0
LINE
  8
0
 10
-35.9449
 20
-21.5275
 11
-35.8551
 21
-21.5803
  0
LINE
  8
0
 10
-35.8551
 20
-21.5803
 11
-35.7516
 21
-21.5978
  0
LINE
  8
0
 10
-35.7516
 20
-21.5978
 11
-35.4478
 21
-21.5978
  0
LINE
  8
0
 10
-35.4478
 20
-21.5978
 11
-35.3453
 21
-21.5803
  0
LINE
  8
0
 10
-40.3453
 20
-21.5803
 11
-40.2554
 21
-21.5275
  0
LINE
  8
0
 10
-40.2554
 20
-21.5275
 11
-40.1881
 21
-21.4474
  0
LINE
  8
0
 10
-40.1881
 20
-21.4474
 11
-40.1519
 21
-21.3498
  0
LINE
  8
0
 10
-40.1519
 20
-21.3498
 11
-40.1519
 21
-21.2453
  0
LINE
  8
0
 10
-40.1519
 20
-21.2453
 11
-40.1881
 21
-21.1467
  0
LINE
  8
0
 10
-40.1881
 20
-21.1467
 11
-40.2554
 21
-21.0676
  0
LINE
  8
0
 10
-40.2554
 20
-21.0676
 11
-40.3453
 21
-21.0148
  0
LINE
  8
0
 10
-40.3453
 20
-21.0148
 11
-40.4478
 21
-20.9973
  0
LINE
  8
0
 10
-40.4478
 20
-20.9973
 11
-40.7515
 21
-20.9973
  0
LINE
  8
0
 10
-40.7515
 20
-20.9973
 11
-40.8551
 21
-21.0148
  0
LINE
  8
0
 10
-40.8551
 20
-21.0148
 11
-40.9449
 21
-21.0676
  0
LINE
  8
0
 10
-40.9449
 20
-21.0676
 11
-41.0123
 21
-21.1467
  0
LINE
  8
0
 10
-41.0123
 20
-21.1467
 11
-41.0474
 21
-21.2453
  0
LINE
  8
0
 10
-41.0474
 20
-21.2453
 11
-41.0474
 21
-21.3498
  0
LINE
  8
0
 10
-41.0474
 20
-21.3498
 11
-41.0123
 21
-21.4474
  0
LINE
  8
0
 10
-41.0123
 20
-21.4474
 11
-40.9449
 21
-21.5275
  0
LINE
  8
0
 10
-40.9449
 20
-21.5275
 11
-40.8551
 21
-21.5803
  0
LINE
  8
0
 10
-40.8551
 20
-21.5803
 11
-40.7515
 21
-21.5978
  0
LINE
  8
0
 10
-40.7515
 20
-21.5978
 11
-40.4478
 21
-21.5978
  0
LINE
  8
0
 10
-40.4478
 20
-21.5978
 11
-40.3453
 21
-21.5803
  0
LINE
  8
0
 10
28.4381
 20
-21.7433
 11
27.941
 21
-21.5373
  0
LINE
  8
0
 10
27.941
 20
-21.5373
 11
27.6988
 21
-22.1223
  0
LINE
  8
0
 10
27.6988
 20
-22.1223
 11
28.1959
 21
-22.3283
  0
LINE
  8
0
 10
28.1959
 20
-22.3283
 11
28.4381
 21
-21.7433
  0
LINE
  8
0
 10
48.5016
 20
-22.1223
 11
48.2594
 21
-21.5373
  0
LINE
  8
0
 10
48.2594
 20
-21.5373
 11
47.7623
 21
-21.7433
  0
LINE
  8
0
 10
47.7623
 20
-21.7433
 11
48.0045
 21
-22.3283
  0
LINE
  8
0
 10
48.0045
 20
-22.3283
 11
48.5016
 21
-22.1223
  0
LINE
  8
0
 10
44.1939
 20
-21.6047
 11
43.69
 21
-21.6047
  0
LINE
  8
0
 10
43.69
 20
-21.6047
 11
43.69
 21
-22.1096
  0
LINE
  8
0
 10
43.69
 20
-22.1096
 11
44.1939
 21
-22.1096
  0
LINE
  8
0
 10
44.1939
 20
-22.1096
 11
44.1939
 21
-21.6047
  0
LINE
  8
0
 10
32.484
 20
-21.9367
 11
32.191
 21
-21.8156
  0
LINE
  8
0
 10
32.191
 20
-21.8156
 11
32.0465
 21
-22.1662
  0
LINE
  8
0
 10
32.0465
 20
-22.1662
 11
32.3385
 21
-22.2873
  0
LINE
  8
0
 10
32.3385
 20
-22.2873
 11
32.484
 21
-21.9367
  0
LINE
  8
0
 10
30.0543
 20
-22.4123
 11
29.5572
 21
-22.2072
  0
LINE
  8
0
 10
29.5572
 20
-22.2072
 11
29.315
 21
-22.7912
  0
LINE
  8
0
 10
29.315
 20
-22.7912
 11
29.8121
 21
-22.9973
  0
LINE
  8
0
 10
29.8121
 20
-22.9973
 11
30.0543
 21
-22.4123
  0
LINE
  8
0
 10
46.8844
 20
-22.7912
 11
46.6422
 21
-22.2072
  0
LINE
  8
0
 10
46.6422
 20
-22.2072
 11
46.1451
 21
-22.4123
  0
LINE
  8
0
 10
46.1451
 20
-22.4123
 11
46.3873
 21
-22.9973
  0
LINE
  8
0
 10
46.3873
 20
-22.9973
 11
46.8844
 21
-22.7912
  0
LINE
  8
0
 10
32.0631
 20
-22.9533
 11
31.7701
 21
-22.8322
  0
LINE
  8
0
 10
31.7701
 20
-22.8322
 11
31.6256
 21
-23.1828
  0
LINE
  8
0
 10
31.6256
 20
-23.1828
 11
31.9176
 21
-23.3039
  0
LINE
  8
0
 10
31.9176
 20
-23.3039
 11
32.0631
 21
-22.9533
  0
LINE
  8
0
 10
44.1939
 20
-23.1027
 11
43.69
 21
-23.1027
  0
LINE
  8
0
 10
43.69
 20
-23.1027
 11
43.69
 21
-23.6076
  0
LINE
  8
0
 10
43.69
 20
-23.6076
 11
44.1939
 21
-23.6076
  0
LINE
  8
0
 10
44.1939
 20
-23.6076
 11
44.1939
 21
-23.1027
  0
LINE
  8
0
 10
-41.4312
 20
-24.4601
 11
-41.2838
 21
-24.3742
  0
LINE
  8
0
 10
-41.2838
 20
-24.3742
 11
-41.1734
 21
-24.2433
  0
LINE
  8
0
 10
-41.1734
 20
-24.2433
 11
-41.1148
 21
-24.0832
  0
LINE
  8
0
 10
-41.1148
 20
-24.0832
 11
-41.1148
 21
-23.9123
  0
LINE
  8
0
 10
-41.1148
 20
-23.9123
 11
-41.1734
 21
-23.7512
  0
LINE
  8
0
 10
-41.1734
 20
-23.7512
 11
-41.2838
 21
-23.6203
  0
LINE
  8
0
 10
-41.2838
 20
-23.6203
 11
-41.4312
 21
-23.5344
  0
LINE
  8
0
 10
-41.4312
 20
-23.5344
 11
-41.6002
 21
-23.5051
  0
LINE
  8
0
 10
-41.6002
 20
-23.5051
 11
-41.7681
 21
-23.5344
  0
LINE
  8
0
 10
-41.7681
 20
-23.5344
 11
-41.9166
 21
-23.6203
  0
LINE
  8
0
 10
-41.9166
 20
-23.6203
 11
-42.0269
 21
-23.7512
  0
LINE
  8
0
 10
-42.0269
 20
-23.7512
 11
-42.0845
 21
-23.9123
  0
LINE
  8
0
 10
-42.0845
 20
-23.9123
 11
-42.0845
 21
-24.0832
  0
LINE
  8
0
 10
-42.0845
 20
-24.0832
 11
-42.0269
 21
-24.2433
  0
LINE
  8
0
 10
-42.0269
 20
-24.2433
 11
-41.9166
 21
-24.3742
  0
LINE
  8
0
 10
-41.9166
 20
-24.3742
 11
-41.7681
 21
-24.4601
  0
LINE
  8
0
 10
-41.7681
 20
-24.4601
 11
-41.6002
 21
-24.4894
  0
LINE
  8
0
 10
-41.6002
 20
-24.4894
 11
-41.4312
 21
-24.4601
  0
LINE
  8
0
 10
-34.4312
 20
-24.4601
 11
-34.2838
 21
-24.3742
  0
LINE
  8
0
 10
-34.2838
 20
-24.3742
 11
-34.1734
 21
-24.2433
  0
LINE
  8
0
 10
-34.1734
 20
-24.2433
 11
-34.1148
 21
-24.0832
  0
LINE
  8
0
 10
-34.1148
 20
-24.0832
 11
-34.1148
 21
-23.9123
  0
LINE
  8
0
 10
-34.1148
 20
-23.9123
 11
-34.1734
 21
-23.7512
  0
LINE
  8
0
 10
-34.1734
 20
-23.7512
 11
-34.2838
 21
-23.6203
  0
LINE
  8
0
 10
-34.2838
 20
-23.6203
 11
-34.4312
 21
-23.5344
  0
LINE
  8
0
 10
-34.4312
 20
-23.5344
 11
-34.6002
 21
-23.5051
  0
LINE
  8
0
 10
-34.6002
 20
-23.5051
 11
-34.7682
 21
-23.5344
  0
LINE
  8
0
 10
-34.7682
 20
-23.5344
 11
-34.9166
 21
-23.6203
  0
LINE
  8
0
 10
-34.9166
 20
-23.6203
 11
-35.0269
 21
-23.7512
  0
LINE
  8
0
 10
-35.0269
 20
-23.7512
 11
-35.0846
 21
-23.9123
  0
LINE
  8
0
 10
-35.0846
 20
-23.9123
 11
-35.0846
 21
-24.0832
  0
LINE
  8
0
 10
-35.0846
 20
-24.0832
 11
-35.0269
 21
-24.2433
  0
LINE
  8
0
 10
-35.0269
 20
-24.2433
 11
-34.9166
 21
-24.3742
  0
LINE
  8
0
 10
-34.9166
 20
-24.3742
 11
-34.7682
 21
-24.4601
  0
LINE
  8
0
 10
-34.7682
 20
-24.4601
 11
-34.6002
 21
-24.4894
  0
LINE
  8
0
 10
-34.6002
 20
-24.4894
 11
-34.4312
 21
-24.4601
  0
LINE
  8
0
 10
39.2437
 20
-23.7853
 11
38.7057
 21
-23.7853
  0
LINE
  8
0
 10
38.7057
 20
-23.7853
 11
38.7057
 21
-24.4182
  0
LINE
  8
0
 10
38.7057
 20
-24.4182
 11
39.2437
 21
-24.4182
  0
LINE
  8
0
 10
39.2437
 20
-24.4182
 11
39.2437
 21
-23.7853
  0
LINE
  8
0
 10
37.4937
 20
-23.7853
 11
36.9557
 21
-23.7853
  0
LINE
  8
0
 10
36.9557
 20
-23.7853
 11
36.9557
 21
-24.4182
  0
LINE
  8
0
 10
36.9557
 20
-24.4182
 11
37.4937
 21
-24.4182
  0
LINE
  8
0
 10
37.4937
 20
-24.4182
 11
37.4937
 21
-23.7853
  0
LINE
  8
0
 10
-24.7806
 20
-60.264
 11
-24.185
 21
-60.0833
  0
LINE
  8
0
 10
-24.185
 20
-60.0833
 11
-23.6361
 21
-59.7899
  0
LINE
  8
0
 10
-23.6361
 20
-59.7899
 11
-23.1549
 21
-59.3951
  0
LINE
  8
0
 10
-23.1549
 20
-59.3951
 11
-22.7601
 21
-58.9139
  0
LINE
  8
0
 10
-22.7601
 20
-58.9139
 11
-22.4667
 21
-58.365
  0
LINE
  8
0
 10
-22.4667
 20
-58.365
 11
-22.286
 21
-57.7694
  0
LINE
  8
0
 10
-22.286
 20
-57.7694
 11
-22.225
 21
-57.15
  0
LINE
  8
0
 10
-22.225
 20
-57.15
 11
-22.286
 21
-56.5306
  0
LINE
  8
0
 10
-22.286
 20
-56.5306
 11
-22.4667
 21
-55.935
  0
LINE
  8
0
 10
-22.4667
 20
-55.935
 11
-22.7601
 21
-55.3861
  0
LINE
  8
0
 10
-22.7601
 20
-55.3861
 11
-23.1549
 21
-54.9049
  0
LINE
  8
0
 10
-23.1549
 20
-54.9049
 11
-23.6361
 21
-54.5101
  0
LINE
  8
0
 10
-23.6361
 20
-54.5101
 11
-24.185
 21
-54.2167
  0
LINE
  8
0
 10
-24.185
 20
-54.2167
 11
-24.7806
 21
-54.036
  0
LINE
  8
0
 10
-24.7806
 20
-54.036
 11
-25.4
 21
-53.975
  0
LINE
  8
0
 10
-25.4
 20
-53.975
 11
-26.0194
 21
-54.036
  0
LINE
  8
0
 10
-26.0194
 20
-54.036
 11
-26.615
 21
-54.2167
  0
LINE
  8
0
 10
-26.615
 20
-54.2167
 11
-27.1639
 21
-54.5101
  0
LINE
  8
0
 10
-27.1639
 20
-54.5101
 11
-27.6451
 21
-54.9049
  0
LINE
  8
0
 10
-27.6451
 20
-54.9049
 11
-28.0399
 21
-55.3861
  0
LINE
  8
0
 10
-28.0399
 20
-55.3861
 11
-28.3333
 21
-55.935
  0
LINE
  8
0
 10
-28.3333
 20
-55.935
 11
-28.514
 21
-56.5306
  0
LINE
  8
0
 10
-28.514
 20
-56.5306
 11
-28.575
 21
-57.15
  0
LINE
  8
0
 10
-28.575
 20
-57.15
 11
-28.514
 21
-57.7694
  0
LINE
  8
0
 10
-28.514
 20
-57.7694
 11
-28.3333
 21
-58.365
  0
LINE
  8
0
 10
-28.3333
 20
-58.365
 11
-28.0399
 21
-58.9139
  0
LINE
  8
0
 10
-28.0399
 20
-58.9139
 11
-27.6451
 21
-59.3951
  0
LINE
  8
0
 10
-27.6451
 20
-59.3951
 11
-27.1639
 21
-59.7899
  0
LINE
  8
0
 10
-27.1639
 20
-59.7899
 11
-26.615
 21
-60.0833
  0
LINE
  8
0
 10
-26.615
 20
-60.0833
 11
-26.0194
 21
-60.264
  0
LINE
  8
0
 10
-26.0194
 20
-60.264
 11
-25.4
 21
-60.325
  0
LINE
  8
0
 10
-25.4
 20
-60.325
 11
-24.7806
 21
-60.264
  0
LINE
  8
0
 10
-50.1806
 20
-60.264
 11
-49.585
 21
-60.0833
  0
LINE
  8
0
 10
-49.585
 20
-60.0833
 11
-49.0361
 21
-59.7899
  0
LINE
  8
0
 10
-49.0361
 20
-59.7899
 11
-48.5549
 21
-59.3951
  0
LINE
  8
0
 10
-48.5549
 20
-59.3951
 11
-48.1601
 21
-58.9139
  0
LINE
  8
0
 10
-48.1601
 20
-58.9139
 11
-47.8667
 21
-58.365
  0
LINE
  8
0
 10
-47.8667
 20
-58.365
 11
-47.686
 21
-57.7694
  0
LINE
  8
0
 10
-47.686
 20
-57.7694
 11
-47.625
 21
-57.15
  0
LINE
  8
0
 10
-47.625
 20
-57.15
 11
-47.686
 21
-56.5306
  0
LINE
  8
0
 10
-47.686
 20
-56.5306
 11
-47.8667
 21
-55.935
  0
LINE
  8
0
 10
-47.8667
 20
-55.935
 11
-48.1601
 21
-55.3861
  0
LINE
  8
0
 10
-48.1601
 20
-55.3861
 11
-48.5549
 21
-54.9049
  0
LINE
  8
0
 10
-48.5549
 20
-54.9049
 11
-49.0361
 21
-54.5101
  0
LINE
  8
0
 10
-49.0361
 20
-54.5101
 11
-49.585
 21
-54.2167
  0
LINE
  8
0
 10
-49.585
 20
-54.2167
 11
-50.1806
 21
-54.036
  0
LINE
  8
0
 10
-50.1806
 20
-54.036
 11
-50.8
 21
-53.975
  0
LINE
  8
0
 10
-50.8
 20
-53.975
 11
-51.4194
 21
-54.036
  0
LINE
  8
0
 10
-51.4194
 20
-54.036
 11
-52.015
 21
-54.2167
  0
LINE
  8
0
 10
-52.015
 20
-54.2167
 11
-52.5639
 21
-54.5101
  0
LINE
  8
0
 10
-52.5639
 20
-54.5101
 11
-53.0451
 21
-54.9049
  0
LINE
  8
0
 10
-53.0451
 20
-54.9049
 11
-53.4399
 21
-55.3861
  0
LINE
  8
0
 10
-53.4399
 20
-55.3861
 11
-53.7333
 21
-55.935
  0
LINE
  8
0
 10
-53.7333
 20
-55.935
 11
-53.914
 21
-56.5306
  0
LINE
  8
0
 10
-53.914
 20
-56.5306
 11
-53.975
 21
-57.15
  0
LINE
  8
0
 10
-53.975
 20
-57.15
 11
-53.914
 21
-57.7694
  0
LINE
  8
0
 10
-53.914
 20
-57.7694
 11
-53.7333
 21
-58.365
  0
LINE
  8
0
 10
-53.7333
 20
-58.365
 11
-53.4399
 21
-58.9139
  0
LINE
  8
0
 10
-53.4399
 20
-58.9139
 11
-53.0451
 21
-59.3951
  0
LINE
  8
0
 10
-53.0451
 20
-59.3951
 11
-52.5639
 21
-59.7899
  0
LINE
  8
0
 10
-52.5639
 20
-59.7899
 11
-52.015
 21
-60.0833
  0
LINE
  8
0
 10
-52.015
 20
-60.0833
 11
-51.4194
 21
-60.264
  0
LINE
  8
0
 10
-51.4194
 20
-60.264
 11
-50.8
 21
-60.325
  0
LINE
  8
0
 10
-50.8
 20
-60.325
 11
-50.1806
 21
-60.264
  0
LINE
  8
0
 10
26.0194
 20
-60.264
 11
26.615
 21
-60.0833
  0
LINE
  8
0
 10
26.615
 20
-60.0833
 11
27.1639
 21
-59.7899
  0
LINE
  8
0
 10
27.1639
 20
-59.7899
 11
27.6451
 21
-59.3951
  0
LINE
  8
0
 10
27.6451
 20
-59.3951
 11
28.0399
 21
-58.9139
  0
LINE
  8
0
 10
28.0399
 20
-58.9139
 11
28.3333
 21
-58.365
  0
LINE
  8
0
 10
28.3333
 20
-58.365
 11
28.514
 21
-57.7694
  0
LINE
  8
0
 10
28.514
 20
-57.7694
 11
28.575
 21
-57.15
  0
LINE
  8
0
 10
28.575
 20
-57.15
 11
28.514
 21
-56.5306
  0
LINE
  8
0
 10
28.514
 20
-56.5306
 11
28.3333
 21
-55.935
  0
LINE
  8
0
 10
28.3333
 20
-55.935
 11
28.0399
 21
-55.3861
  0
LINE
  8
0
 10
28.0399
 20
-55.3861
 11
27.6451
 21
-54.9049
  0
LINE
  8
0
 10
27.6451
 20
-54.9049
 11
27.1639
 21
-54.5101
  0
LINE
  8
0
 10
27.1639
 20
-54.5101
 11
26.615
 21
-54.2167
  0
LINE
  8
0
 10
26.615
 20
-54.2167
 11
26.0194
 21
-54.036
  0
LINE
  8
0
 10
26.0194
 20
-54.036
 11
25.4
 21
-53.975
  0
LINE
  8
0
 10
25.4
 20
-53.975
 11
24.7806
 21
-54.036
  0
LINE
  8
0
 10
24.7806
 20
-54.036
 11
24.185
 21
-54.2167
  0
LINE
  8
0
 10
24.185
 20
-54.2167
 11
23.6361
 21
-54.5101
  0
LINE
  8
0
 10
23.6361
 20
-54.5101
 11
23.1549
 21
-54.9049
  0
LINE
  8
0
 10
23.1549
 20
-54.9049
 11
22.7601
 21
-55.3861
  0
LINE
  8
0
 10
22.7601
 20
-55.3861
 11
22.4667
 21
-55.935
  0
LINE
  8
0
 10
22.4667
 20
-55.935
 11
22.286
 21
-56.5306
  0
LINE
  8
0
 10
22.286
 20
-56.5306
 11
22.225
 21
-57.15
  0
LINE
  8
0
 10
22.225
 20
-57.15
 11
22.286
 21
-57.7694
  0
LINE
  8
0
 10
22.286
 20
-57.7694
 11
22.4667
 21
-58.365
  0
LINE
  8
0
 10
22.4667
 20
-58.365
 11
22.7601
 21
-58.9139
  0
LINE
  8
0
 10
22.7601
 20
-58.9139
 11
23.1549
 21
-59.3951
  0
LINE
  8
0
 10
23.1549
 20
-59.3951
 11
23.6361
 21
-59.7899
  0
LINE
  8
0
 10
23.6361
 20
-59.7899
 11
24.185
 21
-60.0833
  0
LINE
  8
0
 10
24.185
 20
-60.0833
 11
24.7806
 21
-60.264
  0
LINE
  8
0
 10
24.7806
 20
-60.264
 11
25.4
 21
-60.325
  0
LINE
  8
0
 10
25.4
 20
-60.325
 11
26.0194
 21
-60.264
  0
LINE
  8
0
 10
51.4194
 20
-60.264
 11
52.015
 21
-60.0833
  0
LINE
  8
0
 10
52.015
 20
-60.0833
 11
52.5639
 21
-59.7899
  0
LINE
  8
0
 10
52.5639
 20
-59.7899
 11
53.0451
 21
-59.3951
  0
LINE
  8
0
 10
53.0451
 20
-59.3951
 11
53.4399
 21
-58.9139
  0
LINE
  8
0
 10
53.4399
 20
-58.9139
 11
53.7333
 21
-58.365
  0
LINE
  8
0
 10
53.7333
 20
-58.365
 11
53.914
 21
-57.7694
  0
LINE
  8
0
 10
53.914
 20
-57.7694
 11
53.975
 21
-57.15
  0
LINE
  8
0
 10
53.975
 20
-57.15
 11
53.914
 21
-56.5306
  0
LINE
  8
0
 10
53.914
 20
-56.5306
 11
53.7333
 21
-55.935
  0
LINE
  8
0
 10
53.7333
 20
-55.935
 11
53.4399
 21
-55.3861
  0
LINE
  8
0
 10
53.4399
 20
-55.3861
 11
53.0451
 21
-54.9049
  0
LINE
  8
0
 10
53.0451
 20
-54.9049
 11
52.5639
 21
-54.5101
  0
LINE
  8
0
 10
52.5639
 20
-54.5101
 11
52.015
 21
-54.2167
  0
LINE
  8
0
 10
52.015
 20
-54.2167
 11
51.4194
 21
-54.036
  0
LINE
  8
0
 10
51.4194
 20
-54.036
 11
50.8
 21
-53.975
  0
LINE
  8
0
 10
50.8
 20
-53.975
 11
50.1806
 21
-54.036
  0
LINE
  8
0
 10
50.1806
 20
-54.036
 11
49.585
 21
-54.2167
  0
LINE
  8
0
 10
49.585
 20
-54.2167
 11
49.0361
 21
-54.5101
  0
LINE
  8
0
 10
49.0361
 20
-54.5101
 11
48.5549
 21
-54.9049
  0
LINE
  8
0
 10
48.5549
 20
-54.9049
 11
48.1601
 21
-55.3861
  0
LINE
  8
0
 10
48.1601
 20
-55.3861
 11
47.8667
 21
-55.935
  0
LINE
  8
0
 10
47.8667
 20
-55.935
 11
47.686
 21
-56.5306
  0
LINE
  8
0
 10
47.686
 20
-56.5306
 11
47.625
 21
-57.15
  0
LINE
  8
0
 10
47.625
 20
-57.15
 11
47.686
 21
-57.7694
  0
LINE
  8
0
 10
47.686
 20
-57.7694
 11
47.8667
 21
-58.365
  0
LINE
  8
0
 10
47.8667
 20
-58.365
 11
48.1601
 21
-58.9139
  0
LINE
  8
0
 10
48.1601
 20
-58.9139
 11
48.5549
 21
-59.3951
  0
LINE
  8
0
 10
48.5549
 20
-59.3951
 11
49.0361
 21
-59.7899
  0
LINE
  8
0
 10
49.0361
 20
-59.7899
 11
49.585
 21
-60.0833
  0
LINE
  8
0
 10
49.585
 20
-60.0833
 11
50.1806
 21
-60.264
  0
LINE
  8
0
 10
50.1806
 20
-60.264
 11
50.8
 21
-60.325
  0
LINE
  8
0
 10
50.8
 20
-60.325
 11
51.4194
 21
-60.264
  0
ENDSEC
  0
SECTION
  2
OBJECTS
  0
DICTIONARY
  0
ENDSEC
  0
EOF
