G04 #@! TF.FileFunction,Paste,Bot*
%FSLAX46Y46*%
G04 Gerber Fmt 4.6, Leading zero omitted, Abs format (unit mm)*
G04 Created by KiCad (PCBNEW 4.1.0-alpha+201609140817+7151~55~ubuntu16.04.1-) date Thu Sep 15 01:48:53 2016*
%MOMM*%
%LPD*%
G01*
G04 APERTURE LIST*
%ADD10C,0.100000*%
%ADD11R,1.080000X1.530000*%
%ADD12R,0.450000X0.900000*%
%ADD13R,2.187000X2.133000*%
%ADD14R,2.133000X2.187000*%
%ADD15R,0.366000X0.426000*%
%ADD16R,0.630000X0.225000*%
%ADD17R,0.810000X0.450000*%
%ADD18R,0.585000X0.954000*%
%ADD19R,0.450000X0.810000*%
%ADD20R,0.360000X1.215000*%
%ADD21R,0.900000X1.125000*%
%ADD22R,1.125000X0.900000*%
%ADD23R,0.720000X0.360000*%
%ADD24R,0.720000X0.270000*%
G04 APERTURE END LIST*
D10*
G36*
X30967595Y-56355557D02*
X30458478Y-56864674D01*
X30267559Y-56673755D01*
X30776676Y-56164638D01*
X30967595Y-56355557D01*
X30967595Y-56355557D01*
G37*
G36*
X32735362Y-58123324D02*
X32226245Y-58632441D01*
X32035326Y-58441522D01*
X32544443Y-57932405D01*
X32735362Y-58123324D01*
X32735362Y-58123324D01*
G37*
G36*
X31321148Y-56709111D02*
X30812031Y-57218228D01*
X30621112Y-57027309D01*
X31130229Y-56518192D01*
X31321148Y-56709111D01*
X31321148Y-56709111D01*
G37*
G36*
X32028255Y-57416218D02*
X31519138Y-57925335D01*
X31328219Y-57734416D01*
X31837336Y-57225299D01*
X32028255Y-57416218D01*
X32028255Y-57416218D01*
G37*
G36*
X31674701Y-57062664D02*
X31165584Y-57571781D01*
X30974665Y-57380862D01*
X31483782Y-56871745D01*
X31674701Y-57062664D01*
X31674701Y-57062664D01*
G37*
G36*
X32381808Y-57769771D02*
X31872691Y-58278888D01*
X31681772Y-58087969D01*
X32190889Y-57578852D01*
X32381808Y-57769771D01*
X32381808Y-57769771D01*
G37*
G36*
X28524541Y-57448038D02*
X28015424Y-57957155D01*
X27760865Y-57702596D01*
X28269982Y-57193479D01*
X28524541Y-57448038D01*
X28524541Y-57448038D01*
G37*
G36*
X31706521Y-60630018D02*
X31197404Y-61139135D01*
X30942845Y-60884576D01*
X31451962Y-60375459D01*
X31706521Y-60630018D01*
X31706521Y-60630018D01*
G37*
G36*
X27437823Y-50289807D02*
X26772630Y-50565339D01*
X26669305Y-50315891D01*
X27334498Y-50040359D01*
X27437823Y-50289807D01*
X27437823Y-50289807D01*
G37*
G36*
X28394532Y-52599506D02*
X27729339Y-52875038D01*
X27626014Y-52625590D01*
X28291207Y-52350058D01*
X28394532Y-52599506D01*
X28394532Y-52599506D01*
G37*
G36*
X27629165Y-50751747D02*
X26963972Y-51027279D01*
X26860647Y-50777831D01*
X27525840Y-50502299D01*
X27629165Y-50751747D01*
X27629165Y-50751747D01*
G37*
G36*
X28011848Y-51675627D02*
X27346655Y-51951159D01*
X27243330Y-51701711D01*
X27908523Y-51426179D01*
X28011848Y-51675627D01*
X28011848Y-51675627D01*
G37*
G36*
X27820506Y-51213687D02*
X27155313Y-51489219D01*
X27051988Y-51239771D01*
X27717181Y-50964239D01*
X27820506Y-51213687D01*
X27820506Y-51213687D01*
G37*
G36*
X28203190Y-52137567D02*
X27537997Y-52413099D01*
X27434672Y-52163651D01*
X28099865Y-51888119D01*
X28203190Y-52137567D01*
X28203190Y-52137567D01*
G37*
G36*
X24762662Y-50364210D02*
X24097468Y-50639742D01*
X23959702Y-50307146D01*
X24624896Y-50031614D01*
X24762662Y-50364210D01*
X24762662Y-50364210D01*
G37*
G36*
X26484737Y-54521668D02*
X25819543Y-54797200D01*
X25681777Y-54464604D01*
X26346971Y-54189072D01*
X26484737Y-54521668D01*
X26484737Y-54521668D01*
G37*
G36*
X28291207Y-36549942D02*
X27626014Y-36274410D01*
X27729339Y-36024962D01*
X28394532Y-36300494D01*
X28291207Y-36549942D01*
X28291207Y-36549942D01*
G37*
G36*
X27334498Y-38859641D02*
X26669305Y-38584109D01*
X26772630Y-38334661D01*
X27437823Y-38610193D01*
X27334498Y-38859641D01*
X27334498Y-38859641D01*
G37*
G36*
X28099865Y-37011881D02*
X27434672Y-36736349D01*
X27537997Y-36486901D01*
X28203190Y-36762433D01*
X28099865Y-37011881D01*
X28099865Y-37011881D01*
G37*
G36*
X27717181Y-37935761D02*
X27051988Y-37660229D01*
X27155313Y-37410781D01*
X27820506Y-37686313D01*
X27717181Y-37935761D01*
X27717181Y-37935761D01*
G37*
G36*
X27908523Y-37473821D02*
X27243330Y-37198289D01*
X27346655Y-36948841D01*
X28011848Y-37224373D01*
X27908523Y-37473821D01*
X27908523Y-37473821D01*
G37*
G36*
X27525840Y-38397701D02*
X26860647Y-38122169D01*
X26963972Y-37872721D01*
X27629165Y-38148253D01*
X27525840Y-38397701D01*
X27525840Y-38397701D01*
G37*
G36*
X26346971Y-34710928D02*
X25681777Y-34435396D01*
X25819543Y-34102800D01*
X26484737Y-34378332D01*
X26346971Y-34710928D01*
X26346971Y-34710928D01*
G37*
G36*
X24624896Y-38868386D02*
X23959702Y-38592854D01*
X24097468Y-38260258D01*
X24762662Y-38535790D01*
X24624896Y-38868386D01*
X24624896Y-38868386D01*
G37*
G36*
X56135302Y-59671394D02*
X58299048Y-61835140D01*
X57280814Y-62853374D01*
X55117068Y-60689628D01*
X56135302Y-59671394D01*
X56135302Y-59671394D01*
G37*
G36*
X60943628Y-54863068D02*
X63107374Y-57026814D01*
X62089140Y-58045048D01*
X59925394Y-55881302D01*
X60943628Y-54863068D01*
X60943628Y-54863068D01*
G37*
G36*
X53685177Y-54208994D02*
X55912563Y-56436380D01*
X55276167Y-57072776D01*
X53048781Y-54845390D01*
X53685177Y-54208994D01*
X53685177Y-54208994D01*
G37*
G36*
X55099390Y-52794781D02*
X57326776Y-55022167D01*
X56690380Y-55658563D01*
X54462994Y-53431177D01*
X55099390Y-52794781D01*
X55099390Y-52794781D01*
G37*
G36*
X49625173Y-26141826D02*
X49969588Y-25310334D01*
X50385333Y-25482542D01*
X50040918Y-26314034D01*
X49625173Y-26141826D01*
X49625173Y-26141826D01*
G37*
G36*
X50364275Y-26447972D02*
X50708690Y-25616480D01*
X51124435Y-25788688D01*
X50780020Y-26620180D01*
X50364275Y-26447972D01*
X50364275Y-26447972D01*
G37*
G36*
X51103379Y-26754119D02*
X51447794Y-25922627D01*
X51863539Y-26094835D01*
X51519124Y-26926327D01*
X51103379Y-26754119D01*
X51103379Y-26754119D01*
G37*
G36*
X51842482Y-27060266D02*
X52186897Y-26228774D01*
X52602642Y-26400982D01*
X52258227Y-27232474D01*
X51842482Y-27060266D01*
X51842482Y-27060266D01*
G37*
G36*
X52581586Y-27366413D02*
X52926001Y-26534921D01*
X53341746Y-26707129D01*
X52997331Y-27538621D01*
X52581586Y-27366413D01*
X52581586Y-27366413D01*
G37*
G36*
X53320690Y-27672559D02*
X53665105Y-26841067D01*
X54080850Y-27013275D01*
X53736435Y-27844767D01*
X53320690Y-27672559D01*
X53320690Y-27672559D01*
G37*
G36*
X54856398Y-26538960D02*
X55441904Y-25125424D01*
X56439694Y-25538722D01*
X55854188Y-26952258D01*
X54856398Y-26538960D01*
X54856398Y-26538960D01*
G37*
G36*
X48758793Y-24013249D02*
X49344299Y-22599713D01*
X50342089Y-23013011D01*
X49756583Y-24426547D01*
X48758793Y-24013249D01*
X48758793Y-24013249D01*
G37*
G36*
X29515905Y-32662530D02*
X28879509Y-32026134D01*
X29197707Y-31707936D01*
X29834103Y-32344332D01*
X29515905Y-32662530D01*
X29515905Y-32662530D01*
G37*
G36*
X30081590Y-32096844D02*
X29445194Y-31460448D01*
X29763392Y-31142250D01*
X30399788Y-31778646D01*
X30081590Y-32096844D01*
X30081590Y-32096844D01*
G37*
G36*
X30647275Y-31531159D02*
X30010879Y-30894763D01*
X30329077Y-30576565D01*
X30965473Y-31212961D01*
X30647275Y-31531159D01*
X30647275Y-31531159D01*
G37*
G36*
X31212961Y-30965473D02*
X30576565Y-30329077D01*
X30894763Y-30010879D01*
X31531159Y-30647275D01*
X31212961Y-30965473D01*
X31212961Y-30965473D01*
G37*
G36*
X31778646Y-30399788D02*
X31142250Y-29763392D01*
X31460448Y-29445194D01*
X32096844Y-30081590D01*
X31778646Y-30399788D01*
X31778646Y-30399788D01*
G37*
G36*
X32344332Y-29834103D02*
X31707936Y-29197707D01*
X32026134Y-28879509D01*
X32662530Y-29515905D01*
X32344332Y-29834103D01*
X32344332Y-29834103D01*
G37*
G36*
X31884712Y-27981483D02*
X30802839Y-26899610D01*
X31566514Y-26135935D01*
X32648387Y-27217808D01*
X31884712Y-27981483D01*
X31884712Y-27981483D01*
G37*
G36*
X27217808Y-32648387D02*
X26135935Y-31566514D01*
X26899610Y-30802839D01*
X27981483Y-31884712D01*
X27217808Y-32648387D01*
X27217808Y-32648387D01*
G37*
G36*
X35163565Y-27844767D02*
X34819150Y-27013275D01*
X35234895Y-26841067D01*
X35579310Y-27672559D01*
X35163565Y-27844767D01*
X35163565Y-27844767D01*
G37*
G36*
X35902669Y-27538621D02*
X35558254Y-26707129D01*
X35973999Y-26534921D01*
X36318414Y-27366413D01*
X35902669Y-27538621D01*
X35902669Y-27538621D01*
G37*
G36*
X36641773Y-27232474D02*
X36297358Y-26400982D01*
X36713103Y-26228774D01*
X37057518Y-27060266D01*
X36641773Y-27232474D01*
X36641773Y-27232474D01*
G37*
G36*
X37380876Y-26926327D02*
X37036461Y-26094835D01*
X37452206Y-25922627D01*
X37796621Y-26754119D01*
X37380876Y-26926327D01*
X37380876Y-26926327D01*
G37*
G36*
X38119980Y-26620180D02*
X37775565Y-25788688D01*
X38191310Y-25616480D01*
X38535725Y-26447972D01*
X38119980Y-26620180D01*
X38119980Y-26620180D01*
G37*
G36*
X38859082Y-26314034D02*
X38514667Y-25482542D01*
X38930412Y-25310334D01*
X39274827Y-26141826D01*
X38859082Y-26314034D01*
X38859082Y-26314034D01*
G37*
G36*
X39143417Y-24426547D02*
X38557911Y-23013011D01*
X39555701Y-22599713D01*
X40141207Y-24013249D01*
X39143417Y-24426547D01*
X39143417Y-24426547D01*
G37*
G36*
X33045812Y-26952258D02*
X32460306Y-25538722D01*
X33458096Y-25125424D01*
X34043602Y-26538960D01*
X33045812Y-26952258D01*
X33045812Y-26952258D01*
G37*
D11*
X41150000Y-23155000D03*
X47750000Y-23155000D03*
D12*
X46450000Y-25105000D03*
X45650000Y-25105000D03*
X44850000Y-25105000D03*
X44050000Y-25105000D03*
X43250000Y-25105000D03*
X42450000Y-25105000D03*
D13*
X36322000Y-40204000D03*
X36322000Y-33964000D03*
D14*
X38680000Y-48514000D03*
X32440000Y-48514000D03*
D15*
X40386000Y-54509000D03*
X40386000Y-55219000D03*
D16*
X39461000Y-54364000D03*
X39461000Y-54864000D03*
X39461000Y-55364000D03*
X41311000Y-55364000D03*
X41311000Y-54864000D03*
X41311000Y-54364000D03*
D17*
X29718000Y-47994000D03*
X29718000Y-46494000D03*
D18*
X33716000Y-42842000D03*
X31816000Y-42842000D03*
X31816000Y-45042000D03*
X32766000Y-45042000D03*
X33716000Y-45042000D03*
D19*
X51042000Y-39878000D03*
X49542000Y-39878000D03*
D20*
X43150000Y-62992000D03*
X43800000Y-62992000D03*
X44450000Y-62992000D03*
X45100000Y-62992000D03*
X45750000Y-62992000D03*
D19*
X56630000Y-34290000D03*
X55130000Y-34290000D03*
D17*
X50419000Y-62726000D03*
X50419000Y-61226000D03*
D10*
G36*
X46377609Y-51477147D02*
X45804853Y-50904391D01*
X46123051Y-50586193D01*
X46695807Y-51158949D01*
X46377609Y-51477147D01*
X46377609Y-51477147D01*
G37*
G36*
X45316949Y-52537807D02*
X44744193Y-51965051D01*
X45062391Y-51646853D01*
X45635147Y-52219609D01*
X45316949Y-52537807D01*
X45316949Y-52537807D01*
G37*
D18*
X47818000Y-54694000D03*
X49718000Y-54694000D03*
X49718000Y-52494000D03*
X48768000Y-52494000D03*
X47818000Y-52494000D03*
D21*
X50022000Y-50038000D03*
X48022000Y-50038000D03*
X51800000Y-43688000D03*
X49800000Y-43688000D03*
D22*
X60960000Y-45434000D03*
X60960000Y-43434000D03*
D23*
X23638000Y-46700000D03*
X23638000Y-42200000D03*
D24*
X26138000Y-45200000D03*
X26138000Y-44200000D03*
X26138000Y-44700000D03*
X26138000Y-43700000D03*
X26138000Y-45700000D03*
X26138000Y-43200000D03*
M02*
