  0
SECTION
  2
HEADER
  9
$ANGBASE
  50
0.0
  9
$ANGDIR
  70
  1
  9
$MEASUREMENT
  70
0
  0
ENDSEC
  0
SECTION
  2
TABLES
  0
TABLE
  2
LTYPE
  70
1
  0
LTYPE
  2
CONTINUOUS
  70
0
  3
Solid line
  72
65
  73
0
  40
0.0
  0
ENDTAB
  0
TABLE
  2
STYLE
  70
4
  0
STYLE
  2
KICAD
  70
0
  40
0
  41
1
  42
1
  50
0
  71
0
  3
isocp.shx
  0
STYLE
  2
KICADB
  70
0
  40
0
  41
1
  42
1
  50
0
  71
0
  3
isocp.shx
  0
STYLE
  2
KICADI
  70
0
  40
0
  41
1
  42
1
  50
15
  71
0
  3
isocp.shx
  0
STYLE
  2
KICADBI
  70
0
  40
0
  41
1
  42
1
  50
15
  71
0
  3
isocp.shx
  0
ENDTAB
  0
TABLE
  2
LAYER
  70
30
  0
LAYER
  2
BLACK
  70
0
  62
7
  6
CONTINUOUS
  0
LAYER
  2
GRAY1
  70
0
  62
251
  6
CONTINUOUS
  0
LAYER
  2
GRAY2
  70
0
  62
8
  6
CONTINUOUS
  0
LAYER
  2
GRAY3
  70
0
  62
9
  6
CONTINUOUS
  0
LAYER
  2
WHITE
  70
0
  62
7
  6
CONTINUOUS
  0
LAYER
  2
LYELLOW
  70
0
  62
51
  6
CONTINUOUS
  0
LAYER
  2
BLUE1
  70
0
  62
178
  6
CONTINUOUS
  0
LAYER
  2
GREEN1
  70
0
  62
98
  6
CONTINUOUS
  0
LAYER
  2
CYAN1
  70
0
  62
138
  6
CONTINUOUS
  0
LAYER
  2
RED1
  70
0
  62
18
  6
CONTINUOUS
  0
LAYER
  2
MAGENTA1
  70
0
  62
228
  6
CONTINUOUS
  0
LAYER
  2
BROWN1
  70
0
  62
58
  6
CONTINUOUS
  0
LAYER
  2
BLUE2
  70
0
  62
5
  6
CONTINUOUS
  0
LAYER
  2
GREEN2
  70
0
  62
3
  6
CONTINUOUS
  0
LAYER
  2
CYAN2
  70
0
  62
4
  6
CONTINUOUS
  0
LAYER
  2
RED2
  70
0
  62
1
  6
CONTINUOUS
  0
LAYER
  2
MAGENTA2
  70
0
  62
6
  6
CONTINUOUS
  0
LAYER
  2
BROWN2
  70
0
  62
54
  6
CONTINUOUS
  0
LAYER
  2
BLUE3
  70
0
  62
171
  6
CONTINUOUS
  0
LAYER
  2
GREEN3
  70
0
  62
91
  6
CONTINUOUS
  0
LAYER
  2
CYAN3
  70
0
  62
131
  6
CONTINUOUS
  0
LAYER
  2
RED3
  70
0
  62
11
  6
CONTINUOUS
  0
LAYER
  2
MAGENTA3
  70
0
  62
221
  6
CONTINUOUS
  0
LAYER
  2
YELLOW3
  70
0
  62
2
  6
CONTINUOUS
  0
LAYER
  2
BLUE4
  70
0
  62
5
  6
CONTINUOUS
  0
LAYER
  2
GREEN4
  70
0
  62
3
  6
CONTINUOUS
  0
LAYER
  2
CYAN4
  70
0
  62
4
  6
CONTINUOUS
  0
LAYER
  2
RED4
  70
0
  62
1
  6
CONTINUOUS
  0
LAYER
  2
MAGENTA4
  70
0
  62
6
  6
CONTINUOUS
  0
LAYER
  2
YELLOW4
  70
0
  62
2
  6
CONTINUOUS
  0
ENDTAB
  0
ENDSEC
  0
SECTION
  2
ENTITIES
0
LINE
8
Black
10
41.1895
20
-65.0341
11
41.4001
21
-65.1556
0
LINE
8
Black
10
41.4001
20
-65.1556
11
41.5564
21
-65.3419
0
LINE
8
Black
10
41.5564
20
-65.3419
11
41.6395
21
-65.5704
0
LINE
8
Black
10
41.6395
20
-65.5704
11
41.6395
21
-65.8136
0
LINE
8
Black
10
41.6395
20
-65.8136
11
41.5564
21
-66.0421
0
LINE
8
Black
10
41.5564
20
-66.0421
11
41.4001
21
-66.2284
0
LINE
8
Black
10
41.4001
20
-66.2284
11
41.1895
21
-66.3499
0
LINE
8
Black
10
41.1895
20
-66.3499
11
40.95
21
-66.3922
0
LINE
8
Black
10
40.95
20
-66.3922
11
40.7105
21
-66.3499
0
LINE
8
Black
10
40.7105
20
-66.3499
11
40.4999
21
-66.2284
0
LINE
8
Black
10
40.4999
20
-66.2284
11
40.3436
21
-66.0421
0
LINE
8
Black
10
40.3436
20
-66.0421
11
40.2605
21
-65.8136
0
LINE
8
Black
10
40.2605
20
-65.8136
11
40.2605
21
-65.5704
0
LINE
8
Black
10
40.2605
20
-65.5704
11
40.3436
21
-65.3419
0
LINE
8
Black
10
40.3436
20
-65.3419
11
40.4999
21
-65.1556
0
LINE
8
Black
10
40.4999
20
-65.1556
11
40.7105
21
-65.0341
0
LINE
8
Black
10
40.7105
20
-65.0341
11
40.95
21
-64.9918
0
LINE
8
Black
10
40.95
20
-64.9918
11
41.1895
21
-65.0341
0
LINE
8
Black
10
48.1895
20
-65.0341
11
48.4001
21
-65.1556
0
LINE
8
Black
10
48.4001
20
-65.1556
11
48.5564
21
-65.3419
0
LINE
8
Black
10
48.5564
20
-65.3419
11
48.6395
21
-65.5704
0
LINE
8
Black
10
48.6395
20
-65.5704
11
48.6395
21
-65.8136
0
LINE
8
Black
10
48.6395
20
-65.8136
11
48.5564
21
-66.0421
0
LINE
8
Black
10
48.5564
20
-66.0421
11
48.4001
21
-66.2284
0
LINE
8
Black
10
48.4001
20
-66.2284
11
48.1895
21
-66.3499
0
LINE
8
Black
10
48.1895
20
-66.3499
11
47.95
21
-66.3922
0
LINE
8
Black
10
47.95
20
-66.3922
11
47.7105
21
-66.3499
0
LINE
8
Black
10
47.7105
20
-66.3499
11
47.4999
21
-66.2284
0
LINE
8
Black
10
47.4999
20
-66.2284
11
47.3436
21
-66.0421
0
LINE
8
Black
10
47.3436
20
-66.0421
11
47.2605
21
-65.8136
0
LINE
8
Black
10
47.2605
20
-65.8136
11
47.2605
21
-65.5704
0
LINE
8
Black
10
47.2605
20
-65.5704
11
47.3436
21
-65.3419
0
LINE
8
Black
10
47.3436
20
-65.3419
11
47.4999
21
-65.1556
0
LINE
8
Black
10
47.4999
20
-65.1556
11
47.7105
21
-65.0341
0
LINE
8
Black
10
47.7105
20
-65.0341
11
47.95
21
-64.9918
0
LINE
8
Black
10
47.95
20
-64.9918
11
48.1895
21
-65.0341
0
LINE
8
Black
10
45.93
20
-63.5995
11
45.57
21
-63.5995
0
LINE
8
Black
10
45.57
20
-63.5995
11
45.57
21
-62.3845
0
LINE
8
Black
10
45.57
20
-62.3845
11
45.93
21
-62.3845
0
LINE
8
Black
10
45.93
20
-62.3845
11
45.93
21
-63.5995
0
LINE
8
Black
10
45.28
20
-63.5995
11
44.92
21
-63.5995
0
LINE
8
Black
10
44.92
20
-63.5995
11
44.92
21
-62.3845
0
LINE
8
Black
10
44.92
20
-62.3845
11
45.28
21
-62.3845
0
LINE
8
Black
10
45.28
20
-62.3845
11
45.28
21
-63.5995
0
LINE
8
Black
10
44.63
20
-63.5995
11
44.27
21
-63.5995
0
LINE
8
Black
10
44.27
20
-63.5995
11
44.27
21
-62.3845
0
LINE
8
Black
10
44.27
20
-62.3845
11
44.63
21
-62.3845
0
LINE
8
Black
10
44.63
20
-62.3845
11
44.63
21
-63.5995
0
LINE
8
Black
10
43.98
20
-63.5995
11
43.62
21
-63.5995
0
LINE
8
Black
10
43.62
20
-63.5995
11
43.62
21
-62.3845
0
LINE
8
Black
10
43.62
20
-62.3845
11
43.98
21
-62.3845
0
LINE
8
Black
10
43.98
20
-62.3845
11
43.98
21
-63.5995
0
LINE
8
Black
10
43.33
20
-63.5995
11
42.97
21
-63.5995
0
LINE
8
Black
10
42.97
20
-63.5995
11
42.97
21
-62.3845
0
LINE
8
Black
10
42.97
20
-62.3845
11
43.33
21
-62.3845
0
LINE
8
Black
10
43.33
20
-62.3845
11
43.33
21
-63.5995
0
LINE
8
Black
10
42.2484
20
-62.5903
11
42.377
21
-62.6645
0
LINE
8
Black
10
42.377
20
-62.6645
11
42.4724
21
-62.7782
0
LINE
8
Black
10
42.4724
20
-62.7782
11
42.5232
21
-62.9178
0
LINE
8
Black
10
42.5232
20
-62.9178
11
42.5232
21
-63.0662
0
LINE
8
Black
10
42.5232
20
-63.0662
11
42.4724
21
-63.2057
0
LINE
8
Black
10
42.4724
20
-63.2057
11
42.377
21
-63.3195
0
LINE
8
Black
10
42.377
20
-63.3195
11
42.2484
21
-63.3937
0
LINE
8
Black
10
42.2484
20
-63.3937
11
42.1022
21
-63.4195
0
LINE
8
Black
10
42.1022
20
-63.4195
11
41.7978
21
-63.4195
0
LINE
8
Black
10
41.7978
20
-63.4195
11
41.6516
21
-63.3937
0
LINE
8
Black
10
41.6516
20
-63.3937
11
41.523
21
-63.3195
0
LINE
8
Black
10
41.523
20
-63.3195
11
41.4276
21
-63.2057
0
LINE
8
Black
10
41.4276
20
-63.2057
11
41.3768
21
-63.0662
0
LINE
8
Black
10
41.3768
20
-63.0662
11
41.3768
21
-62.9178
0
LINE
8
Black
10
41.3768
20
-62.9178
11
41.4276
21
-62.7782
0
LINE
8
Black
10
41.4276
20
-62.7782
11
41.523
21
-62.6645
0
LINE
8
Black
10
41.523
20
-62.6645
11
41.6516
21
-62.5903
0
LINE
8
Black
10
41.6516
20
-62.5903
11
41.7978
21
-62.5645
0
LINE
8
Black
10
41.7978
20
-62.5645
11
42.1022
21
-62.5645
0
LINE
8
Black
10
42.1022
20
-62.5645
11
42.2484
21
-62.5903
0
LINE
8
Black
10
47.2484
20
-62.5903
11
47.377
21
-62.6645
0
LINE
8
Black
10
47.377
20
-62.6645
11
47.4724
21
-62.7782
0
LINE
8
Black
10
47.4724
20
-62.7782
11
47.5232
21
-62.9178
0
LINE
8
Black
10
47.5232
20
-62.9178
11
47.5232
21
-63.0662
0
LINE
8
Black
10
47.5232
20
-63.0662
11
47.4724
21
-63.2057
0
LINE
8
Black
10
47.4724
20
-63.2057
11
47.377
21
-63.3195
0
LINE
8
Black
10
47.377
20
-63.3195
11
47.2484
21
-63.3937
0
LINE
8
Black
10
47.2484
20
-63.3937
11
47.1022
21
-63.4195
0
LINE
8
Black
10
47.1022
20
-63.4195
11
46.7978
21
-63.4195
0
LINE
8
Black
10
46.7978
20
-63.4195
11
46.6516
21
-63.3937
0
LINE
8
Black
10
46.6516
20
-63.3937
11
46.523
21
-63.3195
0
LINE
8
Black
10
46.523
20
-63.3195
11
46.4276
21
-63.2057
0
LINE
8
Black
10
46.4276
20
-63.2057
11
46.3768
21
-63.0662
0
LINE
8
Black
10
46.3768
20
-63.0662
11
46.3768
21
-62.9178
0
LINE
8
Black
10
46.3768
20
-62.9178
11
46.4276
21
-62.7782
0
LINE
8
Black
10
46.4276
20
-62.7782
11
46.523
21
-62.6645
0
LINE
8
Black
10
46.523
20
-62.6645
11
46.6516
21
-62.5903
0
LINE
8
Black
10
46.6516
20
-62.5903
11
46.7978
21
-62.5645
0
LINE
8
Black
10
46.7978
20
-62.5645
11
47.1022
21
-62.5645
0
LINE
8
Black
10
47.1022
20
-62.5645
11
47.2484
21
-62.5903
0
LINE
8
Black
10
50.824
20
-62.951
11
50.014
21
-62.951
0
LINE
8
Black
10
50.014
20
-62.951
11
50.014
21
-62.501
0
LINE
8
Black
10
50.014
20
-62.501
11
50.824
21
-62.501
0
LINE
8
Black
10
50.824
20
-62.501
11
50.824
21
-62.951
0
LINE
8
Black
10
58.299
20
-61.8351
11
57.2808
21
-62.8534
0
LINE
8
Black
10
57.2808
20
-62.8534
11
55.1171
21
-60.6896
0
LINE
8
Black
10
55.1171
20
-60.6896
11
56.1353
21
-59.6714
0
LINE
8
Black
10
56.1353
20
-59.6714
11
58.299
21
-61.8351
0
LINE
8
Black
10
50.824
20
-61.451
11
50.014
21
-61.451
0
LINE
8
Black
10
50.014
20
-61.451
11
50.014
21
-61.001
0
LINE
8
Black
10
50.014
20
-61.001
11
50.824
21
-61.001
0
LINE
8
Black
10
50.824
20
-61.001
11
50.824
21
-61.451
0
LINE
8
Black
10
31.7065
20
-60.63
11
31.1974
21
-61.1391
0
LINE
8
Black
10
31.1974
20
-61.1391
11
30.9428
21
-60.8846
0
LINE
8
Black
10
30.9428
20
-60.8846
11
31.452
21
-60.3755
0
LINE
8
Black
10
31.452
20
-60.3755
11
31.7065
21
-60.63
0
LINE
8
Black
10
32.7354
20
-58.1233
11
32.2262
21
-58.6324
0
LINE
8
Black
10
32.2262
20
-58.6324
11
32.0353
21
-58.4415
0
LINE
8
Black
10
32.0353
20
-58.4415
11
32.5444
21
-57.9324
0
LINE
8
Black
10
32.5444
20
-57.9324
11
32.7354
21
-58.1233
0
LINE
8
Black
10
32.3818
20
-57.7698
11
31.8727
21
-58.2789
0
LINE
8
Black
10
31.8727
20
-58.2789
11
31.6818
21
-58.088
0
LINE
8
Black
10
31.6818
20
-58.088
11
32.1909
21
-57.5789
0
LINE
8
Black
10
32.1909
20
-57.5789
11
32.3818
21
-57.7698
0
LINE
8
Black
10
63.1074
20
-57.0268
11
62.0891
21
-58.045
0
LINE
8
Black
10
62.0891
20
-58.045
11
59.9254
21
-55.8813
0
LINE
8
Black
10
59.9254
20
-55.8813
11
60.9436
21
-54.8631
0
LINE
8
Black
10
60.9436
20
-54.8631
11
63.1074
21
-57.0268
0
LINE
8
Black
10
28.5245
20
-57.448
11
28.0154
21
-57.9572
0
LINE
8
Black
10
28.0154
20
-57.9572
11
27.7609
21
-57.7026
0
LINE
8
Black
10
27.7609
20
-57.7026
11
28.27
21
-57.1935
0
LINE
8
Black
10
28.27
20
-57.1935
11
28.5245
21
-57.448
0
LINE
8
Black
10
32.0283
20
-57.4162
11
31.5191
21
-57.9253
0
LINE
8
Black
10
31.5191
20
-57.9253
11
31.3282
21
-57.7344
0
LINE
8
Black
10
31.3282
20
-57.7344
11
31.8373
21
-57.2253
0
LINE
8
Black
10
31.8373
20
-57.2253
11
32.0283
21
-57.4162
0
LINE
8
Black
10
31.6747
20
-57.0627
11
31.1656
21
-57.5718
0
LINE
8
Black
10
31.1656
20
-57.5718
11
30.9747
21
-57.3809
0
LINE
8
Black
10
30.9747
20
-57.3809
11
31.4838
21
-56.8717
0
LINE
8
Black
10
31.4838
20
-56.8717
11
31.6747
21
-57.0627
0
LINE
8
Black
10
31.3211
20
-56.7091
11
30.812
21
-57.2182
0
LINE
8
Black
10
30.812
20
-57.2182
11
30.6211
21
-57.0273
0
LINE
8
Black
10
30.6211
20
-57.0273
11
31.1302
21
-56.5182
0
LINE
8
Black
10
31.1302
20
-56.5182
11
31.3211
21
-56.7091
0
LINE
8
Black
10
55.9126
20
-56.4364
11
55.2762
21
-57.0728
0
LINE
8
Black
10
55.2762
20
-57.0728
11
53.0488
21
-54.8454
0
LINE
8
Black
10
53.0488
20
-54.8454
11
53.6852
21
-54.209
0
LINE
8
Black
10
53.6852
20
-54.209
11
55.9126
21
-56.4364
0
LINE
8
Black
10
30.9676
20
-56.3556
11
30.4585
21
-56.8647
0
LINE
8
Black
10
30.4585
20
-56.8647
11
30.2676
21
-56.6738
0
LINE
8
Black
10
30.2676
20
-56.6738
11
30.7767
21
-56.1646
0
LINE
8
Black
10
30.7767
20
-56.1646
11
30.9676
21
-56.3556
0
LINE
8
Black
10
57.3268
20
-55.0222
11
56.6904
21
-55.6586
0
LINE
8
Black
10
56.6904
20
-55.6586
11
54.463
21
-53.4312
0
LINE
8
Black
10
54.463
20
-53.4312
11
55.0994
21
-52.7948
0
LINE
8
Black
10
55.0994
20
-52.7948
11
57.3268
21
-55.0222
0
LINE
8
Black
10
41.626
20
-55.4765
11
40.996
21
-55.4765
0
LINE
8
Black
10
40.996
20
-55.4765
11
40.996
21
-55.2515
0
LINE
8
Black
10
40.996
20
-55.2515
11
41.626
21
-55.2515
0
LINE
8
Black
10
41.626
20
-55.2515
11
41.626
21
-55.4765
0
LINE
8
Black
10
39.776
20
-55.4765
11
39.146
21
-55.4765
0
LINE
8
Black
10
39.146
20
-55.4765
11
39.146
21
-55.2515
0
LINE
8
Black
10
39.146
20
-55.2515
11
39.776
21
-55.2515
0
LINE
8
Black
10
39.776
20
-55.2515
11
39.776
21
-55.4765
0
LINE
8
Black
10
40.569
20
-55.432
11
40.203
21
-55.432
0
LINE
8
Black
10
40.203
20
-55.432
11
40.203
21
-55.006
0
LINE
8
Black
10
40.203
20
-55.006
11
40.569
21
-55.006
0
LINE
8
Black
10
40.569
20
-55.006
11
40.569
21
-55.432
0
LINE
8
Black
10
48.1105
20
-55.171
11
47.5255
21
-55.171
0
LINE
8
Black
10
47.5255
20
-55.171
11
47.5255
21
-54.217
0
LINE
8
Black
10
47.5255
20
-54.217
11
48.1105
21
-54.217
0
LINE
8
Black
10
48.1105
20
-54.217
11
48.1105
21
-55.171
0
LINE
8
Black
10
50.0105
20
-55.171
11
49.4255
21
-55.171
0
LINE
8
Black
10
49.4255
20
-55.171
11
49.4255
21
-54.217
0
LINE
8
Black
10
49.4255
20
-54.217
11
50.0105
21
-54.217
0
LINE
8
Black
10
50.0105
20
-54.217
11
50.0105
21
-55.171
0
LINE
8
Black
10
41.626
20
-54.9765
11
40.996
21
-54.9765
0
LINE
8
Black
10
40.996
20
-54.9765
11
40.996
21
-54.7515
0
LINE
8
Black
10
40.996
20
-54.7515
11
41.626
21
-54.7515
0
LINE
8
Black
10
41.626
20
-54.7515
11
41.626
21
-54.9765
0
LINE
8
Black
10
39.776
20
-54.9765
11
39.146
21
-54.9765
0
LINE
8
Black
10
39.146
20
-54.9765
11
39.146
21
-54.7515
0
LINE
8
Black
10
39.146
20
-54.7515
11
39.776
21
-54.7515
0
LINE
8
Black
10
39.776
20
-54.7515
11
39.776
21
-54.9765
0
LINE
8
Black
10
26.4847
20
-54.5217
11
25.8195
21
-54.7972
0
LINE
8
Black
10
25.8195
20
-54.7972
11
25.6818
21
-54.4646
0
LINE
8
Black
10
25.6818
20
-54.4646
11
26.347
21
-54.1891
0
LINE
8
Black
10
26.347
20
-54.1891
11
26.4847
21
-54.5217
0
LINE
8
Black
10
40.569
20
-54.722
11
40.203
21
-54.722
0
LINE
8
Black
10
40.203
20
-54.722
11
40.203
21
-54.296
0
LINE
8
Black
10
40.203
20
-54.296
11
40.569
21
-54.296
0
LINE
8
Black
10
40.569
20
-54.296
11
40.569
21
-54.722
0
LINE
8
Black
10
39.776
20
-54.4765
11
39.146
21
-54.4765
0
LINE
8
Black
10
39.146
20
-54.4765
11
39.146
21
-54.2515
0
LINE
8
Black
10
39.146
20
-54.2515
11
39.776
21
-54.2515
0
LINE
8
Black
10
39.776
20
-54.2515
11
39.776
21
-54.4765
0
LINE
8
Black
10
41.626
20
-54.4765
11
40.996
21
-54.4765
0
LINE
8
Black
10
40.996
20
-54.4765
11
40.996
21
-54.2515
0
LINE
8
Black
10
40.996
20
-54.2515
11
41.626
21
-54.2515
0
LINE
8
Black
10
41.626
20
-54.2515
11
41.626
21
-54.4765
0
LINE
8
Black
10
49.0605
20
-52.971
11
48.4755
21
-52.971
0
LINE
8
Black
10
48.4755
20
-52.971
11
48.4755
21
-52.017
0
LINE
8
Black
10
48.4755
20
-52.017
11
49.0605
21
-52.017
0
LINE
8
Black
10
49.0605
20
-52.017
11
49.0605
21
-52.971
0
LINE
8
Black
10
50.0105
20
-52.971
11
49.4255
21
-52.971
0
LINE
8
Black
10
49.4255
20
-52.971
11
49.4255
21
-52.017
0
LINE
8
Black
10
49.4255
20
-52.017
11
50.0105
21
-52.017
0
LINE
8
Black
10
50.0105
20
-52.017
11
50.0105
21
-52.971
0
LINE
8
Black
10
48.1105
20
-52.971
11
47.5255
21
-52.971
0
LINE
8
Black
10
47.5255
20
-52.971
11
47.5255
21
-52.017
0
LINE
8
Black
10
47.5255
20
-52.017
11
48.1105
21
-52.017
0
LINE
8
Black
10
48.1105
20
-52.017
11
48.1105
21
-52.971
0
LINE
8
Black
10
28.3945
20
-52.5995
11
27.7293
21
-52.875
0
LINE
8
Black
10
27.7293
20
-52.875
11
27.626
21
-52.6256
0
LINE
8
Black
10
27.626
20
-52.6256
11
28.2912
21
-52.3501
0
LINE
8
Black
10
28.2912
20
-52.3501
11
28.3945
21
-52.5995
0
LINE
8
Black
10
45.6351
20
-52.2196
11
45.3169
21
-52.5378
0
LINE
8
Black
10
45.3169
20
-52.5378
11
44.7442
21
-51.9651
0
LINE
8
Black
10
44.7442
20
-51.9651
11
45.0624
21
-51.6469
0
LINE
8
Black
10
45.0624
20
-51.6469
11
45.6351
21
-52.2196
0
LINE
8
Black
10
28.2032
20
-52.1376
11
27.538
21
-52.4131
0
LINE
8
Black
10
27.538
20
-52.4131
11
27.4347
21
-52.1637
0
LINE
8
Black
10
27.4347
20
-52.1637
11
28.0999
21
-51.8881
0
LINE
8
Black
10
28.0999
20
-51.8881
11
28.2032
21
-52.1376
0
LINE
8
Black
10
28.0118
20
-51.6756
11
27.3467
21
-51.9512
0
LINE
8
Black
10
27.3467
20
-51.9512
11
27.2433
21
-51.7017
0
LINE
8
Black
10
27.2433
20
-51.7017
11
27.9085
21
-51.4262
0
LINE
8
Black
10
27.9085
20
-51.4262
11
28.0118
21
-51.6756
0
LINE
8
Black
10
27.8205
20
-51.2137
11
27.1553
21
-51.4892
0
LINE
8
Black
10
27.1553
20
-51.4892
11
27.052
21
-51.2398
0
LINE
8
Black
10
27.052
20
-51.2398
11
27.7172
21
-50.9642
0
LINE
8
Black
10
27.7172
20
-50.9642
11
27.8205
21
-51.2137
0
LINE
8
Black
10
46.6958
20
-51.1589
11
46.3776
21
-51.4771
0
LINE
8
Black
10
46.3776
20
-51.4771
11
45.8049
21
-50.9044
0
LINE
8
Black
10
45.8049
20
-50.9044
11
46.1231
21
-50.5862
0
LINE
8
Black
10
46.1231
20
-50.5862
11
46.6958
21
-51.1589
0
LINE
8
Black
10
27.6292
20
-50.7517
11
26.964
21
-51.0273
0
LINE
8
Black
10
26.964
20
-51.0273
11
26.8606
21
-50.7778
0
LINE
8
Black
10
26.8606
20
-50.7778
11
27.5258
21
-50.5023
0
LINE
8
Black
10
27.5258
20
-50.5023
11
27.6292
21
-50.7517
0
LINE
8
Black
10
24.7627
20
-50.3642
11
24.0975
21
-50.6397
0
LINE
8
Black
10
24.0975
20
-50.6397
11
23.9597
21
-50.3071
0
LINE
8
Black
10
23.9597
20
-50.3071
11
24.6249
21
-50.0316
0
LINE
8
Black
10
24.6249
20
-50.0316
11
24.7627
21
-50.3642
0
LINE
8
Black
10
50.472
20
-50.6005
11
49.572
21
-50.6005
0
LINE
8
Black
10
49.572
20
-50.6005
11
49.572
21
-49.4755
0
LINE
8
Black
10
49.572
20
-49.4755
11
50.472
21
-49.4755
0
LINE
8
Black
10
50.472
20
-49.4755
11
50.472
21
-50.6005
0
LINE
8
Black
10
48.472
20
-50.6005
11
47.572
21
-50.6005
0
LINE
8
Black
10
47.572
20
-50.6005
11
47.572
21
-49.4755
0
LINE
8
Black
10
47.572
20
-49.4755
11
48.472
21
-49.4755
0
LINE
8
Black
10
48.472
20
-49.4755
11
48.472
21
-50.6005
0
LINE
8
Black
10
27.4378
20
-50.2898
11
26.7726
21
-50.5653
0
LINE
8
Black
10
26.7726
20
-50.5653
11
26.6693
21
-50.3159
0
LINE
8
Black
10
26.6693
20
-50.3159
11
27.3345
21
-50.0404
0
LINE
8
Black
10
27.3345
20
-50.0404
11
27.4378
21
-50.2898
0
LINE
8
Black
10
39.7465
20
-49.6075
11
37.6135
21
-49.6075
0
LINE
8
Black
10
37.6135
20
-49.6075
11
37.6135
21
-47.4205
0
LINE
8
Black
10
37.6135
20
-47.4205
11
39.7465
21
-47.4205
0
LINE
8
Black
10
39.7465
20
-47.4205
11
39.7465
21
-49.6075
0
LINE
8
Black
10
33.5065
20
-49.6075
11
31.3735
21
-49.6075
0
LINE
8
Black
10
31.3735
20
-49.6075
11
31.3735
21
-47.4205
0
LINE
8
Black
10
31.3735
20
-47.4205
11
33.5065
21
-47.4205
0
LINE
8
Black
10
33.5065
20
-47.4205
11
33.5065
21
-49.6075
0
LINE
8
Black
10
30.123
20
-48.219
11
29.313
21
-48.219
0
LINE
8
Black
10
29.313
20
-48.219
11
29.313
21
-47.769
0
LINE
8
Black
10
29.313
20
-47.769
11
30.123
21
-47.769
0
LINE
8
Black
10
30.123
20
-47.769
11
30.123
21
-48.219
0
LINE
8
Black
10
23.998
20
-46.88
11
23.278
21
-46.88
0
LINE
8
Black
10
23.278
20
-46.88
11
23.278
21
-46.52
0
LINE
8
Black
10
23.278
20
-46.52
11
23.998
21
-46.52
0
LINE
8
Black
10
23.998
20
-46.52
11
23.998
21
-46.88
0
LINE
8
Black
10
30.123
20
-46.719
11
29.313
21
-46.719
0
LINE
8
Black
10
29.313
20
-46.719
11
29.313
21
-46.269
0
LINE
8
Black
10
29.313
20
-46.269
11
30.123
21
-46.269
0
LINE
8
Black
10
30.123
20
-46.269
11
30.123
21
-46.719
0
LINE
8
Black
10
61.5225
20
-45.884
11
60.3975
21
-45.884
0
LINE
8
Black
10
60.3975
20
-45.884
11
60.3975
21
-44.984
0
LINE
8
Black
10
60.3975
20
-44.984
11
61.5225
21
-44.984
0
LINE
8
Black
10
61.5225
20
-44.984
11
61.5225
21
-45.884
0
LINE
8
Black
10
26.498
20
-45.835
11
25.778
21
-45.835
0
LINE
8
Black
10
25.778
20
-45.835
11
25.778
21
-45.565
0
LINE
8
Black
10
25.778
20
-45.565
11
26.498
21
-45.565
0
LINE
8
Black
10
26.498
20
-45.565
11
26.498
21
-45.835
0
LINE
8
Black
10
33.0585
20
-45.519
11
32.4735
21
-45.519
0
LINE
8
Black
10
32.4735
20
-45.519
11
32.4735
21
-44.565
0
LINE
8
Black
10
32.4735
20
-44.565
11
33.0585
21
-44.565
0
LINE
8
Black
10
33.0585
20
-44.565
11
33.0585
21
-45.519
0
LINE
8
Black
10
32.1085
20
-45.519
11
31.5235
21
-45.519
0
LINE
8
Black
10
31.5235
20
-45.519
11
31.5235
21
-44.565
0
LINE
8
Black
10
31.5235
20
-44.565
11
32.1085
21
-44.565
0
LINE
8
Black
10
32.1085
20
-44.565
11
32.1085
21
-45.519
0
LINE
8
Black
10
34.0085
20
-45.519
11
33.4235
21
-45.519
0
LINE
8
Black
10
33.4235
20
-45.519
11
33.4235
21
-44.565
0
LINE
8
Black
10
33.4235
20
-44.565
11
34.0085
21
-44.565
0
LINE
8
Black
10
34.0085
20
-44.565
11
34.0085
21
-45.519
0
LINE
8
Black
10
26.498
20
-45.335
11
25.778
21
-45.335
0
LINE
8
Black
10
25.778
20
-45.335
11
25.778
21
-45.065
0
LINE
8
Black
10
25.778
20
-45.065
11
26.498
21
-45.065
0
LINE
8
Black
10
26.498
20
-45.065
11
26.498
21
-45.335
0
LINE
8
Black
10
26.498
20
-44.835
11
25.778
21
-44.835
0
LINE
8
Black
10
25.778
20
-44.835
11
25.778
21
-44.565
0
LINE
8
Black
10
25.778
20
-44.565
11
26.498
21
-44.565
0
LINE
8
Black
10
26.498
20
-44.565
11
26.498
21
-44.835
0
LINE
8
Black
10
26.498
20
-44.335
11
25.778
21
-44.335
0
LINE
8
Black
10
25.778
20
-44.335
11
25.778
21
-44.065
0
LINE
8
Black
10
25.778
20
-44.065
11
26.498
21
-44.065
0
LINE
8
Black
10
26.498
20
-44.065
11
26.498
21
-44.335
0
LINE
8
Black
10
52.25
20
-44.2505
11
51.35
21
-44.2505
0
LINE
8
Black
10
51.35
20
-44.2505
11
51.35
21
-43.1255
0
LINE
8
Black
10
51.35
20
-43.1255
11
52.25
21
-43.1255
0
LINE
8
Black
10
52.25
20
-43.1255
11
52.25
21
-44.2505
0
LINE
8
Black
10
50.25
20
-44.2505
11
49.35
21
-44.2505
0
LINE
8
Black
10
49.35
20
-44.2505
11
49.35
21
-43.1255
0
LINE
8
Black
10
49.35
20
-43.1255
11
50.25
21
-43.1255
0
LINE
8
Black
10
50.25
20
-43.1255
11
50.25
21
-44.2505
0
LINE
8
Black
10
61.5225
20
-43.884
11
60.3975
21
-43.884
0
LINE
8
Black
10
60.3975
20
-43.884
11
60.3975
21
-42.984
0
LINE
8
Black
10
60.3975
20
-42.984
11
61.5225
21
-42.984
0
LINE
8
Black
10
61.5225
20
-42.984
11
61.5225
21
-43.884
0
LINE
8
Black
10
26.498
20
-43.835
11
25.778
21
-43.835
0
LINE
8
Black
10
25.778
20
-43.835
11
25.778
21
-43.565
0
LINE
8
Black
10
25.778
20
-43.565
11
26.498
21
-43.565
0
LINE
8
Black
10
26.498
20
-43.565
11
26.498
21
-43.835
0
LINE
8
Black
10
26.498
20
-43.335
11
25.778
21
-43.335
0
LINE
8
Black
10
25.778
20
-43.335
11
25.778
21
-43.065
0
LINE
8
Black
10
25.778
20
-43.065
11
26.498
21
-43.065
0
LINE
8
Black
10
26.498
20
-43.065
11
26.498
21
-43.335
0
LINE
8
Black
10
34.0085
20
-43.319
11
33.4235
21
-43.319
0
LINE
8
Black
10
33.4235
20
-43.319
11
33.4235
21
-42.365
0
LINE
8
Black
10
33.4235
20
-42.365
11
34.0085
21
-42.365
0
LINE
8
Black
10
34.0085
20
-42.365
11
34.0085
21
-43.319
0
LINE
8
Black
10
32.1085
20
-43.319
11
31.5235
21
-43.319
0
LINE
8
Black
10
31.5235
20
-43.319
11
31.5235
21
-42.365
0
LINE
8
Black
10
31.5235
20
-42.365
11
32.1085
21
-42.365
0
LINE
8
Black
10
32.1085
20
-42.365
11
32.1085
21
-43.319
0
LINE
8
Black
10
23.998
20
-42.38
11
23.278
21
-42.38
0
LINE
8
Black
10
23.278
20
-42.38
11
23.278
21
-42.02
0
LINE
8
Black
10
23.278
20
-42.02
11
23.998
21
-42.02
0
LINE
8
Black
10
23.998
20
-42.02
11
23.998
21
-42.38
0
LINE
8
Black
10
37.4155
20
-41.2705
11
35.2285
21
-41.2705
0
LINE
8
Black
10
35.2285
20
-41.2705
11
35.2285
21
-39.1375
0
LINE
8
Black
10
35.2285
20
-39.1375
11
37.4155
21
-39.1375
0
LINE
8
Black
10
37.4155
20
-39.1375
11
37.4155
21
-41.2705
0
LINE
8
Black
10
49.767
20
-40.283
11
49.317
21
-40.283
0
LINE
8
Black
10
49.317
20
-40.283
11
49.317
21
-39.473
0
LINE
8
Black
10
49.317
20
-39.473
11
49.767
21
-39.473
0
LINE
8
Black
10
49.767
20
-39.473
11
49.767
21
-40.283
0
LINE
8
Black
10
51.267
20
-40.283
11
50.817
21
-40.283
0
LINE
8
Black
10
50.817
20
-40.283
11
50.817
21
-39.473
0
LINE
8
Black
10
50.817
20
-39.473
11
51.267
21
-39.473
0
LINE
8
Black
10
51.267
20
-39.473
11
51.267
21
-40.283
0
LINE
8
Black
10
24.7627
20
-38.5358
11
24.6249
21
-38.8684
0
LINE
8
Black
10
24.6249
20
-38.8684
11
23.9597
21
-38.5929
0
LINE
8
Black
10
23.9597
20
-38.5929
11
24.0975
21
-38.2603
0
LINE
8
Black
10
24.0975
20
-38.2603
11
24.7627
21
-38.5358
0
LINE
8
Black
10
27.4378
20
-38.6102
11
27.3345
21
-38.8596
0
LINE
8
Black
10
27.3345
20
-38.8596
11
26.6693
21
-38.5841
0
LINE
8
Black
10
26.6693
20
-38.5841
11
26.7726
21
-38.3347
0
LINE
8
Black
10
26.7726
20
-38.3347
11
27.4378
21
-38.6102
0
LINE
8
Black
10
27.6292
20
-38.1483
11
27.5258
21
-38.3977
0
LINE
8
Black
10
27.5258
20
-38.3977
11
26.8606
21
-38.1222
0
LINE
8
Black
10
26.8606
20
-38.1222
11
26.964
21
-37.8727
0
LINE
8
Black
10
26.964
20
-37.8727
11
27.6292
21
-38.1483
0
LINE
8
Black
10
27.8205
20
-37.6863
11
27.7172
21
-37.9358
0
LINE
8
Black
10
27.7172
20
-37.9358
11
27.052
21
-37.6602
0
LINE
8
Black
10
27.052
20
-37.6602
11
27.1553
21
-37.4108
0
LINE
8
Black
10
27.1553
20
-37.4108
11
27.8205
21
-37.6863
0
LINE
8
Black
10
28.0118
20
-37.2244
11
27.9085
21
-37.4738
0
LINE
8
Black
10
27.9085
20
-37.4738
11
27.2433
21
-37.1983
0
LINE
8
Black
10
27.2433
20
-37.1983
11
27.3467
21
-36.9488
0
LINE
8
Black
10
27.3467
20
-36.9488
11
28.0118
21
-37.2244
0
LINE
8
Black
10
28.2032
20
-36.7624
11
28.0999
21
-37.0119
0
LINE
8
Black
10
28.0999
20
-37.0119
11
27.4347
21
-36.7363
0
LINE
8
Black
10
27.4347
20
-36.7363
11
27.538
21
-36.4869
0
LINE
8
Black
10
27.538
20
-36.4869
11
28.2032
21
-36.7624
0
LINE
8
Black
10
28.3945
20
-36.3005
11
28.2912
21
-36.5499
0
LINE
8
Black
10
28.2912
20
-36.5499
11
27.626
21
-36.2744
0
LINE
8
Black
10
27.626
20
-36.2744
11
27.7293
21
-36.025
0
LINE
8
Black
10
27.7293
20
-36.025
11
28.3945
21
-36.3005
0
LINE
8
Black
10
37.4155
20
-35.0305
11
35.2285
21
-35.0305
0
LINE
8
Black
10
35.2285
20
-35.0305
11
35.2285
21
-32.8975
0
LINE
8
Black
10
35.2285
20
-32.8975
11
37.4155
21
-32.8975
0
LINE
8
Black
10
37.4155
20
-32.8975
11
37.4155
21
-35.0305
0
LINE
8
Black
10
26.4847
20
-34.3783
11
26.347
21
-34.7109
0
LINE
8
Black
10
26.347
20
-34.7109
11
25.6818
21
-34.4354
0
LINE
8
Black
10
25.6818
20
-34.4354
11
25.8195
21
-34.1028
0
LINE
8
Black
10
25.8195
20
-34.1028
11
26.4847
21
-34.3783
0
LINE
8
Black
10
55.355
20
-34.695
11
54.905
21
-34.695
0
LINE
8
Black
10
54.905
20
-34.695
11
54.905
21
-33.885
0
LINE
8
Black
10
54.905
20
-33.885
11
55.355
21
-33.885
0
LINE
8
Black
10
55.355
20
-33.885
11
55.355
21
-34.695
0
LINE
8
Black
10
56.855
20
-34.695
11
56.405
21
-34.695
0
LINE
8
Black
10
56.405
20
-34.695
11
56.405
21
-33.885
0
LINE
8
Black
10
56.405
20
-33.885
11
56.855
21
-33.885
0
LINE
8
Black
10
56.855
20
-33.885
11
56.855
21
-34.695
0
LINE
8
Black
10
29.8341
20
-32.3443
11
29.5159
21
-32.6625
0
LINE
8
Black
10
29.5159
20
-32.6625
11
28.8795
21
-32.0261
0
LINE
8
Black
10
28.8795
20
-32.0261
11
29.1977
21
-31.7079
0
LINE
8
Black
10
29.1977
20
-31.7079
11
29.8341
21
-32.3443
0
LINE
8
Black
10
27.9815
20
-31.8847
11
27.2178
21
-32.6484
0
LINE
8
Black
10
27.2178
20
-32.6484
11
26.1359
21
-31.5665
0
LINE
8
Black
10
26.1359
20
-31.5665
11
26.8996
21
-30.8028
0
LINE
8
Black
10
26.8996
20
-30.8028
11
27.9815
21
-31.8847
0
LINE
8
Black
10
30.3998
20
-31.7786
11
30.0816
21
-32.0968
0
LINE
8
Black
10
30.0816
20
-32.0968
11
29.4452
21
-31.4604
0
LINE
8
Black
10
29.4452
20
-31.4604
11
29.7634
21
-31.1422
0
LINE
8
Black
10
29.7634
20
-31.1422
11
30.3998
21
-31.7786
0
LINE
8
Black
10
30.9655
20
-31.213
11
30.6473
21
-31.5312
0
LINE
8
Black
10
30.6473
20
-31.5312
11
30.0109
21
-30.8948
0
LINE
8
Black
10
30.0109
20
-30.8948
11
30.3291
21
-30.5766
0
LINE
8
Black
10
30.3291
20
-30.5766
11
30.9655
21
-31.213
0
LINE
8
Black
10
31.5312
20
-30.6473
11
31.213
21
-30.9655
0
LINE
8
Black
10
31.213
20
-30.9655
11
30.5766
21
-30.3291
0
LINE
8
Black
10
30.5766
20
-30.3291
11
30.8948
21
-30.0109
0
LINE
8
Black
10
30.8948
20
-30.0109
11
31.5312
21
-30.6473
0
LINE
8
Black
10
32.0968
20
-30.0816
11
31.7786
21
-30.3998
0
LINE
8
Black
10
31.7786
20
-30.3998
11
31.1422
21
-29.7634
0
LINE
8
Black
10
31.1422
20
-29.7634
11
31.4604
21
-29.4452
0
LINE
8
Black
10
31.4604
20
-29.4452
11
32.0968
21
-30.0816
0
LINE
8
Black
10
32.6625
20
-29.5159
11
32.3443
21
-29.8341
0
LINE
8
Black
10
32.3443
20
-29.8341
11
31.7079
21
-29.1977
0
LINE
8
Black
10
31.7079
20
-29.1977
11
32.0261
21
-28.8795
0
LINE
8
Black
10
32.0261
20
-28.8795
11
32.6625
21
-29.5159
0
LINE
8
Black
10
32.6484
20
-27.2178
11
31.8847
21
-27.9815
0
LINE
8
Black
10
31.8847
20
-27.9815
11
30.8028
21
-26.8996
0
LINE
8
Black
10
30.8028
20
-26.8996
11
31.5665
21
-26.1359
0
LINE
8
Black
10
31.5665
20
-26.1359
11
32.6484
21
-27.2178
0
LINE
8
Black
10
35.5793
20
-27.6726
11
35.1636
21
-27.8448
0
LINE
8
Black
10
35.1636
20
-27.8448
11
34.8192
21
-27.0133
0
LINE
8
Black
10
34.8192
20
-27.0133
11
35.2349
21
-26.8411
0
LINE
8
Black
10
35.2349
20
-26.8411
11
35.5793
21
-27.6726
0
LINE
8
Black
10
54.0808
20
-27.0133
11
53.7364
21
-27.8448
0
LINE
8
Black
10
53.7364
20
-27.8448
11
53.3207
21
-27.6726
0
LINE
8
Black
10
53.3207
20
-27.6726
11
53.6651
21
-26.8411
0
LINE
8
Black
10
53.6651
20
-26.8411
11
54.0808
21
-27.0133
0
LINE
8
Black
10
36.3184
20
-27.3664
11
35.9027
21
-27.5386
0
LINE
8
Black
10
35.9027
20
-27.5386
11
35.5583
21
-26.7071
0
LINE
8
Black
10
35.5583
20
-26.7071
11
35.974
21
-26.5349
0
LINE
8
Black
10
35.974
20
-26.5349
11
36.3184
21
-27.3664
0
LINE
8
Black
10
53.3417
20
-26.7071
11
52.9973
21
-27.5386
0
LINE
8
Black
10
52.9973
20
-27.5386
11
52.5816
21
-27.3664
0
LINE
8
Black
10
52.5816
20
-27.3664
11
52.926
21
-26.5349
0
LINE
8
Black
10
52.926
20
-26.5349
11
53.3417
21
-26.7071
0
LINE
8
Black
10
37.0575
20
-27.0603
11
36.6418
21
-27.2325
0
LINE
8
Black
10
36.6418
20
-27.2325
11
36.2974
21
-26.401
0
LINE
8
Black
10
36.2974
20
-26.401
11
36.7131
21
-26.2288
0
LINE
8
Black
10
36.7131
20
-26.2288
11
37.0575
21
-27.0603
0
LINE
8
Black
10
52.6026
20
-26.401
11
52.2582
21
-27.2325
0
LINE
8
Black
10
52.2582
20
-27.2325
11
51.8425
21
-27.0603
0
LINE
8
Black
10
51.8425
20
-27.0603
11
52.1869
21
-26.2288
0
LINE
8
Black
10
52.1869
20
-26.2288
11
52.6026
21
-26.401
0
LINE
8
Black
10
56.4397
20
-25.5387
11
55.8542
21
-26.9523
0
LINE
8
Black
10
55.8542
20
-26.9523
11
54.8564
21
-26.539
0
LINE
8
Black
10
54.8564
20
-26.539
11
55.4419
21
-25.1254
0
LINE
8
Black
10
55.4419
20
-25.1254
11
56.4397
21
-25.5387
0
LINE
8
Black
10
34.0436
20
-26.539
11
33.0458
21
-26.9523
0
LINE
8
Black
10
33.0458
20
-26.9523
11
32.4603
21
-25.5387
0
LINE
8
Black
10
32.4603
20
-25.5387
11
33.4581
21
-25.1254
0
LINE
8
Black
10
33.4581
20
-25.1254
11
34.0436
21
-26.539
0
LINE
8
Black
10
37.7966
20
-26.7541
11
37.3809
21
-26.9263
0
LINE
8
Black
10
37.3809
20
-26.9263
11
37.0365
21
-26.0948
0
LINE
8
Black
10
37.0365
20
-26.0948
11
37.4522
21
-25.9226
0
LINE
8
Black
10
37.4522
20
-25.9226
11
37.7966
21
-26.7541
0
LINE
8
Black
10
51.8635
20
-26.0948
11
51.5191
21
-26.9263
0
LINE
8
Black
10
51.5191
20
-26.9263
11
51.1034
21
-26.7541
0
LINE
8
Black
10
51.1034
20
-26.7541
11
51.4478
21
-25.9226
0
LINE
8
Black
10
51.4478
20
-25.9226
11
51.8635
21
-26.0948
0
LINE
8
Black
10
38.5357
20
-26.448
11
38.12
21
-26.6202
0
LINE
8
Black
10
38.12
20
-26.6202
11
37.7756
21
-25.7887
0
LINE
8
Black
10
37.7756
20
-25.7887
11
38.1913
21
-25.6165
0
LINE
8
Black
10
38.1913
20
-25.6165
11
38.5357
21
-26.448
0
LINE
8
Black
10
51.1244
20
-25.7887
11
50.78
21
-26.6202
0
LINE
8
Black
10
50.78
20
-26.6202
11
50.3643
21
-26.448
0
LINE
8
Black
10
50.3643
20
-26.448
11
50.7087
21
-25.6165
0
LINE
8
Black
10
50.7087
20
-25.6165
11
51.1244
21
-25.7887
0
LINE
8
Black
10
39.2748
20
-26.1418
11
38.8591
21
-26.314
0
LINE
8
Black
10
38.8591
20
-26.314
11
38.5147
21
-25.4825
0
LINE
8
Black
10
38.5147
20
-25.4825
11
38.9304
21
-25.3103
0
LINE
8
Black
10
38.9304
20
-25.3103
11
39.2748
21
-26.1418
0
LINE
8
Black
10
50.3853
20
-25.4825
11
50.0409
21
-26.314
0
LINE
8
Black
10
50.0409
20
-26.314
11
49.6252
21
-26.1418
0
LINE
8
Black
10
49.6252
20
-26.1418
11
49.9696
21
-25.3103
0
LINE
8
Black
10
49.9696
20
-25.3103
11
50.3853
21
-25.4825
0
LINE
8
Black
10
46.675
20
-25.555
11
46.225
21
-25.555
0
LINE
8
Black
10
46.225
20
-25.555
11
46.225
21
-24.655
0
LINE
8
Black
10
46.225
20
-24.655
11
46.675
21
-24.655
0
LINE
8
Black
10
46.675
20
-24.655
11
46.675
21
-25.555
0
LINE
8
Black
10
45.875
20
-25.555
11
45.425
21
-25.555
0
LINE
8
Black
10
45.425
20
-25.555
11
45.425
21
-24.655
0
LINE
8
Black
10
45.425
20
-24.655
11
45.875
21
-24.655
0
LINE
8
Black
10
45.875
20
-24.655
11
45.875
21
-25.555
0
LINE
8
Black
10
45.075
20
-25.555
11
44.625
21
-25.555
0
LINE
8
Black
10
44.625
20
-25.555
11
44.625
21
-24.655
0
LINE
8
Black
10
44.625
20
-24.655
11
45.075
21
-24.655
0
LINE
8
Black
10
45.075
20
-24.655
11
45.075
21
-25.555
0
LINE
8
Black
10
44.275
20
-25.555
11
43.825
21
-25.555
0
LINE
8
Black
10
43.825
20
-25.555
11
43.825
21
-24.655
0
LINE
8
Black
10
43.825
20
-24.655
11
44.275
21
-24.655
0
LINE
8
Black
10
44.275
20
-24.655
11
44.275
21
-25.555
0
LINE
8
Black
10
43.475
20
-25.555
11
43.025
21
-25.555
0
LINE
8
Black
10
43.025
20
-25.555
11
43.025
21
-24.655
0
LINE
8
Black
10
43.025
20
-24.655
11
43.475
21
-24.655
0
LINE
8
Black
10
43.475
20
-24.655
11
43.475
21
-25.555
0
LINE
8
Black
10
42.675
20
-25.555
11
42.225
21
-25.555
0
LINE
8
Black
10
42.225
20
-25.555
11
42.225
21
-24.655
0
LINE
8
Black
10
42.225
20
-24.655
11
42.675
21
-24.655
0
LINE
8
Black
10
42.675
20
-24.655
11
42.675
21
-25.555
0
LINE
8
Black
10
50.3421
20
-23.013
11
49.7566
21
-24.4265
0
LINE
8
Black
10
49.7566
20
-24.4265
11
48.7588
21
-24.0132
0
LINE
8
Black
10
48.7588
20
-24.0132
11
49.3443
21
-22.5997
0
LINE
8
Black
10
49.3443
20
-22.5997
11
50.3421
21
-23.013
0
LINE
8
Black
10
40.1412
20
-24.0132
11
39.1434
21
-24.4265
0
LINE
8
Black
10
39.1434
20
-24.4265
11
38.5579
21
-23.013
0
LINE
8
Black
10
38.5579
20
-23.013
11
39.5557
21
-22.5997
0
LINE
8
Black
10
39.5557
20
-22.5997
11
40.1412
21
-24.0132
0
LINE
8
Black
10
41.69
20
-23.92
11
40.61
21
-23.92
0
LINE
8
Black
10
40.61
20
-23.92
11
40.61
21
-22.39
0
LINE
8
Black
10
40.61
20
-22.39
11
41.69
21
-22.39
0
LINE
8
Black
10
41.69
20
-22.39
11
41.69
21
-23.92
0
LINE
8
Black
10
48.29
20
-23.92
11
47.21
21
-23.92
0
LINE
8
Black
10
47.21
20
-23.92
11
47.21
21
-22.39
0
LINE
8
Black
10
47.21
20
-22.39
11
48.29
21
-22.39
0
LINE
8
Black
10
48.29
20
-22.39
11
48.29
21
-23.92
  0
ENDSEC
  0
EOF
