  0
SECTION
  2
HEADER
  9
$ANGBASE
  50
0.0
  9
$ANGDIR
  70
  1
  9
$MEASUREMENT
  70
0
  0
ENDSEC
  0
SECTION
  2
TABLES
  0
TABLE
  2
LTYPE
  70
1
  0
LTYPE
  2
CONTINUOUS
  70
0
  3
Solid line
  72
65
  73
0
  40
0.0
  0
ENDTAB
  0
TABLE
  2
STYLE
  70
4
  0
STYLE
  2
KICAD
  70
0
  40
0
  41
1
  42
1
  50
0
  71
0
  3
isocp.shx
  0
STYLE
  2
KICADB
  70
0
  40
0
  41
1
  42
1
  50
0
  71
0
  3
isocp.shx
  0
STYLE
  2
KICADI
  70
0
  40
0
  41
1
  42
1
  50
15
  71
0
  3
isocp.shx
  0
STYLE
  2
KICADBI
  70
0
  40
0
  41
1
  42
1
  50
15
  71
0
  3
isocp.shx
  0
ENDTAB
  0
TABLE
  2
LAYER
  70
30
  0
LAYER
  2
BLACK
  70
0
  62
7
  6
CONTINUOUS
  0
LAYER
  2
GRAY1
  70
0
  62
251
  6
CONTINUOUS
  0
LAYER
  2
GRAY2
  70
0
  62
8
  6
CONTINUOUS
  0
LAYER
  2
GRAY3
  70
0
  62
9
  6
CONTINUOUS
  0
LAYER
  2
WHITE
  70
0
  62
7
  6
CONTINUOUS
  0
LAYER
  2
LYELLOW
  70
0
  62
51
  6
CONTINUOUS
  0
LAYER
  2
BLUE1
  70
0
  62
178
  6
CONTINUOUS
  0
LAYER
  2
GREEN1
  70
0
  62
98
  6
CONTINUOUS
  0
LAYER
  2
CYAN1
  70
0
  62
138
  6
CONTINUOUS
  0
LAYER
  2
RED1
  70
0
  62
18
  6
CONTINUOUS
  0
LAYER
  2
MAGENTA1
  70
0
  62
228
  6
CONTINUOUS
  0
LAYER
  2
BROWN1
  70
0
  62
58
  6
CONTINUOUS
  0
LAYER
  2
BLUE2
  70
0
  62
5
  6
CONTINUOUS
  0
LAYER
  2
GREEN2
  70
0
  62
3
  6
CONTINUOUS
  0
LAYER
  2
CYAN2
  70
0
  62
4
  6
CONTINUOUS
  0
LAYER
  2
RED2
  70
0
  62
1
  6
CONTINUOUS
  0
LAYER
  2
MAGENTA2
  70
0
  62
6
  6
CONTINUOUS
  0
LAYER
  2
BROWN2
  70
0
  62
54
  6
CONTINUOUS
  0
LAYER
  2
BLUE3
  70
0
  62
171
  6
CONTINUOUS
  0
LAYER
  2
GREEN3
  70
0
  62
91
  6
CONTINUOUS
  0
LAYER
  2
CYAN3
  70
0
  62
131
  6
CONTINUOUS
  0
LAYER
  2
RED3
  70
0
  62
11
  6
CONTINUOUS
  0
LAYER
  2
MAGENTA3
  70
0
  62
221
  6
CONTINUOUS
  0
LAYER
  2
YELLOW3
  70
0
  62
2
  6
CONTINUOUS
  0
LAYER
  2
BLUE4
  70
0
  62
5
  6
CONTINUOUS
  0
LAYER
  2
GREEN4
  70
0
  62
3
  6
CONTINUOUS
  0
LAYER
  2
CYAN4
  70
0
  62
4
  6
CONTINUOUS
  0
LAYER
  2
RED4
  70
0
  62
1
  6
CONTINUOUS
  0
LAYER
  2
MAGENTA4
  70
0
  62
6
  6
CONTINUOUS
  0
LAYER
  2
YELLOW4
  70
0
  62
2
  6
CONTINUOUS
  0
ENDTAB
  0
ENDSEC
  0
SECTION
  2
ENTITIES
0
LINE
8
Black
10
48.1184
20
-67.9847
11
48.2665
21
-68.0702
0
LINE
8
Black
10
48.2665
20
-68.0702
11
48.3765
21
-68.2012
0
LINE
8
Black
10
48.3765
20
-68.2012
11
48.435
21
-68.3619
0
LINE
8
Black
10
48.435
20
-68.3619
11
48.435
21
-68.533
0
LINE
8
Black
10
48.435
20
-68.533
11
48.3765
21
-68.6937
0
LINE
8
Black
10
48.3765
20
-68.6937
11
48.2665
21
-68.8247
0
LINE
8
Black
10
48.2665
20
-68.8247
11
48.1184
21
-68.9102
0
LINE
8
Black
10
48.1184
20
-68.9102
11
47.95
21
-68.9399
0
LINE
8
Black
10
47.95
20
-68.9399
11
47.7816
21
-68.9102
0
LINE
8
Black
10
47.7816
20
-68.9102
11
47.6335
21
-68.8247
0
LINE
8
Black
10
47.6335
20
-68.8247
11
47.5235
21
-68.6937
0
LINE
8
Black
10
47.5235
20
-68.6937
11
47.465
21
-68.533
0
LINE
8
Black
10
47.465
20
-68.533
11
47.465
21
-68.3619
0
LINE
8
Black
10
47.465
20
-68.3619
11
47.5235
21
-68.2012
0
LINE
8
Black
10
47.5235
20
-68.2012
11
47.6335
21
-68.0702
0
LINE
8
Black
10
47.6335
20
-68.0702
11
47.7816
21
-67.9847
0
LINE
8
Black
10
47.7816
20
-67.9847
11
47.95
21
-67.955
0
LINE
8
Black
10
47.95
20
-67.955
11
48.1184
21
-67.9847
0
LINE
8
Black
10
41.1184
20
-67.9847
11
41.2665
21
-68.0702
0
LINE
8
Black
10
41.2665
20
-68.0702
11
41.3765
21
-68.2012
0
LINE
8
Black
10
41.3765
20
-68.2012
11
41.435
21
-68.3619
0
LINE
8
Black
10
41.435
20
-68.3619
11
41.435
21
-68.533
0
LINE
8
Black
10
41.435
20
-68.533
11
41.3765
21
-68.6937
0
LINE
8
Black
10
41.3765
20
-68.6937
11
41.2665
21
-68.8247
0
LINE
8
Black
10
41.2665
20
-68.8247
11
41.1184
21
-68.9102
0
LINE
8
Black
10
41.1184
20
-68.9102
11
40.95
21
-68.9399
0
LINE
8
Black
10
40.95
20
-68.9399
11
40.7816
21
-68.9102
0
LINE
8
Black
10
40.7816
20
-68.9102
11
40.6335
21
-68.8247
0
LINE
8
Black
10
40.6335
20
-68.8247
11
40.5235
21
-68.6937
0
LINE
8
Black
10
40.5235
20
-68.6937
11
40.465
21
-68.533
0
LINE
8
Black
10
40.465
20
-68.533
11
40.465
21
-68.3619
0
LINE
8
Black
10
40.465
20
-68.3619
11
40.5235
21
-68.2012
0
LINE
8
Black
10
40.5235
20
-68.2012
11
40.6335
21
-68.0702
0
LINE
8
Black
10
40.6335
20
-68.0702
11
40.7816
21
-67.9847
0
LINE
8
Black
10
40.7816
20
-67.9847
11
40.95
21
-67.955
0
LINE
8
Black
10
40.95
20
-67.955
11
41.1184
21
-67.9847
0
LINE
8
Black
10
43.2766
20
-66.1747
11
43.0234
21
-66.1747
0
LINE
8
Black
10
43.0234
20
-66.1747
11
43.0234
21
-65.3202
0
LINE
8
Black
10
43.0234
20
-65.3202
11
43.2766
21
-65.3202
0
LINE
8
Black
10
43.2766
20
-65.3202
11
43.2766
21
-66.1747
0
LINE
8
Black
10
43.9266
20
-66.1747
11
43.6734
21
-66.1747
0
LINE
8
Black
10
43.6734
20
-66.1747
11
43.6734
21
-65.3202
0
LINE
8
Black
10
43.6734
20
-65.3202
11
43.9266
21
-65.3202
0
LINE
8
Black
10
43.9266
20
-65.3202
11
43.9266
21
-66.1747
0
LINE
8
Black
10
44.5766
20
-66.1747
11
44.3234
21
-66.1747
0
LINE
8
Black
10
44.3234
20
-66.1747
11
44.3234
21
-65.3202
0
LINE
8
Black
10
44.3234
20
-65.3202
11
44.5766
21
-65.3202
0
LINE
8
Black
10
44.5766
20
-65.3202
11
44.5766
21
-66.1747
0
LINE
8
Black
10
45.2266
20
-66.1747
11
44.9734
21
-66.1747
0
LINE
8
Black
10
44.9734
20
-66.1747
11
44.9734
21
-65.3202
0
LINE
8
Black
10
44.9734
20
-65.3202
11
45.2266
21
-65.3202
0
LINE
8
Black
10
45.2266
20
-65.3202
11
45.2266
21
-66.1747
0
LINE
8
Black
10
45.8766
20
-66.1747
11
45.6234
21
-66.1747
0
LINE
8
Black
10
45.6234
20
-66.1747
11
45.6234
21
-65.3202
0
LINE
8
Black
10
45.6234
20
-65.3202
11
45.8766
21
-65.3202
0
LINE
8
Black
10
45.8766
20
-65.3202
11
45.8766
21
-66.1747
0
LINE
8
Black
10
42.2046
20
-65.4649
11
42.295
21
-65.5171
0
LINE
8
Black
10
42.295
20
-65.5171
11
42.3621
21
-65.5971
0
LINE
8
Black
10
42.3621
20
-65.5971
11
42.3978
21
-65.6952
0
LINE
8
Black
10
42.3978
20
-65.6952
11
42.3978
21
-65.7997
0
LINE
8
Black
10
42.3978
20
-65.7997
11
42.3621
21
-65.8978
0
LINE
8
Black
10
42.3621
20
-65.8978
11
42.295
21
-65.9778
0
LINE
8
Black
10
42.295
20
-65.9778
11
42.2046
21
-66.03
0
LINE
8
Black
10
42.2046
20
-66.03
11
42.1017
21
-66.0481
0
LINE
8
Black
10
42.1017
20
-66.0481
11
41.7983
21
-66.0481
0
LINE
8
Black
10
41.7983
20
-66.0481
11
41.6954
21
-66.03
0
LINE
8
Black
10
41.6954
20
-66.03
11
41.605
21
-65.9778
0
LINE
8
Black
10
41.605
20
-65.9778
11
41.5379
21
-65.8978
0
LINE
8
Black
10
41.5379
20
-65.8978
11
41.5022
21
-65.7997
0
LINE
8
Black
10
41.5022
20
-65.7997
11
41.5022
21
-65.6952
0
LINE
8
Black
10
41.5022
20
-65.6952
11
41.5379
21
-65.5971
0
LINE
8
Black
10
41.5379
20
-65.5971
11
41.605
21
-65.5171
0
LINE
8
Black
10
41.605
20
-65.5171
11
41.6954
21
-65.4649
0
LINE
8
Black
10
41.6954
20
-65.4649
11
41.7983
21
-65.4468
0
LINE
8
Black
10
41.7983
20
-65.4468
11
42.1017
21
-65.4468
0
LINE
8
Black
10
42.1017
20
-65.4468
11
42.2046
21
-65.4649
0
LINE
8
Black
10
47.2046
20
-65.4649
11
47.295
21
-65.5171
0
LINE
8
Black
10
47.295
20
-65.5171
11
47.3621
21
-65.5971
0
LINE
8
Black
10
47.3621
20
-65.5971
11
47.3978
21
-65.6952
0
LINE
8
Black
10
47.3978
20
-65.6952
11
47.3978
21
-65.7997
0
LINE
8
Black
10
47.3978
20
-65.7997
11
47.3621
21
-65.8978
0
LINE
8
Black
10
47.3621
20
-65.8978
11
47.295
21
-65.9778
0
LINE
8
Black
10
47.295
20
-65.9778
11
47.2046
21
-66.03
0
LINE
8
Black
10
47.2046
20
-66.03
11
47.1017
21
-66.0481
0
LINE
8
Black
10
47.1017
20
-66.0481
11
46.7983
21
-66.0481
0
LINE
8
Black
10
46.7983
20
-66.0481
11
46.6954
21
-66.03
0
LINE
8
Black
10
46.6954
20
-66.03
11
46.605
21
-65.9778
0
LINE
8
Black
10
46.605
20
-65.9778
11
46.5379
21
-65.8978
0
LINE
8
Black
10
46.5379
20
-65.8978
11
46.5022
21
-65.7997
0
LINE
8
Black
10
46.5022
20
-65.7997
11
46.5022
21
-65.6952
0
LINE
8
Black
10
46.5022
20
-65.6952
11
46.5379
21
-65.5971
0
LINE
8
Black
10
46.5379
20
-65.5971
11
46.605
21
-65.5171
0
LINE
8
Black
10
46.605
20
-65.5171
11
46.6954
21
-65.4649
0
LINE
8
Black
10
46.6954
20
-65.4649
11
46.7983
21
-65.4468
0
LINE
8
Black
10
46.7983
20
-65.4468
11
47.1017
21
-65.4468
0
LINE
8
Black
10
47.1017
20
-65.4468
11
47.2046
21
-65.4649
0
LINE
8
Black
10
59.3511
20
-63.4432
11
58.6349
21
-64.1594
0
LINE
8
Black
10
58.6349
20
-64.1594
11
57.1131
21
-62.6375
0
LINE
8
Black
10
57.1131
20
-62.6375
11
57.8292
21
-61.9214
0
LINE
8
Black
10
57.8292
20
-61.9214
11
59.3511
21
-63.4432
0
LINE
8
Black
10
29.2584
20
-63.0026
11
28.9003
21
-63.3607
0
LINE
8
Black
10
28.9003
20
-63.3607
11
28.7213
21
-63.1817
0
LINE
8
Black
10
28.7213
20
-63.1817
11
29.0793
21
-62.8236
0
LINE
8
Black
10
29.0793
20
-62.8236
11
29.2584
21
-63.0026
0
LINE
8
Black
10
50.7038
20
-62.8842
11
50.1341
21
-62.8842
0
LINE
8
Black
10
50.1341
20
-62.8842
11
50.1341
21
-62.5677
0
LINE
8
Black
10
50.1341
20
-62.5677
11
50.7038
21
-62.5677
0
LINE
8
Black
10
50.7038
20
-62.5677
11
50.7038
21
-62.8842
0
LINE
8
Black
10
50.7038
20
-61.3842
11
50.1341
21
-61.3842
0
LINE
8
Black
10
50.1341
20
-61.3842
11
50.1341
21
-61.0677
0
LINE
8
Black
10
50.1341
20
-61.0677
11
50.7038
21
-61.0677
0
LINE
8
Black
10
50.7038
20
-61.0677
11
50.7038
21
-61.3842
0
LINE
8
Black
10
30.2967
20
-60.5054
11
29.9386
21
-60.8635
0
LINE
8
Black
10
29.9386
20
-60.8635
11
29.8043
21
-60.7292
0
LINE
8
Black
10
29.8043
20
-60.7292
11
30.1624
21
-60.3711
0
LINE
8
Black
10
30.1624
20
-60.3711
11
30.2967
21
-60.5054
0
LINE
8
Black
10
29.9431
20
-60.1518
11
29.585
21
-60.5099
0
LINE
8
Black
10
29.585
20
-60.5099
11
29.4507
21
-60.3756
0
LINE
8
Black
10
29.4507
20
-60.3756
11
29.8088
21
-60.0176
0
LINE
8
Black
10
29.8088
20
-60.0176
11
29.9431
21
-60.1518
0
LINE
8
Black
10
26.0764
20
-59.8207
11
25.7183
21
-60.1787
0
LINE
8
Black
10
25.7183
20
-60.1787
11
25.5393
21
-59.9997
0
LINE
8
Black
10
25.5393
20
-59.9997
11
25.8974
21
-59.6416
0
LINE
8
Black
10
25.8974
20
-59.6416
11
26.0764
21
-59.8207
0
LINE
8
Black
10
29.5895
20
-59.7983
11
29.2315
21
-60.1564
0
LINE
8
Black
10
29.2315
20
-60.1564
11
29.0972
21
-60.0221
0
LINE
8
Black
10
29.0972
20
-60.0221
11
29.4553
21
-59.664
0
LINE
8
Black
10
29.4553
20
-59.664
11
29.5895
21
-59.7983
0
LINE
8
Black
10
29.236
20
-59.4447
11
28.8779
21
-59.8028
0
LINE
8
Black
10
28.8779
20
-59.8028
11
28.7436
21
-59.6685
0
LINE
8
Black
10
28.7436
20
-59.6685
11
29.1017
21
-59.3104
0
LINE
8
Black
10
29.1017
20
-59.3104
11
29.236
21
-59.4447
0
LINE
8
Black
10
28.8824
20
-59.0912
11
28.5244
21
-59.4493
0
LINE
8
Black
10
28.5244
20
-59.4493
11
28.3901
21
-59.315
0
LINE
8
Black
10
28.3901
20
-59.315
11
28.7482
21
-58.9569
0
LINE
8
Black
10
28.7482
20
-58.9569
11
28.8824
21
-59.0912
0
LINE
8
Black
10
64.1594
20
-58.6349
11
63.4432
21
-59.3511
0
LINE
8
Black
10
63.4432
20
-59.3511
11
61.9214
21
-57.8292
0
LINE
8
Black
10
61.9214
20
-57.8292
11
62.6375
21
-57.1131
0
LINE
8
Black
10
62.6375
20
-57.1131
11
64.1594
21
-58.6349
0
LINE
8
Black
10
28.5289
20
-58.7376
11
28.1708
21
-59.0957
0
LINE
8
Black
10
28.1708
20
-59.0957
11
28.0365
21
-58.9614
0
LINE
8
Black
10
28.0365
20
-58.9614
11
28.3946
21
-58.6033
0
LINE
8
Black
10
28.3946
20
-58.6033
11
28.5289
21
-58.7376
0
LINE
8
Black
10
57.0118
20
-57.9784
11
56.5642
21
-58.426
0
LINE
8
Black
10
56.5642
20
-58.426
11
54.9976
21
-56.8594
0
LINE
8
Black
10
54.9976
20
-56.8594
11
55.4452
21
-56.4118
0
LINE
8
Black
10
55.4452
20
-56.4118
11
57.0118
21
-57.9784
0
LINE
8
Black
10
58.426
20
-56.5642
11
57.9784
21
-57.0118
0
LINE
8
Black
10
57.9784
20
-57.0118
11
56.4118
21
-55.4452
0
LINE
8
Black
10
56.4118
20
-55.4452
11
56.8594
21
-54.9976
0
LINE
8
Black
10
56.8594
20
-54.9976
11
58.426
21
-56.5642
0
LINE
8
Black
10
23.315
20
-55.7768
11
22.8471
21
-55.9706
0
LINE
8
Black
10
22.8471
20
-55.9706
11
22.7502
21
-55.7367
0
LINE
8
Black
10
22.7502
20
-55.7367
11
23.2181
21
-55.5429
0
LINE
8
Black
10
23.2181
20
-55.5429
11
23.315
21
-55.7768
0
LINE
8
Black
10
41.5326
20
-55.4431
11
41.0894
21
-55.4431
0
LINE
8
Black
10
41.0894
20
-55.4431
11
41.0894
21
-55.2849
0
LINE
8
Black
10
41.0894
20
-55.2849
11
41.5326
21
-55.2849
0
LINE
8
Black
10
41.5326
20
-55.2849
11
41.5326
21
-55.4431
0
LINE
8
Black
10
39.6825
20
-55.4431
11
39.2394
21
-55.4431
0
LINE
8
Black
10
39.2394
20
-55.4431
11
39.2394
21
-55.2849
0
LINE
8
Black
10
39.2394
20
-55.2849
11
39.6825
21
-55.2849
0
LINE
8
Black
10
39.6825
20
-55.2849
11
39.6825
21
-55.4431
0
LINE
8
Black
10
40.569
20
-55.432
11
40.203
21
-55.432
0
LINE
8
Black
10
40.203
20
-55.432
11
40.203
21
-55.006
0
LINE
8
Black
10
40.203
20
-55.006
11
40.569
21
-55.006
0
LINE
8
Black
10
40.569
20
-55.006
11
40.569
21
-55.432
0
LINE
8
Black
10
49.9237
20
-55.0295
11
49.5123
21
-55.0295
0
LINE
8
Black
10
49.5123
20
-55.0295
11
49.5123
21
-54.3585
0
LINE
8
Black
10
49.5123
20
-54.3585
11
49.9237
21
-54.3585
0
LINE
8
Black
10
49.9237
20
-54.3585
11
49.9237
21
-55.0295
0
LINE
8
Black
10
48.0237
20
-55.0295
11
47.6123
21
-55.0295
0
LINE
8
Black
10
47.6123
20
-55.0295
11
47.6123
21
-54.3585
0
LINE
8
Black
10
47.6123
20
-54.3585
11
48.0237
21
-54.3585
0
LINE
8
Black
10
48.0237
20
-54.3585
11
48.0237
21
-55.0295
0
LINE
8
Black
10
39.6825
20
-54.9431
11
39.2394
21
-54.9431
0
LINE
8
Black
10
39.2394
20
-54.9431
11
39.2394
21
-54.7849
0
LINE
8
Black
10
39.2394
20
-54.7849
11
39.6825
21
-54.7849
0
LINE
8
Black
10
39.6825
20
-54.7849
11
39.6825
21
-54.9431
0
LINE
8
Black
10
41.5326
20
-54.9431
11
41.0894
21
-54.9431
0
LINE
8
Black
10
41.0894
20
-54.9431
11
41.0894
21
-54.7849
0
LINE
8
Black
10
41.0894
20
-54.7849
11
41.5326
21
-54.7849
0
LINE
8
Black
10
41.5326
20
-54.7849
11
41.5326
21
-54.9431
0
LINE
8
Black
10
40.569
20
-54.722
11
40.203
21
-54.722
0
LINE
8
Black
10
40.203
20
-54.722
11
40.203
21
-54.296
0
LINE
8
Black
10
40.203
20
-54.296
11
40.569
21
-54.296
0
LINE
8
Black
10
40.569
20
-54.296
11
40.569
21
-54.722
0
LINE
8
Black
10
41.5326
20
-54.4431
11
41.0894
21
-54.4431
0
LINE
8
Black
10
41.0894
20
-54.4431
11
41.0894
21
-54.2849
0
LINE
8
Black
10
41.0894
20
-54.2849
11
41.5326
21
-54.2849
0
LINE
8
Black
10
41.5326
20
-54.2849
11
41.5326
21
-54.4431
0
LINE
8
Black
10
39.6825
20
-54.4431
11
39.2394
21
-54.4431
0
LINE
8
Black
10
39.2394
20
-54.4431
11
39.2394
21
-54.2849
0
LINE
8
Black
10
39.2394
20
-54.2849
11
39.6825
21
-54.2849
0
LINE
8
Black
10
39.6825
20
-54.2849
11
39.6825
21
-54.4431
0
LINE
8
Black
10
25.2299
20
-53.867
11
24.762
21
-54.0608
0
LINE
8
Black
10
24.762
20
-54.0608
11
24.6894
21
-53.8853
0
LINE
8
Black
10
24.6894
20
-53.8853
11
25.1572
21
-53.6916
0
LINE
8
Black
10
25.1572
20
-53.6916
11
25.2299
21
-53.867
0
LINE
8
Black
10
25.0385
20
-53.4051
11
24.5707
21
-53.5988
0
LINE
8
Black
10
24.5707
20
-53.5988
11
24.498
21
-53.4234
0
LINE
8
Black
10
24.498
20
-53.4234
11
24.9659
21
-53.2296
0
LINE
8
Black
10
24.9659
20
-53.2296
11
25.0385
21
-53.4051
0
LINE
8
Black
10
24.8472
20
-52.9431
11
24.3793
21
-53.1369
0
LINE
8
Black
10
24.3793
20
-53.1369
11
24.3067
21
-52.9615
0
LINE
8
Black
10
24.3067
20
-52.9615
11
24.7745
21
-52.7677
0
LINE
8
Black
10
24.7745
20
-52.7677
11
24.8472
21
-52.9431
0
LINE
8
Black
10
48.0237
20
-52.8295
11
47.6123
21
-52.8295
0
LINE
8
Black
10
47.6123
20
-52.8295
11
47.6123
21
-52.1585
0
LINE
8
Black
10
47.6123
20
-52.1585
11
48.0237
21
-52.1585
0
LINE
8
Black
10
48.0237
20
-52.1585
11
48.0237
21
-52.8295
0
LINE
8
Black
10
49.9237
20
-52.8295
11
49.5123
21
-52.8295
0
LINE
8
Black
10
49.5123
20
-52.8295
11
49.5123
21
-52.1585
0
LINE
8
Black
10
49.5123
20
-52.1585
11
49.9237
21
-52.1585
0
LINE
8
Black
10
49.9237
20
-52.1585
11
49.9237
21
-52.8295
0
LINE
8
Black
10
48.9737
20
-52.8295
11
48.5623
21
-52.8295
0
LINE
8
Black
10
48.5623
20
-52.8295
11
48.5623
21
-52.1585
0
LINE
8
Black
10
48.5623
20
-52.1585
11
48.9737
21
-52.1585
0
LINE
8
Black
10
48.9737
20
-52.1585
11
48.9737
21
-52.8295
0
LINE
8
Black
10
24.6559
20
-52.4812
11
24.188
21
-52.675
0
LINE
8
Black
10
24.188
20
-52.675
11
24.1153
21
-52.4995
0
LINE
8
Black
10
24.1153
20
-52.4995
11
24.5832
21
-52.3057
0
LINE
8
Black
10
24.5832
20
-52.3057
11
24.6559
21
-52.4812
0
LINE
8
Black
10
45.503
20
-52.1818
11
45.2792
21
-52.4056
0
LINE
8
Black
10
45.2792
20
-52.4056
11
44.8764
21
-52.0028
0
LINE
8
Black
10
44.8764
20
-52.0028
11
45.1001
21
-51.779
0
LINE
8
Black
10
45.1001
20
-51.779
11
45.503
21
-52.1818
0
LINE
8
Black
10
24.4645
20
-52.0192
11
23.9967
21
-52.213
0
LINE
8
Black
10
23.9967
20
-52.213
11
23.924
21
-52.0376
0
LINE
8
Black
10
23.924
20
-52.0376
11
24.3918
21
-51.8438
0
LINE
8
Black
10
24.3918
20
-51.8438
11
24.4645
21
-52.0192
0
LINE
8
Black
10
21.5929
20
-51.6194
11
21.1251
21
-51.8132
0
LINE
8
Black
10
21.1251
20
-51.8132
11
21.0282
21
-51.5792
0
LINE
8
Black
10
21.0282
20
-51.5792
11
21.496
21
-51.3854
0
LINE
8
Black
10
21.496
20
-51.3854
11
21.5929
21
-51.6194
0
LINE
8
Black
10
24.2732
20
-51.5573
11
23.8053
21
-51.7511
0
LINE
8
Black
10
23.8053
20
-51.7511
11
23.7327
21
-51.5756
0
LINE
8
Black
10
23.7327
20
-51.5756
11
24.2005
21
-51.3819
0
LINE
8
Black
10
24.2005
20
-51.3819
11
24.2732
21
-51.5573
0
LINE
8
Black
10
46.5636
20
-51.1212
11
46.3398
21
-51.345
0
LINE
8
Black
10
46.3398
20
-51.345
11
45.937
21
-50.9421
0
LINE
8
Black
10
45.937
20
-50.9421
11
46.1608
21
-50.7184
0
LINE
8
Black
10
46.1608
20
-50.7184
11
46.5636
21
-51.1212
0
LINE
8
Black
10
50.3385
20
-50.4336
11
49.7055
21
-50.4336
0
LINE
8
Black
10
49.7055
20
-50.4336
11
49.7055
21
-49.6424
0
LINE
8
Black
10
49.7055
20
-49.6424
11
50.3385
21
-49.6424
0
LINE
8
Black
10
50.3385
20
-49.6424
11
50.3385
21
-50.4336
0
LINE
8
Black
10
48.3385
20
-50.4336
11
47.7055
21
-50.4336
0
LINE
8
Black
10
47.7055
20
-50.4336
11
47.7055
21
-49.6424
0
LINE
8
Black
10
47.7055
20
-49.6424
11
48.3385
21
-49.6424
0
LINE
8
Black
10
48.3385
20
-49.6424
11
48.3385
21
-50.4336
0
LINE
8
Black
10
39.4301
20
-49.2831
11
37.9299
21
-49.2831
0
LINE
8
Black
10
37.9299
20
-49.2831
11
37.9299
21
-47.7449
0
LINE
8
Black
10
37.9299
20
-47.7449
11
39.4301
21
-47.7449
0
LINE
8
Black
10
39.4301
20
-47.7449
11
39.4301
21
-49.2831
0
LINE
8
Black
10
33.1901
20
-49.2831
11
31.6899
21
-49.2831
0
LINE
8
Black
10
31.6899
20
-49.2831
11
31.6899
21
-47.7449
0
LINE
8
Black
10
31.6899
20
-47.7449
11
33.1901
21
-47.7449
0
LINE
8
Black
10
33.1901
20
-47.7449
11
33.1901
21
-49.2831
0
LINE
8
Black
10
30.0028
20
-48.1522
11
29.4331
21
-48.1522
0
LINE
8
Black
10
29.4331
20
-48.1522
11
29.4331
21
-47.8357
0
LINE
8
Black
10
29.4331
20
-47.8357
11
30.0028
21
-47.8357
0
LINE
8
Black
10
30.0028
20
-47.8357
11
30.0028
21
-48.1522
0
LINE
8
Black
10
20.5892
20
-46.8266
11
20.0828
21
-46.8266
0
LINE
8
Black
10
20.0828
20
-46.8266
11
20.0828
21
-46.5734
0
LINE
8
Black
10
20.0828
20
-46.5734
11
20.5892
21
-46.5734
0
LINE
8
Black
10
20.5892
20
-46.5734
11
20.5892
21
-46.8266
0
LINE
8
Black
10
30.0028
20
-46.6522
11
29.4331
21
-46.6522
0
LINE
8
Black
10
29.4331
20
-46.6522
11
29.4331
21
-46.3357
0
LINE
8
Black
10
29.4331
20
-46.3357
11
30.0028
21
-46.3357
0
LINE
8
Black
10
30.0028
20
-46.3357
11
30.0028
21
-46.6522
0
LINE
8
Black
10
23.0892
20
-45.795
11
22.5828
21
-45.795
0
LINE
8
Black
10
22.5828
20
-45.795
11
22.5828
21
-45.605
0
LINE
8
Black
10
22.5828
20
-45.605
11
23.0892
21
-45.605
0
LINE
8
Black
10
23.0892
20
-45.605
11
23.0892
21
-45.795
0
LINE
8
Black
10
61.3556
20
-45.7505
11
60.5644
21
-45.7505
0
LINE
8
Black
10
60.5644
20
-45.7505
11
60.5644
21
-45.1175
0
LINE
8
Black
10
60.5644
20
-45.1175
11
61.3556
21
-45.1175
0
LINE
8
Black
10
61.3556
20
-45.1175
11
61.3556
21
-45.7505
0
LINE
8
Black
10
33.9217
20
-45.3775
11
33.5103
21
-45.3775
0
LINE
8
Black
10
33.5103
20
-45.3775
11
33.5103
21
-44.7065
0
LINE
8
Black
10
33.5103
20
-44.7065
11
33.9217
21
-44.7065
0
LINE
8
Black
10
33.9217
20
-44.7065
11
33.9217
21
-45.3775
0
LINE
8
Black
10
32.9717
20
-45.3775
11
32.5603
21
-45.3775
0
LINE
8
Black
10
32.5603
20
-45.3775
11
32.5603
21
-44.7065
0
LINE
8
Black
10
32.5603
20
-44.7065
11
32.9717
21
-44.7065
0
LINE
8
Black
10
32.9717
20
-44.7065
11
32.9717
21
-45.3775
0
LINE
8
Black
10
32.0217
20
-45.3775
11
31.6103
21
-45.3775
0
LINE
8
Black
10
31.6103
20
-45.3775
11
31.6103
21
-44.7065
0
LINE
8
Black
10
31.6103
20
-44.7065
11
32.0217
21
-44.7065
0
LINE
8
Black
10
32.0217
20
-44.7065
11
32.0217
21
-45.3775
0
LINE
8
Black
10
23.0892
20
-45.295
11
22.5828
21
-45.295
0
LINE
8
Black
10
22.5828
20
-45.295
11
22.5828
21
-45.105
0
LINE
8
Black
10
22.5828
20
-45.105
11
23.0892
21
-45.105
0
LINE
8
Black
10
23.0892
20
-45.105
11
23.0892
21
-45.295
0
LINE
8
Black
10
23.0892
20
-44.795
11
22.5828
21
-44.795
0
LINE
8
Black
10
22.5828
20
-44.795
11
22.5828
21
-44.605
0
LINE
8
Black
10
22.5828
20
-44.605
11
23.0892
21
-44.605
0
LINE
8
Black
10
23.0892
20
-44.605
11
23.0892
21
-44.795
0
LINE
8
Black
10
23.0892
20
-44.295
11
22.5828
21
-44.295
0
LINE
8
Black
10
22.5828
20
-44.295
11
22.5828
21
-44.105
0
LINE
8
Black
10
22.5828
20
-44.105
11
23.0892
21
-44.105
0
LINE
8
Black
10
23.0892
20
-44.105
11
23.0892
21
-44.295
0
LINE
8
Black
10
50.1165
20
-44.0836
11
49.4835
21
-44.0836
0
LINE
8
Black
10
49.4835
20
-44.0836
11
49.4835
21
-43.2924
0
LINE
8
Black
10
49.4835
20
-43.2924
11
50.1165
21
-43.2924
0
LINE
8
Black
10
50.1165
20
-43.2924
11
50.1165
21
-44.0836
0
LINE
8
Black
10
52.1165
20
-44.0836
11
51.4835
21
-44.0836
0
LINE
8
Black
10
51.4835
20
-44.0836
11
51.4835
21
-43.2924
0
LINE
8
Black
10
51.4835
20
-43.2924
11
52.1165
21
-43.2924
0
LINE
8
Black
10
52.1165
20
-43.2924
11
52.1165
21
-44.0836
0
LINE
8
Black
10
23.0892
20
-43.795
11
22.5828
21
-43.795
0
LINE
8
Black
10
22.5828
20
-43.795
11
22.5828
21
-43.605
0
LINE
8
Black
10
22.5828
20
-43.605
11
23.0892
21
-43.605
0
LINE
8
Black
10
23.0892
20
-43.605
11
23.0892
21
-43.795
0
LINE
8
Black
10
61.3556
20
-43.7505
11
60.5644
21
-43.7505
0
LINE
8
Black
10
60.5644
20
-43.7505
11
60.5644
21
-43.1175
0
LINE
8
Black
10
60.5644
20
-43.1175
11
61.3556
21
-43.1175
0
LINE
8
Black
10
61.3556
20
-43.1175
11
61.3556
21
-43.7505
0
LINE
8
Black
10
23.0892
20
-43.295
11
22.5828
21
-43.295
0
LINE
8
Black
10
22.5828
20
-43.295
11
22.5828
21
-43.105
0
LINE
8
Black
10
22.5828
20
-43.105
11
23.0892
21
-43.105
0
LINE
8
Black
10
23.0892
20
-43.105
11
23.0892
21
-43.295
0
LINE
8
Black
10
33.9217
20
-43.1775
11
33.5103
21
-43.1775
0
LINE
8
Black
10
33.5103
20
-43.1775
11
33.5103
21
-42.5065
0
LINE
8
Black
10
33.5103
20
-42.5065
11
33.9217
21
-42.5065
0
LINE
8
Black
10
33.9217
20
-42.5065
11
33.9217
21
-43.1775
0
LINE
8
Black
10
32.0217
20
-43.1775
11
31.6103
21
-43.1775
0
LINE
8
Black
10
31.6103
20
-43.1775
11
31.6103
21
-42.5065
0
LINE
8
Black
10
31.6103
20
-42.5065
11
32.0217
21
-42.5065
0
LINE
8
Black
10
32.0217
20
-42.5065
11
32.0217
21
-43.1775
0
LINE
8
Black
10
20.5892
20
-42.3266
11
20.0828
21
-42.3266
0
LINE
8
Black
10
20.0828
20
-42.3266
11
20.0828
21
-42.0734
0
LINE
8
Black
10
20.0828
20
-42.0734
11
20.5892
21
-42.0734
0
LINE
8
Black
10
20.5892
20
-42.0734
11
20.5892
21
-42.3266
0
LINE
8
Black
10
37.0911
20
-40.9541
11
35.5529
21
-40.9541
0
LINE
8
Black
10
35.5529
20
-40.9541
11
35.5529
21
-39.4539
0
LINE
8
Black
10
35.5529
20
-39.4539
11
37.0911
21
-39.4539
0
LINE
8
Black
10
37.0911
20
-39.4539
11
37.0911
21
-40.9541
0
LINE
8
Black
10
51.2002
20
-40.1628
11
50.8837
21
-40.1628
0
LINE
8
Black
10
50.8837
20
-40.1628
11
50.8837
21
-39.5932
0
LINE
8
Black
10
50.8837
20
-39.5932
11
51.2002
21
-39.5932
0
LINE
8
Black
10
51.2002
20
-39.5932
11
51.2002
21
-40.1628
0
LINE
8
Black
10
49.7002
20
-40.1628
11
49.3837
21
-40.1628
0
LINE
8
Black
10
49.3837
20
-40.1628
11
49.3837
21
-39.5932
0
LINE
8
Black
10
49.3837
20
-39.5932
11
49.7002
21
-39.5932
0
LINE
8
Black
10
49.7002
20
-39.5932
11
49.7002
21
-40.1628
0
LINE
8
Black
10
24.2732
20
-37.3427
11
24.2005
21
-37.5181
0
LINE
8
Black
10
24.2005
20
-37.5181
11
23.7327
21
-37.3244
0
LINE
8
Black
10
23.7327
20
-37.3244
11
23.8053
21
-37.1489
0
LINE
8
Black
10
23.8053
20
-37.1489
11
24.2732
21
-37.3427
0
LINE
8
Black
10
21.5929
20
-37.2806
11
21.496
21
-37.5146
0
LINE
8
Black
10
21.496
20
-37.5146
11
21.0282
21
-37.3208
0
LINE
8
Black
10
21.0282
20
-37.3208
11
21.1251
21
-37.0868
0
LINE
8
Black
10
21.1251
20
-37.0868
11
21.5929
21
-37.2806
0
LINE
8
Black
10
24.4645
20
-36.8808
11
24.3918
21
-37.0562
0
LINE
8
Black
10
24.3918
20
-37.0562
11
23.924
21
-36.8624
0
LINE
8
Black
10
23.924
20
-36.8624
11
23.9967
21
-36.687
0
LINE
8
Black
10
23.9967
20
-36.687
11
24.4645
21
-36.8808
0
LINE
8
Black
10
24.6559
20
-36.4188
11
24.5832
21
-36.5943
0
LINE
8
Black
10
24.5832
20
-36.5943
11
24.1153
21
-36.4005
0
LINE
8
Black
10
24.1153
20
-36.4005
11
24.188
21
-36.225
0
LINE
8
Black
10
24.188
20
-36.225
11
24.6559
21
-36.4188
0
LINE
8
Black
10
24.8472
20
-35.9569
11
24.7745
21
-36.1323
0
LINE
8
Black
10
24.7745
20
-36.1323
11
24.3067
21
-35.9385
0
LINE
8
Black
10
24.3067
20
-35.9385
11
24.3793
21
-35.7631
0
LINE
8
Black
10
24.3793
20
-35.7631
11
24.8472
21
-35.9569
0
LINE
8
Black
10
25.0385
20
-35.4949
11
24.9659
21
-35.6704
0
LINE
8
Black
10
24.9659
20
-35.6704
11
24.498
21
-35.4766
0
LINE
8
Black
10
24.498
20
-35.4766
11
24.5707
21
-35.3012
0
LINE
8
Black
10
24.5707
20
-35.3012
11
25.0385
21
-35.4949
0
LINE
8
Black
10
25.2299
20
-35.033
11
25.1572
21
-35.2084
0
LINE
8
Black
10
25.1572
20
-35.2084
11
24.6894
21
-35.0147
0
LINE
8
Black
10
24.6894
20
-35.0147
11
24.762
21
-34.8392
0
LINE
8
Black
10
24.762
20
-34.8392
11
25.2299
21
-35.033
0
LINE
8
Black
10
37.0911
20
-34.7141
11
35.5529
21
-34.7141
0
LINE
8
Black
10
35.5529
20
-34.7141
11
35.5529
21
-33.2139
0
LINE
8
Black
10
35.5529
20
-33.2139
11
37.0911
21
-33.2139
0
LINE
8
Black
10
37.0911
20
-33.2139
11
37.0911
21
-34.7141
0
LINE
8
Black
10
56.7882
20
-34.5748
11
56.4718
21
-34.5748
0
LINE
8
Black
10
56.4718
20
-34.5748
11
56.4718
21
-34.0052
0
LINE
8
Black
10
56.4718
20
-34.0052
11
56.7882
21
-34.0052
0
LINE
8
Black
10
56.7882
20
-34.0052
11
56.7882
21
-34.5748
0
LINE
8
Black
10
55.2882
20
-34.5748
11
54.9718
21
-34.5748
0
LINE
8
Black
10
54.9718
20
-34.5748
11
54.9718
21
-34.0052
0
LINE
8
Black
10
54.9718
20
-34.0052
11
55.2882
21
-34.0052
0
LINE
8
Black
10
55.2882
20
-34.0052
11
55.2882
21
-34.5748
0
LINE
8
Black
10
23.315
20
-33.1232
11
23.2181
21
-33.3571
0
LINE
8
Black
10
23.2181
20
-33.3571
11
22.7502
21
-33.1633
0
LINE
8
Black
10
22.7502
20
-33.1633
11
22.8471
21
-32.9294
0
LINE
8
Black
10
22.8471
20
-32.9294
11
23.315
21
-33.1232
0
LINE
8
Black
10
27.8965
20
-30.5011
11
27.6727
21
-30.7249
0
LINE
8
Black
10
27.6727
20
-30.7249
11
27.2251
21
-30.2773
0
LINE
8
Black
10
27.2251
20
-30.2773
11
27.4489
21
-30.0535
0
LINE
8
Black
10
27.4489
20
-30.0535
11
27.8965
21
-30.5011
0
LINE
8
Black
10
25.9117
20
-30.0415
11
25.3746
21
-30.5786
0
LINE
8
Black
10
25.3746
20
-30.5786
11
24.6136
21
-29.8177
0
LINE
8
Black
10
24.6136
20
-29.8177
11
25.1508
21
-29.2805
0
LINE
8
Black
10
25.1508
20
-29.2805
11
25.9117
21
-30.0415
0
LINE
8
Black
10
28.4621
20
-29.9354
11
28.2383
21
-30.1592
0
LINE
8
Black
10
28.2383
20
-30.1592
11
27.7907
21
-29.7116
0
LINE
8
Black
10
27.7907
20
-29.7116
11
28.0145
21
-29.4878
0
LINE
8
Black
10
28.0145
20
-29.4878
11
28.4621
21
-29.9354
0
LINE
8
Black
10
29.0278
20
-29.3697
11
28.804
21
-29.5935
0
LINE
8
Black
10
28.804
20
-29.5935
11
28.3564
21
-29.1459
0
LINE
8
Black
10
28.3564
20
-29.1459
11
28.5802
21
-28.9221
0
LINE
8
Black
10
28.5802
20
-28.9221
11
29.0278
21
-29.3697
0
LINE
8
Black
10
29.5935
20
-28.804
11
29.3697
21
-29.0278
0
LINE
8
Black
10
29.3697
20
-29.0278
11
28.9221
21
-28.5802
0
LINE
8
Black
10
28.9221
20
-28.5802
11
29.1459
21
-28.3564
0
LINE
8
Black
10
29.1459
20
-28.3564
11
29.5935
21
-28.804
0
LINE
8
Black
10
30.1592
20
-28.2383
11
29.9354
21
-28.4621
0
LINE
8
Black
10
29.9354
20
-28.4621
11
29.4878
21
-28.0145
0
LINE
8
Black
10
29.4878
20
-28.0145
11
29.7116
21
-27.7907
0
LINE
8
Black
10
29.7116
20
-27.7907
11
30.1592
21
-28.2383
0
LINE
8
Black
10
30.7249
20
-27.6727
11
30.5011
21
-27.8965
0
LINE
8
Black
10
30.5011
20
-27.8965
11
30.0535
21
-27.4489
0
LINE
8
Black
10
30.0535
20
-27.4489
11
30.2773
21
-27.2251
0
LINE
8
Black
10
30.2773
20
-27.2251
11
30.7249
21
-27.6727
0
LINE
8
Black
10
30.5786
20
-25.3746
11
30.0415
21
-25.9117
0
LINE
8
Black
10
30.0415
20
-25.9117
11
29.2805
21
-25.1508
0
LINE
8
Black
10
29.2805
20
-25.1508
11
29.8177
21
-24.6136
0
LINE
8
Black
10
29.8177
20
-24.6136
11
30.5786
21
-25.3746
0
LINE
8
Black
10
54.9401
20
-24.7644
11
54.6979
21
-25.3492
0
LINE
8
Black
10
54.6979
20
-25.3492
11
54.4055
21
-25.2281
0
LINE
8
Black
10
54.4055
20
-25.2281
11
54.6477
21
-24.6433
0
LINE
8
Black
10
54.6477
20
-24.6433
11
54.9401
21
-24.7644
0
LINE
8
Black
10
34.4945
20
-25.2281
11
34.2021
21
-25.3492
0
LINE
8
Black
10
34.2021
20
-25.3492
11
33.9599
21
-24.7644
0
LINE
8
Black
10
33.9599
20
-24.7644
11
34.2523
21
-24.6433
0
LINE
8
Black
10
34.2523
20
-24.6433
11
34.4945
21
-25.2281
0
LINE
8
Black
10
54.201
20
-24.4583
11
53.9588
21
-25.0431
0
LINE
8
Black
10
53.9588
20
-25.0431
11
53.6664
21
-24.922
0
LINE
8
Black
10
53.6664
20
-24.922
11
53.9086
21
-24.3371
0
LINE
8
Black
10
53.9086
20
-24.3371
11
54.201
21
-24.4583
0
LINE
8
Black
10
35.2336
20
-24.922
11
34.9412
21
-25.0431
0
LINE
8
Black
10
34.9412
20
-25.0431
11
34.699
21
-24.4583
0
LINE
8
Black
10
34.699
20
-24.4583
11
34.9914
21
-24.3371
0
LINE
8
Black
10
34.9914
20
-24.3371
11
35.2336
21
-24.922
0
LINE
8
Black
10
35.9727
20
-24.6158
11
35.6803
21
-24.7369
0
LINE
8
Black
10
35.6803
20
-24.7369
11
35.4381
21
-24.1521
0
LINE
8
Black
10
35.4381
20
-24.1521
11
35.7305
21
-24.031
0
LINE
8
Black
10
35.7305
20
-24.031
11
35.9727
21
-24.6158
0
LINE
8
Black
10
53.4619
20
-24.1521
11
53.2197
21
-24.7369
0
LINE
8
Black
10
53.2197
20
-24.7369
11
52.9273
21
-24.6158
0
LINE
8
Black
10
52.9273
20
-24.6158
11
53.1695
21
-24.031
0
LINE
8
Black
10
53.1695
20
-24.031
11
53.4619
21
-24.1521
0
LINE
8
Black
10
36.7118
20
-24.3097
11
36.4194
21
-24.4308
0
LINE
8
Black
10
36.4194
20
-24.4308
11
36.1772
21
-23.846
0
LINE
8
Black
10
36.1772
20
-23.846
11
36.4696
21
-23.7249
0
LINE
8
Black
10
36.4696
20
-23.7249
11
36.7118
21
-24.3097
0
LINE
8
Black
10
52.7228
20
-23.846
11
52.4806
21
-24.4308
0
LINE
8
Black
10
52.4806
20
-24.4308
11
52.1882
21
-24.3097
0
LINE
8
Black
10
52.1882
20
-24.3097
11
52.4304
21
-23.7249
0
LINE
8
Black
10
52.4304
20
-23.7249
11
52.7228
21
-23.846
0
LINE
8
Black
10
57.1769
20
-23.3404
11
56.765
21
-24.3346
0
LINE
8
Black
10
56.765
20
-24.3346
11
56.0633
21
-24.0439
0
LINE
8
Black
10
56.0633
20
-24.0439
11
56.4751
21
-23.0497
0
LINE
8
Black
10
56.4751
20
-23.0497
11
57.1769
21
-23.3404
0
LINE
8
Black
10
32.8367
20
-24.0439
11
32.135
21
-24.3346
0
LINE
8
Black
10
32.135
20
-24.3346
11
31.7231
21
-23.3404
0
LINE
8
Black
10
31.7231
20
-23.3404
11
32.4249
21
-23.0497
0
LINE
8
Black
10
32.4249
20
-23.0497
11
32.8367
21
-24.0439
0
LINE
8
Black
10
37.451
20
-24.0035
11
37.1585
21
-24.1246
0
LINE
8
Black
10
37.1585
20
-24.1246
11
36.9163
21
-23.5398
0
LINE
8
Black
10
36.9163
20
-23.5398
11
37.2087
21
-23.4187
0
LINE
8
Black
10
37.2087
20
-23.4187
11
37.451
21
-24.0035
0
LINE
8
Black
10
51.9837
20
-23.5398
11
51.7415
21
-24.1246
0
LINE
8
Black
10
51.7415
20
-24.1246
11
51.449
21
-24.0035
0
LINE
8
Black
10
51.449
20
-24.0035
11
51.6913
21
-23.4187
0
LINE
8
Black
10
51.6913
20
-23.4187
11
51.9837
21
-23.5398
0
LINE
8
Black
10
38.1901
20
-23.6974
11
37.8976
21
-23.8185
0
LINE
8
Black
10
37.8976
20
-23.8185
11
37.6554
21
-23.2337
0
LINE
8
Black
10
37.6554
20
-23.2337
11
37.9478
21
-23.1126
0
LINE
8
Black
10
37.9478
20
-23.1126
11
38.1901
21
-23.6974
0
LINE
8
Black
10
51.2446
20
-23.2337
11
51.0024
21
-23.8185
0
LINE
8
Black
10
51.0024
20
-23.8185
11
50.7099
21
-23.6974
0
LINE
8
Black
10
50.7099
20
-23.6974
11
50.9522
21
-23.1126
0
LINE
8
Black
10
50.9522
20
-23.1126
11
51.2446
21
-23.2337
0
LINE
8
Black
10
43.4082
20
-22.8815
11
43.0917
21
-22.8815
0
LINE
8
Black
10
43.0917
20
-22.8815
11
43.0917
21
-22.2485
0
LINE
8
Black
10
43.0917
20
-22.2485
11
43.4082
21
-22.2485
0
LINE
8
Black
10
43.4082
20
-22.2485
11
43.4082
21
-22.8815
0
LINE
8
Black
10
42.6082
20
-22.8815
11
42.2918
21
-22.8815
0
LINE
8
Black
10
42.2918
20
-22.8815
11
42.2918
21
-22.2485
0
LINE
8
Black
10
42.2918
20
-22.2485
11
42.6082
21
-22.2485
0
LINE
8
Black
10
42.6082
20
-22.2485
11
42.6082
21
-22.8815
0
LINE
8
Black
10
45.8083
20
-22.8815
11
45.4917
21
-22.8815
0
LINE
8
Black
10
45.4917
20
-22.8815
11
45.4917
21
-22.2485
0
LINE
8
Black
10
45.4917
20
-22.2485
11
45.8083
21
-22.2485
0
LINE
8
Black
10
45.8083
20
-22.2485
11
45.8083
21
-22.8815
0
LINE
8
Black
10
44.2082
20
-22.8815
11
43.8917
21
-22.8815
0
LINE
8
Black
10
43.8917
20
-22.8815
11
43.8917
21
-22.2485
0
LINE
8
Black
10
43.8917
20
-22.2485
11
44.2082
21
-22.2485
0
LINE
8
Black
10
44.2082
20
-22.2485
11
44.2082
21
-22.8815
0
LINE
8
Black
10
45.0082
20
-22.8815
11
44.6917
21
-22.8815
0
LINE
8
Black
10
44.6917
20
-22.8815
11
44.6917
21
-22.2485
0
LINE
8
Black
10
44.6917
20
-22.2485
11
45.0082
21
-22.2485
0
LINE
8
Black
10
45.0082
20
-22.2485
11
45.0082
21
-22.8815
0
LINE
8
Black
10
46.6082
20
-22.8815
11
46.2918
21
-22.8815
0
LINE
8
Black
10
46.2918
20
-22.8815
11
46.2918
21
-22.2485
0
LINE
8
Black
10
46.2918
20
-22.2485
11
46.6082
21
-22.2485
0
LINE
8
Black
10
46.6082
20
-22.2485
11
46.6082
21
-22.8815
0
LINE
8
Black
10
38.9343
20
-21.5182
11
38.2326
21
-21.8089
0
LINE
8
Black
10
38.2326
20
-21.8089
11
37.8208
21
-20.8147
0
LINE
8
Black
10
37.8208
20
-20.8147
11
38.5225
21
-20.524
0
LINE
8
Black
10
38.5225
20
-20.524
11
38.9343
21
-21.5182
0
LINE
8
Black
10
51.0792
20
-20.8147
11
50.6674
21
-21.8089
0
LINE
8
Black
10
50.6674
20
-21.8089
11
49.9657
21
-21.5182
0
LINE
8
Black
10
49.9657
20
-21.5182
11
50.3775
21
-20.524
0
LINE
8
Black
10
50.3775
20
-20.524
11
51.0792
21
-20.8147
0
LINE
8
Black
10
41.5298
20
-21.1531
11
40.7702
21
-21.1531
0
LINE
8
Black
10
40.7702
20
-21.1531
11
40.7702
21
-20.077
0
LINE
8
Black
10
40.7702
20
-20.077
11
41.5298
21
-20.077
0
LINE
8
Black
10
41.5298
20
-20.077
11
41.5298
21
-21.1531
0
LINE
8
Black
10
48.1298
20
-21.1531
11
47.3702
21
-21.1531
0
LINE
8
Black
10
47.3702
20
-21.1531
11
47.3702
21
-20.077
0
LINE
8
Black
10
47.3702
20
-20.077
11
48.1298
21
-20.077
0
LINE
8
Black
10
48.1298
20
-20.077
11
48.1298
21
-21.1531
  0
ENDSEC
  0
EOF
