  0
SECTION
  2
HEADER
  9
$ANGBASE
  50
0.0
  9
$ANGDIR
  70
  1
  9
$MEASUREMENT
  70
0
  0
ENDSEC
  0
SECTION
  2
TABLES
  0
TABLE
  2
LTYPE
  70
1
  0
LTYPE
  2
CONTINUOUS
  70
0
  3
Solid line
  72
65
  73
0
  40
0.0
  0
ENDTAB
  0
TABLE
  2
STYLE
  70
4
  0
STYLE
  2
KICAD
  70
0
  40
0
  41
1
  42
1
  50
0
  71
0
  3
isocp.shx
  0
STYLE
  2
KICADB
  70
0
  40
0
  41
1
  42
1
  50
0
  71
0
  3
isocp.shx
  0
STYLE
  2
KICADI
  70
0
  40
0
  41
1
  42
1
  50
15
  71
0
  3
isocp.shx
  0
STYLE
  2
KICADBI
  70
0
  40
0
  41
1
  42
1
  50
15
  71
0
  3
isocp.shx
  0
ENDTAB
  0
TABLE
  2
LAYER
  70
30
  0
LAYER
  2
BLACK
  70
0
  62
7
  6
CONTINUOUS
  0
LAYER
  2
GRAY1
  70
0
  62
251
  6
CONTINUOUS
  0
LAYER
  2
GRAY2
  70
0
  62
8
  6
CONTINUOUS
  0
LAYER
  2
GRAY3
  70
0
  62
9
  6
CONTINUOUS
  0
LAYER
  2
WHITE
  70
0
  62
7
  6
CONTINUOUS
  0
LAYER
  2
LYELLOW
  70
0
  62
51
  6
CONTINUOUS
  0
LAYER
  2
BLUE1
  70
0
  62
178
  6
CONTINUOUS
  0
LAYER
  2
GREEN1
  70
0
  62
98
  6
CONTINUOUS
  0
LAYER
  2
CYAN1
  70
0
  62
138
  6
CONTINUOUS
  0
LAYER
  2
RED1
  70
0
  62
18
  6
CONTINUOUS
  0
LAYER
  2
MAGENTA1
  70
0
  62
228
  6
CONTINUOUS
  0
LAYER
  2
BROWN1
  70
0
  62
58
  6
CONTINUOUS
  0
LAYER
  2
BLUE2
  70
0
  62
5
  6
CONTINUOUS
  0
LAYER
  2
GREEN2
  70
0
  62
3
  6
CONTINUOUS
  0
LAYER
  2
CYAN2
  70
0
  62
4
  6
CONTINUOUS
  0
LAYER
  2
RED2
  70
0
  62
1
  6
CONTINUOUS
  0
LAYER
  2
MAGENTA2
  70
0
  62
6
  6
CONTINUOUS
  0
LAYER
  2
BROWN2
  70
0
  62
54
  6
CONTINUOUS
  0
LAYER
  2
BLUE3
  70
0
  62
171
  6
CONTINUOUS
  0
LAYER
  2
GREEN3
  70
0
  62
91
  6
CONTINUOUS
  0
LAYER
  2
CYAN3
  70
0
  62
131
  6
CONTINUOUS
  0
LAYER
  2
RED3
  70
0
  62
11
  6
CONTINUOUS
  0
LAYER
  2
MAGENTA3
  70
0
  62
221
  6
CONTINUOUS
  0
LAYER
  2
YELLOW3
  70
0
  62
2
  6
CONTINUOUS
  0
LAYER
  2
BLUE4
  70
0
  62
5
  6
CONTINUOUS
  0
LAYER
  2
GREEN4
  70
0
  62
3
  6
CONTINUOUS
  0
LAYER
  2
CYAN4
  70
0
  62
4
  6
CONTINUOUS
  0
LAYER
  2
RED4
  70
0
  62
1
  6
CONTINUOUS
  0
LAYER
  2
MAGENTA4
  70
0
  62
6
  6
CONTINUOUS
  0
LAYER
  2
YELLOW4
  70
0
  62
2
  6
CONTINUOUS
  0
ENDTAB
  0
ENDSEC
  0
SECTION
  2
ENTITIES
0
LINE
8
Black
10
48.1895
20
-67.7895
11
48.4001
21
-67.9111
0
LINE
8
Black
10
48.4001
20
-67.9111
11
48.5564
21
-68.0974
0
LINE
8
Black
10
48.5564
20
-68.0974
11
48.6395
21
-68.3259
0
LINE
8
Black
10
48.6395
20
-68.3259
11
48.6395
21
-68.569
0
LINE
8
Black
10
48.6395
20
-68.569
11
48.5564
21
-68.7975
0
LINE
8
Black
10
48.5564
20
-68.7975
11
48.4001
21
-68.9838
0
LINE
8
Black
10
48.4001
20
-68.9838
11
48.1895
21
-69.1054
0
LINE
8
Black
10
48.1895
20
-69.1054
11
47.95
21
-69.1476
0
LINE
8
Black
10
47.95
20
-69.1476
11
47.7105
21
-69.1054
0
LINE
8
Black
10
47.7105
20
-69.1054
11
47.4999
21
-68.9838
0
LINE
8
Black
10
47.4999
20
-68.9838
11
47.3436
21
-68.7975
0
LINE
8
Black
10
47.3436
20
-68.7975
11
47.2605
21
-68.569
0
LINE
8
Black
10
47.2605
20
-68.569
11
47.2605
21
-68.3259
0
LINE
8
Black
10
47.2605
20
-68.3259
11
47.3436
21
-68.0974
0
LINE
8
Black
10
47.3436
20
-68.0974
11
47.4999
21
-67.9111
0
LINE
8
Black
10
47.4999
20
-67.9111
11
47.7105
21
-67.7895
0
LINE
8
Black
10
47.7105
20
-67.7895
11
47.95
21
-67.7473
0
LINE
8
Black
10
47.95
20
-67.7473
11
48.1895
21
-67.7895
0
LINE
8
Black
10
41.1895
20
-67.7895
11
41.4001
21
-67.9111
0
LINE
8
Black
10
41.4001
20
-67.9111
11
41.5564
21
-68.0974
0
LINE
8
Black
10
41.5564
20
-68.0974
11
41.6395
21
-68.3259
0
LINE
8
Black
10
41.6395
20
-68.3259
11
41.6395
21
-68.569
0
LINE
8
Black
10
41.6395
20
-68.569
11
41.5564
21
-68.7975
0
LINE
8
Black
10
41.5564
20
-68.7975
11
41.4001
21
-68.9838
0
LINE
8
Black
10
41.4001
20
-68.9838
11
41.1895
21
-69.1054
0
LINE
8
Black
10
41.1895
20
-69.1054
11
40.95
21
-69.1476
0
LINE
8
Black
10
40.95
20
-69.1476
11
40.7105
21
-69.1054
0
LINE
8
Black
10
40.7105
20
-69.1054
11
40.4999
21
-68.9838
0
LINE
8
Black
10
40.4999
20
-68.9838
11
40.3436
21
-68.7975
0
LINE
8
Black
10
40.3436
20
-68.7975
11
40.2605
21
-68.569
0
LINE
8
Black
10
40.2605
20
-68.569
11
40.2605
21
-68.3259
0
LINE
8
Black
10
40.2605
20
-68.3259
11
40.3436
21
-68.0974
0
LINE
8
Black
10
40.3436
20
-68.0974
11
40.4999
21
-67.9111
0
LINE
8
Black
10
40.4999
20
-67.9111
11
40.7105
21
-67.7895
0
LINE
8
Black
10
40.7105
20
-67.7895
11
40.95
21
-67.7473
0
LINE
8
Black
10
40.95
20
-67.7473
11
41.1895
21
-67.7895
0
LINE
8
Black
10
43.9575
20
-69.002
11
43.1925
21
-69.002
0
LINE
8
Black
10
43.1925
20
-69.002
11
43.1925
21
-68.102
0
LINE
8
Black
10
43.1925
20
-68.102
11
43.9575
21
-68.102
0
LINE
8
Black
10
43.9575
20
-68.102
11
43.9575
21
-69.002
0
LINE
8
Black
10
45.7075
20
-69.002
11
44.9425
21
-69.002
0
LINE
8
Black
10
44.9425
20
-69.002
11
44.9425
21
-68.102
0
LINE
8
Black
10
44.9425
20
-68.102
11
45.7075
21
-68.102
0
LINE
8
Black
10
45.7075
20
-68.102
11
45.7075
21
-69.002
0
LINE
8
Black
10
50.6509
20
-68.1642
11
49.9331
21
-68.1642
0
LINE
8
Black
10
49.9331
20
-68.1642
11
49.9331
21
-67.4464
0
LINE
8
Black
10
49.9331
20
-67.4464
11
50.6509
21
-67.4464
0
LINE
8
Black
10
50.6509
20
-67.4464
11
50.6509
21
-68.1642
0
LINE
8
Black
10
38.5053
20
-67.3546
11
38.2986
21
-67.8535
0
LINE
8
Black
10
38.2986
20
-67.8535
11
37.8829
21
-67.6813
0
LINE
8
Black
10
37.8829
20
-67.6813
11
38.0895
21
-67.1824
0
LINE
8
Black
10
38.0895
20
-67.1824
11
38.5053
21
-67.3546
0
LINE
8
Black
10
53.3906
20
-67.3216
11
52.6839
21
-67.6143
0
LINE
8
Black
10
52.6839
20
-67.6143
11
52.3394
21
-66.7828
0
LINE
8
Black
10
52.3394
20
-66.7828
11
53.0462
21
-66.4901
0
LINE
8
Black
10
53.0462
20
-66.4901
11
53.3906
21
-67.3216
0
LINE
8
Black
10
36.5605
20
-66.7828
11
36.2161
21
-67.6143
0
LINE
8
Black
10
36.2161
20
-67.6143
11
35.5094
21
-67.3216
0
LINE
8
Black
10
35.5094
20
-67.3216
11
35.8538
21
-66.4901
0
LINE
8
Black
10
35.8538
20
-66.4901
11
36.5605
21
-66.7828
0
LINE
8
Black
10
34.9438
20
-66.1131
11
34.5993
21
-66.9446
0
LINE
8
Black
10
34.5993
20
-66.9446
11
33.8926
21
-66.6519
0
LINE
8
Black
10
33.8926
20
-66.6519
11
34.237
21
-65.8204
0
LINE
8
Black
10
34.237
20
-65.8204
11
34.9438
21
-66.1131
0
LINE
8
Black
10
55.0074
20
-66.6519
11
54.3007
21
-66.9446
0
LINE
8
Black
10
54.3007
20
-66.9446
11
53.9562
21
-66.1131
0
LINE
8
Black
10
53.9562
20
-66.1131
11
54.663
21
-65.8204
0
LINE
8
Black
10
54.663
20
-65.8204
11
55.0074
21
-66.6519
0
LINE
8
Black
10
38.9262
20
-66.3383
11
38.7196
21
-66.8372
0
LINE
8
Black
10
38.7196
20
-66.8372
11
38.3038
21
-66.665
0
LINE
8
Black
10
38.3038
20
-66.665
11
38.5105
21
-66.1661
0
LINE
8
Black
10
38.5105
20
-66.1661
11
38.9262
21
-66.3383
0
LINE
8
Black
10
50.6509
20
-66.6656
11
49.9331
21
-66.6656
0
LINE
8
Black
10
49.9331
20
-66.6656
11
49.9331
21
-65.9478
0
LINE
8
Black
10
49.9331
20
-65.9478
11
50.6509
21
-65.9478
0
LINE
8
Black
10
50.6509
20
-65.9478
11
50.6509
21
-66.6656
0
LINE
8
Black
10
42.2484
20
-65.3457
11
42.377
21
-65.42
0
LINE
8
Black
10
42.377
20
-65.42
11
42.4724
21
-65.5337
0
LINE
8
Black
10
42.4724
20
-65.5337
11
42.5232
21
-65.6732
0
LINE
8
Black
10
42.5232
20
-65.6732
11
42.5232
21
-65.8217
0
LINE
8
Black
10
42.5232
20
-65.8217
11
42.4724
21
-65.9612
0
LINE
8
Black
10
42.4724
20
-65.9612
11
42.377
21
-66.0749
0
LINE
8
Black
10
42.377
20
-66.0749
11
42.2484
21
-66.1492
0
LINE
8
Black
10
42.2484
20
-66.1492
11
42.1022
21
-66.175
0
LINE
8
Black
10
42.1022
20
-66.175
11
41.7978
21
-66.175
0
LINE
8
Black
10
41.7978
20
-66.175
11
41.6516
21
-66.1492
0
LINE
8
Black
10
41.6516
20
-66.1492
11
41.523
21
-66.0749
0
LINE
8
Black
10
41.523
20
-66.0749
11
41.4276
21
-65.9612
0
LINE
8
Black
10
41.4276
20
-65.9612
11
41.3768
21
-65.8217
0
LINE
8
Black
10
41.3768
20
-65.8217
11
41.3768
21
-65.6732
0
LINE
8
Black
10
41.3768
20
-65.6732
11
41.4276
21
-65.5337
0
LINE
8
Black
10
41.4276
20
-65.5337
11
41.523
21
-65.42
0
LINE
8
Black
10
41.523
20
-65.42
11
41.6516
21
-65.3457
0
LINE
8
Black
10
41.6516
20
-65.3457
11
41.7978
21
-65.32
0
LINE
8
Black
10
41.7978
20
-65.32
11
42.1022
21
-65.32
0
LINE
8
Black
10
42.1022
20
-65.32
11
42.2484
21
-65.3457
0
LINE
8
Black
10
47.2484
20
-65.3457
11
47.377
21
-65.42
0
LINE
8
Black
10
47.377
20
-65.42
11
47.4724
21
-65.5337
0
LINE
8
Black
10
47.4724
20
-65.5337
11
47.5232
21
-65.6732
0
LINE
8
Black
10
47.5232
20
-65.6732
11
47.5232
21
-65.8217
0
LINE
8
Black
10
47.5232
20
-65.8217
11
47.4724
21
-65.9612
0
LINE
8
Black
10
47.4724
20
-65.9612
11
47.377
21
-66.0749
0
LINE
8
Black
10
47.377
20
-66.0749
11
47.2484
21
-66.1492
0
LINE
8
Black
10
47.2484
20
-66.1492
11
47.1022
21
-66.175
0
LINE
8
Black
10
47.1022
20
-66.175
11
46.7978
21
-66.175
0
LINE
8
Black
10
46.7978
20
-66.175
11
46.6516
21
-66.1492
0
LINE
8
Black
10
46.6516
20
-66.1492
11
46.523
21
-66.0749
0
LINE
8
Black
10
46.523
20
-66.0749
11
46.4276
21
-65.9612
0
LINE
8
Black
10
46.4276
20
-65.9612
11
46.3768
21
-65.8217
0
LINE
8
Black
10
46.3768
20
-65.8217
11
46.3768
21
-65.6732
0
LINE
8
Black
10
46.3768
20
-65.6732
11
46.4276
21
-65.5337
0
LINE
8
Black
10
46.4276
20
-65.5337
11
46.523
21
-65.42
0
LINE
8
Black
10
46.523
20
-65.42
11
46.6516
21
-65.3457
0
LINE
8
Black
10
46.6516
20
-65.3457
11
46.7978
21
-65.32
0
LINE
8
Black
10
46.7978
20
-65.32
11
47.1022
21
-65.32
0
LINE
8
Black
10
47.1022
20
-65.32
11
47.2484
21
-65.3457
0
LINE
8
Black
10
56.6491
20
-65.3484
11
56.2333
21
-65.5206
0
LINE
8
Black
10
56.2333
20
-65.5206
11
56.0267
21
-65.0217
0
LINE
8
Black
10
56.0267
20
-65.0217
11
56.4424
21
-64.8495
0
LINE
8
Black
10
56.4424
20
-64.8495
11
56.6491
21
-65.3484
0
LINE
8
Black
10
45.7075
20
-65.502
11
44.9425
21
-65.502
0
LINE
8
Black
10
44.9425
20
-65.502
11
44.9425
21
-64.602
0
LINE
8
Black
10
44.9425
20
-64.602
11
45.7075
21
-64.602
0
LINE
8
Black
10
45.7075
20
-64.602
11
45.7075
21
-65.502
0
LINE
8
Black
10
43.9575
20
-65.502
11
43.1925
21
-65.502
0
LINE
8
Black
10
43.1925
20
-65.502
11
43.1925
21
-64.602
0
LINE
8
Black
10
43.1925
20
-64.602
11
43.9575
21
-64.602
0
LINE
8
Black
10
43.9575
20
-64.602
11
43.9575
21
-65.502
0
LINE
8
Black
10
56.2281
20
-64.3321
11
55.8124
21
-64.5044
0
LINE
8
Black
10
55.8124
20
-64.5044
11
55.6057
21
-64.0055
0
LINE
8
Black
10
55.6057
20
-64.0055
11
56.0215
21
-63.8332
0
LINE
8
Black
10
56.0215
20
-63.8332
11
56.2281
21
-64.3321
0
LINE
8
Black
10
37.8999
20
-63.5492
11
37.5555
21
-64.3807
0
LINE
8
Black
10
37.5555
20
-64.3807
11
36.8488
21
-64.088
0
LINE
8
Black
10
36.8488
20
-64.088
11
37.1932
21
-63.2565
0
LINE
8
Black
10
37.1932
20
-63.2565
11
37.8999
21
-63.5492
0
LINE
8
Black
10
52.0512
20
-64.088
11
51.3445
21
-64.3807
0
LINE
8
Black
10
51.3445
20
-64.3807
11
51.0001
21
-63.5492
0
LINE
8
Black
10
51.0001
20
-63.5492
11
51.7068
21
-63.2565
0
LINE
8
Black
10
51.7068
20
-63.2565
11
52.0512
21
-64.088
0
LINE
8
Black
10
30.1926
20
-63.3361
11
29.8108
21
-63.718
0
LINE
8
Black
10
29.8108
20
-63.718
11
29.4926
21
-63.3998
0
LINE
8
Black
10
29.4926
20
-63.3998
11
29.8744
21
-63.0179
0
LINE
8
Black
10
29.8744
20
-63.0179
11
30.1926
21
-63.3361
0
LINE
8
Black
10
36.2832
20
-62.8795
11
35.9387
21
-63.711
0
LINE
8
Black
10
35.9387
20
-63.711
11
35.232
21
-63.4183
0
LINE
8
Black
10
35.232
20
-63.4183
11
35.5764
21
-62.5868
0
LINE
8
Black
10
35.5764
20
-62.5868
11
36.2832
21
-62.8795
0
LINE
8
Black
10
53.668
20
-63.4183
11
52.9613
21
-63.711
0
LINE
8
Black
10
52.9613
20
-63.711
11
52.6168
21
-62.8795
0
LINE
8
Black
10
52.6168
20
-62.8795
11
53.3236
21
-62.5868
0
LINE
8
Black
10
53.3236
20
-62.5868
11
53.668
21
-63.4183
0
LINE
8
Black
10
46.125
20
-63.205
11
45.315
21
-63.205
0
LINE
8
Black
10
45.315
20
-63.205
11
45.315
21
-62.755
0
LINE
8
Black
10
45.315
20
-62.755
11
46.125
21
-62.755
0
LINE
8
Black
10
46.125
20
-62.755
11
46.125
21
-63.205
0
LINE
8
Black
10
42.858
20
-62.963
11
42.318
21
-62.963
0
LINE
8
Black
10
42.318
20
-62.963
11
42.318
21
-62.513
0
LINE
8
Black
10
42.318
20
-62.513
11
42.858
21
-62.513
0
LINE
8
Black
10
42.858
20
-62.513
11
42.858
21
-62.963
0
LINE
8
Black
10
43.958
20
-62.963
11
43.418
21
-62.963
0
LINE
8
Black
10
43.418
20
-62.963
11
43.418
21
-62.513
0
LINE
8
Black
10
43.418
20
-62.513
11
43.958
21
-62.513
0
LINE
8
Black
10
43.958
20
-62.513
11
43.958
21
-62.963
0
LINE
8
Black
10
30.9704
20
-62.5583
11
30.5886
21
-62.9401
0
LINE
8
Black
10
30.5886
20
-62.9401
11
30.2704
21
-62.6219
0
LINE
8
Black
10
30.2704
20
-62.6219
11
30.6522
21
-62.2401
0
LINE
8
Black
10
30.6522
20
-62.2401
11
30.9704
21
-62.5583
0
LINE
8
Black
10
61.4626
20
-62.1591
11
60.9217
21
-62.7001
0
LINE
8
Black
10
60.9217
20
-62.7001
11
60.2853
21
-62.0637
0
LINE
8
Black
10
60.2853
20
-62.0637
11
60.8262
21
-61.5227
0
LINE
8
Black
10
60.8262
20
-61.5227
11
61.4626
21
-62.1591
0
LINE
8
Black
10
28.6147
20
-62.0637
11
27.9783
21
-62.7001
0
LINE
8
Black
10
27.9783
20
-62.7001
11
27.4374
21
-62.1591
0
LINE
8
Black
10
27.4374
20
-62.1591
11
28.0738
21
-61.5227
0
LINE
8
Black
10
28.0738
20
-61.5227
11
28.6147
21
-62.0637
0
LINE
8
Black
10
46.125
20
-61.705
11
45.315
21
-61.705
0
LINE
8
Black
10
45.315
20
-61.705
11
45.315
21
-61.255
0
LINE
8
Black
10
45.315
20
-61.255
11
46.125
21
-61.255
0
LINE
8
Black
10
46.125
20
-61.255
11
46.125
21
-61.705
0
LINE
8
Black
10
27.3773
20
-60.8262
11
26.7409
21
-61.4626
0
LINE
8
Black
10
26.7409
20
-61.4626
11
26.1999
21
-60.9217
0
LINE
8
Black
10
26.1999
20
-60.9217
11
26.8363
21
-60.2853
0
LINE
8
Black
10
26.8363
20
-60.2853
11
27.3773
21
-60.8262
0
LINE
8
Black
10
62.7001
20
-60.9217
11
62.1591
21
-61.4626
0
LINE
8
Black
10
62.1591
20
-61.4626
11
61.5227
21
-60.8262
0
LINE
8
Black
10
61.5227
20
-60.8262
11
62.0637
21
-60.2853
0
LINE
8
Black
10
62.0637
20
-60.2853
11
62.7001
21
-60.9217
0
LINE
8
Black
10
58.9878
20
-59.6843
11
58.4468
21
-60.2252
0
LINE
8
Black
10
58.4468
20
-60.2252
11
57.8104
21
-59.5888
0
LINE
8
Black
10
57.8104
20
-59.5888
11
58.3514
21
-59.0479
0
LINE
8
Black
10
58.3514
20
-59.0479
11
58.9878
21
-59.6843
0
LINE
8
Black
10
31.0896
20
-59.5888
11
30.4532
21
-60.2252
0
LINE
8
Black
10
30.4532
20
-60.2252
11
29.9122
21
-59.6843
0
LINE
8
Black
10
29.9122
20
-59.6843
11
30.5486
21
-59.0479
0
LINE
8
Black
10
30.5486
20
-59.0479
11
31.0896
21
-59.5888
0
LINE
8
Black
10
34.518
20
-60.212
11
33.618
21
-60.212
0
LINE
8
Black
10
33.618
20
-60.212
11
33.618
21
-57.332
0
LINE
8
Black
10
33.618
20
-57.332
11
34.518
21
-57.332
0
LINE
8
Black
10
34.518
20
-57.332
11
34.518
21
-60.212
0
LINE
8
Black
10
38.518
20
-60.212
11
37.618
21
-60.212
0
LINE
8
Black
10
37.618
20
-60.212
11
37.618
21
-57.332
0
LINE
8
Black
10
37.618
20
-57.332
11
38.518
21
-57.332
0
LINE
8
Black
10
38.518
20
-57.332
11
38.518
21
-60.212
0
LINE
8
Black
10
46.964
20
-59.704
11
46.064
21
-59.704
0
LINE
8
Black
10
46.064
20
-59.704
11
46.064
21
-56.824
0
LINE
8
Black
10
46.064
20
-56.824
11
46.964
21
-56.824
0
LINE
8
Black
10
46.964
20
-56.824
11
46.964
21
-59.704
0
LINE
8
Black
10
50.964
20
-59.704
11
50.064
21
-59.704
0
LINE
8
Black
10
50.064
20
-59.704
11
50.064
21
-56.824
0
LINE
8
Black
10
50.064
20
-56.824
11
50.964
21
-56.824
0
LINE
8
Black
10
50.964
20
-56.824
11
50.964
21
-59.704
0
LINE
8
Black
10
63.718
20
-59.0892
11
63.3998
21
-59.4074
0
LINE
8
Black
10
63.3998
20
-59.4074
11
63.0179
21
-59.0256
0
LINE
8
Black
10
63.0179
20
-59.0256
11
63.3361
21
-58.7074
0
LINE
8
Black
10
63.3361
20
-58.7074
11
63.718
21
-59.0892
0
LINE
8
Black
10
60.2252
20
-58.4468
11
59.6843
21
-58.9878
0
LINE
8
Black
10
59.6843
20
-58.9878
11
59.0479
21
-58.3514
0
LINE
8
Black
10
59.0479
20
-58.3514
11
59.5888
21
-57.8104
0
LINE
8
Black
10
59.5888
20
-57.8104
11
60.2252
21
-58.4468
0
LINE
8
Black
10
29.8521
20
-58.3514
11
29.2157
21
-58.9878
0
LINE
8
Black
10
29.2157
20
-58.9878
11
28.6748
21
-58.4468
0
LINE
8
Black
10
28.6748
20
-58.4468
11
29.3112
21
-57.8104
0
LINE
8
Black
10
29.3112
20
-57.8104
11
29.8521
21
-58.3514
0
LINE
8
Black
10
62.9401
20
-58.3114
11
62.6219
21
-58.6296
0
LINE
8
Black
10
62.6219
20
-58.6296
11
62.2401
21
-58.2478
0
LINE
8
Black
10
62.2401
20
-58.2478
11
62.5583
21
-57.9296
0
LINE
8
Black
10
62.5583
20
-57.9296
11
62.9401
21
-58.3114
0
LINE
8
Black
10
57.462
20
-57.121
11
56.922
21
-57.121
0
LINE
8
Black
10
56.922
20
-57.121
11
56.922
21
-56.671
0
LINE
8
Black
10
56.922
20
-56.671
11
57.462
21
-56.671
0
LINE
8
Black
10
57.462
20
-56.671
11
57.462
21
-57.121
0
LINE
8
Black
10
56.362
20
-57.121
11
55.822
21
-57.121
0
LINE
8
Black
10
55.822
20
-57.121
11
55.822
21
-56.671
0
LINE
8
Black
10
55.822
20
-56.671
11
56.362
21
-56.671
0
LINE
8
Black
10
56.362
20
-56.671
11
56.362
21
-57.121
0
LINE
8
Black
10
41.5069
20
-56.9882
11
40.7891
21
-56.9882
0
LINE
8
Black
10
40.7891
20
-56.9882
11
40.7891
21
-56.2704
0
LINE
8
Black
10
40.7891
20
-56.2704
11
41.5069
21
-56.2704
0
LINE
8
Black
10
41.5069
20
-56.2704
11
41.5069
21
-56.9882
0
LINE
8
Black
10
24.0505
20
-56.4424
11
23.5516
21
-56.6491
0
LINE
8
Black
10
23.5516
20
-56.6491
11
23.3794
21
-56.2333
0
LINE
8
Black
10
23.3794
20
-56.2333
11
23.8783
21
-56.0267
0
LINE
8
Black
10
23.8783
20
-56.0267
11
24.0505
21
-56.4424
0
LINE
8
Black
10
25.0667
20
-56.0215
11
24.5679
21
-56.2281
0
LINE
8
Black
10
24.5679
20
-56.2281
11
24.3956
21
-55.8124
0
LINE
8
Black
10
24.3956
20
-55.8124
11
24.8945
21
-55.6057
0
LINE
8
Black
10
24.8945
20
-55.6057
11
25.0667
21
-56.0215
0
LINE
8
Black
10
31.801
20
-55.704
11
28.651
21
-55.704
0
LINE
8
Black
10
28.651
20
-55.704
11
28.651
21
-54.174
0
LINE
8
Black
10
28.651
20
-54.174
11
31.801
21
-54.174
0
LINE
8
Black
10
31.801
20
-54.174
11
31.801
21
-55.704
0
LINE
8
Black
10
41.5069
20
-55.4896
11
40.7891
21
-55.4896
0
LINE
8
Black
10
40.7891
20
-55.4896
11
40.7891
21
-54.7718
0
LINE
8
Black
10
40.7891
20
-54.7718
11
41.5069
21
-54.7718
0
LINE
8
Black
10
41.5069
20
-54.7718
11
41.5069
21
-55.4896
0
LINE
8
Black
10
57.965
20
-55.3445
11
57.011
21
-55.3445
0
LINE
8
Black
10
57.011
20
-55.3445
11
57.011
21
-54.7595
0
LINE
8
Black
10
57.011
20
-54.7595
11
57.965
21
-54.7595
0
LINE
8
Black
10
57.965
20
-54.7595
11
57.965
21
-55.3445
0
LINE
8
Black
10
55.765
20
-55.3445
11
54.811
21
-55.3445
0
LINE
8
Black
10
54.811
20
-55.3445
11
54.811
21
-54.7595
0
LINE
8
Black
10
54.811
20
-54.7595
11
55.765
21
-54.7595
0
LINE
8
Black
10
55.765
20
-54.7595
11
55.765
21
-55.3445
0
LINE
8
Black
10
23.0796
20
-54.663
11
22.2481
21
-55.0074
0
LINE
8
Black
10
22.2481
20
-55.0074
11
21.9554
21
-54.3007
0
LINE
8
Black
10
21.9554
20
-54.3007
11
22.7869
21
-53.9562
0
LINE
8
Black
10
22.7869
20
-53.9562
11
23.0796
21
-54.663
0
LINE
8
Black
10
66.9446
20
-54.3007
11
66.6519
21
-55.0074
0
LINE
8
Black
10
66.6519
20
-55.0074
11
65.8204
21
-54.663
0
LINE
8
Black
10
65.8204
20
-54.663
11
66.1131
21
-53.9562
0
LINE
8
Black
10
66.1131
20
-53.9562
11
66.9446
21
-54.3007
0
LINE
8
Black
10
57.965
20
-54.3945
11
57.011
21
-54.3945
0
LINE
8
Black
10
57.011
20
-54.3945
11
57.011
21
-53.8095
0
LINE
8
Black
10
57.011
20
-53.8095
11
57.965
21
-53.8095
0
LINE
8
Black
10
57.965
20
-53.8095
11
57.965
21
-54.3945
0
LINE
8
Black
10
26.3132
20
-53.3236
11
25.4817
21
-53.668
0
LINE
8
Black
10
25.4817
20
-53.668
11
25.189
21
-52.9613
0
LINE
8
Black
10
25.189
20
-52.9613
11
26.0205
21
-52.6168
0
LINE
8
Black
10
26.0205
20
-52.6168
11
26.3132
21
-53.3236
0
LINE
8
Black
10
63.711
20
-52.9613
11
63.4183
21
-53.668
0
LINE
8
Black
10
63.4183
20
-53.668
11
62.5868
21
-53.3236
0
LINE
8
Black
10
62.5868
20
-53.3236
11
62.8795
21
-52.6168
0
LINE
8
Black
10
62.8795
20
-52.6168
11
63.711
21
-52.9613
0
LINE
8
Black
10
55.765
20
-53.4445
11
54.811
21
-53.4445
0
LINE
8
Black
10
54.811
20
-53.4445
11
54.811
21
-52.8595
0
LINE
8
Black
10
54.811
20
-52.8595
11
55.765
21
-52.8595
0
LINE
8
Black
10
55.765
20
-52.8595
11
55.765
21
-53.4445
0
LINE
8
Black
10
57.965
20
-53.4445
11
57.011
21
-53.4445
0
LINE
8
Black
10
57.011
20
-53.4445
11
57.011
21
-52.8595
0
LINE
8
Black
10
57.011
20
-52.8595
11
57.965
21
-52.8595
0
LINE
8
Black
10
57.965
20
-52.8595
11
57.965
21
-53.4445
0
LINE
8
Black
10
34.518
20
-53.412
11
33.618
21
-53.412
0
LINE
8
Black
10
33.618
20
-53.412
11
33.618
21
-50.532
0
LINE
8
Black
10
33.618
20
-50.532
11
34.518
21
-50.532
0
LINE
8
Black
10
34.518
20
-50.532
11
34.518
21
-53.412
0
LINE
8
Black
10
38.518
20
-53.412
11
37.618
21
-53.412
0
LINE
8
Black
10
37.618
20
-53.412
11
37.618
21
-50.532
0
LINE
8
Black
10
37.618
20
-50.532
11
38.518
21
-50.532
0
LINE
8
Black
10
38.518
20
-50.532
11
38.518
21
-53.412
0
LINE
8
Black
10
67.6143
20
-52.6839
11
67.3216
21
-53.3906
0
LINE
8
Black
10
67.3216
20
-53.3906
11
66.4901
21
-53.0462
0
LINE
8
Black
10
66.4901
20
-53.0462
11
66.7828
21
-52.3394
0
LINE
8
Black
10
66.7828
20
-52.3394
11
67.6143
21
-52.6839
0
LINE
8
Black
10
22.4099
20
-53.0462
11
21.5784
21
-53.3906
0
LINE
8
Black
10
21.5784
20
-53.3906
11
21.2857
21
-52.6839
0
LINE
8
Black
10
21.2857
20
-52.6839
11
22.1172
21
-52.3394
0
LINE
8
Black
10
22.1172
20
-52.3394
11
22.4099
21
-53.0462
0
LINE
8
Black
10
50.964
20
-52.904
11
50.064
21
-52.904
0
LINE
8
Black
10
50.064
20
-52.904
11
50.064
21
-50.024
0
LINE
8
Black
10
50.064
20
-50.024
11
50.964
21
-50.024
0
LINE
8
Black
10
50.964
20
-50.024
11
50.964
21
-52.904
0
LINE
8
Black
10
46.964
20
-52.904
11
46.064
21
-52.904
0
LINE
8
Black
10
46.064
20
-52.904
11
46.064
21
-50.024
0
LINE
8
Black
10
46.064
20
-50.024
11
46.964
21
-50.024
0
LINE
8
Black
10
46.964
20
-50.024
11
46.964
21
-52.904
0
LINE
8
Black
10
42.569
20
-52.283
11
41.759
21
-52.283
0
LINE
8
Black
10
41.759
20
-52.283
11
41.759
21
-51.833
0
LINE
8
Black
10
41.759
20
-51.833
11
42.569
21
-51.833
0
LINE
8
Black
10
42.569
20
-51.833
11
42.569
21
-52.283
0
LINE
8
Black
10
64.3807
20
-51.3445
11
64.088
21
-52.0512
0
LINE
8
Black
10
64.088
20
-52.0512
11
63.2565
21
-51.7068
0
LINE
8
Black
10
63.2565
20
-51.7068
11
63.5492
21
-51.0001
0
LINE
8
Black
10
63.5492
20
-51.0001
11
64.3807
21
-51.3445
0
LINE
8
Black
10
25.6435
20
-51.7068
11
24.812
21
-52.0512
0
LINE
8
Black
10
24.812
20
-52.0512
11
24.5193
21
-51.3445
0
LINE
8
Black
10
24.5193
20
-51.3445
11
25.3508
21
-51.0001
0
LINE
8
Black
10
25.3508
20
-51.0001
11
25.6435
21
-51.7068
0
LINE
8
Black
10
67.8535
20
-50.6014
11
67.6813
21
-51.0171
0
LINE
8
Black
10
67.6813
20
-51.0171
11
67.1824
21
-50.8105
0
LINE
8
Black
10
67.1824
20
-50.8105
11
67.3546
21
-50.3947
0
LINE
8
Black
10
67.3546
20
-50.3947
11
67.8535
21
-50.6014
0
LINE
8
Black
10
42.569
20
-50.783
11
41.759
21
-50.783
0
LINE
8
Black
10
41.759
20
-50.783
11
41.759
21
-50.333
0
LINE
8
Black
10
41.759
20
-50.333
11
42.569
21
-50.333
0
LINE
8
Black
10
42.569
20
-50.333
11
42.569
21
-50.783
0
LINE
8
Black
10
66.8372
20
-50.1804
11
66.665
21
-50.5962
0
LINE
8
Black
10
66.665
20
-50.5962
11
66.1661
21
-50.3895
0
LINE
8
Black
10
66.1661
20
-50.3895
11
66.3383
21
-49.9738
0
LINE
8
Black
10
66.3383
20
-49.9738
11
66.8372
21
-50.1804
0
LINE
8
Black
10
31.801
20
-50.474
11
28.651
21
-50.474
0
LINE
8
Black
10
28.651
20
-50.474
11
28.651
21
-48.944
0
LINE
8
Black
10
28.651
20
-48.944
11
31.801
21
-48.944
0
LINE
8
Black
10
31.801
20
-48.944
11
31.801
21
-50.474
0
LINE
8
Black
10
50.91
20
-48.919
11
50.46
21
-48.919
0
LINE
8
Black
10
50.46
20
-48.919
11
50.46
21
-48.109
0
LINE
8
Black
10
50.46
20
-48.109
11
50.91
21
-48.109
0
LINE
8
Black
10
50.91
20
-48.109
11
50.91
21
-48.919
0
LINE
8
Black
10
52.41
20
-48.919
11
51.96
21
-48.919
0
LINE
8
Black
10
51.96
20
-48.919
11
51.96
21
-48.109
0
LINE
8
Black
10
51.96
20
-48.109
11
52.41
21
-48.109
0
LINE
8
Black
10
52.41
20
-48.109
11
52.41
21
-48.919
0
LINE
8
Black
10
47.9966
20
-48.8729
11
47.2788
21
-48.8729
0
LINE
8
Black
10
47.2788
20
-48.8729
11
47.2788
21
-48.1551
0
LINE
8
Black
10
47.2788
20
-48.1551
11
47.9966
21
-48.1551
0
LINE
8
Black
10
47.9966
20
-48.1551
11
47.9966
21
-48.8729
0
LINE
8
Black
10
49.4952
20
-48.8729
11
48.7774
21
-48.8729
0
LINE
8
Black
10
48.7774
20
-48.8729
11
48.7774
21
-48.1551
0
LINE
8
Black
10
48.7774
20
-48.1551
11
49.4952
21
-48.1551
0
LINE
8
Black
10
49.4952
20
-48.1551
11
49.4952
21
-48.8729
0
LINE
8
Black
10
43.925
20
-48.826
11
43.475
21
-48.826
0
LINE
8
Black
10
43.475
20
-48.826
11
43.475
21
-48.286
0
LINE
8
Black
10
43.475
20
-48.286
11
43.925
21
-48.286
0
LINE
8
Black
10
43.925
20
-48.286
11
43.925
21
-48.826
0
LINE
8
Black
10
43.925
20
-47.726
11
43.475
21
-47.726
0
LINE
8
Black
10
43.475
20
-47.726
11
43.475
21
-47.186
0
LINE
8
Black
10
43.475
20
-47.186
11
43.925
21
-47.186
0
LINE
8
Black
10
43.925
20
-47.186
11
43.925
21
-47.726
0
LINE
8
Black
10
21.014
20
-47.723
11
20.474
21
-47.723
0
LINE
8
Black
10
20.474
20
-47.723
11
20.474
21
-47.273
0
LINE
8
Black
10
20.474
20
-47.273
11
21.014
21
-47.273
0
LINE
8
Black
10
21.014
20
-47.273
11
21.014
21
-47.723
0
LINE
8
Black
10
22.114
20
-47.723
11
21.574
21
-47.723
0
LINE
8
Black
10
21.574
20
-47.723
11
21.574
21
-47.273
0
LINE
8
Black
10
21.574
20
-47.273
11
22.114
21
-47.273
0
LINE
8
Black
10
22.114
20
-47.273
11
22.114
21
-47.723
0
LINE
8
Black
10
50.443
20
-47.203
11
49.633
21
-47.203
0
LINE
8
Black
10
49.633
20
-47.203
11
49.633
21
-46.753
0
LINE
8
Black
10
49.633
20
-46.753
11
50.443
21
-46.753
0
LINE
8
Black
10
50.443
20
-46.753
11
50.443
21
-47.203
0
LINE
8
Black
10
54.2345
20
-47.165
11
54.0095
21
-47.165
0
LINE
8
Black
10
54.0095
20
-47.165
11
54.0095
21
-46.535
0
LINE
8
Black
10
54.0095
20
-46.535
11
54.2345
21
-46.535
0
LINE
8
Black
10
54.2345
20
-46.535
11
54.2345
21
-47.165
0
LINE
8
Black
10
56.7345
20
-47.165
11
56.5095
21
-47.165
0
LINE
8
Black
10
56.5095
20
-47.165
11
56.5095
21
-46.535
0
LINE
8
Black
10
56.5095
20
-46.535
11
56.7345
21
-46.535
0
LINE
8
Black
10
56.7345
20
-46.535
11
56.7345
21
-47.165
0
LINE
8
Black
10
55.2345
20
-47.165
11
55.0095
21
-47.165
0
LINE
8
Black
10
55.0095
20
-47.165
11
55.0095
21
-46.535
0
LINE
8
Black
10
55.0095
20
-46.535
11
55.2345
21
-46.535
0
LINE
8
Black
10
55.2345
20
-46.535
11
55.2345
21
-47.165
0
LINE
8
Black
10
54.7345
20
-47.165
11
54.5095
21
-47.165
0
LINE
8
Black
10
54.5095
20
-47.165
11
54.5095
21
-46.535
0
LINE
8
Black
10
54.5095
20
-46.535
11
54.7345
21
-46.535
0
LINE
8
Black
10
54.7345
20
-46.535
11
54.7345
21
-47.165
0
LINE
8
Black
10
53.7345
20
-47.165
11
53.5095
21
-47.165
0
LINE
8
Black
10
53.5095
20
-47.165
11
53.5095
21
-46.535
0
LINE
8
Black
10
53.5095
20
-46.535
11
53.7345
21
-46.535
0
LINE
8
Black
10
53.7345
20
-46.535
11
53.7345
21
-47.165
0
LINE
8
Black
10
57.2345
20
-47.165
11
57.0095
21
-47.165
0
LINE
8
Black
10
57.0095
20
-47.165
11
57.0095
21
-46.535
0
LINE
8
Black
10
57.0095
20
-46.535
11
57.2345
21
-46.535
0
LINE
8
Black
10
57.2345
20
-46.535
11
57.2345
21
-47.165
0
LINE
8
Black
10
56.2345
20
-47.165
11
56.0095
21
-47.165
0
LINE
8
Black
10
56.0095
20
-47.165
11
56.0095
21
-46.535
0
LINE
8
Black
10
56.0095
20
-46.535
11
56.2345
21
-46.535
0
LINE
8
Black
10
56.2345
20
-46.535
11
56.2345
21
-47.165
0
LINE
8
Black
10
55.7345
20
-47.165
11
55.5095
21
-47.165
0
LINE
8
Black
10
55.5095
20
-47.165
11
55.5095
21
-46.535
0
LINE
8
Black
10
55.5095
20
-46.535
11
55.7345
21
-46.535
0
LINE
8
Black
10
55.7345
20
-46.535
11
55.7345
21
-47.165
0
LINE
8
Black
10
60.7895
20
-46.576
11
60.1145
21
-46.576
0
LINE
8
Black
10
60.1145
20
-46.576
11
60.1145
21
-45.856
0
LINE
8
Black
10
60.1145
20
-45.856
11
60.7895
21
-45.856
0
LINE
8
Black
10
60.7895
20
-45.856
11
60.7895
21
-46.576
0
LINE
8
Black
10
53.287
20
-46.3125
11
52.657
21
-46.3125
0
LINE
8
Black
10
52.657
20
-46.3125
11
52.657
21
-46.0875
0
LINE
8
Black
10
52.657
20
-46.0875
11
53.287
21
-46.0875
0
LINE
8
Black
10
53.287
20
-46.0875
11
53.287
21
-46.3125
0
LINE
8
Black
10
58.087
20
-46.3125
11
57.457
21
-46.3125
0
LINE
8
Black
10
57.457
20
-46.3125
11
57.457
21
-46.0875
0
LINE
8
Black
10
57.457
20
-46.0875
11
58.087
21
-46.0875
0
LINE
8
Black
10
58.087
20
-46.0875
11
58.087
21
-46.3125
0
LINE
8
Black
10
46.3125
20
-46.2263
11
46.0875
21
-46.2263
0
LINE
8
Black
10
46.0875
20
-46.2263
11
46.0875
21
-45.7987
0
LINE
8
Black
10
46.0875
20
-45.7987
11
46.3125
21
-45.7987
0
LINE
8
Black
10
46.3125
20
-45.7987
11
46.3125
21
-46.2263
0
LINE
8
Black
10
45.8125
20
-46.2263
11
45.5875
21
-46.2263
0
LINE
8
Black
10
45.5875
20
-46.2263
11
45.5875
21
-45.7987
0
LINE
8
Black
10
45.5875
20
-45.7987
11
45.8125
21
-45.7987
0
LINE
8
Black
10
45.8125
20
-45.7987
11
45.8125
21
-46.2263
0
LINE
8
Black
10
45.3125
20
-46.2263
11
45.0875
21
-46.2263
0
LINE
8
Black
10
45.0875
20
-46.2263
11
45.0875
21
-45.7987
0
LINE
8
Black
10
45.0875
20
-45.7987
11
45.3125
21
-45.7987
0
LINE
8
Black
10
45.3125
20
-45.7987
11
45.3125
21
-46.2263
0
LINE
8
Black
10
44.8125
20
-46.2263
11
44.5875
21
-46.2263
0
LINE
8
Black
10
44.5875
20
-46.2263
11
44.5875
21
-45.7987
0
LINE
8
Black
10
44.5875
20
-45.7987
11
44.8125
21
-45.7987
0
LINE
8
Black
10
44.8125
20
-45.7987
11
44.8125
21
-46.2263
0
LINE
8
Black
10
44.3125
20
-46.2263
11
44.0875
21
-46.2263
0
LINE
8
Black
10
44.0875
20
-46.2263
11
44.0875
21
-45.7987
0
LINE
8
Black
10
44.0875
20
-45.7987
11
44.3125
21
-45.7987
0
LINE
8
Black
10
44.3125
20
-45.7987
11
44.3125
21
-46.2263
0
LINE
8
Black
10
43.8125
20
-46.2263
11
43.5875
21
-46.2263
0
LINE
8
Black
10
43.5875
20
-46.2263
11
43.5875
21
-45.7987
0
LINE
8
Black
10
43.5875
20
-45.7987
11
43.8125
21
-45.7987
0
LINE
8
Black
10
43.8125
20
-45.7987
11
43.8125
21
-46.2263
0
LINE
8
Black
10
43.3125
20
-46.2263
11
43.0875
21
-46.2263
0
LINE
8
Black
10
43.0875
20
-46.2263
11
43.0875
21
-45.7987
0
LINE
8
Black
10
43.0875
20
-45.7987
11
43.3125
21
-45.7987
0
LINE
8
Black
10
43.3125
20
-45.7987
11
43.3125
21
-46.2263
0
LINE
8
Black
10
42.8125
20
-46.2263
11
42.5875
21
-46.2263
0
LINE
8
Black
10
42.5875
20
-46.2263
11
42.5875
21
-45.7987
0
LINE
8
Black
10
42.5875
20
-45.7987
11
42.8125
21
-45.7987
0
LINE
8
Black
10
42.8125
20
-45.7987
11
42.8125
21
-46.2263
0
LINE
8
Black
10
42.3125
20
-46.2263
11
42.0875
21
-46.2263
0
LINE
8
Black
10
42.0875
20
-46.2263
11
42.0875
21
-45.7987
0
LINE
8
Black
10
42.0875
20
-45.7987
11
42.3125
21
-45.7987
0
LINE
8
Black
10
42.3125
20
-45.7987
11
42.3125
21
-46.2263
0
LINE
8
Black
10
46.8125
20
-46.2263
11
46.5875
21
-46.2263
0
LINE
8
Black
10
46.5875
20
-46.2263
11
46.5875
21
-45.7987
0
LINE
8
Black
10
46.5875
20
-45.7987
11
46.8125
21
-45.7987
0
LINE
8
Black
10
46.8125
20
-45.7987
11
46.8125
21
-46.2263
0
LINE
8
Black
10
56.752
20
-45.83
11
55.717
21
-45.83
0
LINE
8
Black
10
55.717
20
-45.83
11
55.717
21
-44.795
0
LINE
8
Black
10
55.717
20
-44.795
11
56.752
21
-44.795
0
LINE
8
Black
10
56.752
20
-44.795
11
56.752
21
-45.83
0
LINE
8
Black
10
55.027
20
-45.83
11
53.992
21
-45.83
0
LINE
8
Black
10
53.992
20
-45.83
11
53.992
21
-44.795
0
LINE
8
Black
10
53.992
20
-44.795
11
55.027
21
-44.795
0
LINE
8
Black
10
55.027
20
-44.795
11
55.027
21
-45.83
0
LINE
8
Black
10
53.287
20
-45.8125
11
52.657
21
-45.8125
0
LINE
8
Black
10
52.657
20
-45.8125
11
52.657
21
-45.5875
0
LINE
8
Black
10
52.657
20
-45.5875
11
53.287
21
-45.5875
0
LINE
8
Black
10
53.287
20
-45.5875
11
53.287
21
-45.8125
0
LINE
8
Black
10
58.087
20
-45.8125
11
57.457
21
-45.8125
0
LINE
8
Black
10
57.457
20
-45.8125
11
57.457
21
-45.5875
0
LINE
8
Black
10
57.457
20
-45.5875
11
58.087
21
-45.5875
0
LINE
8
Black
10
58.087
20
-45.5875
11
58.087
21
-45.8125
0
LINE
8
Black
10
20.798
20
-45.7075
11
19.898
21
-45.7075
0
LINE
8
Black
10
19.898
20
-45.7075
11
19.898
21
-44.9425
0
LINE
8
Black
10
19.898
20
-44.9425
11
20.798
21
-44.9425
0
LINE
8
Black
10
20.798
20
-44.9425
11
20.798
21
-45.7075
0
LINE
8
Black
10
24.298
20
-45.7075
11
23.398
21
-45.7075
0
LINE
8
Black
10
23.398
20
-45.7075
11
23.398
21
-44.9425
0
LINE
8
Black
10
23.398
20
-44.9425
11
24.298
21
-44.9425
0
LINE
8
Black
10
24.298
20
-44.9425
11
24.298
21
-45.7075
0
LINE
8
Black
10
65.502
20
-45.7075
11
64.602
21
-45.7075
0
LINE
8
Black
10
64.602
20
-45.7075
11
64.602
21
-44.9425
0
LINE
8
Black
10
64.602
20
-44.9425
11
65.502
21
-44.9425
0
LINE
8
Black
10
65.502
20
-44.9425
11
65.502
21
-45.7075
0
LINE
8
Black
10
69.002
20
-45.7075
11
68.102
21
-45.7075
0
LINE
8
Black
10
68.102
20
-45.7075
11
68.102
21
-44.9425
0
LINE
8
Black
10
68.102
20
-44.9425
11
69.002
21
-44.9425
0
LINE
8
Black
10
69.002
20
-44.9425
11
69.002
21
-45.7075
0
LINE
8
Black
10
50.443
20
-45.703
11
49.633
21
-45.703
0
LINE
8
Black
10
49.633
20
-45.703
11
49.633
21
-45.253
0
LINE
8
Black
10
49.633
20
-45.253
11
50.443
21
-45.253
0
LINE
8
Black
10
50.443
20
-45.253
11
50.443
21
-45.703
0
LINE
8
Black
10
46.8687
20
-45.3125
11
46.5312
21
-45.3125
0
LINE
8
Black
10
46.5312
20
-45.3125
11
46.5312
21
-45.0875
0
LINE
8
Black
10
46.5312
20
-45.0875
11
46.8687
21
-45.0875
0
LINE
8
Black
10
46.8687
20
-45.0875
11
46.8687
21
-45.3125
0
LINE
8
Black
10
42.3687
20
-45.3125
11
42.0312
21
-45.3125
0
LINE
8
Black
10
42.0312
20
-45.3125
11
42.0312
21
-45.0875
0
LINE
8
Black
10
42.0312
20
-45.0875
11
42.3687
21
-45.0875
0
LINE
8
Black
10
42.3687
20
-45.0875
11
42.3687
21
-45.3125
0
LINE
8
Black
10
53.287
20
-45.3125
11
52.657
21
-45.3125
0
LINE
8
Black
10
52.657
20
-45.3125
11
52.657
21
-45.0875
0
LINE
8
Black
10
52.657
20
-45.0875
11
53.287
21
-45.0875
0
LINE
8
Black
10
53.287
20
-45.0875
11
53.287
21
-45.3125
0
LINE
8
Black
10
58.087
20
-45.3125
11
57.457
21
-45.3125
0
LINE
8
Black
10
57.457
20
-45.3125
11
57.457
21
-45.0875
0
LINE
8
Black
10
57.457
20
-45.0875
11
58.087
21
-45.0875
0
LINE
8
Black
10
58.087
20
-45.0875
11
58.087
21
-45.3125
0
LINE
8
Black
10
60.7895
20
-45.076
11
60.1145
21
-45.076
0
LINE
8
Black
10
60.1145
20
-45.076
11
60.1145
21
-44.356
0
LINE
8
Black
10
60.1145
20
-44.356
11
60.7895
21
-44.356
0
LINE
8
Black
10
60.7895
20
-44.356
11
60.7895
21
-45.076
0
LINE
8
Black
10
58.087
20
-44.8125
11
57.457
21
-44.8125
0
LINE
8
Black
10
57.457
20
-44.8125
11
57.457
21
-44.5875
0
LINE
8
Black
10
57.457
20
-44.5875
11
58.087
21
-44.5875
0
LINE
8
Black
10
58.087
20
-44.5875
11
58.087
21
-44.8125
0
LINE
8
Black
10
53.287
20
-44.8125
11
52.657
21
-44.8125
0
LINE
8
Black
10
52.657
20
-44.8125
11
52.657
21
-44.5875
0
LINE
8
Black
10
52.657
20
-44.5875
11
53.287
21
-44.5875
0
LINE
8
Black
10
53.287
20
-44.5875
11
53.287
21
-44.8125
0
LINE
8
Black
10
42.3687
20
-44.8125
11
42.0312
21
-44.8125
0
LINE
8
Black
10
42.0312
20
-44.8125
11
42.0312
21
-44.5875
0
LINE
8
Black
10
42.0312
20
-44.5875
11
42.3687
21
-44.5875
0
LINE
8
Black
10
42.3687
20
-44.5875
11
42.3687
21
-44.8125
0
LINE
8
Black
10
46.8687
20
-44.8125
11
46.5312
21
-44.8125
0
LINE
8
Black
10
46.5312
20
-44.8125
11
46.5312
21
-44.5875
0
LINE
8
Black
10
46.5312
20
-44.5875
11
46.8687
21
-44.5875
0
LINE
8
Black
10
46.8687
20
-44.5875
11
46.8687
21
-44.8125
0
LINE
8
Black
10
48.792
20
-44.651
11
47.982
21
-44.651
0
LINE
8
Black
10
47.982
20
-44.651
11
47.982
21
-44.201
0
LINE
8
Black
10
47.982
20
-44.201
11
48.792
21
-44.201
0
LINE
8
Black
10
48.792
20
-44.201
11
48.792
21
-44.651
0
LINE
8
Black
10
39.595
20
-44.635
11
39.145
21
-44.635
0
LINE
8
Black
10
39.145
20
-44.635
11
39.145
21
-44.095
0
LINE
8
Black
10
39.145
20
-44.095
11
39.595
21
-44.095
0
LINE
8
Black
10
39.595
20
-44.095
11
39.595
21
-44.635
0
LINE
8
Black
10
37.444
20
-44.588
11
35.644
21
-44.588
0
LINE
8
Black
10
35.644
20
-44.588
11
35.644
21
-42.788
0
LINE
8
Black
10
35.644
20
-42.788
11
37.444
21
-42.788
0
LINE
8
Black
10
37.444
20
-42.788
11
37.444
21
-44.588
0
LINE
8
Black
10
33.444
20
-44.588
11
31.644
21
-44.588
0
LINE
8
Black
10
31.644
20
-44.588
11
31.644
21
-42.788
0
LINE
8
Black
10
31.644
20
-42.788
11
33.444
21
-42.788
0
LINE
8
Black
10
33.444
20
-42.788
11
33.444
21
-44.588
0
LINE
8
Black
10
46.8687
20
-44.3125
11
46.5312
21
-44.3125
0
LINE
8
Black
10
46.5312
20
-44.3125
11
46.5312
21
-44.0875
0
LINE
8
Black
10
46.5312
20
-44.0875
11
46.8687
21
-44.0875
0
LINE
8
Black
10
46.8687
20
-44.0875
11
46.8687
21
-44.3125
0
LINE
8
Black
10
42.3687
20
-44.3125
11
42.0312
21
-44.3125
0
LINE
8
Black
10
42.0312
20
-44.3125
11
42.0312
21
-44.0875
0
LINE
8
Black
10
42.0312
20
-44.0875
11
42.3687
21
-44.0875
0
LINE
8
Black
10
42.3687
20
-44.0875
11
42.3687
21
-44.3125
0
LINE
8
Black
10
53.287
20
-44.3125
11
52.657
21
-44.3125
0
LINE
8
Black
10
52.657
20
-44.3125
11
52.657
21
-44.0875
0
LINE
8
Black
10
52.657
20
-44.0875
11
53.287
21
-44.0875
0
LINE
8
Black
10
53.287
20
-44.0875
11
53.287
21
-44.3125
0
LINE
8
Black
10
58.087
20
-44.3125
11
57.457
21
-44.3125
0
LINE
8
Black
10
57.457
20
-44.3125
11
57.457
21
-44.0875
0
LINE
8
Black
10
57.457
20
-44.0875
11
58.087
21
-44.0875
0
LINE
8
Black
10
58.087
20
-44.0875
11
58.087
21
-44.3125
0
LINE
8
Black
10
55.027
20
-44.105
11
53.992
21
-44.105
0
LINE
8
Black
10
53.992
20
-44.105
11
53.992
21
-43.07
0
LINE
8
Black
10
53.992
20
-43.07
11
55.027
21
-43.07
0
LINE
8
Black
10
55.027
20
-43.07
11
55.027
21
-44.105
0
LINE
8
Black
10
56.752
20
-44.105
11
55.717
21
-44.105
0
LINE
8
Black
10
55.717
20
-44.105
11
55.717
21
-43.07
0
LINE
8
Black
10
55.717
20
-43.07
11
56.752
21
-43.07
0
LINE
8
Black
10
56.752
20
-43.07
11
56.752
21
-44.105
0
LINE
8
Black
10
65.502
20
-43.9575
11
64.602
21
-43.9575
0
LINE
8
Black
10
64.602
20
-43.9575
11
64.602
21
-43.1925
0
LINE
8
Black
10
64.602
20
-43.1925
11
65.502
21
-43.1925
0
LINE
8
Black
10
65.502
20
-43.1925
11
65.502
21
-43.9575
0
LINE
8
Black
10
69.002
20
-43.9575
11
68.102
21
-43.9575
0
LINE
8
Black
10
68.102
20
-43.9575
11
68.102
21
-43.1925
0
LINE
8
Black
10
68.102
20
-43.1925
11
69.002
21
-43.1925
0
LINE
8
Black
10
69.002
20
-43.1925
11
69.002
21
-43.9575
0
LINE
8
Black
10
20.798
20
-43.9575
11
19.898
21
-43.9575
0
LINE
8
Black
10
19.898
20
-43.9575
11
19.898
21
-43.1925
0
LINE
8
Black
10
19.898
20
-43.1925
11
20.798
21
-43.1925
0
LINE
8
Black
10
20.798
20
-43.1925
11
20.798
21
-43.9575
0
LINE
8
Black
10
24.298
20
-43.9575
11
23.398
21
-43.9575
0
LINE
8
Black
10
23.398
20
-43.9575
11
23.398
21
-43.1925
0
LINE
8
Black
10
23.398
20
-43.1925
11
24.298
21
-43.1925
0
LINE
8
Black
10
24.298
20
-43.1925
11
24.298
21
-43.9575
0
LINE
8
Black
10
58.087
20
-43.8125
11
57.457
21
-43.8125
0
LINE
8
Black
10
57.457
20
-43.8125
11
57.457
21
-43.5875
0
LINE
8
Black
10
57.457
20
-43.5875
11
58.087
21
-43.5875
0
LINE
8
Black
10
58.087
20
-43.5875
11
58.087
21
-43.8125
0
LINE
8
Black
10
46.8687
20
-43.8125
11
46.5312
21
-43.8125
0
LINE
8
Black
10
46.5312
20
-43.8125
11
46.5312
21
-43.5875
0
LINE
8
Black
10
46.5312
20
-43.5875
11
46.8687
21
-43.5875
0
LINE
8
Black
10
46.8687
20
-43.5875
11
46.8687
21
-43.8125
0
LINE
8
Black
10
53.287
20
-43.8125
11
52.657
21
-43.8125
0
LINE
8
Black
10
52.657
20
-43.8125
11
52.657
21
-43.5875
0
LINE
8
Black
10
52.657
20
-43.5875
11
53.287
21
-43.5875
0
LINE
8
Black
10
53.287
20
-43.5875
11
53.287
21
-43.8125
0
LINE
8
Black
10
42.3687
20
-43.8125
11
42.0312
21
-43.8125
0
LINE
8
Black
10
42.0312
20
-43.8125
11
42.0312
21
-43.5875
0
LINE
8
Black
10
42.0312
20
-43.5875
11
42.3687
21
-43.5875
0
LINE
8
Black
10
42.3687
20
-43.5875
11
42.3687
21
-43.8125
0
LINE
8
Black
10
39.595
20
-43.535
11
39.145
21
-43.535
0
LINE
8
Black
10
39.145
20
-43.535
11
39.145
21
-42.995
0
LINE
8
Black
10
39.145
20
-42.995
11
39.595
21
-42.995
0
LINE
8
Black
10
39.595
20
-42.995
11
39.595
21
-43.535
0
LINE
8
Black
10
60.677
20
-43.492
11
60.227
21
-43.492
0
LINE
8
Black
10
60.227
20
-43.492
11
60.227
21
-42.952
0
LINE
8
Black
10
60.227
20
-42.952
11
60.677
21
-42.952
0
LINE
8
Black
10
60.677
20
-42.952
11
60.677
21
-43.492
0
LINE
8
Black
10
53.287
20
-43.3125
11
52.657
21
-43.3125
0
LINE
8
Black
10
52.657
20
-43.3125
11
52.657
21
-43.0875
0
LINE
8
Black
10
52.657
20
-43.0875
11
53.287
21
-43.0875
0
LINE
8
Black
10
53.287
20
-43.0875
11
53.287
21
-43.3125
0
LINE
8
Black
10
58.087
20
-43.3125
11
57.457
21
-43.3125
0
LINE
8
Black
10
57.457
20
-43.3125
11
57.457
21
-43.0875
0
LINE
8
Black
10
57.457
20
-43.0875
11
58.087
21
-43.0875
0
LINE
8
Black
10
58.087
20
-43.0875
11
58.087
21
-43.3125
0
LINE
8
Black
10
51.787
20
-43.238
11
51.337
21
-43.238
0
LINE
8
Black
10
51.337
20
-43.238
11
51.337
21
-42.698
0
LINE
8
Black
10
51.337
20
-42.698
11
51.787
21
-42.698
0
LINE
8
Black
10
51.787
20
-42.698
11
51.787
21
-43.238
0
LINE
8
Black
10
48.792
20
-43.151
11
47.982
21
-43.151
0
LINE
8
Black
10
47.982
20
-43.151
11
47.982
21
-42.701
0
LINE
8
Black
10
47.982
20
-42.701
11
48.792
21
-42.701
0
LINE
8
Black
10
48.792
20
-42.701
11
48.792
21
-43.151
0
LINE
8
Black
10
43.3125
20
-43.1013
11
43.0875
21
-43.1013
0
LINE
8
Black
10
43.0875
20
-43.1013
11
43.0875
21
-42.6737
0
LINE
8
Black
10
43.0875
20
-42.6737
11
43.3125
21
-42.6737
0
LINE
8
Black
10
43.3125
20
-42.6737
11
43.3125
21
-43.1013
0
LINE
8
Black
10
43.8125
20
-43.1013
11
43.5875
21
-43.1013
0
LINE
8
Black
10
43.5875
20
-43.1013
11
43.5875
21
-42.6737
0
LINE
8
Black
10
43.5875
20
-42.6737
11
43.8125
21
-42.6737
0
LINE
8
Black
10
43.8125
20
-42.6737
11
43.8125
21
-43.1013
0
LINE
8
Black
10
44.3125
20
-43.1013
11
44.0875
21
-43.1013
0
LINE
8
Black
10
44.0875
20
-43.1013
11
44.0875
21
-42.6737
0
LINE
8
Black
10
44.0875
20
-42.6737
11
44.3125
21
-42.6737
0
LINE
8
Black
10
44.3125
20
-42.6737
11
44.3125
21
-43.1013
0
LINE
8
Black
10
44.8125
20
-43.1013
11
44.5875
21
-43.1013
0
LINE
8
Black
10
44.5875
20
-43.1013
11
44.5875
21
-42.6737
0
LINE
8
Black
10
44.5875
20
-42.6737
11
44.8125
21
-42.6737
0
LINE
8
Black
10
44.8125
20
-42.6737
11
44.8125
21
-43.1013
0
LINE
8
Black
10
45.3125
20
-43.1013
11
45.0875
21
-43.1013
0
LINE
8
Black
10
45.0875
20
-43.1013
11
45.0875
21
-42.6737
0
LINE
8
Black
10
45.0875
20
-42.6737
11
45.3125
21
-42.6737
0
LINE
8
Black
10
45.3125
20
-42.6737
11
45.3125
21
-43.1013
0
LINE
8
Black
10
45.8125
20
-43.1013
11
45.5875
21
-43.1013
0
LINE
8
Black
10
45.5875
20
-43.1013
11
45.5875
21
-42.6737
0
LINE
8
Black
10
45.5875
20
-42.6737
11
45.8125
21
-42.6737
0
LINE
8
Black
10
45.8125
20
-42.6737
11
45.8125
21
-43.1013
0
LINE
8
Black
10
46.3125
20
-43.1013
11
46.0875
21
-43.1013
0
LINE
8
Black
10
46.0875
20
-43.1013
11
46.0875
21
-42.6737
0
LINE
8
Black
10
46.0875
20
-42.6737
11
46.3125
21
-42.6737
0
LINE
8
Black
10
46.3125
20
-42.6737
11
46.3125
21
-43.1013
0
LINE
8
Black
10
42.8125
20
-43.1013
11
42.5875
21
-43.1013
0
LINE
8
Black
10
42.5875
20
-43.1013
11
42.5875
21
-42.6737
0
LINE
8
Black
10
42.5875
20
-42.6737
11
42.8125
21
-42.6737
0
LINE
8
Black
10
42.8125
20
-42.6737
11
42.8125
21
-43.1013
0
LINE
8
Black
10
42.3125
20
-43.1013
11
42.0875
21
-43.1013
0
LINE
8
Black
10
42.0875
20
-43.1013
11
42.0875
21
-42.6737
0
LINE
8
Black
10
42.0875
20
-42.6737
11
42.3125
21
-42.6737
0
LINE
8
Black
10
42.3125
20
-42.6737
11
42.3125
21
-43.1013
0
LINE
8
Black
10
46.8125
20
-43.1013
11
46.5875
21
-43.1013
0
LINE
8
Black
10
46.5875
20
-43.1013
11
46.5875
21
-42.6737
0
LINE
8
Black
10
46.5875
20
-42.6737
11
46.8125
21
-42.6737
0
LINE
8
Black
10
46.8125
20
-42.6737
11
46.8125
21
-43.1013
0
LINE
8
Black
10
53.287
20
-42.8125
11
52.657
21
-42.8125
0
LINE
8
Black
10
52.657
20
-42.8125
11
52.657
21
-42.5875
0
LINE
8
Black
10
52.657
20
-42.5875
11
53.287
21
-42.5875
0
LINE
8
Black
10
53.287
20
-42.5875
11
53.287
21
-42.8125
0
LINE
8
Black
10
58.087
20
-42.8125
11
57.457
21
-42.8125
0
LINE
8
Black
10
57.457
20
-42.8125
11
57.457
21
-42.5875
0
LINE
8
Black
10
57.457
20
-42.5875
11
58.087
21
-42.5875
0
LINE
8
Black
10
58.087
20
-42.5875
11
58.087
21
-42.8125
0
LINE
8
Black
10
60.677
20
-42.392
11
60.227
21
-42.392
0
LINE
8
Black
10
60.227
20
-42.392
11
60.227
21
-41.852
0
LINE
8
Black
10
60.227
20
-41.852
11
60.677
21
-41.852
0
LINE
8
Black
10
60.677
20
-41.852
11
60.677
21
-42.392
0
LINE
8
Black
10
55.7345
20
-42.365
11
55.5095
21
-42.365
0
LINE
8
Black
10
55.5095
20
-42.365
11
55.5095
21
-41.735
0
LINE
8
Black
10
55.5095
20
-41.735
11
55.7345
21
-41.735
0
LINE
8
Black
10
55.7345
20
-41.735
11
55.7345
21
-42.365
0
LINE
8
Black
10
54.2345
20
-42.365
11
54.0095
21
-42.365
0
LINE
8
Black
10
54.0095
20
-42.365
11
54.0095
21
-41.735
0
LINE
8
Black
10
54.0095
20
-41.735
11
54.2345
21
-41.735
0
LINE
8
Black
10
54.2345
20
-41.735
11
54.2345
21
-42.365
0
LINE
8
Black
10
54.7345
20
-42.365
11
54.5095
21
-42.365
0
LINE
8
Black
10
54.5095
20
-42.365
11
54.5095
21
-41.735
0
LINE
8
Black
10
54.5095
20
-41.735
11
54.7345
21
-41.735
0
LINE
8
Black
10
54.7345
20
-41.735
11
54.7345
21
-42.365
0
LINE
8
Black
10
53.7345
20
-42.365
11
53.5095
21
-42.365
0
LINE
8
Black
10
53.5095
20
-42.365
11
53.5095
21
-41.735
0
LINE
8
Black
10
53.5095
20
-41.735
11
53.7345
21
-41.735
0
LINE
8
Black
10
53.7345
20
-41.735
11
53.7345
21
-42.365
0
LINE
8
Black
10
55.2345
20
-42.365
11
55.0095
21
-42.365
0
LINE
8
Black
10
55.0095
20
-42.365
11
55.0095
21
-41.735
0
LINE
8
Black
10
55.0095
20
-41.735
11
55.2345
21
-41.735
0
LINE
8
Black
10
55.2345
20
-41.735
11
55.2345
21
-42.365
0
LINE
8
Black
10
57.2345
20
-42.365
11
57.0095
21
-42.365
0
LINE
8
Black
10
57.0095
20
-42.365
11
57.0095
21
-41.735
0
LINE
8
Black
10
57.0095
20
-41.735
11
57.2345
21
-41.735
0
LINE
8
Black
10
57.2345
20
-41.735
11
57.2345
21
-42.365
0
LINE
8
Black
10
56.2345
20
-42.365
11
56.0095
21
-42.365
0
LINE
8
Black
10
56.0095
20
-42.365
11
56.0095
21
-41.735
0
LINE
8
Black
10
56.0095
20
-41.735
11
56.2345
21
-41.735
0
LINE
8
Black
10
56.2345
20
-41.735
11
56.2345
21
-42.365
0
LINE
8
Black
10
56.7345
20
-42.365
11
56.5095
21
-42.365
0
LINE
8
Black
10
56.5095
20
-42.365
11
56.5095
21
-41.735
0
LINE
8
Black
10
56.5095
20
-41.735
11
56.7345
21
-41.735
0
LINE
8
Black
10
56.7345
20
-41.735
11
56.7345
21
-42.365
0
LINE
8
Black
10
51.787
20
-42.138
11
51.337
21
-42.138
0
LINE
8
Black
10
51.337
20
-42.138
11
51.337
21
-41.598
0
LINE
8
Black
10
51.337
20
-41.598
11
51.787
21
-41.598
0
LINE
8
Black
10
51.787
20
-41.598
11
51.787
21
-42.138
0
LINE
8
Black
10
67.326
20
-41.627
11
66.786
21
-41.627
0
LINE
8
Black
10
66.786
20
-41.627
11
66.786
21
-41.177
0
LINE
8
Black
10
66.786
20
-41.177
11
67.326
21
-41.177
0
LINE
8
Black
10
67.326
20
-41.177
11
67.326
21
-41.627
0
LINE
8
Black
10
68.426
20
-41.627
11
67.886
21
-41.627
0
LINE
8
Black
10
67.886
20
-41.627
11
67.886
21
-41.177
0
LINE
8
Black
10
67.886
20
-41.177
11
68.426
21
-41.177
0
LINE
8
Black
10
68.426
20
-41.177
11
68.426
21
-41.627
0
LINE
8
Black
10
42.222
20
-40.865
11
41.682
21
-40.865
0
LINE
8
Black
10
41.682
20
-40.865
11
41.682
21
-40.415
0
LINE
8
Black
10
41.682
20
-40.415
11
42.222
21
-40.415
0
LINE
8
Black
10
42.222
20
-40.415
11
42.222
21
-40.865
0
LINE
8
Black
10
41.122
20
-40.865
11
40.582
21
-40.865
0
LINE
8
Black
10
40.582
20
-40.865
11
40.582
21
-40.415
0
LINE
8
Black
10
40.582
20
-40.415
11
41.122
21
-40.415
0
LINE
8
Black
10
41.122
20
-40.415
11
41.122
21
-40.865
0
LINE
8
Black
10
47.203
20
-40.283
11
46.753
21
-40.283
0
LINE
8
Black
10
46.753
20
-40.283
11
46.753
21
-39.473
0
LINE
8
Black
10
46.753
20
-39.473
11
47.203
21
-39.473
0
LINE
8
Black
10
47.203
20
-39.473
11
47.203
21
-40.283
0
LINE
8
Black
10
51.267
20
-40.283
11
50.817
21
-40.283
0
LINE
8
Black
10
50.817
20
-40.283
11
50.817
21
-39.473
0
LINE
8
Black
10
50.817
20
-39.473
11
51.267
21
-39.473
0
LINE
8
Black
10
51.267
20
-39.473
11
51.267
21
-40.283
0
LINE
8
Black
10
49.767
20
-40.283
11
49.317
21
-40.283
0
LINE
8
Black
10
49.317
20
-40.283
11
49.317
21
-39.473
0
LINE
8
Black
10
49.317
20
-39.473
11
49.767
21
-39.473
0
LINE
8
Black
10
49.767
20
-39.473
11
49.767
21
-40.283
0
LINE
8
Black
10
45.703
20
-40.283
11
45.253
21
-40.283
0
LINE
8
Black
10
45.253
20
-40.283
11
45.253
21
-39.473
0
LINE
8
Black
10
45.253
20
-39.473
11
45.703
21
-39.473
0
LINE
8
Black
10
45.703
20
-39.473
11
45.703
21
-40.283
0
LINE
8
Black
10
30.082
20
-39.013
11
29.632
21
-39.013
0
LINE
8
Black
10
29.632
20
-39.013
11
29.632
21
-38.203
0
LINE
8
Black
10
29.632
20
-38.203
11
30.082
21
-38.203
0
LINE
8
Black
10
30.082
20
-38.203
11
30.082
21
-39.013
0
LINE
8
Black
10
31.582
20
-39.013
11
31.132
21
-39.013
0
LINE
8
Black
10
31.132
20
-39.013
11
31.132
21
-38.203
0
LINE
8
Black
10
31.132
20
-38.203
11
31.582
21
-38.203
0
LINE
8
Black
10
31.582
20
-38.203
11
31.582
21
-39.013
0
LINE
8
Black
10
22.7339
20
-38.5105
11
22.5617
21
-38.9262
0
LINE
8
Black
10
22.5617
20
-38.9262
11
22.0628
21
-38.7196
0
LINE
8
Black
10
22.0628
20
-38.7196
11
22.235
21
-38.3038
0
LINE
8
Black
10
22.235
20
-38.3038
11
22.7339
21
-38.5105
0
LINE
8
Black
10
57.752
20
-38.701
11
56.762
21
-38.701
0
LINE
8
Black
10
56.762
20
-38.701
11
56.762
21
-36.991
0
LINE
8
Black
10
56.762
20
-36.991
11
57.752
21
-36.991
0
LINE
8
Black
10
57.752
20
-36.991
11
57.752
21
-38.701
0
LINE
8
Black
10
55.252
20
-38.701
11
54.262
21
-38.701
0
LINE
8
Black
10
54.262
20
-38.701
11
54.262
21
-36.991
0
LINE
8
Black
10
54.262
20
-36.991
11
55.252
21
-36.991
0
LINE
8
Black
10
55.252
20
-36.991
11
55.252
21
-38.701
0
LINE
8
Black
10
34.518
20
-38.622
11
33.618
21
-38.622
0
LINE
8
Black
10
33.618
20
-38.622
11
33.618
21
-35.742
0
LINE
8
Black
10
33.618
20
-35.742
11
34.518
21
-35.742
0
LINE
8
Black
10
34.518
20
-35.742
11
34.518
21
-38.622
0
LINE
8
Black
10
38.518
20
-38.622
11
37.618
21
-38.622
0
LINE
8
Black
10
37.618
20
-38.622
11
37.618
21
-35.742
0
LINE
8
Black
10
37.618
20
-35.742
11
38.518
21
-35.742
0
LINE
8
Black
10
38.518
20
-35.742
11
38.518
21
-38.622
0
LINE
8
Black
10
51.62
20
-38.579
11
51.08
21
-38.579
0
LINE
8
Black
10
51.08
20
-38.579
11
51.08
21
-38.129
0
LINE
8
Black
10
51.08
20
-38.129
11
51.62
21
-38.129
0
LINE
8
Black
10
51.62
20
-38.129
11
51.62
21
-38.579
0
LINE
8
Black
10
50.52
20
-38.579
11
49.98
21
-38.579
0
LINE
8
Black
10
49.98
20
-38.579
11
49.98
21
-38.129
0
LINE
8
Black
10
49.98
20
-38.129
11
50.52
21
-38.129
0
LINE
8
Black
10
50.52
20
-38.129
11
50.52
21
-38.579
0
LINE
8
Black
10
21.7176
20
-38.0895
11
21.5454
21
-38.5053
0
LINE
8
Black
10
21.5454
20
-38.5053
11
21.0465
21
-38.2986
0
LINE
8
Black
10
21.0465
20
-38.2986
11
21.2187
21
-37.8829
0
LINE
8
Black
10
21.2187
20
-37.8829
11
21.7176
21
-38.0895
0
LINE
8
Black
10
45.179
20
-38.193
11
44.189
21
-38.193
0
LINE
8
Black
10
44.189
20
-38.193
11
44.189
21
-36.483
0
LINE
8
Black
10
44.189
20
-36.483
11
45.179
21
-36.483
0
LINE
8
Black
10
45.179
20
-36.483
11
45.179
21
-38.193
0
LINE
8
Black
10
42.679
20
-38.193
11
41.689
21
-38.193
0
LINE
8
Black
10
41.689
20
-38.193
11
41.689
21
-36.483
0
LINE
8
Black
10
41.689
20
-36.483
11
42.679
21
-36.483
0
LINE
8
Black
10
42.679
20
-36.483
11
42.679
21
-38.193
0
LINE
8
Black
10
25.6734
20
-37.1932
11
25.3807
21
-37.8999
0
LINE
8
Black
10
25.3807
20
-37.8999
11
24.5492
21
-37.5555
0
LINE
8
Black
10
24.5492
20
-37.5555
11
24.8419
21
-36.8488
0
LINE
8
Black
10
24.8419
20
-36.8488
11
25.6734
21
-37.1932
0
LINE
8
Black
10
64.3807
20
-37.5555
11
63.5492
21
-37.8999
0
LINE
8
Black
10
63.5492
20
-37.8999
11
63.2565
21
-37.1932
0
LINE
8
Black
10
63.2565
20
-37.1932
11
64.088
21
-36.8488
0
LINE
8
Black
10
64.088
20
-36.8488
11
64.3807
21
-37.5555
0
LINE
8
Black
10
51.731
20
-37.064
11
50.921
21
-37.064
0
LINE
8
Black
10
50.921
20
-37.064
11
50.921
21
-36.164
0
LINE
8
Black
10
50.921
20
-36.164
11
51.731
21
-36.164
0
LINE
8
Black
10
51.731
20
-36.164
11
51.731
21
-37.064
0
LINE
8
Black
10
47.631
20
-37.064
11
46.821
21
-37.064
0
LINE
8
Black
10
46.821
20
-37.064
11
46.821
21
-36.164
0
LINE
8
Black
10
46.821
20
-36.164
11
47.631
21
-36.164
0
LINE
8
Black
10
47.631
20
-36.164
11
47.631
21
-37.064
0
LINE
8
Black
10
31.7152
20
-36.9349
11
30.9974
21
-36.9349
0
LINE
8
Black
10
30.9974
20
-36.9349
11
30.9974
21
-36.2171
0
LINE
8
Black
10
30.9974
20
-36.2171
11
31.7152
21
-36.2171
0
LINE
8
Black
10
31.7152
20
-36.2171
11
31.7152
21
-36.9349
0
LINE
8
Black
10
30.2166
20
-36.9349
11
29.4988
21
-36.9349
0
LINE
8
Black
10
29.4988
20
-36.9349
11
29.4988
21
-36.2171
0
LINE
8
Black
10
29.4988
20
-36.2171
11
30.2166
21
-36.2171
0
LINE
8
Black
10
30.2166
20
-36.2171
11
30.2166
21
-36.9349
0
LINE
8
Black
10
22.4398
20
-35.8538
11
22.1471
21
-36.5605
0
LINE
8
Black
10
22.1471
20
-36.5605
11
21.3156
21
-36.2161
0
LINE
8
Black
10
21.3156
20
-36.2161
11
21.6084
21
-35.5094
0
LINE
8
Black
10
21.6084
20
-35.5094
11
22.4398
21
-35.8538
0
LINE
8
Black
10
67.6143
20
-36.2161
11
66.7828
21
-36.5605
0
LINE
8
Black
10
66.7828
20
-36.5605
11
66.4901
21
-35.8538
0
LINE
8
Black
10
66.4901
20
-35.8538
11
67.3216
21
-35.5094
0
LINE
8
Black
10
67.3216
20
-35.5094
11
67.6143
21
-36.2161
0
LINE
8
Black
10
26.3431
20
-35.5764
11
26.0504
21
-36.2832
0
LINE
8
Black
10
26.0504
20
-36.2832
11
25.2189
21
-35.9387
0
LINE
8
Black
10
25.2189
20
-35.9387
11
25.5116
21
-35.232
0
LINE
8
Black
10
25.5116
20
-35.232
11
26.3431
21
-35.5764
0
LINE
8
Black
10
63.711
20
-35.9387
11
62.8795
21
-36.2832
0
LINE
8
Black
10
62.8795
20
-36.2832
11
62.5868
21
-35.5764
0
LINE
8
Black
10
62.5868
20
-35.5764
11
63.4183
21
-35.232
0
LINE
8
Black
10
63.4183
20
-35.232
11
63.711
21
-35.9387
0
LINE
8
Black
10
55.089
20
-35.957
11
54.639
21
-35.957
0
LINE
8
Black
10
54.639
20
-35.957
11
54.639
21
-35.417
0
LINE
8
Black
10
54.639
20
-35.417
11
55.089
21
-35.417
0
LINE
8
Black
10
55.089
20
-35.417
11
55.089
21
-35.957
0
LINE
8
Black
10
58.478
20
-35.912
11
57.938
21
-35.912
0
LINE
8
Black
10
57.938
20
-35.912
11
57.938
21
-35.462
0
LINE
8
Black
10
57.938
20
-35.462
11
58.478
21
-35.462
0
LINE
8
Black
10
58.478
20
-35.462
11
58.478
21
-35.912
0
LINE
8
Black
10
57.378
20
-35.912
11
56.838
21
-35.912
0
LINE
8
Black
10
56.838
20
-35.912
11
56.838
21
-35.462
0
LINE
8
Black
10
56.838
20
-35.462
11
57.378
21
-35.462
0
LINE
8
Black
10
57.378
20
-35.462
11
57.378
21
-35.912
0
LINE
8
Black
10
47.631
20
-35.464
11
46.821
21
-35.464
0
LINE
8
Black
10
46.821
20
-35.464
11
46.821
21
-34.564
0
LINE
8
Black
10
46.821
20
-34.564
11
47.631
21
-34.564
0
LINE
8
Black
10
47.631
20
-34.564
11
47.631
21
-35.464
0
LINE
8
Black
10
51.731
20
-35.464
11
50.921
21
-35.464
0
LINE
8
Black
10
50.921
20
-35.464
11
50.921
21
-34.564
0
LINE
8
Black
10
50.921
20
-34.564
11
51.731
21
-34.564
0
LINE
8
Black
10
51.731
20
-34.564
11
51.731
21
-35.464
0
LINE
8
Black
10
42.643
20
-35.11
11
42.193
21
-35.11
0
LINE
8
Black
10
42.193
20
-35.11
11
42.193
21
-34.57
0
LINE
8
Black
10
42.193
20
-34.57
11
42.643
21
-34.57
0
LINE
8
Black
10
42.643
20
-34.57
11
42.643
21
-35.11
0
LINE
8
Black
10
44.675
20
-35.11
11
44.225
21
-35.11
0
LINE
8
Black
10
44.225
20
-35.11
11
44.225
21
-34.57
0
LINE
8
Black
10
44.225
20
-34.57
11
44.675
21
-34.57
0
LINE
8
Black
10
44.675
20
-34.57
11
44.675
21
-35.11
0
LINE
8
Black
10
23.1095
20
-34.237
11
22.8168
21
-34.9438
0
LINE
8
Black
10
22.8168
20
-34.9438
11
21.9853
21
-34.5993
0
LINE
8
Black
10
21.9853
20
-34.5993
11
22.2781
21
-33.8926
0
LINE
8
Black
10
22.2781
20
-33.8926
11
23.1095
21
-34.237
0
LINE
8
Black
10
66.9446
20
-34.5993
11
66.1131
21
-34.9438
0
LINE
8
Black
10
66.1131
20
-34.9438
11
65.8204
21
-34.237
0
LINE
8
Black
10
65.8204
20
-34.237
11
66.6519
21
-33.8926
0
LINE
8
Black
10
66.6519
20
-33.8926
11
66.9446
21
-34.5993
0
LINE
8
Black
10
55.089
20
-34.857
11
54.639
21
-34.857
0
LINE
8
Black
10
54.639
20
-34.857
11
54.639
21
-34.317
0
LINE
8
Black
10
54.639
20
-34.317
11
55.089
21
-34.317
0
LINE
8
Black
10
55.089
20
-34.317
11
55.089
21
-34.857
0
LINE
8
Black
10
42.643
20
-34.01
11
42.193
21
-34.01
0
LINE
8
Black
10
42.193
20
-34.01
11
42.193
21
-33.47
0
LINE
8
Black
10
42.193
20
-33.47
11
42.643
21
-33.47
0
LINE
8
Black
10
42.643
20
-33.47
11
42.643
21
-34.01
0
LINE
8
Black
10
44.675
20
-34.01
11
44.225
21
-34.01
0
LINE
8
Black
10
44.225
20
-34.01
11
44.225
21
-33.47
0
LINE
8
Black
10
44.225
20
-33.47
11
44.675
21
-33.47
0
LINE
8
Black
10
44.675
20
-33.47
11
44.675
21
-34.01
0
LINE
8
Black
10
64.5044
20
-33.0876
11
64.0055
21
-33.2943
0
LINE
8
Black
10
64.0055
20
-33.2943
11
63.8332
21
-32.8785
0
LINE
8
Black
10
63.8332
20
-32.8785
11
64.3321
21
-32.6719
0
LINE
8
Black
10
64.3321
20
-32.6719
11
64.5044
21
-33.0876
0
LINE
8
Black
10
65.5206
20
-32.6667
11
65.0217
21
-32.8733
0
LINE
8
Black
10
65.0217
20
-32.8733
11
64.8495
21
-32.4576
0
LINE
8
Black
10
64.8495
20
-32.4576
11
65.3484
21
-32.2509
0
LINE
8
Black
10
65.3484
20
-32.2509
11
65.5206
21
-32.6667
0
LINE
8
Black
10
54.253
20
-31.975
11
53.443
21
-31.975
0
LINE
8
Black
10
53.443
20
-31.975
11
53.443
21
-31.525
0
LINE
8
Black
10
53.443
20
-31.525
11
54.253
21
-31.525
0
LINE
8
Black
10
54.253
20
-31.525
11
54.253
21
-31.975
0
LINE
8
Black
10
34.518
20
-31.822
11
33.618
21
-31.822
0
LINE
8
Black
10
33.618
20
-31.822
11
33.618
21
-28.942
0
LINE
8
Black
10
33.618
20
-28.942
11
34.518
21
-28.942
0
LINE
8
Black
10
34.518
20
-28.942
11
34.518
21
-31.822
0
LINE
8
Black
10
38.518
20
-31.822
11
37.618
21
-31.822
0
LINE
8
Black
10
37.618
20
-31.822
11
37.618
21
-28.942
0
LINE
8
Black
10
37.618
20
-28.942
11
38.518
21
-28.942
0
LINE
8
Black
10
38.518
20
-28.942
11
38.518
21
-31.822
0
LINE
8
Black
10
50.814
20
-31.66
11
47.934
21
-31.66
0
LINE
8
Black
10
47.934
20
-31.66
11
47.934
21
-30.76
0
LINE
8
Black
10
47.934
20
-30.76
11
50.814
21
-30.76
0
LINE
8
Black
10
50.814
20
-30.76
11
50.814
21
-31.66
0
LINE
8
Black
10
44.014
20
-31.66
11
41.134
21
-31.66
0
LINE
8
Black
10
41.134
20
-31.66
11
41.134
21
-30.76
0
LINE
8
Black
10
41.134
20
-30.76
11
44.014
21
-30.76
0
LINE
8
Black
10
44.014
20
-30.76
11
44.014
21
-31.66
0
LINE
8
Black
10
29.8521
20
-30.5486
11
29.3112
21
-31.0896
0
LINE
8
Black
10
29.3112
20
-31.0896
11
28.6748
21
-30.4532
0
LINE
8
Black
10
28.6748
20
-30.4532
11
29.2157
21
-29.9122
0
LINE
8
Black
10
29.2157
20
-29.9122
11
29.8521
21
-30.5486
0
LINE
8
Black
10
60.2252
20
-30.4532
11
59.5888
21
-31.0896
0
LINE
8
Black
10
59.5888
20
-31.0896
11
59.0479
21
-30.5486
0
LINE
8
Black
10
59.0479
20
-30.5486
11
59.6843
21
-29.9122
0
LINE
8
Black
10
59.6843
20
-29.9122
11
60.2252
21
-30.4532
0
LINE
8
Black
10
26.6599
20
-30.6522
11
26.3417
21
-30.9704
0
LINE
8
Black
10
26.3417
20
-30.9704
11
25.9599
21
-30.5886
0
LINE
8
Black
10
25.9599
20
-30.5886
11
26.2781
21
-30.2704
0
LINE
8
Black
10
26.2781
20
-30.2704
11
26.6599
21
-30.6522
0
LINE
8
Black
10
54.253
20
-30.475
11
53.443
21
-30.475
0
LINE
8
Black
10
53.443
20
-30.475
11
53.443
21
-30.025
0
LINE
8
Black
10
53.443
20
-30.025
11
54.253
21
-30.025
0
LINE
8
Black
10
54.253
20
-30.025
11
54.253
21
-30.475
0
LINE
8
Black
10
25.8821
20
-29.8744
11
25.5639
21
-30.1926
0
LINE
8
Black
10
25.5639
20
-30.1926
11
25.182
21
-29.8108
0
LINE
8
Black
10
25.182
20
-29.8108
11
25.5002
21
-29.4926
0
LINE
8
Black
10
25.5002
20
-29.4926
11
25.8821
21
-29.8744
0
LINE
8
Black
10
58.9878
20
-29.2157
11
58.3514
21
-29.8521
0
LINE
8
Black
10
58.3514
20
-29.8521
11
57.8104
21
-29.3112
0
LINE
8
Black
10
57.8104
20
-29.3112
11
58.4468
21
-28.6748
0
LINE
8
Black
10
58.4468
20
-28.6748
11
58.9878
21
-29.2157
0
LINE
8
Black
10
31.0896
20
-29.3112
11
30.5486
21
-29.8521
0
LINE
8
Black
10
30.5486
20
-29.8521
11
29.9122
21
-29.2157
0
LINE
8
Black
10
29.9122
20
-29.2157
11
30.4532
21
-28.6748
0
LINE
8
Black
10
30.4532
20
-28.6748
11
31.0896
21
-29.3112
0
LINE
8
Black
10
27.3773
20
-28.0738
11
26.8363
21
-28.6147
0
LINE
8
Black
10
26.8363
20
-28.6147
11
26.1999
21
-27.9783
0
LINE
8
Black
10
26.1999
20
-27.9783
11
26.7409
21
-27.4374
0
LINE
8
Black
10
26.7409
20
-27.4374
11
27.3773
21
-28.0738
0
LINE
8
Black
10
62.7001
20
-27.9783
11
62.0637
21
-28.6147
0
LINE
8
Black
10
62.0637
20
-28.6147
11
61.5227
21
-28.0738
0
LINE
8
Black
10
61.5227
20
-28.0738
11
62.1591
21
-27.4374
0
LINE
8
Black
10
62.1591
20
-27.4374
11
62.7001
21
-27.9783
0
LINE
8
Black
10
44.014
20
-27.66
11
41.134
21
-27.66
0
LINE
8
Black
10
41.134
20
-27.66
11
41.134
21
-26.76
0
LINE
8
Black
10
41.134
20
-26.76
11
44.014
21
-26.76
0
LINE
8
Black
10
44.014
20
-26.76
11
44.014
21
-27.66
0
LINE
8
Black
10
50.814
20
-27.66
11
47.934
21
-27.66
0
LINE
8
Black
10
47.934
20
-27.66
11
47.934
21
-26.76
0
LINE
8
Black
10
47.934
20
-26.76
11
50.814
21
-26.76
0
LINE
8
Black
10
50.814
20
-26.76
11
50.814
21
-27.66
0
LINE
8
Black
10
61.4626
20
-26.7409
11
60.8262
21
-27.3773
0
LINE
8
Black
10
60.8262
20
-27.3773
11
60.2853
21
-26.8363
0
LINE
8
Black
10
60.2853
20
-26.8363
11
60.9217
21
-26.1999
0
LINE
8
Black
10
60.9217
20
-26.1999
11
61.4626
21
-26.7409
0
LINE
8
Black
10
28.6147
20
-26.8363
11
28.0738
21
-27.3773
0
LINE
8
Black
10
28.0738
20
-27.3773
11
27.4374
21
-26.7409
0
LINE
8
Black
10
27.4374
20
-26.7409
11
27.9783
21
-26.1999
0
LINE
8
Black
10
27.9783
20
-26.1999
11
28.6147
21
-26.8363
0
LINE
8
Black
10
58.6296
20
-26.2781
11
58.2478
21
-26.6599
0
LINE
8
Black
10
58.2478
20
-26.6599
11
57.9296
21
-26.3417
0
LINE
8
Black
10
57.9296
20
-26.3417
11
58.3114
21
-25.9599
0
LINE
8
Black
10
58.3114
20
-25.9599
11
58.6296
21
-26.2781
0
LINE
8
Black
10
36.2832
20
-26.0205
11
35.5764
21
-26.3132
0
LINE
8
Black
10
35.5764
20
-26.3132
11
35.232
21
-25.4817
0
LINE
8
Black
10
35.232
20
-25.4817
11
35.9387
21
-25.189
0
LINE
8
Black
10
35.9387
20
-25.189
11
36.2832
21
-26.0205
0
LINE
8
Black
10
53.668
20
-25.4817
11
53.3236
21
-26.3132
0
LINE
8
Black
10
53.3236
20
-26.3132
11
52.6168
21
-26.0205
0
LINE
8
Black
10
52.6168
20
-26.0205
11
52.9613
21
-25.189
0
LINE
8
Black
10
52.9613
20
-25.189
11
53.668
21
-25.4817
0
LINE
8
Black
10
59.4074
20
-25.5002
11
59.0256
21
-25.8821
0
LINE
8
Black
10
59.0256
20
-25.8821
11
58.7074
21
-25.5639
0
LINE
8
Black
10
58.7074
20
-25.5639
11
59.0892
21
-25.182
0
LINE
8
Black
10
59.0892
20
-25.182
11
59.4074
21
-25.5002
0
LINE
8
Black
10
37.8999
20
-25.3508
11
37.1932
21
-25.6435
0
LINE
8
Black
10
37.1932
20
-25.6435
11
36.8488
21
-24.812
0
LINE
8
Black
10
36.8488
20
-24.812
11
37.5555
21
-24.5193
0
LINE
8
Black
10
37.5555
20
-24.5193
11
37.8999
21
-25.3508
0
LINE
8
Black
10
52.0512
20
-24.812
11
51.7068
21
-25.6435
0
LINE
8
Black
10
51.7068
20
-25.6435
11
51.0001
21
-25.3508
0
LINE
8
Black
10
51.0001
20
-25.3508
11
51.3445
21
-24.5193
0
LINE
8
Black
10
51.3445
20
-24.5193
11
52.0512
21
-24.812
0
LINE
8
Black
10
33.2943
20
-24.8945
11
32.8785
21
-25.0667
0
LINE
8
Black
10
32.8785
20
-25.0667
11
32.6719
21
-24.5679
0
LINE
8
Black
10
32.6719
20
-24.5679
11
33.0876
21
-24.3956
0
LINE
8
Black
10
33.0876
20
-24.3956
11
33.2943
21
-24.8945
0
LINE
8
Black
10
45.7075
20
-24.298
11
44.9425
21
-24.298
0
LINE
8
Black
10
44.9425
20
-24.298
11
44.9425
21
-23.398
0
LINE
8
Black
10
44.9425
20
-23.398
11
45.7075
21
-23.398
0
LINE
8
Black
10
45.7075
20
-23.398
11
45.7075
21
-24.298
0
LINE
8
Black
10
43.9575
20
-24.298
11
43.1925
21
-24.298
0
LINE
8
Black
10
43.1925
20
-24.298
11
43.1925
21
-23.398
0
LINE
8
Black
10
43.1925
20
-23.398
11
43.9575
21
-23.398
0
LINE
8
Black
10
43.9575
20
-23.398
11
43.9575
21
-24.298
0
LINE
8
Black
10
32.8733
20
-23.8783
11
32.4576
21
-24.0505
0
LINE
8
Black
10
32.4576
20
-24.0505
11
32.2509
21
-23.5516
0
LINE
8
Black
10
32.2509
20
-23.5516
11
32.6667
21
-23.3794
0
LINE
8
Black
10
32.6667
20
-23.3794
11
32.8733
21
-23.8783
0
LINE
8
Black
10
34.9438
20
-22.7869
11
34.237
21
-23.0796
0
LINE
8
Black
10
34.237
20
-23.0796
11
33.8926
21
-22.2481
0
LINE
8
Black
10
33.8926
20
-22.2481
11
34.5993
21
-21.9554
0
LINE
8
Black
10
34.5993
20
-21.9554
11
34.9438
21
-22.7869
0
LINE
8
Black
10
55.0074
20
-22.2481
11
54.663
21
-23.0796
0
LINE
8
Black
10
54.663
20
-23.0796
11
53.9562
21
-22.7869
0
LINE
8
Black
10
53.9562
20
-22.7869
11
54.3007
21
-21.9554
0
LINE
8
Black
10
54.3007
20
-21.9554
11
55.0074
21
-22.2481
0
LINE
8
Black
10
50.5962
20
-22.235
11
50.3895
21
-22.7339
0
LINE
8
Black
10
50.3895
20
-22.7339
11
49.9738
21
-22.5617
0
LINE
8
Black
10
49.9738
20
-22.5617
11
50.1804
21
-22.0628
0
LINE
8
Black
10
50.1804
20
-22.0628
11
50.5962
21
-22.235
0
LINE
8
Black
10
36.5605
20
-22.1172
11
35.8538
21
-22.4099
0
LINE
8
Black
10
35.8538
20
-22.4099
11
35.5094
21
-21.5784
0
LINE
8
Black
10
35.5094
20
-21.5784
11
36.2161
21
-21.2857
0
LINE
8
Black
10
36.2161
20
-21.2857
11
36.5605
21
-22.1172
0
LINE
8
Black
10
53.3906
20
-21.5784
11
53.0462
21
-22.4099
0
LINE
8
Black
10
53.0462
20
-22.4099
11
52.3394
21
-22.1172
0
LINE
8
Black
10
52.3394
20
-22.1172
11
52.6839
21
-21.2857
0
LINE
8
Black
10
52.6839
20
-21.2857
11
53.3906
21
-21.5784
0
LINE
8
Black
10
41.627
20
-22.114
11
41.177
21
-22.114
0
LINE
8
Black
10
41.177
20
-22.114
11
41.177
21
-21.574
0
LINE
8
Black
10
41.177
20
-21.574
11
41.627
21
-21.574
0
LINE
8
Black
10
41.627
20
-21.574
11
41.627
21
-22.114
0
LINE
8
Black
10
51.0171
20
-21.2187
11
50.8105
21
-21.7176
0
LINE
8
Black
10
50.8105
20
-21.7176
11
50.3947
21
-21.5454
0
LINE
8
Black
10
50.3947
20
-21.5454
11
50.6014
21
-21.0465
0
LINE
8
Black
10
50.6014
20
-21.0465
11
51.0171
21
-21.2187
0
LINE
8
Black
10
41.627
20
-21.014
11
41.177
21
-21.014
0
LINE
8
Black
10
41.177
20
-21.014
11
41.177
21
-20.474
0
LINE
8
Black
10
41.177
20
-20.474
11
41.627
21
-20.474
0
LINE
8
Black
10
41.627
20
-20.474
11
41.627
21
-21.014
0
LINE
8
Black
10
45.7075
20
-20.798
11
44.9425
21
-20.798
0
LINE
8
Black
10
44.9425
20
-20.798
11
44.9425
21
-19.898
0
LINE
8
Black
10
44.9425
20
-19.898
11
45.7075
21
-19.898
0
LINE
8
Black
10
45.7075
20
-19.898
11
45.7075
21
-20.798
0
LINE
8
Black
10
43.9575
20
-20.798
11
43.1925
21
-20.798
0
LINE
8
Black
10
43.1925
20
-20.798
11
43.1925
21
-19.898
0
LINE
8
Black
10
43.1925
20
-19.898
11
43.9575
21
-19.898
0
LINE
8
Black
10
43.9575
20
-19.898
11
43.9575
21
-20.798
  0
ENDSEC
  0
EOF
