G04 #@! TF.FileFunction,Legend,Bot*
%FSLAX46Y46*%
G04 Gerber Fmt 4.6, Leading zero omitted, Abs format (unit mm)*
G04 Created by KiCad (PCBNEW 4.1.0-alpha+201608211231+7083~46~ubuntu16.04.1-product) date Fri Aug 26 12:21:51 2016*
%MOMM*%
%LPD*%
G01*
G04 APERTURE LIST*
%ADD10C,0.100000*%
%ADD11C,0.150000*%
%ADD12C,0.300000*%
G04 APERTURE END LIST*
D10*
D11*
X119101904Y-113180761D02*
X118959047Y-113228380D01*
X118720952Y-113228380D01*
X118625714Y-113180761D01*
X118578095Y-113133142D01*
X118530476Y-113037904D01*
X118530476Y-112942666D01*
X118578095Y-112847428D01*
X118625714Y-112799809D01*
X118720952Y-112752190D01*
X118911428Y-112704571D01*
X119006666Y-112656952D01*
X119054285Y-112609333D01*
X119101904Y-112514095D01*
X119101904Y-112418857D01*
X119054285Y-112323619D01*
X119006666Y-112276000D01*
X118911428Y-112228380D01*
X118673333Y-112228380D01*
X118530476Y-112276000D01*
X118197142Y-112228380D02*
X117959047Y-113228380D01*
X117768571Y-112514095D01*
X117578095Y-113228380D01*
X117340000Y-112228380D01*
X116387619Y-113133142D02*
X116435238Y-113180761D01*
X116578095Y-113228380D01*
X116673333Y-113228380D01*
X116816190Y-113180761D01*
X116911428Y-113085523D01*
X116959047Y-112990285D01*
X117006666Y-112799809D01*
X117006666Y-112656952D01*
X116959047Y-112466476D01*
X116911428Y-112371238D01*
X116816190Y-112276000D01*
X116673333Y-112228380D01*
X116578095Y-112228380D01*
X116435238Y-112276000D01*
X116387619Y-112323619D01*
X115482857Y-113228380D02*
X115959047Y-113228380D01*
X115959047Y-112228380D01*
X115149523Y-113228380D02*
X115149523Y-112228380D01*
X114578095Y-113228380D02*
X115006666Y-112656952D01*
X114578095Y-112228380D02*
X115149523Y-112799809D01*
X118959047Y-110640761D02*
X118816190Y-110688380D01*
X118578095Y-110688380D01*
X118482857Y-110640761D01*
X118435238Y-110593142D01*
X118387619Y-110497904D01*
X118387619Y-110402666D01*
X118435238Y-110307428D01*
X118482857Y-110259809D01*
X118578095Y-110212190D01*
X118768571Y-110164571D01*
X118863809Y-110116952D01*
X118911428Y-110069333D01*
X118959047Y-109974095D01*
X118959047Y-109878857D01*
X118911428Y-109783619D01*
X118863809Y-109736000D01*
X118768571Y-109688380D01*
X118530476Y-109688380D01*
X118387619Y-109736000D01*
X118054285Y-109688380D02*
X117816190Y-110688380D01*
X117625714Y-109974095D01*
X117435238Y-110688380D01*
X117197142Y-109688380D01*
X116816190Y-110688380D02*
X116816190Y-109688380D01*
X116578095Y-109688380D01*
X116435238Y-109736000D01*
X116340000Y-109831238D01*
X116292380Y-109926476D01*
X116244761Y-110116952D01*
X116244761Y-110259809D01*
X116292380Y-110450285D01*
X116340000Y-110545523D01*
X116435238Y-110640761D01*
X116578095Y-110688380D01*
X116816190Y-110688380D01*
X115816190Y-110688380D02*
X115816190Y-109688380D01*
X115149523Y-109688380D02*
X114959047Y-109688380D01*
X114863809Y-109736000D01*
X114768571Y-109831238D01*
X114720952Y-110021714D01*
X114720952Y-110355047D01*
X114768571Y-110545523D01*
X114863809Y-110640761D01*
X114959047Y-110688380D01*
X115149523Y-110688380D01*
X115244761Y-110640761D01*
X115340000Y-110545523D01*
X115387619Y-110355047D01*
X115387619Y-110021714D01*
X115340000Y-109831238D01*
X115244761Y-109736000D01*
X115149523Y-109688380D01*
D12*
X112588000Y-80151857D02*
X113088000Y-80151857D01*
X113088000Y-80937571D02*
X113088000Y-79437571D01*
X112373714Y-79437571D01*
X111230857Y-80866142D02*
X111373714Y-80937571D01*
X111659428Y-80937571D01*
X111802285Y-80866142D01*
X111873714Y-80723285D01*
X111873714Y-80151857D01*
X111802285Y-80009000D01*
X111659428Y-79937571D01*
X111373714Y-79937571D01*
X111230857Y-80009000D01*
X111159428Y-80151857D01*
X111159428Y-80294714D01*
X111873714Y-80437571D01*
X109873714Y-80937571D02*
X109873714Y-80151857D01*
X109945142Y-80009000D01*
X110087999Y-79937571D01*
X110373714Y-79937571D01*
X110516571Y-80009000D01*
X109873714Y-80866142D02*
X110016571Y-80937571D01*
X110373714Y-80937571D01*
X110516571Y-80866142D01*
X110587999Y-80723285D01*
X110587999Y-80580428D01*
X110516571Y-80437571D01*
X110373714Y-80366142D01*
X110016571Y-80366142D01*
X109873714Y-80294714D01*
X109373714Y-79937571D02*
X108802285Y-79937571D01*
X109159428Y-79437571D02*
X109159428Y-80723285D01*
X109087999Y-80866142D01*
X108945142Y-80937571D01*
X108802285Y-80937571D01*
X108302285Y-80937571D02*
X108302285Y-79437571D01*
X107659428Y-80937571D02*
X107659428Y-80151857D01*
X107730857Y-80009000D01*
X107873714Y-79937571D01*
X108087999Y-79937571D01*
X108230857Y-80009000D01*
X108302285Y-80080428D01*
X106373714Y-80866142D02*
X106516571Y-80937571D01*
X106802285Y-80937571D01*
X106945142Y-80866142D01*
X107016571Y-80723285D01*
X107016571Y-80151857D01*
X106945142Y-80009000D01*
X106802285Y-79937571D01*
X106516571Y-79937571D01*
X106373714Y-80009000D01*
X106302285Y-80151857D01*
X106302285Y-80294714D01*
X107016571Y-80437571D01*
X105659428Y-80937571D02*
X105659428Y-79937571D01*
X105659428Y-80223285D02*
X105587999Y-80080428D01*
X105516571Y-80009000D01*
X105373714Y-79937571D01*
X105230857Y-79937571D01*
X104516571Y-80937571D02*
X104659428Y-80866142D01*
X104730857Y-80723285D01*
X104730857Y-79437571D01*
X103945142Y-80937571D02*
X103945142Y-79937571D01*
X103945142Y-79437571D02*
X104016571Y-79509000D01*
X103945142Y-79580428D01*
X103873714Y-79509000D01*
X103945142Y-79437571D01*
X103945142Y-79580428D01*
X102587999Y-79937571D02*
X102587999Y-81151857D01*
X102659428Y-81294714D01*
X102730857Y-81366142D01*
X102873714Y-81437571D01*
X103087999Y-81437571D01*
X103230857Y-81366142D01*
X102587999Y-80866142D02*
X102730857Y-80937571D01*
X103016571Y-80937571D01*
X103159428Y-80866142D01*
X103230857Y-80794714D01*
X103302285Y-80651857D01*
X103302285Y-80223285D01*
X103230857Y-80080428D01*
X103159428Y-80009000D01*
X103016571Y-79937571D01*
X102730857Y-79937571D01*
X102587999Y-80009000D01*
X101873714Y-80937571D02*
X101873714Y-79437571D01*
X101230857Y-80937571D02*
X101230857Y-80151857D01*
X101302285Y-80009000D01*
X101445142Y-79937571D01*
X101659428Y-79937571D01*
X101802285Y-80009000D01*
X101873714Y-80080428D01*
X100730857Y-79937571D02*
X100159428Y-79937571D01*
X100516571Y-79437571D02*
X100516571Y-80723285D01*
X100445142Y-80866142D01*
X100302285Y-80937571D01*
X100159428Y-80937571D01*
X98516571Y-80937571D02*
X98516571Y-79437571D01*
X97945142Y-79437571D01*
X97802285Y-79509000D01*
X97730857Y-79580428D01*
X97659428Y-79723285D01*
X97659428Y-79937571D01*
X97730857Y-80080428D01*
X97802285Y-80151857D01*
X97945142Y-80223285D01*
X98516571Y-80223285D01*
X97016571Y-80937571D02*
X97016571Y-79937571D01*
X97016571Y-80223285D02*
X96945142Y-80080428D01*
X96873714Y-80009000D01*
X96730857Y-79937571D01*
X96587999Y-79937571D01*
X95873714Y-80937571D02*
X96016571Y-80866142D01*
X96087999Y-80794714D01*
X96159428Y-80651857D01*
X96159428Y-80223285D01*
X96087999Y-80080428D01*
X96016571Y-80009000D01*
X95873714Y-79937571D01*
X95659428Y-79937571D01*
X95516571Y-80009000D01*
X95445142Y-80080428D01*
X95373714Y-80223285D01*
X95373714Y-80651857D01*
X95445142Y-80794714D01*
X95516571Y-80866142D01*
X95659428Y-80937571D01*
X95873714Y-80937571D01*
X94945142Y-79937571D02*
X94373714Y-79937571D01*
X94730857Y-79437571D02*
X94730857Y-80723285D01*
X94659428Y-80866142D01*
X94516571Y-80937571D01*
X94373714Y-80937571D01*
X93659428Y-80937571D02*
X93802285Y-80866142D01*
X93873714Y-80794714D01*
X93945142Y-80651857D01*
X93945142Y-80223285D01*
X93873714Y-80080428D01*
X93802285Y-80009000D01*
X93659428Y-79937571D01*
X93445142Y-79937571D01*
X93302285Y-80009000D01*
X93230857Y-80080428D01*
X93159428Y-80223285D01*
X93159428Y-80651857D01*
X93230857Y-80794714D01*
X93302285Y-80866142D01*
X93445142Y-80937571D01*
X93659428Y-80937571D01*
X92730857Y-79937571D02*
X92159428Y-79937571D01*
X92516571Y-79437571D02*
X92516571Y-80723285D01*
X92445142Y-80866142D01*
X92302285Y-80937571D01*
X92159428Y-80937571D01*
X91802285Y-79937571D02*
X91445142Y-80937571D01*
X91087999Y-79937571D02*
X91445142Y-80937571D01*
X91587999Y-81294714D01*
X91659428Y-81366142D01*
X91802285Y-81437571D01*
X90516571Y-79937571D02*
X90516571Y-81437571D01*
X90516571Y-80009000D02*
X90373714Y-79937571D01*
X90087999Y-79937571D01*
X89945142Y-80009000D01*
X89873714Y-80080428D01*
X89802285Y-80223285D01*
X89802285Y-80651857D01*
X89873714Y-80794714D01*
X89945142Y-80866142D01*
X90087999Y-80937571D01*
X90373714Y-80937571D01*
X90516571Y-80866142D01*
X88587999Y-80866142D02*
X88730857Y-80937571D01*
X89016571Y-80937571D01*
X89159428Y-80866142D01*
X89230857Y-80723285D01*
X89230857Y-80151857D01*
X89159428Y-80009000D01*
X89016571Y-79937571D01*
X88730857Y-79937571D01*
X88587999Y-80009000D01*
X88516571Y-80151857D01*
X88516571Y-80294714D01*
X89230857Y-80437571D01*
X102802285Y-83487571D02*
X103302285Y-82773285D01*
X103659428Y-83487571D02*
X103659428Y-81987571D01*
X103088000Y-81987571D01*
X102945142Y-82059000D01*
X102873714Y-82130428D01*
X102802285Y-82273285D01*
X102802285Y-82487571D01*
X102873714Y-82630428D01*
X102945142Y-82701857D01*
X103088000Y-82773285D01*
X103659428Y-82773285D01*
X101588000Y-83416142D02*
X101730857Y-83487571D01*
X102016571Y-83487571D01*
X102159428Y-83416142D01*
X102230857Y-83273285D01*
X102230857Y-82701857D01*
X102159428Y-82559000D01*
X102016571Y-82487571D01*
X101730857Y-82487571D01*
X101588000Y-82559000D01*
X101516571Y-82701857D01*
X101516571Y-82844714D01*
X102230857Y-82987571D01*
X101016571Y-82487571D02*
X100659428Y-83487571D01*
X100302285Y-82487571D01*
X98659428Y-83059000D02*
X97945142Y-83059000D01*
X98802285Y-83487571D02*
X98302285Y-81987571D01*
X97802285Y-83487571D01*
M02*
