M48
;DRILL file {KiCad 201609251018+7233~55~ubuntu16.04.1-} date Mon Sep 26 23:00:08 2016
;FORMAT={-:-/ absolute / inch / decimal}
FMAT,2
INCH,TZ
T1C0.013
T2C0.015
T3C0.020
T4C0.033
T5C0.045
T6C0.087
%
G90
G05
M72
T1
X1.69Y-2.1362
X1.69Y-2.1642
X1.922Y-2.382
X1.97Y-2.59
X2.05Y-1.58
X2.16Y-1.95
X2.23Y-2.09
X2.305Y-1.85
T2
X0.945Y-1.715
X0.945Y-1.795
X0.9891Y-1.4835
X0.9929Y-2.0257
X1.0197Y-1.4096
X1.0235Y-2.0996
X1.09Y-1.76
X1.1364Y-1.5067
X1.1441Y-2.0118
X1.149Y-1.2126
X1.156Y-2.2945
X1.2055Y-1.156
X1.2126Y-2.351
X1.2762Y-1.2762
X1.2904Y-2.2238
X1.4004Y-1.0235
X1.4096Y-2.4803
X1.4743Y-0.9929
X1.4835Y-2.5109
X1.4936Y-1.131
X1.505Y-1.745
X1.59Y-1.46
X1.6033Y-1.665
X1.61Y-1.94
X1.63Y-1.56
X1.63Y-1.9
X1.7Y-1.26
X1.7Y-2.31
X1.705Y-0.945
X1.75Y-1.08
X1.785Y-0.945
X1.8Y-1.33
X1.82Y-1.91
X1.92Y-1.85
X1.96Y-1.41
X1.9606Y-1.6594
X1.98Y-1.62
X2.0064Y-1.131
X2.0165Y-0.9891
X2.0257Y-2.5071
X2.03Y-1.78
X2.03Y-1.86
X2.0904Y-1.0197
X2.0996Y-2.4765
X2.1505Y-1.8895
X2.17Y-1.29
X2.18Y-1.75
X2.2874Y-1.149
X2.2945Y-2.344
X2.32Y-1.78
X2.33Y-1.5787
X2.33Y-1.615
X2.33Y-1.71
X2.344Y-1.2055
X2.351Y-2.2874
X2.39Y-1.61
X2.4765Y-1.4004
X2.4803Y-2.0904
X2.5071Y-1.4743
X2.5109Y-2.0165
X2.555Y-1.705
X2.555Y-1.785
T3
X1.37Y-1.85
X1.3905Y-2.16
X1.41Y-1.23
X1.41Y-1.95
X1.5Y-1.8
X1.51Y-2.32
X1.53Y-2.05
X1.59Y-2.31
X1.7402Y-1.7502
X1.75Y-2.54
X2.03Y-2.3055
X2.04Y-2.01
T4
X1.6516Y-2.48
X1.8484Y-2.48
T5
X1.6122Y-2.5863
X1.8878Y-2.5863
T6
X1.16Y-1.63
X2.32Y-1.95
T0
M30
