  0
SECTION
  2
HEADER
  9
$ANGBASE
  50
0.0
  9
$ANGDIR
  70
  1
  9
$MEASUREMENT
  70
0
  0
ENDSEC
  0
SECTION
  2
TABLES
  0
TABLE
  2
LTYPE
  70
1
  0
LTYPE
  2
CONTINUOUS
  70
0
  3
Solid line
  72
65
  73
0
  40
0.0
  0
ENDTAB
  0
TABLE
  2
STYLE
  70
4
  0
STYLE
  2
KICAD
  70
0
  40
0
  41
1
  42
1
  50
0
  71
0
  3
isocp.shx
  0
STYLE
  2
KICADB
  70
0
  40
0
  41
1
  42
1
  50
0
  71
0
  3
isocp.shx
  0
STYLE
  2
KICADI
  70
0
  40
0
  41
1
  42
1
  50
15
  71
0
  3
isocp.shx
  0
STYLE
  2
KICADBI
  70
0
  40
0
  41
1
  42
1
  50
15
  71
0
  3
isocp.shx
  0
ENDTAB
  0
TABLE
  2
LAYER
  70
30
  0
LAYER
  2
BLACK
  70
0
  62
7
  6
CONTINUOUS
  0
LAYER
  2
GRAY1
  70
0
  62
251
  6
CONTINUOUS
  0
LAYER
  2
GRAY2
  70
0
  62
8
  6
CONTINUOUS
  0
LAYER
  2
GRAY3
  70
0
  62
9
  6
CONTINUOUS
  0
LAYER
  2
WHITE
  70
0
  62
7
  6
CONTINUOUS
  0
LAYER
  2
LYELLOW
  70
0
  62
51
  6
CONTINUOUS
  0
LAYER
  2
BLUE1
  70
0
  62
178
  6
CONTINUOUS
  0
LAYER
  2
GREEN1
  70
0
  62
98
  6
CONTINUOUS
  0
LAYER
  2
CYAN1
  70
0
  62
138
  6
CONTINUOUS
  0
LAYER
  2
RED1
  70
0
  62
18
  6
CONTINUOUS
  0
LAYER
  2
MAGENTA1
  70
0
  62
228
  6
CONTINUOUS
  0
LAYER
  2
BROWN1
  70
0
  62
58
  6
CONTINUOUS
  0
LAYER
  2
BLUE2
  70
0
  62
5
  6
CONTINUOUS
  0
LAYER
  2
GREEN2
  70
0
  62
3
  6
CONTINUOUS
  0
LAYER
  2
CYAN2
  70
0
  62
4
  6
CONTINUOUS
  0
LAYER
  2
RED2
  70
0
  62
1
  6
CONTINUOUS
  0
LAYER
  2
MAGENTA2
  70
0
  62
6
  6
CONTINUOUS
  0
LAYER
  2
BROWN2
  70
0
  62
54
  6
CONTINUOUS
  0
LAYER
  2
BLUE3
  70
0
  62
171
  6
CONTINUOUS
  0
LAYER
  2
GREEN3
  70
0
  62
91
  6
CONTINUOUS
  0
LAYER
  2
CYAN3
  70
0
  62
131
  6
CONTINUOUS
  0
LAYER
  2
RED3
  70
0
  62
11
  6
CONTINUOUS
  0
LAYER
  2
MAGENTA3
  70
0
  62
221
  6
CONTINUOUS
  0
LAYER
  2
YELLOW3
  70
0
  62
2
  6
CONTINUOUS
  0
LAYER
  2
BLUE4
  70
0
  62
5
  6
CONTINUOUS
  0
LAYER
  2
GREEN4
  70
0
  62
3
  6
CONTINUOUS
  0
LAYER
  2
CYAN4
  70
0
  62
4
  6
CONTINUOUS
  0
LAYER
  2
RED4
  70
0
  62
1
  6
CONTINUOUS
  0
LAYER
  2
MAGENTA4
  70
0
  62
6
  6
CONTINUOUS
  0
LAYER
  2
YELLOW4
  70
0
  62
2
  6
CONTINUOUS
  0
ENDTAB
  0
ENDSEC
  0
SECTION
  2
ENTITIES
0
LINE
8
Black
10
48.1184
20
-67.9847
11
48.2665
21
-68.0702
0
LINE
8
Black
10
48.2665
20
-68.0702
11
48.3765
21
-68.2012
0
LINE
8
Black
10
48.3765
20
-68.2012
11
48.435
21
-68.3619
0
LINE
8
Black
10
48.435
20
-68.3619
11
48.435
21
-68.533
0
LINE
8
Black
10
48.435
20
-68.533
11
48.3765
21
-68.6937
0
LINE
8
Black
10
48.3765
20
-68.6937
11
48.2665
21
-68.8247
0
LINE
8
Black
10
48.2665
20
-68.8247
11
48.1184
21
-68.9102
0
LINE
8
Black
10
48.1184
20
-68.9102
11
47.95
21
-68.9399
0
LINE
8
Black
10
47.95
20
-68.9399
11
47.7816
21
-68.9102
0
LINE
8
Black
10
47.7816
20
-68.9102
11
47.6335
21
-68.8247
0
LINE
8
Black
10
47.6335
20
-68.8247
11
47.5235
21
-68.6937
0
LINE
8
Black
10
47.5235
20
-68.6937
11
47.465
21
-68.533
0
LINE
8
Black
10
47.465
20
-68.533
11
47.465
21
-68.3619
0
LINE
8
Black
10
47.465
20
-68.3619
11
47.5235
21
-68.2012
0
LINE
8
Black
10
47.5235
20
-68.2012
11
47.6335
21
-68.0702
0
LINE
8
Black
10
47.6335
20
-68.0702
11
47.7816
21
-67.9847
0
LINE
8
Black
10
47.7816
20
-67.9847
11
47.95
21
-67.955
0
LINE
8
Black
10
47.95
20
-67.955
11
48.1184
21
-67.9847
0
LINE
8
Black
10
41.1184
20
-67.9847
11
41.2665
21
-68.0702
0
LINE
8
Black
10
41.2665
20
-68.0702
11
41.3765
21
-68.2012
0
LINE
8
Black
10
41.3765
20
-68.2012
11
41.435
21
-68.3619
0
LINE
8
Black
10
41.435
20
-68.3619
11
41.435
21
-68.533
0
LINE
8
Black
10
41.435
20
-68.533
11
41.3765
21
-68.6937
0
LINE
8
Black
10
41.3765
20
-68.6937
11
41.2665
21
-68.8247
0
LINE
8
Black
10
41.2665
20
-68.8247
11
41.1184
21
-68.9102
0
LINE
8
Black
10
41.1184
20
-68.9102
11
40.95
21
-68.9399
0
LINE
8
Black
10
40.95
20
-68.9399
11
40.7816
21
-68.9102
0
LINE
8
Black
10
40.7816
20
-68.9102
11
40.6335
21
-68.8247
0
LINE
8
Black
10
40.6335
20
-68.8247
11
40.5235
21
-68.6937
0
LINE
8
Black
10
40.5235
20
-68.6937
11
40.465
21
-68.533
0
LINE
8
Black
10
40.465
20
-68.533
11
40.465
21
-68.3619
0
LINE
8
Black
10
40.465
20
-68.3619
11
40.5235
21
-68.2012
0
LINE
8
Black
10
40.5235
20
-68.2012
11
40.6335
21
-68.0702
0
LINE
8
Black
10
40.6335
20
-68.0702
11
40.7816
21
-67.9847
0
LINE
8
Black
10
40.7816
20
-67.9847
11
40.95
21
-67.955
0
LINE
8
Black
10
40.95
20
-67.955
11
41.1184
21
-67.9847
0
LINE
8
Black
10
43.2766
20
-66.1747
11
43.0234
21
-66.1747
0
LINE
8
Black
10
43.0234
20
-66.1747
11
43.0234
21
-65.3202
0
LINE
8
Black
10
43.0234
20
-65.3202
11
43.2766
21
-65.3202
0
LINE
8
Black
10
43.2766
20
-65.3202
11
43.2766
21
-66.1747
0
LINE
8
Black
10
43.9266
20
-66.1747
11
43.6734
21
-66.1747
0
LINE
8
Black
10
43.6734
20
-66.1747
11
43.6734
21
-65.3202
0
LINE
8
Black
10
43.6734
20
-65.3202
11
43.9266
21
-65.3202
0
LINE
8
Black
10
43.9266
20
-65.3202
11
43.9266
21
-66.1747
0
LINE
8
Black
10
44.5766
20
-66.1747
11
44.3234
21
-66.1747
0
LINE
8
Black
10
44.3234
20
-66.1747
11
44.3234
21
-65.3202
0
LINE
8
Black
10
44.3234
20
-65.3202
11
44.5766
21
-65.3202
0
LINE
8
Black
10
44.5766
20
-65.3202
11
44.5766
21
-66.1747
0
LINE
8
Black
10
45.2266
20
-66.1747
11
44.9734
21
-66.1747
0
LINE
8
Black
10
44.9734
20
-66.1747
11
44.9734
21
-65.3202
0
LINE
8
Black
10
44.9734
20
-65.3202
11
45.2266
21
-65.3202
0
LINE
8
Black
10
45.2266
20
-65.3202
11
45.2266
21
-66.1747
0
LINE
8
Black
10
45.8766
20
-66.1747
11
45.6234
21
-66.1747
0
LINE
8
Black
10
45.6234
20
-66.1747
11
45.6234
21
-65.3202
0
LINE
8
Black
10
45.6234
20
-65.3202
11
45.8766
21
-65.3202
0
LINE
8
Black
10
45.8766
20
-65.3202
11
45.8766
21
-66.1747
0
LINE
8
Black
10
42.2046
20
-65.4649
11
42.295
21
-65.5171
0
LINE
8
Black
10
42.295
20
-65.5171
11
42.3621
21
-65.5971
0
LINE
8
Black
10
42.3621
20
-65.5971
11
42.3978
21
-65.6952
0
LINE
8
Black
10
42.3978
20
-65.6952
11
42.3978
21
-65.7997
0
LINE
8
Black
10
42.3978
20
-65.7997
11
42.3621
21
-65.8978
0
LINE
8
Black
10
42.3621
20
-65.8978
11
42.295
21
-65.9778
0
LINE
8
Black
10
42.295
20
-65.9778
11
42.2046
21
-66.03
0
LINE
8
Black
10
42.2046
20
-66.03
11
42.1017
21
-66.0481
0
LINE
8
Black
10
42.1017
20
-66.0481
11
41.7983
21
-66.0481
0
LINE
8
Black
10
41.7983
20
-66.0481
11
41.6954
21
-66.03
0
LINE
8
Black
10
41.6954
20
-66.03
11
41.605
21
-65.9778
0
LINE
8
Black
10
41.605
20
-65.9778
11
41.5379
21
-65.8978
0
LINE
8
Black
10
41.5379
20
-65.8978
11
41.5022
21
-65.7997
0
LINE
8
Black
10
41.5022
20
-65.7997
11
41.5022
21
-65.6952
0
LINE
8
Black
10
41.5022
20
-65.6952
11
41.5379
21
-65.5971
0
LINE
8
Black
10
41.5379
20
-65.5971
11
41.605
21
-65.5171
0
LINE
8
Black
10
41.605
20
-65.5171
11
41.6954
21
-65.4649
0
LINE
8
Black
10
41.6954
20
-65.4649
11
41.7983
21
-65.4468
0
LINE
8
Black
10
41.7983
20
-65.4468
11
42.1017
21
-65.4468
0
LINE
8
Black
10
42.1017
20
-65.4468
11
42.2046
21
-65.4649
0
LINE
8
Black
10
47.2046
20
-65.4649
11
47.295
21
-65.5171
0
LINE
8
Black
10
47.295
20
-65.5171
11
47.3621
21
-65.5971
0
LINE
8
Black
10
47.3621
20
-65.5971
11
47.3978
21
-65.6952
0
LINE
8
Black
10
47.3978
20
-65.6952
11
47.3978
21
-65.7997
0
LINE
8
Black
10
47.3978
20
-65.7997
11
47.3621
21
-65.8978
0
LINE
8
Black
10
47.3621
20
-65.8978
11
47.295
21
-65.9778
0
LINE
8
Black
10
47.295
20
-65.9778
11
47.2046
21
-66.03
0
LINE
8
Black
10
47.2046
20
-66.03
11
47.1017
21
-66.0481
0
LINE
8
Black
10
47.1017
20
-66.0481
11
46.7983
21
-66.0481
0
LINE
8
Black
10
46.7983
20
-66.0481
11
46.6954
21
-66.03
0
LINE
8
Black
10
46.6954
20
-66.03
11
46.605
21
-65.9778
0
LINE
8
Black
10
46.605
20
-65.9778
11
46.5379
21
-65.8978
0
LINE
8
Black
10
46.5379
20
-65.8978
11
46.5022
21
-65.7997
0
LINE
8
Black
10
46.5022
20
-65.7997
11
46.5022
21
-65.6952
0
LINE
8
Black
10
46.5022
20
-65.6952
11
46.5379
21
-65.5971
0
LINE
8
Black
10
46.5379
20
-65.5971
11
46.605
21
-65.5171
0
LINE
8
Black
10
46.605
20
-65.5171
11
46.6954
21
-65.4649
0
LINE
8
Black
10
46.6954
20
-65.4649
11
46.7983
21
-65.4468
0
LINE
8
Black
10
46.7983
20
-65.4468
11
47.1017
21
-65.4468
0
LINE
8
Black
10
47.1017
20
-65.4468
11
47.2046
21
-65.4649
0
LINE
8
Black
10
59.3511
20
-63.4432
11
58.6349
21
-64.1594
0
LINE
8
Black
10
58.6349
20
-64.1594
11
57.1131
21
-62.6375
0
LINE
8
Black
10
57.1131
20
-62.6375
11
57.8292
21
-61.9214
0
LINE
8
Black
10
57.8292
20
-61.9214
11
59.3511
21
-63.4432
0
LINE
8
Black
10
50.7038
20
-62.8842
11
50.1341
21
-62.8842
0
LINE
8
Black
10
50.1341
20
-62.8842
11
50.1341
21
-62.5677
0
LINE
8
Black
10
50.1341
20
-62.5677
11
50.7038
21
-62.5677
0
LINE
8
Black
10
50.7038
20
-62.5677
11
50.7038
21
-62.8842
0
LINE
8
Black
10
50.7038
20
-61.3842
11
50.1341
21
-61.3842
0
LINE
8
Black
10
50.1341
20
-61.3842
11
50.1341
21
-61.0677
0
LINE
8
Black
10
50.1341
20
-61.0677
11
50.7038
21
-61.0677
0
LINE
8
Black
10
50.7038
20
-61.0677
11
50.7038
21
-61.3842
0
LINE
8
Black
10
64.1594
20
-58.6349
11
63.4432
21
-59.3511
0
LINE
8
Black
10
63.4432
20
-59.3511
11
61.9214
21
-57.8292
0
LINE
8
Black
10
61.9214
20
-57.8292
11
62.6375
21
-57.1131
0
LINE
8
Black
10
62.6375
20
-57.1131
11
64.1594
21
-58.6349
0
LINE
8
Black
10
57.0118
20
-57.9784
11
56.5642
21
-58.426
0
LINE
8
Black
10
56.5642
20
-58.426
11
54.9976
21
-56.8594
0
LINE
8
Black
10
54.9976
20
-56.8594
11
55.4452
21
-56.4118
0
LINE
8
Black
10
55.4452
20
-56.4118
11
57.0118
21
-57.9784
0
LINE
8
Black
10
24.3346
20
-56.765
11
23.3404
21
-57.1769
0
LINE
8
Black
10
23.3404
20
-57.1769
11
23.0497
21
-56.4751
0
LINE
8
Black
10
23.0497
20
-56.4751
11
24.0439
21
-56.0633
0
LINE
8
Black
10
24.0439
20
-56.0633
11
24.3346
21
-56.765
0
LINE
8
Black
10
65.8503
20
-56.4751
11
65.5596
21
-57.1769
0
LINE
8
Black
10
65.5596
20
-57.1769
11
64.5654
21
-56.765
0
LINE
8
Black
10
64.5654
20
-56.765
11
64.8561
21
-56.0633
0
LINE
8
Black
10
64.8561
20
-56.0633
11
65.8503
21
-56.4751
0
LINE
8
Black
10
58.426
20
-56.5642
11
57.9784
21
-57.0118
0
LINE
8
Black
10
57.9784
20
-57.0118
11
56.4118
21
-55.4452
0
LINE
8
Black
10
56.4118
20
-55.4452
11
56.8594
21
-54.9976
0
LINE
8
Black
10
56.8594
20
-54.9976
11
58.426
21
-56.5642
0
LINE
8
Black
10
39.6825
20
-55.4431
11
39.2394
21
-55.4431
0
LINE
8
Black
10
39.2394
20
-55.4431
11
39.2394
21
-55.2849
0
LINE
8
Black
10
39.2394
20
-55.2849
11
39.6825
21
-55.2849
0
LINE
8
Black
10
39.6825
20
-55.2849
11
39.6825
21
-55.4431
0
LINE
8
Black
10
41.5326
20
-55.4431
11
41.0894
21
-55.4431
0
LINE
8
Black
10
41.0894
20
-55.4431
11
41.0894
21
-55.2849
0
LINE
8
Black
10
41.0894
20
-55.2849
11
41.5326
21
-55.2849
0
LINE
8
Black
10
41.5326
20
-55.2849
11
41.5326
21
-55.4431
0
LINE
8
Black
10
40.569
20
-55.432
11
40.203
21
-55.432
0
LINE
8
Black
10
40.203
20
-55.432
11
40.203
21
-55.006
0
LINE
8
Black
10
40.203
20
-55.006
11
40.569
21
-55.006
0
LINE
8
Black
10
40.569
20
-55.006
11
40.569
21
-55.432
0
LINE
8
Black
10
48.0237
20
-55.0295
11
47.6123
21
-55.0295
0
LINE
8
Black
10
47.6123
20
-55.0295
11
47.6123
21
-54.3585
0
LINE
8
Black
10
47.6123
20
-54.3585
11
48.0237
21
-54.3585
0
LINE
8
Black
10
48.0237
20
-54.3585
11
48.0237
21
-55.0295
0
LINE
8
Black
10
49.9237
20
-55.0295
11
49.5123
21
-55.0295
0
LINE
8
Black
10
49.5123
20
-55.0295
11
49.5123
21
-54.3585
0
LINE
8
Black
10
49.5123
20
-54.3585
11
49.9237
21
-54.3585
0
LINE
8
Black
10
49.9237
20
-54.3585
11
49.9237
21
-55.0295
0
LINE
8
Black
10
41.5326
20
-54.9431
11
41.0894
21
-54.9431
0
LINE
8
Black
10
41.0894
20
-54.9431
11
41.0894
21
-54.7849
0
LINE
8
Black
10
41.0894
20
-54.7849
11
41.5326
21
-54.7849
0
LINE
8
Black
10
41.5326
20
-54.7849
11
41.5326
21
-54.9431
0
LINE
8
Black
10
39.6825
20
-54.9431
11
39.2394
21
-54.9431
0
LINE
8
Black
10
39.2394
20
-54.9431
11
39.2394
21
-54.7849
0
LINE
8
Black
10
39.2394
20
-54.7849
11
39.6825
21
-54.7849
0
LINE
8
Black
10
39.6825
20
-54.7849
11
39.6825
21
-54.9431
0
LINE
8
Black
10
64.2567
20
-54.6477
11
64.1356
21
-54.9401
0
LINE
8
Black
10
64.1356
20
-54.9401
11
63.5508
21
-54.6979
0
LINE
8
Black
10
63.5508
20
-54.6979
11
63.6719
21
-54.4055
0
LINE
8
Black
10
63.6719
20
-54.4055
11
64.2567
21
-54.6477
0
LINE
8
Black
10
25.3492
20
-54.6979
11
24.7644
21
-54.9401
0
LINE
8
Black
10
24.7644
20
-54.9401
11
24.6433
21
-54.6477
0
LINE
8
Black
10
24.6433
20
-54.6477
11
25.2281
21
-54.4055
0
LINE
8
Black
10
25.2281
20
-54.4055
11
25.3492
21
-54.6979
0
LINE
8
Black
10
40.569
20
-54.722
11
40.203
21
-54.722
0
LINE
8
Black
10
40.203
20
-54.722
11
40.203
21
-54.296
0
LINE
8
Black
10
40.203
20
-54.296
11
40.569
21
-54.296
0
LINE
8
Black
10
40.569
20
-54.296
11
40.569
21
-54.722
0
LINE
8
Black
10
39.6825
20
-54.4431
11
39.2394
21
-54.4431
0
LINE
8
Black
10
39.2394
20
-54.4431
11
39.2394
21
-54.2849
0
LINE
8
Black
10
39.2394
20
-54.2849
11
39.6825
21
-54.2849
0
LINE
8
Black
10
39.6825
20
-54.2849
11
39.6825
21
-54.4431
0
LINE
8
Black
10
41.5326
20
-54.4431
11
41.0894
21
-54.4431
0
LINE
8
Black
10
41.0894
20
-54.4431
11
41.0894
21
-54.2849
0
LINE
8
Black
10
41.0894
20
-54.2849
11
41.5326
21
-54.2849
0
LINE
8
Black
10
41.5326
20
-54.2849
11
41.5326
21
-54.4431
0
LINE
8
Black
10
64.5629
20
-53.9086
11
64.4417
21
-54.201
0
LINE
8
Black
10
64.4417
20
-54.201
11
63.8569
21
-53.9588
0
LINE
8
Black
10
63.8569
20
-53.9588
11
63.978
21
-53.6664
0
LINE
8
Black
10
63.978
20
-53.6664
11
64.5629
21
-53.9086
0
LINE
8
Black
10
25.0431
20
-53.9588
11
24.4583
21
-54.201
0
LINE
8
Black
10
24.4583
20
-54.201
11
24.3371
21
-53.9086
0
LINE
8
Black
10
24.3371
20
-53.9086
11
24.922
21
-53.6664
0
LINE
8
Black
10
24.922
20
-53.6664
11
25.0431
21
-53.9588
0
LINE
8
Black
10
64.869
20
-53.1695
11
64.7479
21
-53.4619
0
LINE
8
Black
10
64.7479
20
-53.4619
11
64.1631
21
-53.2197
0
LINE
8
Black
10
64.1631
20
-53.2197
11
64.2842
21
-52.9273
0
LINE
8
Black
10
64.2842
20
-52.9273
11
64.869
21
-53.1695
0
LINE
8
Black
10
24.7369
20
-53.2197
11
24.1521
21
-53.4619
0
LINE
8
Black
10
24.1521
20
-53.4619
11
24.031
21
-53.1695
0
LINE
8
Black
10
24.031
20
-53.1695
11
24.6158
21
-52.9273
0
LINE
8
Black
10
24.6158
20
-52.9273
11
24.7369
21
-53.2197
0
LINE
8
Black
10
48.0237
20
-52.8295
11
47.6123
21
-52.8295
0
LINE
8
Black
10
47.6123
20
-52.8295
11
47.6123
21
-52.1585
0
LINE
8
Black
10
47.6123
20
-52.1585
11
48.0237
21
-52.1585
0
LINE
8
Black
10
48.0237
20
-52.1585
11
48.0237
21
-52.8295
0
LINE
8
Black
10
48.9737
20
-52.8295
11
48.5623
21
-52.8295
0
LINE
8
Black
10
48.5623
20
-52.8295
11
48.5623
21
-52.1585
0
LINE
8
Black
10
48.5623
20
-52.1585
11
48.9737
21
-52.1585
0
LINE
8
Black
10
48.9737
20
-52.1585
11
48.9737
21
-52.8295
0
LINE
8
Black
10
49.9237
20
-52.8295
11
49.5123
21
-52.8295
0
LINE
8
Black
10
49.5123
20
-52.8295
11
49.5123
21
-52.1585
0
LINE
8
Black
10
49.5123
20
-52.1585
11
49.9237
21
-52.1585
0
LINE
8
Black
10
49.9237
20
-52.1585
11
49.9237
21
-52.8295
0
LINE
8
Black
10
24.4308
20
-52.4806
11
23.846
21
-52.7228
0
LINE
8
Black
10
23.846
20
-52.7228
11
23.7249
21
-52.4304
0
LINE
8
Black
10
23.7249
20
-52.4304
11
24.3097
21
-52.1882
0
LINE
8
Black
10
24.3097
20
-52.1882
11
24.4308
21
-52.4806
0
LINE
8
Black
10
65.1751
20
-52.4304
11
65.054
21
-52.7228
0
LINE
8
Black
10
65.054
20
-52.7228
11
64.4692
21
-52.4806
0
LINE
8
Black
10
64.4692
20
-52.4806
11
64.5903
21
-52.1882
0
LINE
8
Black
10
64.5903
20
-52.1882
11
65.1751
21
-52.4304
0
LINE
8
Black
10
45.503
20
-52.1818
11
45.2792
21
-52.4056
0
LINE
8
Black
10
45.2792
20
-52.4056
11
44.8764
21
-52.0028
0
LINE
8
Black
10
44.8764
20
-52.0028
11
45.1001
21
-51.779
0
LINE
8
Black
10
45.1001
20
-51.779
11
45.503
21
-52.1818
0
LINE
8
Black
10
24.1246
20
-51.7415
11
23.5398
21
-51.9837
0
LINE
8
Black
10
23.5398
20
-51.9837
11
23.4187
21
-51.6913
0
LINE
8
Black
10
23.4187
20
-51.6913
11
24.0035
21
-51.449
0
LINE
8
Black
10
24.0035
20
-51.449
11
24.1246
21
-51.7415
0
LINE
8
Black
10
65.4813
20
-51.6913
11
65.3602
21
-51.9837
0
LINE
8
Black
10
65.3602
20
-51.9837
11
64.7754
21
-51.7415
0
LINE
8
Black
10
64.7754
20
-51.7415
11
64.8965
21
-51.449
0
LINE
8
Black
10
64.8965
20
-51.449
11
65.4813
21
-51.6913
0
LINE
8
Black
10
46.5636
20
-51.1212
11
46.3398
21
-51.345
0
LINE
8
Black
10
46.3398
20
-51.345
11
45.937
21
-50.9421
0
LINE
8
Black
10
45.937
20
-50.9421
11
46.1608
21
-50.7184
0
LINE
8
Black
10
46.1608
20
-50.7184
11
46.5636
21
-51.1212
0
LINE
8
Black
10
23.8185
20
-51.0024
11
23.2337
21
-51.2446
0
LINE
8
Black
10
23.2337
20
-51.2446
11
23.1126
21
-50.9522
0
LINE
8
Black
10
23.1126
20
-50.9522
11
23.6974
21
-50.7099
0
LINE
8
Black
10
23.6974
20
-50.7099
11
23.8185
21
-51.0024
0
LINE
8
Black
10
65.7874
20
-50.9522
11
65.6663
21
-51.2446
0
LINE
8
Black
10
65.6663
20
-51.2446
11
65.0815
21
-51.0024
0
LINE
8
Black
10
65.0815
20
-51.0024
11
65.2026
21
-50.7099
0
LINE
8
Black
10
65.2026
20
-50.7099
11
65.7874
21
-50.9522
0
LINE
8
Black
10
21.8089
20
-50.6674
11
20.8147
21
-51.0792
0
LINE
8
Black
10
20.8147
20
-51.0792
11
20.524
21
-50.3775
0
LINE
8
Black
10
20.524
20
-50.3775
11
21.5182
21
-49.9657
0
LINE
8
Black
10
21.5182
20
-49.9657
11
21.8089
21
-50.6674
0
LINE
8
Black
10
68.376
20
-50.3775
11
68.0853
21
-51.0792
0
LINE
8
Black
10
68.0853
20
-51.0792
11
67.0911
21
-50.6674
0
LINE
8
Black
10
67.0911
20
-50.6674
11
67.3818
21
-49.9657
0
LINE
8
Black
10
67.3818
20
-49.9657
11
68.376
21
-50.3775
0
LINE
8
Black
10
48.3385
20
-50.4336
11
47.7055
21
-50.4336
0
LINE
8
Black
10
47.7055
20
-50.4336
11
47.7055
21
-49.6424
0
LINE
8
Black
10
47.7055
20
-49.6424
11
48.3385
21
-49.6424
0
LINE
8
Black
10
48.3385
20
-49.6424
11
48.3385
21
-50.4336
0
LINE
8
Black
10
50.3385
20
-50.4336
11
49.7055
21
-50.4336
0
LINE
8
Black
10
49.7055
20
-50.4336
11
49.7055
21
-49.6424
0
LINE
8
Black
10
49.7055
20
-49.6424
11
50.3385
21
-49.6424
0
LINE
8
Black
10
50.3385
20
-49.6424
11
50.3385
21
-50.4336
0
LINE
8
Black
10
33.1901
20
-49.2831
11
31.6899
21
-49.2831
0
LINE
8
Black
10
31.6899
20
-49.2831
11
31.6899
21
-47.7449
0
LINE
8
Black
10
31.6899
20
-47.7449
11
33.1901
21
-47.7449
0
LINE
8
Black
10
33.1901
20
-47.7449
11
33.1901
21
-49.2831
0
LINE
8
Black
10
39.4301
20
-49.2831
11
37.9299
21
-49.2831
0
LINE
8
Black
10
37.9299
20
-49.2831
11
37.9299
21
-47.7449
0
LINE
8
Black
10
37.9299
20
-47.7449
11
39.4301
21
-47.7449
0
LINE
8
Black
10
39.4301
20
-47.7449
11
39.4301
21
-49.2831
0
LINE
8
Black
10
44.5805
20
-47.0351
11
44.1375
21
-47.0351
0
LINE
8
Black
10
44.1375
20
-47.0351
11
44.1375
21
-46.8769
0
LINE
8
Black
10
44.1375
20
-46.8769
11
44.5805
21
-46.8769
0
LINE
8
Black
10
44.5805
20
-46.8769
11
44.5805
21
-47.0351
0
LINE
8
Black
10
42.7306
20
-47.0351
11
42.2874
21
-47.0351
0
LINE
8
Black
10
42.2874
20
-47.0351
11
42.2874
21
-46.8769
0
LINE
8
Black
10
42.2874
20
-46.8769
11
42.7306
21
-46.8769
0
LINE
8
Black
10
42.7306
20
-46.8769
11
42.7306
21
-47.0351
0
LINE
8
Black
10
43.617
20
-47.024
11
43.251
21
-47.024
0
LINE
8
Black
10
43.251
20
-47.024
11
43.251
21
-46.598
0
LINE
8
Black
10
43.251
20
-46.598
11
43.617
21
-46.598
0
LINE
8
Black
10
43.617
20
-46.598
11
43.617
21
-47.024
0
LINE
8
Black
10
44.5805
20
-46.5351
11
44.1375
21
-46.5351
0
LINE
8
Black
10
44.1375
20
-46.5351
11
44.1375
21
-46.3769
0
LINE
8
Black
10
44.1375
20
-46.3769
11
44.5805
21
-46.3769
0
LINE
8
Black
10
44.5805
20
-46.3769
11
44.5805
21
-46.5351
0
LINE
8
Black
10
42.7306
20
-46.5351
11
42.2874
21
-46.5351
0
LINE
8
Black
10
42.2874
20
-46.5351
11
42.2874
21
-46.3769
0
LINE
8
Black
10
42.2874
20
-46.3769
11
42.7306
21
-46.3769
0
LINE
8
Black
10
42.7306
20
-46.3769
11
42.7306
21
-46.5351
0
LINE
8
Black
10
43.617
20
-46.314
11
43.251
21
-46.314
0
LINE
8
Black
10
43.251
20
-46.314
11
43.251
21
-45.888
0
LINE
8
Black
10
43.251
20
-45.888
11
43.617
21
-45.888
0
LINE
8
Black
10
43.617
20
-45.888
11
43.617
21
-46.314
0
LINE
8
Black
10
44.5805
20
-46.0351
11
44.1375
21
-46.0351
0
LINE
8
Black
10
44.1375
20
-46.0351
11
44.1375
21
-45.8769
0
LINE
8
Black
10
44.1375
20
-45.8769
11
44.5805
21
-45.8769
0
LINE
8
Black
10
44.5805
20
-45.8769
11
44.5805
21
-46.0351
0
LINE
8
Black
10
42.7306
20
-46.0351
11
42.2874
21
-46.0351
0
LINE
8
Black
10
42.2874
20
-46.0351
11
42.2874
21
-45.8769
0
LINE
8
Black
10
42.2874
20
-45.8769
11
42.7306
21
-45.8769
0
LINE
8
Black
10
42.7306
20
-45.8769
11
42.7306
21
-46.0351
0
LINE
8
Black
10
61.3556
20
-45.7505
11
60.5644
21
-45.7505
0
LINE
8
Black
10
60.5644
20
-45.7505
11
60.5644
21
-45.1175
0
LINE
8
Black
10
60.5644
20
-45.1175
11
61.3556
21
-45.1175
0
LINE
8
Black
10
61.3556
20
-45.1175
11
61.3556
21
-45.7505
0
LINE
8
Black
10
30.1298
20
-45.6242
11
29.5602
21
-45.6242
0
LINE
8
Black
10
29.5602
20
-45.6242
11
29.5602
21
-45.3077
0
LINE
8
Black
10
29.5602
20
-45.3077
11
30.1298
21
-45.3077
0
LINE
8
Black
10
30.1298
20
-45.3077
11
30.1298
21
-45.6242
0
LINE
8
Black
10
32.0217
20
-45.3775
11
31.6103
21
-45.3775
0
LINE
8
Black
10
31.6103
20
-45.3775
11
31.6103
21
-44.7065
0
LINE
8
Black
10
31.6103
20
-44.7065
11
32.0217
21
-44.7065
0
LINE
8
Black
10
32.0217
20
-44.7065
11
32.0217
21
-45.3775
0
LINE
8
Black
10
32.9717
20
-45.3775
11
32.5603
21
-45.3775
0
LINE
8
Black
10
32.5603
20
-45.3775
11
32.5603
21
-44.7065
0
LINE
8
Black
10
32.5603
20
-44.7065
11
32.9717
21
-44.7065
0
LINE
8
Black
10
32.9717
20
-44.7065
11
32.9717
21
-45.3775
0
LINE
8
Black
10
33.9217
20
-45.3775
11
33.5103
21
-45.3775
0
LINE
8
Black
10
33.5103
20
-45.3775
11
33.5103
21
-44.7065
0
LINE
8
Black
10
33.5103
20
-44.7065
11
33.9217
21
-44.7065
0
LINE
8
Black
10
33.9217
20
-44.7065
11
33.9217
21
-45.3775
0
LINE
8
Black
10
56.9072
20
-44.6874
11
56.4008
21
-44.6874
0
LINE
8
Black
10
56.4008
20
-44.6874
11
56.4008
21
-44.2126
0
LINE
8
Black
10
56.4008
20
-44.2126
11
56.9072
21
-44.2126
0
LINE
8
Black
10
56.9072
20
-44.2126
11
56.9072
21
-44.6874
0
LINE
8
Black
10
58.4072
20
-44.6874
11
57.9008
21
-44.6874
0
LINE
8
Black
10
57.9008
20
-44.6874
11
57.9008
21
-44.2126
0
LINE
8
Black
10
57.9008
20
-44.2126
11
58.4072
21
-44.2126
0
LINE
8
Black
10
58.4072
20
-44.2126
11
58.4072
21
-44.6874
0
LINE
8
Black
10
54.1485
20
-44.5916
11
53.5155
21
-44.5916
0
LINE
8
Black
10
53.5155
20
-44.5916
11
53.5155
21
-43.8004
0
LINE
8
Black
10
53.5155
20
-43.8004
11
54.1485
21
-43.8004
0
LINE
8
Black
10
54.1485
20
-43.8004
11
54.1485
21
-44.5916
0
LINE
8
Black
10
52.1485
20
-44.5916
11
51.5155
21
-44.5916
0
LINE
8
Black
10
51.5155
20
-44.5916
11
51.5155
21
-43.8004
0
LINE
8
Black
10
51.5155
20
-43.8004
11
52.1485
21
-43.8004
0
LINE
8
Black
10
52.1485
20
-43.8004
11
52.1485
21
-44.5916
0
LINE
8
Black
10
30.1298
20
-44.1242
11
29.5602
21
-44.1242
0
LINE
8
Black
10
29.5602
20
-44.1242
11
29.5602
21
-43.8077
0
LINE
8
Black
10
29.5602
20
-43.8077
11
30.1298
21
-43.8077
0
LINE
8
Black
10
30.1298
20
-43.8077
11
30.1298
21
-44.1242
0
LINE
8
Black
10
61.3556
20
-43.7505
11
60.5644
21
-43.7505
0
LINE
8
Black
10
60.5644
20
-43.7505
11
60.5644
21
-43.1175
0
LINE
8
Black
10
60.5644
20
-43.1175
11
61.3556
21
-43.1175
0
LINE
8
Black
10
61.3556
20
-43.1175
11
61.3556
21
-43.7505
0
LINE
8
Black
10
49.3749
20
-43.3302
11
49.185
21
-43.3302
0
LINE
8
Black
10
49.185
20
-43.3302
11
49.185
21
-43.0137
0
LINE
8
Black
10
49.185
20
-43.0137
11
49.3749
21
-43.0137
0
LINE
8
Black
10
49.3749
20
-43.0137
11
49.3749
21
-43.3302
0
LINE
8
Black
10
49.8749
20
-43.3302
11
49.685
21
-43.3302
0
LINE
8
Black
10
49.685
20
-43.3302
11
49.685
21
-43.0137
0
LINE
8
Black
10
49.685
20
-43.0137
11
49.8749
21
-43.0137
0
LINE
8
Black
10
49.8749
20
-43.0137
11
49.8749
21
-43.3302
0
LINE
8
Black
10
48.9066
20
-43.3302
11
48.6534
21
-43.3302
0
LINE
8
Black
10
48.6534
20
-43.3302
11
48.6534
21
-43.0137
0
LINE
8
Black
10
48.6534
20
-43.0137
11
48.9066
21
-43.0137
0
LINE
8
Black
10
48.9066
20
-43.0137
11
48.9066
21
-43.3302
0
LINE
8
Black
10
50.4066
20
-43.3302
11
50.1534
21
-43.3302
0
LINE
8
Black
10
50.1534
20
-43.3302
11
50.1534
21
-43.0137
0
LINE
8
Black
10
50.1534
20
-43.0137
11
50.4066
21
-43.0137
0
LINE
8
Black
10
50.4066
20
-43.0137
11
50.4066
21
-43.3302
0
LINE
8
Black
10
32.0217
20
-43.1775
11
31.6103
21
-43.1775
0
LINE
8
Black
10
31.6103
20
-43.1775
11
31.6103
21
-42.5065
0
LINE
8
Black
10
31.6103
20
-42.5065
11
32.0217
21
-42.5065
0
LINE
8
Black
10
32.0217
20
-42.5065
11
32.0217
21
-43.1775
0
LINE
8
Black
10
33.9217
20
-43.1775
11
33.5103
21
-43.1775
0
LINE
8
Black
10
33.5103
20
-43.1775
11
33.5103
21
-42.5065
0
LINE
8
Black
10
33.5103
20
-42.5065
11
33.9217
21
-42.5065
0
LINE
8
Black
10
33.9217
20
-42.5065
11
33.9217
21
-43.1775
0
LINE
8
Black
10
56.5359
20
-43.0842
11
56.1561
21
-43.0842
0
LINE
8
Black
10
56.1561
20
-43.0842
11
56.1561
21
-42.7677
0
LINE
8
Black
10
56.1561
20
-42.7677
11
56.5359
21
-42.7677
0
LINE
8
Black
10
56.5359
20
-42.7677
11
56.5359
21
-43.0842
0
LINE
8
Black
10
57.6359
20
-43.0842
11
57.2561
21
-43.0842
0
LINE
8
Black
10
57.2561
20
-43.0842
11
57.2561
21
-42.7677
0
LINE
8
Black
10
57.2561
20
-42.7677
11
57.6359
21
-42.7677
0
LINE
8
Black
10
57.6359
20
-42.7677
11
57.6359
21
-43.0842
0
LINE
8
Black
10
52.9799
20
-42.5762
11
52.6001
21
-42.5762
0
LINE
8
Black
10
52.6001
20
-42.5762
11
52.6001
21
-42.2597
0
LINE
8
Black
10
52.6001
20
-42.2597
11
52.9799
21
-42.2597
0
LINE
8
Black
10
52.9799
20
-42.2597
11
52.9799
21
-42.5762
0
LINE
8
Black
10
54.0799
20
-42.5762
11
53.7001
21
-42.5762
0
LINE
8
Black
10
53.7001
20
-42.5762
11
53.7001
21
-42.2597
0
LINE
8
Black
10
53.7001
20
-42.2597
11
54.0799
21
-42.2597
0
LINE
8
Black
10
54.0799
20
-42.2597
11
54.0799
21
-42.5762
0
LINE
8
Black
10
49.8749
20
-42.3302
11
49.685
21
-42.3302
0
LINE
8
Black
10
49.685
20
-42.3302
11
49.685
21
-42.0137
0
LINE
8
Black
10
49.685
20
-42.0137
11
49.8749
21
-42.0137
0
LINE
8
Black
10
49.8749
20
-42.0137
11
49.8749
21
-42.3302
0
LINE
8
Black
10
50.4066
20
-42.3302
11
50.1534
21
-42.3302
0
LINE
8
Black
10
50.1534
20
-42.3302
11
50.1534
21
-42.0137
0
LINE
8
Black
10
50.1534
20
-42.0137
11
50.4066
21
-42.0137
0
LINE
8
Black
10
50.4066
20
-42.0137
11
50.4066
21
-42.3302
0
LINE
8
Black
10
49.3749
20
-42.3302
11
49.185
21
-42.3302
0
LINE
8
Black
10
49.185
20
-42.3302
11
49.185
21
-42.0137
0
LINE
8
Black
10
49.185
20
-42.0137
11
49.3749
21
-42.0137
0
LINE
8
Black
10
49.3749
20
-42.0137
11
49.3749
21
-42.3302
0
LINE
8
Black
10
48.9066
20
-42.3302
11
48.6534
21
-42.3302
0
LINE
8
Black
10
48.6534
20
-42.3302
11
48.6534
21
-42.0137
0
LINE
8
Black
10
48.6534
20
-42.0137
11
48.9066
21
-42.0137
0
LINE
8
Black
10
48.9066
20
-42.0137
11
48.9066
21
-42.3302
0
LINE
8
Black
10
37.0911
20
-40.9541
11
35.5529
21
-40.9541
0
LINE
8
Black
10
35.5529
20
-40.9541
11
35.5529
21
-39.4539
0
LINE
8
Black
10
35.5529
20
-39.4539
11
37.0911
21
-39.4539
0
LINE
8
Black
10
37.0911
20
-39.4539
11
37.0911
21
-40.9541
0
LINE
8
Black
10
64.4147
20
-40.6709
11
64.0982
21
-40.6709
0
LINE
8
Black
10
64.0982
20
-40.6709
11
64.0982
21
-40.1011
0
LINE
8
Black
10
64.0982
20
-40.1011
11
64.4147
21
-40.1011
0
LINE
8
Black
10
64.4147
20
-40.1011
11
64.4147
21
-40.6709
0
LINE
8
Black
10
62.9147
20
-40.6709
11
62.5982
21
-40.6709
0
LINE
8
Black
10
62.5982
20
-40.6709
11
62.5982
21
-40.1011
0
LINE
8
Black
10
62.5982
20
-40.1011
11
62.9147
21
-40.1011
0
LINE
8
Black
10
62.9147
20
-40.1011
11
62.9147
21
-40.6709
0
LINE
8
Black
10
61.2448
20
-40.5322
11
60.6751
21
-40.5322
0
LINE
8
Black
10
60.6751
20
-40.5322
11
60.6751
21
-40.2157
0
LINE
8
Black
10
60.6751
20
-40.2157
11
61.2448
21
-40.2157
0
LINE
8
Black
10
61.2448
20
-40.2157
11
61.2448
21
-40.5322
0
LINE
8
Black
10
61.2448
20
-39.0322
11
60.6751
21
-39.0322
0
LINE
8
Black
10
60.6751
20
-39.0322
11
60.6751
21
-38.7157
0
LINE
8
Black
10
60.6751
20
-38.7157
11
61.2448
21
-38.7157
0
LINE
8
Black
10
61.2448
20
-38.7157
11
61.2448
21
-39.0322
0
LINE
8
Black
10
64.4267
20
-38.6388
11
64.1102
21
-38.6388
0
LINE
8
Black
10
64.1102
20
-38.6388
11
64.1102
21
-38.0692
0
LINE
8
Black
10
64.1102
20
-38.0692
11
64.4267
21
-38.0692
0
LINE
8
Black
10
64.4267
20
-38.0692
11
64.4267
21
-38.6388
0
LINE
8
Black
10
62.9267
20
-38.6388
11
62.6102
21
-38.6388
0
LINE
8
Black
10
62.6102
20
-38.6388
11
62.6102
21
-38.0692
0
LINE
8
Black
10
62.6102
20
-38.0692
11
62.9267
21
-38.0692
0
LINE
8
Black
10
62.9267
20
-38.0692
11
62.9267
21
-38.6388
0
LINE
8
Black
10
37.0911
20
-34.7141
11
35.5529
21
-34.7141
0
LINE
8
Black
10
35.5529
20
-34.7141
11
35.5529
21
-33.2139
0
LINE
8
Black
10
35.5529
20
-33.2139
11
37.0911
21
-33.2139
0
LINE
8
Black
10
37.0911
20
-33.2139
11
37.0911
21
-34.7141
0
LINE
8
Black
10
48.2592
20
-33.7654
11
47.7528
21
-33.7654
0
LINE
8
Black
10
47.7528
20
-33.7654
11
47.7528
21
-33.2906
0
LINE
8
Black
10
47.7528
20
-33.2906
11
48.2592
21
-33.2906
0
LINE
8
Black
10
48.2592
20
-33.2906
11
48.2592
21
-33.7654
0
LINE
8
Black
10
46.7592
20
-33.7654
11
46.2528
21
-33.7654
0
LINE
8
Black
10
46.2528
20
-33.7654
11
46.2528
21
-33.2906
0
LINE
8
Black
10
46.2528
20
-33.2906
11
46.7592
21
-33.2906
0
LINE
8
Black
10
46.7592
20
-33.2906
11
46.7592
21
-33.7654
0
LINE
8
Black
10
47.0959
20
-32.1623
11
46.7161
21
-32.1623
0
LINE
8
Black
10
46.7161
20
-32.1623
11
46.7161
21
-31.8457
0
LINE
8
Black
10
46.7161
20
-31.8457
11
47.0959
21
-31.8457
0
LINE
8
Black
10
47.0959
20
-31.8457
11
47.0959
21
-32.1623
0
LINE
8
Black
10
48.1959
20
-32.1623
11
47.8161
21
-32.1623
0
LINE
8
Black
10
47.8161
20
-32.1623
11
47.8161
21
-31.8457
0
LINE
8
Black
10
47.8161
20
-31.8457
11
48.1959
21
-31.8457
0
LINE
8
Black
10
48.1959
20
-31.8457
11
48.1959
21
-32.1623
0
LINE
8
Black
10
61.6749
20
-30.2773
11
61.2273
21
-30.7249
0
LINE
8
Black
10
61.2273
20
-30.7249
11
61.0035
21
-30.5011
0
LINE
8
Black
10
61.0035
20
-30.5011
11
61.4511
21
-30.0535
0
LINE
8
Black
10
61.4511
20
-30.0535
11
61.6749
21
-30.2773
0
LINE
8
Black
10
27.8965
20
-30.5011
11
27.6727
21
-30.7249
0
LINE
8
Black
10
27.6727
20
-30.7249
11
27.2251
21
-30.2773
0
LINE
8
Black
10
27.2251
20
-30.2773
11
27.4489
21
-30.0535
0
LINE
8
Black
10
27.4489
20
-30.0535
11
27.8965
21
-30.5011
0
LINE
8
Black
10
25.9117
20
-30.0415
11
25.3746
21
-30.5786
0
LINE
8
Black
10
25.3746
20
-30.5786
11
24.6136
21
-29.8177
0
LINE
8
Black
10
24.6136
20
-29.8177
11
25.1508
21
-29.2805
0
LINE
8
Black
10
25.1508
20
-29.2805
11
25.9117
21
-30.0415
0
LINE
8
Black
10
64.2864
20
-29.8177
11
63.5254
21
-30.5786
0
LINE
8
Black
10
63.5254
20
-30.5786
11
62.9883
21
-30.0415
0
LINE
8
Black
10
62.9883
20
-30.0415
11
63.7492
21
-29.2805
0
LINE
8
Black
10
63.7492
20
-29.2805
11
64.2864
21
-29.8177
0
LINE
8
Black
10
43.0966
20
-30.4159
11
42.1154
21
-30.4159
0
LINE
8
Black
10
42.1154
20
-30.4159
11
42.1154
21
-30.0361
0
LINE
8
Black
10
42.1154
20
-30.0361
11
43.0966
21
-30.0361
0
LINE
8
Black
10
43.0966
20
-30.0361
11
43.0966
21
-30.4159
0
LINE
8
Black
10
48.4966
20
-30.4159
11
47.5154
21
-30.4159
0
LINE
8
Black
10
47.5154
20
-30.4159
11
47.5154
21
-30.0361
0
LINE
8
Black
10
47.5154
20
-30.0361
11
48.4966
21
-30.0361
0
LINE
8
Black
10
48.4966
20
-30.0361
11
48.4966
21
-30.4159
0
LINE
8
Black
10
28.4621
20
-29.9354
11
28.2383
21
-30.1592
0
LINE
8
Black
10
28.2383
20
-30.1592
11
27.7907
21
-29.7116
0
LINE
8
Black
10
27.7907
20
-29.7116
11
28.0145
21
-29.4878
0
LINE
8
Black
10
28.0145
20
-29.4878
11
28.4621
21
-29.9354
0
LINE
8
Black
10
61.1093
20
-29.7116
11
60.6617
21
-30.1592
0
LINE
8
Black
10
60.6617
20
-30.1592
11
60.4379
21
-29.9354
0
LINE
8
Black
10
60.4379
20
-29.9354
11
60.8855
21
-29.4878
0
LINE
8
Black
10
60.8855
20
-29.4878
11
61.1093
21
-29.7116
0
LINE
8
Black
10
60.5436
20
-29.1459
11
60.096
21
-29.5935
0
LINE
8
Black
10
60.096
20
-29.5935
11
59.8722
21
-29.3697
0
LINE
8
Black
10
59.8722
20
-29.3697
11
60.3198
21
-28.9221
0
LINE
8
Black
10
60.3198
20
-28.9221
11
60.5436
21
-29.1459
0
LINE
8
Black
10
29.0278
20
-29.3697
11
28.804
21
-29.5935
0
LINE
8
Black
10
28.804
20
-29.5935
11
28.3564
21
-29.1459
0
LINE
8
Black
10
28.3564
20
-29.1459
11
28.5802
21
-28.9221
0
LINE
8
Black
10
28.5802
20
-28.9221
11
29.0278
21
-29.3697
0
LINE
8
Black
10
43.0966
20
-29.1459
11
42.1154
21
-29.1459
0
LINE
8
Black
10
42.1154
20
-29.1459
11
42.1154
21
-28.7661
0
LINE
8
Black
10
42.1154
20
-28.7661
11
43.0966
21
-28.7661
0
LINE
8
Black
10
43.0966
20
-28.7661
11
43.0966
21
-29.1459
0
LINE
8
Black
10
48.4966
20
-29.1459
11
47.5154
21
-29.1459
0
LINE
8
Black
10
47.5154
20
-29.1459
11
47.5154
21
-28.7661
0
LINE
8
Black
10
47.5154
20
-28.7661
11
48.4966
21
-28.7661
0
LINE
8
Black
10
48.4966
20
-28.7661
11
48.4966
21
-29.1459
0
LINE
8
Black
10
59.9779
20
-28.5802
11
59.5303
21
-29.0278
0
LINE
8
Black
10
59.5303
20
-29.0278
11
59.3065
21
-28.804
0
LINE
8
Black
10
59.3065
20
-28.804
11
59.7541
21
-28.3564
0
LINE
8
Black
10
59.7541
20
-28.3564
11
59.9779
21
-28.5802
0
LINE
8
Black
10
29.5935
20
-28.804
11
29.3697
21
-29.0278
0
LINE
8
Black
10
29.3697
20
-29.0278
11
28.9221
21
-28.5802
0
LINE
8
Black
10
28.9221
20
-28.5802
11
29.1459
21
-28.3564
0
LINE
8
Black
10
29.1459
20
-28.3564
11
29.5935
21
-28.804
0
LINE
8
Black
10
59.4122
20
-28.0145
11
58.9646
21
-28.4621
0
LINE
8
Black
10
58.9646
20
-28.4621
11
58.7408
21
-28.2383
0
LINE
8
Black
10
58.7408
20
-28.2383
11
59.1884
21
-27.7907
0
LINE
8
Black
10
59.1884
20
-27.7907
11
59.4122
21
-28.0145
0
LINE
8
Black
10
30.1592
20
-28.2383
11
29.9354
21
-28.4621
0
LINE
8
Black
10
29.9354
20
-28.4621
11
29.4878
21
-28.0145
0
LINE
8
Black
10
29.4878
20
-28.0145
11
29.7116
21
-27.7907
0
LINE
8
Black
10
29.7116
20
-27.7907
11
30.1592
21
-28.2383
0
LINE
8
Black
10
30.7249
20
-27.6727
11
30.5011
21
-27.8965
0
LINE
8
Black
10
30.5011
20
-27.8965
11
30.0535
21
-27.4489
0
LINE
8
Black
10
30.0535
20
-27.4489
11
30.2773
21
-27.2251
0
LINE
8
Black
10
30.2773
20
-27.2251
11
30.7249
21
-27.6727
0
LINE
8
Black
10
58.8465
20
-27.4489
11
58.3989
21
-27.8965
0
LINE
8
Black
10
58.3989
20
-27.8965
11
58.1751
21
-27.6727
0
LINE
8
Black
10
58.1751
20
-27.6727
11
58.6227
21
-27.2251
0
LINE
8
Black
10
58.6227
20
-27.2251
11
58.8465
21
-27.4489
0
LINE
8
Black
10
48.4966
20
-27.8759
11
47.5154
21
-27.8759
0
LINE
8
Black
10
47.5154
20
-27.8759
11
47.5154
21
-27.4961
0
LINE
8
Black
10
47.5154
20
-27.4961
11
48.4966
21
-27.4961
0
LINE
8
Black
10
48.4966
20
-27.4961
11
48.4966
21
-27.8759
0
LINE
8
Black
10
43.0966
20
-27.8759
11
42.1154
21
-27.8759
0
LINE
8
Black
10
42.1154
20
-27.8759
11
42.1154
21
-27.4961
0
LINE
8
Black
10
42.1154
20
-27.4961
11
43.0966
21
-27.4961
0
LINE
8
Black
10
43.0966
20
-27.4961
11
43.0966
21
-27.8759
0
LINE
8
Black
10
48.4966
20
-26.6059
11
47.5154
21
-26.6059
0
LINE
8
Black
10
47.5154
20
-26.6059
11
47.5154
21
-26.2261
0
LINE
8
Black
10
47.5154
20
-26.2261
11
48.4966
21
-26.2261
0
LINE
8
Black
10
48.4966
20
-26.2261
11
48.4966
21
-26.6059
0
LINE
8
Black
10
43.0966
20
-26.6059
11
42.1154
21
-26.6059
0
LINE
8
Black
10
42.1154
20
-26.6059
11
42.1154
21
-26.2261
0
LINE
8
Black
10
42.1154
20
-26.2261
11
43.0966
21
-26.2261
0
LINE
8
Black
10
43.0966
20
-26.2261
11
43.0966
21
-26.6059
0
LINE
8
Black
10
30.5786
20
-25.3746
11
30.0415
21
-25.9117
0
LINE
8
Black
10
30.0415
20
-25.9117
11
29.2805
21
-25.1508
0
LINE
8
Black
10
29.2805
20
-25.1508
11
29.8177
21
-24.6136
0
LINE
8
Black
10
29.8177
20
-24.6136
11
30.5786
21
-25.3746
0
LINE
8
Black
10
59.6195
20
-25.1508
11
58.8585
21
-25.9117
0
LINE
8
Black
10
58.8585
20
-25.9117
11
58.3214
21
-25.3746
0
LINE
8
Black
10
58.3214
20
-25.3746
11
59.0823
21
-24.6136
0
LINE
8
Black
10
59.0823
20
-24.6136
11
59.6195
21
-25.1508
0
LINE
8
Black
10
54.9401
20
-24.7644
11
54.6979
21
-25.3492
0
LINE
8
Black
10
54.6979
20
-25.3492
11
54.4055
21
-25.2281
0
LINE
8
Black
10
54.4055
20
-25.2281
11
54.6477
21
-24.6433
0
LINE
8
Black
10
54.6477
20
-24.6433
11
54.9401
21
-24.7644
0
LINE
8
Black
10
34.4945
20
-25.2281
11
34.2021
21
-25.3492
0
LINE
8
Black
10
34.2021
20
-25.3492
11
33.9599
21
-24.7644
0
LINE
8
Black
10
33.9599
20
-24.7644
11
34.2523
21
-24.6433
0
LINE
8
Black
10
34.2523
20
-24.6433
11
34.4945
21
-25.2281
0
LINE
8
Black
10
54.201
20
-24.4583
11
53.9588
21
-25.0431
0
LINE
8
Black
10
53.9588
20
-25.0431
11
53.6664
21
-24.922
0
LINE
8
Black
10
53.6664
20
-24.922
11
53.9086
21
-24.3371
0
LINE
8
Black
10
53.9086
20
-24.3371
11
54.201
21
-24.4583
0
LINE
8
Black
10
35.2336
20
-24.922
11
34.9412
21
-25.0431
0
LINE
8
Black
10
34.9412
20
-25.0431
11
34.699
21
-24.4583
0
LINE
8
Black
10
34.699
20
-24.4583
11
34.9914
21
-24.3371
0
LINE
8
Black
10
34.9914
20
-24.3371
11
35.2336
21
-24.922
0
LINE
8
Black
10
53.4619
20
-24.1521
11
53.2197
21
-24.7369
0
LINE
8
Black
10
53.2197
20
-24.7369
11
52.9273
21
-24.6158
0
LINE
8
Black
10
52.9273
20
-24.6158
11
53.1695
21
-24.031
0
LINE
8
Black
10
53.1695
20
-24.031
11
53.4619
21
-24.1521
0
LINE
8
Black
10
35.9727
20
-24.6158
11
35.6803
21
-24.7369
0
LINE
8
Black
10
35.6803
20
-24.7369
11
35.4381
21
-24.1521
0
LINE
8
Black
10
35.4381
20
-24.1521
11
35.7305
21
-24.031
0
LINE
8
Black
10
35.7305
20
-24.031
11
35.9727
21
-24.6158
0
LINE
8
Black
10
52.7228
20
-23.846
11
52.4806
21
-24.4308
0
LINE
8
Black
10
52.4806
20
-24.4308
11
52.1882
21
-24.3097
0
LINE
8
Black
10
52.1882
20
-24.3097
11
52.4304
21
-23.7249
0
LINE
8
Black
10
52.4304
20
-23.7249
11
52.7228
21
-23.846
0
LINE
8
Black
10
36.7118
20
-24.3097
11
36.4194
21
-24.4308
0
LINE
8
Black
10
36.4194
20
-24.4308
11
36.1772
21
-23.846
0
LINE
8
Black
10
36.1772
20
-23.846
11
36.4696
21
-23.7249
0
LINE
8
Black
10
36.4696
20
-23.7249
11
36.7118
21
-24.3097
0
LINE
8
Black
10
57.1769
20
-23.3404
11
56.765
21
-24.3346
0
LINE
8
Black
10
56.765
20
-24.3346
11
56.0633
21
-24.0439
0
LINE
8
Black
10
56.0633
20
-24.0439
11
56.4751
21
-23.0497
0
LINE
8
Black
10
56.4751
20
-23.0497
11
57.1769
21
-23.3404
0
LINE
8
Black
10
32.8367
20
-24.0439
11
32.135
21
-24.3346
0
LINE
8
Black
10
32.135
20
-24.3346
11
31.7231
21
-23.3404
0
LINE
8
Black
10
31.7231
20
-23.3404
11
32.4249
21
-23.0497
0
LINE
8
Black
10
32.4249
20
-23.0497
11
32.8367
21
-24.0439
0
LINE
8
Black
10
51.9837
20
-23.5398
11
51.7415
21
-24.1246
0
LINE
8
Black
10
51.7415
20
-24.1246
11
51.449
21
-24.0035
0
LINE
8
Black
10
51.449
20
-24.0035
11
51.6913
21
-23.4187
0
LINE
8
Black
10
51.6913
20
-23.4187
11
51.9837
21
-23.5398
0
LINE
8
Black
10
37.451
20
-24.0035
11
37.1585
21
-24.1246
0
LINE
8
Black
10
37.1585
20
-24.1246
11
36.9163
21
-23.5398
0
LINE
8
Black
10
36.9163
20
-23.5398
11
37.2087
21
-23.4187
0
LINE
8
Black
10
37.2087
20
-23.4187
11
37.451
21
-24.0035
0
LINE
8
Black
10
38.1901
20
-23.6974
11
37.8976
21
-23.8185
0
LINE
8
Black
10
37.8976
20
-23.8185
11
37.6554
21
-23.2337
0
LINE
8
Black
10
37.6554
20
-23.2337
11
37.9478
21
-23.1126
0
LINE
8
Black
10
37.9478
20
-23.1126
11
38.1901
21
-23.6974
0
LINE
8
Black
10
51.2446
20
-23.2337
11
51.0024
21
-23.8185
0
LINE
8
Black
10
51.0024
20
-23.8185
11
50.7099
21
-23.6974
0
LINE
8
Black
10
50.7099
20
-23.6974
11
50.9522
21
-23.1126
0
LINE
8
Black
10
50.9522
20
-23.1126
11
51.2446
21
-23.2337
0
LINE
8
Black
10
46.6082
20
-22.8815
11
46.2918
21
-22.8815
0
LINE
8
Black
10
46.2918
20
-22.8815
11
46.2918
21
-22.2485
0
LINE
8
Black
10
46.2918
20
-22.2485
11
46.6082
21
-22.2485
0
LINE
8
Black
10
46.6082
20
-22.2485
11
46.6082
21
-22.8815
0
LINE
8
Black
10
45.8083
20
-22.8815
11
45.4917
21
-22.8815
0
LINE
8
Black
10
45.4917
20
-22.8815
11
45.4917
21
-22.2485
0
LINE
8
Black
10
45.4917
20
-22.2485
11
45.8083
21
-22.2485
0
LINE
8
Black
10
45.8083
20
-22.2485
11
45.8083
21
-22.8815
0
LINE
8
Black
10
45.0082
20
-22.8815
11
44.6917
21
-22.8815
0
LINE
8
Black
10
44.6917
20
-22.8815
11
44.6917
21
-22.2485
0
LINE
8
Black
10
44.6917
20
-22.2485
11
45.0082
21
-22.2485
0
LINE
8
Black
10
45.0082
20
-22.2485
11
45.0082
21
-22.8815
0
LINE
8
Black
10
44.2082
20
-22.8815
11
43.8917
21
-22.8815
0
LINE
8
Black
10
43.8917
20
-22.8815
11
43.8917
21
-22.2485
0
LINE
8
Black
10
43.8917
20
-22.2485
11
44.2082
21
-22.2485
0
LINE
8
Black
10
44.2082
20
-22.2485
11
44.2082
21
-22.8815
0
LINE
8
Black
10
43.4082
20
-22.8815
11
43.0917
21
-22.8815
0
LINE
8
Black
10
43.0917
20
-22.8815
11
43.0917
21
-22.2485
0
LINE
8
Black
10
43.0917
20
-22.2485
11
43.4082
21
-22.2485
0
LINE
8
Black
10
43.4082
20
-22.2485
11
43.4082
21
-22.8815
0
LINE
8
Black
10
42.6082
20
-22.8815
11
42.2918
21
-22.8815
0
LINE
8
Black
10
42.2918
20
-22.8815
11
42.2918
21
-22.2485
0
LINE
8
Black
10
42.2918
20
-22.2485
11
42.6082
21
-22.2485
0
LINE
8
Black
10
42.6082
20
-22.2485
11
42.6082
21
-22.8815
0
LINE
8
Black
10
38.9343
20
-21.5182
11
38.2326
21
-21.8089
0
LINE
8
Black
10
38.2326
20
-21.8089
11
37.8208
21
-20.8147
0
LINE
8
Black
10
37.8208
20
-20.8147
11
38.5225
21
-20.524
0
LINE
8
Black
10
38.5225
20
-20.524
11
38.9343
21
-21.5182
0
LINE
8
Black
10
51.0792
20
-20.8147
11
50.6674
21
-21.8089
0
LINE
8
Black
10
50.6674
20
-21.8089
11
49.9657
21
-21.5182
0
LINE
8
Black
10
49.9657
20
-21.5182
11
50.3775
21
-20.524
0
LINE
8
Black
10
50.3775
20
-20.524
11
51.0792
21
-20.8147
0
LINE
8
Black
10
41.5298
20
-21.1531
11
40.7702
21
-21.1531
0
LINE
8
Black
10
40.7702
20
-21.1531
11
40.7702
21
-20.077
0
LINE
8
Black
10
40.7702
20
-20.077
11
41.5298
21
-20.077
0
LINE
8
Black
10
41.5298
20
-20.077
11
41.5298
21
-21.1531
0
LINE
8
Black
10
48.1298
20
-21.1531
11
47.3702
21
-21.1531
0
LINE
8
Black
10
47.3702
20
-21.1531
11
47.3702
21
-20.077
0
LINE
8
Black
10
47.3702
20
-20.077
11
48.1298
21
-20.077
0
LINE
8
Black
10
48.1298
20
-20.077
11
48.1298
21
-21.1531
  0
ENDSEC
  0
EOF
