G04 #@! TF.FileFunction,Copper,L3,Inr,Mixed*
%FSLAX46Y46*%
G04 Gerber Fmt 4.6, Leading zero omitted, Abs format (unit mm)*
G04 Created by KiCad (PCBNEW 201611251247+7376~55~ubuntu16.10.1-product) date Sun Nov 27 22:14:47 2016*
%MOMM*%
%LPD*%
G01*
G04 APERTURE LIST*
%ADD10C,0.100000*%
%ADD11C,1.550000*%
%ADD12O,1.250000X0.950000*%
%ADD13C,0.635000*%
%ADD14C,0.762000*%
%ADD15C,0.508000*%
%ADD16C,0.508000*%
%ADD17C,1.016000*%
%ADD18C,0.203200*%
%ADD19C,0.254000*%
G04 APERTURE END LIST*
D10*
D11*
X40950000Y-68447460D03*
X47950000Y-68447460D03*
D12*
X41950000Y-65747460D03*
X46950000Y-65747460D03*
D13*
X65265304Y-55210416D03*
X55210416Y-23634696D03*
X22459280Y-51865416D03*
X54165500Y-27749500D03*
X62357000Y-29337000D03*
X58273000Y-33381000D03*
X48768000Y-38100000D03*
X45974000Y-27210000D03*
X45974000Y-32004000D03*
X29337000Y-26543000D03*
X41148000Y-33782000D03*
X37034584Y-22459280D03*
X46014533Y-21295467D03*
D14*
X46228000Y-49022000D03*
D13*
X59436000Y-45466000D03*
X43180000Y-61214000D03*
D14*
X55003557Y-58420000D03*
D13*
X66027424Y-36474585D03*
X67437000Y-45339000D03*
X60075646Y-61332882D03*
X52425415Y-66027424D03*
X43561000Y-67437000D03*
X34831927Y-65347013D03*
X27567118Y-60075646D03*
X21463000Y-43561000D03*
X23552987Y-34831927D03*
X55372000Y-44450000D03*
D14*
X35814000Y-31242000D03*
D13*
X40725000Y-42291000D03*
D14*
X44200000Y-44454000D03*
X40386000Y-58674000D03*
X34798000Y-46990000D03*
D13*
X59563000Y-43053000D03*
X48768000Y-41148000D03*
X51832000Y-42688000D03*
X41402000Y-39624000D03*
X38227000Y-44323000D03*
X41402000Y-48260000D03*
X38862000Y-63881000D03*
X42545000Y-68199000D03*
D15*
X42799000Y-54483000D03*
X42799000Y-55245000D03*
D13*
X48768000Y-44196000D03*
X49780000Y-44196000D03*
X23650188Y-54302738D03*
X56134000Y-28638500D03*
X66124626Y-52190750D03*
X59896041Y-27387513D03*
X34597262Y-23650188D03*
X27387513Y-29003959D03*
X52190750Y-22775374D03*
X41402000Y-63500000D03*
D14*
X36068000Y-52832000D03*
X27357000Y-54939000D03*
D13*
X52324000Y-57150000D03*
X65249812Y-34597262D03*
X67437000Y-43307000D03*
X61512487Y-59896041D03*
X54302738Y-65249812D03*
X36709250Y-66124626D03*
X29003959Y-61512487D03*
X21463000Y-45593000D03*
X22775374Y-36709250D03*
X43307000Y-21463000D03*
D14*
X35814000Y-49530000D03*
D13*
X60960000Y-37719000D03*
X59944000Y-36322000D03*
X26344390Y-55248721D03*
X27544566Y-31855089D03*
X33651279Y-26344390D03*
X41402000Y-23590106D03*
X49616751Y-24011552D03*
X57044911Y-27544566D03*
X64888448Y-49616751D03*
D14*
X51816000Y-51054000D03*
X38100000Y-45720000D03*
D13*
X55880000Y-39624000D03*
X51562000Y-65278000D03*
X49784000Y-35814000D03*
X60956001Y-41913999D03*
X52070000Y-40132000D03*
X59436000Y-44196000D03*
D15*
X50419000Y-45339000D03*
D13*
X39370000Y-41910000D03*
X45466000Y-47752000D03*
X40894000Y-49276000D03*
D15*
X46990000Y-47332900D03*
D13*
X44704000Y-49530000D03*
D15*
X47752000Y-46062900D03*
D13*
X47752000Y-44450000D03*
X45974000Y-41402000D03*
X51562000Y-27686000D03*
X51562000Y-26416000D03*
X45085000Y-28956000D03*
X56388000Y-51562000D03*
X54864000Y-49530000D03*
X52197000Y-38100000D03*
X45720000Y-30226000D03*
X60325000Y-47498000D03*
X46355000Y-29083000D03*
X55118000Y-31496000D03*
X49276000Y-65024000D03*
D14*
X29842134Y-42796134D03*
X27432000Y-40894000D03*
D13*
X36068000Y-55880000D03*
D14*
X45720000Y-67310000D03*
X46863000Y-64135000D03*
D16*
X38777374Y-66124626D02*
X41402000Y-63500000D01*
X36709250Y-66124626D02*
X38777374Y-66124626D01*
D17*
X51816000Y-51054000D02*
X51435001Y-50673001D01*
X51435001Y-50673001D02*
X40768523Y-50673001D01*
X38100000Y-48004478D02*
X38100000Y-45720000D01*
X40768523Y-50673001D02*
X38100000Y-48004478D01*
D18*
X52197000Y-38100000D02*
X52197000Y-38608000D01*
X52197000Y-38608000D02*
X52578000Y-38989000D01*
X59182000Y-38989000D02*
X52578000Y-38989000D01*
X60325000Y-40132000D02*
X59182000Y-38989000D01*
X60325000Y-47498000D02*
X60325000Y-40132000D01*
D17*
X27940000Y-40894000D02*
X27432000Y-40894000D01*
X29842134Y-42796134D02*
X27940000Y-40894000D01*
X29842134Y-49709000D02*
X29842134Y-42796134D01*
D18*
X36068000Y-55880000D02*
X36013134Y-55880000D01*
D17*
X45720000Y-67310000D02*
X45720000Y-66309093D01*
X45720000Y-66309093D02*
X44268134Y-64857227D01*
X44268134Y-64857227D02*
X44268134Y-64135000D01*
X46863000Y-64135000D02*
X44268134Y-64135000D01*
X44268134Y-64135000D02*
X35632134Y-55499000D01*
X35632134Y-55499000D02*
X31750000Y-51616866D01*
D18*
X36013134Y-55880000D02*
X35632134Y-55499000D01*
D17*
X31750000Y-51616866D02*
X29842134Y-49709000D01*
X30226000Y-50092866D02*
X29842134Y-49709000D01*
D19*
G36*
X49465688Y-20015475D02*
X54116189Y-21455046D01*
X58398508Y-23770487D01*
X62149532Y-26873604D01*
X65226387Y-30646201D01*
X67511876Y-34944581D01*
X68918945Y-39605018D01*
X69394000Y-44450000D01*
X69384275Y-45146477D01*
X68774125Y-49976306D01*
X67237478Y-54595639D01*
X64832862Y-58828528D01*
X61651870Y-62513743D01*
X57815664Y-65510916D01*
X53470363Y-67705885D01*
X48988480Y-68957249D01*
X49052208Y-68814116D01*
X49102433Y-68593046D01*
X49106049Y-68334108D01*
X49062016Y-68111723D01*
X48975626Y-67902125D01*
X48850170Y-67713299D01*
X48690427Y-67552437D01*
X48502482Y-67425666D01*
X48293492Y-67337815D01*
X48071420Y-67292230D01*
X47844722Y-67290648D01*
X47622034Y-67333128D01*
X47411839Y-67418052D01*
X47222141Y-67542186D01*
X47060168Y-67700802D01*
X46932088Y-67887858D01*
X46842780Y-68096229D01*
X46795646Y-68317978D01*
X46792481Y-68544660D01*
X46833405Y-68767638D01*
X46916860Y-68978422D01*
X47027441Y-69150011D01*
X43927612Y-69388529D01*
X41873662Y-69143610D01*
X41959999Y-69021219D01*
X42052208Y-68814116D01*
X42074250Y-68717098D01*
X42090098Y-68733509D01*
X42202581Y-68811687D01*
X42328107Y-68866528D01*
X42461895Y-68895943D01*
X42598848Y-68898811D01*
X42733749Y-68875025D01*
X42861462Y-68825488D01*
X42977120Y-68752089D01*
X43076320Y-68657623D01*
X43155281Y-68545688D01*
X43210997Y-68420548D01*
X43241345Y-68286969D01*
X43243530Y-68130509D01*
X43228374Y-68053965D01*
X43344107Y-68104528D01*
X43477895Y-68133943D01*
X43614848Y-68136811D01*
X43749749Y-68113025D01*
X43877462Y-68063488D01*
X43993120Y-67990089D01*
X44092320Y-67895623D01*
X44171281Y-67783688D01*
X44226997Y-67658548D01*
X44257345Y-67524969D01*
X44259530Y-67368509D01*
X44232923Y-67234134D01*
X44180723Y-67107487D01*
X44104918Y-66993391D01*
X44008395Y-66896192D01*
X43894831Y-66819592D01*
X43768552Y-66766509D01*
X43634366Y-66738965D01*
X43497387Y-66738009D01*
X43362830Y-66763677D01*
X43235822Y-66814991D01*
X43121199Y-66889998D01*
X43023329Y-66985840D01*
X42945938Y-67098867D01*
X42891975Y-67224773D01*
X42863494Y-67358762D01*
X42861582Y-67495732D01*
X42877216Y-67580913D01*
X42752552Y-67528509D01*
X42618366Y-67500965D01*
X42481387Y-67500009D01*
X42346830Y-67525677D01*
X42219822Y-67576991D01*
X42105199Y-67651998D01*
X42007329Y-67747840D01*
X41939214Y-67847320D01*
X41850170Y-67713299D01*
X41690427Y-67552437D01*
X41502482Y-67425666D01*
X41293492Y-67337815D01*
X41071420Y-67292230D01*
X40844722Y-67290648D01*
X40622034Y-67333128D01*
X40411839Y-67418052D01*
X40222141Y-67542186D01*
X40060168Y-67700802D01*
X39932088Y-67887858D01*
X39842780Y-68096229D01*
X39795646Y-68317978D01*
X39792481Y-68544660D01*
X39833405Y-68767638D01*
X39888542Y-68906899D01*
X39093642Y-68812113D01*
X34463694Y-67307752D01*
X31060454Y-65405745D01*
X34132509Y-65405745D01*
X34157237Y-65540477D01*
X34207663Y-65667841D01*
X34281868Y-65782984D01*
X34377025Y-65881522D01*
X34489508Y-65959700D01*
X34615034Y-66014541D01*
X34748822Y-66043956D01*
X34885775Y-66046824D01*
X35020676Y-66023038D01*
X35148389Y-65973501D01*
X35264047Y-65900102D01*
X35363247Y-65805636D01*
X35408500Y-65741484D01*
X40939153Y-65741484D01*
X40954294Y-65907858D01*
X41001463Y-66068123D01*
X41078862Y-66216174D01*
X41183543Y-66346372D01*
X41311520Y-66453757D01*
X41457918Y-66534240D01*
X41617160Y-66584754D01*
X41783180Y-66603377D01*
X41795132Y-66603460D01*
X42104868Y-66603460D01*
X42271133Y-66587158D01*
X42431064Y-66538871D01*
X42578571Y-66460441D01*
X42708035Y-66354853D01*
X42814524Y-66226129D01*
X42893983Y-66079173D01*
X42943384Y-65919583D01*
X42960847Y-65753436D01*
X42945706Y-65587062D01*
X42898537Y-65426797D01*
X42821138Y-65278746D01*
X42716457Y-65148548D01*
X42588480Y-65041163D01*
X42442082Y-64960680D01*
X42282840Y-64910166D01*
X42116820Y-64891543D01*
X42104868Y-64891460D01*
X41795132Y-64891460D01*
X41628867Y-64907762D01*
X41468936Y-64956049D01*
X41321429Y-65034479D01*
X41191965Y-65140067D01*
X41085476Y-65268791D01*
X41006017Y-65415747D01*
X40956616Y-65575337D01*
X40939153Y-65741484D01*
X35408500Y-65741484D01*
X35442208Y-65693701D01*
X35497924Y-65568561D01*
X35528272Y-65434982D01*
X35530457Y-65278522D01*
X35503850Y-65144147D01*
X35451650Y-65017500D01*
X35375845Y-64903404D01*
X35279322Y-64806205D01*
X35165758Y-64729605D01*
X35039479Y-64676522D01*
X34905293Y-64648978D01*
X34768314Y-64648022D01*
X34633757Y-64673690D01*
X34506749Y-64725004D01*
X34392126Y-64800011D01*
X34294256Y-64895853D01*
X34216865Y-65008880D01*
X34162902Y-65134786D01*
X34134421Y-65268775D01*
X34132509Y-65405745D01*
X31060454Y-65405745D01*
X30214121Y-64932746D01*
X29047334Y-63939732D01*
X38162582Y-63939732D01*
X38187310Y-64074464D01*
X38237736Y-64201828D01*
X38311941Y-64316971D01*
X38407098Y-64415509D01*
X38519581Y-64493687D01*
X38645107Y-64548528D01*
X38778895Y-64577943D01*
X38915848Y-64580811D01*
X39050749Y-64557025D01*
X39178462Y-64507488D01*
X39294120Y-64434089D01*
X39393320Y-64339623D01*
X39472281Y-64227688D01*
X39527997Y-64102548D01*
X39558345Y-63968969D01*
X39560530Y-63812509D01*
X39533923Y-63678134D01*
X39481723Y-63551487D01*
X39405918Y-63437391D01*
X39309395Y-63340192D01*
X39195831Y-63263592D01*
X39069552Y-63210509D01*
X38935366Y-63182965D01*
X38798387Y-63182009D01*
X38663830Y-63207677D01*
X38536822Y-63258991D01*
X38422199Y-63333998D01*
X38324329Y-63429840D01*
X38246938Y-63542867D01*
X38192975Y-63668773D01*
X38164494Y-63802762D01*
X38162582Y-63939732D01*
X29047334Y-63939732D01*
X26506788Y-61777558D01*
X25204420Y-60134378D01*
X26867700Y-60134378D01*
X26892428Y-60269110D01*
X26942854Y-60396474D01*
X27017059Y-60511617D01*
X27112216Y-60610155D01*
X27224699Y-60688333D01*
X27350225Y-60743174D01*
X27484013Y-60772589D01*
X27620966Y-60775457D01*
X27755867Y-60751671D01*
X27883580Y-60702134D01*
X27999238Y-60628735D01*
X28098438Y-60534269D01*
X28177399Y-60422334D01*
X28233115Y-60297194D01*
X28263463Y-60163615D01*
X28265648Y-60007155D01*
X28239041Y-59872780D01*
X28186841Y-59746133D01*
X28111036Y-59632037D01*
X28014513Y-59534838D01*
X27900949Y-59458238D01*
X27774670Y-59405155D01*
X27640484Y-59377611D01*
X27503505Y-59376655D01*
X27368948Y-59402323D01*
X27241940Y-59453637D01*
X27127317Y-59528644D01*
X27029447Y-59624486D01*
X26952056Y-59737513D01*
X26898093Y-59863419D01*
X26869612Y-59997408D01*
X26867700Y-60134378D01*
X25204420Y-60134378D01*
X23482907Y-57962370D01*
X22118465Y-55307453D01*
X25644972Y-55307453D01*
X25669700Y-55442185D01*
X25720126Y-55569549D01*
X25794331Y-55684692D01*
X25889488Y-55783230D01*
X26001971Y-55861408D01*
X26127497Y-55916249D01*
X26261285Y-55945664D01*
X26398238Y-55948532D01*
X26533139Y-55924746D01*
X26660852Y-55875209D01*
X26776510Y-55801810D01*
X26875710Y-55707344D01*
X26954671Y-55595409D01*
X27010387Y-55470269D01*
X27040735Y-55336690D01*
X27042920Y-55180230D01*
X27016313Y-55045855D01*
X26964113Y-54919208D01*
X26888308Y-54805112D01*
X26791785Y-54707913D01*
X26678221Y-54631313D01*
X26551942Y-54578230D01*
X26417756Y-54550686D01*
X26280777Y-54549730D01*
X26146220Y-54575398D01*
X26019212Y-54626712D01*
X25904589Y-54701719D01*
X25806719Y-54797561D01*
X25729328Y-54910588D01*
X25675365Y-55036494D01*
X25646884Y-55170483D01*
X25644972Y-55307453D01*
X22118465Y-55307453D01*
X21257655Y-53632499D01*
X20767794Y-51924148D01*
X21759862Y-51924148D01*
X21784590Y-52058880D01*
X21835016Y-52186244D01*
X21909221Y-52301387D01*
X22004378Y-52399925D01*
X22116861Y-52478103D01*
X22242387Y-52532944D01*
X22376175Y-52562359D01*
X22513128Y-52565227D01*
X22648029Y-52541441D01*
X22775742Y-52491904D01*
X22891400Y-52418505D01*
X22990600Y-52324039D01*
X23069561Y-52212104D01*
X23125277Y-52086964D01*
X23155625Y-51953385D01*
X23157810Y-51796925D01*
X23131203Y-51662550D01*
X23079003Y-51535903D01*
X23003198Y-51421807D01*
X22906675Y-51324608D01*
X22793111Y-51248008D01*
X22666832Y-51194925D01*
X22532646Y-51167381D01*
X22395667Y-51166425D01*
X22261110Y-51192093D01*
X22134102Y-51243407D01*
X22019479Y-51318414D01*
X21921609Y-51414256D01*
X21844218Y-51527283D01*
X21790255Y-51653189D01*
X21761774Y-51787178D01*
X21759862Y-51924148D01*
X20767794Y-51924148D01*
X19915793Y-48952870D01*
X19508431Y-44101727D01*
X19562495Y-43619732D01*
X20763582Y-43619732D01*
X20788310Y-43754464D01*
X20838736Y-43881828D01*
X20912941Y-43996971D01*
X21008098Y-44095509D01*
X21120581Y-44173687D01*
X21246107Y-44228528D01*
X21379895Y-44257943D01*
X21516848Y-44260811D01*
X21651749Y-44237025D01*
X21779462Y-44187488D01*
X21895120Y-44114089D01*
X21994320Y-44019623D01*
X22073281Y-43907688D01*
X22128997Y-43782548D01*
X22159345Y-43648969D01*
X22161530Y-43492509D01*
X22134923Y-43358134D01*
X22082723Y-43231487D01*
X22006918Y-43117391D01*
X21910395Y-43020192D01*
X21796831Y-42943592D01*
X21670552Y-42890509D01*
X21536366Y-42862965D01*
X21399387Y-42862009D01*
X21264830Y-42887677D01*
X21137822Y-42938991D01*
X21023199Y-43013998D01*
X20925329Y-43109840D01*
X20847938Y-43222867D01*
X20793975Y-43348773D01*
X20765494Y-43482762D01*
X20763582Y-43619732D01*
X19562495Y-43619732D01*
X19868931Y-40887794D01*
X26543022Y-40887794D01*
X26558747Y-41060582D01*
X26607734Y-41227025D01*
X26688117Y-41380784D01*
X26796834Y-41516001D01*
X26929744Y-41627526D01*
X27081786Y-41711111D01*
X27247167Y-41763573D01*
X27419588Y-41782913D01*
X27432000Y-41783000D01*
X27571764Y-41783000D01*
X28953134Y-43164370D01*
X28953134Y-49709000D01*
X28961145Y-49790704D01*
X28968304Y-49872533D01*
X28969609Y-49877025D01*
X28970065Y-49881674D01*
X28993799Y-49960284D01*
X29016711Y-50039146D01*
X29018861Y-50043294D01*
X29020213Y-50047772D01*
X29058781Y-50120309D01*
X29096556Y-50193184D01*
X29099472Y-50196837D01*
X29101667Y-50200965D01*
X29153576Y-50264611D01*
X29204801Y-50328780D01*
X29211218Y-50335288D01*
X29211326Y-50335420D01*
X29211449Y-50335521D01*
X29213516Y-50337618D01*
X43379134Y-64503236D01*
X43379134Y-64857227D01*
X43387145Y-64938931D01*
X43394304Y-65020760D01*
X43395609Y-65025252D01*
X43396065Y-65029901D01*
X43419799Y-65108511D01*
X43442711Y-65187373D01*
X43444861Y-65191521D01*
X43446213Y-65195999D01*
X43484781Y-65268536D01*
X43522556Y-65341411D01*
X43525472Y-65345064D01*
X43527667Y-65349192D01*
X43579576Y-65412838D01*
X43630801Y-65477007D01*
X43637218Y-65483515D01*
X43637326Y-65483647D01*
X43637449Y-65483748D01*
X43639516Y-65485845D01*
X44831000Y-66677329D01*
X44831000Y-67310000D01*
X44847931Y-67482674D01*
X44898079Y-67648772D01*
X44979533Y-67801965D01*
X45089192Y-67936420D01*
X45222878Y-68047014D01*
X45375499Y-68129536D01*
X45541242Y-68180842D01*
X45713794Y-68198978D01*
X45886582Y-68183253D01*
X46053025Y-68134266D01*
X46206784Y-68053883D01*
X46342001Y-67945166D01*
X46453526Y-67812256D01*
X46537111Y-67660214D01*
X46589573Y-67494833D01*
X46608913Y-67322412D01*
X46609000Y-67310000D01*
X46609000Y-66582166D01*
X46617160Y-66584754D01*
X46783180Y-66603377D01*
X46795132Y-66603460D01*
X47104868Y-66603460D01*
X47271133Y-66587158D01*
X47431064Y-66538871D01*
X47578571Y-66460441D01*
X47708035Y-66354853D01*
X47814524Y-66226129D01*
X47893983Y-66079173D01*
X47943384Y-65919583D01*
X47960847Y-65753436D01*
X47945706Y-65587062D01*
X47898537Y-65426797D01*
X47821138Y-65278746D01*
X47716457Y-65148548D01*
X47638021Y-65082732D01*
X48576582Y-65082732D01*
X48601310Y-65217464D01*
X48651736Y-65344828D01*
X48725941Y-65459971D01*
X48821098Y-65558509D01*
X48933581Y-65636687D01*
X49059107Y-65691528D01*
X49192895Y-65720943D01*
X49329848Y-65723811D01*
X49464749Y-65700025D01*
X49592462Y-65650488D01*
X49708120Y-65577089D01*
X49807320Y-65482623D01*
X49886281Y-65370688D01*
X49901399Y-65336732D01*
X50862582Y-65336732D01*
X50887310Y-65471464D01*
X50937736Y-65598828D01*
X51011941Y-65713971D01*
X51107098Y-65812509D01*
X51219581Y-65890687D01*
X51345107Y-65945528D01*
X51478895Y-65974943D01*
X51615848Y-65977811D01*
X51727785Y-65958074D01*
X51725997Y-66086156D01*
X51750725Y-66220888D01*
X51801151Y-66348252D01*
X51875356Y-66463395D01*
X51970513Y-66561933D01*
X52082996Y-66640111D01*
X52208522Y-66694952D01*
X52342310Y-66724367D01*
X52479263Y-66727235D01*
X52614164Y-66703449D01*
X52741877Y-66653912D01*
X52857535Y-66580513D01*
X52956735Y-66486047D01*
X53035696Y-66374112D01*
X53091412Y-66248972D01*
X53121760Y-66115393D01*
X53123945Y-65958933D01*
X53097338Y-65824558D01*
X53045138Y-65697911D01*
X52969333Y-65583815D01*
X52872810Y-65486616D01*
X52759246Y-65410016D01*
X52632967Y-65356933D01*
X52498781Y-65329389D01*
X52361802Y-65328433D01*
X52258594Y-65348121D01*
X52260530Y-65209509D01*
X52233923Y-65075134D01*
X52181723Y-64948487D01*
X52105918Y-64834391D01*
X52009395Y-64737192D01*
X51895831Y-64660592D01*
X51769552Y-64607509D01*
X51635366Y-64579965D01*
X51498387Y-64579009D01*
X51363830Y-64604677D01*
X51236822Y-64655991D01*
X51122199Y-64730998D01*
X51024329Y-64826840D01*
X50946938Y-64939867D01*
X50892975Y-65065773D01*
X50864494Y-65199762D01*
X50862582Y-65336732D01*
X49901399Y-65336732D01*
X49941997Y-65245548D01*
X49972345Y-65111969D01*
X49974530Y-64955509D01*
X49947923Y-64821134D01*
X49895723Y-64694487D01*
X49819918Y-64580391D01*
X49723395Y-64483192D01*
X49609831Y-64406592D01*
X49483552Y-64353509D01*
X49349366Y-64325965D01*
X49212387Y-64325009D01*
X49077830Y-64350677D01*
X48950822Y-64401991D01*
X48836199Y-64476998D01*
X48738329Y-64572840D01*
X48660938Y-64685867D01*
X48606975Y-64811773D01*
X48578494Y-64945762D01*
X48576582Y-65082732D01*
X47638021Y-65082732D01*
X47588480Y-65041163D01*
X47442082Y-64960680D01*
X47287140Y-64911530D01*
X47354965Y-64875467D01*
X47489420Y-64765808D01*
X47600014Y-64632122D01*
X47682536Y-64479501D01*
X47733842Y-64313758D01*
X47751978Y-64141206D01*
X47736253Y-63968418D01*
X47687266Y-63801975D01*
X47606883Y-63648216D01*
X47498166Y-63512999D01*
X47365256Y-63401474D01*
X47213214Y-63317889D01*
X47047833Y-63265427D01*
X46875412Y-63246087D01*
X46863000Y-63246000D01*
X44636370Y-63246000D01*
X43293639Y-61903269D01*
X43368749Y-61890025D01*
X43496462Y-61840488D01*
X43612120Y-61767089D01*
X43711320Y-61672623D01*
X43790281Y-61560688D01*
X43845997Y-61435548D01*
X43855978Y-61391614D01*
X59376228Y-61391614D01*
X59400956Y-61526346D01*
X59451382Y-61653710D01*
X59525587Y-61768853D01*
X59620744Y-61867391D01*
X59733227Y-61945569D01*
X59858753Y-62000410D01*
X59992541Y-62029825D01*
X60129494Y-62032693D01*
X60264395Y-62008907D01*
X60392108Y-61959370D01*
X60507766Y-61885971D01*
X60606966Y-61791505D01*
X60685927Y-61679570D01*
X60741643Y-61554430D01*
X60771991Y-61420851D01*
X60774176Y-61264391D01*
X60747569Y-61130016D01*
X60695369Y-61003369D01*
X60619564Y-60889273D01*
X60523041Y-60792074D01*
X60409477Y-60715474D01*
X60283198Y-60662391D01*
X60149012Y-60634847D01*
X60012033Y-60633891D01*
X59877476Y-60659559D01*
X59750468Y-60710873D01*
X59635845Y-60785880D01*
X59537975Y-60881722D01*
X59460584Y-60994749D01*
X59406621Y-61120655D01*
X59378140Y-61254644D01*
X59376228Y-61391614D01*
X43855978Y-61391614D01*
X43876345Y-61301969D01*
X43878530Y-61145509D01*
X43851923Y-61011134D01*
X43799723Y-60884487D01*
X43723918Y-60770391D01*
X43627395Y-60673192D01*
X43513831Y-60596592D01*
X43387552Y-60543509D01*
X43253366Y-60515965D01*
X43116387Y-60515009D01*
X42981830Y-60540677D01*
X42854822Y-60591991D01*
X42740199Y-60666998D01*
X42642329Y-60762840D01*
X42564938Y-60875867D01*
X42510975Y-61001773D01*
X42490144Y-61099774D01*
X40741374Y-59351004D01*
X40857404Y-59277370D01*
X40965621Y-59174316D01*
X41051761Y-59052205D01*
X41112542Y-58915688D01*
X41145649Y-58769966D01*
X41148033Y-58599282D01*
X41125221Y-58484071D01*
X54240555Y-58484071D01*
X54267531Y-58631052D01*
X54322542Y-58769994D01*
X54403493Y-58895605D01*
X54507300Y-59003100D01*
X54630009Y-59088385D01*
X54766947Y-59148212D01*
X54912897Y-59180301D01*
X55062300Y-59183430D01*
X55209465Y-59157481D01*
X55348788Y-59103441D01*
X55474961Y-59023370D01*
X55583178Y-58920316D01*
X55669318Y-58798205D01*
X55730099Y-58661688D01*
X55763206Y-58515966D01*
X55765590Y-58345282D01*
X55736564Y-58198692D01*
X55679618Y-58060532D01*
X55596922Y-57936063D01*
X55491624Y-57830028D01*
X55367736Y-57746465D01*
X55229977Y-57688556D01*
X55083593Y-57658508D01*
X54934161Y-57657464D01*
X54787372Y-57685466D01*
X54648817Y-57741445D01*
X54523775Y-57823271D01*
X54417007Y-57927826D01*
X54332580Y-58051127D01*
X54273711Y-58188479D01*
X54242642Y-58334650D01*
X54240555Y-58484071D01*
X41125221Y-58484071D01*
X41119007Y-58452692D01*
X41062061Y-58314532D01*
X40979365Y-58190063D01*
X40874067Y-58084028D01*
X40750179Y-58000465D01*
X40612420Y-57942556D01*
X40466036Y-57912508D01*
X40316604Y-57911464D01*
X40169815Y-57939466D01*
X40031260Y-57995445D01*
X39906218Y-58077271D01*
X39799450Y-58181826D01*
X39715023Y-58305127D01*
X39709165Y-58318795D01*
X35926762Y-54536392D01*
X42163166Y-54536392D01*
X42185646Y-54658876D01*
X42231488Y-54774661D01*
X42289639Y-54864895D01*
X42239853Y-54937606D01*
X42190796Y-55052066D01*
X42164905Y-55173875D01*
X42163166Y-55298392D01*
X42185646Y-55420876D01*
X42231488Y-55536661D01*
X42298947Y-55641337D01*
X42385453Y-55730916D01*
X42487710Y-55801987D01*
X42601825Y-55851843D01*
X42723450Y-55878583D01*
X42847952Y-55881191D01*
X42970590Y-55859567D01*
X43086692Y-55814534D01*
X43191836Y-55747808D01*
X43282017Y-55661929D01*
X43353800Y-55560170D01*
X43404451Y-55446407D01*
X43432041Y-55324972D01*
X43432820Y-55269148D01*
X64565886Y-55269148D01*
X64590614Y-55403880D01*
X64641040Y-55531244D01*
X64715245Y-55646387D01*
X64810402Y-55744925D01*
X64922885Y-55823103D01*
X65048411Y-55877944D01*
X65182199Y-55907359D01*
X65319152Y-55910227D01*
X65454053Y-55886441D01*
X65581766Y-55836904D01*
X65697424Y-55763505D01*
X65796624Y-55669039D01*
X65875585Y-55557104D01*
X65931301Y-55431964D01*
X65961649Y-55298385D01*
X65963834Y-55141925D01*
X65937227Y-55007550D01*
X65885027Y-54880903D01*
X65809222Y-54766807D01*
X65712699Y-54669608D01*
X65599135Y-54593008D01*
X65472856Y-54539925D01*
X65338670Y-54512381D01*
X65201691Y-54511425D01*
X65067134Y-54537093D01*
X64940126Y-54588407D01*
X64825503Y-54663414D01*
X64727633Y-54759256D01*
X64650242Y-54872283D01*
X64596279Y-54998189D01*
X64567798Y-55132178D01*
X64565886Y-55269148D01*
X43432820Y-55269148D01*
X43434027Y-55182735D01*
X43409839Y-55060577D01*
X43362384Y-54945443D01*
X43307831Y-54863335D01*
X43353800Y-54798170D01*
X43404451Y-54684407D01*
X43432041Y-54562972D01*
X43434027Y-54420735D01*
X43409839Y-54298577D01*
X43362384Y-54183443D01*
X43293470Y-54079720D01*
X43205722Y-53991357D01*
X43102482Y-53921721D01*
X42987683Y-53873464D01*
X42865697Y-53848423D01*
X42741170Y-53847554D01*
X42618846Y-53870889D01*
X42503384Y-53917538D01*
X42399182Y-53985726D01*
X42310208Y-54072855D01*
X42239853Y-54175606D01*
X42190796Y-54290066D01*
X42164905Y-54411875D01*
X42163166Y-54536392D01*
X35926762Y-54536392D01*
X30731134Y-49340764D01*
X30731134Y-47054071D01*
X34034998Y-47054071D01*
X34061974Y-47201052D01*
X34116985Y-47339994D01*
X34197936Y-47465605D01*
X34301743Y-47573100D01*
X34424452Y-47658385D01*
X34561390Y-47718212D01*
X34707340Y-47750301D01*
X34856743Y-47753430D01*
X35003908Y-47727481D01*
X35143231Y-47673441D01*
X35269404Y-47593370D01*
X35377621Y-47490316D01*
X35463761Y-47368205D01*
X35524542Y-47231688D01*
X35557649Y-47085966D01*
X35560033Y-46915282D01*
X35531007Y-46768692D01*
X35474061Y-46630532D01*
X35391365Y-46506063D01*
X35286067Y-46400028D01*
X35162179Y-46316465D01*
X35024420Y-46258556D01*
X34878036Y-46228508D01*
X34728604Y-46227464D01*
X34581815Y-46255466D01*
X34443260Y-46311445D01*
X34318218Y-46393271D01*
X34211450Y-46497826D01*
X34127023Y-46621127D01*
X34068154Y-46758479D01*
X34037085Y-46904650D01*
X34034998Y-47054071D01*
X30731134Y-47054071D01*
X30731134Y-42796134D01*
X30723127Y-42714470D01*
X30715964Y-42632602D01*
X30714659Y-42628110D01*
X30714203Y-42623460D01*
X30690480Y-42544884D01*
X30667558Y-42465988D01*
X30665406Y-42461836D01*
X30664055Y-42457362D01*
X30625505Y-42384861D01*
X30587712Y-42311950D01*
X30584796Y-42308297D01*
X30582601Y-42304169D01*
X30530692Y-42240523D01*
X30479467Y-42176354D01*
X30473050Y-42169846D01*
X30472942Y-42169714D01*
X30472819Y-42169613D01*
X30470752Y-42167516D01*
X28568618Y-40265382D01*
X28505173Y-40213268D01*
X28442256Y-40160474D01*
X28438158Y-40158221D01*
X28434547Y-40155255D01*
X28362175Y-40116449D01*
X28290214Y-40076889D01*
X28285760Y-40075476D01*
X28281638Y-40073266D01*
X28203083Y-40049249D01*
X28124833Y-40024427D01*
X28120188Y-40023906D01*
X28115717Y-40022539D01*
X28034020Y-40014241D01*
X27952412Y-40005087D01*
X27943270Y-40005023D01*
X27943103Y-40005006D01*
X27942948Y-40005021D01*
X27940000Y-40005000D01*
X27432000Y-40005000D01*
X27259326Y-40021931D01*
X27093228Y-40072079D01*
X26940035Y-40153533D01*
X26805580Y-40263192D01*
X26694986Y-40396878D01*
X26612464Y-40549499D01*
X26561158Y-40715242D01*
X26543022Y-40887794D01*
X19868931Y-40887794D01*
X20010688Y-39624000D01*
X36957000Y-39624000D01*
X36957000Y-48514000D01*
X36964321Y-48588329D01*
X37002990Y-48782732D01*
X37059880Y-48920076D01*
X37170001Y-49084883D01*
X37275117Y-49189999D01*
X37439924Y-49300120D01*
X37577268Y-49357010D01*
X37771671Y-49395679D01*
X37846000Y-49403000D01*
X38241286Y-49403000D01*
X40139905Y-51301619D01*
X40203350Y-51353733D01*
X40266267Y-51406527D01*
X40270365Y-51408780D01*
X40273976Y-51411746D01*
X40346348Y-51450552D01*
X40418309Y-51490112D01*
X40422763Y-51491525D01*
X40426885Y-51493735D01*
X40505452Y-51517756D01*
X40583690Y-51542574D01*
X40588333Y-51543095D01*
X40592805Y-51544462D01*
X40674508Y-51552761D01*
X40756111Y-51561914D01*
X40765253Y-51561978D01*
X40765420Y-51561995D01*
X40765575Y-51561980D01*
X40768523Y-51562001D01*
X51066765Y-51562001D01*
X51187382Y-51682618D01*
X51321453Y-51792745D01*
X51474362Y-51874734D01*
X51640283Y-51925461D01*
X51812897Y-51942994D01*
X51985629Y-51926666D01*
X52151901Y-51877098D01*
X52305377Y-51796179D01*
X52440214Y-51686991D01*
X52495418Y-51620732D01*
X55688582Y-51620732D01*
X55713310Y-51755464D01*
X55763736Y-51882828D01*
X55837941Y-51997971D01*
X55933098Y-52096509D01*
X56045581Y-52174687D01*
X56171107Y-52229528D01*
X56304895Y-52258943D01*
X56441848Y-52261811D01*
X56576749Y-52238025D01*
X56704462Y-52188488D01*
X56820120Y-52115089D01*
X56919320Y-52020623D01*
X56998281Y-51908688D01*
X57053997Y-51783548D01*
X57084345Y-51649969D01*
X57086530Y-51493509D01*
X57059923Y-51359134D01*
X57007723Y-51232487D01*
X56931918Y-51118391D01*
X56835395Y-51021192D01*
X56721831Y-50944592D01*
X56595552Y-50891509D01*
X56461366Y-50863965D01*
X56324387Y-50863009D01*
X56189830Y-50888677D01*
X56062822Y-50939991D01*
X55948199Y-51014998D01*
X55850329Y-51110840D01*
X55772938Y-51223867D01*
X55718975Y-51349773D01*
X55690494Y-51483762D01*
X55688582Y-51620732D01*
X52495418Y-51620732D01*
X52551274Y-51553692D01*
X52634328Y-51401360D01*
X52686213Y-51235796D01*
X52704951Y-51063309D01*
X52689830Y-50890467D01*
X52641423Y-50723854D01*
X52561578Y-50569816D01*
X52453333Y-50434220D01*
X52444618Y-50425382D01*
X52063619Y-50044383D01*
X52000174Y-49992269D01*
X51937257Y-49939475D01*
X51933159Y-49937222D01*
X51929548Y-49934256D01*
X51857176Y-49895450D01*
X51785215Y-49855890D01*
X51780761Y-49854477D01*
X51776639Y-49852267D01*
X51698084Y-49828250D01*
X51619834Y-49803428D01*
X51615189Y-49802907D01*
X51610718Y-49801540D01*
X51529021Y-49793242D01*
X51447413Y-49784088D01*
X51438271Y-49784024D01*
X51438104Y-49784007D01*
X51437949Y-49784022D01*
X51435001Y-49784001D01*
X46294847Y-49784001D01*
X46433908Y-49759481D01*
X46573231Y-49705441D01*
X46699404Y-49625370D01*
X46807621Y-49522316D01*
X46891789Y-49403000D01*
X54176859Y-49403000D01*
X54166494Y-49451762D01*
X54164582Y-49588732D01*
X54189310Y-49723464D01*
X54239736Y-49850828D01*
X54313941Y-49965971D01*
X54409098Y-50064509D01*
X54521581Y-50142687D01*
X54647107Y-50197528D01*
X54780895Y-50226943D01*
X54917848Y-50229811D01*
X55052749Y-50206025D01*
X55180462Y-50156488D01*
X55296120Y-50083089D01*
X55395320Y-49988623D01*
X55474281Y-49876688D01*
X55529997Y-49751548D01*
X55547278Y-49675483D01*
X64189030Y-49675483D01*
X64213758Y-49810215D01*
X64264184Y-49937579D01*
X64338389Y-50052722D01*
X64433546Y-50151260D01*
X64546029Y-50229438D01*
X64671555Y-50284279D01*
X64805343Y-50313694D01*
X64942296Y-50316562D01*
X65077197Y-50292776D01*
X65204910Y-50243239D01*
X65320568Y-50169840D01*
X65419768Y-50075374D01*
X65498729Y-49963439D01*
X65554445Y-49838299D01*
X65584793Y-49704720D01*
X65586978Y-49548260D01*
X65560371Y-49413885D01*
X65508171Y-49287238D01*
X65432366Y-49173142D01*
X65335843Y-49075943D01*
X65222279Y-48999343D01*
X65096000Y-48946260D01*
X64961814Y-48918716D01*
X64824835Y-48917760D01*
X64690278Y-48943428D01*
X64563270Y-48994742D01*
X64448647Y-49069749D01*
X64350777Y-49165591D01*
X64273386Y-49278618D01*
X64219423Y-49404524D01*
X64190942Y-49538513D01*
X64189030Y-49675483D01*
X55547278Y-49675483D01*
X55560345Y-49617969D01*
X55562530Y-49461509D01*
X55550945Y-49403000D01*
X59690000Y-49403000D01*
X59764329Y-49395679D01*
X59958732Y-49357010D01*
X60096076Y-49300120D01*
X60260883Y-49189999D01*
X60365999Y-49084883D01*
X60476120Y-48920076D01*
X60533010Y-48782732D01*
X60571679Y-48588329D01*
X60579000Y-48514000D01*
X60579000Y-48148716D01*
X60641462Y-48124488D01*
X60757120Y-48051089D01*
X60856320Y-47956623D01*
X60935281Y-47844688D01*
X60990997Y-47719548D01*
X61021345Y-47585969D01*
X61023530Y-47429509D01*
X60996923Y-47295134D01*
X60944723Y-47168487D01*
X60868918Y-47054391D01*
X60807600Y-46992644D01*
X60807600Y-45397732D01*
X66737582Y-45397732D01*
X66762310Y-45532464D01*
X66812736Y-45659828D01*
X66886941Y-45774971D01*
X66982098Y-45873509D01*
X67094581Y-45951687D01*
X67220107Y-46006528D01*
X67353895Y-46035943D01*
X67490848Y-46038811D01*
X67625749Y-46015025D01*
X67753462Y-45965488D01*
X67869120Y-45892089D01*
X67968320Y-45797623D01*
X68047281Y-45685688D01*
X68102997Y-45560548D01*
X68133345Y-45426969D01*
X68135530Y-45270509D01*
X68108923Y-45136134D01*
X68056723Y-45009487D01*
X67980918Y-44895391D01*
X67884395Y-44798192D01*
X67770831Y-44721592D01*
X67644552Y-44668509D01*
X67510366Y-44640965D01*
X67373387Y-44640009D01*
X67238830Y-44665677D01*
X67111822Y-44716991D01*
X66997199Y-44791998D01*
X66899329Y-44887840D01*
X66821938Y-45000867D01*
X66767975Y-45126773D01*
X66739494Y-45260762D01*
X66737582Y-45397732D01*
X60807600Y-45397732D01*
X60807600Y-42596586D01*
X60872896Y-42610942D01*
X61009849Y-42613810D01*
X61144750Y-42590024D01*
X61272463Y-42540487D01*
X61388121Y-42467088D01*
X61487321Y-42372622D01*
X61566282Y-42260687D01*
X61621998Y-42135547D01*
X61652346Y-42001968D01*
X61654531Y-41845508D01*
X61627924Y-41711133D01*
X61575724Y-41584486D01*
X61499919Y-41470390D01*
X61403396Y-41373191D01*
X61289832Y-41296591D01*
X61163553Y-41243508D01*
X61029367Y-41215964D01*
X60892388Y-41215008D01*
X60807600Y-41231182D01*
X60807600Y-40132000D01*
X60803254Y-40087674D01*
X60799365Y-40043225D01*
X60798656Y-40040786D01*
X60798409Y-40038263D01*
X60785528Y-39995600D01*
X60773087Y-39952777D01*
X60771920Y-39950525D01*
X60771186Y-39948095D01*
X60750242Y-39908705D01*
X60729742Y-39869157D01*
X60728161Y-39867176D01*
X60726968Y-39864933D01*
X60698783Y-39830375D01*
X60670981Y-39795548D01*
X60667495Y-39792012D01*
X60667439Y-39791944D01*
X60667376Y-39791892D01*
X60666250Y-39790750D01*
X60579000Y-39703500D01*
X60579000Y-39624000D01*
X60571679Y-39549671D01*
X60533010Y-39355268D01*
X60476120Y-39217924D01*
X60365999Y-39053117D01*
X60260883Y-38948001D01*
X60096076Y-38837880D01*
X59958732Y-38780990D01*
X59764329Y-38742321D01*
X59690000Y-38735000D01*
X59610500Y-38735000D01*
X59523250Y-38647750D01*
X59488803Y-38619455D01*
X59454653Y-38590800D01*
X59452430Y-38589578D01*
X59450469Y-38587967D01*
X59411152Y-38566885D01*
X59372116Y-38545425D01*
X59369700Y-38544659D01*
X59367461Y-38543458D01*
X59324798Y-38530415D01*
X59282338Y-38516946D01*
X59279817Y-38516663D01*
X59277389Y-38515921D01*
X59233034Y-38511416D01*
X59188738Y-38506447D01*
X59183778Y-38506412D01*
X59183685Y-38506403D01*
X59183599Y-38506411D01*
X59182000Y-38506400D01*
X52777899Y-38506400D01*
X52770429Y-38498929D01*
X52807281Y-38446688D01*
X52862997Y-38321548D01*
X52893345Y-38187969D01*
X52895530Y-38031509D01*
X52868923Y-37897134D01*
X52819710Y-37777732D01*
X60260582Y-37777732D01*
X60285310Y-37912464D01*
X60335736Y-38039828D01*
X60409941Y-38154971D01*
X60505098Y-38253509D01*
X60617581Y-38331687D01*
X60743107Y-38386528D01*
X60876895Y-38415943D01*
X61013848Y-38418811D01*
X61148749Y-38395025D01*
X61276462Y-38345488D01*
X61392120Y-38272089D01*
X61491320Y-38177623D01*
X61570281Y-38065688D01*
X61625997Y-37940548D01*
X61656345Y-37806969D01*
X61658530Y-37650509D01*
X61631923Y-37516134D01*
X61579723Y-37389487D01*
X61503918Y-37275391D01*
X61407395Y-37178192D01*
X61293831Y-37101592D01*
X61167552Y-37048509D01*
X61033366Y-37020965D01*
X60896387Y-37020009D01*
X60761830Y-37045677D01*
X60634822Y-37096991D01*
X60520199Y-37171998D01*
X60422329Y-37267840D01*
X60344938Y-37380867D01*
X60290975Y-37506773D01*
X60262494Y-37640762D01*
X60260582Y-37777732D01*
X52819710Y-37777732D01*
X52816723Y-37770487D01*
X52740918Y-37656391D01*
X52644395Y-37559192D01*
X52530831Y-37482592D01*
X52404552Y-37429509D01*
X52270366Y-37401965D01*
X52133387Y-37401009D01*
X51998830Y-37426677D01*
X51871822Y-37477991D01*
X51757199Y-37552998D01*
X51659329Y-37648840D01*
X51581938Y-37761867D01*
X51527975Y-37887773D01*
X51499494Y-38021762D01*
X51497582Y-38158732D01*
X51522310Y-38293464D01*
X51572736Y-38420828D01*
X51646941Y-38535971D01*
X51714400Y-38605827D01*
X51714400Y-38608000D01*
X51718746Y-38652326D01*
X51722635Y-38696775D01*
X51723344Y-38699214D01*
X51723591Y-38701737D01*
X51733634Y-38735000D01*
X49062517Y-38735000D01*
X49084462Y-38726488D01*
X49200120Y-38653089D01*
X49299320Y-38558623D01*
X49378281Y-38446688D01*
X49433997Y-38321548D01*
X49464345Y-38187969D01*
X49466530Y-38031509D01*
X49439923Y-37897134D01*
X49387723Y-37770487D01*
X49311918Y-37656391D01*
X49215395Y-37559192D01*
X49101831Y-37482592D01*
X48975552Y-37429509D01*
X48841366Y-37401965D01*
X48704387Y-37401009D01*
X48569830Y-37426677D01*
X48442822Y-37477991D01*
X48328199Y-37552998D01*
X48230329Y-37648840D01*
X48152938Y-37761867D01*
X48098975Y-37887773D01*
X48070494Y-38021762D01*
X48068582Y-38158732D01*
X48093310Y-38293464D01*
X48143736Y-38420828D01*
X48217941Y-38535971D01*
X48313098Y-38634509D01*
X48425581Y-38712687D01*
X48476653Y-38735000D01*
X37846000Y-38735000D01*
X37771671Y-38742321D01*
X37577268Y-38780990D01*
X37439924Y-38837880D01*
X37275117Y-38948001D01*
X37170001Y-39053117D01*
X37059880Y-39217924D01*
X37002990Y-39355268D01*
X36964321Y-39549671D01*
X36957000Y-39624000D01*
X20010688Y-39624000D01*
X20051086Y-39263851D01*
X21126812Y-35872732D01*
X49084582Y-35872732D01*
X49109310Y-36007464D01*
X49159736Y-36134828D01*
X49233941Y-36249971D01*
X49329098Y-36348509D01*
X49441581Y-36426687D01*
X49567107Y-36481528D01*
X49700895Y-36510943D01*
X49837848Y-36513811D01*
X49972749Y-36490025D01*
X50100462Y-36440488D01*
X50194622Y-36380732D01*
X59244582Y-36380732D01*
X59269310Y-36515464D01*
X59319736Y-36642828D01*
X59393941Y-36757971D01*
X59489098Y-36856509D01*
X59601581Y-36934687D01*
X59727107Y-36989528D01*
X59860895Y-37018943D01*
X59997848Y-37021811D01*
X60132749Y-36998025D01*
X60260462Y-36948488D01*
X60376120Y-36875089D01*
X60475320Y-36780623D01*
X60554281Y-36668688D01*
X60609997Y-36543548D01*
X60612321Y-36533317D01*
X65328006Y-36533317D01*
X65352734Y-36668049D01*
X65403160Y-36795413D01*
X65477365Y-36910556D01*
X65572522Y-37009094D01*
X65685005Y-37087272D01*
X65810531Y-37142113D01*
X65944319Y-37171528D01*
X66081272Y-37174396D01*
X66216173Y-37150610D01*
X66343886Y-37101073D01*
X66459544Y-37027674D01*
X66558744Y-36933208D01*
X66637705Y-36821273D01*
X66693421Y-36696133D01*
X66723769Y-36562554D01*
X66725954Y-36406094D01*
X66699347Y-36271719D01*
X66647147Y-36145072D01*
X66571342Y-36030976D01*
X66474819Y-35933777D01*
X66361255Y-35857177D01*
X66234976Y-35804094D01*
X66100790Y-35776550D01*
X65963811Y-35775594D01*
X65829254Y-35801262D01*
X65702246Y-35852576D01*
X65587623Y-35927583D01*
X65489753Y-36023425D01*
X65412362Y-36136452D01*
X65358399Y-36262358D01*
X65329918Y-36396347D01*
X65328006Y-36533317D01*
X60612321Y-36533317D01*
X60640345Y-36409969D01*
X60642530Y-36253509D01*
X60615923Y-36119134D01*
X60563723Y-35992487D01*
X60487918Y-35878391D01*
X60391395Y-35781192D01*
X60277831Y-35704592D01*
X60151552Y-35651509D01*
X60017366Y-35623965D01*
X59880387Y-35623009D01*
X59745830Y-35648677D01*
X59618822Y-35699991D01*
X59504199Y-35774998D01*
X59406329Y-35870840D01*
X59328938Y-35983867D01*
X59274975Y-36109773D01*
X59246494Y-36243762D01*
X59244582Y-36380732D01*
X50194622Y-36380732D01*
X50216120Y-36367089D01*
X50315320Y-36272623D01*
X50394281Y-36160688D01*
X50449997Y-36035548D01*
X50480345Y-35901969D01*
X50482530Y-35745509D01*
X50455923Y-35611134D01*
X50403723Y-35484487D01*
X50327918Y-35370391D01*
X50231395Y-35273192D01*
X50117831Y-35196592D01*
X49991552Y-35143509D01*
X49857366Y-35115965D01*
X49720387Y-35115009D01*
X49585830Y-35140677D01*
X49458822Y-35191991D01*
X49344199Y-35266998D01*
X49246329Y-35362840D01*
X49168938Y-35475867D01*
X49114975Y-35601773D01*
X49086494Y-35735762D01*
X49084582Y-35872732D01*
X21126812Y-35872732D01*
X21438344Y-34890659D01*
X22853569Y-34890659D01*
X22878297Y-35025391D01*
X22928723Y-35152755D01*
X23002928Y-35267898D01*
X23098085Y-35366436D01*
X23210568Y-35444614D01*
X23336094Y-35499455D01*
X23469882Y-35528870D01*
X23606835Y-35531738D01*
X23741736Y-35507952D01*
X23869449Y-35458415D01*
X23985107Y-35385016D01*
X24084307Y-35290550D01*
X24163268Y-35178615D01*
X24218984Y-35053475D01*
X24249332Y-34919896D01*
X24251517Y-34763436D01*
X24224910Y-34629061D01*
X24172710Y-34502414D01*
X24096905Y-34388318D01*
X24000382Y-34291119D01*
X23886818Y-34214519D01*
X23760539Y-34161436D01*
X23626353Y-34133892D01*
X23489374Y-34132936D01*
X23354817Y-34158604D01*
X23227809Y-34209918D01*
X23113186Y-34284925D01*
X23015316Y-34380767D01*
X22937925Y-34493794D01*
X22883962Y-34619700D01*
X22855481Y-34753689D01*
X22853569Y-34890659D01*
X21438344Y-34890659D01*
X21523088Y-34623513D01*
X21953425Y-33840732D01*
X40448582Y-33840732D01*
X40473310Y-33975464D01*
X40523736Y-34102828D01*
X40597941Y-34217971D01*
X40693098Y-34316509D01*
X40805581Y-34394687D01*
X40931107Y-34449528D01*
X41064895Y-34478943D01*
X41201848Y-34481811D01*
X41336749Y-34458025D01*
X41464462Y-34408488D01*
X41580120Y-34335089D01*
X41679320Y-34240623D01*
X41758281Y-34128688D01*
X41813997Y-34003548D01*
X41844345Y-33869969D01*
X41846530Y-33713509D01*
X41819923Y-33579134D01*
X41767723Y-33452487D01*
X41759249Y-33439732D01*
X57573582Y-33439732D01*
X57598310Y-33574464D01*
X57648736Y-33701828D01*
X57722941Y-33816971D01*
X57818098Y-33915509D01*
X57930581Y-33993687D01*
X58056107Y-34048528D01*
X58189895Y-34077943D01*
X58326848Y-34080811D01*
X58461749Y-34057025D01*
X58589462Y-34007488D01*
X58705120Y-33934089D01*
X58804320Y-33839623D01*
X58883281Y-33727688D01*
X58938997Y-33602548D01*
X58969345Y-33468969D01*
X58971530Y-33312509D01*
X58944923Y-33178134D01*
X58892723Y-33051487D01*
X58816918Y-32937391D01*
X58720395Y-32840192D01*
X58606831Y-32763592D01*
X58480552Y-32710509D01*
X58346366Y-32682965D01*
X58209387Y-32682009D01*
X58074830Y-32707677D01*
X57947822Y-32758991D01*
X57833199Y-32833998D01*
X57735329Y-32929840D01*
X57657938Y-33042867D01*
X57603975Y-33168773D01*
X57575494Y-33302762D01*
X57573582Y-33439732D01*
X41759249Y-33439732D01*
X41691918Y-33338391D01*
X41595395Y-33241192D01*
X41481831Y-33164592D01*
X41355552Y-33111509D01*
X41221366Y-33083965D01*
X41084387Y-33083009D01*
X40949830Y-33108677D01*
X40822822Y-33159991D01*
X40708199Y-33234998D01*
X40610329Y-33330840D01*
X40532938Y-33443867D01*
X40478975Y-33569773D01*
X40450494Y-33703762D01*
X40448582Y-33840732D01*
X21953425Y-33840732D01*
X23012753Y-31913821D01*
X26845148Y-31913821D01*
X26869876Y-32048553D01*
X26920302Y-32175917D01*
X26994507Y-32291060D01*
X27089664Y-32389598D01*
X27202147Y-32467776D01*
X27327673Y-32522617D01*
X27461461Y-32552032D01*
X27598414Y-32554900D01*
X27733315Y-32531114D01*
X27861028Y-32481577D01*
X27976686Y-32408178D01*
X28075886Y-32313712D01*
X28154847Y-32201777D01*
X28210563Y-32076637D01*
X28213722Y-32062732D01*
X45274582Y-32062732D01*
X45299310Y-32197464D01*
X45349736Y-32324828D01*
X45423941Y-32439971D01*
X45519098Y-32538509D01*
X45631581Y-32616687D01*
X45757107Y-32671528D01*
X45890895Y-32700943D01*
X46027848Y-32703811D01*
X46162749Y-32680025D01*
X46290462Y-32630488D01*
X46406120Y-32557089D01*
X46505320Y-32462623D01*
X46584281Y-32350688D01*
X46639997Y-32225548D01*
X46670345Y-32091969D01*
X46672530Y-31935509D01*
X46645923Y-31801134D01*
X46593723Y-31674487D01*
X46517918Y-31560391D01*
X46512299Y-31554732D01*
X54418582Y-31554732D01*
X54443310Y-31689464D01*
X54493736Y-31816828D01*
X54567941Y-31931971D01*
X54663098Y-32030509D01*
X54775581Y-32108687D01*
X54901107Y-32163528D01*
X55034895Y-32192943D01*
X55171848Y-32195811D01*
X55306749Y-32172025D01*
X55434462Y-32122488D01*
X55550120Y-32049089D01*
X55649320Y-31954623D01*
X55728281Y-31842688D01*
X55783997Y-31717548D01*
X55814345Y-31583969D01*
X55816530Y-31427509D01*
X55789923Y-31293134D01*
X55737723Y-31166487D01*
X55661918Y-31052391D01*
X55565395Y-30955192D01*
X55451831Y-30878592D01*
X55325552Y-30825509D01*
X55191366Y-30797965D01*
X55054387Y-30797009D01*
X54919830Y-30822677D01*
X54792822Y-30873991D01*
X54678199Y-30948998D01*
X54580329Y-31044840D01*
X54502938Y-31157867D01*
X54448975Y-31283773D01*
X54420494Y-31417762D01*
X54418582Y-31554732D01*
X46512299Y-31554732D01*
X46421395Y-31463192D01*
X46307831Y-31386592D01*
X46181552Y-31333509D01*
X46047366Y-31305965D01*
X45910387Y-31305009D01*
X45775830Y-31330677D01*
X45648822Y-31381991D01*
X45534199Y-31456998D01*
X45436329Y-31552840D01*
X45358938Y-31665867D01*
X45304975Y-31791773D01*
X45276494Y-31925762D01*
X45274582Y-32062732D01*
X28213722Y-32062732D01*
X28240911Y-31943058D01*
X28243096Y-31786598D01*
X28216489Y-31652223D01*
X28164289Y-31525576D01*
X28088484Y-31411480D01*
X27991961Y-31314281D01*
X27979790Y-31306071D01*
X35050998Y-31306071D01*
X35077974Y-31453052D01*
X35132985Y-31591994D01*
X35213936Y-31717605D01*
X35317743Y-31825100D01*
X35440452Y-31910385D01*
X35577390Y-31970212D01*
X35723340Y-32002301D01*
X35872743Y-32005430D01*
X36019908Y-31979481D01*
X36159231Y-31925441D01*
X36285404Y-31845370D01*
X36393621Y-31742316D01*
X36479761Y-31620205D01*
X36540542Y-31483688D01*
X36573649Y-31337966D01*
X36576033Y-31167282D01*
X36547007Y-31020692D01*
X36490061Y-30882532D01*
X36407365Y-30758063D01*
X36302067Y-30652028D01*
X36178179Y-30568465D01*
X36040420Y-30510556D01*
X35894036Y-30480508D01*
X35744604Y-30479464D01*
X35597815Y-30507466D01*
X35459260Y-30563445D01*
X35334218Y-30645271D01*
X35227450Y-30749826D01*
X35143023Y-30873127D01*
X35084154Y-31010479D01*
X35053085Y-31156650D01*
X35050998Y-31306071D01*
X27979790Y-31306071D01*
X27878397Y-31237681D01*
X27752118Y-31184598D01*
X27617932Y-31157054D01*
X27480953Y-31156098D01*
X27346396Y-31181766D01*
X27219388Y-31233080D01*
X27104765Y-31308087D01*
X27006895Y-31403929D01*
X26929504Y-31516956D01*
X26875541Y-31642862D01*
X26847060Y-31776851D01*
X26845148Y-31913821D01*
X23012753Y-31913821D01*
X23868369Y-30357463D01*
X24995054Y-29014732D01*
X44385582Y-29014732D01*
X44410310Y-29149464D01*
X44460736Y-29276828D01*
X44534941Y-29391971D01*
X44630098Y-29490509D01*
X44742581Y-29568687D01*
X44868107Y-29623528D01*
X45001895Y-29652943D01*
X45138848Y-29655811D01*
X45273749Y-29632025D01*
X45401462Y-29582488D01*
X45517120Y-29509089D01*
X45616320Y-29414623D01*
X45692342Y-29306854D01*
X45730736Y-29403828D01*
X45804941Y-29518971D01*
X45818635Y-29533152D01*
X45793366Y-29527965D01*
X45656387Y-29527009D01*
X45521830Y-29552677D01*
X45394822Y-29603991D01*
X45280199Y-29678998D01*
X45182329Y-29774840D01*
X45104938Y-29887867D01*
X45050975Y-30013773D01*
X45022494Y-30147762D01*
X45020582Y-30284732D01*
X45045310Y-30419464D01*
X45095736Y-30546828D01*
X45169941Y-30661971D01*
X45265098Y-30760509D01*
X45377581Y-30838687D01*
X45503107Y-30893528D01*
X45636895Y-30922943D01*
X45773848Y-30925811D01*
X45908749Y-30902025D01*
X46036462Y-30852488D01*
X46152120Y-30779089D01*
X46251320Y-30684623D01*
X46330281Y-30572688D01*
X46385997Y-30447548D01*
X46416345Y-30313969D01*
X46418530Y-30157509D01*
X46391923Y-30023134D01*
X46339723Y-29896487D01*
X46263918Y-29782391D01*
X46258580Y-29777016D01*
X46271895Y-29779943D01*
X46408848Y-29782811D01*
X46543749Y-29759025D01*
X46671462Y-29709488D01*
X46787120Y-29636089D01*
X46886320Y-29541623D01*
X46965281Y-29429688D01*
X46980399Y-29395732D01*
X61657582Y-29395732D01*
X61682310Y-29530464D01*
X61732736Y-29657828D01*
X61806941Y-29772971D01*
X61902098Y-29871509D01*
X62014581Y-29949687D01*
X62140107Y-30004528D01*
X62273895Y-30033943D01*
X62410848Y-30036811D01*
X62545749Y-30013025D01*
X62673462Y-29963488D01*
X62789120Y-29890089D01*
X62888320Y-29795623D01*
X62967281Y-29683688D01*
X63022997Y-29558548D01*
X63053345Y-29424969D01*
X63055530Y-29268509D01*
X63028923Y-29134134D01*
X62976723Y-29007487D01*
X62900918Y-28893391D01*
X62804395Y-28796192D01*
X62690831Y-28719592D01*
X62564552Y-28666509D01*
X62430366Y-28638965D01*
X62293387Y-28638009D01*
X62158830Y-28663677D01*
X62031822Y-28714991D01*
X61917199Y-28789998D01*
X61819329Y-28885840D01*
X61741938Y-28998867D01*
X61687975Y-29124773D01*
X61659494Y-29258762D01*
X61657582Y-29395732D01*
X46980399Y-29395732D01*
X47020997Y-29304548D01*
X47051345Y-29170969D01*
X47053530Y-29014509D01*
X47026923Y-28880134D01*
X46974723Y-28753487D01*
X46898918Y-28639391D01*
X46802395Y-28542192D01*
X46688831Y-28465592D01*
X46562552Y-28412509D01*
X46428366Y-28384965D01*
X46291387Y-28384009D01*
X46156830Y-28409677D01*
X46029822Y-28460991D01*
X45915199Y-28535998D01*
X45817329Y-28631840D01*
X45748414Y-28732489D01*
X45704723Y-28626487D01*
X45628918Y-28512391D01*
X45532395Y-28415192D01*
X45418831Y-28338592D01*
X45292552Y-28285509D01*
X45158366Y-28257965D01*
X45021387Y-28257009D01*
X44886830Y-28282677D01*
X44759822Y-28333991D01*
X44645199Y-28408998D01*
X44547329Y-28504840D01*
X44469938Y-28617867D01*
X44415975Y-28743773D01*
X44387494Y-28877762D01*
X44385582Y-29014732D01*
X24995054Y-29014732D01*
X26460121Y-27268732D01*
X45274582Y-27268732D01*
X45299310Y-27403464D01*
X45349736Y-27530828D01*
X45423941Y-27645971D01*
X45519098Y-27744509D01*
X45631581Y-27822687D01*
X45757107Y-27877528D01*
X45890895Y-27906943D01*
X46027848Y-27909811D01*
X46162749Y-27886025D01*
X46290462Y-27836488D01*
X46406120Y-27763089D01*
X46505320Y-27668623D01*
X46584281Y-27556688D01*
X46639997Y-27431548D01*
X46670345Y-27297969D01*
X46672530Y-27141509D01*
X46645923Y-27007134D01*
X46593723Y-26880487D01*
X46517918Y-26766391D01*
X46421395Y-26669192D01*
X46307831Y-26592592D01*
X46181552Y-26539509D01*
X46047366Y-26511965D01*
X45910387Y-26511009D01*
X45775830Y-26536677D01*
X45648822Y-26587991D01*
X45534199Y-26662998D01*
X45436329Y-26758840D01*
X45358938Y-26871867D01*
X45304975Y-26997773D01*
X45276494Y-27131762D01*
X45274582Y-27268732D01*
X26460121Y-27268732D01*
X26997598Y-26628193D01*
X27030508Y-26601732D01*
X28637582Y-26601732D01*
X28662310Y-26736464D01*
X28712736Y-26863828D01*
X28786941Y-26978971D01*
X28882098Y-27077509D01*
X28994581Y-27155687D01*
X29120107Y-27210528D01*
X29253895Y-27239943D01*
X29390848Y-27242811D01*
X29525749Y-27219025D01*
X29653462Y-27169488D01*
X29769120Y-27096089D01*
X29868320Y-27001623D01*
X29947281Y-26889688D01*
X30002997Y-26764548D01*
X30033345Y-26630969D01*
X30035530Y-26474509D01*
X30021395Y-26403122D01*
X32951861Y-26403122D01*
X32976589Y-26537854D01*
X33027015Y-26665218D01*
X33101220Y-26780361D01*
X33196377Y-26878899D01*
X33308860Y-26957077D01*
X33434386Y-27011918D01*
X33568174Y-27041333D01*
X33705127Y-27044201D01*
X33840028Y-27020415D01*
X33967741Y-26970878D01*
X34083399Y-26897479D01*
X34182599Y-26803013D01*
X34261560Y-26691078D01*
X34317276Y-26565938D01*
X34337997Y-26474732D01*
X50862582Y-26474732D01*
X50887310Y-26609464D01*
X50937736Y-26736828D01*
X51011941Y-26851971D01*
X51107098Y-26950509D01*
X51219581Y-27028687D01*
X51269848Y-27050648D01*
X51236822Y-27063991D01*
X51122199Y-27138998D01*
X51024329Y-27234840D01*
X50946938Y-27347867D01*
X50892975Y-27473773D01*
X50864494Y-27607762D01*
X50862582Y-27744732D01*
X50887310Y-27879464D01*
X50937736Y-28006828D01*
X51011941Y-28121971D01*
X51107098Y-28220509D01*
X51219581Y-28298687D01*
X51345107Y-28353528D01*
X51478895Y-28382943D01*
X51615848Y-28385811D01*
X51750749Y-28362025D01*
X51878462Y-28312488D01*
X51994120Y-28239089D01*
X52093320Y-28144623D01*
X52172281Y-28032688D01*
X52227997Y-27907548D01*
X52250560Y-27808232D01*
X53466082Y-27808232D01*
X53490810Y-27942964D01*
X53541236Y-28070328D01*
X53615441Y-28185471D01*
X53710598Y-28284009D01*
X53823081Y-28362187D01*
X53948607Y-28417028D01*
X54082395Y-28446443D01*
X54219348Y-28449311D01*
X54354249Y-28425525D01*
X54481962Y-28375988D01*
X54597620Y-28302589D01*
X54696820Y-28208123D01*
X54775781Y-28096188D01*
X54831497Y-27971048D01*
X54861845Y-27837469D01*
X54864030Y-27681009D01*
X54848643Y-27603298D01*
X56345493Y-27603298D01*
X56370221Y-27738030D01*
X56420647Y-27865394D01*
X56494852Y-27980537D01*
X56590009Y-28079075D01*
X56702492Y-28157253D01*
X56828018Y-28212094D01*
X56961806Y-28241509D01*
X57098759Y-28244377D01*
X57233660Y-28220591D01*
X57361373Y-28171054D01*
X57477031Y-28097655D01*
X57576231Y-28003189D01*
X57655192Y-27891254D01*
X57710908Y-27766114D01*
X57741256Y-27632535D01*
X57743441Y-27476075D01*
X57716834Y-27341700D01*
X57664634Y-27215053D01*
X57588829Y-27100957D01*
X57492306Y-27003758D01*
X57378742Y-26927158D01*
X57252463Y-26874075D01*
X57118277Y-26846531D01*
X56981298Y-26845575D01*
X56846741Y-26871243D01*
X56719733Y-26922557D01*
X56605110Y-26997564D01*
X56507240Y-27093406D01*
X56429849Y-27206433D01*
X56375886Y-27332339D01*
X56347405Y-27466328D01*
X56345493Y-27603298D01*
X54848643Y-27603298D01*
X54837423Y-27546634D01*
X54785223Y-27419987D01*
X54709418Y-27305891D01*
X54612895Y-27208692D01*
X54499331Y-27132092D01*
X54373052Y-27079009D01*
X54238866Y-27051465D01*
X54101887Y-27050509D01*
X53967330Y-27076177D01*
X53840322Y-27127491D01*
X53725699Y-27202498D01*
X53627829Y-27298340D01*
X53550438Y-27411367D01*
X53496475Y-27537273D01*
X53467994Y-27671262D01*
X53466082Y-27808232D01*
X52250560Y-27808232D01*
X52258345Y-27773969D01*
X52260530Y-27617509D01*
X52233923Y-27483134D01*
X52181723Y-27356487D01*
X52105918Y-27242391D01*
X52009395Y-27145192D01*
X51895831Y-27068592D01*
X51855198Y-27051511D01*
X51878462Y-27042488D01*
X51994120Y-26969089D01*
X52093320Y-26874623D01*
X52172281Y-26762688D01*
X52227997Y-26637548D01*
X52258345Y-26503969D01*
X52260530Y-26347509D01*
X52233923Y-26213134D01*
X52181723Y-26086487D01*
X52105918Y-25972391D01*
X52009395Y-25875192D01*
X51895831Y-25798592D01*
X51769552Y-25745509D01*
X51635366Y-25717965D01*
X51498387Y-25717009D01*
X51363830Y-25742677D01*
X51236822Y-25793991D01*
X51122199Y-25868998D01*
X51024329Y-25964840D01*
X50946938Y-26077867D01*
X50892975Y-26203773D01*
X50864494Y-26337762D01*
X50862582Y-26474732D01*
X34337997Y-26474732D01*
X34347624Y-26432359D01*
X34349809Y-26275899D01*
X34323202Y-26141524D01*
X34271002Y-26014877D01*
X34195197Y-25900781D01*
X34098674Y-25803582D01*
X33985110Y-25726982D01*
X33858831Y-25673899D01*
X33724645Y-25646355D01*
X33587666Y-25645399D01*
X33453109Y-25671067D01*
X33326101Y-25722381D01*
X33211478Y-25797388D01*
X33113608Y-25893230D01*
X33036217Y-26006257D01*
X32982254Y-26132163D01*
X32953773Y-26266152D01*
X32951861Y-26403122D01*
X30021395Y-26403122D01*
X30008923Y-26340134D01*
X29956723Y-26213487D01*
X29880918Y-26099391D01*
X29784395Y-26002192D01*
X29670831Y-25925592D01*
X29544552Y-25872509D01*
X29410366Y-25844965D01*
X29273387Y-25844009D01*
X29138830Y-25869677D01*
X29011822Y-25920991D01*
X28897199Y-25995998D01*
X28799329Y-26091840D01*
X28721938Y-26204867D01*
X28667975Y-26330773D01*
X28639494Y-26464762D01*
X28637582Y-26601732D01*
X27030508Y-26601732D01*
X30703168Y-23648838D01*
X40702582Y-23648838D01*
X40727310Y-23783570D01*
X40777736Y-23910934D01*
X40851941Y-24026077D01*
X40947098Y-24124615D01*
X41059581Y-24202793D01*
X41185107Y-24257634D01*
X41318895Y-24287049D01*
X41455848Y-24289917D01*
X41590749Y-24266131D01*
X41718462Y-24216594D01*
X41834120Y-24143195D01*
X41910684Y-24070284D01*
X48917333Y-24070284D01*
X48942061Y-24205016D01*
X48992487Y-24332380D01*
X49066692Y-24447523D01*
X49161849Y-24546061D01*
X49274332Y-24624239D01*
X49399858Y-24679080D01*
X49533646Y-24708495D01*
X49670599Y-24711363D01*
X49805500Y-24687577D01*
X49933213Y-24638040D01*
X50048871Y-24564641D01*
X50148071Y-24470175D01*
X50227032Y-24358240D01*
X50282748Y-24233100D01*
X50313096Y-24099521D01*
X50315281Y-23943061D01*
X50288674Y-23808686D01*
X50241169Y-23693428D01*
X54510998Y-23693428D01*
X54535726Y-23828160D01*
X54586152Y-23955524D01*
X54660357Y-24070667D01*
X54755514Y-24169205D01*
X54867997Y-24247383D01*
X54993523Y-24302224D01*
X55127311Y-24331639D01*
X55264264Y-24334507D01*
X55399165Y-24310721D01*
X55526878Y-24261184D01*
X55642536Y-24187785D01*
X55741736Y-24093319D01*
X55820697Y-23981384D01*
X55876413Y-23856244D01*
X55906761Y-23722665D01*
X55908946Y-23566205D01*
X55882339Y-23431830D01*
X55830139Y-23305183D01*
X55754334Y-23191087D01*
X55657811Y-23093888D01*
X55544247Y-23017288D01*
X55417968Y-22964205D01*
X55283782Y-22936661D01*
X55146803Y-22935705D01*
X55012246Y-22961373D01*
X54885238Y-23012687D01*
X54770615Y-23087694D01*
X54672745Y-23183536D01*
X54595354Y-23296563D01*
X54541391Y-23422469D01*
X54512910Y-23556458D01*
X54510998Y-23693428D01*
X50241169Y-23693428D01*
X50236474Y-23682039D01*
X50160669Y-23567943D01*
X50064146Y-23470744D01*
X49950582Y-23394144D01*
X49824303Y-23341061D01*
X49690117Y-23313517D01*
X49553138Y-23312561D01*
X49418581Y-23338229D01*
X49291573Y-23389543D01*
X49176950Y-23464550D01*
X49079080Y-23560392D01*
X49001689Y-23673419D01*
X48947726Y-23799325D01*
X48919245Y-23933314D01*
X48917333Y-24070284D01*
X41910684Y-24070284D01*
X41933320Y-24048729D01*
X42012281Y-23936794D01*
X42067997Y-23811654D01*
X42098345Y-23678075D01*
X42100530Y-23521615D01*
X42073923Y-23387240D01*
X42021723Y-23260593D01*
X41945918Y-23146497D01*
X41849395Y-23049298D01*
X41735831Y-22972698D01*
X41609552Y-22919615D01*
X41475366Y-22892071D01*
X41338387Y-22891115D01*
X41203830Y-22916783D01*
X41076822Y-22968097D01*
X40962199Y-23043104D01*
X40864329Y-23138946D01*
X40786938Y-23251973D01*
X40732975Y-23377879D01*
X40704494Y-23511868D01*
X40702582Y-23648838D01*
X30703168Y-23648838D01*
X30791583Y-23577751D01*
X32818676Y-22518012D01*
X36335166Y-22518012D01*
X36359894Y-22652744D01*
X36410320Y-22780108D01*
X36484525Y-22895251D01*
X36579682Y-22993789D01*
X36692165Y-23071967D01*
X36817691Y-23126808D01*
X36951479Y-23156223D01*
X37088432Y-23159091D01*
X37223333Y-23135305D01*
X37351046Y-23085768D01*
X37466704Y-23012369D01*
X37565904Y-22917903D01*
X37644865Y-22805968D01*
X37700581Y-22680828D01*
X37730929Y-22547249D01*
X37733114Y-22390789D01*
X37706507Y-22256414D01*
X37654307Y-22129767D01*
X37578502Y-22015671D01*
X37481979Y-21918472D01*
X37368415Y-21841872D01*
X37242136Y-21788789D01*
X37107950Y-21761245D01*
X36970971Y-21760289D01*
X36836414Y-21785957D01*
X36709406Y-21837271D01*
X36594783Y-21912278D01*
X36496913Y-22008120D01*
X36419522Y-22121147D01*
X36365559Y-22247053D01*
X36337078Y-22381042D01*
X36335166Y-22518012D01*
X32818676Y-22518012D01*
X35044845Y-21354199D01*
X45315115Y-21354199D01*
X45339843Y-21488931D01*
X45390269Y-21616295D01*
X45464474Y-21731438D01*
X45559631Y-21829976D01*
X45672114Y-21908154D01*
X45797640Y-21962995D01*
X45931428Y-21992410D01*
X46068381Y-21995278D01*
X46203282Y-21971492D01*
X46330995Y-21921955D01*
X46446653Y-21848556D01*
X46545853Y-21754090D01*
X46624814Y-21642155D01*
X46680530Y-21517015D01*
X46710878Y-21383436D01*
X46713063Y-21226976D01*
X46686456Y-21092601D01*
X46634256Y-20965954D01*
X46558451Y-20851858D01*
X46461928Y-20754659D01*
X46348364Y-20678059D01*
X46222085Y-20624976D01*
X46087899Y-20597432D01*
X45950920Y-20596476D01*
X45816363Y-20622144D01*
X45689355Y-20673458D01*
X45574732Y-20748465D01*
X45476862Y-20844307D01*
X45399471Y-20957334D01*
X45345508Y-21083240D01*
X45317027Y-21217229D01*
X45315115Y-21354199D01*
X35044845Y-21354199D01*
X35105813Y-21322326D01*
X39775960Y-19947827D01*
X44624141Y-19506608D01*
X49465688Y-20015475D01*
X49465688Y-20015475D01*
G37*
X49465688Y-20015475D02*
X54116189Y-21455046D01*
X58398508Y-23770487D01*
X62149532Y-26873604D01*
X65226387Y-30646201D01*
X67511876Y-34944581D01*
X68918945Y-39605018D01*
X69394000Y-44450000D01*
X69384275Y-45146477D01*
X68774125Y-49976306D01*
X67237478Y-54595639D01*
X64832862Y-58828528D01*
X61651870Y-62513743D01*
X57815664Y-65510916D01*
X53470363Y-67705885D01*
X48988480Y-68957249D01*
X49052208Y-68814116D01*
X49102433Y-68593046D01*
X49106049Y-68334108D01*
X49062016Y-68111723D01*
X48975626Y-67902125D01*
X48850170Y-67713299D01*
X48690427Y-67552437D01*
X48502482Y-67425666D01*
X48293492Y-67337815D01*
X48071420Y-67292230D01*
X47844722Y-67290648D01*
X47622034Y-67333128D01*
X47411839Y-67418052D01*
X47222141Y-67542186D01*
X47060168Y-67700802D01*
X46932088Y-67887858D01*
X46842780Y-68096229D01*
X46795646Y-68317978D01*
X46792481Y-68544660D01*
X46833405Y-68767638D01*
X46916860Y-68978422D01*
X47027441Y-69150011D01*
X43927612Y-69388529D01*
X41873662Y-69143610D01*
X41959999Y-69021219D01*
X42052208Y-68814116D01*
X42074250Y-68717098D01*
X42090098Y-68733509D01*
X42202581Y-68811687D01*
X42328107Y-68866528D01*
X42461895Y-68895943D01*
X42598848Y-68898811D01*
X42733749Y-68875025D01*
X42861462Y-68825488D01*
X42977120Y-68752089D01*
X43076320Y-68657623D01*
X43155281Y-68545688D01*
X43210997Y-68420548D01*
X43241345Y-68286969D01*
X43243530Y-68130509D01*
X43228374Y-68053965D01*
X43344107Y-68104528D01*
X43477895Y-68133943D01*
X43614848Y-68136811D01*
X43749749Y-68113025D01*
X43877462Y-68063488D01*
X43993120Y-67990089D01*
X44092320Y-67895623D01*
X44171281Y-67783688D01*
X44226997Y-67658548D01*
X44257345Y-67524969D01*
X44259530Y-67368509D01*
X44232923Y-67234134D01*
X44180723Y-67107487D01*
X44104918Y-66993391D01*
X44008395Y-66896192D01*
X43894831Y-66819592D01*
X43768552Y-66766509D01*
X43634366Y-66738965D01*
X43497387Y-66738009D01*
X43362830Y-66763677D01*
X43235822Y-66814991D01*
X43121199Y-66889998D01*
X43023329Y-66985840D01*
X42945938Y-67098867D01*
X42891975Y-67224773D01*
X42863494Y-67358762D01*
X42861582Y-67495732D01*
X42877216Y-67580913D01*
X42752552Y-67528509D01*
X42618366Y-67500965D01*
X42481387Y-67500009D01*
X42346830Y-67525677D01*
X42219822Y-67576991D01*
X42105199Y-67651998D01*
X42007329Y-67747840D01*
X41939214Y-67847320D01*
X41850170Y-67713299D01*
X41690427Y-67552437D01*
X41502482Y-67425666D01*
X41293492Y-67337815D01*
X41071420Y-67292230D01*
X40844722Y-67290648D01*
X40622034Y-67333128D01*
X40411839Y-67418052D01*
X40222141Y-67542186D01*
X40060168Y-67700802D01*
X39932088Y-67887858D01*
X39842780Y-68096229D01*
X39795646Y-68317978D01*
X39792481Y-68544660D01*
X39833405Y-68767638D01*
X39888542Y-68906899D01*
X39093642Y-68812113D01*
X34463694Y-67307752D01*
X31060454Y-65405745D01*
X34132509Y-65405745D01*
X34157237Y-65540477D01*
X34207663Y-65667841D01*
X34281868Y-65782984D01*
X34377025Y-65881522D01*
X34489508Y-65959700D01*
X34615034Y-66014541D01*
X34748822Y-66043956D01*
X34885775Y-66046824D01*
X35020676Y-66023038D01*
X35148389Y-65973501D01*
X35264047Y-65900102D01*
X35363247Y-65805636D01*
X35408500Y-65741484D01*
X40939153Y-65741484D01*
X40954294Y-65907858D01*
X41001463Y-66068123D01*
X41078862Y-66216174D01*
X41183543Y-66346372D01*
X41311520Y-66453757D01*
X41457918Y-66534240D01*
X41617160Y-66584754D01*
X41783180Y-66603377D01*
X41795132Y-66603460D01*
X42104868Y-66603460D01*
X42271133Y-66587158D01*
X42431064Y-66538871D01*
X42578571Y-66460441D01*
X42708035Y-66354853D01*
X42814524Y-66226129D01*
X42893983Y-66079173D01*
X42943384Y-65919583D01*
X42960847Y-65753436D01*
X42945706Y-65587062D01*
X42898537Y-65426797D01*
X42821138Y-65278746D01*
X42716457Y-65148548D01*
X42588480Y-65041163D01*
X42442082Y-64960680D01*
X42282840Y-64910166D01*
X42116820Y-64891543D01*
X42104868Y-64891460D01*
X41795132Y-64891460D01*
X41628867Y-64907762D01*
X41468936Y-64956049D01*
X41321429Y-65034479D01*
X41191965Y-65140067D01*
X41085476Y-65268791D01*
X41006017Y-65415747D01*
X40956616Y-65575337D01*
X40939153Y-65741484D01*
X35408500Y-65741484D01*
X35442208Y-65693701D01*
X35497924Y-65568561D01*
X35528272Y-65434982D01*
X35530457Y-65278522D01*
X35503850Y-65144147D01*
X35451650Y-65017500D01*
X35375845Y-64903404D01*
X35279322Y-64806205D01*
X35165758Y-64729605D01*
X35039479Y-64676522D01*
X34905293Y-64648978D01*
X34768314Y-64648022D01*
X34633757Y-64673690D01*
X34506749Y-64725004D01*
X34392126Y-64800011D01*
X34294256Y-64895853D01*
X34216865Y-65008880D01*
X34162902Y-65134786D01*
X34134421Y-65268775D01*
X34132509Y-65405745D01*
X31060454Y-65405745D01*
X30214121Y-64932746D01*
X29047334Y-63939732D01*
X38162582Y-63939732D01*
X38187310Y-64074464D01*
X38237736Y-64201828D01*
X38311941Y-64316971D01*
X38407098Y-64415509D01*
X38519581Y-64493687D01*
X38645107Y-64548528D01*
X38778895Y-64577943D01*
X38915848Y-64580811D01*
X39050749Y-64557025D01*
X39178462Y-64507488D01*
X39294120Y-64434089D01*
X39393320Y-64339623D01*
X39472281Y-64227688D01*
X39527997Y-64102548D01*
X39558345Y-63968969D01*
X39560530Y-63812509D01*
X39533923Y-63678134D01*
X39481723Y-63551487D01*
X39405918Y-63437391D01*
X39309395Y-63340192D01*
X39195831Y-63263592D01*
X39069552Y-63210509D01*
X38935366Y-63182965D01*
X38798387Y-63182009D01*
X38663830Y-63207677D01*
X38536822Y-63258991D01*
X38422199Y-63333998D01*
X38324329Y-63429840D01*
X38246938Y-63542867D01*
X38192975Y-63668773D01*
X38164494Y-63802762D01*
X38162582Y-63939732D01*
X29047334Y-63939732D01*
X26506788Y-61777558D01*
X25204420Y-60134378D01*
X26867700Y-60134378D01*
X26892428Y-60269110D01*
X26942854Y-60396474D01*
X27017059Y-60511617D01*
X27112216Y-60610155D01*
X27224699Y-60688333D01*
X27350225Y-60743174D01*
X27484013Y-60772589D01*
X27620966Y-60775457D01*
X27755867Y-60751671D01*
X27883580Y-60702134D01*
X27999238Y-60628735D01*
X28098438Y-60534269D01*
X28177399Y-60422334D01*
X28233115Y-60297194D01*
X28263463Y-60163615D01*
X28265648Y-60007155D01*
X28239041Y-59872780D01*
X28186841Y-59746133D01*
X28111036Y-59632037D01*
X28014513Y-59534838D01*
X27900949Y-59458238D01*
X27774670Y-59405155D01*
X27640484Y-59377611D01*
X27503505Y-59376655D01*
X27368948Y-59402323D01*
X27241940Y-59453637D01*
X27127317Y-59528644D01*
X27029447Y-59624486D01*
X26952056Y-59737513D01*
X26898093Y-59863419D01*
X26869612Y-59997408D01*
X26867700Y-60134378D01*
X25204420Y-60134378D01*
X23482907Y-57962370D01*
X22118465Y-55307453D01*
X25644972Y-55307453D01*
X25669700Y-55442185D01*
X25720126Y-55569549D01*
X25794331Y-55684692D01*
X25889488Y-55783230D01*
X26001971Y-55861408D01*
X26127497Y-55916249D01*
X26261285Y-55945664D01*
X26398238Y-55948532D01*
X26533139Y-55924746D01*
X26660852Y-55875209D01*
X26776510Y-55801810D01*
X26875710Y-55707344D01*
X26954671Y-55595409D01*
X27010387Y-55470269D01*
X27040735Y-55336690D01*
X27042920Y-55180230D01*
X27016313Y-55045855D01*
X26964113Y-54919208D01*
X26888308Y-54805112D01*
X26791785Y-54707913D01*
X26678221Y-54631313D01*
X26551942Y-54578230D01*
X26417756Y-54550686D01*
X26280777Y-54549730D01*
X26146220Y-54575398D01*
X26019212Y-54626712D01*
X25904589Y-54701719D01*
X25806719Y-54797561D01*
X25729328Y-54910588D01*
X25675365Y-55036494D01*
X25646884Y-55170483D01*
X25644972Y-55307453D01*
X22118465Y-55307453D01*
X21257655Y-53632499D01*
X20767794Y-51924148D01*
X21759862Y-51924148D01*
X21784590Y-52058880D01*
X21835016Y-52186244D01*
X21909221Y-52301387D01*
X22004378Y-52399925D01*
X22116861Y-52478103D01*
X22242387Y-52532944D01*
X22376175Y-52562359D01*
X22513128Y-52565227D01*
X22648029Y-52541441D01*
X22775742Y-52491904D01*
X22891400Y-52418505D01*
X22990600Y-52324039D01*
X23069561Y-52212104D01*
X23125277Y-52086964D01*
X23155625Y-51953385D01*
X23157810Y-51796925D01*
X23131203Y-51662550D01*
X23079003Y-51535903D01*
X23003198Y-51421807D01*
X22906675Y-51324608D01*
X22793111Y-51248008D01*
X22666832Y-51194925D01*
X22532646Y-51167381D01*
X22395667Y-51166425D01*
X22261110Y-51192093D01*
X22134102Y-51243407D01*
X22019479Y-51318414D01*
X21921609Y-51414256D01*
X21844218Y-51527283D01*
X21790255Y-51653189D01*
X21761774Y-51787178D01*
X21759862Y-51924148D01*
X20767794Y-51924148D01*
X19915793Y-48952870D01*
X19508431Y-44101727D01*
X19562495Y-43619732D01*
X20763582Y-43619732D01*
X20788310Y-43754464D01*
X20838736Y-43881828D01*
X20912941Y-43996971D01*
X21008098Y-44095509D01*
X21120581Y-44173687D01*
X21246107Y-44228528D01*
X21379895Y-44257943D01*
X21516848Y-44260811D01*
X21651749Y-44237025D01*
X21779462Y-44187488D01*
X21895120Y-44114089D01*
X21994320Y-44019623D01*
X22073281Y-43907688D01*
X22128997Y-43782548D01*
X22159345Y-43648969D01*
X22161530Y-43492509D01*
X22134923Y-43358134D01*
X22082723Y-43231487D01*
X22006918Y-43117391D01*
X21910395Y-43020192D01*
X21796831Y-42943592D01*
X21670552Y-42890509D01*
X21536366Y-42862965D01*
X21399387Y-42862009D01*
X21264830Y-42887677D01*
X21137822Y-42938991D01*
X21023199Y-43013998D01*
X20925329Y-43109840D01*
X20847938Y-43222867D01*
X20793975Y-43348773D01*
X20765494Y-43482762D01*
X20763582Y-43619732D01*
X19562495Y-43619732D01*
X19868931Y-40887794D01*
X26543022Y-40887794D01*
X26558747Y-41060582D01*
X26607734Y-41227025D01*
X26688117Y-41380784D01*
X26796834Y-41516001D01*
X26929744Y-41627526D01*
X27081786Y-41711111D01*
X27247167Y-41763573D01*
X27419588Y-41782913D01*
X27432000Y-41783000D01*
X27571764Y-41783000D01*
X28953134Y-43164370D01*
X28953134Y-49709000D01*
X28961145Y-49790704D01*
X28968304Y-49872533D01*
X28969609Y-49877025D01*
X28970065Y-49881674D01*
X28993799Y-49960284D01*
X29016711Y-50039146D01*
X29018861Y-50043294D01*
X29020213Y-50047772D01*
X29058781Y-50120309D01*
X29096556Y-50193184D01*
X29099472Y-50196837D01*
X29101667Y-50200965D01*
X29153576Y-50264611D01*
X29204801Y-50328780D01*
X29211218Y-50335288D01*
X29211326Y-50335420D01*
X29211449Y-50335521D01*
X29213516Y-50337618D01*
X43379134Y-64503236D01*
X43379134Y-64857227D01*
X43387145Y-64938931D01*
X43394304Y-65020760D01*
X43395609Y-65025252D01*
X43396065Y-65029901D01*
X43419799Y-65108511D01*
X43442711Y-65187373D01*
X43444861Y-65191521D01*
X43446213Y-65195999D01*
X43484781Y-65268536D01*
X43522556Y-65341411D01*
X43525472Y-65345064D01*
X43527667Y-65349192D01*
X43579576Y-65412838D01*
X43630801Y-65477007D01*
X43637218Y-65483515D01*
X43637326Y-65483647D01*
X43637449Y-65483748D01*
X43639516Y-65485845D01*
X44831000Y-66677329D01*
X44831000Y-67310000D01*
X44847931Y-67482674D01*
X44898079Y-67648772D01*
X44979533Y-67801965D01*
X45089192Y-67936420D01*
X45222878Y-68047014D01*
X45375499Y-68129536D01*
X45541242Y-68180842D01*
X45713794Y-68198978D01*
X45886582Y-68183253D01*
X46053025Y-68134266D01*
X46206784Y-68053883D01*
X46342001Y-67945166D01*
X46453526Y-67812256D01*
X46537111Y-67660214D01*
X46589573Y-67494833D01*
X46608913Y-67322412D01*
X46609000Y-67310000D01*
X46609000Y-66582166D01*
X46617160Y-66584754D01*
X46783180Y-66603377D01*
X46795132Y-66603460D01*
X47104868Y-66603460D01*
X47271133Y-66587158D01*
X47431064Y-66538871D01*
X47578571Y-66460441D01*
X47708035Y-66354853D01*
X47814524Y-66226129D01*
X47893983Y-66079173D01*
X47943384Y-65919583D01*
X47960847Y-65753436D01*
X47945706Y-65587062D01*
X47898537Y-65426797D01*
X47821138Y-65278746D01*
X47716457Y-65148548D01*
X47638021Y-65082732D01*
X48576582Y-65082732D01*
X48601310Y-65217464D01*
X48651736Y-65344828D01*
X48725941Y-65459971D01*
X48821098Y-65558509D01*
X48933581Y-65636687D01*
X49059107Y-65691528D01*
X49192895Y-65720943D01*
X49329848Y-65723811D01*
X49464749Y-65700025D01*
X49592462Y-65650488D01*
X49708120Y-65577089D01*
X49807320Y-65482623D01*
X49886281Y-65370688D01*
X49901399Y-65336732D01*
X50862582Y-65336732D01*
X50887310Y-65471464D01*
X50937736Y-65598828D01*
X51011941Y-65713971D01*
X51107098Y-65812509D01*
X51219581Y-65890687D01*
X51345107Y-65945528D01*
X51478895Y-65974943D01*
X51615848Y-65977811D01*
X51727785Y-65958074D01*
X51725997Y-66086156D01*
X51750725Y-66220888D01*
X51801151Y-66348252D01*
X51875356Y-66463395D01*
X51970513Y-66561933D01*
X52082996Y-66640111D01*
X52208522Y-66694952D01*
X52342310Y-66724367D01*
X52479263Y-66727235D01*
X52614164Y-66703449D01*
X52741877Y-66653912D01*
X52857535Y-66580513D01*
X52956735Y-66486047D01*
X53035696Y-66374112D01*
X53091412Y-66248972D01*
X53121760Y-66115393D01*
X53123945Y-65958933D01*
X53097338Y-65824558D01*
X53045138Y-65697911D01*
X52969333Y-65583815D01*
X52872810Y-65486616D01*
X52759246Y-65410016D01*
X52632967Y-65356933D01*
X52498781Y-65329389D01*
X52361802Y-65328433D01*
X52258594Y-65348121D01*
X52260530Y-65209509D01*
X52233923Y-65075134D01*
X52181723Y-64948487D01*
X52105918Y-64834391D01*
X52009395Y-64737192D01*
X51895831Y-64660592D01*
X51769552Y-64607509D01*
X51635366Y-64579965D01*
X51498387Y-64579009D01*
X51363830Y-64604677D01*
X51236822Y-64655991D01*
X51122199Y-64730998D01*
X51024329Y-64826840D01*
X50946938Y-64939867D01*
X50892975Y-65065773D01*
X50864494Y-65199762D01*
X50862582Y-65336732D01*
X49901399Y-65336732D01*
X49941997Y-65245548D01*
X49972345Y-65111969D01*
X49974530Y-64955509D01*
X49947923Y-64821134D01*
X49895723Y-64694487D01*
X49819918Y-64580391D01*
X49723395Y-64483192D01*
X49609831Y-64406592D01*
X49483552Y-64353509D01*
X49349366Y-64325965D01*
X49212387Y-64325009D01*
X49077830Y-64350677D01*
X48950822Y-64401991D01*
X48836199Y-64476998D01*
X48738329Y-64572840D01*
X48660938Y-64685867D01*
X48606975Y-64811773D01*
X48578494Y-64945762D01*
X48576582Y-65082732D01*
X47638021Y-65082732D01*
X47588480Y-65041163D01*
X47442082Y-64960680D01*
X47287140Y-64911530D01*
X47354965Y-64875467D01*
X47489420Y-64765808D01*
X47600014Y-64632122D01*
X47682536Y-64479501D01*
X47733842Y-64313758D01*
X47751978Y-64141206D01*
X47736253Y-63968418D01*
X47687266Y-63801975D01*
X47606883Y-63648216D01*
X47498166Y-63512999D01*
X47365256Y-63401474D01*
X47213214Y-63317889D01*
X47047833Y-63265427D01*
X46875412Y-63246087D01*
X46863000Y-63246000D01*
X44636370Y-63246000D01*
X43293639Y-61903269D01*
X43368749Y-61890025D01*
X43496462Y-61840488D01*
X43612120Y-61767089D01*
X43711320Y-61672623D01*
X43790281Y-61560688D01*
X43845997Y-61435548D01*
X43855978Y-61391614D01*
X59376228Y-61391614D01*
X59400956Y-61526346D01*
X59451382Y-61653710D01*
X59525587Y-61768853D01*
X59620744Y-61867391D01*
X59733227Y-61945569D01*
X59858753Y-62000410D01*
X59992541Y-62029825D01*
X60129494Y-62032693D01*
X60264395Y-62008907D01*
X60392108Y-61959370D01*
X60507766Y-61885971D01*
X60606966Y-61791505D01*
X60685927Y-61679570D01*
X60741643Y-61554430D01*
X60771991Y-61420851D01*
X60774176Y-61264391D01*
X60747569Y-61130016D01*
X60695369Y-61003369D01*
X60619564Y-60889273D01*
X60523041Y-60792074D01*
X60409477Y-60715474D01*
X60283198Y-60662391D01*
X60149012Y-60634847D01*
X60012033Y-60633891D01*
X59877476Y-60659559D01*
X59750468Y-60710873D01*
X59635845Y-60785880D01*
X59537975Y-60881722D01*
X59460584Y-60994749D01*
X59406621Y-61120655D01*
X59378140Y-61254644D01*
X59376228Y-61391614D01*
X43855978Y-61391614D01*
X43876345Y-61301969D01*
X43878530Y-61145509D01*
X43851923Y-61011134D01*
X43799723Y-60884487D01*
X43723918Y-60770391D01*
X43627395Y-60673192D01*
X43513831Y-60596592D01*
X43387552Y-60543509D01*
X43253366Y-60515965D01*
X43116387Y-60515009D01*
X42981830Y-60540677D01*
X42854822Y-60591991D01*
X42740199Y-60666998D01*
X42642329Y-60762840D01*
X42564938Y-60875867D01*
X42510975Y-61001773D01*
X42490144Y-61099774D01*
X40741374Y-59351004D01*
X40857404Y-59277370D01*
X40965621Y-59174316D01*
X41051761Y-59052205D01*
X41112542Y-58915688D01*
X41145649Y-58769966D01*
X41148033Y-58599282D01*
X41125221Y-58484071D01*
X54240555Y-58484071D01*
X54267531Y-58631052D01*
X54322542Y-58769994D01*
X54403493Y-58895605D01*
X54507300Y-59003100D01*
X54630009Y-59088385D01*
X54766947Y-59148212D01*
X54912897Y-59180301D01*
X55062300Y-59183430D01*
X55209465Y-59157481D01*
X55348788Y-59103441D01*
X55474961Y-59023370D01*
X55583178Y-58920316D01*
X55669318Y-58798205D01*
X55730099Y-58661688D01*
X55763206Y-58515966D01*
X55765590Y-58345282D01*
X55736564Y-58198692D01*
X55679618Y-58060532D01*
X55596922Y-57936063D01*
X55491624Y-57830028D01*
X55367736Y-57746465D01*
X55229977Y-57688556D01*
X55083593Y-57658508D01*
X54934161Y-57657464D01*
X54787372Y-57685466D01*
X54648817Y-57741445D01*
X54523775Y-57823271D01*
X54417007Y-57927826D01*
X54332580Y-58051127D01*
X54273711Y-58188479D01*
X54242642Y-58334650D01*
X54240555Y-58484071D01*
X41125221Y-58484071D01*
X41119007Y-58452692D01*
X41062061Y-58314532D01*
X40979365Y-58190063D01*
X40874067Y-58084028D01*
X40750179Y-58000465D01*
X40612420Y-57942556D01*
X40466036Y-57912508D01*
X40316604Y-57911464D01*
X40169815Y-57939466D01*
X40031260Y-57995445D01*
X39906218Y-58077271D01*
X39799450Y-58181826D01*
X39715023Y-58305127D01*
X39709165Y-58318795D01*
X35926762Y-54536392D01*
X42163166Y-54536392D01*
X42185646Y-54658876D01*
X42231488Y-54774661D01*
X42289639Y-54864895D01*
X42239853Y-54937606D01*
X42190796Y-55052066D01*
X42164905Y-55173875D01*
X42163166Y-55298392D01*
X42185646Y-55420876D01*
X42231488Y-55536661D01*
X42298947Y-55641337D01*
X42385453Y-55730916D01*
X42487710Y-55801987D01*
X42601825Y-55851843D01*
X42723450Y-55878583D01*
X42847952Y-55881191D01*
X42970590Y-55859567D01*
X43086692Y-55814534D01*
X43191836Y-55747808D01*
X43282017Y-55661929D01*
X43353800Y-55560170D01*
X43404451Y-55446407D01*
X43432041Y-55324972D01*
X43432820Y-55269148D01*
X64565886Y-55269148D01*
X64590614Y-55403880D01*
X64641040Y-55531244D01*
X64715245Y-55646387D01*
X64810402Y-55744925D01*
X64922885Y-55823103D01*
X65048411Y-55877944D01*
X65182199Y-55907359D01*
X65319152Y-55910227D01*
X65454053Y-55886441D01*
X65581766Y-55836904D01*
X65697424Y-55763505D01*
X65796624Y-55669039D01*
X65875585Y-55557104D01*
X65931301Y-55431964D01*
X65961649Y-55298385D01*
X65963834Y-55141925D01*
X65937227Y-55007550D01*
X65885027Y-54880903D01*
X65809222Y-54766807D01*
X65712699Y-54669608D01*
X65599135Y-54593008D01*
X65472856Y-54539925D01*
X65338670Y-54512381D01*
X65201691Y-54511425D01*
X65067134Y-54537093D01*
X64940126Y-54588407D01*
X64825503Y-54663414D01*
X64727633Y-54759256D01*
X64650242Y-54872283D01*
X64596279Y-54998189D01*
X64567798Y-55132178D01*
X64565886Y-55269148D01*
X43432820Y-55269148D01*
X43434027Y-55182735D01*
X43409839Y-55060577D01*
X43362384Y-54945443D01*
X43307831Y-54863335D01*
X43353800Y-54798170D01*
X43404451Y-54684407D01*
X43432041Y-54562972D01*
X43434027Y-54420735D01*
X43409839Y-54298577D01*
X43362384Y-54183443D01*
X43293470Y-54079720D01*
X43205722Y-53991357D01*
X43102482Y-53921721D01*
X42987683Y-53873464D01*
X42865697Y-53848423D01*
X42741170Y-53847554D01*
X42618846Y-53870889D01*
X42503384Y-53917538D01*
X42399182Y-53985726D01*
X42310208Y-54072855D01*
X42239853Y-54175606D01*
X42190796Y-54290066D01*
X42164905Y-54411875D01*
X42163166Y-54536392D01*
X35926762Y-54536392D01*
X30731134Y-49340764D01*
X30731134Y-47054071D01*
X34034998Y-47054071D01*
X34061974Y-47201052D01*
X34116985Y-47339994D01*
X34197936Y-47465605D01*
X34301743Y-47573100D01*
X34424452Y-47658385D01*
X34561390Y-47718212D01*
X34707340Y-47750301D01*
X34856743Y-47753430D01*
X35003908Y-47727481D01*
X35143231Y-47673441D01*
X35269404Y-47593370D01*
X35377621Y-47490316D01*
X35463761Y-47368205D01*
X35524542Y-47231688D01*
X35557649Y-47085966D01*
X35560033Y-46915282D01*
X35531007Y-46768692D01*
X35474061Y-46630532D01*
X35391365Y-46506063D01*
X35286067Y-46400028D01*
X35162179Y-46316465D01*
X35024420Y-46258556D01*
X34878036Y-46228508D01*
X34728604Y-46227464D01*
X34581815Y-46255466D01*
X34443260Y-46311445D01*
X34318218Y-46393271D01*
X34211450Y-46497826D01*
X34127023Y-46621127D01*
X34068154Y-46758479D01*
X34037085Y-46904650D01*
X34034998Y-47054071D01*
X30731134Y-47054071D01*
X30731134Y-42796134D01*
X30723127Y-42714470D01*
X30715964Y-42632602D01*
X30714659Y-42628110D01*
X30714203Y-42623460D01*
X30690480Y-42544884D01*
X30667558Y-42465988D01*
X30665406Y-42461836D01*
X30664055Y-42457362D01*
X30625505Y-42384861D01*
X30587712Y-42311950D01*
X30584796Y-42308297D01*
X30582601Y-42304169D01*
X30530692Y-42240523D01*
X30479467Y-42176354D01*
X30473050Y-42169846D01*
X30472942Y-42169714D01*
X30472819Y-42169613D01*
X30470752Y-42167516D01*
X28568618Y-40265382D01*
X28505173Y-40213268D01*
X28442256Y-40160474D01*
X28438158Y-40158221D01*
X28434547Y-40155255D01*
X28362175Y-40116449D01*
X28290214Y-40076889D01*
X28285760Y-40075476D01*
X28281638Y-40073266D01*
X28203083Y-40049249D01*
X28124833Y-40024427D01*
X28120188Y-40023906D01*
X28115717Y-40022539D01*
X28034020Y-40014241D01*
X27952412Y-40005087D01*
X27943270Y-40005023D01*
X27943103Y-40005006D01*
X27942948Y-40005021D01*
X27940000Y-40005000D01*
X27432000Y-40005000D01*
X27259326Y-40021931D01*
X27093228Y-40072079D01*
X26940035Y-40153533D01*
X26805580Y-40263192D01*
X26694986Y-40396878D01*
X26612464Y-40549499D01*
X26561158Y-40715242D01*
X26543022Y-40887794D01*
X19868931Y-40887794D01*
X20010688Y-39624000D01*
X36957000Y-39624000D01*
X36957000Y-48514000D01*
X36964321Y-48588329D01*
X37002990Y-48782732D01*
X37059880Y-48920076D01*
X37170001Y-49084883D01*
X37275117Y-49189999D01*
X37439924Y-49300120D01*
X37577268Y-49357010D01*
X37771671Y-49395679D01*
X37846000Y-49403000D01*
X38241286Y-49403000D01*
X40139905Y-51301619D01*
X40203350Y-51353733D01*
X40266267Y-51406527D01*
X40270365Y-51408780D01*
X40273976Y-51411746D01*
X40346348Y-51450552D01*
X40418309Y-51490112D01*
X40422763Y-51491525D01*
X40426885Y-51493735D01*
X40505452Y-51517756D01*
X40583690Y-51542574D01*
X40588333Y-51543095D01*
X40592805Y-51544462D01*
X40674508Y-51552761D01*
X40756111Y-51561914D01*
X40765253Y-51561978D01*
X40765420Y-51561995D01*
X40765575Y-51561980D01*
X40768523Y-51562001D01*
X51066765Y-51562001D01*
X51187382Y-51682618D01*
X51321453Y-51792745D01*
X51474362Y-51874734D01*
X51640283Y-51925461D01*
X51812897Y-51942994D01*
X51985629Y-51926666D01*
X52151901Y-51877098D01*
X52305377Y-51796179D01*
X52440214Y-51686991D01*
X52495418Y-51620732D01*
X55688582Y-51620732D01*
X55713310Y-51755464D01*
X55763736Y-51882828D01*
X55837941Y-51997971D01*
X55933098Y-52096509D01*
X56045581Y-52174687D01*
X56171107Y-52229528D01*
X56304895Y-52258943D01*
X56441848Y-52261811D01*
X56576749Y-52238025D01*
X56704462Y-52188488D01*
X56820120Y-52115089D01*
X56919320Y-52020623D01*
X56998281Y-51908688D01*
X57053997Y-51783548D01*
X57084345Y-51649969D01*
X57086530Y-51493509D01*
X57059923Y-51359134D01*
X57007723Y-51232487D01*
X56931918Y-51118391D01*
X56835395Y-51021192D01*
X56721831Y-50944592D01*
X56595552Y-50891509D01*
X56461366Y-50863965D01*
X56324387Y-50863009D01*
X56189830Y-50888677D01*
X56062822Y-50939991D01*
X55948199Y-51014998D01*
X55850329Y-51110840D01*
X55772938Y-51223867D01*
X55718975Y-51349773D01*
X55690494Y-51483762D01*
X55688582Y-51620732D01*
X52495418Y-51620732D01*
X52551274Y-51553692D01*
X52634328Y-51401360D01*
X52686213Y-51235796D01*
X52704951Y-51063309D01*
X52689830Y-50890467D01*
X52641423Y-50723854D01*
X52561578Y-50569816D01*
X52453333Y-50434220D01*
X52444618Y-50425382D01*
X52063619Y-50044383D01*
X52000174Y-49992269D01*
X51937257Y-49939475D01*
X51933159Y-49937222D01*
X51929548Y-49934256D01*
X51857176Y-49895450D01*
X51785215Y-49855890D01*
X51780761Y-49854477D01*
X51776639Y-49852267D01*
X51698084Y-49828250D01*
X51619834Y-49803428D01*
X51615189Y-49802907D01*
X51610718Y-49801540D01*
X51529021Y-49793242D01*
X51447413Y-49784088D01*
X51438271Y-49784024D01*
X51438104Y-49784007D01*
X51437949Y-49784022D01*
X51435001Y-49784001D01*
X46294847Y-49784001D01*
X46433908Y-49759481D01*
X46573231Y-49705441D01*
X46699404Y-49625370D01*
X46807621Y-49522316D01*
X46891789Y-49403000D01*
X54176859Y-49403000D01*
X54166494Y-49451762D01*
X54164582Y-49588732D01*
X54189310Y-49723464D01*
X54239736Y-49850828D01*
X54313941Y-49965971D01*
X54409098Y-50064509D01*
X54521581Y-50142687D01*
X54647107Y-50197528D01*
X54780895Y-50226943D01*
X54917848Y-50229811D01*
X55052749Y-50206025D01*
X55180462Y-50156488D01*
X55296120Y-50083089D01*
X55395320Y-49988623D01*
X55474281Y-49876688D01*
X55529997Y-49751548D01*
X55547278Y-49675483D01*
X64189030Y-49675483D01*
X64213758Y-49810215D01*
X64264184Y-49937579D01*
X64338389Y-50052722D01*
X64433546Y-50151260D01*
X64546029Y-50229438D01*
X64671555Y-50284279D01*
X64805343Y-50313694D01*
X64942296Y-50316562D01*
X65077197Y-50292776D01*
X65204910Y-50243239D01*
X65320568Y-50169840D01*
X65419768Y-50075374D01*
X65498729Y-49963439D01*
X65554445Y-49838299D01*
X65584793Y-49704720D01*
X65586978Y-49548260D01*
X65560371Y-49413885D01*
X65508171Y-49287238D01*
X65432366Y-49173142D01*
X65335843Y-49075943D01*
X65222279Y-48999343D01*
X65096000Y-48946260D01*
X64961814Y-48918716D01*
X64824835Y-48917760D01*
X64690278Y-48943428D01*
X64563270Y-48994742D01*
X64448647Y-49069749D01*
X64350777Y-49165591D01*
X64273386Y-49278618D01*
X64219423Y-49404524D01*
X64190942Y-49538513D01*
X64189030Y-49675483D01*
X55547278Y-49675483D01*
X55560345Y-49617969D01*
X55562530Y-49461509D01*
X55550945Y-49403000D01*
X59690000Y-49403000D01*
X59764329Y-49395679D01*
X59958732Y-49357010D01*
X60096076Y-49300120D01*
X60260883Y-49189999D01*
X60365999Y-49084883D01*
X60476120Y-48920076D01*
X60533010Y-48782732D01*
X60571679Y-48588329D01*
X60579000Y-48514000D01*
X60579000Y-48148716D01*
X60641462Y-48124488D01*
X60757120Y-48051089D01*
X60856320Y-47956623D01*
X60935281Y-47844688D01*
X60990997Y-47719548D01*
X61021345Y-47585969D01*
X61023530Y-47429509D01*
X60996923Y-47295134D01*
X60944723Y-47168487D01*
X60868918Y-47054391D01*
X60807600Y-46992644D01*
X60807600Y-45397732D01*
X66737582Y-45397732D01*
X66762310Y-45532464D01*
X66812736Y-45659828D01*
X66886941Y-45774971D01*
X66982098Y-45873509D01*
X67094581Y-45951687D01*
X67220107Y-46006528D01*
X67353895Y-46035943D01*
X67490848Y-46038811D01*
X67625749Y-46015025D01*
X67753462Y-45965488D01*
X67869120Y-45892089D01*
X67968320Y-45797623D01*
X68047281Y-45685688D01*
X68102997Y-45560548D01*
X68133345Y-45426969D01*
X68135530Y-45270509D01*
X68108923Y-45136134D01*
X68056723Y-45009487D01*
X67980918Y-44895391D01*
X67884395Y-44798192D01*
X67770831Y-44721592D01*
X67644552Y-44668509D01*
X67510366Y-44640965D01*
X67373387Y-44640009D01*
X67238830Y-44665677D01*
X67111822Y-44716991D01*
X66997199Y-44791998D01*
X66899329Y-44887840D01*
X66821938Y-45000867D01*
X66767975Y-45126773D01*
X66739494Y-45260762D01*
X66737582Y-45397732D01*
X60807600Y-45397732D01*
X60807600Y-42596586D01*
X60872896Y-42610942D01*
X61009849Y-42613810D01*
X61144750Y-42590024D01*
X61272463Y-42540487D01*
X61388121Y-42467088D01*
X61487321Y-42372622D01*
X61566282Y-42260687D01*
X61621998Y-42135547D01*
X61652346Y-42001968D01*
X61654531Y-41845508D01*
X61627924Y-41711133D01*
X61575724Y-41584486D01*
X61499919Y-41470390D01*
X61403396Y-41373191D01*
X61289832Y-41296591D01*
X61163553Y-41243508D01*
X61029367Y-41215964D01*
X60892388Y-41215008D01*
X60807600Y-41231182D01*
X60807600Y-40132000D01*
X60803254Y-40087674D01*
X60799365Y-40043225D01*
X60798656Y-40040786D01*
X60798409Y-40038263D01*
X60785528Y-39995600D01*
X60773087Y-39952777D01*
X60771920Y-39950525D01*
X60771186Y-39948095D01*
X60750242Y-39908705D01*
X60729742Y-39869157D01*
X60728161Y-39867176D01*
X60726968Y-39864933D01*
X60698783Y-39830375D01*
X60670981Y-39795548D01*
X60667495Y-39792012D01*
X60667439Y-39791944D01*
X60667376Y-39791892D01*
X60666250Y-39790750D01*
X60579000Y-39703500D01*
X60579000Y-39624000D01*
X60571679Y-39549671D01*
X60533010Y-39355268D01*
X60476120Y-39217924D01*
X60365999Y-39053117D01*
X60260883Y-38948001D01*
X60096076Y-38837880D01*
X59958732Y-38780990D01*
X59764329Y-38742321D01*
X59690000Y-38735000D01*
X59610500Y-38735000D01*
X59523250Y-38647750D01*
X59488803Y-38619455D01*
X59454653Y-38590800D01*
X59452430Y-38589578D01*
X59450469Y-38587967D01*
X59411152Y-38566885D01*
X59372116Y-38545425D01*
X59369700Y-38544659D01*
X59367461Y-38543458D01*
X59324798Y-38530415D01*
X59282338Y-38516946D01*
X59279817Y-38516663D01*
X59277389Y-38515921D01*
X59233034Y-38511416D01*
X59188738Y-38506447D01*
X59183778Y-38506412D01*
X59183685Y-38506403D01*
X59183599Y-38506411D01*
X59182000Y-38506400D01*
X52777899Y-38506400D01*
X52770429Y-38498929D01*
X52807281Y-38446688D01*
X52862997Y-38321548D01*
X52893345Y-38187969D01*
X52895530Y-38031509D01*
X52868923Y-37897134D01*
X52819710Y-37777732D01*
X60260582Y-37777732D01*
X60285310Y-37912464D01*
X60335736Y-38039828D01*
X60409941Y-38154971D01*
X60505098Y-38253509D01*
X60617581Y-38331687D01*
X60743107Y-38386528D01*
X60876895Y-38415943D01*
X61013848Y-38418811D01*
X61148749Y-38395025D01*
X61276462Y-38345488D01*
X61392120Y-38272089D01*
X61491320Y-38177623D01*
X61570281Y-38065688D01*
X61625997Y-37940548D01*
X61656345Y-37806969D01*
X61658530Y-37650509D01*
X61631923Y-37516134D01*
X61579723Y-37389487D01*
X61503918Y-37275391D01*
X61407395Y-37178192D01*
X61293831Y-37101592D01*
X61167552Y-37048509D01*
X61033366Y-37020965D01*
X60896387Y-37020009D01*
X60761830Y-37045677D01*
X60634822Y-37096991D01*
X60520199Y-37171998D01*
X60422329Y-37267840D01*
X60344938Y-37380867D01*
X60290975Y-37506773D01*
X60262494Y-37640762D01*
X60260582Y-37777732D01*
X52819710Y-37777732D01*
X52816723Y-37770487D01*
X52740918Y-37656391D01*
X52644395Y-37559192D01*
X52530831Y-37482592D01*
X52404552Y-37429509D01*
X52270366Y-37401965D01*
X52133387Y-37401009D01*
X51998830Y-37426677D01*
X51871822Y-37477991D01*
X51757199Y-37552998D01*
X51659329Y-37648840D01*
X51581938Y-37761867D01*
X51527975Y-37887773D01*
X51499494Y-38021762D01*
X51497582Y-38158732D01*
X51522310Y-38293464D01*
X51572736Y-38420828D01*
X51646941Y-38535971D01*
X51714400Y-38605827D01*
X51714400Y-38608000D01*
X51718746Y-38652326D01*
X51722635Y-38696775D01*
X51723344Y-38699214D01*
X51723591Y-38701737D01*
X51733634Y-38735000D01*
X49062517Y-38735000D01*
X49084462Y-38726488D01*
X49200120Y-38653089D01*
X49299320Y-38558623D01*
X49378281Y-38446688D01*
X49433997Y-38321548D01*
X49464345Y-38187969D01*
X49466530Y-38031509D01*
X49439923Y-37897134D01*
X49387723Y-37770487D01*
X49311918Y-37656391D01*
X49215395Y-37559192D01*
X49101831Y-37482592D01*
X48975552Y-37429509D01*
X48841366Y-37401965D01*
X48704387Y-37401009D01*
X48569830Y-37426677D01*
X48442822Y-37477991D01*
X48328199Y-37552998D01*
X48230329Y-37648840D01*
X48152938Y-37761867D01*
X48098975Y-37887773D01*
X48070494Y-38021762D01*
X48068582Y-38158732D01*
X48093310Y-38293464D01*
X48143736Y-38420828D01*
X48217941Y-38535971D01*
X48313098Y-38634509D01*
X48425581Y-38712687D01*
X48476653Y-38735000D01*
X37846000Y-38735000D01*
X37771671Y-38742321D01*
X37577268Y-38780990D01*
X37439924Y-38837880D01*
X37275117Y-38948001D01*
X37170001Y-39053117D01*
X37059880Y-39217924D01*
X37002990Y-39355268D01*
X36964321Y-39549671D01*
X36957000Y-39624000D01*
X20010688Y-39624000D01*
X20051086Y-39263851D01*
X21126812Y-35872732D01*
X49084582Y-35872732D01*
X49109310Y-36007464D01*
X49159736Y-36134828D01*
X49233941Y-36249971D01*
X49329098Y-36348509D01*
X49441581Y-36426687D01*
X49567107Y-36481528D01*
X49700895Y-36510943D01*
X49837848Y-36513811D01*
X49972749Y-36490025D01*
X50100462Y-36440488D01*
X50194622Y-36380732D01*
X59244582Y-36380732D01*
X59269310Y-36515464D01*
X59319736Y-36642828D01*
X59393941Y-36757971D01*
X59489098Y-36856509D01*
X59601581Y-36934687D01*
X59727107Y-36989528D01*
X59860895Y-37018943D01*
X59997848Y-37021811D01*
X60132749Y-36998025D01*
X60260462Y-36948488D01*
X60376120Y-36875089D01*
X60475320Y-36780623D01*
X60554281Y-36668688D01*
X60609997Y-36543548D01*
X60612321Y-36533317D01*
X65328006Y-36533317D01*
X65352734Y-36668049D01*
X65403160Y-36795413D01*
X65477365Y-36910556D01*
X65572522Y-37009094D01*
X65685005Y-37087272D01*
X65810531Y-37142113D01*
X65944319Y-37171528D01*
X66081272Y-37174396D01*
X66216173Y-37150610D01*
X66343886Y-37101073D01*
X66459544Y-37027674D01*
X66558744Y-36933208D01*
X66637705Y-36821273D01*
X66693421Y-36696133D01*
X66723769Y-36562554D01*
X66725954Y-36406094D01*
X66699347Y-36271719D01*
X66647147Y-36145072D01*
X66571342Y-36030976D01*
X66474819Y-35933777D01*
X66361255Y-35857177D01*
X66234976Y-35804094D01*
X66100790Y-35776550D01*
X65963811Y-35775594D01*
X65829254Y-35801262D01*
X65702246Y-35852576D01*
X65587623Y-35927583D01*
X65489753Y-36023425D01*
X65412362Y-36136452D01*
X65358399Y-36262358D01*
X65329918Y-36396347D01*
X65328006Y-36533317D01*
X60612321Y-36533317D01*
X60640345Y-36409969D01*
X60642530Y-36253509D01*
X60615923Y-36119134D01*
X60563723Y-35992487D01*
X60487918Y-35878391D01*
X60391395Y-35781192D01*
X60277831Y-35704592D01*
X60151552Y-35651509D01*
X60017366Y-35623965D01*
X59880387Y-35623009D01*
X59745830Y-35648677D01*
X59618822Y-35699991D01*
X59504199Y-35774998D01*
X59406329Y-35870840D01*
X59328938Y-35983867D01*
X59274975Y-36109773D01*
X59246494Y-36243762D01*
X59244582Y-36380732D01*
X50194622Y-36380732D01*
X50216120Y-36367089D01*
X50315320Y-36272623D01*
X50394281Y-36160688D01*
X50449997Y-36035548D01*
X50480345Y-35901969D01*
X50482530Y-35745509D01*
X50455923Y-35611134D01*
X50403723Y-35484487D01*
X50327918Y-35370391D01*
X50231395Y-35273192D01*
X50117831Y-35196592D01*
X49991552Y-35143509D01*
X49857366Y-35115965D01*
X49720387Y-35115009D01*
X49585830Y-35140677D01*
X49458822Y-35191991D01*
X49344199Y-35266998D01*
X49246329Y-35362840D01*
X49168938Y-35475867D01*
X49114975Y-35601773D01*
X49086494Y-35735762D01*
X49084582Y-35872732D01*
X21126812Y-35872732D01*
X21438344Y-34890659D01*
X22853569Y-34890659D01*
X22878297Y-35025391D01*
X22928723Y-35152755D01*
X23002928Y-35267898D01*
X23098085Y-35366436D01*
X23210568Y-35444614D01*
X23336094Y-35499455D01*
X23469882Y-35528870D01*
X23606835Y-35531738D01*
X23741736Y-35507952D01*
X23869449Y-35458415D01*
X23985107Y-35385016D01*
X24084307Y-35290550D01*
X24163268Y-35178615D01*
X24218984Y-35053475D01*
X24249332Y-34919896D01*
X24251517Y-34763436D01*
X24224910Y-34629061D01*
X24172710Y-34502414D01*
X24096905Y-34388318D01*
X24000382Y-34291119D01*
X23886818Y-34214519D01*
X23760539Y-34161436D01*
X23626353Y-34133892D01*
X23489374Y-34132936D01*
X23354817Y-34158604D01*
X23227809Y-34209918D01*
X23113186Y-34284925D01*
X23015316Y-34380767D01*
X22937925Y-34493794D01*
X22883962Y-34619700D01*
X22855481Y-34753689D01*
X22853569Y-34890659D01*
X21438344Y-34890659D01*
X21523088Y-34623513D01*
X21953425Y-33840732D01*
X40448582Y-33840732D01*
X40473310Y-33975464D01*
X40523736Y-34102828D01*
X40597941Y-34217971D01*
X40693098Y-34316509D01*
X40805581Y-34394687D01*
X40931107Y-34449528D01*
X41064895Y-34478943D01*
X41201848Y-34481811D01*
X41336749Y-34458025D01*
X41464462Y-34408488D01*
X41580120Y-34335089D01*
X41679320Y-34240623D01*
X41758281Y-34128688D01*
X41813997Y-34003548D01*
X41844345Y-33869969D01*
X41846530Y-33713509D01*
X41819923Y-33579134D01*
X41767723Y-33452487D01*
X41759249Y-33439732D01*
X57573582Y-33439732D01*
X57598310Y-33574464D01*
X57648736Y-33701828D01*
X57722941Y-33816971D01*
X57818098Y-33915509D01*
X57930581Y-33993687D01*
X58056107Y-34048528D01*
X58189895Y-34077943D01*
X58326848Y-34080811D01*
X58461749Y-34057025D01*
X58589462Y-34007488D01*
X58705120Y-33934089D01*
X58804320Y-33839623D01*
X58883281Y-33727688D01*
X58938997Y-33602548D01*
X58969345Y-33468969D01*
X58971530Y-33312509D01*
X58944923Y-33178134D01*
X58892723Y-33051487D01*
X58816918Y-32937391D01*
X58720395Y-32840192D01*
X58606831Y-32763592D01*
X58480552Y-32710509D01*
X58346366Y-32682965D01*
X58209387Y-32682009D01*
X58074830Y-32707677D01*
X57947822Y-32758991D01*
X57833199Y-32833998D01*
X57735329Y-32929840D01*
X57657938Y-33042867D01*
X57603975Y-33168773D01*
X57575494Y-33302762D01*
X57573582Y-33439732D01*
X41759249Y-33439732D01*
X41691918Y-33338391D01*
X41595395Y-33241192D01*
X41481831Y-33164592D01*
X41355552Y-33111509D01*
X41221366Y-33083965D01*
X41084387Y-33083009D01*
X40949830Y-33108677D01*
X40822822Y-33159991D01*
X40708199Y-33234998D01*
X40610329Y-33330840D01*
X40532938Y-33443867D01*
X40478975Y-33569773D01*
X40450494Y-33703762D01*
X40448582Y-33840732D01*
X21953425Y-33840732D01*
X23012753Y-31913821D01*
X26845148Y-31913821D01*
X26869876Y-32048553D01*
X26920302Y-32175917D01*
X26994507Y-32291060D01*
X27089664Y-32389598D01*
X27202147Y-32467776D01*
X27327673Y-32522617D01*
X27461461Y-32552032D01*
X27598414Y-32554900D01*
X27733315Y-32531114D01*
X27861028Y-32481577D01*
X27976686Y-32408178D01*
X28075886Y-32313712D01*
X28154847Y-32201777D01*
X28210563Y-32076637D01*
X28213722Y-32062732D01*
X45274582Y-32062732D01*
X45299310Y-32197464D01*
X45349736Y-32324828D01*
X45423941Y-32439971D01*
X45519098Y-32538509D01*
X45631581Y-32616687D01*
X45757107Y-32671528D01*
X45890895Y-32700943D01*
X46027848Y-32703811D01*
X46162749Y-32680025D01*
X46290462Y-32630488D01*
X46406120Y-32557089D01*
X46505320Y-32462623D01*
X46584281Y-32350688D01*
X46639997Y-32225548D01*
X46670345Y-32091969D01*
X46672530Y-31935509D01*
X46645923Y-31801134D01*
X46593723Y-31674487D01*
X46517918Y-31560391D01*
X46512299Y-31554732D01*
X54418582Y-31554732D01*
X54443310Y-31689464D01*
X54493736Y-31816828D01*
X54567941Y-31931971D01*
X54663098Y-32030509D01*
X54775581Y-32108687D01*
X54901107Y-32163528D01*
X55034895Y-32192943D01*
X55171848Y-32195811D01*
X55306749Y-32172025D01*
X55434462Y-32122488D01*
X55550120Y-32049089D01*
X55649320Y-31954623D01*
X55728281Y-31842688D01*
X55783997Y-31717548D01*
X55814345Y-31583969D01*
X55816530Y-31427509D01*
X55789923Y-31293134D01*
X55737723Y-31166487D01*
X55661918Y-31052391D01*
X55565395Y-30955192D01*
X55451831Y-30878592D01*
X55325552Y-30825509D01*
X55191366Y-30797965D01*
X55054387Y-30797009D01*
X54919830Y-30822677D01*
X54792822Y-30873991D01*
X54678199Y-30948998D01*
X54580329Y-31044840D01*
X54502938Y-31157867D01*
X54448975Y-31283773D01*
X54420494Y-31417762D01*
X54418582Y-31554732D01*
X46512299Y-31554732D01*
X46421395Y-31463192D01*
X46307831Y-31386592D01*
X46181552Y-31333509D01*
X46047366Y-31305965D01*
X45910387Y-31305009D01*
X45775830Y-31330677D01*
X45648822Y-31381991D01*
X45534199Y-31456998D01*
X45436329Y-31552840D01*
X45358938Y-31665867D01*
X45304975Y-31791773D01*
X45276494Y-31925762D01*
X45274582Y-32062732D01*
X28213722Y-32062732D01*
X28240911Y-31943058D01*
X28243096Y-31786598D01*
X28216489Y-31652223D01*
X28164289Y-31525576D01*
X28088484Y-31411480D01*
X27991961Y-31314281D01*
X27979790Y-31306071D01*
X35050998Y-31306071D01*
X35077974Y-31453052D01*
X35132985Y-31591994D01*
X35213936Y-31717605D01*
X35317743Y-31825100D01*
X35440452Y-31910385D01*
X35577390Y-31970212D01*
X35723340Y-32002301D01*
X35872743Y-32005430D01*
X36019908Y-31979481D01*
X36159231Y-31925441D01*
X36285404Y-31845370D01*
X36393621Y-31742316D01*
X36479761Y-31620205D01*
X36540542Y-31483688D01*
X36573649Y-31337966D01*
X36576033Y-31167282D01*
X36547007Y-31020692D01*
X36490061Y-30882532D01*
X36407365Y-30758063D01*
X36302067Y-30652028D01*
X36178179Y-30568465D01*
X36040420Y-30510556D01*
X35894036Y-30480508D01*
X35744604Y-30479464D01*
X35597815Y-30507466D01*
X35459260Y-30563445D01*
X35334218Y-30645271D01*
X35227450Y-30749826D01*
X35143023Y-30873127D01*
X35084154Y-31010479D01*
X35053085Y-31156650D01*
X35050998Y-31306071D01*
X27979790Y-31306071D01*
X27878397Y-31237681D01*
X27752118Y-31184598D01*
X27617932Y-31157054D01*
X27480953Y-31156098D01*
X27346396Y-31181766D01*
X27219388Y-31233080D01*
X27104765Y-31308087D01*
X27006895Y-31403929D01*
X26929504Y-31516956D01*
X26875541Y-31642862D01*
X26847060Y-31776851D01*
X26845148Y-31913821D01*
X23012753Y-31913821D01*
X23868369Y-30357463D01*
X24995054Y-29014732D01*
X44385582Y-29014732D01*
X44410310Y-29149464D01*
X44460736Y-29276828D01*
X44534941Y-29391971D01*
X44630098Y-29490509D01*
X44742581Y-29568687D01*
X44868107Y-29623528D01*
X45001895Y-29652943D01*
X45138848Y-29655811D01*
X45273749Y-29632025D01*
X45401462Y-29582488D01*
X45517120Y-29509089D01*
X45616320Y-29414623D01*
X45692342Y-29306854D01*
X45730736Y-29403828D01*
X45804941Y-29518971D01*
X45818635Y-29533152D01*
X45793366Y-29527965D01*
X45656387Y-29527009D01*
X45521830Y-29552677D01*
X45394822Y-29603991D01*
X45280199Y-29678998D01*
X45182329Y-29774840D01*
X45104938Y-29887867D01*
X45050975Y-30013773D01*
X45022494Y-30147762D01*
X45020582Y-30284732D01*
X45045310Y-30419464D01*
X45095736Y-30546828D01*
X45169941Y-30661971D01*
X45265098Y-30760509D01*
X45377581Y-30838687D01*
X45503107Y-30893528D01*
X45636895Y-30922943D01*
X45773848Y-30925811D01*
X45908749Y-30902025D01*
X46036462Y-30852488D01*
X46152120Y-30779089D01*
X46251320Y-30684623D01*
X46330281Y-30572688D01*
X46385997Y-30447548D01*
X46416345Y-30313969D01*
X46418530Y-30157509D01*
X46391923Y-30023134D01*
X46339723Y-29896487D01*
X46263918Y-29782391D01*
X46258580Y-29777016D01*
X46271895Y-29779943D01*
X46408848Y-29782811D01*
X46543749Y-29759025D01*
X46671462Y-29709488D01*
X46787120Y-29636089D01*
X46886320Y-29541623D01*
X46965281Y-29429688D01*
X46980399Y-29395732D01*
X61657582Y-29395732D01*
X61682310Y-29530464D01*
X61732736Y-29657828D01*
X61806941Y-29772971D01*
X61902098Y-29871509D01*
X62014581Y-29949687D01*
X62140107Y-30004528D01*
X62273895Y-30033943D01*
X62410848Y-30036811D01*
X62545749Y-30013025D01*
X62673462Y-29963488D01*
X62789120Y-29890089D01*
X62888320Y-29795623D01*
X62967281Y-29683688D01*
X63022997Y-29558548D01*
X63053345Y-29424969D01*
X63055530Y-29268509D01*
X63028923Y-29134134D01*
X62976723Y-29007487D01*
X62900918Y-28893391D01*
X62804395Y-28796192D01*
X62690831Y-28719592D01*
X62564552Y-28666509D01*
X62430366Y-28638965D01*
X62293387Y-28638009D01*
X62158830Y-28663677D01*
X62031822Y-28714991D01*
X61917199Y-28789998D01*
X61819329Y-28885840D01*
X61741938Y-28998867D01*
X61687975Y-29124773D01*
X61659494Y-29258762D01*
X61657582Y-29395732D01*
X46980399Y-29395732D01*
X47020997Y-29304548D01*
X47051345Y-29170969D01*
X47053530Y-29014509D01*
X47026923Y-28880134D01*
X46974723Y-28753487D01*
X46898918Y-28639391D01*
X46802395Y-28542192D01*
X46688831Y-28465592D01*
X46562552Y-28412509D01*
X46428366Y-28384965D01*
X46291387Y-28384009D01*
X46156830Y-28409677D01*
X46029822Y-28460991D01*
X45915199Y-28535998D01*
X45817329Y-28631840D01*
X45748414Y-28732489D01*
X45704723Y-28626487D01*
X45628918Y-28512391D01*
X45532395Y-28415192D01*
X45418831Y-28338592D01*
X45292552Y-28285509D01*
X45158366Y-28257965D01*
X45021387Y-28257009D01*
X44886830Y-28282677D01*
X44759822Y-28333991D01*
X44645199Y-28408998D01*
X44547329Y-28504840D01*
X44469938Y-28617867D01*
X44415975Y-28743773D01*
X44387494Y-28877762D01*
X44385582Y-29014732D01*
X24995054Y-29014732D01*
X26460121Y-27268732D01*
X45274582Y-27268732D01*
X45299310Y-27403464D01*
X45349736Y-27530828D01*
X45423941Y-27645971D01*
X45519098Y-27744509D01*
X45631581Y-27822687D01*
X45757107Y-27877528D01*
X45890895Y-27906943D01*
X46027848Y-27909811D01*
X46162749Y-27886025D01*
X46290462Y-27836488D01*
X46406120Y-27763089D01*
X46505320Y-27668623D01*
X46584281Y-27556688D01*
X46639997Y-27431548D01*
X46670345Y-27297969D01*
X46672530Y-27141509D01*
X46645923Y-27007134D01*
X46593723Y-26880487D01*
X46517918Y-26766391D01*
X46421395Y-26669192D01*
X46307831Y-26592592D01*
X46181552Y-26539509D01*
X46047366Y-26511965D01*
X45910387Y-26511009D01*
X45775830Y-26536677D01*
X45648822Y-26587991D01*
X45534199Y-26662998D01*
X45436329Y-26758840D01*
X45358938Y-26871867D01*
X45304975Y-26997773D01*
X45276494Y-27131762D01*
X45274582Y-27268732D01*
X26460121Y-27268732D01*
X26997598Y-26628193D01*
X27030508Y-26601732D01*
X28637582Y-26601732D01*
X28662310Y-26736464D01*
X28712736Y-26863828D01*
X28786941Y-26978971D01*
X28882098Y-27077509D01*
X28994581Y-27155687D01*
X29120107Y-27210528D01*
X29253895Y-27239943D01*
X29390848Y-27242811D01*
X29525749Y-27219025D01*
X29653462Y-27169488D01*
X29769120Y-27096089D01*
X29868320Y-27001623D01*
X29947281Y-26889688D01*
X30002997Y-26764548D01*
X30033345Y-26630969D01*
X30035530Y-26474509D01*
X30021395Y-26403122D01*
X32951861Y-26403122D01*
X32976589Y-26537854D01*
X33027015Y-26665218D01*
X33101220Y-26780361D01*
X33196377Y-26878899D01*
X33308860Y-26957077D01*
X33434386Y-27011918D01*
X33568174Y-27041333D01*
X33705127Y-27044201D01*
X33840028Y-27020415D01*
X33967741Y-26970878D01*
X34083399Y-26897479D01*
X34182599Y-26803013D01*
X34261560Y-26691078D01*
X34317276Y-26565938D01*
X34337997Y-26474732D01*
X50862582Y-26474732D01*
X50887310Y-26609464D01*
X50937736Y-26736828D01*
X51011941Y-26851971D01*
X51107098Y-26950509D01*
X51219581Y-27028687D01*
X51269848Y-27050648D01*
X51236822Y-27063991D01*
X51122199Y-27138998D01*
X51024329Y-27234840D01*
X50946938Y-27347867D01*
X50892975Y-27473773D01*
X50864494Y-27607762D01*
X50862582Y-27744732D01*
X50887310Y-27879464D01*
X50937736Y-28006828D01*
X51011941Y-28121971D01*
X51107098Y-28220509D01*
X51219581Y-28298687D01*
X51345107Y-28353528D01*
X51478895Y-28382943D01*
X51615848Y-28385811D01*
X51750749Y-28362025D01*
X51878462Y-28312488D01*
X51994120Y-28239089D01*
X52093320Y-28144623D01*
X52172281Y-28032688D01*
X52227997Y-27907548D01*
X52250560Y-27808232D01*
X53466082Y-27808232D01*
X53490810Y-27942964D01*
X53541236Y-28070328D01*
X53615441Y-28185471D01*
X53710598Y-28284009D01*
X53823081Y-28362187D01*
X53948607Y-28417028D01*
X54082395Y-28446443D01*
X54219348Y-28449311D01*
X54354249Y-28425525D01*
X54481962Y-28375988D01*
X54597620Y-28302589D01*
X54696820Y-28208123D01*
X54775781Y-28096188D01*
X54831497Y-27971048D01*
X54861845Y-27837469D01*
X54864030Y-27681009D01*
X54848643Y-27603298D01*
X56345493Y-27603298D01*
X56370221Y-27738030D01*
X56420647Y-27865394D01*
X56494852Y-27980537D01*
X56590009Y-28079075D01*
X56702492Y-28157253D01*
X56828018Y-28212094D01*
X56961806Y-28241509D01*
X57098759Y-28244377D01*
X57233660Y-28220591D01*
X57361373Y-28171054D01*
X57477031Y-28097655D01*
X57576231Y-28003189D01*
X57655192Y-27891254D01*
X57710908Y-27766114D01*
X57741256Y-27632535D01*
X57743441Y-27476075D01*
X57716834Y-27341700D01*
X57664634Y-27215053D01*
X57588829Y-27100957D01*
X57492306Y-27003758D01*
X57378742Y-26927158D01*
X57252463Y-26874075D01*
X57118277Y-26846531D01*
X56981298Y-26845575D01*
X56846741Y-26871243D01*
X56719733Y-26922557D01*
X56605110Y-26997564D01*
X56507240Y-27093406D01*
X56429849Y-27206433D01*
X56375886Y-27332339D01*
X56347405Y-27466328D01*
X56345493Y-27603298D01*
X54848643Y-27603298D01*
X54837423Y-27546634D01*
X54785223Y-27419987D01*
X54709418Y-27305891D01*
X54612895Y-27208692D01*
X54499331Y-27132092D01*
X54373052Y-27079009D01*
X54238866Y-27051465D01*
X54101887Y-27050509D01*
X53967330Y-27076177D01*
X53840322Y-27127491D01*
X53725699Y-27202498D01*
X53627829Y-27298340D01*
X53550438Y-27411367D01*
X53496475Y-27537273D01*
X53467994Y-27671262D01*
X53466082Y-27808232D01*
X52250560Y-27808232D01*
X52258345Y-27773969D01*
X52260530Y-27617509D01*
X52233923Y-27483134D01*
X52181723Y-27356487D01*
X52105918Y-27242391D01*
X52009395Y-27145192D01*
X51895831Y-27068592D01*
X51855198Y-27051511D01*
X51878462Y-27042488D01*
X51994120Y-26969089D01*
X52093320Y-26874623D01*
X52172281Y-26762688D01*
X52227997Y-26637548D01*
X52258345Y-26503969D01*
X52260530Y-26347509D01*
X52233923Y-26213134D01*
X52181723Y-26086487D01*
X52105918Y-25972391D01*
X52009395Y-25875192D01*
X51895831Y-25798592D01*
X51769552Y-25745509D01*
X51635366Y-25717965D01*
X51498387Y-25717009D01*
X51363830Y-25742677D01*
X51236822Y-25793991D01*
X51122199Y-25868998D01*
X51024329Y-25964840D01*
X50946938Y-26077867D01*
X50892975Y-26203773D01*
X50864494Y-26337762D01*
X50862582Y-26474732D01*
X34337997Y-26474732D01*
X34347624Y-26432359D01*
X34349809Y-26275899D01*
X34323202Y-26141524D01*
X34271002Y-26014877D01*
X34195197Y-25900781D01*
X34098674Y-25803582D01*
X33985110Y-25726982D01*
X33858831Y-25673899D01*
X33724645Y-25646355D01*
X33587666Y-25645399D01*
X33453109Y-25671067D01*
X33326101Y-25722381D01*
X33211478Y-25797388D01*
X33113608Y-25893230D01*
X33036217Y-26006257D01*
X32982254Y-26132163D01*
X32953773Y-26266152D01*
X32951861Y-26403122D01*
X30021395Y-26403122D01*
X30008923Y-26340134D01*
X29956723Y-26213487D01*
X29880918Y-26099391D01*
X29784395Y-26002192D01*
X29670831Y-25925592D01*
X29544552Y-25872509D01*
X29410366Y-25844965D01*
X29273387Y-25844009D01*
X29138830Y-25869677D01*
X29011822Y-25920991D01*
X28897199Y-25995998D01*
X28799329Y-26091840D01*
X28721938Y-26204867D01*
X28667975Y-26330773D01*
X28639494Y-26464762D01*
X28637582Y-26601732D01*
X27030508Y-26601732D01*
X30703168Y-23648838D01*
X40702582Y-23648838D01*
X40727310Y-23783570D01*
X40777736Y-23910934D01*
X40851941Y-24026077D01*
X40947098Y-24124615D01*
X41059581Y-24202793D01*
X41185107Y-24257634D01*
X41318895Y-24287049D01*
X41455848Y-24289917D01*
X41590749Y-24266131D01*
X41718462Y-24216594D01*
X41834120Y-24143195D01*
X41910684Y-24070284D01*
X48917333Y-24070284D01*
X48942061Y-24205016D01*
X48992487Y-24332380D01*
X49066692Y-24447523D01*
X49161849Y-24546061D01*
X49274332Y-24624239D01*
X49399858Y-24679080D01*
X49533646Y-24708495D01*
X49670599Y-24711363D01*
X49805500Y-24687577D01*
X49933213Y-24638040D01*
X50048871Y-24564641D01*
X50148071Y-24470175D01*
X50227032Y-24358240D01*
X50282748Y-24233100D01*
X50313096Y-24099521D01*
X50315281Y-23943061D01*
X50288674Y-23808686D01*
X50241169Y-23693428D01*
X54510998Y-23693428D01*
X54535726Y-23828160D01*
X54586152Y-23955524D01*
X54660357Y-24070667D01*
X54755514Y-24169205D01*
X54867997Y-24247383D01*
X54993523Y-24302224D01*
X55127311Y-24331639D01*
X55264264Y-24334507D01*
X55399165Y-24310721D01*
X55526878Y-24261184D01*
X55642536Y-24187785D01*
X55741736Y-24093319D01*
X55820697Y-23981384D01*
X55876413Y-23856244D01*
X55906761Y-23722665D01*
X55908946Y-23566205D01*
X55882339Y-23431830D01*
X55830139Y-23305183D01*
X55754334Y-23191087D01*
X55657811Y-23093888D01*
X55544247Y-23017288D01*
X55417968Y-22964205D01*
X55283782Y-22936661D01*
X55146803Y-22935705D01*
X55012246Y-22961373D01*
X54885238Y-23012687D01*
X54770615Y-23087694D01*
X54672745Y-23183536D01*
X54595354Y-23296563D01*
X54541391Y-23422469D01*
X54512910Y-23556458D01*
X54510998Y-23693428D01*
X50241169Y-23693428D01*
X50236474Y-23682039D01*
X50160669Y-23567943D01*
X50064146Y-23470744D01*
X49950582Y-23394144D01*
X49824303Y-23341061D01*
X49690117Y-23313517D01*
X49553138Y-23312561D01*
X49418581Y-23338229D01*
X49291573Y-23389543D01*
X49176950Y-23464550D01*
X49079080Y-23560392D01*
X49001689Y-23673419D01*
X48947726Y-23799325D01*
X48919245Y-23933314D01*
X48917333Y-24070284D01*
X41910684Y-24070284D01*
X41933320Y-24048729D01*
X42012281Y-23936794D01*
X42067997Y-23811654D01*
X42098345Y-23678075D01*
X42100530Y-23521615D01*
X42073923Y-23387240D01*
X42021723Y-23260593D01*
X41945918Y-23146497D01*
X41849395Y-23049298D01*
X41735831Y-22972698D01*
X41609552Y-22919615D01*
X41475366Y-22892071D01*
X41338387Y-22891115D01*
X41203830Y-22916783D01*
X41076822Y-22968097D01*
X40962199Y-23043104D01*
X40864329Y-23138946D01*
X40786938Y-23251973D01*
X40732975Y-23377879D01*
X40704494Y-23511868D01*
X40702582Y-23648838D01*
X30703168Y-23648838D01*
X30791583Y-23577751D01*
X32818676Y-22518012D01*
X36335166Y-22518012D01*
X36359894Y-22652744D01*
X36410320Y-22780108D01*
X36484525Y-22895251D01*
X36579682Y-22993789D01*
X36692165Y-23071967D01*
X36817691Y-23126808D01*
X36951479Y-23156223D01*
X37088432Y-23159091D01*
X37223333Y-23135305D01*
X37351046Y-23085768D01*
X37466704Y-23012369D01*
X37565904Y-22917903D01*
X37644865Y-22805968D01*
X37700581Y-22680828D01*
X37730929Y-22547249D01*
X37733114Y-22390789D01*
X37706507Y-22256414D01*
X37654307Y-22129767D01*
X37578502Y-22015671D01*
X37481979Y-21918472D01*
X37368415Y-21841872D01*
X37242136Y-21788789D01*
X37107950Y-21761245D01*
X36970971Y-21760289D01*
X36836414Y-21785957D01*
X36709406Y-21837271D01*
X36594783Y-21912278D01*
X36496913Y-22008120D01*
X36419522Y-22121147D01*
X36365559Y-22247053D01*
X36337078Y-22381042D01*
X36335166Y-22518012D01*
X32818676Y-22518012D01*
X35044845Y-21354199D01*
X45315115Y-21354199D01*
X45339843Y-21488931D01*
X45390269Y-21616295D01*
X45464474Y-21731438D01*
X45559631Y-21829976D01*
X45672114Y-21908154D01*
X45797640Y-21962995D01*
X45931428Y-21992410D01*
X46068381Y-21995278D01*
X46203282Y-21971492D01*
X46330995Y-21921955D01*
X46446653Y-21848556D01*
X46545853Y-21754090D01*
X46624814Y-21642155D01*
X46680530Y-21517015D01*
X46710878Y-21383436D01*
X46713063Y-21226976D01*
X46686456Y-21092601D01*
X46634256Y-20965954D01*
X46558451Y-20851858D01*
X46461928Y-20754659D01*
X46348364Y-20678059D01*
X46222085Y-20624976D01*
X46087899Y-20597432D01*
X45950920Y-20596476D01*
X45816363Y-20622144D01*
X45689355Y-20673458D01*
X45574732Y-20748465D01*
X45476862Y-20844307D01*
X45399471Y-20957334D01*
X45345508Y-21083240D01*
X45317027Y-21217229D01*
X45315115Y-21354199D01*
X35044845Y-21354199D01*
X35105813Y-21322326D01*
X39775960Y-19947827D01*
X44624141Y-19506608D01*
X49465688Y-20015475D01*
G36*
X52236748Y-39330247D02*
X52236750Y-39330250D01*
X52391095Y-39433379D01*
X52393317Y-39434864D01*
X52578000Y-39471600D01*
X55186958Y-39471600D01*
X55181622Y-39484450D01*
X55181379Y-39762331D01*
X55287496Y-40019151D01*
X55483815Y-40215814D01*
X55740450Y-40322378D01*
X56018331Y-40322621D01*
X56275151Y-40216504D01*
X56471814Y-40020185D01*
X56578378Y-39763550D01*
X56578621Y-39485669D01*
X56572808Y-39471600D01*
X58982100Y-39471600D01*
X59842400Y-40331900D01*
X59842400Y-43614419D01*
X59832185Y-43604186D01*
X59575550Y-43497622D01*
X59297669Y-43497379D01*
X59040849Y-43603496D01*
X58844186Y-43799815D01*
X58737622Y-44056450D01*
X58737379Y-44334331D01*
X58843496Y-44591151D01*
X59039815Y-44787814D01*
X59143757Y-44830975D01*
X59040849Y-44873496D01*
X58844186Y-45069815D01*
X58737622Y-45326450D01*
X58737379Y-45604331D01*
X58843496Y-45861151D01*
X59039815Y-46057814D01*
X59296450Y-46164378D01*
X59574331Y-46164621D01*
X59831151Y-46058504D01*
X59842400Y-46047275D01*
X59842400Y-46992792D01*
X59733186Y-47101815D01*
X59626622Y-47358450D01*
X59626379Y-47636331D01*
X59732496Y-47893151D01*
X59928815Y-48089814D01*
X60071000Y-48148854D01*
X60071000Y-48501491D01*
X60039699Y-48658851D01*
X59957648Y-48781648D01*
X59834851Y-48863699D01*
X59677491Y-48895000D01*
X55156181Y-48895000D01*
X55003550Y-48831622D01*
X54725669Y-48831379D01*
X54571696Y-48895000D01*
X46990111Y-48895000D01*
X46990132Y-48871094D01*
X46874368Y-48590926D01*
X46660202Y-48376385D01*
X46380236Y-48260133D01*
X46077094Y-48259868D01*
X45796926Y-48375632D01*
X45582385Y-48589798D01*
X45466133Y-48869764D01*
X45466111Y-48895000D01*
X44996181Y-48895000D01*
X44843550Y-48831622D01*
X44565669Y-48831379D01*
X44411696Y-48895000D01*
X41492351Y-48895000D01*
X41486504Y-48880849D01*
X41290185Y-48684186D01*
X41033550Y-48577622D01*
X40755669Y-48577379D01*
X40498849Y-48683496D01*
X40302186Y-48879815D01*
X40295881Y-48895000D01*
X40247758Y-48895000D01*
X39243089Y-47890331D01*
X44767379Y-47890331D01*
X44873496Y-48147151D01*
X45069815Y-48343814D01*
X45326450Y-48450378D01*
X45604331Y-48450621D01*
X45861151Y-48344504D01*
X46057814Y-48148185D01*
X46164378Y-47891550D01*
X46164621Y-47613669D01*
X46100570Y-47458655D01*
X46354890Y-47458655D01*
X46451360Y-47692128D01*
X46629832Y-47870913D01*
X46863137Y-47967789D01*
X47115755Y-47968010D01*
X47349228Y-47871540D01*
X47528013Y-47693068D01*
X47624889Y-47459763D01*
X47625110Y-47207145D01*
X47528640Y-46973672D01*
X47350168Y-46794887D01*
X47116863Y-46698011D01*
X46864245Y-46697790D01*
X46630772Y-46794260D01*
X46451987Y-46972732D01*
X46355111Y-47206037D01*
X46354890Y-47458655D01*
X46100570Y-47458655D01*
X46058504Y-47356849D01*
X45862185Y-47160186D01*
X45605550Y-47053622D01*
X45327669Y-47053379D01*
X45070849Y-47159496D01*
X44874186Y-47355815D01*
X44767622Y-47612450D01*
X44767379Y-47890331D01*
X39243089Y-47890331D01*
X38989000Y-47636242D01*
X38989000Y-46188655D01*
X47116890Y-46188655D01*
X47213360Y-46422128D01*
X47391832Y-46600913D01*
X47625137Y-46697789D01*
X47877755Y-46698010D01*
X48111228Y-46601540D01*
X48290013Y-46423068D01*
X48386889Y-46189763D01*
X48387110Y-45937145D01*
X48290640Y-45703672D01*
X48112168Y-45524887D01*
X47878863Y-45428011D01*
X47626245Y-45427790D01*
X47392772Y-45524260D01*
X47213987Y-45702732D01*
X47117111Y-45936037D01*
X47116890Y-46188655D01*
X38989000Y-46188655D01*
X38989000Y-45720000D01*
X38921329Y-45379794D01*
X38728618Y-45091382D01*
X38440206Y-44898671D01*
X38100000Y-44831000D01*
X37759794Y-44898671D01*
X37471382Y-45091382D01*
X37465000Y-45100933D01*
X37465000Y-44604906D01*
X43437868Y-44604906D01*
X43553632Y-44885074D01*
X43767798Y-45099615D01*
X44047764Y-45215867D01*
X44350906Y-45216132D01*
X44631074Y-45100368D01*
X44845615Y-44886202D01*
X44961867Y-44606236D01*
X44961882Y-44588331D01*
X47053379Y-44588331D01*
X47159496Y-44845151D01*
X47355815Y-45041814D01*
X47612450Y-45148378D01*
X47890331Y-45148621D01*
X48147151Y-45042504D01*
X48343814Y-44846185D01*
X48369157Y-44785152D01*
X48371815Y-44787814D01*
X48628450Y-44894378D01*
X48906331Y-44894621D01*
X49163151Y-44788504D01*
X49274021Y-44677828D01*
X49383815Y-44787814D01*
X49640450Y-44894378D01*
X49918331Y-44894621D01*
X49998550Y-44861475D01*
X49880987Y-44978832D01*
X49784111Y-45212137D01*
X49783890Y-45464755D01*
X49880360Y-45698228D01*
X50058832Y-45877013D01*
X50292137Y-45973889D01*
X50544755Y-45974110D01*
X50778228Y-45877640D01*
X50957013Y-45699168D01*
X51053889Y-45465863D01*
X51054110Y-45213245D01*
X50957640Y-44979772D01*
X50779168Y-44800987D01*
X50545863Y-44704111D01*
X50293245Y-44703890D01*
X50236373Y-44727389D01*
X50371814Y-44592185D01*
X50373414Y-44588331D01*
X54673379Y-44588331D01*
X54779496Y-44845151D01*
X54975815Y-45041814D01*
X55232450Y-45148378D01*
X55510331Y-45148621D01*
X55767151Y-45042504D01*
X55963814Y-44846185D01*
X56070378Y-44589550D01*
X56070621Y-44311669D01*
X55964504Y-44054849D01*
X55768185Y-43858186D01*
X55511550Y-43751622D01*
X55233669Y-43751379D01*
X54976849Y-43857496D01*
X54780186Y-44053815D01*
X54673622Y-44310450D01*
X54673379Y-44588331D01*
X50373414Y-44588331D01*
X50478378Y-44335550D01*
X50478621Y-44057669D01*
X50372504Y-43800849D01*
X50176185Y-43604186D01*
X49919550Y-43497622D01*
X49641669Y-43497379D01*
X49384849Y-43603496D01*
X49273979Y-43714172D01*
X49164185Y-43604186D01*
X48907550Y-43497622D01*
X48629669Y-43497379D01*
X48372849Y-43603496D01*
X48176186Y-43799815D01*
X48150843Y-43860848D01*
X48148185Y-43858186D01*
X47891550Y-43751622D01*
X47613669Y-43751379D01*
X47356849Y-43857496D01*
X47160186Y-44053815D01*
X47053622Y-44310450D01*
X47053379Y-44588331D01*
X44961882Y-44588331D01*
X44962132Y-44303094D01*
X44846368Y-44022926D01*
X44632202Y-43808385D01*
X44352236Y-43692133D01*
X44049094Y-43691868D01*
X43768926Y-43807632D01*
X43554385Y-44021798D01*
X43438133Y-44301764D01*
X43437868Y-44604906D01*
X37465000Y-44604906D01*
X37465000Y-42048331D01*
X38671379Y-42048331D01*
X38777496Y-42305151D01*
X38973815Y-42501814D01*
X39230450Y-42608378D01*
X39508331Y-42608621D01*
X39765151Y-42502504D01*
X39838452Y-42429331D01*
X40026379Y-42429331D01*
X40132496Y-42686151D01*
X40328815Y-42882814D01*
X40585450Y-42989378D01*
X40863331Y-42989621D01*
X41120151Y-42883504D01*
X41316814Y-42687185D01*
X41423378Y-42430550D01*
X41423621Y-42152669D01*
X41317504Y-41895849D01*
X41121185Y-41699186D01*
X40864550Y-41592622D01*
X40586669Y-41592379D01*
X40329849Y-41698496D01*
X40133186Y-41894815D01*
X40026622Y-42151450D01*
X40026379Y-42429331D01*
X39838452Y-42429331D01*
X39961814Y-42306185D01*
X40068378Y-42049550D01*
X40068621Y-41771669D01*
X39973034Y-41540331D01*
X45275379Y-41540331D01*
X45381496Y-41797151D01*
X45577815Y-41993814D01*
X45834450Y-42100378D01*
X46112331Y-42100621D01*
X46369151Y-41994504D01*
X46565814Y-41798185D01*
X46672378Y-41541550D01*
X46672621Y-41263669D01*
X46566504Y-41006849D01*
X46370185Y-40810186D01*
X46113550Y-40703622D01*
X45835669Y-40703379D01*
X45578849Y-40809496D01*
X45382186Y-41005815D01*
X45275622Y-41262450D01*
X45275379Y-41540331D01*
X39973034Y-41540331D01*
X39962504Y-41514849D01*
X39766185Y-41318186D01*
X39509550Y-41211622D01*
X39231669Y-41211379D01*
X38974849Y-41317496D01*
X38778186Y-41513815D01*
X38671622Y-41770450D01*
X38671379Y-42048331D01*
X37465000Y-42048331D01*
X37465000Y-40270331D01*
X51371379Y-40270331D01*
X51477496Y-40527151D01*
X51673815Y-40723814D01*
X51930450Y-40830378D01*
X52208331Y-40830621D01*
X52465151Y-40724504D01*
X52661814Y-40528185D01*
X52768378Y-40271550D01*
X52768621Y-39993669D01*
X52662504Y-39736849D01*
X52466185Y-39540186D01*
X52209550Y-39433622D01*
X51931669Y-39433379D01*
X51674849Y-39539496D01*
X51478186Y-39735815D01*
X51371622Y-39992450D01*
X51371379Y-40270331D01*
X37465000Y-40270331D01*
X37465000Y-39636509D01*
X37496301Y-39479149D01*
X37578352Y-39356352D01*
X37701149Y-39274301D01*
X37858509Y-39243000D01*
X52149501Y-39243000D01*
X52236748Y-39330247D01*
X52236748Y-39330247D01*
G37*
X52236748Y-39330247D02*
X52236750Y-39330250D01*
X52391095Y-39433379D01*
X52393317Y-39434864D01*
X52578000Y-39471600D01*
X55186958Y-39471600D01*
X55181622Y-39484450D01*
X55181379Y-39762331D01*
X55287496Y-40019151D01*
X55483815Y-40215814D01*
X55740450Y-40322378D01*
X56018331Y-40322621D01*
X56275151Y-40216504D01*
X56471814Y-40020185D01*
X56578378Y-39763550D01*
X56578621Y-39485669D01*
X56572808Y-39471600D01*
X58982100Y-39471600D01*
X59842400Y-40331900D01*
X59842400Y-43614419D01*
X59832185Y-43604186D01*
X59575550Y-43497622D01*
X59297669Y-43497379D01*
X59040849Y-43603496D01*
X58844186Y-43799815D01*
X58737622Y-44056450D01*
X58737379Y-44334331D01*
X58843496Y-44591151D01*
X59039815Y-44787814D01*
X59143757Y-44830975D01*
X59040849Y-44873496D01*
X58844186Y-45069815D01*
X58737622Y-45326450D01*
X58737379Y-45604331D01*
X58843496Y-45861151D01*
X59039815Y-46057814D01*
X59296450Y-46164378D01*
X59574331Y-46164621D01*
X59831151Y-46058504D01*
X59842400Y-46047275D01*
X59842400Y-46992792D01*
X59733186Y-47101815D01*
X59626622Y-47358450D01*
X59626379Y-47636331D01*
X59732496Y-47893151D01*
X59928815Y-48089814D01*
X60071000Y-48148854D01*
X60071000Y-48501491D01*
X60039699Y-48658851D01*
X59957648Y-48781648D01*
X59834851Y-48863699D01*
X59677491Y-48895000D01*
X55156181Y-48895000D01*
X55003550Y-48831622D01*
X54725669Y-48831379D01*
X54571696Y-48895000D01*
X46990111Y-48895000D01*
X46990132Y-48871094D01*
X46874368Y-48590926D01*
X46660202Y-48376385D01*
X46380236Y-48260133D01*
X46077094Y-48259868D01*
X45796926Y-48375632D01*
X45582385Y-48589798D01*
X45466133Y-48869764D01*
X45466111Y-48895000D01*
X44996181Y-48895000D01*
X44843550Y-48831622D01*
X44565669Y-48831379D01*
X44411696Y-48895000D01*
X41492351Y-48895000D01*
X41486504Y-48880849D01*
X41290185Y-48684186D01*
X41033550Y-48577622D01*
X40755669Y-48577379D01*
X40498849Y-48683496D01*
X40302186Y-48879815D01*
X40295881Y-48895000D01*
X40247758Y-48895000D01*
X39243089Y-47890331D01*
X44767379Y-47890331D01*
X44873496Y-48147151D01*
X45069815Y-48343814D01*
X45326450Y-48450378D01*
X45604331Y-48450621D01*
X45861151Y-48344504D01*
X46057814Y-48148185D01*
X46164378Y-47891550D01*
X46164621Y-47613669D01*
X46100570Y-47458655D01*
X46354890Y-47458655D01*
X46451360Y-47692128D01*
X46629832Y-47870913D01*
X46863137Y-47967789D01*
X47115755Y-47968010D01*
X47349228Y-47871540D01*
X47528013Y-47693068D01*
X47624889Y-47459763D01*
X47625110Y-47207145D01*
X47528640Y-46973672D01*
X47350168Y-46794887D01*
X47116863Y-46698011D01*
X46864245Y-46697790D01*
X46630772Y-46794260D01*
X46451987Y-46972732D01*
X46355111Y-47206037D01*
X46354890Y-47458655D01*
X46100570Y-47458655D01*
X46058504Y-47356849D01*
X45862185Y-47160186D01*
X45605550Y-47053622D01*
X45327669Y-47053379D01*
X45070849Y-47159496D01*
X44874186Y-47355815D01*
X44767622Y-47612450D01*
X44767379Y-47890331D01*
X39243089Y-47890331D01*
X38989000Y-47636242D01*
X38989000Y-46188655D01*
X47116890Y-46188655D01*
X47213360Y-46422128D01*
X47391832Y-46600913D01*
X47625137Y-46697789D01*
X47877755Y-46698010D01*
X48111228Y-46601540D01*
X48290013Y-46423068D01*
X48386889Y-46189763D01*
X48387110Y-45937145D01*
X48290640Y-45703672D01*
X48112168Y-45524887D01*
X47878863Y-45428011D01*
X47626245Y-45427790D01*
X47392772Y-45524260D01*
X47213987Y-45702732D01*
X47117111Y-45936037D01*
X47116890Y-46188655D01*
X38989000Y-46188655D01*
X38989000Y-45720000D01*
X38921329Y-45379794D01*
X38728618Y-45091382D01*
X38440206Y-44898671D01*
X38100000Y-44831000D01*
X37759794Y-44898671D01*
X37471382Y-45091382D01*
X37465000Y-45100933D01*
X37465000Y-44604906D01*
X43437868Y-44604906D01*
X43553632Y-44885074D01*
X43767798Y-45099615D01*
X44047764Y-45215867D01*
X44350906Y-45216132D01*
X44631074Y-45100368D01*
X44845615Y-44886202D01*
X44961867Y-44606236D01*
X44961882Y-44588331D01*
X47053379Y-44588331D01*
X47159496Y-44845151D01*
X47355815Y-45041814D01*
X47612450Y-45148378D01*
X47890331Y-45148621D01*
X48147151Y-45042504D01*
X48343814Y-44846185D01*
X48369157Y-44785152D01*
X48371815Y-44787814D01*
X48628450Y-44894378D01*
X48906331Y-44894621D01*
X49163151Y-44788504D01*
X49274021Y-44677828D01*
X49383815Y-44787814D01*
X49640450Y-44894378D01*
X49918331Y-44894621D01*
X49998550Y-44861475D01*
X49880987Y-44978832D01*
X49784111Y-45212137D01*
X49783890Y-45464755D01*
X49880360Y-45698228D01*
X50058832Y-45877013D01*
X50292137Y-45973889D01*
X50544755Y-45974110D01*
X50778228Y-45877640D01*
X50957013Y-45699168D01*
X51053889Y-45465863D01*
X51054110Y-45213245D01*
X50957640Y-44979772D01*
X50779168Y-44800987D01*
X50545863Y-44704111D01*
X50293245Y-44703890D01*
X50236373Y-44727389D01*
X50371814Y-44592185D01*
X50373414Y-44588331D01*
X54673379Y-44588331D01*
X54779496Y-44845151D01*
X54975815Y-45041814D01*
X55232450Y-45148378D01*
X55510331Y-45148621D01*
X55767151Y-45042504D01*
X55963814Y-44846185D01*
X56070378Y-44589550D01*
X56070621Y-44311669D01*
X55964504Y-44054849D01*
X55768185Y-43858186D01*
X55511550Y-43751622D01*
X55233669Y-43751379D01*
X54976849Y-43857496D01*
X54780186Y-44053815D01*
X54673622Y-44310450D01*
X54673379Y-44588331D01*
X50373414Y-44588331D01*
X50478378Y-44335550D01*
X50478621Y-44057669D01*
X50372504Y-43800849D01*
X50176185Y-43604186D01*
X49919550Y-43497622D01*
X49641669Y-43497379D01*
X49384849Y-43603496D01*
X49273979Y-43714172D01*
X49164185Y-43604186D01*
X48907550Y-43497622D01*
X48629669Y-43497379D01*
X48372849Y-43603496D01*
X48176186Y-43799815D01*
X48150843Y-43860848D01*
X48148185Y-43858186D01*
X47891550Y-43751622D01*
X47613669Y-43751379D01*
X47356849Y-43857496D01*
X47160186Y-44053815D01*
X47053622Y-44310450D01*
X47053379Y-44588331D01*
X44961882Y-44588331D01*
X44962132Y-44303094D01*
X44846368Y-44022926D01*
X44632202Y-43808385D01*
X44352236Y-43692133D01*
X44049094Y-43691868D01*
X43768926Y-43807632D01*
X43554385Y-44021798D01*
X43438133Y-44301764D01*
X43437868Y-44604906D01*
X37465000Y-44604906D01*
X37465000Y-42048331D01*
X38671379Y-42048331D01*
X38777496Y-42305151D01*
X38973815Y-42501814D01*
X39230450Y-42608378D01*
X39508331Y-42608621D01*
X39765151Y-42502504D01*
X39838452Y-42429331D01*
X40026379Y-42429331D01*
X40132496Y-42686151D01*
X40328815Y-42882814D01*
X40585450Y-42989378D01*
X40863331Y-42989621D01*
X41120151Y-42883504D01*
X41316814Y-42687185D01*
X41423378Y-42430550D01*
X41423621Y-42152669D01*
X41317504Y-41895849D01*
X41121185Y-41699186D01*
X40864550Y-41592622D01*
X40586669Y-41592379D01*
X40329849Y-41698496D01*
X40133186Y-41894815D01*
X40026622Y-42151450D01*
X40026379Y-42429331D01*
X39838452Y-42429331D01*
X39961814Y-42306185D01*
X40068378Y-42049550D01*
X40068621Y-41771669D01*
X39973034Y-41540331D01*
X45275379Y-41540331D01*
X45381496Y-41797151D01*
X45577815Y-41993814D01*
X45834450Y-42100378D01*
X46112331Y-42100621D01*
X46369151Y-41994504D01*
X46565814Y-41798185D01*
X46672378Y-41541550D01*
X46672621Y-41263669D01*
X46566504Y-41006849D01*
X46370185Y-40810186D01*
X46113550Y-40703622D01*
X45835669Y-40703379D01*
X45578849Y-40809496D01*
X45382186Y-41005815D01*
X45275622Y-41262450D01*
X45275379Y-41540331D01*
X39973034Y-41540331D01*
X39962504Y-41514849D01*
X39766185Y-41318186D01*
X39509550Y-41211622D01*
X39231669Y-41211379D01*
X38974849Y-41317496D01*
X38778186Y-41513815D01*
X38671622Y-41770450D01*
X38671379Y-42048331D01*
X37465000Y-42048331D01*
X37465000Y-40270331D01*
X51371379Y-40270331D01*
X51477496Y-40527151D01*
X51673815Y-40723814D01*
X51930450Y-40830378D01*
X52208331Y-40830621D01*
X52465151Y-40724504D01*
X52661814Y-40528185D01*
X52768378Y-40271550D01*
X52768621Y-39993669D01*
X52662504Y-39736849D01*
X52466185Y-39540186D01*
X52209550Y-39433622D01*
X51931669Y-39433379D01*
X51674849Y-39539496D01*
X51478186Y-39735815D01*
X51371622Y-39992450D01*
X51371379Y-40270331D01*
X37465000Y-40270331D01*
X37465000Y-39636509D01*
X37496301Y-39479149D01*
X37578352Y-39356352D01*
X37701149Y-39274301D01*
X37858509Y-39243000D01*
X52149501Y-39243000D01*
X52236748Y-39330247D01*
M02*
