G04 #@! TF.FileFunction,Copper,L3,Inr,Mixed*
%FSLAX46Y46*%
G04 Gerber Fmt 4.6, Leading zero omitted, Abs format (unit mm)*
G04 Created by KiCad (PCBNEW 4.1.0-alpha+201609140817+7151~55~ubuntu16.04.1-) date Thu Sep 15 01:48:53 2016*
%MOMM*%
%LPD*%
G01*
G04 APERTURE LIST*
%ADD10C,0.100000*%
%ADD11C,1.550000*%
%ADD12O,1.250000X0.950000*%
%ADD13C,0.635000*%
%ADD14C,0.762000*%
%ADD15C,0.508000*%
%ADD16C,1.016000*%
%ADD17C,0.254000*%
G04 APERTURE END LIST*
D10*
D11*
X40950000Y-65692000D03*
X47950000Y-65692000D03*
D12*
X41950000Y-62992000D03*
X46950000Y-62992000D03*
D13*
X59536830Y-30620406D03*
X51453399Y-63680770D03*
X58279594Y-59536830D03*
X63000359Y-53096057D03*
X63680770Y-37446601D03*
X64897000Y-45339000D03*
X35803943Y-63000359D03*
X29363170Y-58279594D03*
X25219230Y-51453399D03*
X25899641Y-35803943D03*
X24003000Y-43561000D03*
X30620406Y-29363170D03*
X37446601Y-25219230D03*
X53096057Y-25899641D03*
X45339000Y-24003000D03*
X49800000Y-42148000D03*
X58928000Y-45212000D03*
X60706000Y-40894000D03*
X46228000Y-48514000D03*
D14*
X51562393Y-58559164D03*
X44450000Y-64516000D03*
X34798000Y-46990000D03*
D13*
X45720000Y-33782000D03*
D14*
X35814000Y-31242000D03*
D13*
X40725000Y-42291000D03*
D14*
X44200000Y-44454000D03*
X40386000Y-58674000D03*
D13*
X50292000Y-41148000D03*
X59182000Y-43434000D03*
X48768000Y-46990000D03*
X41402000Y-39624000D03*
X38227000Y-44323000D03*
X55372000Y-44450000D03*
X41402000Y-48260000D03*
D15*
X42926000Y-54258400D03*
X42926000Y-54969600D03*
D13*
X58099989Y-29183565D03*
X43180000Y-58674000D03*
X53330722Y-62903158D03*
X59716435Y-58099989D03*
X63777972Y-51218734D03*
X62903158Y-35569278D03*
X64897000Y-43307000D03*
X37681266Y-63777972D03*
X30800011Y-59716435D03*
X25996842Y-53330722D03*
X25122028Y-37681266D03*
X24003000Y-45593000D03*
X29183565Y-30800011D03*
X35569278Y-25996842D03*
X51218734Y-25122028D03*
X43307000Y-24003000D03*
X40386000Y-37084000D03*
D14*
X35814000Y-49530000D03*
X38354000Y-58928000D03*
X35319000Y-54864000D03*
X38862000Y-52070000D03*
D13*
X59182000Y-41021000D03*
X59182000Y-40099994D03*
X32775667Y-56483543D03*
X29059285Y-51099970D03*
X27686000Y-44704000D03*
X28864882Y-38269360D03*
X32416457Y-32416457D03*
X37937493Y-28727418D03*
X44450000Y-27432000D03*
X50962507Y-28727418D03*
X51562000Y-45212000D03*
X43180000Y-32004000D03*
X51562000Y-47244000D03*
X40894000Y-49276000D03*
D14*
X51816000Y-51054000D03*
X38100000Y-45720000D03*
D13*
X54622000Y-47994000D03*
D15*
X48818810Y-60502810D03*
D13*
X55118000Y-32766000D03*
D15*
X50038000Y-65786000D03*
D13*
X49784000Y-35814000D03*
D15*
X52070000Y-40132000D03*
X58547000Y-46990000D03*
X56642000Y-53086000D03*
X54864000Y-49530000D03*
D16*
X51816000Y-51054000D02*
X51435001Y-50673001D01*
X51435001Y-50673001D02*
X40768523Y-50673001D01*
X38100000Y-48004478D02*
X38100000Y-45720000D01*
X40768523Y-50673001D02*
X38100000Y-48004478D01*
D17*
G36*
X48903876Y-22752408D02*
X53033470Y-24030731D01*
X56836123Y-26086818D01*
X60166992Y-28842352D01*
X62899205Y-32192377D01*
X64928695Y-36009291D01*
X66178157Y-40147709D01*
X66600000Y-44450000D01*
X66591364Y-45068464D01*
X66049558Y-49357299D01*
X64685032Y-53459217D01*
X62549759Y-57217976D01*
X59725073Y-60490407D01*
X56318564Y-63151864D01*
X52459984Y-65100972D01*
X50895168Y-65537877D01*
X50893174Y-65527808D01*
X50826738Y-65366621D01*
X50730259Y-65221408D01*
X50607411Y-65097700D01*
X50462876Y-65000209D01*
X50302156Y-64932649D01*
X50131375Y-64897593D01*
X49957038Y-64896375D01*
X49785784Y-64929044D01*
X49624137Y-64994353D01*
X49478254Y-65089817D01*
X49353692Y-65211797D01*
X49305951Y-65281521D01*
X49200980Y-65026842D01*
X49047958Y-64796527D01*
X48853116Y-64600320D01*
X48623875Y-64445695D01*
X48368966Y-64338541D01*
X48098098Y-64282939D01*
X47821590Y-64281009D01*
X47549972Y-64332823D01*
X47293592Y-64436407D01*
X47062214Y-64587817D01*
X46864651Y-64781284D01*
X46708429Y-65009441D01*
X46599498Y-65263596D01*
X46542008Y-65534068D01*
X46538147Y-65810557D01*
X46588063Y-66082529D01*
X46689855Y-66339626D01*
X46719005Y-66384859D01*
X43986125Y-66595142D01*
X42186919Y-66380600D01*
X42294388Y-66139218D01*
X42355650Y-65869575D01*
X42360060Y-65553742D01*
X42306351Y-65282493D01*
X42200980Y-65026842D01*
X42047958Y-64796527D01*
X41854217Y-64601428D01*
X43432664Y-64601428D01*
X43468633Y-64797403D01*
X43541981Y-64982659D01*
X43649915Y-65150140D01*
X43788324Y-65293467D01*
X43951936Y-65407180D01*
X44134520Y-65486949D01*
X44329119Y-65529734D01*
X44528324Y-65533907D01*
X44724545Y-65499308D01*
X44910308Y-65427255D01*
X45078539Y-65320493D01*
X45222828Y-65183088D01*
X45337681Y-65020273D01*
X45418723Y-64838251D01*
X45462866Y-64643955D01*
X45466044Y-64416376D01*
X45427343Y-64220923D01*
X45351415Y-64036709D01*
X45241153Y-63870751D01*
X45100756Y-63729371D01*
X44935572Y-63617953D01*
X44751893Y-63540741D01*
X44556715Y-63500677D01*
X44357472Y-63499286D01*
X44161753Y-63536621D01*
X43977014Y-63611261D01*
X43810290Y-63720361D01*
X43667933Y-63859768D01*
X43555364Y-64024170D01*
X43476872Y-64207306D01*
X43435446Y-64402200D01*
X43432664Y-64601428D01*
X41854217Y-64601428D01*
X41853116Y-64600320D01*
X41623875Y-64445695D01*
X41368966Y-64338541D01*
X41098098Y-64282939D01*
X40821590Y-64281009D01*
X40549972Y-64332823D01*
X40293592Y-64436407D01*
X40062214Y-64587817D01*
X39864651Y-64781284D01*
X39708429Y-65009441D01*
X39599498Y-65263596D01*
X39542008Y-65534068D01*
X39538147Y-65810557D01*
X39581518Y-66046869D01*
X35582269Y-64747434D01*
X32599548Y-63080448D01*
X34850191Y-63080448D01*
X34883911Y-63264174D01*
X34952675Y-63437852D01*
X35053863Y-63594865D01*
X35183622Y-63729234D01*
X35337008Y-63835841D01*
X35508180Y-63910624D01*
X35690617Y-63950735D01*
X35877371Y-63954647D01*
X36061329Y-63922211D01*
X36235482Y-63854661D01*
X36393198Y-63754571D01*
X36528470Y-63625754D01*
X36636144Y-63473115D01*
X36712121Y-63302470D01*
X36753505Y-63120317D01*
X36755404Y-62984251D01*
X40683930Y-62984251D01*
X40703564Y-63199993D01*
X40764729Y-63407813D01*
X40865095Y-63599795D01*
X41000838Y-63768626D01*
X41166790Y-63907876D01*
X41356627Y-64012240D01*
X41563121Y-64077744D01*
X41778405Y-64101892D01*
X41793903Y-64102000D01*
X42106097Y-64102000D01*
X42321697Y-64080860D01*
X42529085Y-64018246D01*
X42720362Y-63916543D01*
X42888241Y-63779624D01*
X43026329Y-63612704D01*
X43129365Y-63422142D01*
X43193426Y-63215196D01*
X43216070Y-62999749D01*
X43214660Y-62984251D01*
X45683930Y-62984251D01*
X45703564Y-63199993D01*
X45764729Y-63407813D01*
X45865095Y-63599795D01*
X46000838Y-63768626D01*
X46166790Y-63907876D01*
X46356627Y-64012240D01*
X46563121Y-64077744D01*
X46778405Y-64101892D01*
X46793903Y-64102000D01*
X47106097Y-64102000D01*
X47321697Y-64080860D01*
X47529085Y-64018246D01*
X47720362Y-63916543D01*
X47888241Y-63779624D01*
X47903764Y-63760859D01*
X50499647Y-63760859D01*
X50533367Y-63944585D01*
X50602131Y-64118263D01*
X50703319Y-64275276D01*
X50833078Y-64409645D01*
X50986464Y-64516252D01*
X51157636Y-64591035D01*
X51340073Y-64631146D01*
X51526827Y-64635058D01*
X51710785Y-64602622D01*
X51884938Y-64535072D01*
X52042654Y-64434982D01*
X52177926Y-64306165D01*
X52285600Y-64153526D01*
X52361577Y-63982881D01*
X52402961Y-63800728D01*
X52405940Y-63587373D01*
X52369658Y-63404135D01*
X52298476Y-63231435D01*
X52195105Y-63075849D01*
X52063483Y-62943305D01*
X51908623Y-62838850D01*
X51736424Y-62766464D01*
X51553444Y-62728904D01*
X51366654Y-62727600D01*
X51183167Y-62762602D01*
X51009974Y-62832577D01*
X50853671Y-62934859D01*
X50720211Y-63065552D01*
X50614678Y-63219679D01*
X50541092Y-63391369D01*
X50502255Y-63574082D01*
X50499647Y-63760859D01*
X47903764Y-63760859D01*
X48026329Y-63612704D01*
X48129365Y-63422142D01*
X48193426Y-63215196D01*
X48216070Y-62999749D01*
X48196436Y-62784007D01*
X48135271Y-62576187D01*
X48034905Y-62384205D01*
X47899162Y-62215374D01*
X47733210Y-62076124D01*
X47543373Y-61971760D01*
X47336879Y-61906256D01*
X47121595Y-61882108D01*
X47106097Y-61882000D01*
X46793903Y-61882000D01*
X46578303Y-61903140D01*
X46370915Y-61965754D01*
X46179638Y-62067457D01*
X46011759Y-62204376D01*
X45873671Y-62371296D01*
X45770635Y-62561858D01*
X45706574Y-62768804D01*
X45683930Y-62984251D01*
X43214660Y-62984251D01*
X43196436Y-62784007D01*
X43135271Y-62576187D01*
X43034905Y-62384205D01*
X42899162Y-62215374D01*
X42733210Y-62076124D01*
X42543373Y-61971760D01*
X42336879Y-61906256D01*
X42121595Y-61882108D01*
X42106097Y-61882000D01*
X41793903Y-61882000D01*
X41578303Y-61903140D01*
X41370915Y-61965754D01*
X41179638Y-62067457D01*
X41011759Y-62204376D01*
X40873671Y-62371296D01*
X40770635Y-62561858D01*
X40706574Y-62768804D01*
X40683930Y-62984251D01*
X36755404Y-62984251D01*
X36756484Y-62906962D01*
X36720202Y-62723724D01*
X36649020Y-62551024D01*
X36545649Y-62395438D01*
X36414027Y-62262894D01*
X36259167Y-62158439D01*
X36086968Y-62086053D01*
X35903988Y-62048493D01*
X35717198Y-62047189D01*
X35533711Y-62082191D01*
X35360518Y-62152166D01*
X35204215Y-62254448D01*
X35070755Y-62385141D01*
X34965222Y-62539268D01*
X34891636Y-62710958D01*
X34852799Y-62893671D01*
X34850191Y-63080448D01*
X32599548Y-63080448D01*
X31808694Y-62638455D01*
X29387151Y-60577560D01*
X47928642Y-60577560D01*
X47960114Y-60749037D01*
X48024293Y-60911136D01*
X48118736Y-61057682D01*
X48239844Y-61183093D01*
X48383004Y-61282592D01*
X48542765Y-61352390D01*
X48713040Y-61389827D01*
X48887343Y-61393478D01*
X49059036Y-61363204D01*
X49221579Y-61300158D01*
X49368781Y-61206741D01*
X49495034Y-61086511D01*
X49595531Y-60944049D01*
X49666442Y-60784780D01*
X49705067Y-60614770D01*
X49707848Y-60415639D01*
X49673984Y-60244618D01*
X49607548Y-60083431D01*
X49511069Y-59938218D01*
X49388221Y-59814510D01*
X49243686Y-59717019D01*
X49082966Y-59649459D01*
X48924443Y-59616919D01*
X57325842Y-59616919D01*
X57359562Y-59800645D01*
X57428326Y-59974323D01*
X57529514Y-60131336D01*
X57659273Y-60265705D01*
X57812659Y-60372312D01*
X57983831Y-60447095D01*
X58166268Y-60487206D01*
X58353022Y-60491118D01*
X58536980Y-60458682D01*
X58711133Y-60391132D01*
X58868849Y-60291042D01*
X59004121Y-60162225D01*
X59111795Y-60009586D01*
X59187772Y-59838941D01*
X59229156Y-59656788D01*
X59232135Y-59443433D01*
X59195853Y-59260195D01*
X59124671Y-59087495D01*
X59021300Y-58931909D01*
X58889678Y-58799365D01*
X58734818Y-58694910D01*
X58562619Y-58622524D01*
X58379639Y-58584964D01*
X58192849Y-58583660D01*
X58009362Y-58618662D01*
X57836169Y-58688637D01*
X57679866Y-58790919D01*
X57546406Y-58921612D01*
X57440873Y-59075739D01*
X57367287Y-59247429D01*
X57328450Y-59430142D01*
X57325842Y-59616919D01*
X48924443Y-59616919D01*
X48912185Y-59614403D01*
X48737848Y-59613185D01*
X48566594Y-59645854D01*
X48404947Y-59711163D01*
X48259064Y-59806627D01*
X48134502Y-59928607D01*
X48036004Y-60072459D01*
X47967324Y-60232703D01*
X47931076Y-60403235D01*
X47928642Y-60577560D01*
X29387151Y-60577560D01*
X28516623Y-59836683D01*
X27345968Y-58359683D01*
X28409418Y-58359683D01*
X28443138Y-58543409D01*
X28511902Y-58717087D01*
X28613090Y-58874100D01*
X28742849Y-59008469D01*
X28896235Y-59115076D01*
X29067407Y-59189859D01*
X29249844Y-59229970D01*
X29436598Y-59233882D01*
X29620556Y-59201446D01*
X29794709Y-59133896D01*
X29952425Y-59033806D01*
X30087697Y-58904989D01*
X30190378Y-58759428D01*
X39368664Y-58759428D01*
X39404633Y-58955403D01*
X39477981Y-59140659D01*
X39585915Y-59308140D01*
X39724324Y-59451467D01*
X39887936Y-59565180D01*
X40070520Y-59644949D01*
X40265119Y-59687734D01*
X40464324Y-59691907D01*
X40660545Y-59657308D01*
X40846308Y-59585255D01*
X41014539Y-59478493D01*
X41158828Y-59341088D01*
X41273681Y-59178273D01*
X41354723Y-58996251D01*
X41398866Y-58801955D01*
X41401063Y-58644592D01*
X50545057Y-58644592D01*
X50581026Y-58840567D01*
X50654374Y-59025823D01*
X50762308Y-59193304D01*
X50900717Y-59336631D01*
X51064329Y-59450344D01*
X51246913Y-59530113D01*
X51441512Y-59572898D01*
X51640717Y-59577071D01*
X51836938Y-59542472D01*
X52022701Y-59470419D01*
X52190932Y-59363657D01*
X52335221Y-59226252D01*
X52450074Y-59063437D01*
X52531116Y-58881415D01*
X52575259Y-58687119D01*
X52578437Y-58459540D01*
X52539736Y-58264087D01*
X52463808Y-58079873D01*
X52353546Y-57913915D01*
X52213149Y-57772535D01*
X52047965Y-57661117D01*
X51864286Y-57583905D01*
X51669108Y-57543841D01*
X51469865Y-57542450D01*
X51274146Y-57579785D01*
X51089407Y-57654425D01*
X50922683Y-57763525D01*
X50780326Y-57902932D01*
X50667757Y-58067334D01*
X50589265Y-58250470D01*
X50547839Y-58445364D01*
X50545057Y-58644592D01*
X41401063Y-58644592D01*
X41402044Y-58574376D01*
X41363343Y-58378923D01*
X41287415Y-58194709D01*
X41177153Y-58028751D01*
X41036756Y-57887371D01*
X40871572Y-57775953D01*
X40687893Y-57698741D01*
X40492715Y-57658677D01*
X40293472Y-57657286D01*
X40097753Y-57694621D01*
X39913014Y-57769261D01*
X39746290Y-57878361D01*
X39603933Y-58017768D01*
X39491364Y-58182170D01*
X39412872Y-58365306D01*
X39371446Y-58560200D01*
X39368664Y-58759428D01*
X30190378Y-58759428D01*
X30195371Y-58752350D01*
X30271348Y-58581705D01*
X30312732Y-58399552D01*
X30315711Y-58186197D01*
X30279429Y-58002959D01*
X30208247Y-57830259D01*
X30104876Y-57674673D01*
X29973254Y-57542129D01*
X29818394Y-57437674D01*
X29646195Y-57365288D01*
X29463215Y-57327728D01*
X29276425Y-57326424D01*
X29092938Y-57361426D01*
X28919745Y-57431401D01*
X28763442Y-57533683D01*
X28629982Y-57664376D01*
X28524449Y-57818503D01*
X28450863Y-57990193D01*
X28412026Y-58172906D01*
X28409418Y-58359683D01*
X27345968Y-58359683D01*
X25922436Y-56563632D01*
X31821915Y-56563632D01*
X31855635Y-56747358D01*
X31924399Y-56921036D01*
X32025587Y-57078049D01*
X32155346Y-57212418D01*
X32308732Y-57319025D01*
X32479904Y-57393808D01*
X32662341Y-57433919D01*
X32849095Y-57437831D01*
X33033053Y-57405395D01*
X33207206Y-57337845D01*
X33364922Y-57237755D01*
X33500194Y-57108938D01*
X33607868Y-56956299D01*
X33683845Y-56785654D01*
X33725229Y-56603501D01*
X33728208Y-56390146D01*
X33691926Y-56206908D01*
X33620744Y-56034208D01*
X33517373Y-55878622D01*
X33385751Y-55746078D01*
X33230891Y-55641623D01*
X33058692Y-55569237D01*
X32875712Y-55531677D01*
X32688922Y-55530373D01*
X32505435Y-55565375D01*
X32332242Y-55635350D01*
X32175939Y-55737632D01*
X32042479Y-55868325D01*
X31936946Y-56022452D01*
X31863360Y-56194142D01*
X31824523Y-56376855D01*
X31821915Y-56563632D01*
X25922436Y-56563632D01*
X25831450Y-56448837D01*
X24744135Y-54333150D01*
X42035832Y-54333150D01*
X42067304Y-54504627D01*
X42110871Y-54614665D01*
X42074514Y-54699493D01*
X42038266Y-54870025D01*
X42035832Y-55044350D01*
X42067304Y-55215827D01*
X42131483Y-55377926D01*
X42225926Y-55524472D01*
X42347034Y-55649883D01*
X42490194Y-55749382D01*
X42649955Y-55819180D01*
X42820230Y-55856617D01*
X42994533Y-55860268D01*
X43166226Y-55829994D01*
X43328769Y-55766948D01*
X43475971Y-55673531D01*
X43602224Y-55553301D01*
X43702721Y-55410839D01*
X43773632Y-55251570D01*
X43812257Y-55081560D01*
X43815038Y-54882429D01*
X43781174Y-54711408D01*
X43740941Y-54613795D01*
X43773632Y-54540370D01*
X43812257Y-54370360D01*
X43815038Y-54171229D01*
X43781174Y-54000208D01*
X43714738Y-53839021D01*
X43618259Y-53693808D01*
X43495411Y-53570100D01*
X43350876Y-53472609D01*
X43190156Y-53405049D01*
X43019375Y-53369993D01*
X42845038Y-53368775D01*
X42673784Y-53401444D01*
X42512137Y-53466753D01*
X42366254Y-53562217D01*
X42241692Y-53684197D01*
X42143194Y-53828049D01*
X42074514Y-53988293D01*
X42038266Y-54158825D01*
X42035832Y-54333150D01*
X24744135Y-54333150D01*
X24141603Y-53160750D01*
X55751832Y-53160750D01*
X55783304Y-53332227D01*
X55847483Y-53494326D01*
X55941926Y-53640872D01*
X56063034Y-53766283D01*
X56206194Y-53865782D01*
X56365955Y-53935580D01*
X56536230Y-53973017D01*
X56710533Y-53976668D01*
X56882226Y-53946394D01*
X57044769Y-53883348D01*
X57191971Y-53789931D01*
X57318224Y-53669701D01*
X57418721Y-53527239D01*
X57489632Y-53367970D01*
X57528257Y-53197960D01*
X57528561Y-53176146D01*
X62046607Y-53176146D01*
X62080327Y-53359872D01*
X62149091Y-53533550D01*
X62250279Y-53690563D01*
X62380038Y-53824932D01*
X62533424Y-53931539D01*
X62704596Y-54006322D01*
X62887033Y-54046433D01*
X63073787Y-54050345D01*
X63257745Y-54017909D01*
X63431898Y-53950359D01*
X63589614Y-53850269D01*
X63724886Y-53721452D01*
X63832560Y-53568813D01*
X63908537Y-53398168D01*
X63949921Y-53216015D01*
X63952900Y-53002660D01*
X63916618Y-52819422D01*
X63845436Y-52646722D01*
X63742065Y-52491136D01*
X63610443Y-52358592D01*
X63455583Y-52254137D01*
X63283384Y-52181751D01*
X63100404Y-52144191D01*
X62913614Y-52142887D01*
X62730127Y-52177889D01*
X62556934Y-52247864D01*
X62400631Y-52350146D01*
X62267171Y-52480839D01*
X62161638Y-52634966D01*
X62088052Y-52806656D01*
X62049215Y-52989369D01*
X62046607Y-53176146D01*
X57528561Y-53176146D01*
X57531038Y-52998829D01*
X57497174Y-52827808D01*
X57430738Y-52666621D01*
X57334259Y-52521408D01*
X57211411Y-52397700D01*
X57066876Y-52300209D01*
X56906156Y-52232649D01*
X56735375Y-52197593D01*
X56561038Y-52196375D01*
X56389784Y-52229044D01*
X56228137Y-52294353D01*
X56082254Y-52389817D01*
X55957692Y-52511797D01*
X55859194Y-52655649D01*
X55790514Y-52815893D01*
X55754266Y-52986425D01*
X55751832Y-53160750D01*
X24141603Y-53160750D01*
X23855451Y-52603959D01*
X23548499Y-51533488D01*
X24265478Y-51533488D01*
X24299198Y-51717214D01*
X24367962Y-51890892D01*
X24469150Y-52047905D01*
X24598909Y-52182274D01*
X24752295Y-52288881D01*
X24923467Y-52363664D01*
X25105904Y-52403775D01*
X25292658Y-52407687D01*
X25476616Y-52375251D01*
X25650769Y-52307701D01*
X25808485Y-52207611D01*
X25863282Y-52155428D01*
X37844664Y-52155428D01*
X37880633Y-52351403D01*
X37953981Y-52536659D01*
X38061915Y-52704140D01*
X38200324Y-52847467D01*
X38363936Y-52961180D01*
X38546520Y-53040949D01*
X38741119Y-53083734D01*
X38940324Y-53087907D01*
X39136545Y-53053308D01*
X39322308Y-52981255D01*
X39490539Y-52874493D01*
X39634828Y-52737088D01*
X39749681Y-52574273D01*
X39830723Y-52392251D01*
X39874866Y-52197955D01*
X39878044Y-51970376D01*
X39839343Y-51774923D01*
X39763415Y-51590709D01*
X39653153Y-51424751D01*
X39512756Y-51283371D01*
X39347572Y-51171953D01*
X39163893Y-51094741D01*
X38968715Y-51054677D01*
X38769472Y-51053286D01*
X38573753Y-51090621D01*
X38389014Y-51165261D01*
X38222290Y-51274361D01*
X38079933Y-51413768D01*
X37967364Y-51578170D01*
X37888872Y-51761306D01*
X37847446Y-51956200D01*
X37844664Y-52155428D01*
X25863282Y-52155428D01*
X25943757Y-52078794D01*
X26051431Y-51926155D01*
X26127408Y-51755510D01*
X26168792Y-51573357D01*
X26171771Y-51360002D01*
X26136142Y-51180059D01*
X28105533Y-51180059D01*
X28139253Y-51363785D01*
X28208017Y-51537463D01*
X28309205Y-51694476D01*
X28438964Y-51828845D01*
X28592350Y-51935452D01*
X28763522Y-52010235D01*
X28945959Y-52050346D01*
X29132713Y-52054258D01*
X29316671Y-52021822D01*
X29490824Y-51954272D01*
X29648540Y-51854182D01*
X29783812Y-51725365D01*
X29891486Y-51572726D01*
X29967463Y-51402081D01*
X30008847Y-51219928D01*
X30011826Y-51006573D01*
X29975544Y-50823335D01*
X29904362Y-50650635D01*
X29800991Y-50495049D01*
X29669369Y-50362505D01*
X29514509Y-50258050D01*
X29342310Y-50185664D01*
X29159330Y-50148104D01*
X28972540Y-50146800D01*
X28789053Y-50181802D01*
X28615860Y-50251777D01*
X28459557Y-50354059D01*
X28326097Y-50484752D01*
X28220564Y-50638879D01*
X28146978Y-50810569D01*
X28108141Y-50993282D01*
X28105533Y-51180059D01*
X26136142Y-51180059D01*
X26135489Y-51176764D01*
X26064307Y-51004064D01*
X25960936Y-50848478D01*
X25829314Y-50715934D01*
X25674454Y-50611479D01*
X25502255Y-50539093D01*
X25319275Y-50501533D01*
X25132485Y-50500229D01*
X24948998Y-50535231D01*
X24775805Y-50605206D01*
X24619502Y-50707488D01*
X24486042Y-50838181D01*
X24380509Y-50992308D01*
X24306923Y-51163998D01*
X24268086Y-51346711D01*
X24265478Y-51533488D01*
X23548499Y-51533488D01*
X22663892Y-48448499D01*
X22548593Y-47075428D01*
X33780664Y-47075428D01*
X33816633Y-47271403D01*
X33889981Y-47456659D01*
X33997915Y-47624140D01*
X34136324Y-47767467D01*
X34299936Y-47881180D01*
X34482520Y-47960949D01*
X34677119Y-48003734D01*
X34876324Y-48007907D01*
X35072545Y-47973308D01*
X35258308Y-47901255D01*
X35426539Y-47794493D01*
X35570828Y-47657088D01*
X35685681Y-47494273D01*
X35766723Y-47312251D01*
X35810866Y-47117955D01*
X35814044Y-46890376D01*
X35775343Y-46694923D01*
X35699415Y-46510709D01*
X35589153Y-46344751D01*
X35448756Y-46203371D01*
X35283572Y-46091953D01*
X35099893Y-46014741D01*
X34904715Y-45974677D01*
X34705472Y-45973286D01*
X34509753Y-46010621D01*
X34325014Y-46085261D01*
X34158290Y-46194361D01*
X34015933Y-46333768D01*
X33903364Y-46498170D01*
X33824872Y-46681306D01*
X33783446Y-46876200D01*
X33780664Y-47075428D01*
X22548593Y-47075428D01*
X22356183Y-44784089D01*
X26732248Y-44784089D01*
X26765968Y-44967815D01*
X26834732Y-45141493D01*
X26935920Y-45298506D01*
X27065679Y-45432875D01*
X27219065Y-45539482D01*
X27390237Y-45614265D01*
X27572674Y-45654376D01*
X27759428Y-45658288D01*
X27943386Y-45625852D01*
X28117539Y-45558302D01*
X28275255Y-45458212D01*
X28410527Y-45329395D01*
X28518201Y-45176756D01*
X28594178Y-45006111D01*
X28635562Y-44823958D01*
X28638541Y-44610603D01*
X28602259Y-44427365D01*
X28531077Y-44254665D01*
X28427706Y-44099079D01*
X28296084Y-43966535D01*
X28141224Y-43862080D01*
X27969025Y-43789694D01*
X27786045Y-43752134D01*
X27599255Y-43750830D01*
X27415768Y-43785832D01*
X27242575Y-43855807D01*
X27086272Y-43958089D01*
X26952812Y-44088782D01*
X26847279Y-44242909D01*
X26773693Y-44414599D01*
X26734856Y-44597312D01*
X26732248Y-44784089D01*
X22356183Y-44784089D01*
X22302159Y-44140738D01*
X22358203Y-43641089D01*
X23049248Y-43641089D01*
X23082968Y-43824815D01*
X23151732Y-43998493D01*
X23252920Y-44155506D01*
X23382679Y-44289875D01*
X23536065Y-44396482D01*
X23707237Y-44471265D01*
X23889674Y-44511376D01*
X24076428Y-44515288D01*
X24260386Y-44482852D01*
X24434539Y-44415302D01*
X24592255Y-44315212D01*
X24727527Y-44186395D01*
X24835201Y-44033756D01*
X24911178Y-43863111D01*
X24952562Y-43680958D01*
X24955541Y-43467603D01*
X24919259Y-43284365D01*
X24848077Y-43111665D01*
X24744706Y-42956079D01*
X24613084Y-42823535D01*
X24458224Y-42719080D01*
X24286025Y-42646694D01*
X24103045Y-42609134D01*
X23916255Y-42607830D01*
X23732768Y-42642832D01*
X23559575Y-42712807D01*
X23403272Y-42815089D01*
X23269812Y-42945782D01*
X23164279Y-43099909D01*
X23090693Y-43271599D01*
X23051856Y-43454312D01*
X23049248Y-43641089D01*
X22358203Y-43641089D01*
X22592994Y-41547884D01*
X27726719Y-41547884D01*
X27788141Y-41882545D01*
X27913396Y-42198902D01*
X28097713Y-42484906D01*
X28334071Y-42729662D01*
X28613468Y-42923848D01*
X28925261Y-43060067D01*
X29257575Y-43133131D01*
X29597752Y-43140257D01*
X29932833Y-43081173D01*
X30250058Y-42958130D01*
X30537341Y-42775814D01*
X30783741Y-42541170D01*
X30979873Y-42263136D01*
X31118266Y-41952301D01*
X31193648Y-41620505D01*
X31199074Y-41231874D01*
X31132986Y-40898103D01*
X31003326Y-40583526D01*
X30815034Y-40300123D01*
X30575282Y-40058691D01*
X30293201Y-39868425D01*
X29979536Y-39736572D01*
X29646234Y-39668156D01*
X29305992Y-39665780D01*
X28971767Y-39729537D01*
X28656292Y-39856997D01*
X28371582Y-40043306D01*
X28128482Y-40281367D01*
X27936251Y-40562113D01*
X27802212Y-40874850D01*
X27731470Y-41207666D01*
X27726719Y-41547884D01*
X22592994Y-41547884D01*
X22784031Y-39844756D01*
X23258370Y-38349449D01*
X27911130Y-38349449D01*
X27944850Y-38533175D01*
X28013614Y-38706853D01*
X28114802Y-38863866D01*
X28244561Y-38998235D01*
X28397947Y-39104842D01*
X28569119Y-39179625D01*
X28751556Y-39219736D01*
X28938310Y-39223648D01*
X29122268Y-39191212D01*
X29296421Y-39123662D01*
X29308494Y-39116000D01*
X36703000Y-39116000D01*
X36703000Y-49022000D01*
X36751336Y-49265004D01*
X36888987Y-49471013D01*
X37094996Y-49608664D01*
X37338000Y-49657000D01*
X38136076Y-49657000D01*
X39960300Y-51481224D01*
X40041889Y-51548242D01*
X40122766Y-51616106D01*
X40128034Y-51619002D01*
X40132677Y-51622816D01*
X40225693Y-51672691D01*
X40318247Y-51723573D01*
X40323979Y-51725391D01*
X40329273Y-51728230D01*
X40430202Y-51759087D01*
X40530880Y-51791024D01*
X40536855Y-51791694D01*
X40542601Y-51793451D01*
X40647606Y-51804117D01*
X40752564Y-51815890D01*
X40764314Y-51815972D01*
X40764533Y-51815994D01*
X40764737Y-51815975D01*
X40768523Y-51816001D01*
X50961555Y-51816001D01*
X51007777Y-51862223D01*
X51180154Y-52003816D01*
X51376750Y-52109229D01*
X51590078Y-52174450D01*
X51812011Y-52196993D01*
X52034095Y-52176000D01*
X52247873Y-52112270D01*
X52445200Y-52008231D01*
X52618561Y-51867846D01*
X52761353Y-51696461D01*
X52868137Y-51500606D01*
X52934846Y-51287739D01*
X52958937Y-51065969D01*
X52939495Y-50843743D01*
X52877260Y-50629527D01*
X52774601Y-50431477D01*
X52635429Y-50257140D01*
X52624223Y-50245777D01*
X52243224Y-49864778D01*
X52161608Y-49797737D01*
X52080758Y-49729896D01*
X52075494Y-49727002D01*
X52070847Y-49723185D01*
X51977792Y-49673290D01*
X51948161Y-49657000D01*
X53983422Y-49657000D01*
X54005304Y-49776227D01*
X54069483Y-49938326D01*
X54163926Y-50084872D01*
X54285034Y-50210283D01*
X54428194Y-50309782D01*
X54587955Y-50379580D01*
X54758230Y-50417017D01*
X54932533Y-50420668D01*
X55104226Y-50390394D01*
X55266769Y-50327348D01*
X55413971Y-50233931D01*
X55540224Y-50113701D01*
X55640721Y-49971239D01*
X55711632Y-49811970D01*
X55746840Y-49657000D01*
X57190983Y-49657000D01*
X57190719Y-49675884D01*
X57252141Y-50010545D01*
X57377396Y-50326902D01*
X57561713Y-50612906D01*
X57798071Y-50857662D01*
X58077468Y-51051848D01*
X58389261Y-51188067D01*
X58721575Y-51261131D01*
X59061752Y-51268257D01*
X59396833Y-51209173D01*
X59714058Y-51086130D01*
X60001341Y-50903814D01*
X60247741Y-50669170D01*
X60443873Y-50391136D01*
X60582266Y-50080301D01*
X60657648Y-49748505D01*
X60661832Y-49448835D01*
X60784664Y-49265004D01*
X60833000Y-49022000D01*
X60833000Y-45419089D01*
X63943248Y-45419089D01*
X63976968Y-45602815D01*
X64045732Y-45776493D01*
X64146920Y-45933506D01*
X64276679Y-46067875D01*
X64430065Y-46174482D01*
X64601237Y-46249265D01*
X64783674Y-46289376D01*
X64970428Y-46293288D01*
X65154386Y-46260852D01*
X65328539Y-46193302D01*
X65486255Y-46093212D01*
X65621527Y-45964395D01*
X65729201Y-45811756D01*
X65805178Y-45641111D01*
X65846562Y-45458958D01*
X65849541Y-45245603D01*
X65813259Y-45062365D01*
X65742077Y-44889665D01*
X65638706Y-44734079D01*
X65507084Y-44601535D01*
X65352224Y-44497080D01*
X65180025Y-44424694D01*
X64997045Y-44387134D01*
X64810255Y-44385830D01*
X64626768Y-44420832D01*
X64453575Y-44490807D01*
X64297272Y-44593089D01*
X64163812Y-44723782D01*
X64058279Y-44877909D01*
X63984693Y-45049599D01*
X63945856Y-45232312D01*
X63943248Y-45419089D01*
X60833000Y-45419089D01*
X60833000Y-41838842D01*
X60963386Y-41815852D01*
X61137539Y-41748302D01*
X61295255Y-41648212D01*
X61430527Y-41519395D01*
X61538201Y-41366756D01*
X61614178Y-41196111D01*
X61655562Y-41013958D01*
X61658541Y-40800603D01*
X61622259Y-40617365D01*
X61551077Y-40444665D01*
X61447706Y-40289079D01*
X61316084Y-40156535D01*
X61161224Y-40052080D01*
X60989025Y-39979694D01*
X60833000Y-39947667D01*
X60833000Y-39116000D01*
X60784664Y-38872996D01*
X60647013Y-38666987D01*
X60441004Y-38529336D01*
X60198000Y-38481000D01*
X37338000Y-38481000D01*
X37094996Y-38529336D01*
X36888987Y-38666987D01*
X36751336Y-38872996D01*
X36703000Y-39116000D01*
X29308494Y-39116000D01*
X29454137Y-39023572D01*
X29589409Y-38894755D01*
X29697083Y-38742116D01*
X29773060Y-38571471D01*
X29814444Y-38389318D01*
X29817423Y-38175963D01*
X29781141Y-37992725D01*
X29709959Y-37820025D01*
X29606588Y-37664439D01*
X29474966Y-37531895D01*
X29467250Y-37526690D01*
X62727018Y-37526690D01*
X62760738Y-37710416D01*
X62829502Y-37884094D01*
X62930690Y-38041107D01*
X63060449Y-38175476D01*
X63213835Y-38282083D01*
X63385007Y-38356866D01*
X63567444Y-38396977D01*
X63754198Y-38400889D01*
X63938156Y-38368453D01*
X64112309Y-38300903D01*
X64270025Y-38200813D01*
X64405297Y-38071996D01*
X64512971Y-37919357D01*
X64588948Y-37748712D01*
X64630332Y-37566559D01*
X64633311Y-37353204D01*
X64597029Y-37169966D01*
X64525847Y-36997266D01*
X64422476Y-36841680D01*
X64290854Y-36709136D01*
X64135994Y-36604681D01*
X63963795Y-36532295D01*
X63780815Y-36494735D01*
X63594025Y-36493431D01*
X63410538Y-36528433D01*
X63237345Y-36598408D01*
X63081042Y-36700690D01*
X62947582Y-36831383D01*
X62842049Y-36985510D01*
X62768463Y-37157200D01*
X62729626Y-37339913D01*
X62727018Y-37526690D01*
X29467250Y-37526690D01*
X29320106Y-37427440D01*
X29147907Y-37355054D01*
X28964927Y-37317494D01*
X28778137Y-37316190D01*
X28594650Y-37351192D01*
X28421457Y-37421167D01*
X28265154Y-37523449D01*
X28131694Y-37654142D01*
X28026161Y-37808269D01*
X27952575Y-37979959D01*
X27913738Y-38162672D01*
X27911130Y-38349449D01*
X23258370Y-38349449D01*
X24040446Y-35884032D01*
X24945889Y-35884032D01*
X24979609Y-36067758D01*
X25048373Y-36241436D01*
X25149561Y-36398449D01*
X25279320Y-36532818D01*
X25432706Y-36639425D01*
X25603878Y-36714208D01*
X25786315Y-36754319D01*
X25973069Y-36758231D01*
X26157027Y-36725795D01*
X26331180Y-36658245D01*
X26488896Y-36558155D01*
X26624168Y-36429338D01*
X26731842Y-36276699D01*
X26807819Y-36106054D01*
X26849203Y-35923901D01*
X26849619Y-35894089D01*
X48830248Y-35894089D01*
X48863968Y-36077815D01*
X48932732Y-36251493D01*
X49033920Y-36408506D01*
X49163679Y-36542875D01*
X49317065Y-36649482D01*
X49488237Y-36724265D01*
X49670674Y-36764376D01*
X49857428Y-36768288D01*
X50041386Y-36735852D01*
X50215539Y-36668302D01*
X50373255Y-36568212D01*
X50508527Y-36439395D01*
X50616201Y-36286756D01*
X50692178Y-36116111D01*
X50733562Y-35933958D01*
X50736541Y-35720603D01*
X50700259Y-35537365D01*
X50629077Y-35364665D01*
X50525706Y-35209079D01*
X50394084Y-35076535D01*
X50239224Y-34972080D01*
X50067025Y-34899694D01*
X49884045Y-34862134D01*
X49697255Y-34860830D01*
X49513768Y-34895832D01*
X49340575Y-34965807D01*
X49184272Y-35068089D01*
X49050812Y-35198782D01*
X48945279Y-35352909D01*
X48871693Y-35524599D01*
X48832856Y-35707312D01*
X48830248Y-35894089D01*
X26849619Y-35894089D01*
X26852182Y-35710546D01*
X26815900Y-35527308D01*
X26744718Y-35354608D01*
X26641347Y-35199022D01*
X26509725Y-35066478D01*
X26354865Y-34962023D01*
X26182666Y-34889637D01*
X25999686Y-34852077D01*
X25812896Y-34850773D01*
X25629409Y-34885775D01*
X25456216Y-34955750D01*
X25299913Y-35058032D01*
X25166453Y-35188725D01*
X25060920Y-35342852D01*
X24987334Y-35514542D01*
X24948497Y-35697255D01*
X24945889Y-35884032D01*
X24040446Y-35884032D01*
X24091152Y-35724187D01*
X25114848Y-33862089D01*
X44766248Y-33862089D01*
X44799968Y-34045815D01*
X44868732Y-34219493D01*
X44969920Y-34376506D01*
X45099679Y-34510875D01*
X45253065Y-34617482D01*
X45424237Y-34692265D01*
X45606674Y-34732376D01*
X45793428Y-34736288D01*
X45977386Y-34703852D01*
X46151539Y-34636302D01*
X46309255Y-34536212D01*
X46444527Y-34407395D01*
X46552201Y-34254756D01*
X46628178Y-34084111D01*
X46669562Y-33901958D01*
X46672541Y-33688603D01*
X46636259Y-33505365D01*
X46565077Y-33332665D01*
X46461706Y-33177079D01*
X46330084Y-33044535D01*
X46175224Y-32940080D01*
X46003025Y-32867694D01*
X45897773Y-32846089D01*
X54164248Y-32846089D01*
X54197968Y-33029815D01*
X54266732Y-33203493D01*
X54367920Y-33360506D01*
X54497679Y-33494875D01*
X54651065Y-33601482D01*
X54822237Y-33676265D01*
X55004674Y-33716376D01*
X55191428Y-33720288D01*
X55375386Y-33687852D01*
X55549539Y-33620302D01*
X55707255Y-33520212D01*
X55842527Y-33391395D01*
X55950201Y-33238756D01*
X56026178Y-33068111D01*
X56067562Y-32885958D01*
X56070541Y-32672603D01*
X56034259Y-32489365D01*
X55963077Y-32316665D01*
X55859706Y-32161079D01*
X55728084Y-32028535D01*
X55573224Y-31924080D01*
X55401025Y-31851694D01*
X55218045Y-31814134D01*
X55031255Y-31812830D01*
X54847768Y-31847832D01*
X54674575Y-31917807D01*
X54518272Y-32020089D01*
X54384812Y-32150782D01*
X54279279Y-32304909D01*
X54205693Y-32476599D01*
X54166856Y-32659312D01*
X54164248Y-32846089D01*
X45897773Y-32846089D01*
X45820045Y-32830134D01*
X45633255Y-32828830D01*
X45449768Y-32863832D01*
X45276575Y-32933807D01*
X45120272Y-33036089D01*
X44986812Y-33166782D01*
X44881279Y-33320909D01*
X44807693Y-33492599D01*
X44768856Y-33675312D01*
X44766248Y-33862089D01*
X25114848Y-33862089D01*
X25865562Y-32496546D01*
X31462705Y-32496546D01*
X31496425Y-32680272D01*
X31565189Y-32853950D01*
X31666377Y-33010963D01*
X31796136Y-33145332D01*
X31949522Y-33251939D01*
X32120694Y-33326722D01*
X32303131Y-33366833D01*
X32489885Y-33370745D01*
X32673843Y-33338309D01*
X32847996Y-33270759D01*
X33005712Y-33170669D01*
X33140984Y-33041852D01*
X33248658Y-32889213D01*
X33324635Y-32718568D01*
X33366019Y-32536415D01*
X33368998Y-32323060D01*
X33332716Y-32139822D01*
X33261534Y-31967122D01*
X33158163Y-31811536D01*
X33026541Y-31678992D01*
X32871681Y-31574537D01*
X32699482Y-31502151D01*
X32516502Y-31464591D01*
X32329712Y-31463287D01*
X32146225Y-31498289D01*
X31973032Y-31568264D01*
X31816729Y-31670546D01*
X31683269Y-31801239D01*
X31577736Y-31955366D01*
X31504150Y-32127056D01*
X31465313Y-32309769D01*
X31462705Y-32496546D01*
X25865562Y-32496546D01*
X26173736Y-31935981D01*
X26684372Y-31327428D01*
X34796664Y-31327428D01*
X34832633Y-31523403D01*
X34905981Y-31708659D01*
X35013915Y-31876140D01*
X35152324Y-32019467D01*
X35315936Y-32133180D01*
X35498520Y-32212949D01*
X35693119Y-32255734D01*
X35892324Y-32259907D01*
X36088545Y-32225308D01*
X36274308Y-32153255D01*
X36383296Y-32084089D01*
X42226248Y-32084089D01*
X42259968Y-32267815D01*
X42328732Y-32441493D01*
X42429920Y-32598506D01*
X42559679Y-32732875D01*
X42713065Y-32839482D01*
X42884237Y-32914265D01*
X43066674Y-32954376D01*
X43253428Y-32958288D01*
X43437386Y-32925852D01*
X43611539Y-32858302D01*
X43769255Y-32758212D01*
X43904527Y-32629395D01*
X44012201Y-32476756D01*
X44088178Y-32306111D01*
X44129562Y-32123958D01*
X44132541Y-31910603D01*
X44096259Y-31727365D01*
X44025077Y-31554665D01*
X43921706Y-31399079D01*
X43790084Y-31266535D01*
X43635224Y-31162080D01*
X43463025Y-31089694D01*
X43280045Y-31052134D01*
X43093255Y-31050830D01*
X42909768Y-31085832D01*
X42736575Y-31155807D01*
X42580272Y-31258089D01*
X42446812Y-31388782D01*
X42341279Y-31542909D01*
X42267693Y-31714599D01*
X42228856Y-31897312D01*
X42226248Y-32084089D01*
X36383296Y-32084089D01*
X36442539Y-32046493D01*
X36586828Y-31909088D01*
X36701681Y-31746273D01*
X36782723Y-31564251D01*
X36826866Y-31369955D01*
X36830044Y-31142376D01*
X36791343Y-30946923D01*
X36715415Y-30762709D01*
X36674081Y-30700495D01*
X58583078Y-30700495D01*
X58616798Y-30884221D01*
X58685562Y-31057899D01*
X58786750Y-31214912D01*
X58916509Y-31349281D01*
X59069895Y-31455888D01*
X59241067Y-31530671D01*
X59423504Y-31570782D01*
X59610258Y-31574694D01*
X59794216Y-31542258D01*
X59968369Y-31474708D01*
X60126085Y-31374618D01*
X60261357Y-31245801D01*
X60369031Y-31093162D01*
X60445008Y-30922517D01*
X60486392Y-30740364D01*
X60489371Y-30527009D01*
X60453089Y-30343771D01*
X60381907Y-30171071D01*
X60278536Y-30015485D01*
X60146914Y-29882941D01*
X59992054Y-29778486D01*
X59819855Y-29706100D01*
X59636875Y-29668540D01*
X59450085Y-29667236D01*
X59266598Y-29702238D01*
X59093405Y-29772213D01*
X58937102Y-29874495D01*
X58803642Y-30005188D01*
X58698109Y-30159315D01*
X58624523Y-30331005D01*
X58585686Y-30513718D01*
X58583078Y-30700495D01*
X36674081Y-30700495D01*
X36605153Y-30596751D01*
X36464756Y-30455371D01*
X36299572Y-30343953D01*
X36115893Y-30266741D01*
X35920715Y-30226677D01*
X35721472Y-30225286D01*
X35525753Y-30262621D01*
X35341014Y-30337261D01*
X35174290Y-30446361D01*
X35031933Y-30585768D01*
X34919364Y-30750170D01*
X34840872Y-30933306D01*
X34799446Y-31128200D01*
X34796664Y-31327428D01*
X26684372Y-31327428D01*
X28265377Y-29443259D01*
X29666654Y-29443259D01*
X29700374Y-29626985D01*
X29769138Y-29800663D01*
X29870326Y-29957676D01*
X30000085Y-30092045D01*
X30153471Y-30198652D01*
X30324643Y-30273435D01*
X30507080Y-30313546D01*
X30693834Y-30317458D01*
X30877792Y-30285022D01*
X31051945Y-30217472D01*
X31209661Y-30117382D01*
X31344933Y-29988565D01*
X31452607Y-29835926D01*
X31528584Y-29665281D01*
X31569968Y-29483128D01*
X31572947Y-29269773D01*
X31536665Y-29086535D01*
X31465483Y-28913835D01*
X31394839Y-28807507D01*
X36983741Y-28807507D01*
X37017461Y-28991233D01*
X37086225Y-29164911D01*
X37187413Y-29321924D01*
X37317172Y-29456293D01*
X37470558Y-29562900D01*
X37641730Y-29637683D01*
X37824167Y-29677794D01*
X38010921Y-29681706D01*
X38194879Y-29649270D01*
X38369032Y-29581720D01*
X38526748Y-29481630D01*
X38662020Y-29352813D01*
X38769694Y-29200174D01*
X38845671Y-29029529D01*
X38887055Y-28847376D01*
X38887611Y-28807507D01*
X50008755Y-28807507D01*
X50042475Y-28991233D01*
X50111239Y-29164911D01*
X50212427Y-29321924D01*
X50342186Y-29456293D01*
X50495572Y-29562900D01*
X50666744Y-29637683D01*
X50849181Y-29677794D01*
X51035935Y-29681706D01*
X51219893Y-29649270D01*
X51394046Y-29581720D01*
X51551762Y-29481630D01*
X51687034Y-29352813D01*
X51794708Y-29200174D01*
X51870685Y-29029529D01*
X51912069Y-28847376D01*
X51915048Y-28634021D01*
X51878766Y-28450783D01*
X51807584Y-28278083D01*
X51704213Y-28122497D01*
X51572591Y-27989953D01*
X51417731Y-27885498D01*
X51245532Y-27813112D01*
X51062552Y-27775552D01*
X50875762Y-27774248D01*
X50692275Y-27809250D01*
X50519082Y-27879225D01*
X50362779Y-27981507D01*
X50229319Y-28112200D01*
X50123786Y-28266327D01*
X50050200Y-28438017D01*
X50011363Y-28620730D01*
X50008755Y-28807507D01*
X38887611Y-28807507D01*
X38890034Y-28634021D01*
X38853752Y-28450783D01*
X38782570Y-28278083D01*
X38679199Y-28122497D01*
X38547577Y-27989953D01*
X38392717Y-27885498D01*
X38220518Y-27813112D01*
X38037538Y-27775552D01*
X37850748Y-27774248D01*
X37667261Y-27809250D01*
X37494068Y-27879225D01*
X37337765Y-27981507D01*
X37204305Y-28112200D01*
X37098772Y-28266327D01*
X37025186Y-28438017D01*
X36986349Y-28620730D01*
X36983741Y-28807507D01*
X31394839Y-28807507D01*
X31362112Y-28758249D01*
X31230490Y-28625705D01*
X31075630Y-28521250D01*
X30903431Y-28448864D01*
X30720451Y-28411304D01*
X30533661Y-28410000D01*
X30350174Y-28445002D01*
X30176981Y-28514977D01*
X30020678Y-28617259D01*
X29887218Y-28747952D01*
X29781685Y-28902079D01*
X29708099Y-29073769D01*
X29669262Y-29256482D01*
X29666654Y-29443259D01*
X28265377Y-29443259D01*
X28952457Y-28624430D01*
X30335930Y-27512089D01*
X43496248Y-27512089D01*
X43529968Y-27695815D01*
X43598732Y-27869493D01*
X43699920Y-28026506D01*
X43829679Y-28160875D01*
X43983065Y-28267482D01*
X44154237Y-28342265D01*
X44336674Y-28382376D01*
X44523428Y-28386288D01*
X44707386Y-28353852D01*
X44881539Y-28286302D01*
X45039255Y-28186212D01*
X45174527Y-28057395D01*
X45282201Y-27904756D01*
X45358178Y-27734111D01*
X45399562Y-27551958D01*
X45402541Y-27338603D01*
X45366259Y-27155365D01*
X45295077Y-26982665D01*
X45191706Y-26827079D01*
X45060084Y-26694535D01*
X44905224Y-26590080D01*
X44733025Y-26517694D01*
X44550045Y-26480134D01*
X44363255Y-26478830D01*
X44179768Y-26513832D01*
X44006575Y-26583807D01*
X43850272Y-26686089D01*
X43716812Y-26816782D01*
X43611279Y-26970909D01*
X43537693Y-27142599D01*
X43498856Y-27325312D01*
X43496248Y-27512089D01*
X30335930Y-27512089D01*
X32321475Y-25915670D01*
X33500446Y-25299319D01*
X36492849Y-25299319D01*
X36526569Y-25483045D01*
X36595333Y-25656723D01*
X36696521Y-25813736D01*
X36826280Y-25948105D01*
X36979666Y-26054712D01*
X37150838Y-26129495D01*
X37333275Y-26169606D01*
X37520029Y-26173518D01*
X37703987Y-26141082D01*
X37878140Y-26073532D01*
X38025947Y-25979730D01*
X52142305Y-25979730D01*
X52176025Y-26163456D01*
X52244789Y-26337134D01*
X52345977Y-26494147D01*
X52475736Y-26628516D01*
X52629122Y-26735123D01*
X52800294Y-26809906D01*
X52982731Y-26850017D01*
X53169485Y-26853929D01*
X53353443Y-26821493D01*
X53527596Y-26753943D01*
X53685312Y-26653853D01*
X53820584Y-26525036D01*
X53928258Y-26372397D01*
X54004235Y-26201752D01*
X54045619Y-26019599D01*
X54048598Y-25806244D01*
X54012316Y-25623006D01*
X53941134Y-25450306D01*
X53837763Y-25294720D01*
X53706141Y-25162176D01*
X53551281Y-25057721D01*
X53379082Y-24985335D01*
X53196102Y-24947775D01*
X53009312Y-24946471D01*
X52825825Y-24981473D01*
X52652632Y-25051448D01*
X52496329Y-25153730D01*
X52362869Y-25284423D01*
X52257336Y-25438550D01*
X52183750Y-25610240D01*
X52144913Y-25792953D01*
X52142305Y-25979730D01*
X38025947Y-25979730D01*
X38035856Y-25973442D01*
X38171128Y-25844625D01*
X38278802Y-25691986D01*
X38354779Y-25521341D01*
X38396163Y-25339188D01*
X38399142Y-25125833D01*
X38362860Y-24942595D01*
X38291678Y-24769895D01*
X38188307Y-24614309D01*
X38056685Y-24481765D01*
X37901825Y-24377310D01*
X37729626Y-24304924D01*
X37546646Y-24267364D01*
X37359856Y-24266060D01*
X37176369Y-24301062D01*
X37003176Y-24371037D01*
X36846873Y-24473319D01*
X36713413Y-24604012D01*
X36607880Y-24758139D01*
X36534294Y-24929829D01*
X36495457Y-25112542D01*
X36492849Y-25299319D01*
X33500446Y-25299319D01*
X35826880Y-24083089D01*
X44385248Y-24083089D01*
X44418968Y-24266815D01*
X44487732Y-24440493D01*
X44588920Y-24597506D01*
X44718679Y-24731875D01*
X44872065Y-24838482D01*
X45043237Y-24913265D01*
X45225674Y-24953376D01*
X45412428Y-24957288D01*
X45596386Y-24924852D01*
X45770539Y-24857302D01*
X45928255Y-24757212D01*
X46063527Y-24628395D01*
X46171201Y-24475756D01*
X46247178Y-24305111D01*
X46288562Y-24122958D01*
X46291541Y-23909603D01*
X46255259Y-23726365D01*
X46184077Y-23553665D01*
X46080706Y-23398079D01*
X45949084Y-23265535D01*
X45794224Y-23161080D01*
X45622025Y-23088694D01*
X45439045Y-23051134D01*
X45252255Y-23049830D01*
X45068768Y-23084832D01*
X44895575Y-23154807D01*
X44739272Y-23257089D01*
X44605812Y-23387782D01*
X44500279Y-23541909D01*
X44426693Y-23713599D01*
X44387856Y-23896312D01*
X44385248Y-24083089D01*
X35826880Y-24083089D01*
X36152464Y-23912878D01*
X40299504Y-22692337D01*
X44604635Y-22300540D01*
X48903876Y-22752408D01*
X48903876Y-22752408D01*
G37*
X48903876Y-22752408D02*
X53033470Y-24030731D01*
X56836123Y-26086818D01*
X60166992Y-28842352D01*
X62899205Y-32192377D01*
X64928695Y-36009291D01*
X66178157Y-40147709D01*
X66600000Y-44450000D01*
X66591364Y-45068464D01*
X66049558Y-49357299D01*
X64685032Y-53459217D01*
X62549759Y-57217976D01*
X59725073Y-60490407D01*
X56318564Y-63151864D01*
X52459984Y-65100972D01*
X50895168Y-65537877D01*
X50893174Y-65527808D01*
X50826738Y-65366621D01*
X50730259Y-65221408D01*
X50607411Y-65097700D01*
X50462876Y-65000209D01*
X50302156Y-64932649D01*
X50131375Y-64897593D01*
X49957038Y-64896375D01*
X49785784Y-64929044D01*
X49624137Y-64994353D01*
X49478254Y-65089817D01*
X49353692Y-65211797D01*
X49305951Y-65281521D01*
X49200980Y-65026842D01*
X49047958Y-64796527D01*
X48853116Y-64600320D01*
X48623875Y-64445695D01*
X48368966Y-64338541D01*
X48098098Y-64282939D01*
X47821590Y-64281009D01*
X47549972Y-64332823D01*
X47293592Y-64436407D01*
X47062214Y-64587817D01*
X46864651Y-64781284D01*
X46708429Y-65009441D01*
X46599498Y-65263596D01*
X46542008Y-65534068D01*
X46538147Y-65810557D01*
X46588063Y-66082529D01*
X46689855Y-66339626D01*
X46719005Y-66384859D01*
X43986125Y-66595142D01*
X42186919Y-66380600D01*
X42294388Y-66139218D01*
X42355650Y-65869575D01*
X42360060Y-65553742D01*
X42306351Y-65282493D01*
X42200980Y-65026842D01*
X42047958Y-64796527D01*
X41854217Y-64601428D01*
X43432664Y-64601428D01*
X43468633Y-64797403D01*
X43541981Y-64982659D01*
X43649915Y-65150140D01*
X43788324Y-65293467D01*
X43951936Y-65407180D01*
X44134520Y-65486949D01*
X44329119Y-65529734D01*
X44528324Y-65533907D01*
X44724545Y-65499308D01*
X44910308Y-65427255D01*
X45078539Y-65320493D01*
X45222828Y-65183088D01*
X45337681Y-65020273D01*
X45418723Y-64838251D01*
X45462866Y-64643955D01*
X45466044Y-64416376D01*
X45427343Y-64220923D01*
X45351415Y-64036709D01*
X45241153Y-63870751D01*
X45100756Y-63729371D01*
X44935572Y-63617953D01*
X44751893Y-63540741D01*
X44556715Y-63500677D01*
X44357472Y-63499286D01*
X44161753Y-63536621D01*
X43977014Y-63611261D01*
X43810290Y-63720361D01*
X43667933Y-63859768D01*
X43555364Y-64024170D01*
X43476872Y-64207306D01*
X43435446Y-64402200D01*
X43432664Y-64601428D01*
X41854217Y-64601428D01*
X41853116Y-64600320D01*
X41623875Y-64445695D01*
X41368966Y-64338541D01*
X41098098Y-64282939D01*
X40821590Y-64281009D01*
X40549972Y-64332823D01*
X40293592Y-64436407D01*
X40062214Y-64587817D01*
X39864651Y-64781284D01*
X39708429Y-65009441D01*
X39599498Y-65263596D01*
X39542008Y-65534068D01*
X39538147Y-65810557D01*
X39581518Y-66046869D01*
X35582269Y-64747434D01*
X32599548Y-63080448D01*
X34850191Y-63080448D01*
X34883911Y-63264174D01*
X34952675Y-63437852D01*
X35053863Y-63594865D01*
X35183622Y-63729234D01*
X35337008Y-63835841D01*
X35508180Y-63910624D01*
X35690617Y-63950735D01*
X35877371Y-63954647D01*
X36061329Y-63922211D01*
X36235482Y-63854661D01*
X36393198Y-63754571D01*
X36528470Y-63625754D01*
X36636144Y-63473115D01*
X36712121Y-63302470D01*
X36753505Y-63120317D01*
X36755404Y-62984251D01*
X40683930Y-62984251D01*
X40703564Y-63199993D01*
X40764729Y-63407813D01*
X40865095Y-63599795D01*
X41000838Y-63768626D01*
X41166790Y-63907876D01*
X41356627Y-64012240D01*
X41563121Y-64077744D01*
X41778405Y-64101892D01*
X41793903Y-64102000D01*
X42106097Y-64102000D01*
X42321697Y-64080860D01*
X42529085Y-64018246D01*
X42720362Y-63916543D01*
X42888241Y-63779624D01*
X43026329Y-63612704D01*
X43129365Y-63422142D01*
X43193426Y-63215196D01*
X43216070Y-62999749D01*
X43214660Y-62984251D01*
X45683930Y-62984251D01*
X45703564Y-63199993D01*
X45764729Y-63407813D01*
X45865095Y-63599795D01*
X46000838Y-63768626D01*
X46166790Y-63907876D01*
X46356627Y-64012240D01*
X46563121Y-64077744D01*
X46778405Y-64101892D01*
X46793903Y-64102000D01*
X47106097Y-64102000D01*
X47321697Y-64080860D01*
X47529085Y-64018246D01*
X47720362Y-63916543D01*
X47888241Y-63779624D01*
X47903764Y-63760859D01*
X50499647Y-63760859D01*
X50533367Y-63944585D01*
X50602131Y-64118263D01*
X50703319Y-64275276D01*
X50833078Y-64409645D01*
X50986464Y-64516252D01*
X51157636Y-64591035D01*
X51340073Y-64631146D01*
X51526827Y-64635058D01*
X51710785Y-64602622D01*
X51884938Y-64535072D01*
X52042654Y-64434982D01*
X52177926Y-64306165D01*
X52285600Y-64153526D01*
X52361577Y-63982881D01*
X52402961Y-63800728D01*
X52405940Y-63587373D01*
X52369658Y-63404135D01*
X52298476Y-63231435D01*
X52195105Y-63075849D01*
X52063483Y-62943305D01*
X51908623Y-62838850D01*
X51736424Y-62766464D01*
X51553444Y-62728904D01*
X51366654Y-62727600D01*
X51183167Y-62762602D01*
X51009974Y-62832577D01*
X50853671Y-62934859D01*
X50720211Y-63065552D01*
X50614678Y-63219679D01*
X50541092Y-63391369D01*
X50502255Y-63574082D01*
X50499647Y-63760859D01*
X47903764Y-63760859D01*
X48026329Y-63612704D01*
X48129365Y-63422142D01*
X48193426Y-63215196D01*
X48216070Y-62999749D01*
X48196436Y-62784007D01*
X48135271Y-62576187D01*
X48034905Y-62384205D01*
X47899162Y-62215374D01*
X47733210Y-62076124D01*
X47543373Y-61971760D01*
X47336879Y-61906256D01*
X47121595Y-61882108D01*
X47106097Y-61882000D01*
X46793903Y-61882000D01*
X46578303Y-61903140D01*
X46370915Y-61965754D01*
X46179638Y-62067457D01*
X46011759Y-62204376D01*
X45873671Y-62371296D01*
X45770635Y-62561858D01*
X45706574Y-62768804D01*
X45683930Y-62984251D01*
X43214660Y-62984251D01*
X43196436Y-62784007D01*
X43135271Y-62576187D01*
X43034905Y-62384205D01*
X42899162Y-62215374D01*
X42733210Y-62076124D01*
X42543373Y-61971760D01*
X42336879Y-61906256D01*
X42121595Y-61882108D01*
X42106097Y-61882000D01*
X41793903Y-61882000D01*
X41578303Y-61903140D01*
X41370915Y-61965754D01*
X41179638Y-62067457D01*
X41011759Y-62204376D01*
X40873671Y-62371296D01*
X40770635Y-62561858D01*
X40706574Y-62768804D01*
X40683930Y-62984251D01*
X36755404Y-62984251D01*
X36756484Y-62906962D01*
X36720202Y-62723724D01*
X36649020Y-62551024D01*
X36545649Y-62395438D01*
X36414027Y-62262894D01*
X36259167Y-62158439D01*
X36086968Y-62086053D01*
X35903988Y-62048493D01*
X35717198Y-62047189D01*
X35533711Y-62082191D01*
X35360518Y-62152166D01*
X35204215Y-62254448D01*
X35070755Y-62385141D01*
X34965222Y-62539268D01*
X34891636Y-62710958D01*
X34852799Y-62893671D01*
X34850191Y-63080448D01*
X32599548Y-63080448D01*
X31808694Y-62638455D01*
X29387151Y-60577560D01*
X47928642Y-60577560D01*
X47960114Y-60749037D01*
X48024293Y-60911136D01*
X48118736Y-61057682D01*
X48239844Y-61183093D01*
X48383004Y-61282592D01*
X48542765Y-61352390D01*
X48713040Y-61389827D01*
X48887343Y-61393478D01*
X49059036Y-61363204D01*
X49221579Y-61300158D01*
X49368781Y-61206741D01*
X49495034Y-61086511D01*
X49595531Y-60944049D01*
X49666442Y-60784780D01*
X49705067Y-60614770D01*
X49707848Y-60415639D01*
X49673984Y-60244618D01*
X49607548Y-60083431D01*
X49511069Y-59938218D01*
X49388221Y-59814510D01*
X49243686Y-59717019D01*
X49082966Y-59649459D01*
X48924443Y-59616919D01*
X57325842Y-59616919D01*
X57359562Y-59800645D01*
X57428326Y-59974323D01*
X57529514Y-60131336D01*
X57659273Y-60265705D01*
X57812659Y-60372312D01*
X57983831Y-60447095D01*
X58166268Y-60487206D01*
X58353022Y-60491118D01*
X58536980Y-60458682D01*
X58711133Y-60391132D01*
X58868849Y-60291042D01*
X59004121Y-60162225D01*
X59111795Y-60009586D01*
X59187772Y-59838941D01*
X59229156Y-59656788D01*
X59232135Y-59443433D01*
X59195853Y-59260195D01*
X59124671Y-59087495D01*
X59021300Y-58931909D01*
X58889678Y-58799365D01*
X58734818Y-58694910D01*
X58562619Y-58622524D01*
X58379639Y-58584964D01*
X58192849Y-58583660D01*
X58009362Y-58618662D01*
X57836169Y-58688637D01*
X57679866Y-58790919D01*
X57546406Y-58921612D01*
X57440873Y-59075739D01*
X57367287Y-59247429D01*
X57328450Y-59430142D01*
X57325842Y-59616919D01*
X48924443Y-59616919D01*
X48912185Y-59614403D01*
X48737848Y-59613185D01*
X48566594Y-59645854D01*
X48404947Y-59711163D01*
X48259064Y-59806627D01*
X48134502Y-59928607D01*
X48036004Y-60072459D01*
X47967324Y-60232703D01*
X47931076Y-60403235D01*
X47928642Y-60577560D01*
X29387151Y-60577560D01*
X28516623Y-59836683D01*
X27345968Y-58359683D01*
X28409418Y-58359683D01*
X28443138Y-58543409D01*
X28511902Y-58717087D01*
X28613090Y-58874100D01*
X28742849Y-59008469D01*
X28896235Y-59115076D01*
X29067407Y-59189859D01*
X29249844Y-59229970D01*
X29436598Y-59233882D01*
X29620556Y-59201446D01*
X29794709Y-59133896D01*
X29952425Y-59033806D01*
X30087697Y-58904989D01*
X30190378Y-58759428D01*
X39368664Y-58759428D01*
X39404633Y-58955403D01*
X39477981Y-59140659D01*
X39585915Y-59308140D01*
X39724324Y-59451467D01*
X39887936Y-59565180D01*
X40070520Y-59644949D01*
X40265119Y-59687734D01*
X40464324Y-59691907D01*
X40660545Y-59657308D01*
X40846308Y-59585255D01*
X41014539Y-59478493D01*
X41158828Y-59341088D01*
X41273681Y-59178273D01*
X41354723Y-58996251D01*
X41398866Y-58801955D01*
X41401063Y-58644592D01*
X50545057Y-58644592D01*
X50581026Y-58840567D01*
X50654374Y-59025823D01*
X50762308Y-59193304D01*
X50900717Y-59336631D01*
X51064329Y-59450344D01*
X51246913Y-59530113D01*
X51441512Y-59572898D01*
X51640717Y-59577071D01*
X51836938Y-59542472D01*
X52022701Y-59470419D01*
X52190932Y-59363657D01*
X52335221Y-59226252D01*
X52450074Y-59063437D01*
X52531116Y-58881415D01*
X52575259Y-58687119D01*
X52578437Y-58459540D01*
X52539736Y-58264087D01*
X52463808Y-58079873D01*
X52353546Y-57913915D01*
X52213149Y-57772535D01*
X52047965Y-57661117D01*
X51864286Y-57583905D01*
X51669108Y-57543841D01*
X51469865Y-57542450D01*
X51274146Y-57579785D01*
X51089407Y-57654425D01*
X50922683Y-57763525D01*
X50780326Y-57902932D01*
X50667757Y-58067334D01*
X50589265Y-58250470D01*
X50547839Y-58445364D01*
X50545057Y-58644592D01*
X41401063Y-58644592D01*
X41402044Y-58574376D01*
X41363343Y-58378923D01*
X41287415Y-58194709D01*
X41177153Y-58028751D01*
X41036756Y-57887371D01*
X40871572Y-57775953D01*
X40687893Y-57698741D01*
X40492715Y-57658677D01*
X40293472Y-57657286D01*
X40097753Y-57694621D01*
X39913014Y-57769261D01*
X39746290Y-57878361D01*
X39603933Y-58017768D01*
X39491364Y-58182170D01*
X39412872Y-58365306D01*
X39371446Y-58560200D01*
X39368664Y-58759428D01*
X30190378Y-58759428D01*
X30195371Y-58752350D01*
X30271348Y-58581705D01*
X30312732Y-58399552D01*
X30315711Y-58186197D01*
X30279429Y-58002959D01*
X30208247Y-57830259D01*
X30104876Y-57674673D01*
X29973254Y-57542129D01*
X29818394Y-57437674D01*
X29646195Y-57365288D01*
X29463215Y-57327728D01*
X29276425Y-57326424D01*
X29092938Y-57361426D01*
X28919745Y-57431401D01*
X28763442Y-57533683D01*
X28629982Y-57664376D01*
X28524449Y-57818503D01*
X28450863Y-57990193D01*
X28412026Y-58172906D01*
X28409418Y-58359683D01*
X27345968Y-58359683D01*
X25922436Y-56563632D01*
X31821915Y-56563632D01*
X31855635Y-56747358D01*
X31924399Y-56921036D01*
X32025587Y-57078049D01*
X32155346Y-57212418D01*
X32308732Y-57319025D01*
X32479904Y-57393808D01*
X32662341Y-57433919D01*
X32849095Y-57437831D01*
X33033053Y-57405395D01*
X33207206Y-57337845D01*
X33364922Y-57237755D01*
X33500194Y-57108938D01*
X33607868Y-56956299D01*
X33683845Y-56785654D01*
X33725229Y-56603501D01*
X33728208Y-56390146D01*
X33691926Y-56206908D01*
X33620744Y-56034208D01*
X33517373Y-55878622D01*
X33385751Y-55746078D01*
X33230891Y-55641623D01*
X33058692Y-55569237D01*
X32875712Y-55531677D01*
X32688922Y-55530373D01*
X32505435Y-55565375D01*
X32332242Y-55635350D01*
X32175939Y-55737632D01*
X32042479Y-55868325D01*
X31936946Y-56022452D01*
X31863360Y-56194142D01*
X31824523Y-56376855D01*
X31821915Y-56563632D01*
X25922436Y-56563632D01*
X25831450Y-56448837D01*
X24744135Y-54333150D01*
X42035832Y-54333150D01*
X42067304Y-54504627D01*
X42110871Y-54614665D01*
X42074514Y-54699493D01*
X42038266Y-54870025D01*
X42035832Y-55044350D01*
X42067304Y-55215827D01*
X42131483Y-55377926D01*
X42225926Y-55524472D01*
X42347034Y-55649883D01*
X42490194Y-55749382D01*
X42649955Y-55819180D01*
X42820230Y-55856617D01*
X42994533Y-55860268D01*
X43166226Y-55829994D01*
X43328769Y-55766948D01*
X43475971Y-55673531D01*
X43602224Y-55553301D01*
X43702721Y-55410839D01*
X43773632Y-55251570D01*
X43812257Y-55081560D01*
X43815038Y-54882429D01*
X43781174Y-54711408D01*
X43740941Y-54613795D01*
X43773632Y-54540370D01*
X43812257Y-54370360D01*
X43815038Y-54171229D01*
X43781174Y-54000208D01*
X43714738Y-53839021D01*
X43618259Y-53693808D01*
X43495411Y-53570100D01*
X43350876Y-53472609D01*
X43190156Y-53405049D01*
X43019375Y-53369993D01*
X42845038Y-53368775D01*
X42673784Y-53401444D01*
X42512137Y-53466753D01*
X42366254Y-53562217D01*
X42241692Y-53684197D01*
X42143194Y-53828049D01*
X42074514Y-53988293D01*
X42038266Y-54158825D01*
X42035832Y-54333150D01*
X24744135Y-54333150D01*
X24141603Y-53160750D01*
X55751832Y-53160750D01*
X55783304Y-53332227D01*
X55847483Y-53494326D01*
X55941926Y-53640872D01*
X56063034Y-53766283D01*
X56206194Y-53865782D01*
X56365955Y-53935580D01*
X56536230Y-53973017D01*
X56710533Y-53976668D01*
X56882226Y-53946394D01*
X57044769Y-53883348D01*
X57191971Y-53789931D01*
X57318224Y-53669701D01*
X57418721Y-53527239D01*
X57489632Y-53367970D01*
X57528257Y-53197960D01*
X57528561Y-53176146D01*
X62046607Y-53176146D01*
X62080327Y-53359872D01*
X62149091Y-53533550D01*
X62250279Y-53690563D01*
X62380038Y-53824932D01*
X62533424Y-53931539D01*
X62704596Y-54006322D01*
X62887033Y-54046433D01*
X63073787Y-54050345D01*
X63257745Y-54017909D01*
X63431898Y-53950359D01*
X63589614Y-53850269D01*
X63724886Y-53721452D01*
X63832560Y-53568813D01*
X63908537Y-53398168D01*
X63949921Y-53216015D01*
X63952900Y-53002660D01*
X63916618Y-52819422D01*
X63845436Y-52646722D01*
X63742065Y-52491136D01*
X63610443Y-52358592D01*
X63455583Y-52254137D01*
X63283384Y-52181751D01*
X63100404Y-52144191D01*
X62913614Y-52142887D01*
X62730127Y-52177889D01*
X62556934Y-52247864D01*
X62400631Y-52350146D01*
X62267171Y-52480839D01*
X62161638Y-52634966D01*
X62088052Y-52806656D01*
X62049215Y-52989369D01*
X62046607Y-53176146D01*
X57528561Y-53176146D01*
X57531038Y-52998829D01*
X57497174Y-52827808D01*
X57430738Y-52666621D01*
X57334259Y-52521408D01*
X57211411Y-52397700D01*
X57066876Y-52300209D01*
X56906156Y-52232649D01*
X56735375Y-52197593D01*
X56561038Y-52196375D01*
X56389784Y-52229044D01*
X56228137Y-52294353D01*
X56082254Y-52389817D01*
X55957692Y-52511797D01*
X55859194Y-52655649D01*
X55790514Y-52815893D01*
X55754266Y-52986425D01*
X55751832Y-53160750D01*
X24141603Y-53160750D01*
X23855451Y-52603959D01*
X23548499Y-51533488D01*
X24265478Y-51533488D01*
X24299198Y-51717214D01*
X24367962Y-51890892D01*
X24469150Y-52047905D01*
X24598909Y-52182274D01*
X24752295Y-52288881D01*
X24923467Y-52363664D01*
X25105904Y-52403775D01*
X25292658Y-52407687D01*
X25476616Y-52375251D01*
X25650769Y-52307701D01*
X25808485Y-52207611D01*
X25863282Y-52155428D01*
X37844664Y-52155428D01*
X37880633Y-52351403D01*
X37953981Y-52536659D01*
X38061915Y-52704140D01*
X38200324Y-52847467D01*
X38363936Y-52961180D01*
X38546520Y-53040949D01*
X38741119Y-53083734D01*
X38940324Y-53087907D01*
X39136545Y-53053308D01*
X39322308Y-52981255D01*
X39490539Y-52874493D01*
X39634828Y-52737088D01*
X39749681Y-52574273D01*
X39830723Y-52392251D01*
X39874866Y-52197955D01*
X39878044Y-51970376D01*
X39839343Y-51774923D01*
X39763415Y-51590709D01*
X39653153Y-51424751D01*
X39512756Y-51283371D01*
X39347572Y-51171953D01*
X39163893Y-51094741D01*
X38968715Y-51054677D01*
X38769472Y-51053286D01*
X38573753Y-51090621D01*
X38389014Y-51165261D01*
X38222290Y-51274361D01*
X38079933Y-51413768D01*
X37967364Y-51578170D01*
X37888872Y-51761306D01*
X37847446Y-51956200D01*
X37844664Y-52155428D01*
X25863282Y-52155428D01*
X25943757Y-52078794D01*
X26051431Y-51926155D01*
X26127408Y-51755510D01*
X26168792Y-51573357D01*
X26171771Y-51360002D01*
X26136142Y-51180059D01*
X28105533Y-51180059D01*
X28139253Y-51363785D01*
X28208017Y-51537463D01*
X28309205Y-51694476D01*
X28438964Y-51828845D01*
X28592350Y-51935452D01*
X28763522Y-52010235D01*
X28945959Y-52050346D01*
X29132713Y-52054258D01*
X29316671Y-52021822D01*
X29490824Y-51954272D01*
X29648540Y-51854182D01*
X29783812Y-51725365D01*
X29891486Y-51572726D01*
X29967463Y-51402081D01*
X30008847Y-51219928D01*
X30011826Y-51006573D01*
X29975544Y-50823335D01*
X29904362Y-50650635D01*
X29800991Y-50495049D01*
X29669369Y-50362505D01*
X29514509Y-50258050D01*
X29342310Y-50185664D01*
X29159330Y-50148104D01*
X28972540Y-50146800D01*
X28789053Y-50181802D01*
X28615860Y-50251777D01*
X28459557Y-50354059D01*
X28326097Y-50484752D01*
X28220564Y-50638879D01*
X28146978Y-50810569D01*
X28108141Y-50993282D01*
X28105533Y-51180059D01*
X26136142Y-51180059D01*
X26135489Y-51176764D01*
X26064307Y-51004064D01*
X25960936Y-50848478D01*
X25829314Y-50715934D01*
X25674454Y-50611479D01*
X25502255Y-50539093D01*
X25319275Y-50501533D01*
X25132485Y-50500229D01*
X24948998Y-50535231D01*
X24775805Y-50605206D01*
X24619502Y-50707488D01*
X24486042Y-50838181D01*
X24380509Y-50992308D01*
X24306923Y-51163998D01*
X24268086Y-51346711D01*
X24265478Y-51533488D01*
X23548499Y-51533488D01*
X22663892Y-48448499D01*
X22548593Y-47075428D01*
X33780664Y-47075428D01*
X33816633Y-47271403D01*
X33889981Y-47456659D01*
X33997915Y-47624140D01*
X34136324Y-47767467D01*
X34299936Y-47881180D01*
X34482520Y-47960949D01*
X34677119Y-48003734D01*
X34876324Y-48007907D01*
X35072545Y-47973308D01*
X35258308Y-47901255D01*
X35426539Y-47794493D01*
X35570828Y-47657088D01*
X35685681Y-47494273D01*
X35766723Y-47312251D01*
X35810866Y-47117955D01*
X35814044Y-46890376D01*
X35775343Y-46694923D01*
X35699415Y-46510709D01*
X35589153Y-46344751D01*
X35448756Y-46203371D01*
X35283572Y-46091953D01*
X35099893Y-46014741D01*
X34904715Y-45974677D01*
X34705472Y-45973286D01*
X34509753Y-46010621D01*
X34325014Y-46085261D01*
X34158290Y-46194361D01*
X34015933Y-46333768D01*
X33903364Y-46498170D01*
X33824872Y-46681306D01*
X33783446Y-46876200D01*
X33780664Y-47075428D01*
X22548593Y-47075428D01*
X22356183Y-44784089D01*
X26732248Y-44784089D01*
X26765968Y-44967815D01*
X26834732Y-45141493D01*
X26935920Y-45298506D01*
X27065679Y-45432875D01*
X27219065Y-45539482D01*
X27390237Y-45614265D01*
X27572674Y-45654376D01*
X27759428Y-45658288D01*
X27943386Y-45625852D01*
X28117539Y-45558302D01*
X28275255Y-45458212D01*
X28410527Y-45329395D01*
X28518201Y-45176756D01*
X28594178Y-45006111D01*
X28635562Y-44823958D01*
X28638541Y-44610603D01*
X28602259Y-44427365D01*
X28531077Y-44254665D01*
X28427706Y-44099079D01*
X28296084Y-43966535D01*
X28141224Y-43862080D01*
X27969025Y-43789694D01*
X27786045Y-43752134D01*
X27599255Y-43750830D01*
X27415768Y-43785832D01*
X27242575Y-43855807D01*
X27086272Y-43958089D01*
X26952812Y-44088782D01*
X26847279Y-44242909D01*
X26773693Y-44414599D01*
X26734856Y-44597312D01*
X26732248Y-44784089D01*
X22356183Y-44784089D01*
X22302159Y-44140738D01*
X22358203Y-43641089D01*
X23049248Y-43641089D01*
X23082968Y-43824815D01*
X23151732Y-43998493D01*
X23252920Y-44155506D01*
X23382679Y-44289875D01*
X23536065Y-44396482D01*
X23707237Y-44471265D01*
X23889674Y-44511376D01*
X24076428Y-44515288D01*
X24260386Y-44482852D01*
X24434539Y-44415302D01*
X24592255Y-44315212D01*
X24727527Y-44186395D01*
X24835201Y-44033756D01*
X24911178Y-43863111D01*
X24952562Y-43680958D01*
X24955541Y-43467603D01*
X24919259Y-43284365D01*
X24848077Y-43111665D01*
X24744706Y-42956079D01*
X24613084Y-42823535D01*
X24458224Y-42719080D01*
X24286025Y-42646694D01*
X24103045Y-42609134D01*
X23916255Y-42607830D01*
X23732768Y-42642832D01*
X23559575Y-42712807D01*
X23403272Y-42815089D01*
X23269812Y-42945782D01*
X23164279Y-43099909D01*
X23090693Y-43271599D01*
X23051856Y-43454312D01*
X23049248Y-43641089D01*
X22358203Y-43641089D01*
X22592994Y-41547884D01*
X27726719Y-41547884D01*
X27788141Y-41882545D01*
X27913396Y-42198902D01*
X28097713Y-42484906D01*
X28334071Y-42729662D01*
X28613468Y-42923848D01*
X28925261Y-43060067D01*
X29257575Y-43133131D01*
X29597752Y-43140257D01*
X29932833Y-43081173D01*
X30250058Y-42958130D01*
X30537341Y-42775814D01*
X30783741Y-42541170D01*
X30979873Y-42263136D01*
X31118266Y-41952301D01*
X31193648Y-41620505D01*
X31199074Y-41231874D01*
X31132986Y-40898103D01*
X31003326Y-40583526D01*
X30815034Y-40300123D01*
X30575282Y-40058691D01*
X30293201Y-39868425D01*
X29979536Y-39736572D01*
X29646234Y-39668156D01*
X29305992Y-39665780D01*
X28971767Y-39729537D01*
X28656292Y-39856997D01*
X28371582Y-40043306D01*
X28128482Y-40281367D01*
X27936251Y-40562113D01*
X27802212Y-40874850D01*
X27731470Y-41207666D01*
X27726719Y-41547884D01*
X22592994Y-41547884D01*
X22784031Y-39844756D01*
X23258370Y-38349449D01*
X27911130Y-38349449D01*
X27944850Y-38533175D01*
X28013614Y-38706853D01*
X28114802Y-38863866D01*
X28244561Y-38998235D01*
X28397947Y-39104842D01*
X28569119Y-39179625D01*
X28751556Y-39219736D01*
X28938310Y-39223648D01*
X29122268Y-39191212D01*
X29296421Y-39123662D01*
X29308494Y-39116000D01*
X36703000Y-39116000D01*
X36703000Y-49022000D01*
X36751336Y-49265004D01*
X36888987Y-49471013D01*
X37094996Y-49608664D01*
X37338000Y-49657000D01*
X38136076Y-49657000D01*
X39960300Y-51481224D01*
X40041889Y-51548242D01*
X40122766Y-51616106D01*
X40128034Y-51619002D01*
X40132677Y-51622816D01*
X40225693Y-51672691D01*
X40318247Y-51723573D01*
X40323979Y-51725391D01*
X40329273Y-51728230D01*
X40430202Y-51759087D01*
X40530880Y-51791024D01*
X40536855Y-51791694D01*
X40542601Y-51793451D01*
X40647606Y-51804117D01*
X40752564Y-51815890D01*
X40764314Y-51815972D01*
X40764533Y-51815994D01*
X40764737Y-51815975D01*
X40768523Y-51816001D01*
X50961555Y-51816001D01*
X51007777Y-51862223D01*
X51180154Y-52003816D01*
X51376750Y-52109229D01*
X51590078Y-52174450D01*
X51812011Y-52196993D01*
X52034095Y-52176000D01*
X52247873Y-52112270D01*
X52445200Y-52008231D01*
X52618561Y-51867846D01*
X52761353Y-51696461D01*
X52868137Y-51500606D01*
X52934846Y-51287739D01*
X52958937Y-51065969D01*
X52939495Y-50843743D01*
X52877260Y-50629527D01*
X52774601Y-50431477D01*
X52635429Y-50257140D01*
X52624223Y-50245777D01*
X52243224Y-49864778D01*
X52161608Y-49797737D01*
X52080758Y-49729896D01*
X52075494Y-49727002D01*
X52070847Y-49723185D01*
X51977792Y-49673290D01*
X51948161Y-49657000D01*
X53983422Y-49657000D01*
X54005304Y-49776227D01*
X54069483Y-49938326D01*
X54163926Y-50084872D01*
X54285034Y-50210283D01*
X54428194Y-50309782D01*
X54587955Y-50379580D01*
X54758230Y-50417017D01*
X54932533Y-50420668D01*
X55104226Y-50390394D01*
X55266769Y-50327348D01*
X55413971Y-50233931D01*
X55540224Y-50113701D01*
X55640721Y-49971239D01*
X55711632Y-49811970D01*
X55746840Y-49657000D01*
X57190983Y-49657000D01*
X57190719Y-49675884D01*
X57252141Y-50010545D01*
X57377396Y-50326902D01*
X57561713Y-50612906D01*
X57798071Y-50857662D01*
X58077468Y-51051848D01*
X58389261Y-51188067D01*
X58721575Y-51261131D01*
X59061752Y-51268257D01*
X59396833Y-51209173D01*
X59714058Y-51086130D01*
X60001341Y-50903814D01*
X60247741Y-50669170D01*
X60443873Y-50391136D01*
X60582266Y-50080301D01*
X60657648Y-49748505D01*
X60661832Y-49448835D01*
X60784664Y-49265004D01*
X60833000Y-49022000D01*
X60833000Y-45419089D01*
X63943248Y-45419089D01*
X63976968Y-45602815D01*
X64045732Y-45776493D01*
X64146920Y-45933506D01*
X64276679Y-46067875D01*
X64430065Y-46174482D01*
X64601237Y-46249265D01*
X64783674Y-46289376D01*
X64970428Y-46293288D01*
X65154386Y-46260852D01*
X65328539Y-46193302D01*
X65486255Y-46093212D01*
X65621527Y-45964395D01*
X65729201Y-45811756D01*
X65805178Y-45641111D01*
X65846562Y-45458958D01*
X65849541Y-45245603D01*
X65813259Y-45062365D01*
X65742077Y-44889665D01*
X65638706Y-44734079D01*
X65507084Y-44601535D01*
X65352224Y-44497080D01*
X65180025Y-44424694D01*
X64997045Y-44387134D01*
X64810255Y-44385830D01*
X64626768Y-44420832D01*
X64453575Y-44490807D01*
X64297272Y-44593089D01*
X64163812Y-44723782D01*
X64058279Y-44877909D01*
X63984693Y-45049599D01*
X63945856Y-45232312D01*
X63943248Y-45419089D01*
X60833000Y-45419089D01*
X60833000Y-41838842D01*
X60963386Y-41815852D01*
X61137539Y-41748302D01*
X61295255Y-41648212D01*
X61430527Y-41519395D01*
X61538201Y-41366756D01*
X61614178Y-41196111D01*
X61655562Y-41013958D01*
X61658541Y-40800603D01*
X61622259Y-40617365D01*
X61551077Y-40444665D01*
X61447706Y-40289079D01*
X61316084Y-40156535D01*
X61161224Y-40052080D01*
X60989025Y-39979694D01*
X60833000Y-39947667D01*
X60833000Y-39116000D01*
X60784664Y-38872996D01*
X60647013Y-38666987D01*
X60441004Y-38529336D01*
X60198000Y-38481000D01*
X37338000Y-38481000D01*
X37094996Y-38529336D01*
X36888987Y-38666987D01*
X36751336Y-38872996D01*
X36703000Y-39116000D01*
X29308494Y-39116000D01*
X29454137Y-39023572D01*
X29589409Y-38894755D01*
X29697083Y-38742116D01*
X29773060Y-38571471D01*
X29814444Y-38389318D01*
X29817423Y-38175963D01*
X29781141Y-37992725D01*
X29709959Y-37820025D01*
X29606588Y-37664439D01*
X29474966Y-37531895D01*
X29467250Y-37526690D01*
X62727018Y-37526690D01*
X62760738Y-37710416D01*
X62829502Y-37884094D01*
X62930690Y-38041107D01*
X63060449Y-38175476D01*
X63213835Y-38282083D01*
X63385007Y-38356866D01*
X63567444Y-38396977D01*
X63754198Y-38400889D01*
X63938156Y-38368453D01*
X64112309Y-38300903D01*
X64270025Y-38200813D01*
X64405297Y-38071996D01*
X64512971Y-37919357D01*
X64588948Y-37748712D01*
X64630332Y-37566559D01*
X64633311Y-37353204D01*
X64597029Y-37169966D01*
X64525847Y-36997266D01*
X64422476Y-36841680D01*
X64290854Y-36709136D01*
X64135994Y-36604681D01*
X63963795Y-36532295D01*
X63780815Y-36494735D01*
X63594025Y-36493431D01*
X63410538Y-36528433D01*
X63237345Y-36598408D01*
X63081042Y-36700690D01*
X62947582Y-36831383D01*
X62842049Y-36985510D01*
X62768463Y-37157200D01*
X62729626Y-37339913D01*
X62727018Y-37526690D01*
X29467250Y-37526690D01*
X29320106Y-37427440D01*
X29147907Y-37355054D01*
X28964927Y-37317494D01*
X28778137Y-37316190D01*
X28594650Y-37351192D01*
X28421457Y-37421167D01*
X28265154Y-37523449D01*
X28131694Y-37654142D01*
X28026161Y-37808269D01*
X27952575Y-37979959D01*
X27913738Y-38162672D01*
X27911130Y-38349449D01*
X23258370Y-38349449D01*
X24040446Y-35884032D01*
X24945889Y-35884032D01*
X24979609Y-36067758D01*
X25048373Y-36241436D01*
X25149561Y-36398449D01*
X25279320Y-36532818D01*
X25432706Y-36639425D01*
X25603878Y-36714208D01*
X25786315Y-36754319D01*
X25973069Y-36758231D01*
X26157027Y-36725795D01*
X26331180Y-36658245D01*
X26488896Y-36558155D01*
X26624168Y-36429338D01*
X26731842Y-36276699D01*
X26807819Y-36106054D01*
X26849203Y-35923901D01*
X26849619Y-35894089D01*
X48830248Y-35894089D01*
X48863968Y-36077815D01*
X48932732Y-36251493D01*
X49033920Y-36408506D01*
X49163679Y-36542875D01*
X49317065Y-36649482D01*
X49488237Y-36724265D01*
X49670674Y-36764376D01*
X49857428Y-36768288D01*
X50041386Y-36735852D01*
X50215539Y-36668302D01*
X50373255Y-36568212D01*
X50508527Y-36439395D01*
X50616201Y-36286756D01*
X50692178Y-36116111D01*
X50733562Y-35933958D01*
X50736541Y-35720603D01*
X50700259Y-35537365D01*
X50629077Y-35364665D01*
X50525706Y-35209079D01*
X50394084Y-35076535D01*
X50239224Y-34972080D01*
X50067025Y-34899694D01*
X49884045Y-34862134D01*
X49697255Y-34860830D01*
X49513768Y-34895832D01*
X49340575Y-34965807D01*
X49184272Y-35068089D01*
X49050812Y-35198782D01*
X48945279Y-35352909D01*
X48871693Y-35524599D01*
X48832856Y-35707312D01*
X48830248Y-35894089D01*
X26849619Y-35894089D01*
X26852182Y-35710546D01*
X26815900Y-35527308D01*
X26744718Y-35354608D01*
X26641347Y-35199022D01*
X26509725Y-35066478D01*
X26354865Y-34962023D01*
X26182666Y-34889637D01*
X25999686Y-34852077D01*
X25812896Y-34850773D01*
X25629409Y-34885775D01*
X25456216Y-34955750D01*
X25299913Y-35058032D01*
X25166453Y-35188725D01*
X25060920Y-35342852D01*
X24987334Y-35514542D01*
X24948497Y-35697255D01*
X24945889Y-35884032D01*
X24040446Y-35884032D01*
X24091152Y-35724187D01*
X25114848Y-33862089D01*
X44766248Y-33862089D01*
X44799968Y-34045815D01*
X44868732Y-34219493D01*
X44969920Y-34376506D01*
X45099679Y-34510875D01*
X45253065Y-34617482D01*
X45424237Y-34692265D01*
X45606674Y-34732376D01*
X45793428Y-34736288D01*
X45977386Y-34703852D01*
X46151539Y-34636302D01*
X46309255Y-34536212D01*
X46444527Y-34407395D01*
X46552201Y-34254756D01*
X46628178Y-34084111D01*
X46669562Y-33901958D01*
X46672541Y-33688603D01*
X46636259Y-33505365D01*
X46565077Y-33332665D01*
X46461706Y-33177079D01*
X46330084Y-33044535D01*
X46175224Y-32940080D01*
X46003025Y-32867694D01*
X45897773Y-32846089D01*
X54164248Y-32846089D01*
X54197968Y-33029815D01*
X54266732Y-33203493D01*
X54367920Y-33360506D01*
X54497679Y-33494875D01*
X54651065Y-33601482D01*
X54822237Y-33676265D01*
X55004674Y-33716376D01*
X55191428Y-33720288D01*
X55375386Y-33687852D01*
X55549539Y-33620302D01*
X55707255Y-33520212D01*
X55842527Y-33391395D01*
X55950201Y-33238756D01*
X56026178Y-33068111D01*
X56067562Y-32885958D01*
X56070541Y-32672603D01*
X56034259Y-32489365D01*
X55963077Y-32316665D01*
X55859706Y-32161079D01*
X55728084Y-32028535D01*
X55573224Y-31924080D01*
X55401025Y-31851694D01*
X55218045Y-31814134D01*
X55031255Y-31812830D01*
X54847768Y-31847832D01*
X54674575Y-31917807D01*
X54518272Y-32020089D01*
X54384812Y-32150782D01*
X54279279Y-32304909D01*
X54205693Y-32476599D01*
X54166856Y-32659312D01*
X54164248Y-32846089D01*
X45897773Y-32846089D01*
X45820045Y-32830134D01*
X45633255Y-32828830D01*
X45449768Y-32863832D01*
X45276575Y-32933807D01*
X45120272Y-33036089D01*
X44986812Y-33166782D01*
X44881279Y-33320909D01*
X44807693Y-33492599D01*
X44768856Y-33675312D01*
X44766248Y-33862089D01*
X25114848Y-33862089D01*
X25865562Y-32496546D01*
X31462705Y-32496546D01*
X31496425Y-32680272D01*
X31565189Y-32853950D01*
X31666377Y-33010963D01*
X31796136Y-33145332D01*
X31949522Y-33251939D01*
X32120694Y-33326722D01*
X32303131Y-33366833D01*
X32489885Y-33370745D01*
X32673843Y-33338309D01*
X32847996Y-33270759D01*
X33005712Y-33170669D01*
X33140984Y-33041852D01*
X33248658Y-32889213D01*
X33324635Y-32718568D01*
X33366019Y-32536415D01*
X33368998Y-32323060D01*
X33332716Y-32139822D01*
X33261534Y-31967122D01*
X33158163Y-31811536D01*
X33026541Y-31678992D01*
X32871681Y-31574537D01*
X32699482Y-31502151D01*
X32516502Y-31464591D01*
X32329712Y-31463287D01*
X32146225Y-31498289D01*
X31973032Y-31568264D01*
X31816729Y-31670546D01*
X31683269Y-31801239D01*
X31577736Y-31955366D01*
X31504150Y-32127056D01*
X31465313Y-32309769D01*
X31462705Y-32496546D01*
X25865562Y-32496546D01*
X26173736Y-31935981D01*
X26684372Y-31327428D01*
X34796664Y-31327428D01*
X34832633Y-31523403D01*
X34905981Y-31708659D01*
X35013915Y-31876140D01*
X35152324Y-32019467D01*
X35315936Y-32133180D01*
X35498520Y-32212949D01*
X35693119Y-32255734D01*
X35892324Y-32259907D01*
X36088545Y-32225308D01*
X36274308Y-32153255D01*
X36383296Y-32084089D01*
X42226248Y-32084089D01*
X42259968Y-32267815D01*
X42328732Y-32441493D01*
X42429920Y-32598506D01*
X42559679Y-32732875D01*
X42713065Y-32839482D01*
X42884237Y-32914265D01*
X43066674Y-32954376D01*
X43253428Y-32958288D01*
X43437386Y-32925852D01*
X43611539Y-32858302D01*
X43769255Y-32758212D01*
X43904527Y-32629395D01*
X44012201Y-32476756D01*
X44088178Y-32306111D01*
X44129562Y-32123958D01*
X44132541Y-31910603D01*
X44096259Y-31727365D01*
X44025077Y-31554665D01*
X43921706Y-31399079D01*
X43790084Y-31266535D01*
X43635224Y-31162080D01*
X43463025Y-31089694D01*
X43280045Y-31052134D01*
X43093255Y-31050830D01*
X42909768Y-31085832D01*
X42736575Y-31155807D01*
X42580272Y-31258089D01*
X42446812Y-31388782D01*
X42341279Y-31542909D01*
X42267693Y-31714599D01*
X42228856Y-31897312D01*
X42226248Y-32084089D01*
X36383296Y-32084089D01*
X36442539Y-32046493D01*
X36586828Y-31909088D01*
X36701681Y-31746273D01*
X36782723Y-31564251D01*
X36826866Y-31369955D01*
X36830044Y-31142376D01*
X36791343Y-30946923D01*
X36715415Y-30762709D01*
X36674081Y-30700495D01*
X58583078Y-30700495D01*
X58616798Y-30884221D01*
X58685562Y-31057899D01*
X58786750Y-31214912D01*
X58916509Y-31349281D01*
X59069895Y-31455888D01*
X59241067Y-31530671D01*
X59423504Y-31570782D01*
X59610258Y-31574694D01*
X59794216Y-31542258D01*
X59968369Y-31474708D01*
X60126085Y-31374618D01*
X60261357Y-31245801D01*
X60369031Y-31093162D01*
X60445008Y-30922517D01*
X60486392Y-30740364D01*
X60489371Y-30527009D01*
X60453089Y-30343771D01*
X60381907Y-30171071D01*
X60278536Y-30015485D01*
X60146914Y-29882941D01*
X59992054Y-29778486D01*
X59819855Y-29706100D01*
X59636875Y-29668540D01*
X59450085Y-29667236D01*
X59266598Y-29702238D01*
X59093405Y-29772213D01*
X58937102Y-29874495D01*
X58803642Y-30005188D01*
X58698109Y-30159315D01*
X58624523Y-30331005D01*
X58585686Y-30513718D01*
X58583078Y-30700495D01*
X36674081Y-30700495D01*
X36605153Y-30596751D01*
X36464756Y-30455371D01*
X36299572Y-30343953D01*
X36115893Y-30266741D01*
X35920715Y-30226677D01*
X35721472Y-30225286D01*
X35525753Y-30262621D01*
X35341014Y-30337261D01*
X35174290Y-30446361D01*
X35031933Y-30585768D01*
X34919364Y-30750170D01*
X34840872Y-30933306D01*
X34799446Y-31128200D01*
X34796664Y-31327428D01*
X26684372Y-31327428D01*
X28265377Y-29443259D01*
X29666654Y-29443259D01*
X29700374Y-29626985D01*
X29769138Y-29800663D01*
X29870326Y-29957676D01*
X30000085Y-30092045D01*
X30153471Y-30198652D01*
X30324643Y-30273435D01*
X30507080Y-30313546D01*
X30693834Y-30317458D01*
X30877792Y-30285022D01*
X31051945Y-30217472D01*
X31209661Y-30117382D01*
X31344933Y-29988565D01*
X31452607Y-29835926D01*
X31528584Y-29665281D01*
X31569968Y-29483128D01*
X31572947Y-29269773D01*
X31536665Y-29086535D01*
X31465483Y-28913835D01*
X31394839Y-28807507D01*
X36983741Y-28807507D01*
X37017461Y-28991233D01*
X37086225Y-29164911D01*
X37187413Y-29321924D01*
X37317172Y-29456293D01*
X37470558Y-29562900D01*
X37641730Y-29637683D01*
X37824167Y-29677794D01*
X38010921Y-29681706D01*
X38194879Y-29649270D01*
X38369032Y-29581720D01*
X38526748Y-29481630D01*
X38662020Y-29352813D01*
X38769694Y-29200174D01*
X38845671Y-29029529D01*
X38887055Y-28847376D01*
X38887611Y-28807507D01*
X50008755Y-28807507D01*
X50042475Y-28991233D01*
X50111239Y-29164911D01*
X50212427Y-29321924D01*
X50342186Y-29456293D01*
X50495572Y-29562900D01*
X50666744Y-29637683D01*
X50849181Y-29677794D01*
X51035935Y-29681706D01*
X51219893Y-29649270D01*
X51394046Y-29581720D01*
X51551762Y-29481630D01*
X51687034Y-29352813D01*
X51794708Y-29200174D01*
X51870685Y-29029529D01*
X51912069Y-28847376D01*
X51915048Y-28634021D01*
X51878766Y-28450783D01*
X51807584Y-28278083D01*
X51704213Y-28122497D01*
X51572591Y-27989953D01*
X51417731Y-27885498D01*
X51245532Y-27813112D01*
X51062552Y-27775552D01*
X50875762Y-27774248D01*
X50692275Y-27809250D01*
X50519082Y-27879225D01*
X50362779Y-27981507D01*
X50229319Y-28112200D01*
X50123786Y-28266327D01*
X50050200Y-28438017D01*
X50011363Y-28620730D01*
X50008755Y-28807507D01*
X38887611Y-28807507D01*
X38890034Y-28634021D01*
X38853752Y-28450783D01*
X38782570Y-28278083D01*
X38679199Y-28122497D01*
X38547577Y-27989953D01*
X38392717Y-27885498D01*
X38220518Y-27813112D01*
X38037538Y-27775552D01*
X37850748Y-27774248D01*
X37667261Y-27809250D01*
X37494068Y-27879225D01*
X37337765Y-27981507D01*
X37204305Y-28112200D01*
X37098772Y-28266327D01*
X37025186Y-28438017D01*
X36986349Y-28620730D01*
X36983741Y-28807507D01*
X31394839Y-28807507D01*
X31362112Y-28758249D01*
X31230490Y-28625705D01*
X31075630Y-28521250D01*
X30903431Y-28448864D01*
X30720451Y-28411304D01*
X30533661Y-28410000D01*
X30350174Y-28445002D01*
X30176981Y-28514977D01*
X30020678Y-28617259D01*
X29887218Y-28747952D01*
X29781685Y-28902079D01*
X29708099Y-29073769D01*
X29669262Y-29256482D01*
X29666654Y-29443259D01*
X28265377Y-29443259D01*
X28952457Y-28624430D01*
X30335930Y-27512089D01*
X43496248Y-27512089D01*
X43529968Y-27695815D01*
X43598732Y-27869493D01*
X43699920Y-28026506D01*
X43829679Y-28160875D01*
X43983065Y-28267482D01*
X44154237Y-28342265D01*
X44336674Y-28382376D01*
X44523428Y-28386288D01*
X44707386Y-28353852D01*
X44881539Y-28286302D01*
X45039255Y-28186212D01*
X45174527Y-28057395D01*
X45282201Y-27904756D01*
X45358178Y-27734111D01*
X45399562Y-27551958D01*
X45402541Y-27338603D01*
X45366259Y-27155365D01*
X45295077Y-26982665D01*
X45191706Y-26827079D01*
X45060084Y-26694535D01*
X44905224Y-26590080D01*
X44733025Y-26517694D01*
X44550045Y-26480134D01*
X44363255Y-26478830D01*
X44179768Y-26513832D01*
X44006575Y-26583807D01*
X43850272Y-26686089D01*
X43716812Y-26816782D01*
X43611279Y-26970909D01*
X43537693Y-27142599D01*
X43498856Y-27325312D01*
X43496248Y-27512089D01*
X30335930Y-27512089D01*
X32321475Y-25915670D01*
X33500446Y-25299319D01*
X36492849Y-25299319D01*
X36526569Y-25483045D01*
X36595333Y-25656723D01*
X36696521Y-25813736D01*
X36826280Y-25948105D01*
X36979666Y-26054712D01*
X37150838Y-26129495D01*
X37333275Y-26169606D01*
X37520029Y-26173518D01*
X37703987Y-26141082D01*
X37878140Y-26073532D01*
X38025947Y-25979730D01*
X52142305Y-25979730D01*
X52176025Y-26163456D01*
X52244789Y-26337134D01*
X52345977Y-26494147D01*
X52475736Y-26628516D01*
X52629122Y-26735123D01*
X52800294Y-26809906D01*
X52982731Y-26850017D01*
X53169485Y-26853929D01*
X53353443Y-26821493D01*
X53527596Y-26753943D01*
X53685312Y-26653853D01*
X53820584Y-26525036D01*
X53928258Y-26372397D01*
X54004235Y-26201752D01*
X54045619Y-26019599D01*
X54048598Y-25806244D01*
X54012316Y-25623006D01*
X53941134Y-25450306D01*
X53837763Y-25294720D01*
X53706141Y-25162176D01*
X53551281Y-25057721D01*
X53379082Y-24985335D01*
X53196102Y-24947775D01*
X53009312Y-24946471D01*
X52825825Y-24981473D01*
X52652632Y-25051448D01*
X52496329Y-25153730D01*
X52362869Y-25284423D01*
X52257336Y-25438550D01*
X52183750Y-25610240D01*
X52144913Y-25792953D01*
X52142305Y-25979730D01*
X38025947Y-25979730D01*
X38035856Y-25973442D01*
X38171128Y-25844625D01*
X38278802Y-25691986D01*
X38354779Y-25521341D01*
X38396163Y-25339188D01*
X38399142Y-25125833D01*
X38362860Y-24942595D01*
X38291678Y-24769895D01*
X38188307Y-24614309D01*
X38056685Y-24481765D01*
X37901825Y-24377310D01*
X37729626Y-24304924D01*
X37546646Y-24267364D01*
X37359856Y-24266060D01*
X37176369Y-24301062D01*
X37003176Y-24371037D01*
X36846873Y-24473319D01*
X36713413Y-24604012D01*
X36607880Y-24758139D01*
X36534294Y-24929829D01*
X36495457Y-25112542D01*
X36492849Y-25299319D01*
X33500446Y-25299319D01*
X35826880Y-24083089D01*
X44385248Y-24083089D01*
X44418968Y-24266815D01*
X44487732Y-24440493D01*
X44588920Y-24597506D01*
X44718679Y-24731875D01*
X44872065Y-24838482D01*
X45043237Y-24913265D01*
X45225674Y-24953376D01*
X45412428Y-24957288D01*
X45596386Y-24924852D01*
X45770539Y-24857302D01*
X45928255Y-24757212D01*
X46063527Y-24628395D01*
X46171201Y-24475756D01*
X46247178Y-24305111D01*
X46288562Y-24122958D01*
X46291541Y-23909603D01*
X46255259Y-23726365D01*
X46184077Y-23553665D01*
X46080706Y-23398079D01*
X45949084Y-23265535D01*
X45794224Y-23161080D01*
X45622025Y-23088694D01*
X45439045Y-23051134D01*
X45252255Y-23049830D01*
X45068768Y-23084832D01*
X44895575Y-23154807D01*
X44739272Y-23257089D01*
X44605812Y-23387782D01*
X44500279Y-23541909D01*
X44426693Y-23713599D01*
X44387856Y-23896312D01*
X44385248Y-24083089D01*
X35826880Y-24083089D01*
X36152464Y-23912878D01*
X40299504Y-22692337D01*
X44604635Y-22300540D01*
X48903876Y-22752408D01*
G36*
X51567080Y-39377903D02*
X51316782Y-39627764D01*
X51181154Y-39954391D01*
X51180846Y-40308057D01*
X51315903Y-40634920D01*
X51565764Y-40885218D01*
X51892391Y-41020846D01*
X52246057Y-41021154D01*
X52572920Y-40886097D01*
X52823218Y-40636236D01*
X52958846Y-40309609D01*
X52959154Y-39955943D01*
X52824097Y-39629080D01*
X52574236Y-39378782D01*
X52247609Y-39243154D01*
X52070776Y-39243000D01*
X58761826Y-39243000D01*
X58643157Y-39292033D01*
X58374980Y-39559741D01*
X58229665Y-39909699D01*
X58229335Y-40288627D01*
X58341767Y-40560733D01*
X58229665Y-40830705D01*
X58229335Y-41209633D01*
X58374039Y-41559843D01*
X58641747Y-41828020D01*
X58991705Y-41973335D01*
X59370633Y-41973665D01*
X59720843Y-41828961D01*
X59989020Y-41561253D01*
X59999949Y-41534932D01*
X60071000Y-41606107D01*
X60071000Y-48219192D01*
X59912082Y-48059996D01*
X59274627Y-47795301D01*
X58926731Y-47794998D01*
X59049920Y-47744097D01*
X59300218Y-47494236D01*
X59435846Y-47167609D01*
X59436154Y-46813943D01*
X59301097Y-46487080D01*
X59051236Y-46236782D01*
X58877057Y-46164456D01*
X59116633Y-46164665D01*
X59466843Y-46019961D01*
X59735020Y-45752253D01*
X59880335Y-45402295D01*
X59880665Y-45023367D01*
X59735961Y-44673157D01*
X59468253Y-44404980D01*
X59118295Y-44259665D01*
X58739367Y-44259335D01*
X58389157Y-44404039D01*
X58120980Y-44671747D01*
X57975665Y-45021705D01*
X57975335Y-45400633D01*
X58120039Y-45750843D01*
X58387747Y-46019020D01*
X58585256Y-46101033D01*
X58370943Y-46100846D01*
X58044080Y-46235903D01*
X57793782Y-46485764D01*
X57658154Y-46812391D01*
X57657846Y-47166057D01*
X57792903Y-47492920D01*
X58042764Y-47743218D01*
X58369391Y-47878846D01*
X58380726Y-47878856D01*
X57946485Y-48058281D01*
X57457996Y-48545918D01*
X57313044Y-48895000D01*
X55486248Y-48895000D01*
X55368236Y-48776782D01*
X55239582Y-48723360D01*
X55429020Y-48534253D01*
X55574335Y-48184295D01*
X55574665Y-47805367D01*
X55429961Y-47455157D01*
X55162253Y-47186980D01*
X54812295Y-47041665D01*
X54433367Y-47041335D01*
X54083157Y-47186039D01*
X53814980Y-47453747D01*
X53669665Y-47803705D01*
X53669335Y-48182633D01*
X53814039Y-48532843D01*
X54081747Y-48801020D01*
X54261252Y-48875557D01*
X54241775Y-48895000D01*
X47101148Y-48895000D01*
X47180335Y-48704295D01*
X47180665Y-48325367D01*
X47035961Y-47975157D01*
X46768253Y-47706980D01*
X46418295Y-47561665D01*
X46039367Y-47561335D01*
X45689157Y-47706039D01*
X45420980Y-47973747D01*
X45275665Y-48323705D01*
X45275335Y-48702633D01*
X45354820Y-48895000D01*
X41767180Y-48895000D01*
X41701961Y-48737157D01*
X41434253Y-48468980D01*
X41084295Y-48323665D01*
X40705367Y-48323335D01*
X40355157Y-48468039D01*
X40267505Y-48555537D01*
X39243000Y-47531032D01*
X39243000Y-47432633D01*
X50609335Y-47432633D01*
X50754039Y-47782843D01*
X51021747Y-48051020D01*
X51371705Y-48196335D01*
X51750633Y-48196665D01*
X52100843Y-48051961D01*
X52369020Y-47784253D01*
X52514335Y-47434295D01*
X52514665Y-47055367D01*
X52369961Y-46705157D01*
X52102253Y-46436980D01*
X51752295Y-46291665D01*
X51373367Y-46291335D01*
X51023157Y-46436039D01*
X50754980Y-46703747D01*
X50609665Y-47053705D01*
X50609335Y-47432633D01*
X39243000Y-47432633D01*
X39243000Y-45720000D01*
X39155994Y-45282593D01*
X38908223Y-44911777D01*
X38537407Y-44664006D01*
X38493177Y-44655208D01*
X43183824Y-44655208D01*
X43338175Y-45028766D01*
X43623731Y-45314821D01*
X43997018Y-45469824D01*
X44401208Y-45470176D01*
X44569514Y-45400633D01*
X50609335Y-45400633D01*
X50754039Y-45750843D01*
X51021747Y-46019020D01*
X51371705Y-46164335D01*
X51750633Y-46164665D01*
X52100843Y-46019961D01*
X52369020Y-45752253D01*
X52514335Y-45402295D01*
X52514665Y-45023367D01*
X52369961Y-44673157D01*
X52102253Y-44404980D01*
X51752295Y-44259665D01*
X51373367Y-44259335D01*
X51023157Y-44404039D01*
X50754980Y-44671747D01*
X50609665Y-45021705D01*
X50609335Y-45400633D01*
X44569514Y-45400633D01*
X44774766Y-45315825D01*
X45060821Y-45030269D01*
X45215824Y-44656982D01*
X45216176Y-44252792D01*
X45061825Y-43879234D01*
X44776269Y-43593179D01*
X44402982Y-43438176D01*
X43998792Y-43437824D01*
X43625234Y-43592175D01*
X43339179Y-43877731D01*
X43184176Y-44251018D01*
X43183824Y-44655208D01*
X38493177Y-44655208D01*
X38100000Y-44577000D01*
X37662593Y-44664006D01*
X37465000Y-44796033D01*
X37465000Y-42479633D01*
X39772335Y-42479633D01*
X39917039Y-42829843D01*
X40184747Y-43098020D01*
X40534705Y-43243335D01*
X40913633Y-43243665D01*
X41263843Y-43098961D01*
X41532020Y-42831253D01*
X41677335Y-42481295D01*
X41677460Y-42336633D01*
X48847335Y-42336633D01*
X48992039Y-42686843D01*
X49259747Y-42955020D01*
X49609705Y-43100335D01*
X49988633Y-43100665D01*
X50338843Y-42955961D01*
X50607020Y-42688253D01*
X50752335Y-42338295D01*
X50752665Y-41959367D01*
X50607961Y-41609157D01*
X50340253Y-41340980D01*
X49990295Y-41195665D01*
X49611367Y-41195335D01*
X49261157Y-41340039D01*
X48992980Y-41607747D01*
X48847665Y-41957705D01*
X48847335Y-42336633D01*
X41677460Y-42336633D01*
X41677665Y-42102367D01*
X41532961Y-41752157D01*
X41265253Y-41483980D01*
X40915295Y-41338665D01*
X40536367Y-41338335D01*
X40186157Y-41483039D01*
X39917980Y-41750747D01*
X39772665Y-42100705D01*
X39772335Y-42479633D01*
X37465000Y-42479633D01*
X37465000Y-39243000D01*
X51893570Y-39243000D01*
X51567080Y-39377903D01*
X51567080Y-39377903D01*
G37*
X51567080Y-39377903D02*
X51316782Y-39627764D01*
X51181154Y-39954391D01*
X51180846Y-40308057D01*
X51315903Y-40634920D01*
X51565764Y-40885218D01*
X51892391Y-41020846D01*
X52246057Y-41021154D01*
X52572920Y-40886097D01*
X52823218Y-40636236D01*
X52958846Y-40309609D01*
X52959154Y-39955943D01*
X52824097Y-39629080D01*
X52574236Y-39378782D01*
X52247609Y-39243154D01*
X52070776Y-39243000D01*
X58761826Y-39243000D01*
X58643157Y-39292033D01*
X58374980Y-39559741D01*
X58229665Y-39909699D01*
X58229335Y-40288627D01*
X58341767Y-40560733D01*
X58229665Y-40830705D01*
X58229335Y-41209633D01*
X58374039Y-41559843D01*
X58641747Y-41828020D01*
X58991705Y-41973335D01*
X59370633Y-41973665D01*
X59720843Y-41828961D01*
X59989020Y-41561253D01*
X59999949Y-41534932D01*
X60071000Y-41606107D01*
X60071000Y-48219192D01*
X59912082Y-48059996D01*
X59274627Y-47795301D01*
X58926731Y-47794998D01*
X59049920Y-47744097D01*
X59300218Y-47494236D01*
X59435846Y-47167609D01*
X59436154Y-46813943D01*
X59301097Y-46487080D01*
X59051236Y-46236782D01*
X58877057Y-46164456D01*
X59116633Y-46164665D01*
X59466843Y-46019961D01*
X59735020Y-45752253D01*
X59880335Y-45402295D01*
X59880665Y-45023367D01*
X59735961Y-44673157D01*
X59468253Y-44404980D01*
X59118295Y-44259665D01*
X58739367Y-44259335D01*
X58389157Y-44404039D01*
X58120980Y-44671747D01*
X57975665Y-45021705D01*
X57975335Y-45400633D01*
X58120039Y-45750843D01*
X58387747Y-46019020D01*
X58585256Y-46101033D01*
X58370943Y-46100846D01*
X58044080Y-46235903D01*
X57793782Y-46485764D01*
X57658154Y-46812391D01*
X57657846Y-47166057D01*
X57792903Y-47492920D01*
X58042764Y-47743218D01*
X58369391Y-47878846D01*
X58380726Y-47878856D01*
X57946485Y-48058281D01*
X57457996Y-48545918D01*
X57313044Y-48895000D01*
X55486248Y-48895000D01*
X55368236Y-48776782D01*
X55239582Y-48723360D01*
X55429020Y-48534253D01*
X55574335Y-48184295D01*
X55574665Y-47805367D01*
X55429961Y-47455157D01*
X55162253Y-47186980D01*
X54812295Y-47041665D01*
X54433367Y-47041335D01*
X54083157Y-47186039D01*
X53814980Y-47453747D01*
X53669665Y-47803705D01*
X53669335Y-48182633D01*
X53814039Y-48532843D01*
X54081747Y-48801020D01*
X54261252Y-48875557D01*
X54241775Y-48895000D01*
X47101148Y-48895000D01*
X47180335Y-48704295D01*
X47180665Y-48325367D01*
X47035961Y-47975157D01*
X46768253Y-47706980D01*
X46418295Y-47561665D01*
X46039367Y-47561335D01*
X45689157Y-47706039D01*
X45420980Y-47973747D01*
X45275665Y-48323705D01*
X45275335Y-48702633D01*
X45354820Y-48895000D01*
X41767180Y-48895000D01*
X41701961Y-48737157D01*
X41434253Y-48468980D01*
X41084295Y-48323665D01*
X40705367Y-48323335D01*
X40355157Y-48468039D01*
X40267505Y-48555537D01*
X39243000Y-47531032D01*
X39243000Y-47432633D01*
X50609335Y-47432633D01*
X50754039Y-47782843D01*
X51021747Y-48051020D01*
X51371705Y-48196335D01*
X51750633Y-48196665D01*
X52100843Y-48051961D01*
X52369020Y-47784253D01*
X52514335Y-47434295D01*
X52514665Y-47055367D01*
X52369961Y-46705157D01*
X52102253Y-46436980D01*
X51752295Y-46291665D01*
X51373367Y-46291335D01*
X51023157Y-46436039D01*
X50754980Y-46703747D01*
X50609665Y-47053705D01*
X50609335Y-47432633D01*
X39243000Y-47432633D01*
X39243000Y-45720000D01*
X39155994Y-45282593D01*
X38908223Y-44911777D01*
X38537407Y-44664006D01*
X38493177Y-44655208D01*
X43183824Y-44655208D01*
X43338175Y-45028766D01*
X43623731Y-45314821D01*
X43997018Y-45469824D01*
X44401208Y-45470176D01*
X44569514Y-45400633D01*
X50609335Y-45400633D01*
X50754039Y-45750843D01*
X51021747Y-46019020D01*
X51371705Y-46164335D01*
X51750633Y-46164665D01*
X52100843Y-46019961D01*
X52369020Y-45752253D01*
X52514335Y-45402295D01*
X52514665Y-45023367D01*
X52369961Y-44673157D01*
X52102253Y-44404980D01*
X51752295Y-44259665D01*
X51373367Y-44259335D01*
X51023157Y-44404039D01*
X50754980Y-44671747D01*
X50609665Y-45021705D01*
X50609335Y-45400633D01*
X44569514Y-45400633D01*
X44774766Y-45315825D01*
X45060821Y-45030269D01*
X45215824Y-44656982D01*
X45216176Y-44252792D01*
X45061825Y-43879234D01*
X44776269Y-43593179D01*
X44402982Y-43438176D01*
X43998792Y-43437824D01*
X43625234Y-43592175D01*
X43339179Y-43877731D01*
X43184176Y-44251018D01*
X43183824Y-44655208D01*
X38493177Y-44655208D01*
X38100000Y-44577000D01*
X37662593Y-44664006D01*
X37465000Y-44796033D01*
X37465000Y-42479633D01*
X39772335Y-42479633D01*
X39917039Y-42829843D01*
X40184747Y-43098020D01*
X40534705Y-43243335D01*
X40913633Y-43243665D01*
X41263843Y-43098961D01*
X41532020Y-42831253D01*
X41677335Y-42481295D01*
X41677460Y-42336633D01*
X48847335Y-42336633D01*
X48992039Y-42686843D01*
X49259747Y-42955020D01*
X49609705Y-43100335D01*
X49988633Y-43100665D01*
X50338843Y-42955961D01*
X50607020Y-42688253D01*
X50752335Y-42338295D01*
X50752665Y-41959367D01*
X50607961Y-41609157D01*
X50340253Y-41340980D01*
X49990295Y-41195665D01*
X49611367Y-41195335D01*
X49261157Y-41340039D01*
X48992980Y-41607747D01*
X48847665Y-41957705D01*
X48847335Y-42336633D01*
X41677460Y-42336633D01*
X41677665Y-42102367D01*
X41532961Y-41752157D01*
X41265253Y-41483980D01*
X40915295Y-41338665D01*
X40536367Y-41338335D01*
X40186157Y-41483039D01*
X39917980Y-41750747D01*
X39772665Y-42100705D01*
X39772335Y-42479633D01*
X37465000Y-42479633D01*
X37465000Y-39243000D01*
X51893570Y-39243000D01*
X51567080Y-39377903D01*
M02*
