G04 #@! TF.FileFunction,Soldermask,Top*
%FSLAX46Y46*%
G04 Gerber Fmt 4.6, Leading zero omitted, Abs format (unit mm)*
G04 Created by KiCad (PCBNEW 201609251018+7233~55~ubuntu16.04.1-) date Mon Sep 26 22:51:00 2016*
%MOMM*%
%LPD*%
G01*
G04 APERTURE LIST*
%ADD10C,0.100000*%
%ADD11R,1.460000X1.050000*%
%ADD12R,1.400000X3.600000*%
%ADD13C,0.900000*%
%ADD14R,1.000000X0.900000*%
%ADD15C,1.250000*%
%ADD16R,1.400000X1.250000*%
%ADD17R,1.250000X1.400000*%
%ADD18C,2.600000*%
%ADD19R,1.197560X1.197560*%
%ADD20R,1.300000X1.400000*%
%ADD21R,0.650000X1.100000*%
%ADD22R,1.100000X0.650000*%
%ADD23R,2.125000X2.125000*%
%ADD24R,3.900000X2.100000*%
%ADD25R,0.900000X1.000000*%
%ADD26R,0.650000X0.875000*%
%ADD27R,0.775000X0.650000*%
%ADD28R,1.300000X0.900000*%
%ADD29R,0.900000X1.300000*%
%ADD30R,1.500000X2.300000*%
%ADD31R,1.150000X1.200000*%
%ADD32C,2.540000*%
%ADD33O,1.650000X1.350000*%
%ADD34C,1.950000*%
%ADD35R,2.400000X2.400000*%
%ADD36R,3.600000X1.400000*%
G04 APERTURE END LIST*
D10*
D11*
X57488000Y-55052000D03*
X57487999Y-54102000D03*
X57488000Y-53152000D03*
X55288000Y-53152000D03*
X55288000Y-55052000D03*
D12*
X38068000Y-30382000D03*
X38068000Y-37182000D03*
X34068000Y-37182000D03*
X34068000Y-30382000D03*
D13*
X50705909Y-21382092D03*
D10*
G36*
X50930313Y-22016239D02*
X50098821Y-21671824D01*
X50481505Y-20747945D01*
X51312997Y-21092360D01*
X50930313Y-22016239D01*
X50930313Y-22016239D01*
G37*
D13*
X50284957Y-22398360D03*
D10*
G36*
X50509361Y-23032507D02*
X49677869Y-22688092D01*
X50060553Y-21764213D01*
X50892045Y-22108628D01*
X50509361Y-23032507D01*
X50509361Y-23032507D01*
G37*
D13*
X59057412Y-25532065D03*
D10*
G36*
X59022057Y-26203816D02*
X58385661Y-25567420D01*
X59092767Y-24860314D01*
X59729163Y-25496710D01*
X59022057Y-26203816D01*
X59022057Y-26203816D01*
G37*
D13*
X58279594Y-26309883D03*
D10*
G36*
X58244239Y-26981634D02*
X57607843Y-26345238D01*
X58314949Y-25638132D01*
X58951345Y-26274528D01*
X58244239Y-26981634D01*
X58244239Y-26981634D01*
G37*
D13*
X65185069Y-32562122D03*
D10*
G36*
X64895337Y-33169210D02*
X64550922Y-32337718D01*
X65474801Y-31955034D01*
X65819216Y-32786526D01*
X64895337Y-33169210D01*
X64895337Y-33169210D01*
G37*
D13*
X64168801Y-32983074D03*
D10*
G36*
X63879069Y-33590162D02*
X63534654Y-32758670D01*
X64458533Y-32375986D01*
X64802948Y-33207478D01*
X63879069Y-33590162D01*
X63879069Y-33590162D01*
G37*
D14*
X68156000Y-41402000D03*
X67056000Y-41402000D03*
D13*
X67517908Y-50705909D03*
D10*
G36*
X66883761Y-50930313D02*
X67228176Y-50098821D01*
X68152055Y-50481505D01*
X67807640Y-51312997D01*
X66883761Y-50930313D01*
X66883761Y-50930313D01*
G37*
D13*
X66501640Y-50284957D03*
D10*
G36*
X65867493Y-50509361D02*
X66211908Y-49677869D01*
X67135787Y-50060553D01*
X66791372Y-50892045D01*
X65867493Y-50509361D01*
X65867493Y-50509361D01*
G37*
D13*
X63367935Y-59057412D03*
D10*
G36*
X62696184Y-59022057D02*
X63332580Y-58385661D01*
X64039686Y-59092767D01*
X63403290Y-59729163D01*
X62696184Y-59022057D01*
X62696184Y-59022057D01*
G37*
D13*
X62590117Y-58279594D03*
D10*
G36*
X61918366Y-58244239D02*
X62554762Y-57607843D01*
X63261868Y-58314949D01*
X62625472Y-58951345D01*
X61918366Y-58244239D01*
X61918366Y-58244239D01*
G37*
D13*
X56337878Y-65185069D03*
D10*
G36*
X55730790Y-64895337D02*
X56562282Y-64550922D01*
X56944966Y-65474801D01*
X56113474Y-65819216D01*
X55730790Y-64895337D01*
X55730790Y-64895337D01*
G37*
D13*
X55916926Y-64168801D03*
D10*
G36*
X55309838Y-63879069D02*
X56141330Y-63534654D01*
X56524014Y-64458533D01*
X55692522Y-64802948D01*
X55309838Y-63879069D01*
X55309838Y-63879069D01*
G37*
D14*
X42588000Y-62738000D03*
X43688000Y-62738000D03*
D13*
X38194091Y-67517908D03*
D10*
G36*
X37969687Y-66883761D02*
X38801179Y-67228176D01*
X38418495Y-68152055D01*
X37587003Y-67807640D01*
X37969687Y-66883761D01*
X37969687Y-66883761D01*
G37*
D13*
X38615043Y-66501640D03*
D10*
G36*
X38390639Y-65867493D02*
X39222131Y-66211908D01*
X38839447Y-67135787D01*
X38007955Y-66791372D01*
X38390639Y-65867493D01*
X38390639Y-65867493D01*
G37*
D13*
X29842588Y-63367935D03*
D10*
G36*
X29877943Y-62696184D02*
X30514339Y-63332580D01*
X29807233Y-64039686D01*
X29170837Y-63403290D01*
X29877943Y-62696184D01*
X29877943Y-62696184D01*
G37*
D13*
X30620406Y-62590117D03*
D10*
G36*
X30655761Y-61918366D02*
X31292157Y-62554762D01*
X30585051Y-63261868D01*
X29948655Y-62625472D01*
X30655761Y-61918366D01*
X30655761Y-61918366D01*
G37*
D13*
X23714931Y-56337878D03*
D10*
G36*
X24004663Y-55730790D02*
X24349078Y-56562282D01*
X23425199Y-56944966D01*
X23080784Y-56113474D01*
X24004663Y-55730790D01*
X24004663Y-55730790D01*
G37*
D13*
X24731199Y-55916926D03*
D10*
G36*
X25020931Y-55309838D02*
X25365346Y-56141330D01*
X24441467Y-56524014D01*
X24097052Y-55692522D01*
X25020931Y-55309838D01*
X25020931Y-55309838D01*
G37*
D14*
X20744000Y-47498000D03*
X21844000Y-47498000D03*
D13*
X21382092Y-38194091D03*
D10*
G36*
X22016239Y-37969687D02*
X21671824Y-38801179D01*
X20747945Y-38418495D01*
X21092360Y-37587003D01*
X22016239Y-37969687D01*
X22016239Y-37969687D01*
G37*
D13*
X22398360Y-38615043D03*
D10*
G36*
X23032507Y-38390639D02*
X22688092Y-39222131D01*
X21764213Y-38839447D01*
X22108628Y-38007955D01*
X23032507Y-38390639D01*
X23032507Y-38390639D01*
G37*
D13*
X25532065Y-29842588D03*
D10*
G36*
X26203816Y-29877943D02*
X25567420Y-30514339D01*
X24860314Y-29807233D01*
X25496710Y-29170837D01*
X26203816Y-29877943D01*
X26203816Y-29877943D01*
G37*
D13*
X26309883Y-30620406D03*
D10*
G36*
X26981634Y-30655761D02*
X26345238Y-31292157D01*
X25638132Y-30585051D01*
X26274528Y-29948655D01*
X26981634Y-30655761D01*
X26981634Y-30655761D01*
G37*
D13*
X32562122Y-23714931D03*
D10*
G36*
X33169210Y-24004663D02*
X32337718Y-24349078D01*
X31955034Y-23425199D01*
X32786526Y-23080784D01*
X33169210Y-24004663D01*
X33169210Y-24004663D01*
G37*
D13*
X32983074Y-24731199D03*
D10*
G36*
X33590162Y-25020931D02*
X32758670Y-25365346D01*
X32375986Y-24441467D01*
X33207478Y-24097052D01*
X33590162Y-25020931D01*
X33590162Y-25020931D01*
G37*
D15*
X54481831Y-22517504D03*
D10*
G36*
X54172285Y-21631611D02*
X55327134Y-22109965D01*
X54791377Y-23403397D01*
X53636528Y-22925043D01*
X54172285Y-21631611D01*
X54172285Y-21631611D01*
G37*
D15*
X52865041Y-21847808D03*
D10*
G36*
X52555495Y-20961915D02*
X53710344Y-21440269D01*
X53174587Y-22733701D01*
X52019738Y-22255347D01*
X52555495Y-20961915D01*
X52555495Y-20961915D01*
G37*
D15*
X53142439Y-25751082D03*
D10*
G36*
X52832893Y-24865189D02*
X53987742Y-25343543D01*
X53451985Y-26636975D01*
X52297136Y-26158621D01*
X52832893Y-24865189D01*
X52832893Y-24865189D01*
G37*
D15*
X51525649Y-25081386D03*
D10*
G36*
X51216103Y-24195493D02*
X52370952Y-24673847D01*
X51835195Y-25967279D01*
X50680346Y-25488925D01*
X51216103Y-24195493D01*
X51216103Y-24195493D01*
G37*
D15*
X62111406Y-28026031D03*
D10*
G36*
X62164439Y-27089115D02*
X63048322Y-27972998D01*
X62058373Y-28962947D01*
X61174490Y-28079064D01*
X62164439Y-27089115D01*
X62164439Y-27089115D01*
G37*
D15*
X60873969Y-26788594D03*
D10*
G36*
X60927002Y-25851678D02*
X61810885Y-26735561D01*
X60820936Y-27725510D01*
X59937053Y-26841627D01*
X60927002Y-25851678D01*
X60927002Y-25851678D01*
G37*
D15*
X59636533Y-30500904D03*
D10*
G36*
X59689566Y-29563988D02*
X60573449Y-30447871D01*
X59583500Y-31437820D01*
X58699617Y-30553937D01*
X59689566Y-29563988D01*
X59689566Y-29563988D01*
G37*
D15*
X58399096Y-29263467D03*
D10*
G36*
X58452129Y-28326551D02*
X59336012Y-29210434D01*
X58346063Y-30200383D01*
X57462180Y-29316500D01*
X58452129Y-28326551D01*
X58452129Y-28326551D01*
G37*
D15*
X67052192Y-36034959D03*
D10*
G36*
X67459731Y-35189656D02*
X67938085Y-36344505D01*
X66644653Y-36880262D01*
X66166299Y-35725413D01*
X67459731Y-35189656D01*
X67459731Y-35189656D01*
G37*
D15*
X66382496Y-34418169D03*
D10*
G36*
X66790035Y-33572866D02*
X67268389Y-34727715D01*
X65974957Y-35263472D01*
X65496603Y-34108623D01*
X66790035Y-33572866D01*
X66790035Y-33572866D01*
G37*
D15*
X63818614Y-37374351D03*
D10*
G36*
X64226153Y-36529048D02*
X64704507Y-37683897D01*
X63411075Y-38219654D01*
X62932721Y-37064805D01*
X64226153Y-36529048D01*
X64226153Y-36529048D01*
G37*
D15*
X63148918Y-35757561D03*
D10*
G36*
X63556457Y-34912258D02*
X64034811Y-36067107D01*
X62741379Y-36602864D01*
X62263025Y-35448015D01*
X63556457Y-34912258D01*
X63556457Y-34912258D01*
G37*
D16*
X68552000Y-45325000D03*
X68552000Y-43575000D03*
X65052000Y-45325000D03*
X65052000Y-43575000D03*
D15*
X66382496Y-54481831D03*
D10*
G36*
X67268389Y-54172285D02*
X66790035Y-55327134D01*
X65496603Y-54791377D01*
X65974957Y-53636528D01*
X67268389Y-54172285D01*
X67268389Y-54172285D01*
G37*
D15*
X67052192Y-52865041D03*
D10*
G36*
X67938085Y-52555495D02*
X67459731Y-53710344D01*
X66166299Y-53174587D01*
X66644653Y-52019738D01*
X67938085Y-52555495D01*
X67938085Y-52555495D01*
G37*
D15*
X63148918Y-53142439D03*
D10*
G36*
X64034811Y-52832893D02*
X63556457Y-53987742D01*
X62263025Y-53451985D01*
X62741379Y-52297136D01*
X64034811Y-52832893D01*
X64034811Y-52832893D01*
G37*
D15*
X63818614Y-51525649D03*
D10*
G36*
X64704507Y-51216103D02*
X64226153Y-52370952D01*
X62932721Y-51835195D01*
X63411075Y-50680346D01*
X64704507Y-51216103D01*
X64704507Y-51216103D01*
G37*
D15*
X60873969Y-62111406D03*
D10*
G36*
X61810885Y-62164439D02*
X60927002Y-63048322D01*
X59937053Y-62058373D01*
X60820936Y-61174490D01*
X61810885Y-62164439D01*
X61810885Y-62164439D01*
G37*
D15*
X62111406Y-60873969D03*
D10*
G36*
X63048322Y-60927002D02*
X62164439Y-61810885D01*
X61174490Y-60820936D01*
X62058373Y-59937053D01*
X63048322Y-60927002D01*
X63048322Y-60927002D01*
G37*
D15*
X58399096Y-59636533D03*
D10*
G36*
X59336012Y-59689566D02*
X58452129Y-60573449D01*
X57462180Y-59583500D01*
X58346063Y-58699617D01*
X59336012Y-59689566D01*
X59336012Y-59689566D01*
G37*
D15*
X59636533Y-58399096D03*
D10*
G36*
X60573449Y-58452129D02*
X59689566Y-59336012D01*
X58699617Y-58346063D01*
X59583500Y-57462180D01*
X60573449Y-58452129D01*
X60573449Y-58452129D01*
G37*
D15*
X52865041Y-67052192D03*
D10*
G36*
X53710344Y-67459731D02*
X52555495Y-67938085D01*
X52019738Y-66644653D01*
X53174587Y-66166299D01*
X53710344Y-67459731D01*
X53710344Y-67459731D01*
G37*
D15*
X54481831Y-66382496D03*
D10*
G36*
X55327134Y-66790035D02*
X54172285Y-67268389D01*
X53636528Y-65974957D01*
X54791377Y-65496603D01*
X55327134Y-66790035D01*
X55327134Y-66790035D01*
G37*
D15*
X51525649Y-63818614D03*
D10*
G36*
X52370952Y-64226153D02*
X51216103Y-64704507D01*
X50680346Y-63411075D01*
X51835195Y-62932721D01*
X52370952Y-64226153D01*
X52370952Y-64226153D01*
G37*
D15*
X53142439Y-63148918D03*
D10*
G36*
X53987742Y-63556457D02*
X52832893Y-64034811D01*
X52297136Y-62741379D01*
X53451985Y-62263025D01*
X53987742Y-63556457D01*
X53987742Y-63556457D01*
G37*
D17*
X43575000Y-68552000D03*
X45325000Y-68552000D03*
X43575000Y-65052000D03*
X45325000Y-65052000D03*
D15*
X34418169Y-66382496D03*
D10*
G36*
X34727715Y-67268389D02*
X33572866Y-66790035D01*
X34108623Y-65496603D01*
X35263472Y-65974957D01*
X34727715Y-67268389D01*
X34727715Y-67268389D01*
G37*
D15*
X36034959Y-67052192D03*
D10*
G36*
X36344505Y-67938085D02*
X35189656Y-67459731D01*
X35725413Y-66166299D01*
X36880262Y-66644653D01*
X36344505Y-67938085D01*
X36344505Y-67938085D01*
G37*
D15*
X35757561Y-63148918D03*
D10*
G36*
X36067107Y-64034811D02*
X34912258Y-63556457D01*
X35448015Y-62263025D01*
X36602864Y-62741379D01*
X36067107Y-64034811D01*
X36067107Y-64034811D01*
G37*
D15*
X37374351Y-63818614D03*
D10*
G36*
X37683897Y-64704507D02*
X36529048Y-64226153D01*
X37064805Y-62932721D01*
X38219654Y-63411075D01*
X37683897Y-64704507D01*
X37683897Y-64704507D01*
G37*
D15*
X26788594Y-60873969D03*
D10*
G36*
X26735561Y-61810885D02*
X25851678Y-60927002D01*
X26841627Y-59937053D01*
X27725510Y-60820936D01*
X26735561Y-61810885D01*
X26735561Y-61810885D01*
G37*
D15*
X28026031Y-62111406D03*
D10*
G36*
X27972998Y-63048322D02*
X27089115Y-62164439D01*
X28079064Y-61174490D01*
X28962947Y-62058373D01*
X27972998Y-63048322D01*
X27972998Y-63048322D01*
G37*
D15*
X29263467Y-58399096D03*
D10*
G36*
X29210434Y-59336012D02*
X28326551Y-58452129D01*
X29316500Y-57462180D01*
X30200383Y-58346063D01*
X29210434Y-59336012D01*
X29210434Y-59336012D01*
G37*
D15*
X30500904Y-59636533D03*
D10*
G36*
X30447871Y-60573449D02*
X29563988Y-59689566D01*
X30553937Y-58699617D01*
X31437820Y-59583500D01*
X30447871Y-60573449D01*
X30447871Y-60573449D01*
G37*
D15*
X21847808Y-52865041D03*
D10*
G36*
X21440269Y-53710344D02*
X20961915Y-52555495D01*
X22255347Y-52019738D01*
X22733701Y-53174587D01*
X21440269Y-53710344D01*
X21440269Y-53710344D01*
G37*
D15*
X22517504Y-54481831D03*
D10*
G36*
X22109965Y-55327134D02*
X21631611Y-54172285D01*
X22925043Y-53636528D01*
X23403397Y-54791377D01*
X22109965Y-55327134D01*
X22109965Y-55327134D01*
G37*
D15*
X25081386Y-51525649D03*
D10*
G36*
X24673847Y-52370952D02*
X24195493Y-51216103D01*
X25488925Y-50680346D01*
X25967279Y-51835195D01*
X24673847Y-52370952D01*
X24673847Y-52370952D01*
G37*
D15*
X25751082Y-53142439D03*
D10*
G36*
X25343543Y-53987742D02*
X24865189Y-52832893D01*
X26158621Y-52297136D01*
X26636975Y-53451985D01*
X25343543Y-53987742D01*
X25343543Y-53987742D01*
G37*
D16*
X20348000Y-43575000D03*
X20348000Y-45325000D03*
X23848000Y-43575000D03*
X23848000Y-45325000D03*
D15*
X22547422Y-34418169D03*
D10*
G36*
X21661529Y-34727715D02*
X22139883Y-33572866D01*
X23433315Y-34108623D01*
X22954961Y-35263472D01*
X21661529Y-34727715D01*
X21661529Y-34727715D01*
G37*
D15*
X21877726Y-36034959D03*
D10*
G36*
X20991833Y-36344505D02*
X21470187Y-35189656D01*
X22763619Y-35725413D01*
X22285265Y-36880262D01*
X20991833Y-36344505D01*
X20991833Y-36344505D01*
G37*
D15*
X25781000Y-35757561D03*
D10*
G36*
X24895107Y-36067107D02*
X25373461Y-34912258D01*
X26666893Y-35448015D01*
X26188539Y-36602864D01*
X24895107Y-36067107D01*
X24895107Y-36067107D01*
G37*
D15*
X25111304Y-37374351D03*
D10*
G36*
X24225411Y-37683897D02*
X24703765Y-36529048D01*
X25997197Y-37064805D01*
X25518843Y-38219654D01*
X24225411Y-37683897D01*
X24225411Y-37683897D01*
G37*
D15*
X28026031Y-26788594D03*
D10*
G36*
X27089115Y-26735561D02*
X27972998Y-25851678D01*
X28962947Y-26841627D01*
X28079064Y-27725510D01*
X27089115Y-26735561D01*
X27089115Y-26735561D01*
G37*
D15*
X26788594Y-28026031D03*
D10*
G36*
X25851678Y-27972998D02*
X26735561Y-27089115D01*
X27725510Y-28079064D01*
X26841627Y-28962947D01*
X25851678Y-27972998D01*
X25851678Y-27972998D01*
G37*
D15*
X30500904Y-29263467D03*
D10*
G36*
X29563988Y-29210434D02*
X30447871Y-28326551D01*
X31437820Y-29316500D01*
X30553937Y-30200383D01*
X29563988Y-29210434D01*
X29563988Y-29210434D01*
G37*
D15*
X29263467Y-30500904D03*
D10*
G36*
X28326551Y-30447871D02*
X29210434Y-29563988D01*
X30200383Y-30553937D01*
X29316500Y-31437820D01*
X28326551Y-30447871D01*
X28326551Y-30447871D01*
G37*
D15*
X36034959Y-21847808D03*
D10*
G36*
X35189656Y-21440269D02*
X36344505Y-20961915D01*
X36880262Y-22255347D01*
X35725413Y-22733701D01*
X35189656Y-21440269D01*
X35189656Y-21440269D01*
G37*
D15*
X34418169Y-22517504D03*
D10*
G36*
X33572866Y-22109965D02*
X34727715Y-21631611D01*
X35263472Y-22925043D01*
X34108623Y-23403397D01*
X33572866Y-22109965D01*
X33572866Y-22109965D01*
G37*
D15*
X37374351Y-25081386D03*
D10*
G36*
X36529048Y-24673847D02*
X37683897Y-24195493D01*
X38219654Y-25488925D01*
X37064805Y-25967279D01*
X36529048Y-24673847D01*
X36529048Y-24673847D01*
G37*
D15*
X35757561Y-25751082D03*
D10*
G36*
X34912258Y-25343543D02*
X36067107Y-24865189D01*
X36602864Y-26158621D01*
X35448015Y-26636975D01*
X34912258Y-25343543D01*
X34912258Y-25343543D01*
G37*
D18*
X28067000Y-41529000D03*
X60452000Y-49784000D03*
D19*
X31356300Y-36576000D03*
X29857700Y-36576000D03*
D20*
X47226000Y-35014000D03*
X51326000Y-35014000D03*
X51326000Y-36614000D03*
X47226000Y-36614000D03*
D21*
X57122000Y-42050000D03*
X56622000Y-42050000D03*
X56122000Y-42050000D03*
X55622000Y-42050000D03*
X55122000Y-42050000D03*
X54622000Y-42050000D03*
X54122000Y-42050000D03*
X53622000Y-42050000D03*
D22*
X52972000Y-42700000D03*
X52972000Y-43200000D03*
X52972000Y-43700000D03*
X52972000Y-44200000D03*
X52972000Y-44700000D03*
X52972000Y-45200000D03*
X52972000Y-45700000D03*
X52972000Y-46200000D03*
D21*
X53622000Y-46850000D03*
X54122000Y-46850000D03*
X54622000Y-46850000D03*
X55122000Y-46850000D03*
X55622000Y-46850000D03*
X56122000Y-46850000D03*
X56622000Y-46850000D03*
X57122000Y-46850000D03*
D22*
X57772000Y-46200000D03*
X57772000Y-45700000D03*
X57772000Y-45200000D03*
X57772000Y-44700000D03*
X57772000Y-44200000D03*
X57772000Y-43700000D03*
X57772000Y-43200000D03*
X57772000Y-42700000D03*
D23*
X54509500Y-45312500D03*
X56234500Y-45312500D03*
X54509500Y-43587500D03*
X56234500Y-43587500D03*
D24*
X30226000Y-49709000D03*
X30226000Y-54939000D03*
D17*
X43575000Y-23848000D03*
X45325000Y-23848000D03*
X43575000Y-20348000D03*
X45325000Y-20348000D03*
D25*
X41402000Y-21844000D03*
X41402000Y-20744000D03*
X51562000Y-42968000D03*
X51562000Y-41868000D03*
D14*
X58208000Y-35687000D03*
X57108000Y-35687000D03*
D25*
X54864000Y-34587000D03*
X54864000Y-35687000D03*
X39370000Y-44365000D03*
X39370000Y-43265000D03*
D14*
X40852000Y-40640000D03*
X41952000Y-40640000D03*
D25*
X44450000Y-33740000D03*
X44450000Y-34840000D03*
X42418000Y-33740000D03*
X42418000Y-34840000D03*
X43700000Y-47456000D03*
X43700000Y-48556000D03*
D14*
X56092000Y-56896000D03*
X57192000Y-56896000D03*
D19*
X49136300Y-48514000D03*
X47637700Y-48514000D03*
X41148000Y-55130700D03*
X41148000Y-56629300D03*
D26*
X42200000Y-42887500D03*
X42700000Y-42887500D03*
D27*
X42200000Y-45200000D03*
D26*
X42200000Y-46012500D03*
X42700000Y-46012500D03*
X43200000Y-46012500D03*
X43700000Y-46012500D03*
X44200000Y-46012500D03*
X44700000Y-46012500D03*
X45200000Y-46012500D03*
X45700000Y-46012500D03*
X46200000Y-46012500D03*
X46700000Y-46012500D03*
D27*
X46700000Y-45200000D03*
X46700000Y-44700000D03*
X46700000Y-44200000D03*
X46700000Y-43700000D03*
D26*
X46700000Y-42887500D03*
X46200000Y-42887500D03*
X45700000Y-42887500D03*
X45200000Y-42887500D03*
X44700000Y-42887500D03*
X44200000Y-42887500D03*
X43700000Y-42887500D03*
X43200000Y-42887500D03*
D27*
X42200000Y-44700000D03*
X42200000Y-44200000D03*
X42200000Y-43700000D03*
D28*
X45720000Y-62980000D03*
X45720000Y-61480000D03*
X48387000Y-44426000D03*
X48387000Y-42926000D03*
X50038000Y-46978000D03*
X50038000Y-45478000D03*
D29*
X50685000Y-48514000D03*
X52185000Y-48514000D03*
X29857000Y-38608000D03*
X31357000Y-38608000D03*
D28*
X42164000Y-50558000D03*
X42164000Y-52058000D03*
D30*
X57257000Y-37846000D03*
X54757000Y-37846000D03*
X44684000Y-37338000D03*
X42184000Y-37338000D03*
D31*
X60452000Y-44716000D03*
X60452000Y-46216000D03*
D25*
X60452000Y-43222000D03*
X60452000Y-42122000D03*
D14*
X50250000Y-38354000D03*
X51350000Y-38354000D03*
D29*
X45478000Y-39878000D03*
X46978000Y-39878000D03*
X51042000Y-39878000D03*
X49542000Y-39878000D03*
D32*
X30607000Y-33655000D03*
X60452000Y-33655000D03*
X32004000Y-64389000D03*
D33*
X46950000Y-65747460D03*
X41950000Y-65747460D03*
D34*
X47950000Y-68447460D03*
X40950000Y-68447460D03*
D19*
X50292000Y-66306700D03*
X50292000Y-67805300D03*
D28*
X53848000Y-30250000D03*
X53848000Y-31750000D03*
D35*
X36544000Y-43688000D03*
X32544000Y-43688000D03*
D36*
X49374000Y-27210000D03*
X42574000Y-27210000D03*
X42574000Y-31210000D03*
X49374000Y-31210000D03*
D12*
X38068000Y-58772000D03*
X38068000Y-51972000D03*
X34068000Y-51972000D03*
X34068000Y-58772000D03*
X50514000Y-51464000D03*
X50514000Y-58264000D03*
X46514000Y-58264000D03*
X46514000Y-51464000D03*
M02*
