G04 #@! TF.GenerationSoftware,KiCad,Pcbnew,no-vcs-found-7448~57~ubuntu16.10.1*
G04 #@! TF.CreationDate,2017-01-11T20:57:49-05:00*
G04 #@! TF.ProjectId,featherlight,666561746865726C696768742E6B6963,rev?*
G04 #@! TF.FileFunction,Legend,Top*
G04 #@! TF.FilePolarity,Positive*
%FSLAX46Y46*%
G04 Gerber Fmt 4.6, Leading zero omitted, Abs format (unit mm)*
G04 Created by KiCad (PCBNEW no-vcs-found-7448~57~ubuntu16.10.1) date Wed Jan 11 20:57:49 2017*
%MOMM*%
%LPD*%
G01*
G04 APERTURE LIST*
%ADD10C,0.100000*%
%ADD11C,0.150000*%
G04 APERTURE END LIST*
D10*
D11*
X30764000Y-46879000D02*
X30764000Y-52129000D01*
X28164000Y-52129000D02*
X28164000Y-46879000D01*
X40382000Y-45561000D02*
X39882000Y-45561000D01*
X40382000Y-47911000D02*
X39882000Y-47911000D01*
X50014000Y-54864000D02*
G75*
G03X50014000Y-54864000I-1500000J0D01*
G01*
X50414000Y-54864000D02*
G75*
G03X50414000Y-54864000I-1900000J0D01*
G01*
X51514000Y-58114000D02*
X51514000Y-51614000D01*
X45514000Y-51614000D02*
X45514000Y-58114000D01*
X47314000Y-51614000D02*
X49714000Y-51614000D01*
X47314000Y-58114000D02*
X49714000Y-58114000D01*
X45514000Y-58114000D02*
X45714000Y-58114000D01*
X51514000Y-58114000D02*
X51314000Y-58114000D01*
X51514000Y-51614000D02*
X51314000Y-51614000D01*
X45514000Y-51614000D02*
X45714000Y-51614000D01*
X41550000Y-45950000D02*
X41550000Y-46650000D01*
X41550000Y-46650000D02*
X42250000Y-46650000D01*
X41550000Y-43000000D02*
X41550000Y-42250000D01*
X41550000Y-42250000D02*
X42250000Y-42250000D01*
X47350000Y-42250000D02*
X46650000Y-42250000D01*
X47350000Y-42250000D02*
X47350000Y-42950000D01*
X47350000Y-45950000D02*
X47350000Y-46650000D01*
X47350000Y-46650000D02*
X46650000Y-46650000D01*
X42250000Y-42250000D02*
X42250000Y-41550000D01*
X41444000Y-57107000D02*
X41444000Y-55207000D01*
X40344000Y-57107000D02*
X40344000Y-55207000D01*
X40894000Y-56207000D02*
X40894000Y-55757000D01*
X40644000Y-56257000D02*
X41144000Y-56257000D01*
X40894000Y-56257000D02*
X40644000Y-56007000D01*
X40644000Y-56007000D02*
X41144000Y-56007000D01*
X41144000Y-56007000D02*
X40894000Y-56257000D01*
X25450232Y-38515952D02*
X25832915Y-37592072D01*
X20830834Y-36602535D02*
X25450232Y-38515952D01*
X22208494Y-33276568D02*
X26827892Y-35189985D01*
X24173870Y-56661916D02*
X24635810Y-56470574D01*
X24272260Y-55592888D02*
X23810320Y-55784230D01*
X26797974Y-53710015D02*
X26415291Y-52786135D01*
X22178576Y-55623432D02*
X26797974Y-53710015D01*
X20800916Y-52297465D02*
X25420314Y-50384048D01*
X50384048Y-25420314D02*
X51307928Y-25802997D01*
X52297465Y-20800916D02*
X50384048Y-25420314D01*
X55623432Y-22178576D02*
X53710015Y-26797974D01*
X57214692Y-29139724D02*
X57921799Y-29846831D01*
X60750226Y-25604190D02*
X57214692Y-29139724D01*
X63295810Y-28149774D02*
X59760276Y-31685308D01*
X29139724Y-31685308D02*
X29846831Y-30978201D01*
X25604190Y-28149774D02*
X29139724Y-31685308D01*
X28149774Y-25604190D02*
X31685308Y-29139724D01*
X54823000Y-36546000D02*
X59223000Y-36546000D01*
X59223000Y-39146000D02*
X54823000Y-39146000D01*
X57997000Y-47075000D02*
X57472000Y-47075000D01*
X52747000Y-41825000D02*
X53272000Y-41825000D01*
X52747000Y-47075000D02*
X53272000Y-47075000D01*
X57997000Y-41825000D02*
X57997000Y-42350000D01*
X52747000Y-41825000D02*
X52747000Y-42350000D01*
X52747000Y-47075000D02*
X52747000Y-46550000D01*
X57997000Y-47075000D02*
X57997000Y-46550000D01*
X49792000Y-39203000D02*
X50792000Y-39203000D01*
X50792000Y-40553000D02*
X49792000Y-40553000D01*
X24598000Y-46250000D02*
X24598000Y-45250000D01*
X19598000Y-46250000D02*
X24598000Y-46250000D01*
X19598000Y-42650000D02*
X24598000Y-42650000D01*
X49976000Y-35814000D02*
G75*
G03X49976000Y-35814000I-700000J0D01*
G01*
X52076000Y-37414000D02*
X46476000Y-37414000D01*
X52076000Y-34214000D02*
X46476000Y-34214000D01*
X56788000Y-55802000D02*
G75*
G03X56788000Y-55802000I-100000J0D01*
G01*
X56138000Y-55552000D02*
X56638000Y-55552000D01*
X56138000Y-52652000D02*
X56138000Y-55552000D01*
X56638000Y-52652000D02*
X56138000Y-52652000D01*
X56638000Y-55552000D02*
X56638000Y-52652000D01*
X38076000Y-33782000D02*
G75*
G03X38076000Y-33782000I-1500000J0D01*
G01*
X38476000Y-33782000D02*
G75*
G03X38476000Y-33782000I-1900000J0D01*
G01*
X39576000Y-37032000D02*
X39576000Y-30532000D01*
X33576000Y-30532000D02*
X33576000Y-37032000D01*
X35376000Y-30532000D02*
X37776000Y-30532000D01*
X35376000Y-37032000D02*
X37776000Y-37032000D01*
X33576000Y-37032000D02*
X33776000Y-37032000D01*
X39576000Y-37032000D02*
X39376000Y-37032000D01*
X39576000Y-30532000D02*
X39376000Y-30532000D01*
X33576000Y-30532000D02*
X33776000Y-30532000D01*
X50838605Y-22302971D02*
X51029947Y-21841031D01*
X50152261Y-21477481D02*
X49960919Y-21939421D01*
X58827602Y-26433626D02*
X59181155Y-26080073D01*
X58509404Y-25408322D02*
X58155851Y-25761875D01*
X64627740Y-33307112D02*
X65089680Y-33115770D01*
X64726130Y-32238084D02*
X64264190Y-32429426D01*
X67356000Y-41877000D02*
X67856000Y-41877000D01*
X67856000Y-40927000D02*
X67356000Y-40927000D01*
X66597029Y-50838605D02*
X67058969Y-51029947D01*
X67422519Y-50152261D02*
X66960579Y-49960919D01*
X62466374Y-58827602D02*
X62819927Y-59181155D01*
X63491678Y-58509404D02*
X63138125Y-58155851D01*
X55592888Y-64627740D02*
X55784230Y-65089680D01*
X56661916Y-64726130D02*
X56470574Y-64264190D01*
X42888000Y-63213000D02*
X43388000Y-63213000D01*
X43388000Y-62263000D02*
X42888000Y-62263000D01*
X38061395Y-66597029D02*
X37870053Y-67058969D01*
X38747739Y-67422519D02*
X38939081Y-66960579D01*
X30072398Y-62466374D02*
X29718845Y-62819927D01*
X30390596Y-63491678D02*
X30744149Y-63138125D01*
X24272260Y-55592888D02*
X23810320Y-55784230D01*
X24173870Y-56661916D02*
X24635810Y-56470574D01*
X21544000Y-47023000D02*
X21044000Y-47023000D01*
X21044000Y-47973000D02*
X21544000Y-47973000D01*
X22302971Y-38061395D02*
X21841031Y-37870053D01*
X21477481Y-38747739D02*
X21939421Y-38939081D01*
X26433626Y-30072398D02*
X26080073Y-29718845D01*
X25408322Y-30390596D02*
X25761875Y-30744149D01*
X33307112Y-24272260D02*
X33115770Y-23810320D01*
X32238084Y-24173870D02*
X32429426Y-24635810D01*
X62102026Y-35189985D02*
X62484709Y-36113865D01*
X66721424Y-33276568D02*
X62102026Y-35189985D01*
X68099084Y-36602535D02*
X63479686Y-38515952D01*
X64302000Y-42650000D02*
X64302000Y-43650000D01*
X69302000Y-42650000D02*
X64302000Y-42650000D01*
X69302000Y-46250000D02*
X64302000Y-46250000D01*
X63479686Y-50384048D02*
X63097003Y-51307928D01*
X68099084Y-52297465D02*
X63479686Y-50384048D01*
X66721424Y-55623432D02*
X62102026Y-53710015D01*
X59760276Y-57214692D02*
X59053169Y-57921799D01*
X63295810Y-60750226D02*
X59760276Y-57214692D01*
X60750226Y-63295810D02*
X57214692Y-59760276D01*
X53710015Y-62102026D02*
X52786135Y-62484709D01*
X55623432Y-66721424D02*
X53710015Y-62102026D01*
X52297465Y-68099084D02*
X50384048Y-63479686D01*
X46250000Y-64302000D02*
X45250000Y-64302000D01*
X46250000Y-69302000D02*
X46250000Y-64302000D01*
X42650000Y-69302000D02*
X42650000Y-64302000D01*
X38515952Y-63479686D02*
X37592072Y-63097003D01*
X36602535Y-68099084D02*
X38515952Y-63479686D01*
X33276568Y-66721424D02*
X35189985Y-62102026D01*
X31685308Y-59760276D02*
X30978201Y-59053169D01*
X28149774Y-63295810D02*
X31685308Y-59760276D01*
X25604190Y-60750226D02*
X29139724Y-57214692D01*
X35189985Y-26797974D02*
X36113865Y-26415291D01*
X33276568Y-22178576D02*
X35189985Y-26797974D01*
X36602535Y-20800916D02*
X38515952Y-25420314D01*
X30279000Y-40572000D02*
X33879000Y-40572000D01*
X30279000Y-44772000D02*
X33879000Y-44772000D01*
X46250000Y-19598000D02*
X46250000Y-24598000D01*
X42650000Y-19598000D02*
X42650000Y-24598000D01*
X42650000Y-24598000D02*
X43650000Y-24598000D01*
X40927000Y-21044000D02*
X40927000Y-21544000D01*
X41877000Y-21544000D02*
X41877000Y-21044000D01*
X58748000Y-35367000D02*
X58748000Y-34867000D01*
X57798000Y-34867000D02*
X57798000Y-35367000D01*
X56248000Y-35367000D02*
X56248000Y-34867000D01*
X55298000Y-34867000D02*
X55298000Y-35367000D01*
X39657000Y-43565000D02*
X39657000Y-44065000D01*
X40607000Y-44065000D02*
X40607000Y-43565000D01*
X41652000Y-40165000D02*
X41152000Y-40165000D01*
X41152000Y-41115000D02*
X41652000Y-41115000D01*
X44925000Y-34540000D02*
X44925000Y-34040000D01*
X43975000Y-34040000D02*
X43975000Y-34540000D01*
X42893000Y-34540000D02*
X42893000Y-34040000D01*
X41943000Y-34040000D02*
X41943000Y-34540000D01*
X44175000Y-48256000D02*
X44175000Y-47756000D01*
X43225000Y-47756000D02*
X43225000Y-48256000D01*
X56892000Y-56421000D02*
X56392000Y-56421000D01*
X56392000Y-57371000D02*
X56892000Y-57371000D01*
X46395000Y-61730000D02*
X46395000Y-62730000D01*
X45045000Y-62730000D02*
X45045000Y-61730000D01*
X41569000Y-52459000D02*
X41569000Y-53459000D01*
X40219000Y-53459000D02*
X40219000Y-52459000D01*
X41234000Y-36038000D02*
X45634000Y-36038000D01*
X45634000Y-38638000D02*
X41234000Y-38638000D01*
X50254000Y-38575000D02*
X50754000Y-38575000D01*
X50754000Y-37625000D02*
X50254000Y-37625000D01*
X50842000Y-68156000D02*
X50842000Y-66256000D01*
X49742000Y-68156000D02*
X49742000Y-66256000D01*
X50292000Y-67256000D02*
X50292000Y-66806000D01*
X50042000Y-67306000D02*
X50542000Y-67306000D01*
X50292000Y-67306000D02*
X50042000Y-67056000D01*
X50042000Y-67056000D02*
X50542000Y-67056000D01*
X50542000Y-67056000D02*
X50292000Y-67306000D01*
X32433000Y-46579000D02*
X37683000Y-46579000D01*
X37683000Y-49179000D02*
X32433000Y-49179000D01*
X49224000Y-26210000D02*
X49224000Y-26410000D01*
X49224000Y-32210000D02*
X49224000Y-32010000D01*
X42724000Y-32210000D02*
X42724000Y-32010000D01*
X42724000Y-26210000D02*
X42724000Y-26410000D01*
X42724000Y-28010000D02*
X42724000Y-30410000D01*
X49224000Y-28010000D02*
X49224000Y-30410000D01*
X49224000Y-26210000D02*
X42724000Y-26210000D01*
X42724000Y-32210000D02*
X49224000Y-32210000D01*
X47874000Y-29210000D02*
G75*
G03X47874000Y-29210000I-1900000J0D01*
G01*
X47474000Y-29210000D02*
G75*
G03X47474000Y-29210000I-1500000J0D01*
G01*
X39576000Y-58622000D02*
X39376000Y-58622000D01*
X33576000Y-58622000D02*
X33776000Y-58622000D01*
X33576000Y-52122000D02*
X33776000Y-52122000D01*
X39576000Y-52122000D02*
X39376000Y-52122000D01*
X37776000Y-52122000D02*
X35376000Y-52122000D01*
X37776000Y-58622000D02*
X35376000Y-58622000D01*
X39576000Y-58622000D02*
X39576000Y-52122000D01*
X33576000Y-52122000D02*
X33576000Y-58622000D01*
X38476000Y-55372000D02*
G75*
G03X38476000Y-55372000I-1900000J0D01*
G01*
X38076000Y-55372000D02*
G75*
G03X38076000Y-55372000I-1500000J0D01*
G01*
M02*
