G04 #@! TF.GenerationSoftware,KiCad,Pcbnew,no-vcs-found-7423~56~ubuntu16.10.1*
G04 #@! TF.CreationDate,2017-01-04T02:03:21-05:00*
G04 #@! TF.ProjectId,featherlight,666561746865726C696768742E6B6963,rev?*
G04 #@! TF.FileFunction,Legend,Bot*
G04 #@! TF.FilePolarity,Positive*
%FSLAX46Y46*%
G04 Gerber Fmt 4.6, Leading zero omitted, Abs format (unit mm)*
G04 Created by KiCad (PCBNEW no-vcs-found-7423~56~ubuntu16.10.1) date Wed Jan  4 02:03:21 2017*
%MOMM*%
%LPD*%
G01*
G04 APERTURE LIST*
%ADD10C,0.100000*%
%ADD11C,0.150000*%
G04 APERTURE END LIST*
D10*
D11*
X52514285Y-32218380D02*
X52180952Y-33218380D01*
X51847619Y-32218380D01*
X50942857Y-33218380D02*
X51276190Y-32742190D01*
X51514285Y-33218380D02*
X51514285Y-32218380D01*
X51133333Y-32218380D01*
X51038095Y-32266000D01*
X50990476Y-32313619D01*
X50942857Y-32408857D01*
X50942857Y-32551714D01*
X50990476Y-32646952D01*
X51038095Y-32694571D01*
X51133333Y-32742190D01*
X51514285Y-32742190D01*
X50514285Y-32694571D02*
X50180952Y-32694571D01*
X50038095Y-33218380D02*
X50514285Y-33218380D01*
X50514285Y-32218380D01*
X50038095Y-32218380D01*
X49276190Y-32694571D02*
X49609523Y-32694571D01*
X49609523Y-33218380D02*
X49609523Y-32218380D01*
X49133333Y-32218380D01*
X38829761Y-56888571D02*
X39163095Y-56888571D01*
X39163095Y-57412380D02*
X39163095Y-56412380D01*
X38686904Y-56412380D01*
X37925000Y-57364761D02*
X38020238Y-57412380D01*
X38210714Y-57412380D01*
X38305952Y-57364761D01*
X38353571Y-57269523D01*
X38353571Y-56888571D01*
X38305952Y-56793333D01*
X38210714Y-56745714D01*
X38020238Y-56745714D01*
X37925000Y-56793333D01*
X37877380Y-56888571D01*
X37877380Y-56983809D01*
X38353571Y-57079047D01*
X37020238Y-57412380D02*
X37020238Y-56888571D01*
X37067857Y-56793333D01*
X37163095Y-56745714D01*
X37353571Y-56745714D01*
X37448809Y-56793333D01*
X37020238Y-57364761D02*
X37115476Y-57412380D01*
X37353571Y-57412380D01*
X37448809Y-57364761D01*
X37496428Y-57269523D01*
X37496428Y-57174285D01*
X37448809Y-57079047D01*
X37353571Y-57031428D01*
X37115476Y-57031428D01*
X37020238Y-56983809D01*
X36686904Y-56745714D02*
X36305952Y-56745714D01*
X36544047Y-56412380D02*
X36544047Y-57269523D01*
X36496428Y-57364761D01*
X36401190Y-57412380D01*
X36305952Y-57412380D01*
X35972619Y-57412380D02*
X35972619Y-56412380D01*
X35544047Y-57412380D02*
X35544047Y-56888571D01*
X35591666Y-56793333D01*
X35686904Y-56745714D01*
X35829761Y-56745714D01*
X35925000Y-56793333D01*
X35972619Y-56840952D01*
X34686904Y-57364761D02*
X34782142Y-57412380D01*
X34972619Y-57412380D01*
X35067857Y-57364761D01*
X35115476Y-57269523D01*
X35115476Y-56888571D01*
X35067857Y-56793333D01*
X34972619Y-56745714D01*
X34782142Y-56745714D01*
X34686904Y-56793333D01*
X34639285Y-56888571D01*
X34639285Y-56983809D01*
X35115476Y-57079047D01*
X34210714Y-57412380D02*
X34210714Y-56745714D01*
X34210714Y-56936190D02*
X34163095Y-56840952D01*
X34115476Y-56793333D01*
X34020238Y-56745714D01*
X33925000Y-56745714D01*
X33448809Y-57412380D02*
X33544047Y-57364761D01*
X33591666Y-57269523D01*
X33591666Y-56412380D01*
X33067857Y-57412380D02*
X33067857Y-56745714D01*
X33067857Y-56412380D02*
X33115476Y-56460000D01*
X33067857Y-56507619D01*
X33020238Y-56460000D01*
X33067857Y-56412380D01*
X33067857Y-56507619D01*
X32163095Y-56745714D02*
X32163095Y-57555238D01*
X32210714Y-57650476D01*
X32258333Y-57698095D01*
X32353571Y-57745714D01*
X32496428Y-57745714D01*
X32591666Y-57698095D01*
X32163095Y-57364761D02*
X32258333Y-57412380D01*
X32448809Y-57412380D01*
X32544047Y-57364761D01*
X32591666Y-57317142D01*
X32639285Y-57221904D01*
X32639285Y-56936190D01*
X32591666Y-56840952D01*
X32544047Y-56793333D01*
X32448809Y-56745714D01*
X32258333Y-56745714D01*
X32163095Y-56793333D01*
X31686904Y-57412380D02*
X31686904Y-56412380D01*
X31258333Y-57412380D02*
X31258333Y-56888571D01*
X31305952Y-56793333D01*
X31401190Y-56745714D01*
X31544047Y-56745714D01*
X31639285Y-56793333D01*
X31686904Y-56840952D01*
X30925000Y-56745714D02*
X30544047Y-56745714D01*
X30782142Y-56412380D02*
X30782142Y-57269523D01*
X30734523Y-57364761D01*
X30639285Y-57412380D01*
X30544047Y-57412380D01*
X36305952Y-59062380D02*
X36639285Y-58586190D01*
X36877380Y-59062380D02*
X36877380Y-58062380D01*
X36496428Y-58062380D01*
X36401190Y-58110000D01*
X36353571Y-58157619D01*
X36305952Y-58252857D01*
X36305952Y-58395714D01*
X36353571Y-58490952D01*
X36401190Y-58538571D01*
X36496428Y-58586190D01*
X36877380Y-58586190D01*
X35496428Y-59014761D02*
X35591666Y-59062380D01*
X35782142Y-59062380D01*
X35877380Y-59014761D01*
X35925000Y-58919523D01*
X35925000Y-58538571D01*
X35877380Y-58443333D01*
X35782142Y-58395714D01*
X35591666Y-58395714D01*
X35496428Y-58443333D01*
X35448809Y-58538571D01*
X35448809Y-58633809D01*
X35925000Y-58729047D01*
X35115476Y-58395714D02*
X34877380Y-59062380D01*
X34639285Y-58395714D01*
X33496428Y-59062380D02*
X33496428Y-58062380D01*
X33258333Y-58062380D01*
X33115476Y-58110000D01*
X33020238Y-58205238D01*
X32972619Y-58300476D01*
X32925000Y-58490952D01*
X32925000Y-58633809D01*
X32972619Y-58824285D01*
X33020238Y-58919523D01*
X33115476Y-59014761D01*
X33258333Y-59062380D01*
X33496428Y-59062380D01*
X59854267Y-31851000D02*
X59031142Y-31851000D01*
X59221619Y-33218380D02*
X59554952Y-32742190D01*
X59793047Y-33218380D02*
X59793047Y-32218380D01*
X59412095Y-32218380D01*
X59316857Y-32266000D01*
X59269238Y-32313619D01*
X59221619Y-32408857D01*
X59221619Y-32551714D01*
X59269238Y-32646952D01*
X59316857Y-32694571D01*
X59412095Y-32742190D01*
X59793047Y-32742190D01*
X59031142Y-31851000D02*
X58078761Y-31851000D01*
X58840666Y-33170761D02*
X58697809Y-33218380D01*
X58459714Y-33218380D01*
X58364476Y-33170761D01*
X58316857Y-33123142D01*
X58269238Y-33027904D01*
X58269238Y-32932666D01*
X58316857Y-32837428D01*
X58364476Y-32789809D01*
X58459714Y-32742190D01*
X58650190Y-32694571D01*
X58745428Y-32646952D01*
X58793047Y-32599333D01*
X58840666Y-32504095D01*
X58840666Y-32408857D01*
X58793047Y-32313619D01*
X58745428Y-32266000D01*
X58650190Y-32218380D01*
X58412095Y-32218380D01*
X58269238Y-32266000D01*
X58078761Y-31851000D02*
X57316857Y-31851000D01*
X57983523Y-32218380D02*
X57412095Y-32218380D01*
X57697809Y-33218380D02*
X57697809Y-32218380D01*
X59150142Y-30170428D02*
X58388238Y-30170428D01*
X58769190Y-30551380D02*
X58769190Y-29789476D01*
X57435857Y-29551380D02*
X57912047Y-29551380D01*
X57959666Y-30027571D01*
X57912047Y-29979952D01*
X57816809Y-29932333D01*
X57578714Y-29932333D01*
X57483476Y-29979952D01*
X57435857Y-30027571D01*
X57388238Y-30122809D01*
X57388238Y-30360904D01*
X57435857Y-30456142D01*
X57483476Y-30503761D01*
X57578714Y-30551380D01*
X57816809Y-30551380D01*
X57912047Y-30503761D01*
X57959666Y-30456142D01*
X51316000Y-28956095D02*
X51268380Y-28860857D01*
X51268380Y-28718000D01*
X51316000Y-28575142D01*
X51411238Y-28479904D01*
X51506476Y-28432285D01*
X51696952Y-28384666D01*
X51839809Y-28384666D01*
X52030285Y-28432285D01*
X52125523Y-28479904D01*
X52220761Y-28575142D01*
X52268380Y-28718000D01*
X52268380Y-28813238D01*
X52220761Y-28956095D01*
X52173142Y-29003714D01*
X51839809Y-29003714D01*
X51839809Y-28813238D01*
X52268380Y-29432285D02*
X51268380Y-29432285D01*
X52268380Y-30003714D01*
X51268380Y-30003714D01*
X52268380Y-30479904D02*
X51268380Y-30479904D01*
X51268380Y-30718000D01*
X51316000Y-30860857D01*
X51411238Y-30956095D01*
X51506476Y-31003714D01*
X51696952Y-31051333D01*
X51839809Y-31051333D01*
X52030285Y-31003714D01*
X52125523Y-30956095D01*
X52220761Y-30860857D01*
X52268380Y-30718000D01*
X52268380Y-30479904D01*
X54951047Y-35710761D02*
X54808190Y-35758380D01*
X54570095Y-35758380D01*
X54474857Y-35710761D01*
X54427238Y-35663142D01*
X54379619Y-35567904D01*
X54379619Y-35472666D01*
X54427238Y-35377428D01*
X54474857Y-35329809D01*
X54570095Y-35282190D01*
X54760571Y-35234571D01*
X54855809Y-35186952D01*
X54903428Y-35139333D01*
X54951047Y-35044095D01*
X54951047Y-34948857D01*
X54903428Y-34853619D01*
X54855809Y-34806000D01*
X54760571Y-34758380D01*
X54522476Y-34758380D01*
X54379619Y-34806000D01*
X54046285Y-34758380D02*
X53808190Y-35758380D01*
X53617714Y-35044095D01*
X53427238Y-35758380D01*
X53189142Y-34758380D01*
X52808190Y-35758380D02*
X52808190Y-34758380D01*
X52570095Y-34758380D01*
X52427238Y-34806000D01*
X52332000Y-34901238D01*
X52284380Y-34996476D01*
X52236761Y-35186952D01*
X52236761Y-35329809D01*
X52284380Y-35520285D01*
X52332000Y-35615523D01*
X52427238Y-35710761D01*
X52570095Y-35758380D01*
X52808190Y-35758380D01*
X51808190Y-35758380D02*
X51808190Y-34758380D01*
X51141523Y-34758380D02*
X50951047Y-34758380D01*
X50855809Y-34806000D01*
X50760571Y-34901238D01*
X50712952Y-35091714D01*
X50712952Y-35425047D01*
X50760571Y-35615523D01*
X50855809Y-35710761D01*
X50951047Y-35758380D01*
X51141523Y-35758380D01*
X51236761Y-35710761D01*
X51332000Y-35615523D01*
X51379619Y-35425047D01*
X51379619Y-35091714D01*
X51332000Y-34901238D01*
X51236761Y-34806000D01*
X51141523Y-34758380D01*
X54966904Y-38250761D02*
X54824047Y-38298380D01*
X54585952Y-38298380D01*
X54490714Y-38250761D01*
X54443095Y-38203142D01*
X54395476Y-38107904D01*
X54395476Y-38012666D01*
X54443095Y-37917428D01*
X54490714Y-37869809D01*
X54585952Y-37822190D01*
X54776428Y-37774571D01*
X54871666Y-37726952D01*
X54919285Y-37679333D01*
X54966904Y-37584095D01*
X54966904Y-37488857D01*
X54919285Y-37393619D01*
X54871666Y-37346000D01*
X54776428Y-37298380D01*
X54538333Y-37298380D01*
X54395476Y-37346000D01*
X54062142Y-37298380D02*
X53824047Y-38298380D01*
X53633571Y-37584095D01*
X53443095Y-38298380D01*
X53205000Y-37298380D01*
X52252619Y-38203142D02*
X52300238Y-38250761D01*
X52443095Y-38298380D01*
X52538333Y-38298380D01*
X52681190Y-38250761D01*
X52776428Y-38155523D01*
X52824047Y-38060285D01*
X52871666Y-37869809D01*
X52871666Y-37726952D01*
X52824047Y-37536476D01*
X52776428Y-37441238D01*
X52681190Y-37346000D01*
X52538333Y-37298380D01*
X52443095Y-37298380D01*
X52300238Y-37346000D01*
X52252619Y-37393619D01*
X51347857Y-38298380D02*
X51824047Y-38298380D01*
X51824047Y-37298380D01*
X51014523Y-38298380D02*
X51014523Y-37298380D01*
X50443095Y-38298380D02*
X50871666Y-37726952D01*
X50443095Y-37298380D02*
X51014523Y-37869809D01*
X30393000Y-47490000D02*
X30393000Y-46490000D01*
X29043000Y-46490000D02*
X29043000Y-47490000D01*
X50662914Y-24877729D02*
X50623285Y-24320118D01*
X50200974Y-24686387D02*
X50662914Y-24877729D01*
X50623285Y-24320118D02*
X50200974Y-24686387D01*
X49479926Y-22899430D02*
X49805207Y-22114133D01*
X50172836Y-23186443D02*
X49479926Y-22899430D01*
X50058031Y-23463607D02*
X50172836Y-23186443D01*
X50335195Y-23578412D02*
X50058031Y-23463607D01*
X56131859Y-25654751D02*
X56457140Y-24869453D01*
X55438949Y-25367738D02*
X56131859Y-25654751D01*
X55324144Y-25644902D02*
X55438949Y-25367738D01*
X55046980Y-25530097D02*
X55324144Y-25644902D01*
X51583559Y-20956563D02*
X56018180Y-22793444D01*
X22793444Y-56018180D02*
X20956563Y-51583559D01*
X23578412Y-50335195D02*
X23463607Y-50058031D01*
X23463607Y-50058031D02*
X23186443Y-50172836D01*
X23186443Y-50172836D02*
X22899430Y-49479926D01*
X22899430Y-49479926D02*
X22114133Y-49805207D01*
X25530097Y-55046980D02*
X25644902Y-55324144D01*
X25644902Y-55324144D02*
X25367738Y-55438949D01*
X25367738Y-55438949D02*
X25654751Y-56131859D01*
X25654751Y-56131859D02*
X24869453Y-56457140D01*
X25850852Y-54318804D02*
X26408463Y-54358432D01*
X26408463Y-54358432D02*
X26217121Y-53896492D01*
X26217121Y-53896492D02*
X25850852Y-54318804D01*
X67943437Y-51583559D02*
X66106556Y-56018180D01*
X63369903Y-55046980D02*
X63255098Y-55324144D01*
X63255098Y-55324144D02*
X63532262Y-55438949D01*
X63532262Y-55438949D02*
X63245249Y-56131859D01*
X63245249Y-56131859D02*
X64030547Y-56457140D01*
X65321588Y-50335195D02*
X65436393Y-50058031D01*
X65436393Y-50058031D02*
X65713557Y-50172836D01*
X65713557Y-50172836D02*
X66000570Y-49479926D01*
X66000570Y-49479926D02*
X66785867Y-49805207D01*
X64579882Y-50623285D02*
X64213613Y-50200974D01*
X64213613Y-50200974D02*
X64022271Y-50662914D01*
X64022271Y-50662914D02*
X64579882Y-50623285D01*
X60031099Y-25474789D02*
X63425210Y-28868902D01*
X61480667Y-31025578D02*
X61692799Y-31237710D01*
X61692799Y-31237710D02*
X61904931Y-31025578D01*
X61904931Y-31025578D02*
X62435261Y-31555908D01*
X62435261Y-31555908D02*
X63036302Y-30954867D01*
X57874422Y-27419333D02*
X57662290Y-27207201D01*
X57662290Y-27207201D02*
X57874422Y-26995069D01*
X57874422Y-26995069D02*
X57344092Y-26464739D01*
X57344092Y-26464739D02*
X57945133Y-25863698D01*
X57856745Y-28214828D02*
X57326414Y-28391605D01*
X57326414Y-28391605D02*
X57679968Y-28745158D01*
X57679968Y-28745158D02*
X57856745Y-28214828D01*
X40961000Y-55989000D02*
X39811000Y-55989000D01*
X41736000Y-53739000D02*
X39811000Y-53739000D01*
X48355000Y-42422000D02*
X48355000Y-42922000D01*
X50705000Y-42422000D02*
X50705000Y-42922000D01*
X60110000Y-44934000D02*
X60110000Y-43934000D01*
X61810000Y-43934000D02*
X61810000Y-44934000D01*
X48800000Y-71127460D02*
X48800000Y-64722460D01*
X40100000Y-69897460D02*
X48800000Y-69897460D01*
X40100000Y-64722460D02*
X40100000Y-71127460D01*
X48800000Y-64722460D02*
X40100000Y-64722460D01*
X48800000Y-71127460D02*
X40100000Y-71127460D01*
X64018496Y-37679000D02*
X63018496Y-37679000D01*
X63018496Y-39029000D02*
X64018496Y-39029000D01*
X58835612Y-55191499D02*
G75*
G03X58835612Y-55191499I-250000J0D01*
G01*
X62015080Y-61307973D02*
X61307973Y-60600866D01*
X61307973Y-60600866D02*
X60600866Y-61307973D01*
X60600866Y-61307973D02*
X61307973Y-62015080D01*
X58762388Y-56075383D02*
X59646272Y-55191499D01*
X59646272Y-55191499D02*
X58514901Y-54060128D01*
X58514901Y-54060128D02*
X59080586Y-53494443D01*
X59080586Y-53494443D02*
X61979724Y-56393581D01*
X59646272Y-55191499D02*
X60211957Y-54625814D01*
X56075383Y-58762388D02*
X55191499Y-59646272D01*
X55191499Y-59646272D02*
X54060128Y-58514901D01*
X54060128Y-58514901D02*
X53494443Y-59080586D01*
X53494443Y-59080586D02*
X56393581Y-61979724D01*
X55191499Y-59646272D02*
X54625814Y-60211957D01*
X63217161Y-60105891D02*
X60105891Y-63217161D01*
X59752338Y-56641068D02*
X62156501Y-59045231D01*
X62156501Y-59045231D02*
X61449394Y-59752338D01*
X61449394Y-59752338D02*
X59045231Y-57348175D01*
X59045231Y-57348175D02*
X59752338Y-56641068D01*
X56641068Y-59752338D02*
X59045231Y-62156501D01*
X59045231Y-62156501D02*
X59752338Y-61449394D01*
X59752338Y-61449394D02*
X57348175Y-59045231D01*
X57348175Y-59045231D02*
X56641068Y-59752338D01*
X57489596Y-57348175D02*
X57348175Y-57489596D01*
X28745158Y-31220032D02*
X28214828Y-31043255D01*
X28391605Y-31573586D02*
X28745158Y-31220032D01*
X28214828Y-31043255D02*
X28391605Y-31573586D01*
X26464739Y-31555908D02*
X25863698Y-30954867D01*
X26995069Y-31025578D02*
X26464739Y-31555908D01*
X27207201Y-31237710D02*
X26995069Y-31025578D01*
X27419333Y-31025578D02*
X27207201Y-31237710D01*
X31555908Y-26464739D02*
X30954867Y-25863698D01*
X31025578Y-26995069D02*
X31555908Y-26464739D01*
X31237710Y-27207201D02*
X31025578Y-26995069D01*
X31025578Y-27419333D02*
X31237710Y-27207201D01*
X25474790Y-28868902D02*
X28868902Y-25474790D01*
X35003508Y-26217121D02*
X34581196Y-25850852D01*
X34541568Y-26408463D02*
X35003508Y-26217121D01*
X34581196Y-25850852D02*
X34541568Y-26408463D01*
X32768141Y-25654751D02*
X32442860Y-24869453D01*
X33461051Y-25367738D02*
X32768141Y-25654751D01*
X33575856Y-25644902D02*
X33461051Y-25367738D01*
X33853020Y-25530097D02*
X33575856Y-25644902D01*
X39420074Y-22899430D02*
X39094793Y-22114133D01*
X38727164Y-23186443D02*
X39420074Y-22899430D01*
X38841969Y-23463607D02*
X38727164Y-23186443D01*
X38564805Y-23578412D02*
X38841969Y-23463607D01*
X32881820Y-22793444D02*
X37316441Y-20956563D01*
X42050000Y-20015000D02*
X46850000Y-20015000D01*
X47000000Y-22915000D02*
X47300000Y-22915000D01*
X47300000Y-22915000D02*
X47300000Y-22615000D01*
X47300000Y-22615000D02*
X48050000Y-22615000D01*
X48050000Y-22615000D02*
X48050000Y-21765000D01*
X41900000Y-22915000D02*
X41600000Y-22915000D01*
X41600000Y-22915000D02*
X41600000Y-22615000D01*
X41600000Y-22615000D02*
X40850000Y-22615000D01*
X40850000Y-22615000D02*
X40850000Y-21765000D01*
X42450000Y-23490000D02*
X42200000Y-23990000D01*
X42200000Y-23990000D02*
X42700000Y-23990000D01*
X42700000Y-23990000D02*
X42450000Y-23490000D01*
X53090000Y-41943000D02*
X53590000Y-41943000D01*
X53590000Y-42893000D02*
X53090000Y-42893000D01*
X34566000Y-44242000D02*
G75*
G03X34566000Y-44242000I-100000J0D01*
G01*
X34216000Y-43692000D02*
X34216000Y-44192000D01*
X31316000Y-43692000D02*
X34216000Y-43692000D01*
X31316000Y-44192000D02*
X31316000Y-43692000D01*
X34216000Y-44192000D02*
X31316000Y-44192000D01*
X57754000Y-43850000D02*
X57054000Y-43850000D01*
X57054000Y-45050000D02*
X57754000Y-45050000D01*
X56646000Y-42451000D02*
X57146000Y-42451000D01*
X57146000Y-43401000D02*
X56646000Y-43401000D01*
X60285000Y-39124000D02*
X60285000Y-40124000D01*
X61635000Y-40124000D02*
X61635000Y-39124000D01*
X51094000Y-62475999D02*
X51094000Y-61476000D01*
X49744000Y-61476001D02*
X49744000Y-62476000D01*
X63006496Y-41061000D02*
X64006496Y-41061000D01*
X64006496Y-39711000D02*
X63006496Y-39711000D01*
X45596256Y-50731150D02*
X44889150Y-51438256D01*
X45843744Y-52392850D02*
X46550850Y-51685744D01*
X47168000Y-53294000D02*
G75*
G03X47168000Y-53294000I-100000J0D01*
G01*
X47318000Y-53844000D02*
X47318000Y-53344000D01*
X50218000Y-53844000D02*
X47318000Y-53844000D01*
X50218000Y-53344000D02*
X50218000Y-53844000D01*
X47318000Y-53344000D02*
X50218000Y-53344000D01*
X49522000Y-50888000D02*
X48522000Y-50888000D01*
X48522000Y-49188000D02*
X49522000Y-49188000D01*
X52332000Y-43346000D02*
X53332000Y-43346000D01*
X53332000Y-45046000D02*
X52332000Y-45046000D01*
X44784000Y-45331000D02*
X42859000Y-45331000D01*
X44009000Y-47581000D02*
X42859000Y-47581000D01*
X46906000Y-34128000D02*
X47606000Y-34128000D01*
X47606000Y-32928000D02*
X46906000Y-32928000D01*
X47706000Y-32479000D02*
X47206000Y-32479000D01*
X47206000Y-31529000D02*
X47706000Y-31529000D01*
X42556000Y-31076000D02*
X42556000Y-30871000D01*
X48056000Y-31076000D02*
X48056000Y-30776000D01*
X48056000Y-25566000D02*
X48056000Y-25866000D01*
X42556000Y-25566000D02*
X42556000Y-25866000D01*
X42556000Y-31076000D02*
X48056000Y-31076000D01*
X42556000Y-25566000D02*
X48056000Y-25566000D01*
X42556000Y-30871000D02*
X40806000Y-30871000D01*
X39760000Y-50714000D02*
X32560000Y-50714000D01*
X32560000Y-46314000D02*
X39860000Y-46314000D01*
X38522000Y-34084000D02*
X38522000Y-41384000D01*
X34122000Y-41284000D02*
X34122000Y-34084000D01*
M02*
