  0
SECTION
  2
HEADER
  9
$ANGBASE
  50
0.0
  9
$ANGDIR
  70
  1
  9
$MEASUREMENT
  70
0
  0
ENDSEC
  0
SECTION
  2
TABLES
  0
TABLE
  2
LTYPE
  70
1
  0
LTYPE
  2
CONTINUOUS
  70
0
  3
Solid line
  72
65
  73
0
  40
0.0
  0
ENDTAB
  0
TABLE
  2
STYLE
  70
4
  0
STYLE
  2
KICAD
  70
0
  40
0
  41
1
  42
1
  50
0
  71
0
  3
isocp.shx
  0
STYLE
  2
KICADB
  70
0
  40
0
  41
1
  42
1
  50
0
  71
0
  3
isocp.shx
  0
STYLE
  2
KICADI
  70
0
  40
0
  41
1
  42
1
  50
15
  71
0
  3
isocp.shx
  0
STYLE
  2
KICADBI
  70
0
  40
0
  41
1
  42
1
  50
15
  71
0
  3
isocp.shx
  0
ENDTAB
  0
TABLE
  2
LAYER
  70
30
  0
LAYER
  2
BLACK
  70
0
  62
7
  6
CONTINUOUS
  0
LAYER
  2
GRAY1
  70
0
  62
251
  6
CONTINUOUS
  0
LAYER
  2
GRAY2
  70
0
  62
8
  6
CONTINUOUS
  0
LAYER
  2
GRAY3
  70
0
  62
9
  6
CONTINUOUS
  0
LAYER
  2
WHITE
  70
0
  62
7
  6
CONTINUOUS
  0
LAYER
  2
LYELLOW
  70
0
  62
51
  6
CONTINUOUS
  0
LAYER
  2
BLUE1
  70
0
  62
178
  6
CONTINUOUS
  0
LAYER
  2
GREEN1
  70
0
  62
98
  6
CONTINUOUS
  0
LAYER
  2
CYAN1
  70
0
  62
138
  6
CONTINUOUS
  0
LAYER
  2
RED1
  70
0
  62
18
  6
CONTINUOUS
  0
LAYER
  2
MAGENTA1
  70
0
  62
228
  6
CONTINUOUS
  0
LAYER
  2
BROWN1
  70
0
  62
58
  6
CONTINUOUS
  0
LAYER
  2
BLUE2
  70
0
  62
5
  6
CONTINUOUS
  0
LAYER
  2
GREEN2
  70
0
  62
3
  6
CONTINUOUS
  0
LAYER
  2
CYAN2
  70
0
  62
4
  6
CONTINUOUS
  0
LAYER
  2
RED2
  70
0
  62
1
  6
CONTINUOUS
  0
LAYER
  2
MAGENTA2
  70
0
  62
6
  6
CONTINUOUS
  0
LAYER
  2
BROWN2
  70
0
  62
54
  6
CONTINUOUS
  0
LAYER
  2
BLUE3
  70
0
  62
171
  6
CONTINUOUS
  0
LAYER
  2
GREEN3
  70
0
  62
91
  6
CONTINUOUS
  0
LAYER
  2
CYAN3
  70
0
  62
131
  6
CONTINUOUS
  0
LAYER
  2
RED3
  70
0
  62
11
  6
CONTINUOUS
  0
LAYER
  2
MAGENTA3
  70
0
  62
221
  6
CONTINUOUS
  0
LAYER
  2
YELLOW3
  70
0
  62
2
  6
CONTINUOUS
  0
LAYER
  2
BLUE4
  70
0
  62
5
  6
CONTINUOUS
  0
LAYER
  2
GREEN4
  70
0
  62
3
  6
CONTINUOUS
  0
LAYER
  2
CYAN4
  70
0
  62
4
  6
CONTINUOUS
  0
LAYER
  2
RED4
  70
0
  62
1
  6
CONTINUOUS
  0
LAYER
  2
MAGENTA4
  70
0
  62
6
  6
CONTINUOUS
  0
LAYER
  2
YELLOW4
  70
0
  62
2
  6
CONTINUOUS
  0
ENDTAB
  0
ENDSEC
  0
SECTION
  2
ENTITIES
0
LINE
8
Black
10
45.594
20
-68.8685
11
45.056
21
-68.8685
0
LINE
8
Black
10
45.056
20
-68.8685
11
45.056
21
-68.2355
0
LINE
8
Black
10
45.056
20
-68.2355
11
45.594
21
-68.2355
0
LINE
8
Black
10
45.594
20
-68.2355
11
45.594
21
-68.8685
0
LINE
8
Black
10
43.844
20
-68.8685
11
43.306
21
-68.8685
0
LINE
8
Black
10
43.306
20
-68.8685
11
43.306
21
-68.2355
0
LINE
8
Black
10
43.306
20
-68.2355
11
43.844
21
-68.2355
0
LINE
8
Black
10
43.844
20
-68.2355
11
43.844
21
-68.8685
0
LINE
8
Black
10
50.5444
20
-68.0577
11
50.0396
21
-68.0577
0
LINE
8
Black
10
50.0396
20
-68.0577
11
50.0396
21
-67.5529
0
LINE
8
Black
10
50.0396
20
-67.5529
11
50.5444
21
-67.5529
0
LINE
8
Black
10
50.5444
20
-67.5529
11
50.5444
21
-68.0577
0
LINE
8
Black
10
38.413
20
-67.403
11
38.2676
21
-67.7539
0
LINE
8
Black
10
38.2676
20
-67.7539
11
37.9752
21
-67.6328
0
LINE
8
Black
10
37.9752
20
-67.6328
11
38.1206
21
-67.2819
0
LINE
8
Black
10
38.1206
20
-67.2819
11
38.413
21
-67.403
0
LINE
8
Black
10
53.2347
20
-67.2416
11
52.7376
21
-67.4476
0
LINE
8
Black
10
52.7376
20
-67.4476
11
52.4954
21
-66.8627
0
LINE
8
Black
10
52.4954
20
-66.8627
11
52.9925
21
-66.6568
0
LINE
8
Black
10
52.9925
20
-66.6568
11
53.2347
21
-67.2416
0
LINE
8
Black
10
36.4046
20
-66.8627
11
36.1624
21
-67.4476
0
LINE
8
Black
10
36.1624
20
-67.4476
11
35.6653
21
-67.2416
0
LINE
8
Black
10
35.6653
20
-67.2416
11
35.9075
21
-66.6568
0
LINE
8
Black
10
35.9075
20
-66.6568
11
36.4046
21
-66.8627
0
LINE
8
Black
10
54.8515
20
-66.572
11
54.3544
21
-66.7779
0
LINE
8
Black
10
54.3544
20
-66.7779
11
54.1122
21
-66.193
0
LINE
8
Black
10
54.1122
20
-66.193
11
54.6093
21
-65.9871
0
LINE
8
Black
10
54.6093
20
-65.9871
11
54.8515
21
-66.572
0
LINE
8
Black
10
34.7878
20
-66.193
11
34.5456
21
-66.7779
0
LINE
8
Black
10
34.5456
20
-66.7779
11
34.0485
21
-66.572
0
LINE
8
Black
10
34.0485
20
-66.572
11
34.2907
21
-65.9871
0
LINE
8
Black
10
34.2907
20
-65.9871
11
34.7878
21
-66.193
0
LINE
8
Black
10
38.8339
20
-66.3868
11
38.6886
21
-66.7376
0
LINE
8
Black
10
38.6886
20
-66.7376
11
38.3962
21
-66.6165
0
LINE
8
Black
10
38.3962
20
-66.6165
11
38.5415
21
-66.2656
0
LINE
8
Black
10
38.5415
20
-66.2656
11
38.8339
21
-66.3868
0
LINE
8
Black
10
50.5444
20
-66.5591
11
50.0396
21
-66.5591
0
LINE
8
Black
10
50.0396
20
-66.5591
11
50.0396
21
-66.0543
0
LINE
8
Black
10
50.0396
20
-66.0543
11
50.5444
21
-66.0543
0
LINE
8
Black
10
50.5444
20
-66.0543
11
50.5444
21
-66.5591
0
LINE
8
Black
10
56.5568
20
-65.3
11
56.2643
21
-65.4211
0
LINE
8
Black
10
56.2643
20
-65.4211
11
56.119
21
-65.0702
0
LINE
8
Black
10
56.119
20
-65.0702
11
56.4114
21
-64.9491
0
LINE
8
Black
10
56.4114
20
-64.9491
11
56.5568
21
-65.3
0
LINE
8
Black
10
45.594
20
-65.3685
11
45.056
21
-65.3685
0
LINE
8
Black
10
45.056
20
-65.3685
11
45.056
21
-64.7355
0
LINE
8
Black
10
45.056
20
-64.7355
11
45.594
21
-64.7355
0
LINE
8
Black
10
45.594
20
-64.7355
11
45.594
21
-65.3685
0
LINE
8
Black
10
43.844
20
-65.3685
11
43.306
21
-65.3685
0
LINE
8
Black
10
43.306
20
-65.3685
11
43.306
21
-64.7355
0
LINE
8
Black
10
43.306
20
-64.7355
11
43.844
21
-64.7355
0
LINE
8
Black
10
43.844
20
-64.7355
11
43.844
21
-65.3685
0
LINE
8
Black
10
56.1358
20
-64.2837
11
55.8434
21
-64.4048
0
LINE
8
Black
10
55.8434
20
-64.4048
11
55.698
21
-64.0539
0
LINE
8
Black
10
55.698
20
-64.0539
11
55.9905
21
-63.9328
0
LINE
8
Black
10
55.9905
20
-63.9328
11
56.1358
21
-64.2837
0
LINE
8
Black
10
51.8953
20
-64.0081
11
51.3982
21
-64.214
0
LINE
8
Black
10
51.3982
20
-64.214
11
51.156
21
-63.6292
0
LINE
8
Black
10
51.156
20
-63.6292
11
51.6531
21
-63.4233
0
LINE
8
Black
10
51.6531
20
-63.4233
11
51.8953
21
-64.0081
0
LINE
8
Black
10
37.744
20
-63.6292
11
37.5018
21
-64.214
0
LINE
8
Black
10
37.5018
20
-64.214
11
37.0047
21
-64.0081
0
LINE
8
Black
10
37.0047
20
-64.0081
11
37.2469
21
-63.4233
0
LINE
8
Black
10
37.2469
20
-63.4233
11
37.744
21
-63.6292
0
LINE
8
Black
10
30.0888
20
-63.3456
11
29.8202
21
-63.6141
0
LINE
8
Black
10
29.8202
20
-63.6141
11
29.5964
21
-63.3903
0
LINE
8
Black
10
29.5964
20
-63.3903
11
29.865
21
-63.1218
0
LINE
8
Black
10
29.865
20
-63.1218
11
30.0888
21
-63.3456
0
LINE
8
Black
10
53.5121
20
-63.3384
11
53.015
21
-63.5443
0
LINE
8
Black
10
53.015
20
-63.5443
11
52.7728
21
-62.9595
0
LINE
8
Black
10
52.7728
20
-62.9595
11
53.2699
21
-62.7536
0
LINE
8
Black
10
53.2699
20
-62.7536
11
53.5121
21
-63.3384
0
LINE
8
Black
10
36.1272
20
-62.9595
11
35.885
21
-63.5443
0
LINE
8
Black
10
35.885
20
-63.5443
11
35.3879
21
-63.3384
0
LINE
8
Black
10
35.3879
20
-63.3384
11
35.6301
21
-62.7536
0
LINE
8
Black
10
35.6301
20
-62.7536
11
36.1272
21
-62.9595
0
LINE
8
Black
10
46.0048
20
-63.1382
11
45.4352
21
-63.1382
0
LINE
8
Black
10
45.4352
20
-63.1382
11
45.4352
21
-62.8217
0
LINE
8
Black
10
45.4352
20
-62.8217
11
46.0048
21
-62.8217
0
LINE
8
Black
10
46.0048
20
-62.8217
11
46.0048
21
-63.1382
0
LINE
8
Black
10
43.8779
20
-62.8962
11
43.4981
21
-62.8962
0
LINE
8
Black
10
43.4981
20
-62.8962
11
43.4981
21
-62.5797
0
LINE
8
Black
10
43.4981
20
-62.5797
11
43.8779
21
-62.5797
0
LINE
8
Black
10
43.8779
20
-62.5797
11
43.8779
21
-62.8962
0
LINE
8
Black
10
42.7779
20
-62.8962
11
42.3981
21
-62.8962
0
LINE
8
Black
10
42.3981
20
-62.8962
11
42.3981
21
-62.5797
0
LINE
8
Black
10
42.3981
20
-62.5797
11
42.7779
21
-62.5797
0
LINE
8
Black
10
42.7779
20
-62.5797
11
42.7779
21
-62.8962
0
LINE
8
Black
10
30.8666
20
-62.5677
11
30.598
21
-62.8363
0
LINE
8
Black
10
30.598
20
-62.8363
11
30.3742
21
-62.6125
0
LINE
8
Black
10
30.3742
20
-62.6125
11
30.6428
21
-62.3439
0
LINE
8
Black
10
30.6428
20
-62.3439
11
30.8666
21
-62.5677
0
LINE
8
Black
10
61.288
20
-62.145
11
60.9075
21
-62.5254
0
LINE
8
Black
10
60.9075
20
-62.5254
11
60.4599
21
-62.0778
0
LINE
8
Black
10
60.4599
20
-62.0778
11
60.8404
21
-61.6974
0
LINE
8
Black
10
60.8404
20
-61.6974
11
61.288
21
-62.145
0
LINE
8
Black
10
28.4401
20
-62.0778
11
27.9925
21
-62.5254
0
LINE
8
Black
10
27.9925
20
-62.5254
11
27.612
21
-62.145
0
LINE
8
Black
10
27.612
20
-62.145
11
28.0596
21
-61.6974
0
LINE
8
Black
10
28.0596
20
-61.6974
11
28.4401
21
-62.0778
0
LINE
8
Black
10
46.0048
20
-61.6382
11
45.4352
21
-61.6382
0
LINE
8
Black
10
45.4352
20
-61.6382
11
45.4352
21
-61.3217
0
LINE
8
Black
10
45.4352
20
-61.3217
11
46.0048
21
-61.3217
0
LINE
8
Black
10
46.0048
20
-61.3217
11
46.0048
21
-61.6382
0
LINE
8
Black
10
62.5254
20
-60.9075
11
62.145
21
-61.288
0
LINE
8
Black
10
62.145
20
-61.288
11
61.6974
21
-60.8404
0
LINE
8
Black
10
61.6974
20
-60.8404
11
62.0778
21
-60.4599
0
LINE
8
Black
10
62.0778
20
-60.4599
11
62.5254
21
-60.9075
0
LINE
8
Black
10
27.2026
20
-60.8404
11
26.755
21
-61.288
0
LINE
8
Black
10
26.755
20
-61.288
11
26.3746
21
-60.9075
0
LINE
8
Black
10
26.3746
20
-60.9075
11
26.8222
21
-60.4599
0
LINE
8
Black
10
26.8222
20
-60.4599
11
27.2026
21
-60.8404
0
LINE
8
Black
10
58.8131
20
-59.6701
11
58.4327
21
-60.0506
0
LINE
8
Black
10
58.4327
20
-60.0506
11
57.9851
21
-59.603
0
LINE
8
Black
10
57.9851
20
-59.603
11
58.3655
21
-59.2225
0
LINE
8
Black
10
58.3655
20
-59.2225
11
58.8131
21
-59.6701
0
LINE
8
Black
10
30.9149
20
-59.603
11
30.4673
21
-60.0506
0
LINE
8
Black
10
30.4673
20
-60.0506
11
30.0869
21
-59.6701
0
LINE
8
Black
10
30.0869
20
-59.6701
11
30.5345
21
-59.2225
0
LINE
8
Black
10
30.5345
20
-59.2225
11
30.9149
21
-59.603
0
LINE
8
Black
10
38.8925
20
-59.7848
11
38.2595
21
-59.7848
0
LINE
8
Black
10
38.2595
20
-59.7848
11
38.2595
21
-57.7592
0
LINE
8
Black
10
38.2595
20
-57.7592
11
38.8925
21
-57.7592
0
LINE
8
Black
10
38.8925
20
-57.7592
11
38.8925
21
-59.7848
0
LINE
8
Black
10
34.8925
20
-59.7848
11
34.2595
21
-59.7848
0
LINE
8
Black
10
34.2595
20
-59.7848
11
34.2595
21
-57.7592
0
LINE
8
Black
10
34.2595
20
-57.7592
11
34.8925
21
-57.7592
0
LINE
8
Black
10
34.8925
20
-57.7592
11
34.8925
21
-59.7848
0
LINE
8
Black
10
63.6141
20
-59.0798
11
63.3903
21
-59.3036
0
LINE
8
Black
10
63.3903
20
-59.3036
11
63.1218
21
-59.035
0
LINE
8
Black
10
63.1218
20
-59.035
11
63.3456
21
-58.8112
0
LINE
8
Black
10
63.3456
20
-58.8112
11
63.6141
21
-59.0798
0
LINE
8
Black
10
46.8305
20
-59.2768
11
46.1975
21
-59.2768
0
LINE
8
Black
10
46.1975
20
-59.2768
11
46.1975
21
-57.2512
0
LINE
8
Black
10
46.1975
20
-57.2512
11
46.8305
21
-57.2512
0
LINE
8
Black
10
46.8305
20
-57.2512
11
46.8305
21
-59.2768
0
LINE
8
Black
10
50.8305
20
-59.2768
11
50.1975
21
-59.2768
0
LINE
8
Black
10
50.1975
20
-59.2768
11
50.1975
21
-57.2512
0
LINE
8
Black
10
50.1975
20
-57.2512
11
50.8305
21
-57.2512
0
LINE
8
Black
10
50.8305
20
-57.2512
11
50.8305
21
-59.2768
0
LINE
8
Black
10
29.6775
20
-58.3655
11
29.2299
21
-58.8131
0
LINE
8
Black
10
29.2299
20
-58.8131
11
28.8494
21
-58.4327
0
LINE
8
Black
10
28.8494
20
-58.4327
11
29.297
21
-57.9851
0
LINE
8
Black
10
29.297
20
-57.9851
11
29.6775
21
-58.3655
0
LINE
8
Black
10
60.0506
20
-58.4327
11
59.6701
21
-58.8131
0
LINE
8
Black
10
59.6701
20
-58.8131
11
59.2225
21
-58.3655
0
LINE
8
Black
10
59.2225
20
-58.3655
11
59.603
21
-57.9851
0
LINE
8
Black
10
59.603
20
-57.9851
11
60.0506
21
-58.4327
0
LINE
8
Black
10
62.8363
20
-58.302
11
62.6125
21
-58.5258
0
LINE
8
Black
10
62.6125
20
-58.5258
11
62.3439
21
-58.2572
0
LINE
8
Black
10
62.3439
20
-58.2572
11
62.5677
21
-58.0334
0
LINE
8
Black
10
62.5677
20
-58.0334
11
62.8363
21
-58.302
0
LINE
8
Black
10
56.2819
20
-57.0542
11
55.9021
21
-57.0542
0
LINE
8
Black
10
55.9021
20
-57.0542
11
55.9021
21
-56.7377
0
LINE
8
Black
10
55.9021
20
-56.7377
11
56.2819
21
-56.7377
0
LINE
8
Black
10
56.2819
20
-56.7377
11
56.2819
21
-57.0542
0
LINE
8
Black
10
57.3819
20
-57.0542
11
57.0021
21
-57.0542
0
LINE
8
Black
10
57.0021
20
-57.0542
11
57.0021
21
-56.7377
0
LINE
8
Black
10
57.0021
20
-56.7377
11
57.3819
21
-56.7377
0
LINE
8
Black
10
57.3819
20
-56.7377
11
57.3819
21
-57.0542
0
LINE
8
Black
10
23.9509
20
-56.4114
11
23.6
21
-56.5568
0
LINE
8
Black
10
23.6
20
-56.5568
11
23.4789
21
-56.2643
0
LINE
8
Black
10
23.4789
20
-56.2643
11
23.8298
21
-56.119
0
LINE
8
Black
10
23.8298
20
-56.119
11
23.9509
21
-56.4114
0
LINE
8
Black
10
24.9672
20
-55.9905
11
24.6163
21
-56.1358
0
LINE
8
Black
10
24.6163
20
-56.1358
11
24.4952
21
-55.8434
0
LINE
8
Black
10
24.4952
20
-55.8434
11
24.8461
21
-55.698
0
LINE
8
Black
10
24.8461
20
-55.698
11
24.9672
21
-55.9905
0
LINE
8
Black
10
31.3337
20
-55.477
11
29.1182
21
-55.477
0
LINE
8
Black
10
29.1182
20
-55.477
11
29.1182
21
-54.4009
0
LINE
8
Black
10
29.1182
20
-54.4009
11
31.3337
21
-54.4009
0
LINE
8
Black
10
31.3337
20
-54.4009
11
31.3337
21
-55.477
0
LINE
8
Black
10
55.6235
20
-55.2577
11
54.9525
21
-55.2577
0
LINE
8
Black
10
54.9525
20
-55.2577
11
54.9525
21
-54.8463
0
LINE
8
Black
10
54.9525
20
-54.8463
11
55.6235
21
-54.8463
0
LINE
8
Black
10
55.6235
20
-54.8463
11
55.6235
21
-55.2577
0
LINE
8
Black
10
57.8235
20
-55.2577
11
57.1525
21
-55.2577
0
LINE
8
Black
10
57.1525
20
-55.2577
11
57.1525
21
-54.8463
0
LINE
8
Black
10
57.1525
20
-54.8463
11
57.8235
21
-54.8463
0
LINE
8
Black
10
57.8235
20
-54.8463
11
57.8235
21
-55.2577
0
LINE
8
Black
10
22.9129
20
-54.6093
11
22.328
21
-54.8515
0
LINE
8
Black
10
22.328
20
-54.8515
11
22.1221
21
-54.3544
0
LINE
8
Black
10
22.1221
20
-54.3544
11
22.707
21
-54.1122
0
LINE
8
Black
10
22.707
20
-54.1122
11
22.9129
21
-54.6093
0
LINE
8
Black
10
66.7779
20
-54.3544
11
66.572
21
-54.8515
0
LINE
8
Black
10
66.572
20
-54.8515
11
65.9871
21
-54.6093
0
LINE
8
Black
10
65.9871
20
-54.6093
11
66.193
21
-54.1122
0
LINE
8
Black
10
66.193
20
-54.1122
11
66.7779
21
-54.3544
0
LINE
8
Black
10
57.8235
20
-54.3077
11
57.1525
21
-54.3077
0
LINE
8
Black
10
57.1525
20
-54.3077
11
57.1525
21
-53.8963
0
LINE
8
Black
10
57.1525
20
-53.8963
11
57.8235
21
-53.8963
0
LINE
8
Black
10
57.8235
20
-53.8963
11
57.8235
21
-54.3077
0
LINE
8
Black
10
26.1464
20
-53.2699
11
25.5616
21
-53.5121
0
LINE
8
Black
10
25.5616
20
-53.5121
11
25.3557
21
-53.015
0
LINE
8
Black
10
25.3557
20
-53.015
11
25.9405
21
-52.7728
0
LINE
8
Black
10
25.9405
20
-52.7728
11
26.1464
21
-53.2699
0
LINE
8
Black
10
63.5443
20
-53.015
11
63.3384
21
-53.5121
0
LINE
8
Black
10
63.3384
20
-53.5121
11
62.7536
21
-53.2699
0
LINE
8
Black
10
62.7536
20
-53.2699
11
62.9595
21
-52.7728
0
LINE
8
Black
10
62.9595
20
-52.7728
11
63.5443
21
-53.015
0
LINE
8
Black
10
57.8235
20
-53.3577
11
57.1525
21
-53.3577
0
LINE
8
Black
10
57.1525
20
-53.3577
11
57.1525
21
-52.9463
0
LINE
8
Black
10
57.1525
20
-52.9463
11
57.8235
21
-52.9463
0
LINE
8
Black
10
57.8235
20
-52.9463
11
57.8235
21
-53.3577
0
LINE
8
Black
10
55.6235
20
-53.3577
11
54.9525
21
-53.3577
0
LINE
8
Black
10
54.9525
20
-53.3577
11
54.9525
21
-52.9463
0
LINE
8
Black
10
54.9525
20
-52.9463
11
55.6235
21
-52.9463
0
LINE
8
Black
10
55.6235
20
-52.9463
11
55.6235
21
-53.3577
0
LINE
8
Black
10
67.4476
20
-52.7376
11
67.2416
21
-53.2347
0
LINE
8
Black
10
67.2416
20
-53.2347
11
66.6568
21
-52.9925
0
LINE
8
Black
10
66.6568
20
-52.9925
11
66.8627
21
-52.4954
0
LINE
8
Black
10
66.8627
20
-52.4954
11
67.4476
21
-52.7376
0
LINE
8
Black
10
22.2432
20
-52.9925
11
21.6584
21
-53.2347
0
LINE
8
Black
10
21.6584
20
-53.2347
11
21.4524
21
-52.7376
0
LINE
8
Black
10
21.4524
20
-52.7376
11
22.0373
21
-52.4954
0
LINE
8
Black
10
22.0373
20
-52.4954
11
22.2432
21
-52.9925
0
LINE
8
Black
10
38.8925
20
-52.9848
11
38.2595
21
-52.9848
0
LINE
8
Black
10
38.2595
20
-52.9848
11
38.2595
21
-50.9592
0
LINE
8
Black
10
38.2595
20
-50.9592
11
38.8925
21
-50.9592
0
LINE
8
Black
10
38.8925
20
-50.9592
11
38.8925
21
-52.9848
0
LINE
8
Black
10
34.8925
20
-52.9848
11
34.2595
21
-52.9848
0
LINE
8
Black
10
34.2595
20
-52.9848
11
34.2595
21
-50.9592
0
LINE
8
Black
10
34.2595
20
-50.9592
11
34.8925
21
-50.9592
0
LINE
8
Black
10
34.8925
20
-50.9592
11
34.8925
21
-52.9848
0
LINE
8
Black
10
50.8305
20
-52.4768
11
50.1975
21
-52.4768
0
LINE
8
Black
10
50.1975
20
-52.4768
11
50.1975
21
-50.4512
0
LINE
8
Black
10
50.1975
20
-50.4512
11
50.8305
21
-50.4512
0
LINE
8
Black
10
50.8305
20
-50.4512
11
50.8305
21
-52.4768
0
LINE
8
Black
10
46.8305
20
-52.4768
11
46.1975
21
-52.4768
0
LINE
8
Black
10
46.1975
20
-52.4768
11
46.1975
21
-50.4512
0
LINE
8
Black
10
46.1975
20
-50.4512
11
46.8305
21
-50.4512
0
LINE
8
Black
10
46.8305
20
-50.4512
11
46.8305
21
-52.4768
0
LINE
8
Black
10
25.4767
20
-51.6531
11
24.8919
21
-51.8953
0
LINE
8
Black
10
24.8919
20
-51.8953
11
24.686
21
-51.3982
0
LINE
8
Black
10
24.686
20
-51.3982
11
25.2708
21
-51.156
0
LINE
8
Black
10
25.2708
20
-51.156
11
25.4767
21
-51.6531
0
LINE
8
Black
10
64.214
20
-51.3982
11
64.0081
21
-51.8953
0
LINE
8
Black
10
64.0081
20
-51.8953
11
63.4233
21
-51.6531
0
LINE
8
Black
10
63.4233
20
-51.6531
11
63.6292
21
-51.156
0
LINE
8
Black
10
63.6292
20
-51.156
11
64.214
21
-51.3982
0
LINE
8
Black
10
67.7539
20
-50.6324
11
67.6328
21
-50.9248
0
LINE
8
Black
10
67.6328
20
-50.9248
11
67.2819
21
-50.7794
0
LINE
8
Black
10
67.2819
20
-50.7794
11
67.403
21
-50.487
0
LINE
8
Black
10
67.403
20
-50.487
11
67.7539
21
-50.6324
0
LINE
8
Black
10
66.7376
20
-50.2114
11
66.6165
21
-50.5038
0
LINE
8
Black
10
66.6165
20
-50.5038
11
66.2656
21
-50.3585
0
LINE
8
Black
10
66.2656
20
-50.3585
11
66.3868
21
-50.0661
0
LINE
8
Black
10
66.3868
20
-50.0661
11
66.7376
21
-50.2114
0
LINE
8
Black
10
31.3337
20
-50.247
11
29.1182
21
-50.247
0
LINE
8
Black
10
29.1182
20
-50.247
11
29.1182
21
-49.1709
0
LINE
8
Black
10
29.1182
20
-49.1709
11
31.3337
21
-49.1709
0
LINE
8
Black
10
31.3337
20
-49.1709
11
31.3337
21
-50.247
0
LINE
8
Black
10
50.8432
20
-48.7988
11
50.5267
21
-48.7988
0
LINE
8
Black
10
50.5267
20
-48.7988
11
50.5267
21
-48.2291
0
LINE
8
Black
10
50.5267
20
-48.2291
11
50.8432
21
-48.2291
0
LINE
8
Black
10
50.8432
20
-48.2291
11
50.8432
21
-48.7988
0
LINE
8
Black
10
52.3432
20
-48.7988
11
52.0267
21
-48.7988
0
LINE
8
Black
10
52.0267
20
-48.7988
11
52.0267
21
-48.2291
0
LINE
8
Black
10
52.0267
20
-48.2291
11
52.3432
21
-48.2291
0
LINE
8
Black
10
52.3432
20
-48.2291
11
52.3432
21
-48.7988
0
LINE
8
Black
10
47.8901
20
-48.7664
11
47.3853
21
-48.7664
0
LINE
8
Black
10
47.3853
20
-48.7664
11
47.3853
21
-48.2616
0
LINE
8
Black
10
47.3853
20
-48.2616
11
47.8901
21
-48.2616
0
LINE
8
Black
10
47.8901
20
-48.2616
11
47.8901
21
-48.7664
0
LINE
8
Black
10
49.3887
20
-48.7664
11
48.8839
21
-48.7664
0
LINE
8
Black
10
48.8839
20
-48.7664
11
48.8839
21
-48.2616
0
LINE
8
Black
10
48.8839
20
-48.2616
11
49.3887
21
-48.2616
0
LINE
8
Black
10
49.3887
20
-48.2616
11
49.3887
21
-48.7664
0
LINE
8
Black
10
43.8582
20
-48.7459
11
43.5418
21
-48.7459
0
LINE
8
Black
10
43.5418
20
-48.7459
11
43.5418
21
-48.3661
0
LINE
8
Black
10
43.5418
20
-48.3661
11
43.8582
21
-48.3661
0
LINE
8
Black
10
43.8582
20
-48.3661
11
43.8582
21
-48.7459
0
LINE
8
Black
10
22.0339
20
-47.6562
11
21.6541
21
-47.6562
0
LINE
8
Black
10
21.6541
20
-47.6562
11
21.6541
21
-47.3397
0
LINE
8
Black
10
21.6541
20
-47.3397
11
22.0339
21
-47.3397
0
LINE
8
Black
10
22.0339
20
-47.3397
11
22.0339
21
-47.6562
0
LINE
8
Black
10
20.9339
20
-47.6562
11
20.5541
21
-47.6562
0
LINE
8
Black
10
20.5541
20
-47.6562
11
20.5541
21
-47.3397
0
LINE
8
Black
10
20.5541
20
-47.3397
11
20.9339
21
-47.3397
0
LINE
8
Black
10
20.9339
20
-47.3397
11
20.9339
21
-47.6562
0
LINE
8
Black
10
43.8582
20
-47.6459
11
43.5418
21
-47.6459
0
LINE
8
Black
10
43.5418
20
-47.6459
11
43.5418
21
-47.2661
0
LINE
8
Black
10
43.5418
20
-47.2661
11
43.8582
21
-47.2661
0
LINE
8
Black
10
43.8582
20
-47.2661
11
43.8582
21
-47.6459
0
LINE
8
Black
10
28.065
20
-47.337
11
26.799
21
-47.337
0
LINE
8
Black
10
26.799
20
-47.337
11
26.799
21
-46.071
0
LINE
8
Black
10
26.799
20
-46.071
11
28.065
21
-46.071
0
LINE
8
Black
10
28.065
20
-46.071
11
28.065
21
-47.337
0
LINE
8
Black
10
56.7011
20
-47.0715
11
56.5429
21
-47.0715
0
LINE
8
Black
10
56.5429
20
-47.0715
11
56.5429
21
-46.6285
0
LINE
8
Black
10
56.5429
20
-46.6285
11
56.7011
21
-46.6285
0
LINE
8
Black
10
56.7011
20
-46.6285
11
56.7011
21
-47.0715
0
LINE
8
Black
10
55.7011
20
-47.0715
11
55.5429
21
-47.0715
0
LINE
8
Black
10
55.5429
20
-47.0715
11
55.5429
21
-46.6285
0
LINE
8
Black
10
55.5429
20
-46.6285
11
55.7011
21
-46.6285
0
LINE
8
Black
10
55.7011
20
-46.6285
11
55.7011
21
-47.0715
0
LINE
8
Black
10
56.2011
20
-47.0715
11
56.0429
21
-47.0715
0
LINE
8
Black
10
56.0429
20
-47.0715
11
56.0429
21
-46.6285
0
LINE
8
Black
10
56.0429
20
-46.6285
11
56.2011
21
-46.6285
0
LINE
8
Black
10
56.2011
20
-46.6285
11
56.2011
21
-47.0715
0
LINE
8
Black
10
53.7011
20
-47.0715
11
53.5429
21
-47.0715
0
LINE
8
Black
10
53.5429
20
-47.0715
11
53.5429
21
-46.6285
0
LINE
8
Black
10
53.5429
20
-46.6285
11
53.7011
21
-46.6285
0
LINE
8
Black
10
53.7011
20
-46.6285
11
53.7011
21
-47.0715
0
LINE
8
Black
10
57.2011
20
-47.0715
11
57.0429
21
-47.0715
0
LINE
8
Black
10
57.0429
20
-47.0715
11
57.0429
21
-46.6285
0
LINE
8
Black
10
57.0429
20
-46.6285
11
57.2011
21
-46.6285
0
LINE
8
Black
10
57.2011
20
-46.6285
11
57.2011
21
-47.0715
0
LINE
8
Black
10
55.2011
20
-47.0715
11
55.0429
21
-47.0715
0
LINE
8
Black
10
55.0429
20
-47.0715
11
55.0429
21
-46.6285
0
LINE
8
Black
10
55.0429
20
-46.6285
11
55.2011
21
-46.6285
0
LINE
8
Black
10
55.2011
20
-46.6285
11
55.2011
21
-47.0715
0
LINE
8
Black
10
54.7011
20
-47.0715
11
54.5429
21
-47.0715
0
LINE
8
Black
10
54.5429
20
-47.0715
11
54.5429
21
-46.6285
0
LINE
8
Black
10
54.5429
20
-46.6285
11
54.7011
21
-46.6285
0
LINE
8
Black
10
54.7011
20
-46.6285
11
54.7011
21
-47.0715
0
LINE
8
Black
10
54.2011
20
-47.0715
11
54.0429
21
-47.0715
0
LINE
8
Black
10
54.0429
20
-47.0715
11
54.0429
21
-46.6285
0
LINE
8
Black
10
54.0429
20
-46.6285
11
54.2011
21
-46.6285
0
LINE
8
Black
10
54.2011
20
-46.6285
11
54.2011
21
-47.0715
0
LINE
8
Black
10
53.1935
20
-46.2791
11
52.7505
21
-46.2791
0
LINE
8
Black
10
52.7505
20
-46.2791
11
52.7505
21
-46.1209
0
LINE
8
Black
10
52.7505
20
-46.1209
11
53.1935
21
-46.1209
0
LINE
8
Black
10
53.1935
20
-46.1209
11
53.1935
21
-46.2791
0
LINE
8
Black
10
57.9935
20
-46.2791
11
57.5504
21
-46.2791
0
LINE
8
Black
10
57.5504
20
-46.2791
11
57.5504
21
-46.1209
0
LINE
8
Black
10
57.5504
20
-46.1209
11
57.9935
21
-46.1209
0
LINE
8
Black
10
57.9935
20
-46.1209
11
57.9935
21
-46.2791
0
LINE
8
Black
10
46.7791
20
-46.1628
11
46.6209
21
-46.1628
0
LINE
8
Black
10
46.6209
20
-46.1628
11
46.6209
21
-45.8622
0
LINE
8
Black
10
46.6209
20
-45.8622
11
46.7791
21
-45.8622
0
LINE
8
Black
10
46.7791
20
-45.8622
11
46.7791
21
-46.1628
0
LINE
8
Black
10
43.7791
20
-46.1628
11
43.6209
21
-46.1628
0
LINE
8
Black
10
43.6209
20
-46.1628
11
43.6209
21
-45.8622
0
LINE
8
Black
10
43.6209
20
-45.8622
11
43.7791
21
-45.8622
0
LINE
8
Black
10
43.7791
20
-45.8622
11
43.7791
21
-46.1628
0
LINE
8
Black
10
46.2791
20
-46.1628
11
46.1209
21
-46.1628
0
LINE
8
Black
10
46.1209
20
-46.1628
11
46.1209
21
-45.8622
0
LINE
8
Black
10
46.1209
20
-45.8622
11
46.2791
21
-45.8622
0
LINE
8
Black
10
46.2791
20
-45.8622
11
46.2791
21
-46.1628
0
LINE
8
Black
10
45.7791
20
-46.1628
11
45.6209
21
-46.1628
0
LINE
8
Black
10
45.6209
20
-46.1628
11
45.6209
21
-45.8622
0
LINE
8
Black
10
45.6209
20
-45.8622
11
45.7791
21
-45.8622
0
LINE
8
Black
10
45.7791
20
-45.8622
11
45.7791
21
-46.1628
0
LINE
8
Black
10
45.2791
20
-46.1628
11
45.1209
21
-46.1628
0
LINE
8
Black
10
45.1209
20
-46.1628
11
45.1209
21
-45.8622
0
LINE
8
Black
10
45.1209
20
-45.8622
11
45.2791
21
-45.8622
0
LINE
8
Black
10
45.2791
20
-45.8622
11
45.2791
21
-46.1628
0
LINE
8
Black
10
44.7791
20
-46.1628
11
44.6209
21
-46.1628
0
LINE
8
Black
10
44.6209
20
-46.1628
11
44.6209
21
-45.8622
0
LINE
8
Black
10
44.6209
20
-45.8622
11
44.7791
21
-45.8622
0
LINE
8
Black
10
44.7791
20
-45.8622
11
44.7791
21
-46.1628
0
LINE
8
Black
10
44.2791
20
-46.1628
11
44.1209
21
-46.1628
0
LINE
8
Black
10
44.1209
20
-46.1628
11
44.1209
21
-45.8622
0
LINE
8
Black
10
44.1209
20
-45.8622
11
44.2791
21
-45.8622
0
LINE
8
Black
10
44.2791
20
-45.8622
11
44.2791
21
-46.1628
0
LINE
8
Black
10
42.2791
20
-46.1628
11
42.1209
21
-46.1628
0
LINE
8
Black
10
42.1209
20
-46.1628
11
42.1209
21
-45.8622
0
LINE
8
Black
10
42.1209
20
-45.8622
11
42.2791
21
-45.8622
0
LINE
8
Black
10
42.2791
20
-45.8622
11
42.2791
21
-46.1628
0
LINE
8
Black
10
42.7791
20
-46.1628
11
42.6209
21
-46.1628
0
LINE
8
Black
10
42.6209
20
-46.1628
11
42.6209
21
-45.8622
0
LINE
8
Black
10
42.6209
20
-45.8622
11
42.7791
21
-45.8622
0
LINE
8
Black
10
42.7791
20
-45.8622
11
42.7791
21
-46.1628
0
LINE
8
Black
10
43.2791
20
-46.1628
11
43.1209
21
-46.1628
0
LINE
8
Black
10
43.1209
20
-46.1628
11
43.1209
21
-45.8622
0
LINE
8
Black
10
43.1209
20
-45.8622
11
43.2791
21
-45.8622
0
LINE
8
Black
10
43.2791
20
-45.8622
11
43.2791
21
-46.1628
0
LINE
8
Black
10
56.752
20
-45.83
11
55.717
21
-45.83
0
LINE
8
Black
10
55.717
20
-45.83
11
55.717
21
-44.795
0
LINE
8
Black
10
55.717
20
-44.795
11
56.752
21
-44.795
0
LINE
8
Black
10
56.752
20
-44.795
11
56.752
21
-45.83
0
LINE
8
Black
10
55.027
20
-45.83
11
53.992
21
-45.83
0
LINE
8
Black
10
53.992
20
-45.83
11
53.992
21
-44.795
0
LINE
8
Black
10
53.992
20
-44.795
11
55.027
21
-44.795
0
LINE
8
Black
10
55.027
20
-44.795
11
55.027
21
-45.83
0
LINE
8
Black
10
57.9935
20
-45.7791
11
57.5504
21
-45.7791
0
LINE
8
Black
10
57.5504
20
-45.7791
11
57.5504
21
-45.6209
0
LINE
8
Black
10
57.5504
20
-45.6209
11
57.9935
21
-45.6209
0
LINE
8
Black
10
57.9935
20
-45.6209
11
57.9935
21
-45.7791
0
LINE
8
Black
10
53.1935
20
-45.7791
11
52.7505
21
-45.7791
0
LINE
8
Black
10
52.7505
20
-45.7791
11
52.7505
21
-45.6209
0
LINE
8
Black
10
52.7505
20
-45.6209
11
53.1935
21
-45.6209
0
LINE
8
Black
10
53.1935
20
-45.6209
11
53.1935
21
-45.7791
0
LINE
8
Black
10
24.1645
20
-45.594
11
23.5315
21
-45.594
0
LINE
8
Black
10
23.5315
20
-45.594
11
23.5315
21
-45.056
0
LINE
8
Black
10
23.5315
20
-45.056
11
24.1645
21
-45.056
0
LINE
8
Black
10
24.1645
20
-45.056
11
24.1645
21
-45.594
0
LINE
8
Black
10
20.6645
20
-45.594
11
20.0315
21
-45.594
0
LINE
8
Black
10
20.0315
20
-45.594
11
20.0315
21
-45.056
0
LINE
8
Black
10
20.0315
20
-45.056
11
20.6645
21
-45.056
0
LINE
8
Black
10
20.6645
20
-45.056
11
20.6645
21
-45.594
0
LINE
8
Black
10
68.8685
20
-45.594
11
68.2355
21
-45.594
0
LINE
8
Black
10
68.2355
20
-45.594
11
68.2355
21
-45.056
0
LINE
8
Black
10
68.2355
20
-45.056
11
68.8685
21
-45.056
0
LINE
8
Black
10
68.8685
20
-45.056
11
68.8685
21
-45.594
0
LINE
8
Black
10
65.3685
20
-45.594
11
64.7355
21
-45.594
0
LINE
8
Black
10
64.7355
20
-45.594
11
64.7355
21
-45.056
0
LINE
8
Black
10
64.7355
20
-45.056
11
65.3685
21
-45.056
0
LINE
8
Black
10
65.3685
20
-45.056
11
65.3685
21
-45.594
0
LINE
8
Black
10
42.3187
20
-45.2791
11
42.0813
21
-45.2791
0
LINE
8
Black
10
42.0813
20
-45.2791
11
42.0813
21
-45.1209
0
LINE
8
Black
10
42.0813
20
-45.1209
11
42.3187
21
-45.1209
0
LINE
8
Black
10
42.3187
20
-45.1209
11
42.3187
21
-45.2791
0
LINE
8
Black
10
46.8187
20
-45.2791
11
46.5813
21
-45.2791
0
LINE
8
Black
10
46.5813
20
-45.2791
11
46.5813
21
-45.1209
0
LINE
8
Black
10
46.5813
20
-45.1209
11
46.8187
21
-45.1209
0
LINE
8
Black
10
46.8187
20
-45.1209
11
46.8187
21
-45.2791
0
LINE
8
Black
10
53.1935
20
-45.2791
11
52.7505
21
-45.2791
0
LINE
8
Black
10
52.7505
20
-45.2791
11
52.7505
21
-45.1209
0
LINE
8
Black
10
52.7505
20
-45.1209
11
53.1935
21
-45.1209
0
LINE
8
Black
10
53.1935
20
-45.1209
11
53.1935
21
-45.2791
0
LINE
8
Black
10
57.9935
20
-45.2791
11
57.5504
21
-45.2791
0
LINE
8
Black
10
57.5504
20
-45.2791
11
57.5504
21
-45.1209
0
LINE
8
Black
10
57.5504
20
-45.1209
11
57.9935
21
-45.1209
0
LINE
8
Black
10
57.9935
20
-45.1209
11
57.9935
21
-45.2791
0
LINE
8
Black
10
42.3187
20
-44.7791
11
42.0813
21
-44.7791
0
LINE
8
Black
10
42.0813
20
-44.7791
11
42.0813
21
-44.6209
0
LINE
8
Black
10
42.0813
20
-44.6209
11
42.3187
21
-44.6209
0
LINE
8
Black
10
42.3187
20
-44.6209
11
42.3187
21
-44.7791
0
LINE
8
Black
10
46.8187
20
-44.7791
11
46.5813
21
-44.7791
0
LINE
8
Black
10
46.5813
20
-44.7791
11
46.5813
21
-44.6209
0
LINE
8
Black
10
46.5813
20
-44.6209
11
46.8187
21
-44.6209
0
LINE
8
Black
10
46.8187
20
-44.6209
11
46.8187
21
-44.7791
0
LINE
8
Black
10
53.1935
20
-44.7791
11
52.7505
21
-44.7791
0
LINE
8
Black
10
52.7505
20
-44.7791
11
52.7505
21
-44.6209
0
LINE
8
Black
10
52.7505
20
-44.6209
11
53.1935
21
-44.6209
0
LINE
8
Black
10
53.1935
20
-44.6209
11
53.1935
21
-44.7791
0
LINE
8
Black
10
57.9935
20
-44.7791
11
57.5504
21
-44.7791
0
LINE
8
Black
10
57.5504
20
-44.7791
11
57.5504
21
-44.6209
0
LINE
8
Black
10
57.5504
20
-44.6209
11
57.9935
21
-44.6209
0
LINE
8
Black
10
57.9935
20
-44.6209
11
57.9935
21
-44.7791
0
LINE
8
Black
10
39.5282
20
-44.5549
11
39.2117
21
-44.5549
0
LINE
8
Black
10
39.2117
20
-44.5549
11
39.2117
21
-44.1751
0
LINE
8
Black
10
39.2117
20
-44.1751
11
39.5282
21
-44.1751
0
LINE
8
Black
10
39.5282
20
-44.1751
11
39.5282
21
-44.5549
0
LINE
8
Black
10
33.177
20
-44.321
11
31.911
21
-44.321
0
LINE
8
Black
10
31.911
20
-44.321
11
31.911
21
-43.055
0
LINE
8
Black
10
31.911
20
-43.055
11
33.177
21
-43.055
0
LINE
8
Black
10
33.177
20
-43.055
11
33.177
21
-44.321
0
LINE
8
Black
10
37.177
20
-44.321
11
35.911
21
-44.321
0
LINE
8
Black
10
35.911
20
-44.321
11
35.911
21
-43.055
0
LINE
8
Black
10
35.911
20
-43.055
11
37.177
21
-43.055
0
LINE
8
Black
10
37.177
20
-43.055
11
37.177
21
-44.321
0
LINE
8
Black
10
42.3187
20
-44.2791
11
42.0813
21
-44.2791
0
LINE
8
Black
10
42.0813
20
-44.2791
11
42.0813
21
-44.1209
0
LINE
8
Black
10
42.0813
20
-44.1209
11
42.3187
21
-44.1209
0
LINE
8
Black
10
42.3187
20
-44.1209
11
42.3187
21
-44.2791
0
LINE
8
Black
10
57.9935
20
-44.2791
11
57.5504
21
-44.2791
0
LINE
8
Black
10
57.5504
20
-44.2791
11
57.5504
21
-44.1209
0
LINE
8
Black
10
57.5504
20
-44.1209
11
57.9935
21
-44.1209
0
LINE
8
Black
10
57.9935
20
-44.1209
11
57.9935
21
-44.2791
0
LINE
8
Black
10
53.1935
20
-44.2791
11
52.7505
21
-44.2791
0
LINE
8
Black
10
52.7505
20
-44.2791
11
52.7505
21
-44.1209
0
LINE
8
Black
10
52.7505
20
-44.1209
11
53.1935
21
-44.1209
0
LINE
8
Black
10
53.1935
20
-44.1209
11
53.1935
21
-44.2791
0
LINE
8
Black
10
46.8187
20
-44.2791
11
46.5813
21
-44.2791
0
LINE
8
Black
10
46.5813
20
-44.2791
11
46.5813
21
-44.1209
0
LINE
8
Black
10
46.5813
20
-44.1209
11
46.8187
21
-44.1209
0
LINE
8
Black
10
46.8187
20
-44.1209
11
46.8187
21
-44.2791
0
LINE
8
Black
10
56.752
20
-44.105
11
55.717
21
-44.105
0
LINE
8
Black
10
55.717
20
-44.105
11
55.717
21
-43.07
0
LINE
8
Black
10
55.717
20
-43.07
11
56.752
21
-43.07
0
LINE
8
Black
10
56.752
20
-43.07
11
56.752
21
-44.105
0
LINE
8
Black
10
55.027
20
-44.105
11
53.992
21
-44.105
0
LINE
8
Black
10
53.992
20
-44.105
11
53.992
21
-43.07
0
LINE
8
Black
10
53.992
20
-43.07
11
55.027
21
-43.07
0
LINE
8
Black
10
55.027
20
-43.07
11
55.027
21
-44.105
0
LINE
8
Black
10
24.1645
20
-43.844
11
23.5315
21
-43.844
0
LINE
8
Black
10
23.5315
20
-43.844
11
23.5315
21
-43.306
0
LINE
8
Black
10
23.5315
20
-43.306
11
24.1645
21
-43.306
0
LINE
8
Black
10
24.1645
20
-43.306
11
24.1645
21
-43.844
0
LINE
8
Black
10
68.8685
20
-43.844
11
68.2355
21
-43.844
0
LINE
8
Black
10
68.2355
20
-43.844
11
68.2355
21
-43.306
0
LINE
8
Black
10
68.2355
20
-43.306
11
68.8685
21
-43.306
0
LINE
8
Black
10
68.8685
20
-43.306
11
68.8685
21
-43.844
0
LINE
8
Black
10
65.3685
20
-43.844
11
64.7355
21
-43.844
0
LINE
8
Black
10
64.7355
20
-43.844
11
64.7355
21
-43.306
0
LINE
8
Black
10
64.7355
20
-43.306
11
65.3685
21
-43.306
0
LINE
8
Black
10
65.3685
20
-43.306
11
65.3685
21
-43.844
0
LINE
8
Black
10
20.6645
20
-43.844
11
20.0315
21
-43.844
0
LINE
8
Black
10
20.0315
20
-43.844
11
20.0315
21
-43.306
0
LINE
8
Black
10
20.0315
20
-43.306
11
20.6645
21
-43.306
0
LINE
8
Black
10
20.6645
20
-43.306
11
20.6645
21
-43.844
0
LINE
8
Black
10
46.8187
20
-43.7791
11
46.5813
21
-43.7791
0
LINE
8
Black
10
46.5813
20
-43.7791
11
46.5813
21
-43.6209
0
LINE
8
Black
10
46.5813
20
-43.6209
11
46.8187
21
-43.6209
0
LINE
8
Black
10
46.8187
20
-43.6209
11
46.8187
21
-43.7791
0
LINE
8
Black
10
42.3187
20
-43.7791
11
42.0813
21
-43.7791
0
LINE
8
Black
10
42.0813
20
-43.7791
11
42.0813
21
-43.6209
0
LINE
8
Black
10
42.0813
20
-43.6209
11
42.3187
21
-43.6209
0
LINE
8
Black
10
42.3187
20
-43.6209
11
42.3187
21
-43.7791
0
LINE
8
Black
10
53.1935
20
-43.7791
11
52.7505
21
-43.7791
0
LINE
8
Black
10
52.7505
20
-43.7791
11
52.7505
21
-43.6209
0
LINE
8
Black
10
52.7505
20
-43.6209
11
53.1935
21
-43.6209
0
LINE
8
Black
10
53.1935
20
-43.6209
11
53.1935
21
-43.7791
0
LINE
8
Black
10
57.9935
20
-43.7791
11
57.5504
21
-43.7791
0
LINE
8
Black
10
57.5504
20
-43.7791
11
57.5504
21
-43.6209
0
LINE
8
Black
10
57.5504
20
-43.6209
11
57.9935
21
-43.6209
0
LINE
8
Black
10
57.9935
20
-43.6209
11
57.9935
21
-43.7791
0
LINE
8
Black
10
39.5282
20
-43.4549
11
39.2117
21
-43.4549
0
LINE
8
Black
10
39.2117
20
-43.4549
11
39.2117
21
-43.0751
0
LINE
8
Black
10
39.2117
20
-43.0751
11
39.5282
21
-43.0751
0
LINE
8
Black
10
39.5282
20
-43.0751
11
39.5282
21
-43.4549
0
LINE
8
Black
10
28.065
20
-43.337
11
26.799
21
-43.337
0
LINE
8
Black
10
26.799
20
-43.337
11
26.799
21
-42.071
0
LINE
8
Black
10
26.799
20
-42.071
11
28.065
21
-42.071
0
LINE
8
Black
10
28.065
20
-42.071
11
28.065
21
-43.337
0
LINE
8
Black
10
53.1935
20
-43.2791
11
52.7505
21
-43.2791
0
LINE
8
Black
10
52.7505
20
-43.2791
11
52.7505
21
-43.1209
0
LINE
8
Black
10
52.7505
20
-43.1209
11
53.1935
21
-43.1209
0
LINE
8
Black
10
53.1935
20
-43.1209
11
53.1935
21
-43.2791
0
LINE
8
Black
10
57.9935
20
-43.2791
11
57.5504
21
-43.2791
0
LINE
8
Black
10
57.5504
20
-43.2791
11
57.5504
21
-43.1209
0
LINE
8
Black
10
57.5504
20
-43.1209
11
57.9935
21
-43.1209
0
LINE
8
Black
10
57.9935
20
-43.1209
11
57.9935
21
-43.2791
0
LINE
8
Black
10
44.2791
20
-43.0378
11
44.1209
21
-43.0378
0
LINE
8
Black
10
44.1209
20
-43.0378
11
44.1209
21
-42.7372
0
LINE
8
Black
10
44.1209
20
-42.7372
11
44.2791
21
-42.7372
0
LINE
8
Black
10
44.2791
20
-42.7372
11
44.2791
21
-43.0378
0
LINE
8
Black
10
43.7791
20
-43.0378
11
43.6209
21
-43.0378
0
LINE
8
Black
10
43.6209
20
-43.0378
11
43.6209
21
-42.7372
0
LINE
8
Black
10
43.6209
20
-42.7372
11
43.7791
21
-42.7372
0
LINE
8
Black
10
43.7791
20
-42.7372
11
43.7791
21
-43.0378
0
LINE
8
Black
10
43.2791
20
-43.0378
11
43.1209
21
-43.0378
0
LINE
8
Black
10
43.1209
20
-43.0378
11
43.1209
21
-42.7372
0
LINE
8
Black
10
43.1209
20
-42.7372
11
43.2791
21
-42.7372
0
LINE
8
Black
10
43.2791
20
-42.7372
11
43.2791
21
-43.0378
0
LINE
8
Black
10
44.7791
20
-43.0378
11
44.6209
21
-43.0378
0
LINE
8
Black
10
44.6209
20
-43.0378
11
44.6209
21
-42.7372
0
LINE
8
Black
10
44.6209
20
-42.7372
11
44.7791
21
-42.7372
0
LINE
8
Black
10
44.7791
20
-42.7372
11
44.7791
21
-43.0378
0
LINE
8
Black
10
45.2791
20
-43.0378
11
45.1209
21
-43.0378
0
LINE
8
Black
10
45.1209
20
-43.0378
11
45.1209
21
-42.7372
0
LINE
8
Black
10
45.1209
20
-42.7372
11
45.2791
21
-42.7372
0
LINE
8
Black
10
45.2791
20
-42.7372
11
45.2791
21
-43.0378
0
LINE
8
Black
10
45.7791
20
-43.0378
11
45.6209
21
-43.0378
0
LINE
8
Black
10
45.6209
20
-43.0378
11
45.6209
21
-42.7372
0
LINE
8
Black
10
45.6209
20
-42.7372
11
45.7791
21
-42.7372
0
LINE
8
Black
10
45.7791
20
-42.7372
11
45.7791
21
-43.0378
0
LINE
8
Black
10
46.2791
20
-43.0378
11
46.1209
21
-43.0378
0
LINE
8
Black
10
46.1209
20
-43.0378
11
46.1209
21
-42.7372
0
LINE
8
Black
10
46.1209
20
-42.7372
11
46.2791
21
-42.7372
0
LINE
8
Black
10
46.2791
20
-42.7372
11
46.2791
21
-43.0378
0
LINE
8
Black
10
46.7791
20
-43.0378
11
46.6209
21
-43.0378
0
LINE
8
Black
10
46.6209
20
-43.0378
11
46.6209
21
-42.7372
0
LINE
8
Black
10
46.6209
20
-42.7372
11
46.7791
21
-42.7372
0
LINE
8
Black
10
46.7791
20
-42.7372
11
46.7791
21
-43.0378
0
LINE
8
Black
10
42.7791
20
-43.0378
11
42.6209
21
-43.0378
0
LINE
8
Black
10
42.6209
20
-43.0378
11
42.6209
21
-42.7372
0
LINE
8
Black
10
42.6209
20
-42.7372
11
42.7791
21
-42.7372
0
LINE
8
Black
10
42.7791
20
-42.7372
11
42.7791
21
-43.0378
0
LINE
8
Black
10
42.2791
20
-43.0378
11
42.1209
21
-43.0378
0
LINE
8
Black
10
42.1209
20
-43.0378
11
42.1209
21
-42.7372
0
LINE
8
Black
10
42.1209
20
-42.7372
11
42.2791
21
-42.7372
0
LINE
8
Black
10
42.2791
20
-42.7372
11
42.2791
21
-43.0378
0
LINE
8
Black
10
53.1935
20
-42.7791
11
52.7505
21
-42.7791
0
LINE
8
Black
10
52.7505
20
-42.7791
11
52.7505
21
-42.6209
0
LINE
8
Black
10
52.7505
20
-42.6209
11
53.1935
21
-42.6209
0
LINE
8
Black
10
53.1935
20
-42.6209
11
53.1935
21
-42.7791
0
LINE
8
Black
10
57.9935
20
-42.7791
11
57.5504
21
-42.7791
0
LINE
8
Black
10
57.5504
20
-42.7791
11
57.5504
21
-42.6209
0
LINE
8
Black
10
57.5504
20
-42.6209
11
57.9935
21
-42.6209
0
LINE
8
Black
10
57.9935
20
-42.6209
11
57.9935
21
-42.7791
0
LINE
8
Black
10
56.2011
20
-42.2715
11
56.0429
21
-42.2715
0
LINE
8
Black
10
56.0429
20
-42.2715
11
56.0429
21
-41.8284
0
LINE
8
Black
10
56.0429
20
-41.8284
11
56.2011
21
-41.8284
0
LINE
8
Black
10
56.2011
20
-41.8284
11
56.2011
21
-42.2715
0
LINE
8
Black
10
57.2011
20
-42.2715
11
57.0429
21
-42.2715
0
LINE
8
Black
10
57.0429
20
-42.2715
11
57.0429
21
-41.8284
0
LINE
8
Black
10
57.0429
20
-41.8284
11
57.2011
21
-41.8284
0
LINE
8
Black
10
57.2011
20
-41.8284
11
57.2011
21
-42.2715
0
LINE
8
Black
10
56.7011
20
-42.2715
11
56.5429
21
-42.2715
0
LINE
8
Black
10
56.5429
20
-42.2715
11
56.5429
21
-41.8284
0
LINE
8
Black
10
56.5429
20
-41.8284
11
56.7011
21
-41.8284
0
LINE
8
Black
10
56.7011
20
-41.8284
11
56.7011
21
-42.2715
0
LINE
8
Black
10
53.7011
20
-42.2715
11
53.5429
21
-42.2715
0
LINE
8
Black
10
53.5429
20
-42.2715
11
53.5429
21
-41.8284
0
LINE
8
Black
10
53.5429
20
-41.8284
11
53.7011
21
-41.8284
0
LINE
8
Black
10
53.7011
20
-41.8284
11
53.7011
21
-42.2715
0
LINE
8
Black
10
54.2011
20
-42.2715
11
54.0429
21
-42.2715
0
LINE
8
Black
10
54.0429
20
-42.2715
11
54.0429
21
-41.8284
0
LINE
8
Black
10
54.0429
20
-41.8284
11
54.2011
21
-41.8284
0
LINE
8
Black
10
54.2011
20
-41.8284
11
54.2011
21
-42.2715
0
LINE
8
Black
10
54.7011
20
-42.2715
11
54.5429
21
-42.2715
0
LINE
8
Black
10
54.5429
20
-42.2715
11
54.5429
21
-41.8284
0
LINE
8
Black
10
54.5429
20
-41.8284
11
54.7011
21
-41.8284
0
LINE
8
Black
10
54.7011
20
-41.8284
11
54.7011
21
-42.2715
0
LINE
8
Black
10
55.2011
20
-42.2715
11
55.0429
21
-42.2715
0
LINE
8
Black
10
55.0429
20
-42.2715
11
55.0429
21
-41.8284
0
LINE
8
Black
10
55.0429
20
-41.8284
11
55.2011
21
-41.8284
0
LINE
8
Black
10
55.2011
20
-41.8284
11
55.2011
21
-42.2715
0
LINE
8
Black
10
55.7011
20
-42.2715
11
55.5429
21
-42.2715
0
LINE
8
Black
10
55.5429
20
-42.2715
11
55.5429
21
-41.8284
0
LINE
8
Black
10
55.5429
20
-41.8284
11
55.7011
21
-41.8284
0
LINE
8
Black
10
55.7011
20
-41.8284
11
55.7011
21
-42.2715
0
LINE
8
Black
10
68.3459
20
-41.5602
11
67.9661
21
-41.5602
0
LINE
8
Black
10
67.9661
20
-41.5602
11
67.9661
21
-41.2437
0
LINE
8
Black
10
67.9661
20
-41.2437
11
68.3459
21
-41.2437
0
LINE
8
Black
10
68.3459
20
-41.2437
11
68.3459
21
-41.5602
0
LINE
8
Black
10
67.2459
20
-41.5602
11
66.8661
21
-41.5602
0
LINE
8
Black
10
66.8661
20
-41.5602
11
66.8661
21
-41.2437
0
LINE
8
Black
10
66.8661
20
-41.2437
11
67.2459
21
-41.2437
0
LINE
8
Black
10
67.2459
20
-41.2437
11
67.2459
21
-41.5602
0
LINE
8
Black
10
41.0419
20
-40.7982
11
40.6621
21
-40.7982
0
LINE
8
Black
10
40.6621
20
-40.7982
11
40.6621
21
-40.4817
0
LINE
8
Black
10
40.6621
20
-40.4817
11
41.0419
21
-40.4817
0
LINE
8
Black
10
41.0419
20
-40.4817
11
41.0419
21
-40.7982
0
LINE
8
Black
10
42.1419
20
-40.7982
11
41.7621
21
-40.7982
0
LINE
8
Black
10
41.7621
20
-40.7982
11
41.7621
21
-40.4817
0
LINE
8
Black
10
41.7621
20
-40.4817
11
42.1419
21
-40.4817
0
LINE
8
Black
10
42.1419
20
-40.4817
11
42.1419
21
-40.7982
0
LINE
8
Black
10
49.7002
20
-40.1628
11
49.3837
21
-40.1628
0
LINE
8
Black
10
49.3837
20
-40.1628
11
49.3837
21
-39.5932
0
LINE
8
Black
10
49.3837
20
-39.5932
11
49.7002
21
-39.5932
0
LINE
8
Black
10
49.7002
20
-39.5932
11
49.7002
21
-40.1628
0
LINE
8
Black
10
51.2002
20
-40.1628
11
50.8837
21
-40.1628
0
LINE
8
Black
10
50.8837
20
-40.1628
11
50.8837
21
-39.5932
0
LINE
8
Black
10
50.8837
20
-39.5932
11
51.2002
21
-39.5932
0
LINE
8
Black
10
51.2002
20
-39.5932
11
51.2002
21
-40.1628
0
LINE
8
Black
10
22.6344
20
-38.5415
11
22.5132
21
-38.8339
0
LINE
8
Black
10
22.5132
20
-38.8339
11
22.1624
21
-38.6886
0
LINE
8
Black
10
22.1624
20
-38.6886
11
22.2835
21
-38.3962
0
LINE
8
Black
10
22.2835
20
-38.3962
11
22.6344
21
-38.5415
0
LINE
8
Black
10
58.6212
20
-38.4474
11
57.9248
21
-38.4474
0
LINE
8
Black
10
57.9248
20
-38.4474
11
57.9248
21
-37.2447
0
LINE
8
Black
10
57.9248
20
-37.2447
11
58.6212
21
-37.2447
0
LINE
8
Black
10
58.6212
20
-37.2447
11
58.6212
21
-38.4474
0
LINE
8
Black
10
56.1212
20
-38.4474
11
55.4248
21
-38.4474
0
LINE
8
Black
10
55.4248
20
-38.4474
11
55.4248
21
-37.2447
0
LINE
8
Black
10
55.4248
20
-37.2447
11
56.1212
21
-37.2447
0
LINE
8
Black
10
56.1212
20
-37.2447
11
56.1212
21
-38.4474
0
LINE
8
Black
10
21.6181
20
-38.1206
11
21.497
21
-38.413
0
LINE
8
Black
10
21.497
20
-38.413
11
21.1461
21
-38.2676
0
LINE
8
Black
10
21.1461
20
-38.2676
11
21.2672
21
-37.9752
0
LINE
8
Black
10
21.2672
20
-37.9752
11
21.6181
21
-38.1206
0
LINE
8
Black
10
51.2439
20
-38.2582
11
50.8641
21
-38.2582
0
LINE
8
Black
10
50.8641
20
-38.2582
11
50.8641
21
-37.9417
0
LINE
8
Black
10
50.8641
20
-37.9417
11
51.2439
21
-37.9417
0
LINE
8
Black
10
51.2439
20
-37.9417
11
51.2439
21
-38.2582
0
LINE
8
Black
10
50.1439
20
-38.2582
11
49.7641
21
-38.2582
0
LINE
8
Black
10
49.7641
20
-38.2582
11
49.7641
21
-37.9417
0
LINE
8
Black
10
49.7641
20
-37.9417
11
50.1439
21
-37.9417
0
LINE
8
Black
10
50.1439
20
-37.9417
11
50.1439
21
-38.2582
0
LINE
8
Black
10
38.8925
20
-38.1948
11
38.2595
21
-38.1948
0
LINE
8
Black
10
38.2595
20
-38.1948
11
38.2595
21
-36.1692
0
LINE
8
Black
10
38.2595
20
-36.1692
11
38.8925
21
-36.1692
0
LINE
8
Black
10
38.8925
20
-36.1692
11
38.8925
21
-38.1948
0
LINE
8
Black
10
34.8925
20
-38.1948
11
34.2595
21
-38.1948
0
LINE
8
Black
10
34.2595
20
-38.1948
11
34.2595
21
-36.1692
0
LINE
8
Black
10
34.2595
20
-36.1692
11
34.8925
21
-36.1692
0
LINE
8
Black
10
34.8925
20
-36.1692
11
34.8925
21
-38.1948
0
LINE
8
Black
10
42.5322
20
-37.9393
11
41.8359
21
-37.9393
0
LINE
8
Black
10
41.8359
20
-37.9393
11
41.8359
21
-36.7366
0
LINE
8
Black
10
41.8359
20
-36.7366
11
42.5322
21
-36.7366
0
LINE
8
Black
10
42.5322
20
-36.7366
11
42.5322
21
-37.9393
0
LINE
8
Black
10
45.0322
20
-37.9393
11
44.3359
21
-37.9393
0
LINE
8
Black
10
44.3359
20
-37.9393
11
44.3359
21
-36.7366
0
LINE
8
Black
10
44.3359
20
-36.7366
11
45.0322
21
-36.7366
0
LINE
8
Black
10
45.0322
20
-36.7366
11
45.0322
21
-37.9393
0
LINE
8
Black
10
64.214
20
-37.5018
11
63.6292
21
-37.744
0
LINE
8
Black
10
63.6292
20
-37.744
11
63.4233
21
-37.2469
0
LINE
8
Black
10
63.4233
20
-37.2469
11
64.0081
21
-37.0047
0
LINE
8
Black
10
64.0081
20
-37.0047
11
64.214
21
-37.5018
0
LINE
8
Black
10
25.5067
20
-37.2469
11
25.3008
21
-37.744
0
LINE
8
Black
10
25.3008
20
-37.744
11
24.7159
21
-37.5018
0
LINE
8
Black
10
24.7159
20
-37.5018
11
24.9218
21
-37.0047
0
LINE
8
Black
10
24.9218
20
-37.0047
11
25.5067
21
-37.2469
0
LINE
8
Black
10
47.5108
20
-36.9305
11
46.9412
21
-36.9305
0
LINE
8
Black
10
46.9412
20
-36.9305
11
46.9412
21
-36.2975
0
LINE
8
Black
10
46.9412
20
-36.2975
11
47.5108
21
-36.2975
0
LINE
8
Black
10
47.5108
20
-36.2975
11
47.5108
21
-36.9305
0
LINE
8
Black
10
51.6108
20
-36.9305
11
51.0411
21
-36.9305
0
LINE
8
Black
10
51.0411
20
-36.9305
11
51.0411
21
-36.2975
0
LINE
8
Black
10
51.0411
20
-36.2975
11
51.6108
21
-36.2975
0
LINE
8
Black
10
51.6108
20
-36.2975
11
51.6108
21
-36.9305
0
LINE
8
Black
10
67.4476
20
-36.1624
11
66.8627
21
-36.4046
0
LINE
8
Black
10
66.8627
20
-36.4046
11
66.6568
21
-35.9075
0
LINE
8
Black
10
66.6568
20
-35.9075
11
67.2416
21
-35.6653
0
LINE
8
Black
10
67.2416
20
-35.6653
11
67.4476
21
-36.1624
0
LINE
8
Black
10
22.2731
20
-35.9075
11
22.0672
21
-36.4046
0
LINE
8
Black
10
22.0672
20
-36.4046
11
21.4824
21
-36.1624
0
LINE
8
Black
10
21.4824
20
-36.1624
11
21.6883
21
-35.6653
0
LINE
8
Black
10
21.6883
20
-35.6653
11
22.2731
21
-35.9075
0
LINE
8
Black
10
26.1764
20
-35.6301
11
25.9705
21
-36.1272
0
LINE
8
Black
10
25.9705
20
-36.1272
11
25.3856
21
-35.885
0
LINE
8
Black
10
25.3856
20
-35.885
11
25.5915
21
-35.3879
0
LINE
8
Black
10
25.5915
20
-35.3879
11
26.1764
21
-35.6301
0
LINE
8
Black
10
63.5443
20
-35.885
11
62.9595
21
-36.1272
0
LINE
8
Black
10
62.9595
20
-36.1272
11
62.7536
21
-35.6301
0
LINE
8
Black
10
62.7536
20
-35.6301
11
63.3384
21
-35.3879
0
LINE
8
Black
10
63.3384
20
-35.3879
11
63.5443
21
-35.885
0
LINE
8
Black
10
58.4312
20
-35.8569
11
58.1148
21
-35.8569
0
LINE
8
Black
10
58.1148
20
-35.8569
11
58.1148
21
-35.4771
0
LINE
8
Black
10
58.1148
20
-35.4771
11
58.4312
21
-35.4771
0
LINE
8
Black
10
58.4312
20
-35.4771
11
58.4312
21
-35.8569
0
LINE
8
Black
10
55.9312
20
-35.8569
11
55.6148
21
-35.8569
0
LINE
8
Black
10
55.6148
20
-35.8569
11
55.6148
21
-35.4771
0
LINE
8
Black
10
55.6148
20
-35.4771
11
55.9312
21
-35.4771
0
LINE
8
Black
10
55.9312
20
-35.4771
11
55.9312
21
-35.8569
0
LINE
8
Black
10
51.6108
20
-35.3305
11
51.0411
21
-35.3305
0
LINE
8
Black
10
51.0411
20
-35.3305
11
51.0411
21
-34.6975
0
LINE
8
Black
10
51.0411
20
-34.6975
11
51.6108
21
-34.6975
0
LINE
8
Black
10
51.6108
20
-34.6975
11
51.6108
21
-35.3305
0
LINE
8
Black
10
47.5108
20
-35.3305
11
46.9412
21
-35.3305
0
LINE
8
Black
10
46.9412
20
-35.3305
11
46.9412
21
-34.6975
0
LINE
8
Black
10
46.9412
20
-34.6975
11
47.5108
21
-34.6975
0
LINE
8
Black
10
47.5108
20
-34.6975
11
47.5108
21
-35.3305
0
LINE
8
Black
10
42.5762
20
-35.0299
11
42.2597
21
-35.0299
0
LINE
8
Black
10
42.2597
20
-35.0299
11
42.2597
21
-34.6501
0
LINE
8
Black
10
42.2597
20
-34.6501
11
42.5762
21
-34.6501
0
LINE
8
Black
10
42.5762
20
-34.6501
11
42.5762
21
-35.0299
0
LINE
8
Black
10
44.6082
20
-35.0299
11
44.2918
21
-35.0299
0
LINE
8
Black
10
44.2918
20
-35.0299
11
44.2918
21
-34.6501
0
LINE
8
Black
10
44.2918
20
-34.6501
11
44.6082
21
-34.6501
0
LINE
8
Black
10
44.6082
20
-34.6501
11
44.6082
21
-35.0299
0
LINE
8
Black
10
22.9428
20
-34.2907
11
22.7369
21
-34.7878
0
LINE
8
Black
10
22.7369
20
-34.7878
11
22.1521
21
-34.5456
0
LINE
8
Black
10
22.1521
20
-34.5456
11
22.358
21
-34.0485
0
LINE
8
Black
10
22.358
20
-34.0485
11
22.9428
21
-34.2907
0
LINE
8
Black
10
66.7779
20
-34.5456
11
66.193
21
-34.7878
0
LINE
8
Black
10
66.193
20
-34.7878
11
65.9871
21
-34.2907
0
LINE
8
Black
10
65.9871
20
-34.2907
11
66.572
21
-34.0485
0
LINE
8
Black
10
66.572
20
-34.0485
11
66.7779
21
-34.5456
0
LINE
8
Black
10
58.4312
20
-34.7569
11
58.1148
21
-34.7569
0
LINE
8
Black
10
58.1148
20
-34.7569
11
58.1148
21
-34.3771
0
LINE
8
Black
10
58.1148
20
-34.3771
11
58.4312
21
-34.3771
0
LINE
8
Black
10
58.4312
20
-34.3771
11
58.4312
21
-34.7569
0
LINE
8
Black
10
55.9312
20
-34.7569
11
55.6148
21
-34.7569
0
LINE
8
Black
10
55.6148
20
-34.7569
11
55.6148
21
-34.3771
0
LINE
8
Black
10
55.6148
20
-34.3771
11
55.9312
21
-34.3771
0
LINE
8
Black
10
55.9312
20
-34.3771
11
55.9312
21
-34.7569
0
LINE
8
Black
10
42.5762
20
-33.9299
11
42.2597
21
-33.9299
0
LINE
8
Black
10
42.2597
20
-33.9299
11
42.2597
21
-33.5501
0
LINE
8
Black
10
42.2597
20
-33.5501
11
42.5762
21
-33.5501
0
LINE
8
Black
10
42.5762
20
-33.5501
11
42.5762
21
-33.9299
0
LINE
8
Black
10
44.6082
20
-33.9299
11
44.2918
21
-33.9299
0
LINE
8
Black
10
44.2918
20
-33.9299
11
44.2918
21
-33.5501
0
LINE
8
Black
10
44.2918
20
-33.5501
11
44.6082
21
-33.5501
0
LINE
8
Black
10
44.6082
20
-33.5501
11
44.6082
21
-33.9299
0
LINE
8
Black
10
64.4048
20
-33.0566
11
64.0539
21
-33.2019
0
LINE
8
Black
10
64.0539
20
-33.2019
11
63.9328
21
-32.9095
0
LINE
8
Black
10
63.9328
20
-32.9095
11
64.2837
21
-32.7642
0
LINE
8
Black
10
64.2837
20
-32.7642
11
64.4048
21
-33.0566
0
LINE
8
Black
10
65.4211
20
-32.6357
11
65.0702
21
-32.781
0
LINE
8
Black
10
65.0702
20
-32.781
11
64.9491
21
-32.4886
0
LINE
8
Black
10
64.9491
20
-32.4886
11
65.3
21
-32.3432
0
LINE
8
Black
10
65.3
20
-32.3432
11
65.4211
21
-32.6357
0
LINE
8
Black
10
43.5868
20
-31.5265
11
41.5612
21
-31.5265
0
LINE
8
Black
10
41.5612
20
-31.5265
11
41.5612
21
-30.8935
0
LINE
8
Black
10
41.5612
20
-30.8935
11
43.5868
21
-30.8935
0
LINE
8
Black
10
43.5868
20
-30.8935
11
43.5868
21
-31.5265
0
LINE
8
Black
10
50.3868
20
-31.5265
11
48.3612
21
-31.5265
0
LINE
8
Black
10
48.3612
20
-31.5265
11
48.3612
21
-30.8935
0
LINE
8
Black
10
48.3612
20
-30.8935
11
50.3868
21
-30.8935
0
LINE
8
Black
10
50.3868
20
-30.8935
11
50.3868
21
-31.5265
0
LINE
8
Black
10
34.8925
20
-31.3948
11
34.2595
21
-31.3948
0
LINE
8
Black
10
34.2595
20
-31.3948
11
34.2595
21
-29.3692
0
LINE
8
Black
10
34.2595
20
-29.3692
11
34.8925
21
-29.3692
0
LINE
8
Black
10
34.8925
20
-29.3692
11
34.8925
21
-31.3948
0
LINE
8
Black
10
38.8925
20
-31.3948
11
38.2595
21
-31.3948
0
LINE
8
Black
10
38.2595
20
-31.3948
11
38.2595
21
-29.3692
0
LINE
8
Black
10
38.2595
20
-29.3692
11
38.8925
21
-29.3692
0
LINE
8
Black
10
38.8925
20
-29.3692
11
38.8925
21
-31.3948
0
LINE
8
Black
10
60.0506
20
-30.4673
11
59.603
21
-30.9149
0
LINE
8
Black
10
59.603
20
-30.9149
11
59.2225
21
-30.5345
0
LINE
8
Black
10
59.2225
20
-30.5345
11
59.6701
21
-30.0869
0
LINE
8
Black
10
59.6701
20
-30.0869
11
60.0506
21
-30.4673
0
LINE
8
Black
10
29.6775
20
-30.5345
11
29.297
21
-30.9149
0
LINE
8
Black
10
29.297
20
-30.9149
11
28.8494
21
-30.4673
0
LINE
8
Black
10
28.8494
20
-30.4673
11
29.2299
21
-30.0869
0
LINE
8
Black
10
29.2299
20
-30.0869
11
29.6775
21
-30.5345
0
LINE
8
Black
10
26.5561
20
-30.6428
11
26.3323
21
-30.8666
0
LINE
8
Black
10
26.3323
20
-30.8666
11
26.0637
21
-30.598
0
LINE
8
Black
10
26.0637
20
-30.598
11
26.2875
21
-30.3742
0
LINE
8
Black
10
26.2875
20
-30.3742
11
26.5561
21
-30.6428
0
LINE
8
Black
10
25.7782
20
-29.865
11
25.5544
21
-30.0888
0
LINE
8
Black
10
25.5544
20
-30.0888
11
25.2859
21
-29.8202
0
LINE
8
Black
10
25.2859
20
-29.8202
11
25.5097
21
-29.5964
0
LINE
8
Black
10
25.5097
20
-29.5964
11
25.7782
21
-29.865
0
LINE
8
Black
10
58.8131
20
-29.2299
11
58.3655
21
-29.6775
0
LINE
8
Black
10
58.3655
20
-29.6775
11
57.9851
21
-29.297
0
LINE
8
Black
10
57.9851
20
-29.297
11
58.4327
21
-28.8494
0
LINE
8
Black
10
58.4327
20
-28.8494
11
58.8131
21
-29.2299
0
LINE
8
Black
10
30.9149
20
-29.297
11
30.5345
21
-29.6775
0
LINE
8
Black
10
30.5345
20
-29.6775
11
30.0869
21
-29.2299
0
LINE
8
Black
10
30.0869
20
-29.2299
11
30.4673
21
-28.8494
0
LINE
8
Black
10
30.4673
20
-28.8494
11
30.9149
21
-29.297
0
LINE
8
Black
10
62.5254
20
-27.9925
11
62.0778
21
-28.4401
0
LINE
8
Black
10
62.0778
20
-28.4401
11
61.6974
21
-28.0596
0
LINE
8
Black
10
61.6974
20
-28.0596
11
62.145
21
-27.612
0
LINE
8
Black
10
62.145
20
-27.612
11
62.5254
21
-27.9925
0
LINE
8
Black
10
27.2026
20
-28.0596
11
26.8222
21
-28.4401
0
LINE
8
Black
10
26.8222
20
-28.4401
11
26.3746
21
-27.9925
0
LINE
8
Black
10
26.3746
20
-27.9925
11
26.755
21
-27.612
0
LINE
8
Black
10
26.755
20
-27.612
11
27.2026
21
-28.0596
0
LINE
8
Black
10
43.5868
20
-27.5265
11
41.5612
21
-27.5265
0
LINE
8
Black
10
41.5612
20
-27.5265
11
41.5612
21
-26.8935
0
LINE
8
Black
10
41.5612
20
-26.8935
11
43.5868
21
-26.8935
0
LINE
8
Black
10
43.5868
20
-26.8935
11
43.5868
21
-27.5265
0
LINE
8
Black
10
50.3868
20
-27.5265
11
48.3612
21
-27.5265
0
LINE
8
Black
10
48.3612
20
-27.5265
11
48.3612
21
-26.8935
0
LINE
8
Black
10
48.3612
20
-26.8935
11
50.3868
21
-26.8935
0
LINE
8
Black
10
50.3868
20
-26.8935
11
50.3868
21
-27.5265
0
LINE
8
Black
10
61.288
20
-26.755
11
60.8404
21
-27.2026
0
LINE
8
Black
10
60.8404
20
-27.2026
11
60.4599
21
-26.8222
0
LINE
8
Black
10
60.4599
20
-26.8222
11
60.9075
21
-26.3746
0
LINE
8
Black
10
60.9075
20
-26.3746
11
61.288
21
-26.755
0
LINE
8
Black
10
28.4401
20
-26.8222
11
28.0596
21
-27.2026
0
LINE
8
Black
10
28.0596
20
-27.2026
11
27.612
21
-26.755
0
LINE
8
Black
10
27.612
20
-26.755
11
27.9925
21
-26.3746
0
LINE
8
Black
10
27.9925
20
-26.3746
11
28.4401
21
-26.8222
0
LINE
8
Black
10
58.5258
20
-26.2875
11
58.2572
21
-26.5561
0
LINE
8
Black
10
58.2572
20
-26.5561
11
58.0334
21
-26.3323
0
LINE
8
Black
10
58.0334
20
-26.3323
11
58.302
21
-26.0637
0
LINE
8
Black
10
58.302
20
-26.0637
11
58.5258
21
-26.2875
0
LINE
8
Black
10
36.1272
20
-25.9405
11
35.6301
21
-26.1464
0
LINE
8
Black
10
35.6301
20
-26.1464
11
35.3879
21
-25.5616
0
LINE
8
Black
10
35.3879
20
-25.5616
11
35.885
21
-25.3557
0
LINE
8
Black
10
35.885
20
-25.3557
11
36.1272
21
-25.9405
0
LINE
8
Black
10
53.5121
20
-25.5616
11
53.2699
21
-26.1464
0
LINE
8
Black
10
53.2699
20
-26.1464
11
52.7728
21
-25.9405
0
LINE
8
Black
10
52.7728
20
-25.9405
11
53.015
21
-25.3557
0
LINE
8
Black
10
53.015
20
-25.3557
11
53.5121
21
-25.5616
0
LINE
8
Black
10
59.3036
20
-25.5097
11
59.035
21
-25.7782
0
LINE
8
Black
10
59.035
20
-25.7782
11
58.8112
21
-25.5544
0
LINE
8
Black
10
58.8112
20
-25.5544
11
59.0798
21
-25.2859
0
LINE
8
Black
10
59.0798
20
-25.2859
11
59.3036
21
-25.5097
0
LINE
8
Black
10
37.744
20
-25.2708
11
37.2469
21
-25.4767
0
LINE
8
Black
10
37.2469
20
-25.4767
11
37.0047
21
-24.8919
0
LINE
8
Black
10
37.0047
20
-24.8919
11
37.5018
21
-24.686
0
LINE
8
Black
10
37.5018
20
-24.686
11
37.744
21
-25.2708
0
LINE
8
Black
10
51.8953
20
-24.8919
11
51.6531
21
-25.4767
0
LINE
8
Black
10
51.6531
20
-25.4767
11
51.156
21
-25.2708
0
LINE
8
Black
10
51.156
20
-25.2708
11
51.3982
21
-24.686
0
LINE
8
Black
10
51.3982
20
-24.686
11
51.8953
21
-24.8919
0
LINE
8
Black
10
33.2019
20
-24.8461
11
32.9095
21
-24.9672
0
LINE
8
Black
10
32.9095
20
-24.9672
11
32.7642
21
-24.6163
0
LINE
8
Black
10
32.7642
20
-24.6163
11
33.0566
21
-24.4952
0
LINE
8
Black
10
33.0566
20
-24.4952
11
33.2019
21
-24.8461
0
LINE
8
Black
10
45.594
20
-24.1645
11
45.056
21
-24.1645
0
LINE
8
Black
10
45.056
20
-24.1645
11
45.056
21
-23.5315
0
LINE
8
Black
10
45.056
20
-23.5315
11
45.594
21
-23.5315
0
LINE
8
Black
10
45.594
20
-23.5315
11
45.594
21
-24.1645
0
LINE
8
Black
10
43.844
20
-24.1645
11
43.306
21
-24.1645
0
LINE
8
Black
10
43.306
20
-24.1645
11
43.306
21
-23.5315
0
LINE
8
Black
10
43.306
20
-23.5315
11
43.844
21
-23.5315
0
LINE
8
Black
10
43.844
20
-23.5315
11
43.844
21
-24.1645
0
LINE
8
Black
10
32.781
20
-23.8298
11
32.4886
21
-23.9509
0
LINE
8
Black
10
32.4886
20
-23.9509
11
32.3432
21
-23.6
0
LINE
8
Black
10
32.3432
20
-23.6
11
32.6357
21
-23.4789
0
LINE
8
Black
10
32.6357
20
-23.4789
11
32.781
21
-23.8298
0
LINE
8
Black
10
34.7878
20
-22.707
11
34.2907
21
-22.9129
0
LINE
8
Black
10
34.2907
20
-22.9129
11
34.0485
21
-22.328
0
LINE
8
Black
10
34.0485
20
-22.328
11
34.5456
21
-22.1221
0
LINE
8
Black
10
34.5456
20
-22.1221
11
34.7878
21
-22.707
0
LINE
8
Black
10
54.8515
20
-22.328
11
54.6093
21
-22.9129
0
LINE
8
Black
10
54.6093
20
-22.9129
11
54.1122
21
-22.707
0
LINE
8
Black
10
54.1122
20
-22.707
11
54.3544
21
-22.1221
0
LINE
8
Black
10
54.3544
20
-22.1221
11
54.8515
21
-22.328
0
LINE
8
Black
10
50.5038
20
-22.2835
11
50.3585
21
-22.6344
0
LINE
8
Black
10
50.3585
20
-22.6344
11
50.0661
21
-22.5132
0
LINE
8
Black
10
50.0661
20
-22.5132
11
50.2114
21
-22.1624
0
LINE
8
Black
10
50.2114
20
-22.1624
11
50.5038
21
-22.2835
0
LINE
8
Black
10
53.2347
20
-21.6584
11
52.9925
21
-22.2432
0
LINE
8
Black
10
52.9925
20
-22.2432
11
52.4954
21
-22.0373
0
LINE
8
Black
10
52.4954
20
-22.0373
11
52.7376
21
-21.4524
0
LINE
8
Black
10
52.7376
20
-21.4524
11
53.2347
21
-21.6584
0
LINE
8
Black
10
36.4046
20
-22.0373
11
35.9075
21
-22.2432
0
LINE
8
Black
10
35.9075
20
-22.2432
11
35.6653
21
-21.6584
0
LINE
8
Black
10
35.6653
20
-21.6584
11
36.1624
21
-21.4524
0
LINE
8
Black
10
36.1624
20
-21.4524
11
36.4046
21
-22.0373
0
LINE
8
Black
10
41.5602
20
-22.0339
11
41.2437
21
-22.0339
0
LINE
8
Black
10
41.2437
20
-22.0339
11
41.2437
21
-21.6541
0
LINE
8
Black
10
41.2437
20
-21.6541
11
41.5602
21
-21.6541
0
LINE
8
Black
10
41.5602
20
-21.6541
11
41.5602
21
-22.0339
0
LINE
8
Black
10
50.9248
20
-21.2672
11
50.7794
21
-21.6181
0
LINE
8
Black
10
50.7794
20
-21.6181
11
50.487
21
-21.497
0
LINE
8
Black
10
50.487
20
-21.497
11
50.6324
21
-21.1461
0
LINE
8
Black
10
50.6324
20
-21.1461
11
50.9248
21
-21.2672
0
LINE
8
Black
10
41.5602
20
-20.9339
11
41.2437
21
-20.9339
0
LINE
8
Black
10
41.2437
20
-20.9339
11
41.2437
21
-20.5541
0
LINE
8
Black
10
41.2437
20
-20.5541
11
41.5602
21
-20.5541
0
LINE
8
Black
10
41.5602
20
-20.5541
11
41.5602
21
-20.9339
0
LINE
8
Black
10
45.594
20
-20.6645
11
45.056
21
-20.6645
0
LINE
8
Black
10
45.056
20
-20.6645
11
45.056
21
-20.0315
0
LINE
8
Black
10
45.056
20
-20.0315
11
45.594
21
-20.0315
0
LINE
8
Black
10
45.594
20
-20.0315
11
45.594
21
-20.6645
0
LINE
8
Black
10
43.844
20
-20.6645
11
43.306
21
-20.6645
0
LINE
8
Black
10
43.306
20
-20.6645
11
43.306
21
-20.0315
0
LINE
8
Black
10
43.306
20
-20.0315
11
43.844
21
-20.0315
0
LINE
8
Black
10
43.844
20
-20.0315
11
43.844
21
-20.6645
  0
ENDSEC
  0
EOF
