M48
;DRILL file {KiCad 4.1.0-alpha+201608211231+7083~46~ubuntu16.04.1-product} date Fri Aug 26 12:21:53 2016
;FORMAT={-:-/ absolute / inch / decimal}
FMAT,2
INCH,TZ
T1C0.013
T2C0.015
T3C0.020
T4C0.020
T5C0.022
%
G90
G05
M72
T1
X3.9672Y-4.84
X3.9722Y-5.3
X4.0022Y-5.3
X4.0072Y-4.84
T2
X2.62Y-4.
X2.725Y-3.4719
X2.725Y-4.5281
X3.0242Y-3.0242
X3.0242Y-4.9758
X3.1Y-4.42
X3.4719Y-2.725
X3.4719Y-5.275
X3.55Y-4.925
X3.62Y-4.28
X3.67Y-4.28
X3.7502Y-5.5398
X3.7617Y-3.9817
X3.7754Y-4.85
X3.82Y-3.83
X3.9659Y-3.9859
X4.Y-2.62
X4.16Y-4.42
X4.17Y-4.65
X4.18Y-3.97
X4.19Y-4.52
X4.2Y-4.44
X4.22Y-3.93
X4.43Y-4.24
X4.5281Y-2.725
X4.5281Y-5.275
X4.62Y-4.24
X4.9758Y-3.0242
X4.9758Y-4.9758
X5.275Y-3.4719
X5.275Y-4.5281
X5.38Y-4.
T4
X2.4434Y-3.8221
X2.4939Y-4.4313
X2.63Y-3.24
X2.7736Y-4.9749
X3.0251Y-2.7736
X3.24Y-5.37
X3.245Y-4.265
X3.3528Y-4.1728
X3.37Y-4.375
X3.43Y-4.3055
X3.5687Y-2.4939
X3.575Y-4.695
X3.6383Y-4.5383
X3.64Y-4.11
X3.68Y-5.62
X3.83Y-4.3
X3.85Y-4.5505
X3.86Y-5.68
X3.94Y-5.34
X3.94Y-5.48
X3.99Y-4.64
X4.06Y-5.34
X4.06Y-5.48
X4.1779Y-2.4434
X4.4313Y-5.5061
X4.76Y-2.63
X4.9749Y-5.2264
X5.2264Y-3.0251
X5.37Y-4.76
X5.5061Y-3.5687
X5.5566Y-4.1779
T3
X3.8622Y-5.5276G85X3.8622Y-5.502
G05
X4.1378Y-5.5276G85X4.1378Y-5.502
G05
T5
X3.8956Y-5.4085G85X3.9074Y-5.4085
G05
X4.0925Y-5.4085G85X4.1043Y-5.4085
G05
T0
M30
