  0
SECTION
  2
HEADER
  9
$ANGBASE
  50
0.0
  9
$ANGDIR
  70
  1
  9
$MEASUREMENT
  70
0
  0
ENDSEC
  0
SECTION
  2
TABLES
  0
TABLE
  2
LTYPE
  70
1
  0
LTYPE
  2
CONTINUOUS
  70
0
  3
Solid line
  72
65
  73
0
  40
0.0
  0
ENDTAB
  0
TABLE
  2
STYLE
  70
4
  0
STYLE
  2
KICAD
  70
0
  40
0
  41
1
  42
1
  50
0
  71
0
  3
isocp.shx
  0
STYLE
  2
KICADB
  70
0
  40
0
  41
1
  42
1
  50
0
  71
0
  3
isocp.shx
  0
STYLE
  2
KICADI
  70
0
  40
0
  41
1
  42
1
  50
15
  71
0
  3
isocp.shx
  0
STYLE
  2
KICADBI
  70
0
  40
0
  41
1
  42
1
  50
15
  71
0
  3
isocp.shx
  0
ENDTAB
  0
TABLE
  2
LAYER
  70
30
  0
LAYER
  2
BLACK
  70
0
  62
7
  6
CONTINUOUS
  0
LAYER
  2
GRAY1
  70
0
  62
251
  6
CONTINUOUS
  0
LAYER
  2
GRAY2
  70
0
  62
8
  6
CONTINUOUS
  0
LAYER
  2
GRAY3
  70
0
  62
9
  6
CONTINUOUS
  0
LAYER
  2
WHITE
  70
0
  62
7
  6
CONTINUOUS
  0
LAYER
  2
LYELLOW
  70
0
  62
51
  6
CONTINUOUS
  0
LAYER
  2
BLUE1
  70
0
  62
178
  6
CONTINUOUS
  0
LAYER
  2
GREEN1
  70
0
  62
98
  6
CONTINUOUS
  0
LAYER
  2
CYAN1
  70
0
  62
138
  6
CONTINUOUS
  0
LAYER
  2
RED1
  70
0
  62
18
  6
CONTINUOUS
  0
LAYER
  2
MAGENTA1
  70
0
  62
228
  6
CONTINUOUS
  0
LAYER
  2
BROWN1
  70
0
  62
58
  6
CONTINUOUS
  0
LAYER
  2
BLUE2
  70
0
  62
5
  6
CONTINUOUS
  0
LAYER
  2
GREEN2
  70
0
  62
3
  6
CONTINUOUS
  0
LAYER
  2
CYAN2
  70
0
  62
4
  6
CONTINUOUS
  0
LAYER
  2
RED2
  70
0
  62
1
  6
CONTINUOUS
  0
LAYER
  2
MAGENTA2
  70
0
  62
6
  6
CONTINUOUS
  0
LAYER
  2
BROWN2
  70
0
  62
54
  6
CONTINUOUS
  0
LAYER
  2
BLUE3
  70
0
  62
171
  6
CONTINUOUS
  0
LAYER
  2
GREEN3
  70
0
  62
91
  6
CONTINUOUS
  0
LAYER
  2
CYAN3
  70
0
  62
131
  6
CONTINUOUS
  0
LAYER
  2
RED3
  70
0
  62
11
  6
CONTINUOUS
  0
LAYER
  2
MAGENTA3
  70
0
  62
221
  6
CONTINUOUS
  0
LAYER
  2
YELLOW3
  70
0
  62
2
  6
CONTINUOUS
  0
LAYER
  2
BLUE4
  70
0
  62
5
  6
CONTINUOUS
  0
LAYER
  2
GREEN4
  70
0
  62
3
  6
CONTINUOUS
  0
LAYER
  2
CYAN4
  70
0
  62
4
  6
CONTINUOUS
  0
LAYER
  2
RED4
  70
0
  62
1
  6
CONTINUOUS
  0
LAYER
  2
MAGENTA4
  70
0
  62
6
  6
CONTINUOUS
  0
LAYER
  2
YELLOW4
  70
0
  62
2
  6
CONTINUOUS
  0
ENDTAB
  0
ENDSEC
  0
SECTION
  2
ENTITIES
0
LINE
8
Black
10
43.844
20
-66.3285
11
43.306
21
-66.3285
0
LINE
8
Black
10
43.306
20
-66.3285
11
43.306
21
-65.6955
0
LINE
8
Black
10
43.306
20
-65.6955
11
43.844
21
-65.6955
0
LINE
8
Black
10
43.844
20
-65.6955
11
43.844
21
-66.3285
0
LINE
8
Black
10
45.594
20
-66.3285
11
45.056
21
-66.3285
0
LINE
8
Black
10
45.056
20
-66.3285
11
45.056
21
-65.6955
0
LINE
8
Black
10
45.056
20
-65.6955
11
45.594
21
-65.6955
0
LINE
8
Black
10
45.594
20
-65.6955
11
45.594
21
-66.3285
0
LINE
8
Black
10
39.385
20
-65.0564
11
39.2396
21
-65.4073
0
LINE
8
Black
10
39.2396
20
-65.4073
11
38.9472
21
-65.2861
0
LINE
8
Black
10
38.9472
20
-65.2861
11
39.0926
21
-64.9352
0
LINE
8
Black
10
39.0926
20
-64.9352
11
39.385
21
-65.0564
0
LINE
8
Black
10
52.2627
20
-64.895
11
51.7656
21
-65.1009
0
LINE
8
Black
10
51.7656
20
-65.1009
11
51.5234
21
-64.5161
0
LINE
8
Black
10
51.5234
20
-64.5161
11
52.0205
21
-64.3102
0
LINE
8
Black
10
52.0205
20
-64.3102
11
52.2627
21
-64.895
0
LINE
8
Black
10
37.3766
20
-64.5161
11
37.1344
21
-65.1009
0
LINE
8
Black
10
37.1344
20
-65.1009
11
36.6373
21
-64.895
0
LINE
8
Black
10
36.6373
20
-64.895
11
36.8795
21
-64.3102
0
LINE
8
Black
10
36.8795
20
-64.3102
11
37.3766
21
-64.5161
0
LINE
8
Black
10
49.8926
20
-64.8369
11
49.4261
21
-65.0301
0
LINE
8
Black
10
49.4261
20
-65.0301
11
49.2329
21
-64.5636
0
LINE
8
Black
10
49.2329
20
-64.5636
11
49.6994
21
-64.3704
0
LINE
8
Black
10
49.6994
20
-64.3704
11
49.8926
21
-64.8369
0
LINE
8
Black
10
35.7599
20
-63.8464
11
35.5176
21
-64.4312
0
LINE
8
Black
10
35.5176
20
-64.4312
11
35.0205
21
-64.2253
0
LINE
8
Black
10
35.0205
20
-64.2253
11
35.2628
21
-63.6405
0
LINE
8
Black
10
35.2628
20
-63.6405
11
35.7599
21
-63.8464
0
LINE
8
Black
10
53.8795
20
-64.2253
11
53.3824
21
-64.4312
0
LINE
8
Black
10
53.3824
20
-64.4312
11
53.1401
21
-63.8464
0
LINE
8
Black
10
53.1401
20
-63.8464
11
53.6372
21
-63.6405
0
LINE
8
Black
10
53.6372
20
-63.6405
11
53.8795
21
-64.2253
0
LINE
8
Black
10
39.8059
20
-64.0401
11
39.6606
21
-64.391
0
LINE
8
Black
10
39.6606
20
-64.391
11
39.3682
21
-64.2699
0
LINE
8
Black
10
39.3682
20
-64.2699
11
39.5135
21
-63.919
0
LINE
8
Black
10
39.5135
20
-63.919
11
39.8059
21
-64.0401
0
LINE
8
Black
10
49.3191
20
-63.4523
11
48.8526
21
-63.6456
0
LINE
8
Black
10
48.8526
20
-63.6456
11
48.6594
21
-63.1791
0
LINE
8
Black
10
48.6594
20
-63.1791
11
49.1259
21
-62.9859
0
LINE
8
Black
10
49.1259
20
-62.9859
11
49.3191
21
-63.4523
0
LINE
8
Black
10
55.5847
20
-62.9533
11
55.2923
21
-63.0744
0
LINE
8
Black
10
55.2923
20
-63.0744
11
55.147
21
-62.7235
0
LINE
8
Black
10
55.147
20
-62.7235
11
55.4394
21
-62.6024
0
LINE
8
Black
10
55.4394
20
-62.6024
11
55.5847
21
-62.9533
0
LINE
8
Black
10
43.844
20
-62.8285
11
43.306
21
-62.8285
0
LINE
8
Black
10
43.306
20
-62.8285
11
43.306
21
-62.1955
0
LINE
8
Black
10
43.306
20
-62.1955
11
43.844
21
-62.1955
0
LINE
8
Black
10
43.844
20
-62.1955
11
43.844
21
-62.8285
0
LINE
8
Black
10
45.594
20
-62.8285
11
45.056
21
-62.8285
0
LINE
8
Black
10
45.056
20
-62.8285
11
45.056
21
-62.1955
0
LINE
8
Black
10
45.056
20
-62.1955
11
45.594
21
-62.1955
0
LINE
8
Black
10
45.594
20
-62.1955
11
45.594
21
-62.8285
0
LINE
8
Black
10
55.1638
20
-61.937
11
54.8714
21
-62.0582
0
LINE
8
Black
10
54.8714
20
-62.0582
11
54.726
21
-61.7073
0
LINE
8
Black
10
54.726
20
-61.7073
11
55.0184
21
-61.5861
0
LINE
8
Black
10
55.0184
20
-61.5861
11
55.1638
21
-61.937
0
LINE
8
Black
10
38.716
20
-61.2825
11
38.4738
21
-61.8673
0
LINE
8
Black
10
38.4738
20
-61.8673
11
37.9767
21
-61.6614
0
LINE
8
Black
10
37.9767
20
-61.6614
11
38.2189
21
-61.0766
0
LINE
8
Black
10
38.2189
20
-61.0766
11
38.716
21
-61.2825
0
LINE
8
Black
10
50.9233
20
-61.6614
11
50.4262
21
-61.8673
0
LINE
8
Black
10
50.4262
20
-61.8673
11
50.184
21
-61.2825
0
LINE
8
Black
10
50.184
20
-61.2825
11
50.6811
21
-61.0766
0
LINE
8
Black
10
50.6811
20
-61.0766
11
50.9233
21
-61.6614
0
LINE
8
Black
10
31.8848
20
-61.5495
11
31.6163
21
-61.8181
0
LINE
8
Black
10
31.6163
20
-61.8181
11
31.3925
21
-61.5943
0
LINE
8
Black
10
31.3925
20
-61.5943
11
31.661
21
-61.3257
0
LINE
8
Black
10
31.661
20
-61.3257
11
31.8848
21
-61.5495
0
LINE
8
Black
10
37.0992
20
-60.6128
11
36.857
21
-61.1976
0
LINE
8
Black
10
36.857
20
-61.1976
11
36.3599
21
-60.9917
0
LINE
8
Black
10
36.3599
20
-60.9917
11
36.6022
21
-60.4069
0
LINE
8
Black
10
36.6022
20
-60.4069
11
37.0992
21
-60.6128
0
LINE
8
Black
10
52.5401
20
-60.9917
11
52.043
21
-61.1976
0
LINE
8
Black
10
52.043
20
-61.1976
11
51.8008
21
-60.6128
0
LINE
8
Black
10
51.8008
20
-60.6128
11
52.2978
21
-60.4069
0
LINE
8
Black
10
52.2978
20
-60.4069
11
52.5401
21
-60.9917
0
LINE
8
Black
10
32.6626
20
-60.7717
11
32.3941
21
-61.0402
0
LINE
8
Black
10
32.3941
20
-61.0402
11
32.1703
21
-60.8164
0
LINE
8
Black
10
32.1703
20
-60.8164
11
32.4388
21
-60.5479
0
LINE
8
Black
10
32.4388
20
-60.5479
11
32.6626
21
-60.7717
0
LINE
8
Black
10
30.2361
20
-60.2818
11
29.7885
21
-60.7294
0
LINE
8
Black
10
29.7885
20
-60.7294
11
29.4081
21
-60.3489
0
LINE
8
Black
10
29.4081
20
-60.3489
11
29.8557
21
-59.9013
0
LINE
8
Black
10
29.8557
20
-59.9013
11
30.2361
21
-60.2818
0
LINE
8
Black
10
59.4919
20
-60.3489
11
59.1115
21
-60.7294
0
LINE
8
Black
10
59.1115
20
-60.7294
11
58.6639
21
-60.2818
0
LINE
8
Black
10
58.6639
20
-60.2818
11
59.0443
21
-59.9013
0
LINE
8
Black
10
59.0443
20
-59.9013
11
59.4919
21
-60.3489
0
LINE
8
Black
10
43.8359
20
-60.1022
11
43.4561
21
-60.1022
0
LINE
8
Black
10
43.4561
20
-60.1022
11
43.4561
21
-59.7858
0
LINE
8
Black
10
43.4561
20
-59.7858
11
43.8359
21
-59.7858
0
LINE
8
Black
10
43.8359
20
-59.7858
11
43.8359
21
-60.1022
0
LINE
8
Black
10
44.9359
20
-60.1022
11
44.5561
21
-60.1022
0
LINE
8
Black
10
44.5561
20
-60.1022
11
44.5561
21
-59.7858
0
LINE
8
Black
10
44.5561
20
-59.7858
11
44.9359
21
-59.7858
0
LINE
8
Black
10
44.9359
20
-59.7858
11
44.9359
21
-60.1022
0
LINE
8
Black
10
28.9987
20
-59.0443
11
28.5511
21
-59.4919
0
LINE
8
Black
10
28.5511
20
-59.4919
11
28.1706
21
-59.1115
0
LINE
8
Black
10
28.1706
20
-59.1115
11
28.6182
21
-58.6639
0
LINE
8
Black
10
28.6182
20
-58.6639
11
28.9987
21
-59.0443
0
LINE
8
Black
10
60.7294
20
-59.1115
11
60.3489
21
-59.4919
0
LINE
8
Black
10
60.3489
20
-59.4919
11
59.9013
21
-59.0443
0
LINE
8
Black
10
59.9013
20
-59.0443
11
60.2818
21
-58.6639
0
LINE
8
Black
10
60.2818
20
-58.6639
11
60.7294
21
-59.1115
0
LINE
8
Black
10
49.4222
20
-58.9588
11
49.1058
21
-58.9588
0
LINE
8
Black
10
49.1058
20
-58.9588
11
49.1058
21
-58.3892
0
LINE
8
Black
10
49.1058
20
-58.3892
11
49.4222
21
-58.3892
0
LINE
8
Black
10
49.4222
20
-58.3892
11
49.4222
21
-58.9588
0
LINE
8
Black
10
47.9222
20
-58.9588
11
47.6058
21
-58.9588
0
LINE
8
Black
10
47.6058
20
-58.9588
11
47.6058
21
-58.3892
0
LINE
8
Black
10
47.6058
20
-58.3892
11
47.9222
21
-58.3892
0
LINE
8
Black
10
47.9222
20
-58.3892
11
47.9222
21
-58.9588
0
LINE
8
Black
10
52.7362
20
-58.6939
11
52.4198
21
-58.6939
0
LINE
8
Black
10
52.4198
20
-58.6939
11
52.4198
21
-58.3141
0
LINE
8
Black
10
52.4198
20
-58.3141
11
52.7362
21
-58.3141
0
LINE
8
Black
10
52.7362
20
-58.3141
11
52.7362
21
-58.6939
0
LINE
8
Black
10
32.711
20
-57.8069
11
32.2634
21
-58.2545
0
LINE
8
Black
10
32.2634
20
-58.2545
11
31.8829
21
-57.8741
0
LINE
8
Black
10
31.8829
20
-57.8741
11
32.3305
21
-57.4265
0
LINE
8
Black
10
32.3305
20
-57.4265
11
32.711
21
-57.8069
0
LINE
8
Black
10
57.0171
20
-57.8741
11
56.6366
21
-58.2545
0
LINE
8
Black
10
56.6366
20
-58.2545
11
56.189
21
-57.8069
0
LINE
8
Black
10
56.189
20
-57.8069
11
56.5695
21
-57.4265
0
LINE
8
Black
10
56.5695
20
-57.4265
11
57.0171
21
-57.8741
0
LINE
8
Black
10
37.1758
20
-58.017
11
34.9602
21
-58.017
0
LINE
8
Black
10
34.9602
20
-58.017
11
34.9602
21
-56.941
0
LINE
8
Black
10
34.9602
20
-56.941
11
37.1758
21
-56.941
0
LINE
8
Black
10
37.1758
20
-56.941
11
37.1758
21
-58.017
0
LINE
8
Black
10
52.7362
20
-57.5939
11
52.4198
21
-57.5939
0
LINE
8
Black
10
52.4198
20
-57.5939
11
52.4198
21
-57.2141
0
LINE
8
Black
10
52.4198
20
-57.2141
11
52.7362
21
-57.2141
0
LINE
8
Black
10
52.7362
20
-57.2141
11
52.7362
21
-57.5939
0
LINE
8
Black
10
61.8181
20
-57.2837
11
61.5943
21
-57.5075
0
LINE
8
Black
10
61.5943
20
-57.5075
11
61.3257
21
-57.239
0
LINE
8
Black
10
61.3257
20
-57.239
11
61.5495
21
-57.0152
0
LINE
8
Black
10
61.5495
20
-57.0152
11
61.8181
21
-57.2837
0
LINE
8
Black
10
31.4735
20
-56.5695
11
31.0259
21
-57.0171
0
LINE
8
Black
10
31.0259
20
-57.0171
11
30.6455
21
-56.6366
0
LINE
8
Black
10
30.6455
20
-56.6366
11
31.0931
21
-56.189
0
LINE
8
Black
10
31.0931
20
-56.189
11
31.4735
21
-56.5695
0
LINE
8
Black
10
58.2545
20
-56.6366
11
57.8741
21
-57.0171
0
LINE
8
Black
10
57.8741
20
-57.0171
11
57.4265
21
-56.5695
0
LINE
8
Black
10
57.4265
20
-56.5695
11
57.8069
21
-56.189
0
LINE
8
Black
10
57.8069
20
-56.189
11
58.2545
21
-56.6366
0
LINE
8
Black
10
48.2465
20
-56.9628
11
47.6135
21
-56.9628
0
LINE
8
Black
10
47.6135
20
-56.9628
11
47.6135
21
-56.3931
0
LINE
8
Black
10
47.6135
20
-56.3931
11
48.2465
21
-56.3931
0
LINE
8
Black
10
48.2465
20
-56.3931
11
48.2465
21
-56.9628
0
LINE
8
Black
10
49.8465
20
-56.9628
11
49.2135
21
-56.9628
0
LINE
8
Black
10
49.2135
20
-56.9628
11
49.2135
21
-56.3931
0
LINE
8
Black
10
49.2135
20
-56.3931
11
49.8465
21
-56.3931
0
LINE
8
Black
10
49.8465
20
-56.3931
11
49.8465
21
-56.9628
0
LINE
8
Black
10
41.4004
20
-56.8817
11
40.8956
21
-56.8817
0
LINE
8
Black
10
40.8956
20
-56.8817
11
40.8956
21
-56.3769
0
LINE
8
Black
10
40.8956
20
-56.3769
11
41.4004
21
-56.3769
0
LINE
8
Black
10
41.4004
20
-56.3769
11
41.4004
21
-56.8817
0
LINE
8
Black
10
54.9003
20
-56.3427
11
54.4259
21
-56.8172
0
LINE
8
Black
10
54.4259
20
-56.8172
11
54.1349
21
-56.5262
0
LINE
8
Black
10
54.1349
20
-56.5262
11
54.6094
21
-56.0518
0
LINE
8
Black
10
54.6094
20
-56.0518
11
54.9003
21
-56.3427
0
LINE
8
Black
10
61.0402
20
-56.5059
11
60.8164
21
-56.7297
0
LINE
8
Black
10
60.8164
20
-56.7297
11
60.5479
21
-56.4612
0
LINE
8
Black
10
60.5479
20
-56.4612
11
60.7717
21
-56.2374
0
LINE
8
Black
10
60.7717
20
-56.2374
11
61.0402
21
-56.5059
0
LINE
8
Black
10
26.2976
20
-55.4394
11
25.9467
21
-55.5847
0
LINE
8
Black
10
25.9467
20
-55.5847
11
25.8256
21
-55.2923
0
LINE
8
Black
10
25.8256
20
-55.2923
11
26.1765
21
-55.147
0
LINE
8
Black
10
26.1765
20
-55.147
11
26.2976
21
-55.4394
0
LINE
8
Black
10
53.5568
20
-54.9992
11
53.0824
21
-55.4737
0
LINE
8
Black
10
53.0824
20
-55.4737
11
52.7914
21
-55.1827
0
LINE
8
Black
10
52.7914
20
-55.1827
11
53.2659
21
-54.7083
0
LINE
8
Black
10
53.2659
20
-54.7083
11
53.5568
21
-54.9992
0
LINE
8
Black
10
41.4004
20
-55.3831
11
40.8956
21
-55.3831
0
LINE
8
Black
10
40.8956
20
-55.3831
11
40.8956
21
-54.8783
0
LINE
8
Black
10
40.8956
20
-54.8783
11
41.4004
21
-54.8783
0
LINE
8
Black
10
41.4004
20
-54.8783
11
41.4004
21
-55.3831
0
LINE
8
Black
10
56.456
20
-54.7871
11
55.9815
21
-55.2615
0
LINE
8
Black
10
55.9815
20
-55.2615
11
55.6906
21
-54.9706
0
LINE
8
Black
10
55.6906
20
-54.9706
11
56.165
21
-54.4962
0
LINE
8
Black
10
56.165
20
-54.4962
11
56.456
21
-54.7871
0
LINE
8
Black
10
27.3139
20
-55.0184
11
26.963
21
-55.1638
0
LINE
8
Black
10
26.963
20
-55.1638
11
26.8418
21
-54.8714
0
LINE
8
Black
10
26.8418
20
-54.8714
11
27.1927
21
-54.726
0
LINE
8
Black
10
27.1927
20
-54.726
11
27.3139
21
-55.0184
0
LINE
8
Black
10
55.7842
20
-54.1153
11
55.3098
21
-54.5898
0
LINE
8
Black
10
55.3098
20
-54.5898
11
55.0188
21
-54.2989
0
LINE
8
Black
10
55.0188
20
-54.2989
11
55.4933
21
-53.8244
0
LINE
8
Black
10
55.4933
20
-53.8244
11
55.7842
21
-54.1153
0
LINE
8
Black
10
55.1125
20
-53.4436
11
54.638
21
-53.918
0
LINE
8
Black
10
54.638
20
-53.918
11
54.3471
21
-53.6271
0
LINE
8
Black
10
54.3471
20
-53.6271
11
54.8215
21
-53.1526
0
LINE
8
Black
10
54.8215
20
-53.1526
11
55.1125
21
-53.4436
0
LINE
8
Black
10
25.2595
20
-53.6372
11
24.6747
21
-53.8795
0
LINE
8
Black
10
24.6747
20
-53.8795
11
24.4688
21
-53.3824
0
LINE
8
Black
10
24.4688
20
-53.3824
11
25.0536
21
-53.1401
0
LINE
8
Black
10
25.0536
20
-53.1401
11
25.2595
21
-53.6372
0
LINE
8
Black
10
64.4312
20
-53.3824
11
64.2253
21
-53.8795
0
LINE
8
Black
10
64.2253
20
-53.8795
11
63.6405
21
-53.6372
0
LINE
8
Black
10
63.6405
20
-53.6372
11
63.8464
21
-53.1401
0
LINE
8
Black
10
63.8464
20
-53.1401
11
64.4312
21
-53.3824
0
LINE
8
Black
10
49.8465
20
-52.8628
11
49.2135
21
-52.8628
0
LINE
8
Black
10
49.2135
20
-52.8628
11
49.2135
21
-52.2931
0
LINE
8
Black
10
49.2135
20
-52.2931
11
49.8465
21
-52.2931
0
LINE
8
Black
10
49.8465
20
-52.2931
11
49.8465
21
-52.8628
0
LINE
8
Black
10
48.2465
20
-52.8628
11
47.6135
21
-52.8628
0
LINE
8
Black
10
47.6135
20
-52.8628
11
47.6135
21
-52.2931
0
LINE
8
Black
10
47.6135
20
-52.2931
11
48.2465
21
-52.2931
0
LINE
8
Black
10
48.2465
20
-52.2931
11
48.2465
21
-52.8628
0
LINE
8
Black
10
37.1758
20
-52.7871
11
34.9602
21
-52.7871
0
LINE
8
Black
10
34.9602
20
-52.7871
11
34.9602
21
-51.7109
0
LINE
8
Black
10
34.9602
20
-51.7109
11
37.1758
21
-51.7109
0
LINE
8
Black
10
37.1758
20
-51.7109
11
37.1758
21
-52.7871
0
LINE
8
Black
10
61.1976
20
-52.043
11
60.9917
21
-52.5401
0
LINE
8
Black
10
60.9917
20
-52.5401
11
60.4069
21
-52.2978
0
LINE
8
Black
10
60.4069
20
-52.2978
11
60.6128
21
-51.8008
0
LINE
8
Black
10
60.6128
20
-51.8008
11
61.1976
21
-52.043
0
LINE
8
Black
10
28.4931
20
-52.2978
11
27.9083
21
-52.5401
0
LINE
8
Black
10
27.9083
20
-52.5401
11
27.7024
21
-52.043
0
LINE
8
Black
10
27.7024
20
-52.043
11
28.2872
21
-51.8008
0
LINE
8
Black
10
28.2872
20
-51.8008
11
28.4931
21
-52.2978
0
LINE
8
Black
10
65.1009
20
-51.7656
11
64.895
21
-52.2627
0
LINE
8
Black
10
64.895
20
-52.2627
11
64.3102
21
-52.0205
0
LINE
8
Black
10
64.3102
20
-52.0205
11
64.5161
21
-51.5234
0
LINE
8
Black
10
64.5161
20
-51.5234
11
65.1009
21
-51.7656
0
LINE
8
Black
10
24.5898
20
-52.0205
11
24.005
21
-52.2627
0
LINE
8
Black
10
24.005
20
-52.2627
11
23.7991
21
-51.7656
0
LINE
8
Black
10
23.7991
20
-51.7656
11
24.3839
21
-51.5234
0
LINE
8
Black
10
24.3839
20
-51.5234
11
24.5898
21
-52.0205
0
LINE
8
Black
10
42.4489
20
-52.2162
11
41.8791
21
-52.2162
0
LINE
8
Black
10
41.8791
20
-52.2162
11
41.8791
21
-51.8997
0
LINE
8
Black
10
41.8791
20
-51.8997
11
42.4489
21
-51.8997
0
LINE
8
Black
10
42.4489
20
-51.8997
11
42.4489
21
-52.2162
0
LINE
8
Black
10
61.8673
20
-50.4262
11
61.6614
21
-50.9233
0
LINE
8
Black
10
61.6614
20
-50.9233
11
61.0766
21
-50.6811
0
LINE
8
Black
10
61.0766
20
-50.6811
11
61.2825
21
-50.184
0
LINE
8
Black
10
61.2825
20
-50.184
11
61.8673
21
-50.4262
0
LINE
8
Black
10
27.8234
20
-50.6811
11
27.2386
21
-50.9233
0
LINE
8
Black
10
27.2386
20
-50.9233
11
27.0327
21
-50.4262
0
LINE
8
Black
10
27.0327
20
-50.4262
11
27.6175
21
-50.184
0
LINE
8
Black
10
27.6175
20
-50.184
11
27.8234
21
-50.6811
0
LINE
8
Black
10
42.4489
20
-50.7162
11
41.8791
21
-50.7162
0
LINE
8
Black
10
41.8791
20
-50.7162
11
41.8791
21
-50.3997
0
LINE
8
Black
10
41.8791
20
-50.3997
11
42.4489
21
-50.3997
0
LINE
8
Black
10
42.4489
20
-50.3997
11
42.4489
21
-50.7162
0
LINE
8
Black
10
65.4073
20
-49.6604
11
65.2861
21
-49.9528
0
LINE
8
Black
10
65.2861
20
-49.9528
11
64.9352
21
-49.8074
0
LINE
8
Black
10
64.9352
20
-49.8074
11
65.0564
21
-49.515
0
LINE
8
Black
10
65.0564
20
-49.515
11
65.4073
21
-49.6604
0
LINE
8
Black
10
52.9782
20
-49.8148
11
52.6617
21
-49.8148
0
LINE
8
Black
10
52.6617
20
-49.8148
11
52.6617
21
-49.2451
0
LINE
8
Black
10
52.6617
20
-49.2451
11
52.9782
21
-49.2451
0
LINE
8
Black
10
52.9782
20
-49.2451
11
52.9782
21
-49.8148
0
LINE
8
Black
10
51.4782
20
-49.8148
11
51.1617
21
-49.8148
0
LINE
8
Black
10
51.1617
20
-49.8148
11
51.1617
21
-49.2451
0
LINE
8
Black
10
51.1617
20
-49.2451
11
51.4782
21
-49.2451
0
LINE
8
Black
10
51.4782
20
-49.2451
11
51.4782
21
-49.8148
0
LINE
8
Black
10
49.5157
20
-49.7824
11
49.0109
21
-49.7824
0
LINE
8
Black
10
49.0109
20
-49.7824
11
49.0109
21
-49.2776
0
LINE
8
Black
10
49.0109
20
-49.2776
11
49.5157
21
-49.2776
0
LINE
8
Black
10
49.5157
20
-49.2776
11
49.5157
21
-49.7824
0
LINE
8
Black
10
48.0171
20
-49.7824
11
47.5123
21
-49.7824
0
LINE
8
Black
10
47.5123
20
-49.7824
11
47.5123
21
-49.2776
0
LINE
8
Black
10
47.5123
20
-49.2776
11
48.0171
21
-49.2776
0
LINE
8
Black
10
48.0171
20
-49.2776
11
48.0171
21
-49.7824
0
LINE
8
Black
10
37.8948
20
-49.6305
11
37.3252
21
-49.6305
0
LINE
8
Black
10
37.3252
20
-49.6305
11
37.3252
21
-48.9975
0
LINE
8
Black
10
37.3252
20
-48.9975
11
37.8948
21
-48.9975
0
LINE
8
Black
10
37.8948
20
-48.9975
11
37.8948
21
-49.6305
0
LINE
8
Black
10
33.7948
20
-49.6305
11
33.2251
21
-49.6305
0
LINE
8
Black
10
33.2251
20
-49.6305
11
33.2251
21
-48.9975
0
LINE
8
Black
10
33.2251
20
-48.9975
11
33.7948
21
-48.9975
0
LINE
8
Black
10
33.7948
20
-48.9975
11
33.7948
21
-49.6305
0
LINE
8
Black
10
64.391
20
-49.2394
11
64.2699
21
-49.5318
0
LINE
8
Black
10
64.2699
20
-49.5318
11
63.919
21
-49.3865
0
LINE
8
Black
10
63.919
20
-49.3865
11
64.0401
21
-49.0941
0
LINE
8
Black
10
64.0401
20
-49.0941
11
64.391
21
-49.2394
0
LINE
8
Black
10
43.8582
20
-48.7459
11
43.5418
21
-48.7459
0
LINE
8
Black
10
43.5418
20
-48.7459
11
43.5418
21
-48.3661
0
LINE
8
Black
10
43.5418
20
-48.3661
11
43.8582
21
-48.3661
0
LINE
8
Black
10
43.8582
20
-48.3661
11
43.8582
21
-48.7459
0
LINE
8
Black
10
33.7948
20
-48.0305
11
33.2251
21
-48.0305
0
LINE
8
Black
10
33.2251
20
-48.0305
11
33.2251
21
-47.3975
0
LINE
8
Black
10
33.2251
20
-47.3975
11
33.7948
21
-47.3975
0
LINE
8
Black
10
33.7948
20
-47.3975
11
33.7948
21
-48.0305
0
LINE
8
Black
10
37.8948
20
-48.0305
11
37.3252
21
-48.0305
0
LINE
8
Black
10
37.3252
20
-48.0305
11
37.3252
21
-47.3975
0
LINE
8
Black
10
37.3252
20
-47.3975
11
37.8948
21
-47.3975
0
LINE
8
Black
10
37.8948
20
-47.3975
11
37.8948
21
-48.0305
0
LINE
8
Black
10
24.5739
20
-47.6562
11
24.1941
21
-47.6562
0
LINE
8
Black
10
24.1941
20
-47.6562
11
24.1941
21
-47.3397
0
LINE
8
Black
10
24.1941
20
-47.3397
11
24.5739
21
-47.3397
0
LINE
8
Black
10
24.5739
20
-47.3397
11
24.5739
21
-47.6562
0
LINE
8
Black
10
23.4739
20
-47.6562
11
23.0941
21
-47.6562
0
LINE
8
Black
10
23.0941
20
-47.6562
11
23.0941
21
-47.3397
0
LINE
8
Black
10
23.0941
20
-47.3397
11
23.4739
21
-47.3397
0
LINE
8
Black
10
23.4739
20
-47.3397
11
23.4739
21
-47.6562
0
LINE
8
Black
10
43.8582
20
-47.6459
11
43.5418
21
-47.6459
0
LINE
8
Black
10
43.5418
20
-47.6459
11
43.5418
21
-47.2661
0
LINE
8
Black
10
43.5418
20
-47.2661
11
43.8582
21
-47.2661
0
LINE
8
Black
10
43.8582
20
-47.2661
11
43.8582
21
-47.6459
0
LINE
8
Black
10
50.3228
20
-47.1362
11
49.7531
21
-47.1362
0
LINE
8
Black
10
49.7531
20
-47.1362
11
49.7531
21
-46.8197
0
LINE
8
Black
10
49.7531
20
-46.8197
11
50.3228
21
-46.8197
0
LINE
8
Black
10
50.3228
20
-46.8197
11
50.3228
21
-47.1362
0
LINE
8
Black
10
55.7011
20
-47.0715
11
55.5429
21
-47.0715
0
LINE
8
Black
10
55.5429
20
-47.0715
11
55.5429
21
-46.6285
0
LINE
8
Black
10
55.5429
20
-46.6285
11
55.7011
21
-46.6285
0
LINE
8
Black
10
55.7011
20
-46.6285
11
55.7011
21
-47.0715
0
LINE
8
Black
10
57.2011
20
-47.0715
11
57.0429
21
-47.0715
0
LINE
8
Black
10
57.0429
20
-47.0715
11
57.0429
21
-46.6285
0
LINE
8
Black
10
57.0429
20
-46.6285
11
57.2011
21
-46.6285
0
LINE
8
Black
10
57.2011
20
-46.6285
11
57.2011
21
-47.0715
0
LINE
8
Black
10
56.7011
20
-47.0715
11
56.5429
21
-47.0715
0
LINE
8
Black
10
56.5429
20
-47.0715
11
56.5429
21
-46.6285
0
LINE
8
Black
10
56.5429
20
-46.6285
11
56.7011
21
-46.6285
0
LINE
8
Black
10
56.7011
20
-46.6285
11
56.7011
21
-47.0715
0
LINE
8
Black
10
56.2011
20
-47.0715
11
56.0429
21
-47.0715
0
LINE
8
Black
10
56.0429
20
-47.0715
11
56.0429
21
-46.6285
0
LINE
8
Black
10
56.0429
20
-46.6285
11
56.2011
21
-46.6285
0
LINE
8
Black
10
56.2011
20
-46.6285
11
56.2011
21
-47.0715
0
LINE
8
Black
10
55.2011
20
-47.0715
11
55.0429
21
-47.0715
0
LINE
8
Black
10
55.0429
20
-47.0715
11
55.0429
21
-46.6285
0
LINE
8
Black
10
55.0429
20
-46.6285
11
55.2011
21
-46.6285
0
LINE
8
Black
10
55.2011
20
-46.6285
11
55.2011
21
-47.0715
0
LINE
8
Black
10
54.7011
20
-47.0715
11
54.5429
21
-47.0715
0
LINE
8
Black
10
54.5429
20
-47.0715
11
54.5429
21
-46.6285
0
LINE
8
Black
10
54.5429
20
-46.6285
11
54.7011
21
-46.6285
0
LINE
8
Black
10
54.7011
20
-46.6285
11
54.7011
21
-47.0715
0
LINE
8
Black
10
54.2011
20
-47.0715
11
54.0429
21
-47.0715
0
LINE
8
Black
10
54.0429
20
-47.0715
11
54.0429
21
-46.6285
0
LINE
8
Black
10
54.0429
20
-46.6285
11
54.2011
21
-46.6285
0
LINE
8
Black
10
54.2011
20
-46.6285
11
54.2011
21
-47.0715
0
LINE
8
Black
10
53.7011
20
-47.0715
11
53.5429
21
-47.0715
0
LINE
8
Black
10
53.5429
20
-47.0715
11
53.5429
21
-46.6285
0
LINE
8
Black
10
53.5429
20
-46.6285
11
53.7011
21
-46.6285
0
LINE
8
Black
10
53.7011
20
-46.6285
11
53.7011
21
-47.0715
0
LINE
8
Black
10
60.6894
20
-46.4692
11
60.2146
21
-46.4692
0
LINE
8
Black
10
60.2146
20
-46.4692
11
60.2146
21
-45.9628
0
LINE
8
Black
10
60.2146
20
-45.9628
11
60.6894
21
-45.9628
0
LINE
8
Black
10
60.6894
20
-45.9628
11
60.6894
21
-46.4692
0
LINE
8
Black
10
57.9935
20
-46.2791
11
57.5504
21
-46.2791
0
LINE
8
Black
10
57.5504
20
-46.2791
11
57.5504
21
-46.1209
0
LINE
8
Black
10
57.5504
20
-46.1209
11
57.9935
21
-46.1209
0
LINE
8
Black
10
57.9935
20
-46.1209
11
57.9935
21
-46.2791
0
LINE
8
Black
10
53.1935
20
-46.2791
11
52.7505
21
-46.2791
0
LINE
8
Black
10
52.7505
20
-46.2791
11
52.7505
21
-46.1209
0
LINE
8
Black
10
52.7505
20
-46.1209
11
53.1935
21
-46.1209
0
LINE
8
Black
10
53.1935
20
-46.1209
11
53.1935
21
-46.2791
0
LINE
8
Black
10
43.2791
20
-46.1628
11
43.1209
21
-46.1628
0
LINE
8
Black
10
43.1209
20
-46.1628
11
43.1209
21
-45.8622
0
LINE
8
Black
10
43.1209
20
-45.8622
11
43.2791
21
-45.8622
0
LINE
8
Black
10
43.2791
20
-45.8622
11
43.2791
21
-46.1628
0
LINE
8
Black
10
42.2791
20
-46.1628
11
42.1209
21
-46.1628
0
LINE
8
Black
10
42.1209
20
-46.1628
11
42.1209
21
-45.8622
0
LINE
8
Black
10
42.1209
20
-45.8622
11
42.2791
21
-45.8622
0
LINE
8
Black
10
42.2791
20
-45.8622
11
42.2791
21
-46.1628
0
LINE
8
Black
10
42.7791
20
-46.1628
11
42.6209
21
-46.1628
0
LINE
8
Black
10
42.6209
20
-46.1628
11
42.6209
21
-45.8622
0
LINE
8
Black
10
42.6209
20
-45.8622
11
42.7791
21
-45.8622
0
LINE
8
Black
10
42.7791
20
-45.8622
11
42.7791
21
-46.1628
0
LINE
8
Black
10
46.7791
20
-46.1628
11
46.6209
21
-46.1628
0
LINE
8
Black
10
46.6209
20
-46.1628
11
46.6209
21
-45.8622
0
LINE
8
Black
10
46.6209
20
-45.8622
11
46.7791
21
-45.8622
0
LINE
8
Black
10
46.7791
20
-45.8622
11
46.7791
21
-46.1628
0
LINE
8
Black
10
46.2791
20
-46.1628
11
46.1209
21
-46.1628
0
LINE
8
Black
10
46.1209
20
-46.1628
11
46.1209
21
-45.8622
0
LINE
8
Black
10
46.1209
20
-45.8622
11
46.2791
21
-45.8622
0
LINE
8
Black
10
46.2791
20
-45.8622
11
46.2791
21
-46.1628
0
LINE
8
Black
10
45.7791
20
-46.1628
11
45.6209
21
-46.1628
0
LINE
8
Black
10
45.6209
20
-46.1628
11
45.6209
21
-45.8622
0
LINE
8
Black
10
45.6209
20
-45.8622
11
45.7791
21
-45.8622
0
LINE
8
Black
10
45.7791
20
-45.8622
11
45.7791
21
-46.1628
0
LINE
8
Black
10
45.2791
20
-46.1628
11
45.1209
21
-46.1628
0
LINE
8
Black
10
45.1209
20
-46.1628
11
45.1209
21
-45.8622
0
LINE
8
Black
10
45.1209
20
-45.8622
11
45.2791
21
-45.8622
0
LINE
8
Black
10
45.2791
20
-45.8622
11
45.2791
21
-46.1628
0
LINE
8
Black
10
44.7791
20
-46.1628
11
44.6209
21
-46.1628
0
LINE
8
Black
10
44.6209
20
-46.1628
11
44.6209
21
-45.8622
0
LINE
8
Black
10
44.6209
20
-45.8622
11
44.7791
21
-45.8622
0
LINE
8
Black
10
44.7791
20
-45.8622
11
44.7791
21
-46.1628
0
LINE
8
Black
10
44.2791
20
-46.1628
11
44.1209
21
-46.1628
0
LINE
8
Black
10
44.1209
20
-46.1628
11
44.1209
21
-45.8622
0
LINE
8
Black
10
44.1209
20
-45.8622
11
44.2791
21
-45.8622
0
LINE
8
Black
10
44.2791
20
-45.8622
11
44.2791
21
-46.1628
0
LINE
8
Black
10
43.7791
20
-46.1628
11
43.6209
21
-46.1628
0
LINE
8
Black
10
43.6209
20
-46.1628
11
43.6209
21
-45.8622
0
LINE
8
Black
10
43.6209
20
-45.8622
11
43.7791
21
-45.8622
0
LINE
8
Black
10
43.7791
20
-45.8622
11
43.7791
21
-46.1628
0
LINE
8
Black
10
55.027
20
-45.83
11
53.992
21
-45.83
0
LINE
8
Black
10
53.992
20
-45.83
11
53.992
21
-44.795
0
LINE
8
Black
10
53.992
20
-44.795
11
55.027
21
-44.795
0
LINE
8
Black
10
55.027
20
-44.795
11
55.027
21
-45.83
0
LINE
8
Black
10
56.752
20
-45.83
11
55.717
21
-45.83
0
LINE
8
Black
10
55.717
20
-45.83
11
55.717
21
-44.795
0
LINE
8
Black
10
55.717
20
-44.795
11
56.752
21
-44.795
0
LINE
8
Black
10
56.752
20
-44.795
11
56.752
21
-45.83
0
LINE
8
Black
10
53.1935
20
-45.7791
11
52.7505
21
-45.7791
0
LINE
8
Black
10
52.7505
20
-45.7791
11
52.7505
21
-45.6209
0
LINE
8
Black
10
52.7505
20
-45.6209
11
53.1935
21
-45.6209
0
LINE
8
Black
10
53.1935
20
-45.6209
11
53.1935
21
-45.7791
0
LINE
8
Black
10
57.9935
20
-45.7791
11
57.5504
21
-45.7791
0
LINE
8
Black
10
57.5504
20
-45.7791
11
57.5504
21
-45.6209
0
LINE
8
Black
10
57.5504
20
-45.6209
11
57.9935
21
-45.6209
0
LINE
8
Black
10
57.9935
20
-45.6209
11
57.9935
21
-45.7791
0
LINE
8
Black
10
50.3228
20
-45.6362
11
49.7531
21
-45.6362
0
LINE
8
Black
10
49.7531
20
-45.6362
11
49.7531
21
-45.3197
0
LINE
8
Black
10
49.7531
20
-45.3197
11
50.3228
21
-45.3197
0
LINE
8
Black
10
50.3228
20
-45.3197
11
50.3228
21
-45.6362
0
LINE
8
Black
10
23.2045
20
-45.594
11
22.5715
21
-45.594
0
LINE
8
Black
10
22.5715
20
-45.594
11
22.5715
21
-45.056
0
LINE
8
Black
10
22.5715
20
-45.056
11
23.2045
21
-45.056
0
LINE
8
Black
10
23.2045
20
-45.056
11
23.2045
21
-45.594
0
LINE
8
Black
10
62.8285
20
-45.594
11
62.1955
21
-45.594
0
LINE
8
Black
10
62.1955
20
-45.594
11
62.1955
21
-45.056
0
LINE
8
Black
10
62.1955
20
-45.056
11
62.8285
21
-45.056
0
LINE
8
Black
10
62.8285
20
-45.056
11
62.8285
21
-45.594
0
LINE
8
Black
10
26.7045
20
-45.594
11
26.0715
21
-45.594
0
LINE
8
Black
10
26.0715
20
-45.594
11
26.0715
21
-45.056
0
LINE
8
Black
10
26.0715
20
-45.056
11
26.7045
21
-45.056
0
LINE
8
Black
10
26.7045
20
-45.056
11
26.7045
21
-45.594
0
LINE
8
Black
10
66.3285
20
-45.594
11
65.6955
21
-45.594
0
LINE
8
Black
10
65.6955
20
-45.594
11
65.6955
21
-45.056
0
LINE
8
Black
10
65.6955
20
-45.056
11
66.3285
21
-45.056
0
LINE
8
Black
10
66.3285
20
-45.056
11
66.3285
21
-45.594
0
LINE
8
Black
10
46.8187
20
-45.2791
11
46.5813
21
-45.2791
0
LINE
8
Black
10
46.5813
20
-45.2791
11
46.5813
21
-45.1209
0
LINE
8
Black
10
46.5813
20
-45.1209
11
46.8187
21
-45.1209
0
LINE
8
Black
10
46.8187
20
-45.1209
11
46.8187
21
-45.2791
0
LINE
8
Black
10
42.3187
20
-45.2791
11
42.0813
21
-45.2791
0
LINE
8
Black
10
42.0813
20
-45.2791
11
42.0813
21
-45.1209
0
LINE
8
Black
10
42.0813
20
-45.1209
11
42.3187
21
-45.1209
0
LINE
8
Black
10
42.3187
20
-45.1209
11
42.3187
21
-45.2791
0
LINE
8
Black
10
53.1935
20
-45.2791
11
52.7505
21
-45.2791
0
LINE
8
Black
10
52.7505
20
-45.2791
11
52.7505
21
-45.1209
0
LINE
8
Black
10
52.7505
20
-45.1209
11
53.1935
21
-45.1209
0
LINE
8
Black
10
53.1935
20
-45.1209
11
53.1935
21
-45.2791
0
LINE
8
Black
10
57.9935
20
-45.2791
11
57.5504
21
-45.2791
0
LINE
8
Black
10
57.5504
20
-45.2791
11
57.5504
21
-45.1209
0
LINE
8
Black
10
57.5504
20
-45.1209
11
57.9935
21
-45.1209
0
LINE
8
Black
10
57.9935
20
-45.1209
11
57.9935
21
-45.2791
0
LINE
8
Black
10
60.6894
20
-44.9692
11
60.2146
21
-44.9692
0
LINE
8
Black
10
60.2146
20
-44.9692
11
60.2146
21
-44.4628
0
LINE
8
Black
10
60.2146
20
-44.4628
11
60.6894
21
-44.4628
0
LINE
8
Black
10
60.6894
20
-44.4628
11
60.6894
21
-44.9692
0
LINE
8
Black
10
53.1935
20
-44.7791
11
52.7505
21
-44.7791
0
LINE
8
Black
10
52.7505
20
-44.7791
11
52.7505
21
-44.6209
0
LINE
8
Black
10
52.7505
20
-44.6209
11
53.1935
21
-44.6209
0
LINE
8
Black
10
53.1935
20
-44.6209
11
53.1935
21
-44.7791
0
LINE
8
Black
10
57.9935
20
-44.7791
11
57.5504
21
-44.7791
0
LINE
8
Black
10
57.5504
20
-44.7791
11
57.5504
21
-44.6209
0
LINE
8
Black
10
57.5504
20
-44.6209
11
57.9935
21
-44.6209
0
LINE
8
Black
10
57.9935
20
-44.6209
11
57.9935
21
-44.7791
0
LINE
8
Black
10
42.3187
20
-44.7791
11
42.0813
21
-44.7791
0
LINE
8
Black
10
42.0813
20
-44.7791
11
42.0813
21
-44.6209
0
LINE
8
Black
10
42.0813
20
-44.6209
11
42.3187
21
-44.6209
0
LINE
8
Black
10
42.3187
20
-44.6209
11
42.3187
21
-44.7791
0
LINE
8
Black
10
46.8187
20
-44.7791
11
46.5813
21
-44.7791
0
LINE
8
Black
10
46.5813
20
-44.7791
11
46.5813
21
-44.6209
0
LINE
8
Black
10
46.5813
20
-44.6209
11
46.8187
21
-44.6209
0
LINE
8
Black
10
46.8187
20
-44.6209
11
46.8187
21
-44.7791
0
LINE
8
Black
10
48.6718
20
-44.5842
11
48.1021
21
-44.5842
0
LINE
8
Black
10
48.1021
20
-44.5842
11
48.1021
21
-44.2677
0
LINE
8
Black
10
48.1021
20
-44.2677
11
48.6718
21
-44.2677
0
LINE
8
Black
10
48.6718
20
-44.2677
11
48.6718
21
-44.5842
0
LINE
8
Black
10
39.5282
20
-44.5549
11
39.2117
21
-44.5549
0
LINE
8
Black
10
39.2117
20
-44.5549
11
39.2117
21
-44.1751
0
LINE
8
Black
10
39.2117
20
-44.1751
11
39.5282
21
-44.1751
0
LINE
8
Black
10
39.5282
20
-44.1751
11
39.5282
21
-44.5549
0
LINE
8
Black
10
33.177
20
-44.321
11
31.911
21
-44.321
0
LINE
8
Black
10
31.911
20
-44.321
11
31.911
21
-43.055
0
LINE
8
Black
10
31.911
20
-43.055
11
33.177
21
-43.055
0
LINE
8
Black
10
33.177
20
-43.055
11
33.177
21
-44.321
0
LINE
8
Black
10
37.177
20
-44.321
11
35.911
21
-44.321
0
LINE
8
Black
10
35.911
20
-44.321
11
35.911
21
-43.055
0
LINE
8
Black
10
35.911
20
-43.055
11
37.177
21
-43.055
0
LINE
8
Black
10
37.177
20
-43.055
11
37.177
21
-44.321
0
LINE
8
Black
10
42.3187
20
-44.2791
11
42.0813
21
-44.2791
0
LINE
8
Black
10
42.0813
20
-44.2791
11
42.0813
21
-44.1209
0
LINE
8
Black
10
42.0813
20
-44.1209
11
42.3187
21
-44.1209
0
LINE
8
Black
10
42.3187
20
-44.1209
11
42.3187
21
-44.2791
0
LINE
8
Black
10
46.8187
20
-44.2791
11
46.5813
21
-44.2791
0
LINE
8
Black
10
46.5813
20
-44.2791
11
46.5813
21
-44.1209
0
LINE
8
Black
10
46.5813
20
-44.1209
11
46.8187
21
-44.1209
0
LINE
8
Black
10
46.8187
20
-44.1209
11
46.8187
21
-44.2791
0
LINE
8
Black
10
53.1935
20
-44.2791
11
52.7505
21
-44.2791
0
LINE
8
Black
10
52.7505
20
-44.2791
11
52.7505
21
-44.1209
0
LINE
8
Black
10
52.7505
20
-44.1209
11
53.1935
21
-44.1209
0
LINE
8
Black
10
53.1935
20
-44.1209
11
53.1935
21
-44.2791
0
LINE
8
Black
10
57.9935
20
-44.2791
11
57.5504
21
-44.2791
0
LINE
8
Black
10
57.5504
20
-44.2791
11
57.5504
21
-44.1209
0
LINE
8
Black
10
57.5504
20
-44.1209
11
57.9935
21
-44.1209
0
LINE
8
Black
10
57.9935
20
-44.1209
11
57.9935
21
-44.2791
0
LINE
8
Black
10
56.752
20
-44.105
11
55.717
21
-44.105
0
LINE
8
Black
10
55.717
20
-44.105
11
55.717
21
-43.07
0
LINE
8
Black
10
55.717
20
-43.07
11
56.752
21
-43.07
0
LINE
8
Black
10
56.752
20
-43.07
11
56.752
21
-44.105
0
LINE
8
Black
10
55.027
20
-44.105
11
53.992
21
-44.105
0
LINE
8
Black
10
53.992
20
-44.105
11
53.992
21
-43.07
0
LINE
8
Black
10
53.992
20
-43.07
11
55.027
21
-43.07
0
LINE
8
Black
10
55.027
20
-43.07
11
55.027
21
-44.105
0
LINE
8
Black
10
23.2045
20
-43.844
11
22.5715
21
-43.844
0
LINE
8
Black
10
22.5715
20
-43.844
11
22.5715
21
-43.306
0
LINE
8
Black
10
22.5715
20
-43.306
11
23.2045
21
-43.306
0
LINE
8
Black
10
23.2045
20
-43.306
11
23.2045
21
-43.844
0
LINE
8
Black
10
26.7045
20
-43.844
11
26.0715
21
-43.844
0
LINE
8
Black
10
26.0715
20
-43.844
11
26.0715
21
-43.306
0
LINE
8
Black
10
26.0715
20
-43.306
11
26.7045
21
-43.306
0
LINE
8
Black
10
26.7045
20
-43.306
11
26.7045
21
-43.844
0
LINE
8
Black
10
66.3285
20
-43.844
11
65.6955
21
-43.844
0
LINE
8
Black
10
65.6955
20
-43.844
11
65.6955
21
-43.306
0
LINE
8
Black
10
65.6955
20
-43.306
11
66.3285
21
-43.306
0
LINE
8
Black
10
66.3285
20
-43.306
11
66.3285
21
-43.844
0
LINE
8
Black
10
62.8285
20
-43.844
11
62.1955
21
-43.844
0
LINE
8
Black
10
62.1955
20
-43.844
11
62.1955
21
-43.306
0
LINE
8
Black
10
62.1955
20
-43.306
11
62.8285
21
-43.306
0
LINE
8
Black
10
62.8285
20
-43.306
11
62.8285
21
-43.844
0
LINE
8
Black
10
42.3187
20
-43.7791
11
42.0813
21
-43.7791
0
LINE
8
Black
10
42.0813
20
-43.7791
11
42.0813
21
-43.6209
0
LINE
8
Black
10
42.0813
20
-43.6209
11
42.3187
21
-43.6209
0
LINE
8
Black
10
42.3187
20
-43.6209
11
42.3187
21
-43.7791
0
LINE
8
Black
10
46.8187
20
-43.7791
11
46.5813
21
-43.7791
0
LINE
8
Black
10
46.5813
20
-43.7791
11
46.5813
21
-43.6209
0
LINE
8
Black
10
46.5813
20
-43.6209
11
46.8187
21
-43.6209
0
LINE
8
Black
10
46.8187
20
-43.6209
11
46.8187
21
-43.7791
0
LINE
8
Black
10
53.1935
20
-43.7791
11
52.7505
21
-43.7791
0
LINE
8
Black
10
52.7505
20
-43.7791
11
52.7505
21
-43.6209
0
LINE
8
Black
10
52.7505
20
-43.6209
11
53.1935
21
-43.6209
0
LINE
8
Black
10
53.1935
20
-43.6209
11
53.1935
21
-43.7791
0
LINE
8
Black
10
57.9935
20
-43.7791
11
57.5504
21
-43.7791
0
LINE
8
Black
10
57.5504
20
-43.7791
11
57.5504
21
-43.6209
0
LINE
8
Black
10
57.5504
20
-43.6209
11
57.9935
21
-43.6209
0
LINE
8
Black
10
57.9935
20
-43.6209
11
57.9935
21
-43.7791
0
LINE
8
Black
10
39.5282
20
-43.4549
11
39.2117
21
-43.4549
0
LINE
8
Black
10
39.2117
20
-43.4549
11
39.2117
21
-43.0751
0
LINE
8
Black
10
39.2117
20
-43.0751
11
39.5282
21
-43.0751
0
LINE
8
Black
10
39.5282
20
-43.0751
11
39.5282
21
-43.4549
0
LINE
8
Black
10
60.6103
20
-43.4119
11
60.2937
21
-43.4119
0
LINE
8
Black
10
60.2937
20
-43.4119
11
60.2937
21
-43.0321
0
LINE
8
Black
10
60.2937
20
-43.0321
11
60.6103
21
-43.0321
0
LINE
8
Black
10
60.6103
20
-43.0321
11
60.6103
21
-43.4119
0
LINE
8
Black
10
53.1935
20
-43.2791
11
52.7505
21
-43.2791
0
LINE
8
Black
10
52.7505
20
-43.2791
11
52.7505
21
-43.1209
0
LINE
8
Black
10
52.7505
20
-43.1209
11
53.1935
21
-43.1209
0
LINE
8
Black
10
53.1935
20
-43.1209
11
53.1935
21
-43.2791
0
LINE
8
Black
10
57.9935
20
-43.2791
11
57.5504
21
-43.2791
0
LINE
8
Black
10
57.5504
20
-43.2791
11
57.5504
21
-43.1209
0
LINE
8
Black
10
57.5504
20
-43.1209
11
57.9935
21
-43.1209
0
LINE
8
Black
10
57.9935
20
-43.1209
11
57.9935
21
-43.2791
0
LINE
8
Black
10
51.7203
20
-43.1579
11
51.4037
21
-43.1579
0
LINE
8
Black
10
51.4037
20
-43.1579
11
51.4037
21
-42.7781
0
LINE
8
Black
10
51.4037
20
-42.7781
11
51.7203
21
-42.7781
0
LINE
8
Black
10
51.7203
20
-42.7781
11
51.7203
21
-43.1579
0
LINE
8
Black
10
48.6718
20
-43.0842
11
48.1021
21
-43.0842
0
LINE
8
Black
10
48.1021
20
-43.0842
11
48.1021
21
-42.7677
0
LINE
8
Black
10
48.1021
20
-42.7677
11
48.6718
21
-42.7677
0
LINE
8
Black
10
48.6718
20
-42.7677
11
48.6718
21
-43.0842
0
LINE
8
Black
10
43.7791
20
-43.0378
11
43.6209
21
-43.0378
0
LINE
8
Black
10
43.6209
20
-43.0378
11
43.6209
21
-42.7372
0
LINE
8
Black
10
43.6209
20
-42.7372
11
43.7791
21
-42.7372
0
LINE
8
Black
10
43.7791
20
-42.7372
11
43.7791
21
-43.0378
0
LINE
8
Black
10
45.7791
20
-43.0378
11
45.6209
21
-43.0378
0
LINE
8
Black
10
45.6209
20
-43.0378
11
45.6209
21
-42.7372
0
LINE
8
Black
10
45.6209
20
-42.7372
11
45.7791
21
-42.7372
0
LINE
8
Black
10
45.7791
20
-42.7372
11
45.7791
21
-43.0378
0
LINE
8
Black
10
46.2791
20
-43.0378
11
46.1209
21
-43.0378
0
LINE
8
Black
10
46.1209
20
-43.0378
11
46.1209
21
-42.7372
0
LINE
8
Black
10
46.1209
20
-42.7372
11
46.2791
21
-42.7372
0
LINE
8
Black
10
46.2791
20
-42.7372
11
46.2791
21
-43.0378
0
LINE
8
Black
10
46.7791
20
-43.0378
11
46.6209
21
-43.0378
0
LINE
8
Black
10
46.6209
20
-43.0378
11
46.6209
21
-42.7372
0
LINE
8
Black
10
46.6209
20
-42.7372
11
46.7791
21
-42.7372
0
LINE
8
Black
10
46.7791
20
-42.7372
11
46.7791
21
-43.0378
0
LINE
8
Black
10
45.2791
20
-43.0378
11
45.1209
21
-43.0378
0
LINE
8
Black
10
45.1209
20
-43.0378
11
45.1209
21
-42.7372
0
LINE
8
Black
10
45.1209
20
-42.7372
11
45.2791
21
-42.7372
0
LINE
8
Black
10
45.2791
20
-42.7372
11
45.2791
21
-43.0378
0
LINE
8
Black
10
44.7791
20
-43.0378
11
44.6209
21
-43.0378
0
LINE
8
Black
10
44.6209
20
-43.0378
11
44.6209
21
-42.7372
0
LINE
8
Black
10
44.6209
20
-42.7372
11
44.7791
21
-42.7372
0
LINE
8
Black
10
44.7791
20
-42.7372
11
44.7791
21
-43.0378
0
LINE
8
Black
10
44.2791
20
-43.0378
11
44.1209
21
-43.0378
0
LINE
8
Black
10
44.1209
20
-43.0378
11
44.1209
21
-42.7372
0
LINE
8
Black
10
44.1209
20
-42.7372
11
44.2791
21
-42.7372
0
LINE
8
Black
10
44.2791
20
-42.7372
11
44.2791
21
-43.0378
0
LINE
8
Black
10
43.2791
20
-43.0378
11
43.1209
21
-43.0378
0
LINE
8
Black
10
43.1209
20
-43.0378
11
43.1209
21
-42.7372
0
LINE
8
Black
10
43.1209
20
-42.7372
11
43.2791
21
-42.7372
0
LINE
8
Black
10
43.2791
20
-42.7372
11
43.2791
21
-43.0378
0
LINE
8
Black
10
42.7791
20
-43.0378
11
42.6209
21
-43.0378
0
LINE
8
Black
10
42.6209
20
-43.0378
11
42.6209
21
-42.7372
0
LINE
8
Black
10
42.6209
20
-42.7372
11
42.7791
21
-42.7372
0
LINE
8
Black
10
42.7791
20
-42.7372
11
42.7791
21
-43.0378
0
LINE
8
Black
10
42.2791
20
-43.0378
11
42.1209
21
-43.0378
0
LINE
8
Black
10
42.1209
20
-43.0378
11
42.1209
21
-42.7372
0
LINE
8
Black
10
42.1209
20
-42.7372
11
42.2791
21
-42.7372
0
LINE
8
Black
10
42.2791
20
-42.7372
11
42.2791
21
-43.0378
0
LINE
8
Black
10
57.9935
20
-42.7791
11
57.5504
21
-42.7791
0
LINE
8
Black
10
57.5504
20
-42.7791
11
57.5504
21
-42.6209
0
LINE
8
Black
10
57.5504
20
-42.6209
11
57.9935
21
-42.6209
0
LINE
8
Black
10
57.9935
20
-42.6209
11
57.9935
21
-42.7791
0
LINE
8
Black
10
53.1935
20
-42.7791
11
52.7505
21
-42.7791
0
LINE
8
Black
10
52.7505
20
-42.7791
11
52.7505
21
-42.6209
0
LINE
8
Black
10
52.7505
20
-42.6209
11
53.1935
21
-42.6209
0
LINE
8
Black
10
53.1935
20
-42.6209
11
53.1935
21
-42.7791
0
LINE
8
Black
10
60.6103
20
-42.3119
11
60.2937
21
-42.3119
0
LINE
8
Black
10
60.2937
20
-42.3119
11
60.2937
21
-41.9321
0
LINE
8
Black
10
60.2937
20
-41.9321
11
60.6103
21
-41.9321
0
LINE
8
Black
10
60.6103
20
-41.9321
11
60.6103
21
-42.3119
0
LINE
8
Black
10
55.7011
20
-42.2715
11
55.5429
21
-42.2715
0
LINE
8
Black
10
55.5429
20
-42.2715
11
55.5429
21
-41.8284
0
LINE
8
Black
10
55.5429
20
-41.8284
11
55.7011
21
-41.8284
0
LINE
8
Black
10
55.7011
20
-41.8284
11
55.7011
21
-42.2715
0
LINE
8
Black
10
57.2011
20
-42.2715
11
57.0429
21
-42.2715
0
LINE
8
Black
10
57.0429
20
-42.2715
11
57.0429
21
-41.8284
0
LINE
8
Black
10
57.0429
20
-41.8284
11
57.2011
21
-41.8284
0
LINE
8
Black
10
57.2011
20
-41.8284
11
57.2011
21
-42.2715
0
LINE
8
Black
10
56.7011
20
-42.2715
11
56.5429
21
-42.2715
0
LINE
8
Black
10
56.5429
20
-42.2715
11
56.5429
21
-41.8284
0
LINE
8
Black
10
56.5429
20
-41.8284
11
56.7011
21
-41.8284
0
LINE
8
Black
10
56.7011
20
-41.8284
11
56.7011
21
-42.2715
0
LINE
8
Black
10
56.2011
20
-42.2715
11
56.0429
21
-42.2715
0
LINE
8
Black
10
56.0429
20
-42.2715
11
56.0429
21
-41.8284
0
LINE
8
Black
10
56.0429
20
-41.8284
11
56.2011
21
-41.8284
0
LINE
8
Black
10
56.2011
20
-41.8284
11
56.2011
21
-42.2715
0
LINE
8
Black
10
55.2011
20
-42.2715
11
55.0429
21
-42.2715
0
LINE
8
Black
10
55.0429
20
-42.2715
11
55.0429
21
-41.8284
0
LINE
8
Black
10
55.0429
20
-41.8284
11
55.2011
21
-41.8284
0
LINE
8
Black
10
55.2011
20
-41.8284
11
55.2011
21
-42.2715
0
LINE
8
Black
10
54.7011
20
-42.2715
11
54.5429
21
-42.2715
0
LINE
8
Black
10
54.5429
20
-42.2715
11
54.5429
21
-41.8284
0
LINE
8
Black
10
54.5429
20
-41.8284
11
54.7011
21
-41.8284
0
LINE
8
Black
10
54.7011
20
-41.8284
11
54.7011
21
-42.2715
0
LINE
8
Black
10
54.2011
20
-42.2715
11
54.0429
21
-42.2715
0
LINE
8
Black
10
54.0429
20
-42.2715
11
54.0429
21
-41.8284
0
LINE
8
Black
10
54.0429
20
-41.8284
11
54.2011
21
-41.8284
0
LINE
8
Black
10
54.2011
20
-41.8284
11
54.2011
21
-42.2715
0
LINE
8
Black
10
53.7011
20
-42.2715
11
53.5429
21
-42.2715
0
LINE
8
Black
10
53.5429
20
-42.2715
11
53.5429
21
-41.8284
0
LINE
8
Black
10
53.5429
20
-41.8284
11
53.7011
21
-41.8284
0
LINE
8
Black
10
53.7011
20
-41.8284
11
53.7011
21
-42.2715
0
LINE
8
Black
10
51.7203
20
-42.0579
11
51.4037
21
-42.0579
0
LINE
8
Black
10
51.4037
20
-42.0579
11
51.4037
21
-41.6781
0
LINE
8
Black
10
51.4037
20
-41.6781
11
51.7203
21
-41.6781
0
LINE
8
Black
10
51.7203
20
-41.6781
11
51.7203
21
-42.0579
0
LINE
8
Black
10
65.8059
20
-41.5602
11
65.4261
21
-41.5602
0
LINE
8
Black
10
65.4261
20
-41.5602
11
65.4261
21
-41.2437
0
LINE
8
Black
10
65.4261
20
-41.2437
11
65.8059
21
-41.2437
0
LINE
8
Black
10
65.8059
20
-41.2437
11
65.8059
21
-41.5602
0
LINE
8
Black
10
64.7059
20
-41.5602
11
64.3261
21
-41.5602
0
LINE
8
Black
10
64.3261
20
-41.5602
11
64.3261
21
-41.2437
0
LINE
8
Black
10
64.3261
20
-41.2437
11
64.7059
21
-41.2437
0
LINE
8
Black
10
64.7059
20
-41.2437
11
64.7059
21
-41.5602
0
LINE
8
Black
10
42.1419
20
-40.7982
11
41.7621
21
-40.7982
0
LINE
8
Black
10
41.7621
20
-40.7982
11
41.7621
21
-40.4817
0
LINE
8
Black
10
41.7621
20
-40.4817
11
42.1419
21
-40.4817
0
LINE
8
Black
10
42.1419
20
-40.4817
11
42.1419
21
-40.7982
0
LINE
8
Black
10
41.0419
20
-40.7982
11
40.6621
21
-40.7982
0
LINE
8
Black
10
40.6621
20
-40.7982
11
40.6621
21
-40.4817
0
LINE
8
Black
10
40.6621
20
-40.4817
11
41.0419
21
-40.4817
0
LINE
8
Black
10
41.0419
20
-40.4817
11
41.0419
21
-40.7982
0
LINE
8
Black
10
47.1362
20
-40.1628
11
46.8197
21
-40.1628
0
LINE
8
Black
10
46.8197
20
-40.1628
11
46.8197
21
-39.5932
0
LINE
8
Black
10
46.8197
20
-39.5932
11
47.1362
21
-39.5932
0
LINE
8
Black
10
47.1362
20
-39.5932
11
47.1362
21
-40.1628
0
LINE
8
Black
10
45.6362
20
-40.1628
11
45.3197
21
-40.1628
0
LINE
8
Black
10
45.3197
20
-40.1628
11
45.3197
21
-39.5932
0
LINE
8
Black
10
45.3197
20
-39.5932
11
45.6362
21
-39.5932
0
LINE
8
Black
10
45.6362
20
-39.5932
11
45.6362
21
-40.1628
0
LINE
8
Black
10
49.7002
20
-40.1628
11
49.3837
21
-40.1628
0
LINE
8
Black
10
49.3837
20
-40.1628
11
49.3837
21
-39.5932
0
LINE
8
Black
10
49.3837
20
-39.5932
11
49.7002
21
-39.5932
0
LINE
8
Black
10
49.7002
20
-39.5932
11
49.7002
21
-40.1628
0
LINE
8
Black
10
51.2002
20
-40.1628
11
50.8837
21
-40.1628
0
LINE
8
Black
10
50.8837
20
-40.1628
11
50.8837
21
-39.5932
0
LINE
8
Black
10
50.8837
20
-39.5932
11
51.2002
21
-39.5932
0
LINE
8
Black
10
51.2002
20
-39.5932
11
51.2002
21
-40.1628
0
LINE
8
Black
10
35.5845
20
-39.9269
11
34.9515
21
-39.9269
0
LINE
8
Black
10
34.9515
20
-39.9269
11
34.9515
21
-39.3571
0
LINE
8
Black
10
34.9515
20
-39.3571
11
35.5845
21
-39.3571
0
LINE
8
Black
10
35.5845
20
-39.3571
11
35.5845
21
-39.9269
0
LINE
8
Black
10
37.1845
20
-39.9269
11
36.5515
21
-39.9269
0
LINE
8
Black
10
36.5515
20
-39.9269
11
36.5515
21
-39.3571
0
LINE
8
Black
10
36.5515
20
-39.3571
11
37.1845
21
-39.3571
0
LINE
8
Black
10
37.1845
20
-39.3571
11
37.1845
21
-39.9269
0
LINE
8
Black
10
24.981
20
-39.5135
11
24.8599
21
-39.8059
0
LINE
8
Black
10
24.8599
20
-39.8059
11
24.509
21
-39.6606
0
LINE
8
Black
10
24.509
20
-39.6606
11
24.6301
21
-39.3682
0
LINE
8
Black
10
24.6301
20
-39.3682
11
24.981
21
-39.5135
0
LINE
8
Black
10
32.2888
20
-39.7702
11
31.7191
21
-39.7702
0
LINE
8
Black
10
31.7191
20
-39.7702
11
31.7191
21
-39.4537
0
LINE
8
Black
10
31.7191
20
-39.4537
11
32.2888
21
-39.4537
0
LINE
8
Black
10
32.2888
20
-39.4537
11
32.2888
21
-39.7702
0
LINE
8
Black
10
23.9647
20
-39.0926
11
23.8436
21
-39.385
0
LINE
8
Black
10
23.8436
20
-39.385
11
23.4927
21
-39.2396
0
LINE
8
Black
10
23.4927
20
-39.2396
11
23.6139
21
-38.9472
0
LINE
8
Black
10
23.6139
20
-38.9472
11
23.9647
21
-39.0926
0
LINE
8
Black
10
27.8234
20
-38.2189
11
27.6175
21
-38.716
0
LINE
8
Black
10
27.6175
20
-38.716
11
27.0327
21
-38.4738
0
LINE
8
Black
10
27.0327
20
-38.4738
11
27.2386
21
-37.9767
0
LINE
8
Black
10
27.2386
20
-37.9767
11
27.8234
21
-38.2189
0
LINE
8
Black
10
61.8673
20
-38.4738
11
61.2825
21
-38.716
0
LINE
8
Black
10
61.2825
20
-38.716
11
61.0766
21
-38.2189
0
LINE
8
Black
10
61.0766
20
-38.2189
11
61.6614
21
-37.9767
0
LINE
8
Black
10
61.6614
20
-37.9767
11
61.8673
21
-38.4738
0
LINE
8
Black
10
50.4399
20
-38.5123
11
50.0601
21
-38.5123
0
LINE
8
Black
10
50.0601
20
-38.5123
11
50.0601
21
-38.1957
0
LINE
8
Black
10
50.0601
20
-38.1957
11
50.4399
21
-38.1957
0
LINE
8
Black
10
50.4399
20
-38.1957
11
50.4399
21
-38.5123
0
LINE
8
Black
10
51.5399
20
-38.5123
11
51.1601
21
-38.5123
0
LINE
8
Black
10
51.1601
20
-38.5123
11
51.1601
21
-38.1957
0
LINE
8
Black
10
51.1601
20
-38.1957
11
51.5399
21
-38.1957
0
LINE
8
Black
10
51.5399
20
-38.1957
11
51.5399
21
-38.5123
0
LINE
8
Black
10
55.1051
20
-38.4474
11
54.4089
21
-38.4474
0
LINE
8
Black
10
54.4089
20
-38.4474
11
54.4089
21
-37.2447
0
LINE
8
Black
10
54.4089
20
-37.2447
11
55.1051
21
-37.2447
0
LINE
8
Black
10
55.1051
20
-37.2447
11
55.1051
21
-38.4474
0
LINE
8
Black
10
57.6051
20
-38.4474
11
56.9088
21
-38.4474
0
LINE
8
Black
10
56.9088
20
-38.4474
11
56.9088
21
-37.2447
0
LINE
8
Black
10
56.9088
20
-37.2447
11
57.6051
21
-37.2447
0
LINE
8
Black
10
57.6051
20
-37.2447
11
57.6051
21
-38.4474
0
LINE
8
Black
10
32.2888
20
-38.2702
11
31.7191
21
-38.2702
0
LINE
8
Black
10
31.7191
20
-38.2702
11
31.7191
21
-37.9537
0
LINE
8
Black
10
31.7191
20
-37.9537
11
32.2888
21
-37.9537
0
LINE
8
Black
10
32.2888
20
-37.9537
11
32.2888
21
-38.2702
0
LINE
8
Black
10
45.0322
20
-37.9393
11
44.3359
21
-37.9393
0
LINE
8
Black
10
44.3359
20
-37.9393
11
44.3359
21
-36.7366
0
LINE
8
Black
10
44.3359
20
-36.7366
11
45.0322
21
-36.7366
0
LINE
8
Black
10
45.0322
20
-36.7366
11
45.0322
21
-37.9393
0
LINE
8
Black
10
42.5322
20
-37.9393
11
41.8359
21
-37.9393
0
LINE
8
Black
10
41.8359
20
-37.9393
11
41.8359
21
-36.7366
0
LINE
8
Black
10
41.8359
20
-36.7366
11
42.5322
21
-36.7366
0
LINE
8
Black
10
42.5322
20
-36.7366
11
42.5322
21
-37.9393
0
LINE
8
Black
10
65.1009
20
-37.1344
11
64.5161
21
-37.3766
0
LINE
8
Black
10
64.5161
20
-37.3766
11
64.3102
21
-36.8795
0
LINE
8
Black
10
64.3102
20
-36.8795
11
64.895
21
-36.6373
0
LINE
8
Black
10
64.895
20
-36.6373
11
65.1009
21
-37.1344
0
LINE
8
Black
10
24.5898
20
-36.8795
11
24.3839
21
-37.3766
0
LINE
8
Black
10
24.3839
20
-37.3766
11
23.7991
21
-37.1344
0
LINE
8
Black
10
23.7991
20
-37.1344
11
24.005
21
-36.6373
0
LINE
8
Black
10
24.005
20
-36.6373
11
24.5898
21
-36.8795
0
LINE
8
Black
10
61.1976
20
-36.857
11
60.6128
21
-37.0992
0
LINE
8
Black
10
60.6128
20
-37.0992
11
60.4069
21
-36.6022
0
LINE
8
Black
10
60.4069
20
-36.6022
11
60.9917
21
-36.3599
0
LINE
8
Black
10
60.9917
20
-36.3599
11
61.1976
21
-36.857
0
LINE
8
Black
10
28.4931
20
-36.6022
11
28.2872
21
-37.0992
0
LINE
8
Black
10
28.2872
20
-37.0992
11
27.7024
21
-36.857
0
LINE
8
Black
10
27.7024
20
-36.857
11
27.9083
21
-36.3599
0
LINE
8
Black
10
27.9083
20
-36.3599
11
28.4931
21
-36.6022
0
LINE
8
Black
10
47.5108
20
-36.9305
11
46.9412
21
-36.9305
0
LINE
8
Black
10
46.9412
20
-36.9305
11
46.9412
21
-36.2975
0
LINE
8
Black
10
46.9412
20
-36.2975
11
47.5108
21
-36.2975
0
LINE
8
Black
10
47.5108
20
-36.2975
11
47.5108
21
-36.9305
0
LINE
8
Black
10
51.6108
20
-36.9305
11
51.0411
21
-36.9305
0
LINE
8
Black
10
51.0411
20
-36.9305
11
51.0411
21
-36.2975
0
LINE
8
Black
10
51.0411
20
-36.2975
11
51.6108
21
-36.2975
0
LINE
8
Black
10
51.6108
20
-36.2975
11
51.6108
21
-36.9305
0
LINE
8
Black
10
32.2564
20
-36.5617
11
31.7516
21
-36.5617
0
LINE
8
Black
10
31.7516
20
-36.5617
11
31.7516
21
-36.0569
0
LINE
8
Black
10
31.7516
20
-36.0569
11
32.2564
21
-36.0569
0
LINE
8
Black
10
32.2564
20
-36.0569
11
32.2564
21
-36.5617
0
LINE
8
Black
10
55.0222
20
-35.8769
11
54.7057
21
-35.8769
0
LINE
8
Black
10
54.7057
20
-35.8769
11
54.7057
21
-35.4971
0
LINE
8
Black
10
54.7057
20
-35.4971
11
55.0222
21
-35.4971
0
LINE
8
Black
10
55.0222
20
-35.4971
11
55.0222
21
-35.8769
0
LINE
8
Black
10
58.3979
20
-35.8453
11
58.0181
21
-35.8453
0
LINE
8
Black
10
58.0181
20
-35.8453
11
58.0181
21
-35.5287
0
LINE
8
Black
10
58.0181
20
-35.5287
11
58.3979
21
-35.5287
0
LINE
8
Black
10
58.3979
20
-35.5287
11
58.3979
21
-35.8453
0
LINE
8
Black
10
57.2979
20
-35.8453
11
56.9181
21
-35.8453
0
LINE
8
Black
10
56.9181
20
-35.8453
11
56.9181
21
-35.5287
0
LINE
8
Black
10
56.9181
20
-35.5287
11
57.2979
21
-35.5287
0
LINE
8
Black
10
57.2979
20
-35.5287
11
57.2979
21
-35.8453
0
LINE
8
Black
10
37.1845
20
-35.8269
11
36.5515
21
-35.8269
0
LINE
8
Black
10
36.5515
20
-35.8269
11
36.5515
21
-35.2571
0
LINE
8
Black
10
36.5515
20
-35.2571
11
37.1845
21
-35.2571
0
LINE
8
Black
10
37.1845
20
-35.2571
11
37.1845
21
-35.8269
0
LINE
8
Black
10
35.5845
20
-35.8269
11
34.9515
21
-35.8269
0
LINE
8
Black
10
34.9515
20
-35.8269
11
34.9515
21
-35.2571
0
LINE
8
Black
10
34.9515
20
-35.2571
11
35.5845
21
-35.2571
0
LINE
8
Black
10
35.5845
20
-35.2571
11
35.5845
21
-35.8269
0
LINE
8
Black
10
25.2595
20
-35.2628
11
25.0536
21
-35.7599
0
LINE
8
Black
10
25.0536
20
-35.7599
11
24.4688
21
-35.5176
0
LINE
8
Black
10
24.4688
20
-35.5176
11
24.6747
21
-35.0205
0
LINE
8
Black
10
24.6747
20
-35.0205
11
25.2595
21
-35.2628
0
LINE
8
Black
10
64.4312
20
-35.5176
11
63.8464
21
-35.7599
0
LINE
8
Black
10
63.8464
20
-35.7599
11
63.6405
21
-35.2628
0
LINE
8
Black
10
63.6405
20
-35.2628
11
64.2253
21
-35.0205
0
LINE
8
Black
10
64.2253
20
-35.0205
11
64.4312
21
-35.5176
0
LINE
8
Black
10
51.6108
20
-35.3305
11
51.0411
21
-35.3305
0
LINE
8
Black
10
51.0411
20
-35.3305
11
51.0411
21
-34.6975
0
LINE
8
Black
10
51.0411
20
-34.6975
11
51.6108
21
-34.6975
0
LINE
8
Black
10
51.6108
20
-34.6975
11
51.6108
21
-35.3305
0
LINE
8
Black
10
47.5108
20
-35.3305
11
46.9412
21
-35.3305
0
LINE
8
Black
10
46.9412
20
-35.3305
11
46.9412
21
-34.6975
0
LINE
8
Black
10
46.9412
20
-34.6975
11
47.5108
21
-34.6975
0
LINE
8
Black
10
47.5108
20
-34.6975
11
47.5108
21
-35.3305
0
LINE
8
Black
10
32.2564
20
-35.0631
11
31.7516
21
-35.0631
0
LINE
8
Black
10
31.7516
20
-35.0631
11
31.7516
21
-34.5583
0
LINE
8
Black
10
31.7516
20
-34.5583
11
32.2564
21
-34.5583
0
LINE
8
Black
10
32.2564
20
-34.5583
11
32.2564
21
-35.0631
0
LINE
8
Black
10
42.5762
20
-35.0299
11
42.2597
21
-35.0299
0
LINE
8
Black
10
42.2597
20
-35.0299
11
42.2597
21
-34.6501
0
LINE
8
Black
10
42.2597
20
-34.6501
11
42.5762
21
-34.6501
0
LINE
8
Black
10
42.5762
20
-34.6501
11
42.5762
21
-35.0299
0
LINE
8
Black
10
44.6082
20
-35.0299
11
44.2918
21
-35.0299
0
LINE
8
Black
10
44.2918
20
-35.0299
11
44.2918
21
-34.6501
0
LINE
8
Black
10
44.2918
20
-34.6501
11
44.6082
21
-34.6501
0
LINE
8
Black
10
44.6082
20
-34.6501
11
44.6082
21
-35.0299
0
LINE
8
Black
10
55.0222
20
-34.7769
11
54.7057
21
-34.7769
0
LINE
8
Black
10
54.7057
20
-34.7769
11
54.7057
21
-34.3971
0
LINE
8
Black
10
54.7057
20
-34.3971
11
55.0222
21
-34.3971
0
LINE
8
Black
10
55.0222
20
-34.3971
11
55.0222
21
-34.7769
0
LINE
8
Black
10
62.0582
20
-34.0286
11
61.7073
21
-34.174
0
LINE
8
Black
10
61.7073
20
-34.174
11
61.5861
21
-33.8816
0
LINE
8
Black
10
61.5861
20
-33.8816
11
61.937
21
-33.7362
0
LINE
8
Black
10
61.937
20
-33.7362
11
62.0582
21
-34.0286
0
LINE
8
Black
10
42.5762
20
-33.9299
11
42.2597
21
-33.9299
0
LINE
8
Black
10
42.2597
20
-33.9299
11
42.2597
21
-33.5501
0
LINE
8
Black
10
42.2597
20
-33.5501
11
42.5762
21
-33.5501
0
LINE
8
Black
10
42.5762
20
-33.5501
11
42.5762
21
-33.9299
0
LINE
8
Black
10
44.6082
20
-33.9299
11
44.2918
21
-33.9299
0
LINE
8
Black
10
44.2918
20
-33.9299
11
44.2918
21
-33.5501
0
LINE
8
Black
10
44.2918
20
-33.5501
11
44.6082
21
-33.5501
0
LINE
8
Black
10
44.6082
20
-33.5501
11
44.6082
21
-33.9299
0
LINE
8
Black
10
63.0744
20
-33.6077
11
62.7235
21
-33.753
0
LINE
8
Black
10
62.7235
20
-33.753
11
62.6024
21
-33.4606
0
LINE
8
Black
10
62.6024
20
-33.4606
11
62.9533
21
-33.3153
0
LINE
8
Black
10
62.9533
20
-33.3153
11
63.0744
21
-33.6077
0
LINE
8
Black
10
31.4735
20
-32.3305
11
31.0931
21
-32.711
0
LINE
8
Black
10
31.0931
20
-32.711
11
30.6455
21
-32.2634
0
LINE
8
Black
10
30.6455
20
-32.2634
11
31.0259
21
-31.8829
0
LINE
8
Black
10
31.0259
20
-31.8829
11
31.4735
21
-32.3305
0
LINE
8
Black
10
58.2545
20
-32.2634
11
57.8069
21
-32.711
0
LINE
8
Black
10
57.8069
20
-32.711
11
57.4265
21
-32.3305
0
LINE
8
Black
10
57.4265
20
-32.3305
11
57.8741
21
-31.8829
0
LINE
8
Black
10
57.8741
20
-31.8829
11
58.2545
21
-32.2634
0
LINE
8
Black
10
28.3521
20
-32.4388
11
28.1283
21
-32.6626
0
LINE
8
Black
10
28.1283
20
-32.6626
11
27.8598
21
-32.3941
0
LINE
8
Black
10
27.8598
20
-32.3941
11
28.0836
21
-32.1703
0
LINE
8
Black
10
28.0836
20
-32.1703
11
28.3521
21
-32.4388
0
LINE
8
Black
10
54.1328
20
-31.9082
11
53.5632
21
-31.9082
0
LINE
8
Black
10
53.5632
20
-31.9082
11
53.5632
21
-31.5917
0
LINE
8
Black
10
53.5632
20
-31.5917
11
54.1328
21
-31.5917
0
LINE
8
Black
10
54.1328
20
-31.5917
11
54.1328
21
-31.9082
0
LINE
8
Black
10
27.5743
20
-31.661
11
27.3505
21
-31.8848
0
LINE
8
Black
10
27.3505
20
-31.8848
11
27.0819
21
-31.6163
0
LINE
8
Black
10
27.0819
20
-31.6163
11
27.3057
21
-31.3925
0
LINE
8
Black
10
27.3057
20
-31.3925
11
27.5743
21
-31.661
0
LINE
8
Black
10
45.4789
20
-31.5585
11
44.9091
21
-31.5585
0
LINE
8
Black
10
44.9091
20
-31.5585
11
44.9091
21
-30.9255
0
LINE
8
Black
10
44.9091
20
-30.9255
11
45.4789
21
-30.9255
0
LINE
8
Black
10
45.4789
20
-30.9255
11
45.4789
21
-31.5585
0
LINE
8
Black
10
49.5788
20
-31.5585
11
49.0091
21
-31.5585
0
LINE
8
Black
10
49.0091
20
-31.5585
11
49.0091
21
-30.9255
0
LINE
8
Black
10
49.0091
20
-30.9255
11
49.5788
21
-30.9255
0
LINE
8
Black
10
49.5788
20
-30.9255
11
49.5788
21
-31.5585
0
LINE
8
Black
10
32.711
20
-31.0931
11
32.3305
21
-31.4735
0
LINE
8
Black
10
32.3305
20
-31.4735
11
31.8829
21
-31.0259
0
LINE
8
Black
10
31.8829
20
-31.0259
11
32.2634
21
-30.6455
0
LINE
8
Black
10
32.2634
20
-30.6455
11
32.711
21
-31.0931
0
LINE
8
Black
10
57.0171
20
-31.0259
11
56.5695
21
-31.4735
0
LINE
8
Black
10
56.5695
20
-31.4735
11
56.189
21
-31.0931
0
LINE
8
Black
10
56.189
20
-31.0931
11
56.6366
21
-30.6455
0
LINE
8
Black
10
56.6366
20
-30.6455
11
57.0171
21
-31.0259
0
LINE
8
Black
10
54.1328
20
-30.4082
11
53.5632
21
-30.4082
0
LINE
8
Black
10
53.5632
20
-30.4082
11
53.5632
21
-30.0917
0
LINE
8
Black
10
53.5632
20
-30.0917
11
54.1328
21
-30.0917
0
LINE
8
Black
10
54.1328
20
-30.0917
11
54.1328
21
-30.4082
0
LINE
8
Black
10
28.9987
20
-29.8557
11
28.6182
21
-30.2361
0
LINE
8
Black
10
28.6182
20
-30.2361
11
28.1706
21
-29.7885
0
LINE
8
Black
10
28.1706
20
-29.7885
11
28.5511
21
-29.4081
0
LINE
8
Black
10
28.5511
20
-29.4081
11
28.9987
21
-29.8557
0
LINE
8
Black
10
60.7294
20
-29.7885
11
60.2818
21
-30.2361
0
LINE
8
Black
10
60.2818
20
-30.2361
11
59.9013
21
-29.8557
0
LINE
8
Black
10
59.9013
20
-29.8557
11
60.3489
21
-29.4081
0
LINE
8
Black
10
60.3489
20
-29.4081
11
60.7294
21
-29.7885
0
LINE
8
Black
10
49.5788
20
-29.9585
11
49.0091
21
-29.9585
0
LINE
8
Black
10
49.0091
20
-29.9585
11
49.0091
21
-29.3255
0
LINE
8
Black
10
49.0091
20
-29.3255
11
49.5788
21
-29.3255
0
LINE
8
Black
10
49.5788
20
-29.3255
11
49.5788
21
-29.9585
0
LINE
8
Black
10
45.4789
20
-29.9585
11
44.9091
21
-29.9585
0
LINE
8
Black
10
44.9091
20
-29.9585
11
44.9091
21
-29.3255
0
LINE
8
Black
10
44.9091
20
-29.3255
11
45.4789
21
-29.3255
0
LINE
8
Black
10
45.4789
20
-29.3255
11
45.4789
21
-29.9585
0
LINE
8
Black
10
30.2361
20
-28.6182
11
29.8557
21
-28.9987
0
LINE
8
Black
10
29.8557
20
-28.9987
11
29.4081
21
-28.5511
0
LINE
8
Black
10
29.4081
20
-28.5511
11
29.7885
21
-28.1706
0
LINE
8
Black
10
29.7885
20
-28.1706
11
30.2361
21
-28.6182
0
LINE
8
Black
10
59.4919
20
-28.5511
11
59.0443
21
-28.9987
0
LINE
8
Black
10
59.0443
20
-28.9987
11
58.6639
21
-28.6182
0
LINE
8
Black
10
58.6639
20
-28.6182
11
59.1115
21
-28.1706
0
LINE
8
Black
10
59.1115
20
-28.1706
11
59.4919
21
-28.5511
0
LINE
8
Black
10
37.0992
20
-28.2872
11
36.6022
21
-28.4931
0
LINE
8
Black
10
36.6022
20
-28.4931
11
36.3599
21
-27.9083
0
LINE
8
Black
10
36.3599
20
-27.9083
11
36.857
21
-27.7024
0
LINE
8
Black
10
36.857
20
-27.7024
11
37.0992
21
-28.2872
0
LINE
8
Black
10
52.5401
20
-27.9083
11
52.2978
21
-28.4931
0
LINE
8
Black
10
52.2978
20
-28.4931
11
51.8008
21
-28.2872
0
LINE
8
Black
10
51.8008
20
-28.2872
11
52.043
21
-27.7024
0
LINE
8
Black
10
52.043
20
-27.7024
11
52.5401
21
-27.9083
0
LINE
8
Black
10
56.7297
20
-28.0836
11
56.4612
21
-28.3521
0
LINE
8
Black
10
56.4612
20
-28.3521
11
56.2374
21
-28.1283
0
LINE
8
Black
10
56.2374
20
-28.1283
11
56.5059
21
-27.8598
0
LINE
8
Black
10
56.5059
20
-27.8598
11
56.7297
21
-28.0836
0
LINE
8
Black
10
38.716
20
-27.6175
11
38.2189
21
-27.8234
0
LINE
8
Black
10
38.2189
20
-27.8234
11
37.9767
21
-27.2386
0
LINE
8
Black
10
37.9767
20
-27.2386
11
38.4738
21
-27.0327
0
LINE
8
Black
10
38.4738
20
-27.0327
11
38.716
21
-27.6175
0
LINE
8
Black
10
50.9233
20
-27.2386
11
50.6811
21
-27.8234
0
LINE
8
Black
10
50.6811
20
-27.8234
11
50.184
21
-27.6175
0
LINE
8
Black
10
50.184
20
-27.6175
11
50.4262
21
-27.0327
0
LINE
8
Black
10
50.4262
20
-27.0327
11
50.9233
21
-27.2386
0
LINE
8
Black
10
57.5075
20
-27.3057
11
57.239
21
-27.5743
0
LINE
8
Black
10
57.239
20
-27.5743
11
57.0152
21
-27.3505
0
LINE
8
Black
10
57.0152
20
-27.3505
11
57.2837
21
-27.0819
0
LINE
8
Black
10
57.2837
20
-27.0819
11
57.5075
21
-27.3057
0
LINE
8
Black
10
34.174
20
-27.1927
11
33.8816
21
-27.3139
0
LINE
8
Black
10
33.8816
20
-27.3139
11
33.7362
21
-26.963
0
LINE
8
Black
10
33.7362
20
-26.963
11
34.0286
21
-26.8418
0
LINE
8
Black
10
34.0286
20
-26.8418
11
34.174
21
-27.1927
0
LINE
8
Black
10
45.594
20
-26.7045
11
45.056
21
-26.7045
0
LINE
8
Black
10
45.056
20
-26.7045
11
45.056
21
-26.0715
0
LINE
8
Black
10
45.056
20
-26.0715
11
45.594
21
-26.0715
0
LINE
8
Black
10
45.594
20
-26.0715
11
45.594
21
-26.7045
0
LINE
8
Black
10
43.844
20
-26.7045
11
43.306
21
-26.7045
0
LINE
8
Black
10
43.306
20
-26.7045
11
43.306
21
-26.0715
0
LINE
8
Black
10
43.306
20
-26.0715
11
43.844
21
-26.0715
0
LINE
8
Black
10
43.844
20
-26.0715
11
43.844
21
-26.7045
0
LINE
8
Black
10
33.753
20
-26.1765
11
33.4606
21
-26.2976
0
LINE
8
Black
10
33.4606
20
-26.2976
11
33.3153
21
-25.9467
0
LINE
8
Black
10
33.3153
20
-25.9467
11
33.6077
21
-25.8256
0
LINE
8
Black
10
33.6077
20
-25.8256
11
33.753
21
-26.1765
0
LINE
8
Black
10
53.8795
20
-24.6747
11
53.6372
21
-25.2595
0
LINE
8
Black
10
53.6372
20
-25.2595
11
53.1401
21
-25.0536
0
LINE
8
Black
10
53.1401
20
-25.0536
11
53.3824
21
-24.4688
0
LINE
8
Black
10
53.3824
20
-24.4688
11
53.8795
21
-24.6747
0
LINE
8
Black
10
35.7599
20
-25.0536
11
35.2628
21
-25.2595
0
LINE
8
Black
10
35.2628
20
-25.2595
11
35.0205
21
-24.6747
0
LINE
8
Black
10
35.0205
20
-24.6747
11
35.5176
21
-24.4688
0
LINE
8
Black
10
35.5176
20
-24.4688
11
35.7599
21
-25.0536
0
LINE
8
Black
10
49.5318
20
-24.6301
11
49.3865
21
-24.981
0
LINE
8
Black
10
49.3865
20
-24.981
11
49.0941
21
-24.8599
0
LINE
8
Black
10
49.0941
20
-24.8599
11
49.2394
21
-24.509
0
LINE
8
Black
10
49.2394
20
-24.509
11
49.5318
21
-24.6301
0
LINE
8
Black
10
52.2627
20
-24.005
11
52.0205
21
-24.5898
0
LINE
8
Black
10
52.0205
20
-24.5898
11
51.5234
21
-24.3839
0
LINE
8
Black
10
51.5234
20
-24.3839
11
51.7656
21
-23.7991
0
LINE
8
Black
10
51.7656
20
-23.7991
11
52.2627
21
-24.005
0
LINE
8
Black
10
37.3766
20
-24.3839
11
36.8795
21
-24.5898
0
LINE
8
Black
10
36.8795
20
-24.5898
11
36.6373
21
-24.005
0
LINE
8
Black
10
36.6373
20
-24.005
11
37.1344
21
-23.7991
0
LINE
8
Black
10
37.1344
20
-23.7991
11
37.3766
21
-24.3839
0
LINE
8
Black
10
41.5602
20
-24.5739
11
41.2437
21
-24.5739
0
LINE
8
Black
10
41.2437
20
-24.5739
11
41.2437
21
-24.1941
0
LINE
8
Black
10
41.2437
20
-24.1941
11
41.5602
21
-24.1941
0
LINE
8
Black
10
41.5602
20
-24.1941
11
41.5602
21
-24.5739
0
LINE
8
Black
10
49.9528
20
-23.6139
11
49.8074
21
-23.9647
0
LINE
8
Black
10
49.8074
20
-23.9647
11
49.515
21
-23.8436
0
LINE
8
Black
10
49.515
20
-23.8436
11
49.6604
21
-23.4927
0
LINE
8
Black
10
49.6604
20
-23.4927
11
49.9528
21
-23.6139
0
LINE
8
Black
10
41.5602
20
-23.4739
11
41.2437
21
-23.4739
0
LINE
8
Black
10
41.2437
20
-23.4739
11
41.2437
21
-23.0941
0
LINE
8
Black
10
41.2437
20
-23.0941
11
41.5602
21
-23.0941
0
LINE
8
Black
10
41.5602
20
-23.0941
11
41.5602
21
-23.4739
0
LINE
8
Black
10
45.594
20
-23.2045
11
45.056
21
-23.2045
0
LINE
8
Black
10
45.056
20
-23.2045
11
45.056
21
-22.5715
0
LINE
8
Black
10
45.056
20
-22.5715
11
45.594
21
-22.5715
0
LINE
8
Black
10
45.594
20
-22.5715
11
45.594
21
-23.2045
0
LINE
8
Black
10
43.844
20
-23.2045
11
43.306
21
-23.2045
0
LINE
8
Black
10
43.306
20
-23.2045
11
43.306
21
-22.5715
0
LINE
8
Black
10
43.306
20
-22.5715
11
43.844
21
-22.5715
0
LINE
8
Black
10
43.844
20
-22.5715
11
43.844
21
-23.2045
  0
ENDSEC
  0
EOF
