G04 #@! TF.GenerationSoftware,KiCad,Pcbnew,no-vcs-found-7448~57~ubuntu16.10.1*
G04 #@! TF.CreationDate,2017-01-11T20:57:49-05:00*
G04 #@! TF.ProjectId,featherlight,666561746865726C696768742E6B6963,rev?*
G04 #@! TF.FileFunction,Copper,L4,Bot,Signal*
G04 #@! TF.FilePolarity,Positive*
%FSLAX46Y46*%
G04 Gerber Fmt 4.6, Leading zero omitted, Abs format (unit mm)*
G04 Created by KiCad (PCBNEW no-vcs-found-7448~57~ubuntu16.10.1) date Wed Jan 11 20:57:49 2017*
%MOMM*%
%LPD*%
G01*
G04 APERTURE LIST*
%ADD10C,0.100000*%
%ADD11R,0.900000X0.500000*%
%ADD12C,0.500000*%
%ADD13C,1.200000*%
%ADD14R,0.610000X0.710000*%
%ADD15R,0.700000X0.250000*%
%ADD16R,0.400000X0.500000*%
%ADD17R,0.300000X0.500000*%
%ADD18R,1.250000X1.000000*%
%ADD19R,0.400000X1.350000*%
%ADD20O,1.250000X0.950000*%
%ADD21C,1.550000*%
%ADD22R,0.500000X0.900000*%
%ADD23C,1.600000*%
%ADD24C,1.000000*%
%ADD25R,1.200000X1.700000*%
%ADD26R,0.500000X1.000000*%
%ADD27R,0.600000X0.500000*%
%ADD28R,0.650000X1.060000*%
%ADD29C,1.500000*%
%ADD30R,0.800000X0.750000*%
%ADD31R,1.000000X1.250000*%
%ADD32R,2.575000X0.650000*%
%ADD33R,2.370000X2.430000*%
%ADD34R,2.430000X2.370000*%
%ADD35C,0.635000*%
%ADD36C,0.508000*%
%ADD37C,0.762000*%
%ADD38C,0.508000*%
%ADD39C,0.254000*%
%ADD40C,0.203200*%
%ADD41C,1.016000*%
G04 APERTURE END LIST*
D10*
D11*
X29718000Y-47740000D03*
X29718000Y-46240000D03*
D12*
X50977269Y-23465530D03*
D10*
G36*
X50554957Y-23831799D02*
X50937641Y-22907919D01*
X51399581Y-23099261D01*
X51016897Y-24023141D01*
X50554957Y-23831799D01*
X50554957Y-23831799D01*
G37*
D12*
X51716371Y-23771676D03*
D10*
G36*
X51294059Y-24137945D02*
X51676743Y-23214065D01*
X52138683Y-23405407D01*
X51755999Y-24329287D01*
X51294059Y-24137945D01*
X51294059Y-24137945D01*
G37*
D12*
X52455475Y-24077823D03*
D10*
G36*
X52033163Y-24444092D02*
X52415847Y-23520212D01*
X52877787Y-23711554D01*
X52495103Y-24635434D01*
X52033163Y-24444092D01*
X52033163Y-24444092D01*
G37*
D12*
X53194578Y-24383970D03*
D10*
G36*
X52772266Y-24750239D02*
X53154950Y-23826359D01*
X53616890Y-24017701D01*
X53234206Y-24941581D01*
X52772266Y-24750239D01*
X52772266Y-24750239D01*
G37*
D12*
X53933682Y-24690117D03*
D10*
G36*
X53511370Y-25056386D02*
X53894054Y-24132506D01*
X54355994Y-24323848D01*
X53973310Y-25247728D01*
X53511370Y-25056386D01*
X53511370Y-25056386D01*
G37*
D12*
X54672786Y-24996263D03*
D10*
G36*
X54250474Y-25362532D02*
X54633158Y-24438652D01*
X55095098Y-24629994D01*
X54712414Y-25553874D01*
X54250474Y-25362532D01*
X54250474Y-25362532D01*
G37*
D13*
X56620062Y-23692187D03*
D10*
G36*
X55740453Y-24247875D02*
X56391015Y-22677279D01*
X57499671Y-23136499D01*
X56849109Y-24707095D01*
X55740453Y-24247875D01*
X55740453Y-24247875D01*
G37*
D13*
X50522457Y-21166476D03*
D10*
G36*
X49642848Y-21722164D02*
X50293410Y-20151568D01*
X51402066Y-20610788D01*
X50751504Y-22181384D01*
X49642848Y-21722164D01*
X49642848Y-21722164D01*
G37*
D13*
X23692187Y-56620062D03*
D10*
G36*
X24707095Y-56849109D02*
X23136499Y-57499671D01*
X22677279Y-56391015D01*
X24247875Y-55740453D01*
X24707095Y-56849109D01*
X24707095Y-56849109D01*
G37*
D13*
X21166476Y-50522457D03*
D10*
G36*
X22181384Y-50751504D02*
X20610788Y-51402066D01*
X20151568Y-50293410D01*
X21722164Y-49642848D01*
X22181384Y-50751504D01*
X22181384Y-50751504D01*
G37*
D12*
X23465530Y-50977269D03*
D10*
G36*
X24023141Y-51016897D02*
X23099261Y-51399581D01*
X22907919Y-50937641D01*
X23831799Y-50554957D01*
X24023141Y-51016897D01*
X24023141Y-51016897D01*
G37*
D12*
X23771676Y-51716371D03*
D10*
G36*
X24329287Y-51755999D02*
X23405407Y-52138683D01*
X23214065Y-51676743D01*
X24137945Y-51294059D01*
X24329287Y-51755999D01*
X24329287Y-51755999D01*
G37*
D12*
X24077823Y-52455475D03*
D10*
G36*
X24635434Y-52495103D02*
X23711554Y-52877787D01*
X23520212Y-52415847D01*
X24444092Y-52033163D01*
X24635434Y-52495103D01*
X24635434Y-52495103D01*
G37*
D12*
X24383970Y-53194578D03*
D10*
G36*
X24941581Y-53234206D02*
X24017701Y-53616890D01*
X23826359Y-53154950D01*
X24750239Y-52772266D01*
X24941581Y-53234206D01*
X24941581Y-53234206D01*
G37*
D12*
X24690117Y-53933682D03*
D10*
G36*
X25247728Y-53973310D02*
X24323848Y-54355994D01*
X24132506Y-53894054D01*
X25056386Y-53511370D01*
X25247728Y-53973310D01*
X25247728Y-53973310D01*
G37*
D12*
X24996263Y-54672786D03*
D10*
G36*
X25553874Y-54712414D02*
X24629994Y-55095098D01*
X24438652Y-54633158D01*
X25362532Y-54250474D01*
X25553874Y-54712414D01*
X25553874Y-54712414D01*
G37*
D13*
X67733524Y-50522457D03*
D10*
G36*
X67177836Y-49642848D02*
X68748432Y-50293410D01*
X68289212Y-51402066D01*
X66718616Y-50751504D01*
X67177836Y-49642848D01*
X67177836Y-49642848D01*
G37*
D13*
X65207813Y-56620062D03*
D10*
G36*
X64652125Y-55740453D02*
X66222721Y-56391015D01*
X65763501Y-57499671D01*
X64192905Y-56849109D01*
X64652125Y-55740453D01*
X64652125Y-55740453D01*
G37*
D12*
X63903737Y-54672786D03*
D10*
G36*
X63537468Y-54250474D02*
X64461348Y-54633158D01*
X64270006Y-55095098D01*
X63346126Y-54712414D01*
X63537468Y-54250474D01*
X63537468Y-54250474D01*
G37*
D12*
X64209883Y-53933682D03*
D10*
G36*
X63843614Y-53511370D02*
X64767494Y-53894054D01*
X64576152Y-54355994D01*
X63652272Y-53973310D01*
X63843614Y-53511370D01*
X63843614Y-53511370D01*
G37*
D12*
X64516030Y-53194578D03*
D10*
G36*
X64149761Y-52772266D02*
X65073641Y-53154950D01*
X64882299Y-53616890D01*
X63958419Y-53234206D01*
X64149761Y-52772266D01*
X64149761Y-52772266D01*
G37*
D12*
X64822177Y-52455475D03*
D10*
G36*
X64455908Y-52033163D02*
X65379788Y-52415847D01*
X65188446Y-52877787D01*
X64264566Y-52495103D01*
X64455908Y-52033163D01*
X64455908Y-52033163D01*
G37*
D12*
X65128324Y-51716371D03*
D10*
G36*
X64762055Y-51294059D02*
X65685935Y-51676743D01*
X65494593Y-52138683D01*
X64570713Y-51755999D01*
X64762055Y-51294059D01*
X64762055Y-51294059D01*
G37*
D12*
X65434470Y-50977269D03*
D10*
G36*
X65068201Y-50554957D02*
X65992081Y-50937641D01*
X65800739Y-51399581D01*
X64876859Y-51016897D01*
X65068201Y-50554957D01*
X65068201Y-50554957D01*
G37*
D13*
X58970438Y-25262658D03*
D10*
G36*
X57945133Y-25439435D02*
X59147215Y-24237353D01*
X59995743Y-25085881D01*
X58793661Y-26287963D01*
X57945133Y-25439435D01*
X57945133Y-25439435D01*
G37*
D13*
X63637342Y-29929562D03*
D10*
G36*
X62612037Y-30106339D02*
X63814119Y-28904257D01*
X64662647Y-29752785D01*
X63460565Y-30954867D01*
X62612037Y-30106339D01*
X62612037Y-30106339D01*
G37*
D12*
X61339245Y-30389182D03*
D10*
G36*
X60808915Y-30565959D02*
X61516022Y-29858852D01*
X61869575Y-30212405D01*
X61162468Y-30919512D01*
X60808915Y-30565959D01*
X60808915Y-30565959D01*
G37*
D12*
X60773560Y-29823496D03*
D10*
G36*
X60243230Y-30000273D02*
X60950337Y-29293166D01*
X61303890Y-29646719D01*
X60596783Y-30353826D01*
X60243230Y-30000273D01*
X60243230Y-30000273D01*
G37*
D12*
X60207875Y-29257811D03*
D10*
G36*
X59677545Y-29434588D02*
X60384652Y-28727481D01*
X60738205Y-29081034D01*
X60031098Y-29788141D01*
X59677545Y-29434588D01*
X59677545Y-29434588D01*
G37*
D12*
X59642189Y-28692125D03*
D10*
G36*
X59111859Y-28868902D02*
X59818966Y-28161795D01*
X60172519Y-28515348D01*
X59465412Y-29222455D01*
X59111859Y-28868902D01*
X59111859Y-28868902D01*
G37*
D12*
X59076504Y-28126440D03*
D10*
G36*
X58546174Y-28303217D02*
X59253281Y-27596110D01*
X59606834Y-27949663D01*
X58899727Y-28656770D01*
X58546174Y-28303217D01*
X58546174Y-28303217D01*
G37*
D12*
X58510819Y-27560755D03*
D10*
G36*
X57980489Y-27737532D02*
X58687596Y-27030425D01*
X59041149Y-27383978D01*
X58334042Y-28091085D01*
X57980489Y-27737532D01*
X57980489Y-27737532D01*
G37*
D14*
X40386000Y-54509000D03*
X40386000Y-55219000D03*
D15*
X39461000Y-54364000D03*
X39461000Y-54864000D03*
X39461000Y-55364000D03*
X41311000Y-55364000D03*
X41311000Y-54864000D03*
X41311000Y-54364000D03*
D16*
X48780000Y-40902000D03*
D17*
X49280000Y-40902000D03*
D16*
X50280000Y-40902000D03*
D17*
X49780000Y-40902000D03*
D16*
X48780000Y-41902000D03*
D17*
X49780000Y-41902000D03*
X49280000Y-41902000D03*
D16*
X50280000Y-41902000D03*
D18*
X60960000Y-45434000D03*
X60960000Y-43434000D03*
D19*
X45750000Y-64604460D03*
X45100000Y-64604460D03*
X44450000Y-64604460D03*
X43800000Y-64604460D03*
X43150000Y-64604460D03*
D20*
X46950000Y-64604460D03*
X41950000Y-64604460D03*
D21*
X47950000Y-67304460D03*
X40950000Y-67304460D03*
D22*
X64268496Y-38354000D03*
X62768496Y-38354000D03*
D23*
X58232058Y-63040384D03*
D10*
G36*
X57595662Y-61272617D02*
X59999825Y-63676780D01*
X58868454Y-64808151D01*
X56464291Y-62403988D01*
X57595662Y-61272617D01*
X57595662Y-61272617D01*
G37*
D23*
X63040384Y-58232058D03*
D10*
G36*
X62403988Y-56464291D02*
X64808151Y-58868454D01*
X63676780Y-59999825D01*
X61272617Y-57595662D01*
X62403988Y-56464291D01*
X62403988Y-56464291D01*
G37*
D24*
X56004672Y-57418885D03*
D10*
G36*
X55120789Y-55827895D02*
X57595662Y-58302768D01*
X56888555Y-59009875D01*
X54413682Y-56535002D01*
X55120789Y-55827895D01*
X55120789Y-55827895D01*
G37*
D24*
X57418885Y-56004672D03*
D10*
G36*
X56535002Y-54413682D02*
X59009875Y-56888555D01*
X58302768Y-57595662D01*
X55827895Y-55120789D01*
X56535002Y-54413682D01*
X56535002Y-54413682D01*
G37*
D12*
X27560755Y-30389182D03*
D10*
G36*
X27737532Y-30919512D02*
X27030425Y-30212405D01*
X27383978Y-29858852D01*
X28091085Y-30565959D01*
X27737532Y-30919512D01*
X27737532Y-30919512D01*
G37*
D12*
X28126440Y-29823496D03*
D10*
G36*
X28303217Y-30353826D02*
X27596110Y-29646719D01*
X27949663Y-29293166D01*
X28656770Y-30000273D01*
X28303217Y-30353826D01*
X28303217Y-30353826D01*
G37*
D12*
X28692125Y-29257811D03*
D10*
G36*
X28868902Y-29788141D02*
X28161795Y-29081034D01*
X28515348Y-28727481D01*
X29222455Y-29434588D01*
X28868902Y-29788141D01*
X28868902Y-29788141D01*
G37*
D12*
X29257811Y-28692125D03*
D10*
G36*
X29434588Y-29222455D02*
X28727481Y-28515348D01*
X29081034Y-28161795D01*
X29788141Y-28868902D01*
X29434588Y-29222455D01*
X29434588Y-29222455D01*
G37*
D12*
X29823496Y-28126440D03*
D10*
G36*
X30000273Y-28656770D02*
X29293166Y-27949663D01*
X29646719Y-27596110D01*
X30353826Y-28303217D01*
X30000273Y-28656770D01*
X30000273Y-28656770D01*
G37*
D12*
X30389182Y-27560755D03*
D10*
G36*
X30565959Y-28091085D02*
X29858852Y-27383978D01*
X30212405Y-27030425D01*
X30919512Y-27737532D01*
X30565959Y-28091085D01*
X30565959Y-28091085D01*
G37*
D13*
X29929562Y-25262658D03*
D10*
G36*
X30106339Y-26287963D02*
X28904257Y-25085881D01*
X29752785Y-24237353D01*
X30954867Y-25439435D01*
X30106339Y-26287963D01*
X30106339Y-26287963D01*
G37*
D13*
X25262658Y-29929562D03*
D10*
G36*
X25439435Y-30954867D02*
X24237353Y-29752785D01*
X25085881Y-28904257D01*
X26287963Y-30106339D01*
X25439435Y-30954867D01*
X25439435Y-30954867D01*
G37*
D12*
X34227214Y-24996263D03*
D10*
G36*
X34187586Y-25553874D02*
X33804902Y-24629994D01*
X34266842Y-24438652D01*
X34649526Y-25362532D01*
X34187586Y-25553874D01*
X34187586Y-25553874D01*
G37*
D12*
X34966318Y-24690117D03*
D10*
G36*
X34926690Y-25247728D02*
X34544006Y-24323848D01*
X35005946Y-24132506D01*
X35388630Y-25056386D01*
X34926690Y-25247728D01*
X34926690Y-25247728D01*
G37*
D12*
X35705422Y-24383970D03*
D10*
G36*
X35665794Y-24941581D02*
X35283110Y-24017701D01*
X35745050Y-23826359D01*
X36127734Y-24750239D01*
X35665794Y-24941581D01*
X35665794Y-24941581D01*
G37*
D12*
X36444525Y-24077823D03*
D10*
G36*
X36404897Y-24635434D02*
X36022213Y-23711554D01*
X36484153Y-23520212D01*
X36866837Y-24444092D01*
X36404897Y-24635434D01*
X36404897Y-24635434D01*
G37*
D12*
X37183629Y-23771676D03*
D10*
G36*
X37144001Y-24329287D02*
X36761317Y-23405407D01*
X37223257Y-23214065D01*
X37605941Y-24137945D01*
X37144001Y-24329287D01*
X37144001Y-24329287D01*
G37*
D12*
X37922731Y-23465530D03*
D10*
G36*
X37883103Y-24023141D02*
X37500419Y-23099261D01*
X37962359Y-22907919D01*
X38345043Y-23831799D01*
X37883103Y-24023141D01*
X37883103Y-24023141D01*
G37*
D13*
X38377543Y-21166476D03*
D10*
G36*
X38148496Y-22181384D02*
X37497934Y-20610788D01*
X38606590Y-20151568D01*
X39257152Y-21722164D01*
X38148496Y-22181384D01*
X38148496Y-22181384D01*
G37*
D13*
X32279938Y-23692187D03*
D10*
G36*
X32050891Y-24707095D02*
X31400329Y-23136499D01*
X32508985Y-22677279D01*
X33159547Y-24247875D01*
X32050891Y-24707095D01*
X32050891Y-24707095D01*
G37*
D25*
X41150000Y-20615000D03*
X47750000Y-20615000D03*
D26*
X46450000Y-22565000D03*
X45650000Y-22565000D03*
X44850000Y-22565000D03*
X44050000Y-22565000D03*
X43250000Y-22565000D03*
X42450000Y-22565000D03*
D27*
X52790000Y-42418000D03*
X53890000Y-42418000D03*
D28*
X33716000Y-42842000D03*
X31816000Y-42842000D03*
X31816000Y-45042000D03*
X32766000Y-45042000D03*
X33716000Y-45042000D03*
D29*
X56134000Y-37846000D03*
X56134000Y-35306000D03*
X56134000Y-32766000D03*
X56134000Y-30226000D03*
D30*
X56654000Y-44450000D03*
X58154000Y-44450000D03*
D27*
X56346000Y-42926000D03*
X57446000Y-42926000D03*
D11*
X60960000Y-38874000D03*
X60960000Y-40374000D03*
D24*
X32004000Y-33655000D03*
X32004000Y-64389000D03*
X63500000Y-33655000D03*
D11*
X51054000Y-62726000D03*
X51054000Y-61226000D03*
D22*
X62756496Y-40386000D03*
X64256496Y-40386000D03*
D11*
X47498000Y-53352000D03*
X47498000Y-54852000D03*
D28*
X49342000Y-55456000D03*
X51242000Y-55456000D03*
X51242000Y-53256000D03*
X50292000Y-53256000D03*
X49342000Y-53256000D03*
D29*
X53594000Y-30226000D03*
D31*
X51546000Y-50800000D03*
X49546000Y-50800000D03*
X51832000Y-44196000D03*
X53832000Y-44196000D03*
D14*
X43434000Y-46101000D03*
X43434000Y-46811000D03*
D15*
X42509000Y-45956000D03*
X42509000Y-46456000D03*
X42509000Y-46956000D03*
X44359000Y-46956000D03*
X44359000Y-46456000D03*
X44359000Y-45956000D03*
D30*
X46506000Y-33528000D03*
X48006000Y-33528000D03*
D27*
X46906000Y-32004000D03*
X48006000Y-32004000D03*
D29*
X53594000Y-32766000D03*
D32*
X42093500Y-30226000D03*
X42093500Y-28956000D03*
X42093500Y-27686000D03*
X42093500Y-26416000D03*
X48518500Y-26416000D03*
X48518500Y-27686000D03*
X48518500Y-28956000D03*
X48518500Y-30226000D03*
D33*
X32440000Y-48514000D03*
X38680000Y-48514000D03*
D34*
X36322000Y-40204000D03*
X36322000Y-33964000D03*
D35*
X35306000Y-48514000D03*
D36*
X46990000Y-47218590D03*
D37*
X48260000Y-49403000D03*
D36*
X47879000Y-44323000D03*
D35*
X40132000Y-41910000D03*
X44450000Y-41656000D03*
X65265304Y-55210416D03*
X55210416Y-23634696D03*
X22459280Y-51865416D03*
X54165500Y-27749500D03*
X62357000Y-29337000D03*
X58273000Y-33381000D03*
X48768000Y-38100000D03*
X45974000Y-27210000D03*
X45974000Y-32004000D03*
X29337000Y-26543000D03*
X41148000Y-33782000D03*
X37034584Y-22459280D03*
X46014533Y-21295467D03*
X59436000Y-45466000D03*
X43180000Y-61214000D03*
D37*
X55003557Y-58420000D03*
D35*
X66027424Y-36474585D03*
X67437000Y-45339000D03*
X60075646Y-61332882D03*
X52425415Y-66027424D03*
X43561000Y-67437000D03*
X34831927Y-65347013D03*
X27567118Y-60075646D03*
X21463000Y-43561000D03*
X23552987Y-34831927D03*
X55372000Y-44450000D03*
D37*
X35814000Y-31242000D03*
X40640000Y-58674000D03*
D35*
X51816026Y-42926000D03*
X48006000Y-40005000D03*
X59563000Y-43053000D03*
X41402000Y-39624000D03*
X38227000Y-44323000D03*
X38862000Y-63881000D03*
X42545000Y-68199000D03*
D36*
X42799000Y-54483000D03*
X42799000Y-55245000D03*
X49530000Y-43688000D03*
X50292000Y-42926000D03*
D37*
X36449000Y-37846000D03*
X36322000Y-44323000D03*
D35*
X41264052Y-62748948D03*
X56134000Y-28638500D03*
X23650188Y-54302738D03*
X66124626Y-52190750D03*
X59896041Y-27387513D03*
X34597262Y-23650188D03*
X27387513Y-29003959D03*
X52190750Y-22775374D03*
X52324000Y-57150000D03*
X65249812Y-34597262D03*
X67437000Y-43307000D03*
X61512487Y-59896041D03*
X54302738Y-65249812D03*
X36709250Y-66124626D03*
X29003959Y-61512487D03*
X21463000Y-45593000D03*
X22775374Y-36709250D03*
X43307000Y-21463000D03*
X60960000Y-37719000D03*
X59944000Y-36322000D03*
X26344390Y-55248721D03*
X27544566Y-31855089D03*
X33651279Y-26344390D03*
X41402000Y-23590106D03*
X49616751Y-24011552D03*
X57044911Y-27544566D03*
X64888448Y-49616751D03*
D37*
X40767000Y-50800000D03*
X52959000Y-51435000D03*
D35*
X55880000Y-39624000D03*
X50292000Y-64897000D03*
X49784000Y-35814000D03*
X59436000Y-44196000D03*
D36*
X53594000Y-48260000D03*
X42291000Y-52197000D03*
X48641000Y-45529500D03*
X38735000Y-41656000D03*
D35*
X36703000Y-51181000D03*
X40894000Y-49276000D03*
D36*
X49276000Y-47752000D03*
X50165000Y-46101000D03*
D35*
X45974000Y-41402000D03*
X51562000Y-27686000D03*
X51562000Y-26416000D03*
X45085000Y-28956000D03*
X56388000Y-51562000D03*
X54864000Y-49530000D03*
X61468000Y-46990000D03*
X52197000Y-38100000D03*
X45720000Y-30226000D03*
X46355000Y-29083000D03*
X55118000Y-31496000D03*
X49276000Y-65024000D03*
D37*
X45720000Y-66548000D03*
X46863000Y-62865000D03*
X32258000Y-52070000D03*
D35*
X36068000Y-55880000D03*
X51308000Y-41656000D03*
X60956001Y-41913999D03*
X52070000Y-40132000D03*
D36*
X49530000Y-44450000D03*
X42037000Y-48006000D03*
X44704000Y-47752000D03*
D38*
X32440000Y-48514000D02*
X35306000Y-48514000D01*
X43180000Y-63119000D02*
X43180000Y-61214000D01*
X43150000Y-63149000D02*
X43180000Y-63119000D01*
D39*
X43150000Y-64604460D02*
X43150000Y-63149000D01*
X43150000Y-64604460D02*
X43150000Y-66040000D01*
X40386000Y-55219000D02*
X40386000Y-58420000D01*
X40386000Y-58420000D02*
X40640000Y-58674000D01*
D38*
X43561000Y-67437000D02*
X43561000Y-66451000D01*
X43561000Y-66451000D02*
X43150000Y-66040000D01*
D39*
X47498000Y-53352000D02*
X47698000Y-53352000D01*
X47698000Y-53352000D02*
X48260000Y-52790000D01*
D38*
X49546000Y-50800000D02*
X49546000Y-50689000D01*
X49546000Y-50689000D02*
X48260000Y-49403000D01*
D39*
X48260000Y-49403000D02*
X48260000Y-52790000D01*
D40*
X46736001Y-46964591D02*
X46990000Y-47218590D01*
X44359000Y-46456000D02*
X46227410Y-46456000D01*
X46227410Y-46456000D02*
X46736001Y-46964591D01*
D38*
X49546000Y-50800000D02*
X49530000Y-50800000D01*
D40*
X43789000Y-46456000D02*
X43434000Y-46101000D01*
X44359000Y-46456000D02*
X43789000Y-46456000D01*
X43789000Y-46456000D02*
X43434000Y-46811000D01*
X48780000Y-40902000D02*
X48780000Y-38112000D01*
X48780000Y-38112000D02*
X48768000Y-38100000D01*
D39*
X45629012Y-26416000D02*
X42093500Y-26416000D01*
X65680137Y-55038587D02*
X65265304Y-55210416D01*
X63935543Y-54659611D02*
X65265304Y-55210416D01*
X65434470Y-50977268D02*
X66546450Y-51437865D01*
X66546450Y-51437865D02*
X66859027Y-52192493D01*
X66859027Y-52192493D02*
X65680137Y-55038587D01*
X50977268Y-23465530D02*
X51437865Y-22353550D01*
X51437865Y-22353550D02*
X52192493Y-22040973D01*
X54659611Y-24964457D02*
X55210416Y-23634696D01*
X55038587Y-23219863D02*
X55210416Y-23634696D01*
X52192493Y-22040973D02*
X55038587Y-23219863D01*
X23884284Y-55133383D02*
X23170766Y-54837834D01*
X23170766Y-54837834D02*
X22199415Y-52492786D01*
X24996263Y-54672786D02*
X23884284Y-55133383D01*
X22768924Y-51265811D02*
X22694953Y-51296451D01*
X23465530Y-50977268D02*
X22768924Y-51265811D01*
X22199415Y-52492786D02*
X22459280Y-51865416D01*
X22694953Y-51296451D02*
X22459280Y-51865416D01*
D38*
X53594000Y-30226000D02*
X53594000Y-28321000D01*
X53594000Y-28321000D02*
X54165500Y-27749500D01*
D39*
X60178694Y-26709682D02*
X62357001Y-28887988D01*
X61339245Y-30354755D02*
X62357000Y-29337000D01*
X62357001Y-28887988D02*
X62357000Y-29337000D01*
X59361891Y-26709682D02*
X60134197Y-26709682D01*
X58510818Y-27560755D02*
X59361891Y-26709682D01*
D40*
X41311000Y-54864000D02*
X40741000Y-54864000D01*
X40741000Y-54864000D02*
X40386000Y-54509000D01*
D39*
X45974000Y-32004000D02*
X46906000Y-32004000D01*
X45974000Y-32004000D02*
X45974000Y-32996000D01*
X45974000Y-32996000D02*
X46506000Y-33528000D01*
X45974000Y-27210000D02*
X45974000Y-26760988D01*
X45974000Y-26760988D02*
X45629012Y-26416000D01*
X27560755Y-30389182D02*
X26709682Y-29538109D01*
X26709682Y-29538109D02*
X26709682Y-28721306D01*
X26709682Y-28721306D02*
X28887988Y-26543000D01*
X28887988Y-26543000D02*
X29337000Y-26543000D01*
X30389182Y-27560755D02*
X30354755Y-27560755D01*
X30354755Y-27560755D02*
X29337000Y-26543000D01*
X64256496Y-40386000D02*
X64256496Y-42158496D01*
X64256496Y-42158496D02*
X67437000Y-45339000D01*
X37922732Y-23465530D02*
X37634189Y-22768924D01*
X36407214Y-22199415D02*
X37034584Y-22459280D01*
X37634189Y-22768924D02*
X37603549Y-22694953D01*
X37603549Y-22694953D02*
X37034584Y-22459280D01*
X34062166Y-23170766D02*
X36407214Y-22199415D01*
X34227214Y-24996263D02*
X33766617Y-23884284D01*
X33766617Y-23884284D02*
X34062166Y-23170766D01*
X42450000Y-22565000D02*
X42450000Y-21361402D01*
X42450000Y-21361402D02*
X42996103Y-20815299D01*
X42996103Y-20815299D02*
X45534365Y-20815299D01*
X45534365Y-20815299D02*
X46014533Y-21295467D01*
X46450000Y-21811000D02*
X46450000Y-21730934D01*
X46450000Y-21730934D02*
X46014533Y-21295467D01*
D38*
X59436000Y-45466000D02*
X60928000Y-45466000D01*
X60928000Y-45466000D02*
X60960000Y-45434000D01*
D39*
X55372000Y-44450000D02*
X56654000Y-44450000D01*
X56346000Y-42926000D02*
X55792000Y-42926000D01*
X55792000Y-42926000D02*
X55372000Y-43346000D01*
D38*
X55372000Y-44450000D02*
X55372000Y-43346000D01*
D39*
X55372000Y-44450000D02*
X54086000Y-44450000D01*
X54086000Y-44450000D02*
X53832000Y-44196000D01*
X53890000Y-42418000D02*
X54444000Y-42418000D01*
X54444000Y-42418000D02*
X55372000Y-43346000D01*
D38*
X56004672Y-57418885D02*
X55003557Y-58420000D01*
X56004672Y-57418885D02*
X59918669Y-61332882D01*
X59918669Y-61332882D02*
X60075646Y-61332882D01*
D39*
X46450000Y-22565000D02*
X46450000Y-21811000D01*
D38*
X50292000Y-53256000D02*
X50292000Y-51546000D01*
X50292000Y-51546000D02*
X49546000Y-50800000D01*
X32440000Y-48514000D02*
X32766000Y-48188000D01*
X32766000Y-48188000D02*
X32766000Y-45042000D01*
X36322000Y-33964000D02*
X36322000Y-31750000D01*
X36322000Y-31750000D02*
X35814000Y-31242000D01*
D39*
X40386000Y-55219000D02*
X40386000Y-54509000D01*
X43434000Y-46811000D02*
X43434000Y-46101000D01*
X52790000Y-42418000D02*
X52324026Y-42418000D01*
X52324026Y-42418000D02*
X51816026Y-42926000D01*
X51832000Y-44196000D02*
X51832000Y-42941974D01*
D40*
X52133525Y-42608501D02*
X51816026Y-42926000D01*
X52133525Y-41598109D02*
X52133525Y-42608501D01*
X51437416Y-40902000D02*
X52133525Y-41598109D01*
X50280000Y-40902000D02*
X51437416Y-40902000D01*
D39*
X51832000Y-42941974D02*
X51816026Y-42926000D01*
X51747988Y-42926000D02*
X51816026Y-42926000D01*
X51689000Y-42867012D02*
X51747988Y-42926000D01*
X48006000Y-33528000D02*
X48006000Y-40005000D01*
D40*
X49780000Y-40902000D02*
X50280000Y-40902000D01*
X49280000Y-40902000D02*
X49780000Y-40902000D01*
D39*
X48006000Y-32004000D02*
X48006000Y-30738500D01*
X48006000Y-30738500D02*
X48518500Y-30226000D01*
X48006000Y-33528000D02*
X52832000Y-33528000D01*
X52832000Y-33528000D02*
X53594000Y-32766000D01*
D40*
X62230000Y-43053000D02*
X62230000Y-41644000D01*
X62230000Y-41644000D02*
X60960000Y-40374000D01*
X61849000Y-43434000D02*
X62230000Y-43053000D01*
X60960000Y-43434000D02*
X61849000Y-43434000D01*
D39*
X57446000Y-42926000D02*
X59436000Y-42926000D01*
X59436000Y-42926000D02*
X59563000Y-43053000D01*
D38*
X60960000Y-43434000D02*
X59944000Y-43434000D01*
X59944000Y-43434000D02*
X59563000Y-43053000D01*
D39*
X48006000Y-33528000D02*
X48006000Y-32004000D01*
X41682000Y-46456000D02*
X40360000Y-46456000D01*
D40*
X42509000Y-46456000D02*
X41682000Y-46456000D01*
D39*
X40360000Y-46456000D02*
X38227000Y-44323000D01*
D38*
X36322000Y-40204000D02*
X36322000Y-42418000D01*
X36322000Y-42418000D02*
X38227000Y-44323000D01*
X41402000Y-39624000D02*
X36902000Y-39624000D01*
X36902000Y-39624000D02*
X36322000Y-40204000D01*
X33716000Y-42842000D02*
X33716000Y-41087000D01*
X33716000Y-41087000D02*
X34599000Y-40204000D01*
X34599000Y-40204000D02*
X36322000Y-40204000D01*
D40*
X42545000Y-68199000D02*
X42545000Y-66294000D01*
X42545000Y-66294000D02*
X41910000Y-65659000D01*
X41910000Y-65659000D02*
X40005000Y-65659000D01*
X40005000Y-65659000D02*
X38862000Y-64516000D01*
D39*
X38862000Y-64516000D02*
X38862000Y-63881000D01*
D40*
X45100000Y-64604460D02*
X45100000Y-63591960D01*
X45100000Y-63591960D02*
X45003600Y-63495560D01*
X45003600Y-63495560D02*
X45003600Y-56110312D01*
X42799000Y-54483000D02*
X42951401Y-54635401D01*
X42951401Y-54635401D02*
X43528689Y-54635401D01*
X43528689Y-54635401D02*
X45003600Y-56110312D01*
X41311000Y-54364000D02*
X41836000Y-54364000D01*
X41836000Y-54364000D02*
X42107401Y-54635401D01*
X42107401Y-54635401D02*
X42646599Y-54635401D01*
X42646599Y-54635401D02*
X42799000Y-54483000D01*
X44450000Y-64604460D02*
X44450000Y-63591960D01*
X44450000Y-63591960D02*
X44546400Y-63495560D01*
X44546400Y-63495560D02*
X44546400Y-58293000D01*
X44480950Y-58105953D02*
X44433447Y-58058450D01*
X44313157Y-58000521D02*
X44246400Y-57993000D01*
X43339311Y-55092599D02*
X42951401Y-55092599D01*
X44246400Y-57993000D02*
X44208136Y-57993000D01*
X44538879Y-57159756D02*
X44546400Y-57093000D01*
X44546400Y-58293000D02*
X44538879Y-58226243D01*
X44077971Y-57963290D02*
X44021090Y-57927549D01*
X44538879Y-58226243D02*
X44516691Y-58162834D01*
X43973587Y-57880046D02*
X43937846Y-57823165D01*
X44480950Y-57280046D02*
X44516691Y-57223165D01*
X44516691Y-58162834D02*
X44480950Y-58105953D01*
X43937846Y-57823165D02*
X43915658Y-57759756D01*
X44433447Y-57327549D02*
X44480950Y-57280046D01*
X44433447Y-58058450D02*
X44376566Y-58022709D01*
X44376566Y-58022709D02*
X44313157Y-58000521D01*
X44546400Y-57093000D02*
X44546400Y-56299688D01*
X44208136Y-57393000D02*
X44246400Y-57393000D01*
X44208136Y-57993000D02*
X44141380Y-57985478D01*
X44141380Y-57985478D02*
X44077971Y-57963290D01*
X44376566Y-57363290D02*
X44433447Y-57327549D01*
X44021090Y-57927549D02*
X43973587Y-57880046D01*
X43915658Y-57626243D02*
X43937846Y-57562834D01*
X43915658Y-57759756D02*
X43908136Y-57693000D01*
X43908136Y-57693000D02*
X43915658Y-57626243D01*
X44077971Y-57422709D02*
X44141380Y-57400521D01*
X42951401Y-55092599D02*
X42809981Y-55234019D01*
X43937846Y-57562834D02*
X43973587Y-57505953D01*
X43973587Y-57505953D02*
X44021090Y-57458450D01*
X44246400Y-57393000D02*
X44313157Y-57385478D01*
X44516691Y-57223165D02*
X44538879Y-57159756D01*
X44021090Y-57458450D02*
X44077971Y-57422709D01*
X44141380Y-57400521D02*
X44208136Y-57393000D01*
X44313157Y-57385478D02*
X44376566Y-57363290D01*
X44546400Y-56299688D02*
X43339311Y-55092599D01*
X42809981Y-55234019D02*
X42799000Y-55245000D01*
X42107401Y-55092599D02*
X42646599Y-55092599D01*
X42646599Y-55092599D02*
X42799000Y-55245000D01*
X41311000Y-55364000D02*
X41836000Y-55364000D01*
X41836000Y-55364000D02*
X42107401Y-55092599D01*
X49280000Y-41902000D02*
X49280000Y-43438000D01*
X49280000Y-43438000D02*
X49530000Y-43688000D01*
X49780000Y-41902000D02*
X49780000Y-42414000D01*
X49780000Y-42414000D02*
X50292000Y-42926000D01*
D38*
X38680000Y-48484000D02*
X36297000Y-46101000D01*
X36297000Y-46101000D02*
X35238000Y-45042000D01*
X36322000Y-44323000D02*
X36322000Y-46076000D01*
X36322000Y-46076000D02*
X36297000Y-46101000D01*
D40*
X52324000Y-57150000D02*
X52324000Y-58817000D01*
X51054000Y-60087000D02*
X52324000Y-58817000D01*
X51054000Y-61226000D02*
X51054000Y-60087000D01*
D39*
X52324000Y-57150000D02*
X52324000Y-56538000D01*
X52324000Y-56538000D02*
X51242000Y-55456000D01*
X35052000Y-50292000D02*
X31269358Y-50292000D01*
X31269358Y-50292000D02*
X29718000Y-48740642D01*
X29718000Y-48740642D02*
X29718000Y-48244000D01*
X29718000Y-48244000D02*
X29718000Y-47740000D01*
X35814000Y-49530000D02*
X35052000Y-50292000D01*
D38*
X56134000Y-30226000D02*
X56134000Y-28638500D01*
D39*
X51790846Y-23740828D02*
X51716371Y-23771676D01*
X23650188Y-54302738D02*
X22886735Y-52459599D01*
X22886735Y-52459599D02*
X23075071Y-52004915D01*
X23650188Y-54302738D02*
X24615642Y-53902834D01*
X24615642Y-53902834D02*
X24690117Y-53933682D01*
X23075071Y-52004915D02*
X23771676Y-51716371D01*
X64906489Y-54222226D02*
X64209883Y-53933682D01*
X65361173Y-54033889D02*
X64906489Y-54222226D01*
X66124626Y-52190750D02*
X65361173Y-54033889D01*
X65159172Y-51790846D02*
X65128324Y-51716371D01*
X66124626Y-52190750D02*
X65159172Y-51790846D01*
X65159172Y-51790846D02*
X65128324Y-51716371D01*
X59896041Y-27387513D02*
X61306718Y-28798191D01*
X61306719Y-29290337D02*
X60773560Y-29823497D01*
X61306718Y-28798191D02*
X61306719Y-29290337D01*
X59157114Y-28126440D02*
X59076503Y-28126439D01*
X59896041Y-27387513D02*
X59157114Y-28126440D01*
X59157114Y-28126440D02*
X59076503Y-28126439D01*
X64268496Y-38354000D02*
X64268496Y-35578578D01*
X64268496Y-35578578D02*
X65249812Y-34597262D01*
X28126440Y-29742886D02*
X28126440Y-29823496D01*
X34997166Y-24615642D02*
X34966318Y-24690117D01*
X28798191Y-27593281D02*
X29290338Y-27593281D01*
X36440401Y-22886735D02*
X36895085Y-23075071D01*
X29290338Y-27593281D02*
X29823496Y-28126440D01*
X36895085Y-23075071D02*
X37183629Y-23771676D01*
X27387513Y-29003959D02*
X28798191Y-27593281D01*
X34597262Y-23650188D02*
X36440401Y-22886735D01*
X27387513Y-29003959D02*
X28126440Y-29742886D01*
X34597262Y-23650188D02*
X34997166Y-24615642D01*
X52190750Y-22775374D02*
X51790846Y-23740828D01*
X51790846Y-23740828D02*
X51716371Y-23771676D01*
X54222226Y-23993511D02*
X53933682Y-24690117D01*
X54033889Y-23538827D02*
X54222226Y-23993511D01*
X52190750Y-22775374D02*
X54033889Y-23538827D01*
X43307000Y-21463000D02*
X45302000Y-21463000D01*
X45302000Y-21463000D02*
X45650000Y-21811000D01*
X45650000Y-21811000D02*
X45650000Y-22565000D01*
X51392000Y-55456000D02*
X51242000Y-55456000D01*
X51790846Y-23740828D02*
X51716371Y-23771676D01*
X43307000Y-21463000D02*
X43307000Y-22508000D01*
X43307000Y-22508000D02*
X43250000Y-22565000D01*
X36194999Y-49149001D02*
X35814000Y-49530000D01*
D38*
X36830000Y-48514000D02*
X35814000Y-49530000D01*
X38680000Y-48514000D02*
X36830000Y-48514000D01*
X38680000Y-48514000D02*
X38680000Y-48484000D01*
X35238000Y-45042000D02*
X34549000Y-45042000D01*
X34549000Y-45042000D02*
X33716000Y-45042000D01*
D39*
X60960000Y-37719000D02*
X56261000Y-37719000D01*
X56261000Y-37719000D02*
X56134000Y-37846000D01*
D40*
X60960000Y-38874000D02*
X60960000Y-37719000D01*
X56134000Y-35306000D02*
X58928000Y-35306000D01*
X58928000Y-35306000D02*
X59944000Y-36322000D01*
D39*
X25080575Y-52906035D02*
X24383970Y-53194579D01*
X26344390Y-55248721D02*
X25434792Y-53052757D01*
X25434792Y-53052757D02*
X25080575Y-52906035D01*
X27544566Y-31855089D02*
X29225284Y-30174371D01*
X29225284Y-30174371D02*
X29225284Y-29790969D01*
X29225284Y-29790969D02*
X28692125Y-29257811D01*
X33651279Y-26344390D02*
X35847243Y-25434792D01*
X35847243Y-25434792D02*
X35993965Y-25080575D01*
X35993965Y-25080575D02*
X35705421Y-24383970D01*
X41402000Y-23590106D02*
X43778894Y-23590106D01*
X43778894Y-23590106D02*
X44050000Y-23319000D01*
X44050000Y-23319000D02*
X44050000Y-22565000D01*
X49616751Y-24011552D02*
X51812715Y-24921150D01*
X51812715Y-24921150D02*
X52166932Y-24774428D01*
X52166932Y-24774428D02*
X52455475Y-24077823D01*
X59109031Y-29225284D02*
X59642189Y-28692125D01*
X58725629Y-29225284D02*
X59109031Y-29225284D01*
X57044911Y-27544566D02*
X58725629Y-29225284D01*
X64125572Y-52166932D02*
X64822177Y-52455475D01*
X63978850Y-51812715D02*
X64125572Y-52166932D01*
X64888448Y-49616751D02*
X63978850Y-51812715D01*
D38*
X52959000Y-51435000D02*
X52181000Y-51435000D01*
X52181000Y-51435000D02*
X51546000Y-50800000D01*
D41*
X52959000Y-51435000D02*
X55626000Y-54102000D01*
X55626000Y-54102000D02*
X55626000Y-54211787D01*
D38*
X52959000Y-51435000D02*
X52959000Y-51539000D01*
X52959000Y-51539000D02*
X51242000Y-53256000D01*
X55626000Y-54211787D02*
X57418885Y-56004672D01*
D40*
X58928000Y-39624000D02*
X55880000Y-39624000D01*
X61976000Y-39624000D02*
X58928000Y-39624000D01*
X62738000Y-40386000D02*
X61976000Y-39624000D01*
X62756496Y-40386000D02*
X62738000Y-40386000D01*
D39*
X62768496Y-38354000D02*
X62768496Y-40374000D01*
X62768496Y-40374000D02*
X62756496Y-40386000D01*
X49342000Y-55456000D02*
X48102000Y-55456000D01*
X48102000Y-55456000D02*
X47498000Y-54852000D01*
D40*
X51054000Y-62726000D02*
X51054000Y-64135000D01*
X51054000Y-64135000D02*
X50292000Y-64897000D01*
D39*
X49784000Y-35814000D02*
X53086000Y-35814000D01*
X53086000Y-35814000D02*
X56134000Y-32766000D01*
X59436000Y-44196000D02*
X58408000Y-44196000D01*
X58408000Y-44196000D02*
X58154000Y-44450000D01*
D40*
X46101000Y-48387000D02*
X53467000Y-48387000D01*
X53467000Y-48387000D02*
X53594000Y-48260000D01*
X42291000Y-52197000D02*
X46101000Y-48387000D01*
D39*
X31816000Y-45042000D02*
X30412000Y-45042000D01*
X30412000Y-45042000D02*
X29718000Y-45736000D01*
X29718000Y-45736000D02*
X29718000Y-46240000D01*
D40*
X47117000Y-44958000D02*
X48069500Y-44958000D01*
X48069500Y-44958000D02*
X48641000Y-45529500D01*
X46545200Y-44386200D02*
X47117000Y-44958000D01*
X40386000Y-44386200D02*
X46545200Y-44386200D01*
X40386000Y-43307000D02*
X40386000Y-44386200D01*
X40386000Y-44386200D02*
X41955800Y-45956000D01*
X38735000Y-41656000D02*
X40386000Y-43307000D01*
X42509000Y-45956000D02*
X41955800Y-45956000D01*
X40894000Y-49276000D02*
X38989000Y-51181000D01*
X38989000Y-51181000D02*
X36703000Y-51181000D01*
X41955800Y-46956000D02*
X42509000Y-46956000D01*
X40894000Y-49276000D02*
X40894000Y-47818750D01*
X40894000Y-47818750D02*
X41756750Y-46956000D01*
X41756750Y-46956000D02*
X41955800Y-46956000D01*
X44359000Y-46956000D02*
X44912200Y-46956000D01*
X44912200Y-46956000D02*
X45708200Y-47752000D01*
X45708200Y-47752000D02*
X48916790Y-47752000D01*
X48916790Y-47752000D02*
X49276000Y-47752000D01*
X50165000Y-46101000D02*
X46385830Y-46101000D01*
X44912200Y-45956000D02*
X44359000Y-45956000D01*
X46240830Y-45956000D02*
X44912200Y-45956000D01*
X46385830Y-46101000D02*
X46240830Y-45956000D01*
X48641000Y-44196000D02*
X48641000Y-44577000D01*
X48641000Y-44577000D02*
X50165000Y-46101000D01*
X46291499Y-41846499D02*
X48641000Y-44196000D01*
X45974000Y-41402000D02*
X46291499Y-41719499D01*
X46291499Y-41719499D02*
X46291499Y-41846499D01*
X51562000Y-27686000D02*
X48518500Y-27686000D01*
X48518500Y-26416000D02*
X50009200Y-26416000D01*
X50009200Y-26416000D02*
X51562000Y-26416000D01*
X45085000Y-28956000D02*
X44635988Y-28956000D01*
X44635988Y-28956000D02*
X42093500Y-28956000D01*
X56388000Y-51562000D02*
X56388000Y-51054000D01*
X56388000Y-51054000D02*
X54864000Y-49530000D01*
X42093500Y-30226000D02*
X45720000Y-30226000D01*
X42093500Y-27686000D02*
X44958000Y-27686000D01*
X44958000Y-27686000D02*
X46355000Y-29083000D01*
X50038000Y-28956000D02*
X48518500Y-28956000D01*
X52578000Y-31496000D02*
X55118000Y-31496000D01*
X50038000Y-28956000D02*
X52578000Y-31496000D01*
X50342810Y-54990010D02*
X50342810Y-59893190D01*
X50342810Y-59893190D02*
X49276000Y-60960000D01*
X49276000Y-65024000D02*
X49276000Y-60960000D01*
X49342000Y-53256000D02*
X49342000Y-53989200D01*
X49342000Y-53989200D02*
X50342810Y-54990010D01*
D39*
X45750000Y-64604460D02*
X45750000Y-63246000D01*
X45750000Y-63246000D02*
X46131000Y-62865000D01*
X46131000Y-62865000D02*
X46863000Y-62865000D01*
X45750000Y-65629000D02*
X45750000Y-64604460D01*
D38*
X45750000Y-65629000D02*
X45750000Y-66518000D01*
X45750000Y-66518000D02*
X45720000Y-66548000D01*
D40*
X39461000Y-54864000D02*
X37084000Y-54864000D01*
X37084000Y-54864000D02*
X36068000Y-55880000D01*
X50280000Y-41902000D02*
X51062000Y-41902000D01*
X51062000Y-41902000D02*
X51308000Y-41656000D01*
D39*
X60956001Y-41913999D02*
X60956001Y-41906001D01*
X60956001Y-41906001D02*
X60706000Y-41656000D01*
X54226642Y-41656000D02*
X60706000Y-41656000D01*
X52070000Y-40132000D02*
X52702642Y-40132000D01*
X52702642Y-40132000D02*
X54226642Y-41656000D01*
D40*
X48780000Y-41902000D02*
X48780000Y-43700000D01*
X48780000Y-43700000D02*
X49530000Y-44450000D01*
X44704000Y-47752000D02*
X42290999Y-47752001D01*
X42290999Y-47752001D02*
X42037000Y-48006000D01*
M02*
