G04 #@! TF.FileFunction,Copper,L4,Bot,Signal*
%FSLAX46Y46*%
G04 Gerber Fmt 4.6, Leading zero omitted, Abs format (unit mm)*
G04 Created by KiCad (PCBNEW 4.1.0-alpha+201608211231+7083~46~ubuntu16.04.1-product) date Fri Aug 26 12:21:51 2016*
%MOMM*%
%LPD*%
G01*
G04 APERTURE LIST*
%ADD10C,0.100000*%
%ADD11O,1.250000X0.950000*%
%ADD12O,1.000000X1.550000*%
%ADD13C,1.500000*%
%ADD14C,0.762000*%
%ADD15C,0.635000*%
%ADD16C,0.508000*%
%ADD17C,0.508000*%
%ADD18C,0.203200*%
%ADD19C,0.254000*%
G04 APERTURE END LIST*
D10*
D11*
X99099100Y-137375460D03*
X104099100Y-137375460D03*
D12*
X98099100Y-140075460D03*
X105099100Y-140075460D03*
D13*
X113284000Y-113030000D03*
X113284000Y-110490000D03*
D14*
X82423000Y-108331000D03*
X85162000Y-105990000D03*
D15*
X115013820Y-69216175D03*
X126385507Y-76814493D03*
X133983825Y-88186180D03*
X136652000Y-101600000D03*
X133983825Y-115013820D03*
X126385507Y-126385507D03*
X88186180Y-133983825D03*
X76814493Y-126385507D03*
X69216175Y-115013820D03*
X66548000Y-101600000D03*
X69216175Y-88186180D03*
X76814493Y-76814493D03*
X88186180Y-69216175D03*
X101600000Y-66548000D03*
D14*
X141136481Y-106117952D03*
D15*
X95255864Y-140710136D03*
D14*
X87122000Y-109360000D03*
X70448811Y-126361839D03*
X63344109Y-112555912D03*
X62063519Y-97082048D03*
X66802000Y-82296000D03*
X76838161Y-70448811D03*
X90644088Y-63344109D03*
X106117952Y-62063519D03*
X120904000Y-66802000D03*
X132751189Y-76838161D03*
X139855891Y-90644088D03*
X136398000Y-120904000D03*
X126361839Y-132751189D03*
X112555912Y-139855891D03*
X82296000Y-136398000D03*
X100076000Y-139192000D03*
X100076000Y-135636000D03*
D15*
X115013820Y-133983825D03*
D14*
X93472000Y-142748000D03*
X98044000Y-144272000D03*
D15*
X78740000Y-112268000D03*
D14*
X103124000Y-139192000D03*
X103124000Y-135636000D03*
X85598000Y-111125000D03*
X90805000Y-119253000D03*
D15*
X112522000Y-107696000D03*
X106426000Y-114808000D03*
D14*
X92414000Y-115274000D03*
X92456000Y-104394000D03*
X97282000Y-109220000D03*
D15*
X97028000Y-97282000D03*
X95546000Y-101134000D03*
X100734000Y-101242000D03*
D14*
X101346000Y-117856000D03*
X97790000Y-115582000D03*
D16*
X100766100Y-122936000D03*
X100893100Y-134620000D03*
X101655100Y-134620000D03*
X101782100Y-122936000D03*
D15*
X91948000Y-108712000D03*
X106172000Y-100838000D03*
X93218000Y-108712000D03*
X107188000Y-99822000D03*
X117348000Y-107696000D03*
X105918000Y-118110000D03*
X106680000Y-112776000D03*
X105664000Y-112268000D03*
X90170000Y-125095000D03*
X95894401Y-123190000D03*
D17*
X90644088Y-63344109D02*
X104837362Y-63344109D01*
X95573363Y-141027635D02*
X95255864Y-140710136D01*
X95573363Y-141067118D02*
X95573363Y-141027635D01*
X95504000Y-141136481D02*
X95573363Y-141067118D01*
X95504000Y-141136481D02*
X87034481Y-141136481D01*
X96520000Y-141136481D02*
X95504000Y-141136481D01*
X97900752Y-142494000D02*
X97877519Y-142494000D01*
X97877519Y-142494000D02*
X96520000Y-141136481D01*
X62063519Y-97082048D02*
X62063519Y-87034481D01*
X62063519Y-87034481D02*
X66802000Y-82296000D01*
X90644088Y-63344109D02*
X83942863Y-63344109D01*
X83942863Y-63344109D02*
X76838161Y-70448811D01*
X66802000Y-82296000D02*
X66802000Y-80484972D01*
X66802000Y-80484972D02*
X76838161Y-70448811D01*
X62063519Y-97082048D02*
X62063519Y-111275322D01*
X62063519Y-111275322D02*
X63344109Y-112555912D01*
X63344109Y-112555912D02*
X63344109Y-119257137D01*
X63344109Y-119257137D02*
X70448811Y-126361839D01*
X82296000Y-136398000D02*
X80484972Y-136398000D01*
X80484972Y-136398000D02*
X70448811Y-126361839D01*
X87034481Y-141136481D02*
X82296000Y-136398000D01*
X102235000Y-142494000D02*
X109917803Y-142494000D01*
X112555912Y-139855891D02*
X109917803Y-142494000D01*
X100076000Y-140335000D02*
X102235000Y-142494000D01*
X100076000Y-140318752D02*
X100076000Y-140335000D01*
X97900752Y-142494000D02*
X100076000Y-140318752D01*
X100076000Y-140318752D02*
X100076000Y-139192000D01*
X104837362Y-63344109D02*
X106117952Y-62063519D01*
X106117952Y-62063519D02*
X116165519Y-62063519D01*
X116165519Y-62063519D02*
X120904000Y-66802000D01*
X132751189Y-76838161D02*
X130940161Y-76838161D01*
X130940161Y-76838161D02*
X120904000Y-66802000D01*
X139855891Y-90644088D02*
X139855891Y-83942863D01*
X139855891Y-83942863D02*
X132751189Y-76838161D01*
X141136481Y-106117952D02*
X141136481Y-91924678D01*
X141136481Y-91924678D02*
X139855891Y-90644088D01*
X141136481Y-106117952D02*
X141136481Y-116165519D01*
X141136481Y-116165519D02*
X136398000Y-120904000D01*
X126361839Y-132751189D02*
X126361839Y-130940161D01*
X126361839Y-130940161D02*
X136398000Y-120904000D01*
X112555912Y-139855891D02*
X119257137Y-139855891D01*
X119257137Y-139855891D02*
X126361839Y-132751189D01*
X98044000Y-144272000D02*
X94996000Y-144272000D01*
X94996000Y-144272000D02*
X93472000Y-142748000D01*
X79883000Y-111125000D02*
X78740000Y-112268000D01*
X80010000Y-111125000D02*
X79883000Y-111125000D01*
X85598000Y-111125000D02*
X80010000Y-111125000D01*
D18*
X100893100Y-134620000D02*
X101045501Y-134467599D01*
X101045501Y-134467599D02*
X101045501Y-123215401D01*
X101045501Y-123215401D02*
X100766100Y-122936000D01*
X101502699Y-134467599D02*
X101502699Y-123215401D01*
X101655100Y-134620000D02*
X101502699Y-134467599D01*
X101502699Y-123215401D02*
X101782100Y-122936000D01*
D19*
X91948000Y-108712000D02*
X94488000Y-106172000D01*
X94488000Y-106172000D02*
X103378000Y-106172000D01*
X106172000Y-103378000D02*
X106172000Y-100838000D01*
X103378000Y-106172000D02*
X106172000Y-103378000D01*
X93218000Y-108712000D02*
X94742000Y-107188000D01*
X94742000Y-107188000D02*
X103632000Y-107188000D01*
X103632000Y-107188000D02*
X107188000Y-103632000D01*
X107188000Y-103632000D02*
X107188000Y-99822000D01*
X117348000Y-107696000D02*
X117348000Y-114554000D01*
X117348000Y-114554000D02*
X116586000Y-115316000D01*
D18*
X114808000Y-117094000D02*
X116586000Y-115316000D01*
X107442000Y-117094000D02*
X114808000Y-117094000D01*
X106426000Y-118110000D02*
X107442000Y-117094000D01*
X105918000Y-118110000D02*
X106426000Y-118110000D01*
X106680000Y-112776000D02*
X113030000Y-112776000D01*
X113030000Y-112776000D02*
X113284000Y-113030000D01*
X113284000Y-110490000D02*
X107442000Y-110490000D01*
X107442000Y-110490000D02*
X105664000Y-112268000D01*
D19*
X92075000Y-123190000D02*
X90170000Y-125095000D01*
X95894401Y-123190000D02*
X92075000Y-123190000D01*
G36*
X110395148Y-58753379D02*
X118549932Y-61277706D01*
X126059098Y-65337897D01*
X132636624Y-70779300D01*
X138031975Y-77394654D01*
X142039644Y-84931982D01*
X144506978Y-93104189D01*
X145340000Y-101600000D01*
X145322946Y-102821292D01*
X144253033Y-111290531D01*
X141558478Y-119390661D01*
X137341918Y-126813150D01*
X131763959Y-133275277D01*
X125037064Y-138530903D01*
X117417459Y-142379843D01*
X109195371Y-144675491D01*
X100683979Y-145330407D01*
X98653883Y-145088333D01*
X98672539Y-145076493D01*
X98816828Y-144939088D01*
X98931681Y-144776273D01*
X99012723Y-144594251D01*
X99056866Y-144399955D01*
X99060044Y-144172376D01*
X99021343Y-143976923D01*
X98945415Y-143792709D01*
X98835153Y-143626751D01*
X98694756Y-143485371D01*
X98529572Y-143373953D01*
X98345893Y-143296741D01*
X98150715Y-143256677D01*
X97951472Y-143255286D01*
X97755753Y-143292621D01*
X97571014Y-143367261D01*
X97546962Y-143383000D01*
X95364236Y-143383000D01*
X94453092Y-142471856D01*
X94449343Y-142452923D01*
X94373415Y-142268709D01*
X94263153Y-142102751D01*
X94122756Y-141961371D01*
X93957572Y-141849953D01*
X93773893Y-141772741D01*
X93578715Y-141732677D01*
X93379472Y-141731286D01*
X93183753Y-141768621D01*
X92999014Y-141843261D01*
X92832290Y-141952361D01*
X92689933Y-142091768D01*
X92577364Y-142256170D01*
X92498872Y-142439306D01*
X92457446Y-142634200D01*
X92454664Y-142833428D01*
X92490633Y-143029403D01*
X92563981Y-143214659D01*
X92671915Y-143382140D01*
X92810324Y-143525467D01*
X92973936Y-143639180D01*
X93156520Y-143718949D01*
X93193940Y-143727176D01*
X94000175Y-144533411D01*
X92207477Y-144319645D01*
X84088733Y-141681706D01*
X80710434Y-139793638D01*
X96964100Y-139793638D01*
X96964100Y-140357282D01*
X96985716Y-140577738D01*
X97049740Y-140789797D01*
X97153734Y-140985381D01*
X97293737Y-141157042D01*
X97464416Y-141298240D01*
X97659270Y-141403597D01*
X97870877Y-141469100D01*
X98091176Y-141492254D01*
X98311778Y-141472178D01*
X98524278Y-141409636D01*
X98720584Y-141307009D01*
X98893218Y-141168208D01*
X99035604Y-140998520D01*
X99142319Y-140804406D01*
X99209298Y-140593262D01*
X99233989Y-140373129D01*
X99234100Y-140357282D01*
X99234100Y-139793638D01*
X99212484Y-139573182D01*
X99148460Y-139361123D01*
X99044466Y-139165539D01*
X98904463Y-138993878D01*
X98733784Y-138852680D01*
X98538930Y-138747323D01*
X98327323Y-138681820D01*
X98107024Y-138658666D01*
X97886422Y-138678742D01*
X97673922Y-138741284D01*
X97477616Y-138843911D01*
X97304982Y-138982712D01*
X97162596Y-139152400D01*
X97055881Y-139346514D01*
X96988902Y-139557658D01*
X96964211Y-139777791D01*
X96964100Y-139793638D01*
X80710434Y-139793638D01*
X76636989Y-137517066D01*
X76461498Y-137367711D01*
X97833030Y-137367711D01*
X97852664Y-137583453D01*
X97913829Y-137791273D01*
X98014195Y-137983255D01*
X98149938Y-138152086D01*
X98315890Y-138291336D01*
X98505727Y-138395700D01*
X98712221Y-138461204D01*
X98927505Y-138485352D01*
X98943003Y-138485460D01*
X99255197Y-138485460D01*
X99470797Y-138464320D01*
X99678185Y-138401706D01*
X99869462Y-138300003D01*
X100037341Y-138163084D01*
X100175429Y-137996164D01*
X100278465Y-137805602D01*
X100342526Y-137598656D01*
X100365170Y-137383209D01*
X100345536Y-137167467D01*
X100284371Y-136959647D01*
X100184005Y-136767665D01*
X100048262Y-136598834D01*
X99882310Y-136459584D01*
X99692473Y-136355220D01*
X99485979Y-136289716D01*
X99270695Y-136265568D01*
X99255197Y-136265460D01*
X98943003Y-136265460D01*
X98727403Y-136286600D01*
X98520015Y-136349214D01*
X98328738Y-136450917D01*
X98160859Y-136587836D01*
X98022771Y-136754756D01*
X97919735Y-136945318D01*
X97855674Y-137152264D01*
X97833030Y-137367711D01*
X76461498Y-137367711D01*
X70136077Y-131984357D01*
X64833617Y-125294317D01*
X60931577Y-117701768D01*
X59396435Y-112348089D01*
X77786248Y-112348089D01*
X77819968Y-112531815D01*
X77888732Y-112705493D01*
X77989920Y-112862506D01*
X78119679Y-112996875D01*
X78273065Y-113103482D01*
X78444237Y-113178265D01*
X78626674Y-113218376D01*
X78813428Y-113222288D01*
X78997386Y-113189852D01*
X79171539Y-113122302D01*
X79329255Y-113022212D01*
X79464527Y-112893395D01*
X79572201Y-112740756D01*
X79610500Y-112654736D01*
X80251236Y-112014000D01*
X85096799Y-112014000D01*
X85099936Y-112016180D01*
X85282520Y-112095949D01*
X85477119Y-112138734D01*
X85676324Y-112142907D01*
X85872545Y-112108308D01*
X86058308Y-112036255D01*
X86226539Y-111929493D01*
X86370828Y-111792088D01*
X86485681Y-111629273D01*
X86566723Y-111447251D01*
X86610866Y-111252955D01*
X86614044Y-111025376D01*
X86575343Y-110829923D01*
X86499415Y-110645709D01*
X86389153Y-110479751D01*
X86248756Y-110338371D01*
X86083572Y-110226953D01*
X85899893Y-110149741D01*
X85704715Y-110109677D01*
X85505472Y-110108286D01*
X85309753Y-110145621D01*
X85125014Y-110220261D01*
X85100962Y-110236000D01*
X79883000Y-110236000D01*
X79801296Y-110244011D01*
X79719467Y-110251170D01*
X79714975Y-110252475D01*
X79710326Y-110252931D01*
X79631716Y-110276665D01*
X79552854Y-110299577D01*
X79548706Y-110301727D01*
X79544228Y-110303079D01*
X79471691Y-110341647D01*
X79398816Y-110379422D01*
X79395163Y-110382338D01*
X79391035Y-110384533D01*
X79327389Y-110436442D01*
X79263220Y-110487667D01*
X79256712Y-110494084D01*
X79256580Y-110494192D01*
X79256479Y-110494315D01*
X79254382Y-110496382D01*
X78354266Y-111396498D01*
X78296575Y-111419807D01*
X78140272Y-111522089D01*
X78006812Y-111652782D01*
X77901279Y-111806909D01*
X77827693Y-111978599D01*
X77788856Y-112161312D01*
X77786248Y-112348089D01*
X59396435Y-112348089D01*
X58578584Y-109495907D01*
X57864264Y-100989294D01*
X58365575Y-96520000D01*
X88265000Y-96520000D01*
X88265000Y-122428000D01*
X88352006Y-122865407D01*
X88599777Y-123236223D01*
X88970593Y-123483994D01*
X89408000Y-123571000D01*
X90616370Y-123571000D01*
X90036650Y-124150720D01*
X89899768Y-124176832D01*
X89726575Y-124246807D01*
X89570272Y-124349089D01*
X89436812Y-124479782D01*
X89331279Y-124633909D01*
X89257693Y-124805599D01*
X89218856Y-124988312D01*
X89216248Y-125175089D01*
X89249968Y-125358815D01*
X89318732Y-125532493D01*
X89419920Y-125689506D01*
X89549679Y-125823875D01*
X89703065Y-125930482D01*
X89874237Y-126005265D01*
X90056674Y-126045376D01*
X90243428Y-126049288D01*
X90427386Y-126016852D01*
X90601539Y-125949302D01*
X90759255Y-125849212D01*
X90894527Y-125720395D01*
X91002201Y-125567756D01*
X91078178Y-125397111D01*
X91117178Y-125225452D01*
X92390630Y-123952000D01*
X95321740Y-123952000D01*
X95427466Y-124025482D01*
X95598638Y-124100265D01*
X95781075Y-124140376D01*
X95967829Y-124144288D01*
X96151787Y-124111852D01*
X96325940Y-124044302D01*
X96483656Y-123944212D01*
X96618928Y-123815395D01*
X96726602Y-123662756D01*
X96767455Y-123571000D01*
X100143405Y-123571000D01*
X100187134Y-123616283D01*
X100308901Y-123700913D01*
X100308901Y-133947763D01*
X100208792Y-134045797D01*
X100110294Y-134189649D01*
X100041614Y-134349893D01*
X100005366Y-134520425D01*
X100002932Y-134694750D01*
X100034404Y-134866227D01*
X100098583Y-135028326D01*
X100193026Y-135174872D01*
X100314134Y-135300283D01*
X100457294Y-135399782D01*
X100617055Y-135469580D01*
X100787330Y-135507017D01*
X100961633Y-135510668D01*
X101133326Y-135480394D01*
X101276604Y-135424820D01*
X101379055Y-135469580D01*
X101549330Y-135507017D01*
X101723633Y-135510668D01*
X101895326Y-135480394D01*
X102057869Y-135417348D01*
X102143250Y-135363164D01*
X102109446Y-135522200D01*
X102106664Y-135721428D01*
X102142633Y-135917403D01*
X102215981Y-136102659D01*
X102323915Y-136270140D01*
X102462324Y-136413467D01*
X102625936Y-136527180D01*
X102808520Y-136606949D01*
X103003119Y-136649734D01*
X103107838Y-136651928D01*
X103022771Y-136754756D01*
X102919735Y-136945318D01*
X102855674Y-137152264D01*
X102833030Y-137367711D01*
X102852664Y-137583453D01*
X102913829Y-137791273D01*
X103014195Y-137983255D01*
X103149938Y-138152086D01*
X103178813Y-138176315D01*
X103031472Y-138175286D01*
X102835753Y-138212621D01*
X102651014Y-138287261D01*
X102484290Y-138396361D01*
X102341933Y-138535768D01*
X102229364Y-138700170D01*
X102150872Y-138883306D01*
X102109446Y-139078200D01*
X102106664Y-139277428D01*
X102142633Y-139473403D01*
X102215981Y-139658659D01*
X102323915Y-139826140D01*
X102462324Y-139969467D01*
X102625936Y-140083180D01*
X102808520Y-140162949D01*
X103003119Y-140205734D01*
X103202324Y-140209907D01*
X103398545Y-140175308D01*
X103584308Y-140103255D01*
X103752539Y-139996493D01*
X103896828Y-139859088D01*
X103966108Y-139760877D01*
X103964211Y-139777791D01*
X103964100Y-139793638D01*
X103964100Y-140357282D01*
X103985716Y-140577738D01*
X104049740Y-140789797D01*
X104153734Y-140985381D01*
X104293737Y-141157042D01*
X104464416Y-141298240D01*
X104659270Y-141403597D01*
X104870877Y-141469100D01*
X105091176Y-141492254D01*
X105311778Y-141472178D01*
X105524278Y-141409636D01*
X105720584Y-141307009D01*
X105893218Y-141168208D01*
X106035604Y-140998520D01*
X106142319Y-140804406D01*
X106209298Y-140593262D01*
X106233989Y-140373129D01*
X106234100Y-140357282D01*
X106234100Y-139793638D01*
X106212484Y-139573182D01*
X106148460Y-139361123D01*
X106044466Y-139165539D01*
X105904463Y-138993878D01*
X105733784Y-138852680D01*
X105538930Y-138747323D01*
X105327323Y-138681820D01*
X105107024Y-138658666D01*
X104886422Y-138678742D01*
X104673922Y-138741284D01*
X104477616Y-138843911D01*
X104304982Y-138982712D01*
X104162596Y-139152400D01*
X104138596Y-139196056D01*
X104140044Y-139092376D01*
X104101343Y-138896923D01*
X104025415Y-138712709D01*
X103915153Y-138546751D01*
X103844990Y-138476096D01*
X103927505Y-138485352D01*
X103943003Y-138485460D01*
X104255197Y-138485460D01*
X104470797Y-138464320D01*
X104678185Y-138401706D01*
X104869462Y-138300003D01*
X105037341Y-138163084D01*
X105175429Y-137996164D01*
X105278465Y-137805602D01*
X105342526Y-137598656D01*
X105365170Y-137383209D01*
X105345536Y-137167467D01*
X105284371Y-136959647D01*
X105184005Y-136767665D01*
X105048262Y-136598834D01*
X104882310Y-136459584D01*
X104692473Y-136355220D01*
X104485979Y-136289716D01*
X104270695Y-136265568D01*
X104255197Y-136265460D01*
X103943003Y-136265460D01*
X103921913Y-136267528D01*
X104011681Y-136140273D01*
X104092723Y-135958251D01*
X104136866Y-135763955D01*
X104140044Y-135536376D01*
X104101343Y-135340923D01*
X104025415Y-135156709D01*
X103915153Y-134990751D01*
X103774756Y-134849371D01*
X103609572Y-134737953D01*
X103425893Y-134660741D01*
X103230715Y-134620677D01*
X103031472Y-134619286D01*
X102835753Y-134656621D01*
X102651014Y-134731261D01*
X102522394Y-134815427D01*
X102541357Y-134731960D01*
X102544138Y-134532829D01*
X102510274Y-134361808D01*
X102443838Y-134200621D01*
X102347359Y-134055408D01*
X102239299Y-133946592D01*
X102239299Y-123698806D01*
X102332071Y-123639931D01*
X102404455Y-123571000D01*
X114046000Y-123571000D01*
X114483407Y-123483994D01*
X114854223Y-123236223D01*
X115101994Y-122865407D01*
X115189000Y-122428000D01*
X115189000Y-117722226D01*
X115209181Y-117711765D01*
X115212208Y-117709348D01*
X115215628Y-117707530D01*
X115268368Y-117664516D01*
X115321531Y-117622077D01*
X115326920Y-117616763D01*
X115327034Y-117616670D01*
X115327121Y-117616565D01*
X115328855Y-117614855D01*
X116975329Y-115968381D01*
X117001014Y-115955067D01*
X117117240Y-115862286D01*
X117124815Y-115854815D01*
X117886816Y-115092815D01*
X117931537Y-115038371D01*
X117976736Y-114984505D01*
X117978664Y-114980997D01*
X117981211Y-114977897D01*
X118014509Y-114915796D01*
X118048381Y-114854184D01*
X118049591Y-114850368D01*
X118051487Y-114846833D01*
X118072088Y-114779449D01*
X118093348Y-114712429D01*
X118093794Y-114708451D01*
X118094967Y-114704615D01*
X118102081Y-114634578D01*
X118109926Y-114564639D01*
X118109981Y-114556803D01*
X118109995Y-114556660D01*
X118109982Y-114556527D01*
X118110000Y-114554000D01*
X118110000Y-108268273D01*
X118180201Y-108168756D01*
X118256178Y-107998111D01*
X118297562Y-107815958D01*
X118300541Y-107602603D01*
X118264259Y-107419365D01*
X118193077Y-107246665D01*
X118089706Y-107091079D01*
X117958084Y-106958535D01*
X117803224Y-106854080D01*
X117631025Y-106781694D01*
X117448045Y-106744134D01*
X117261255Y-106742830D01*
X117077768Y-106777832D01*
X116904575Y-106847807D01*
X116748272Y-106950089D01*
X116614812Y-107080782D01*
X116509279Y-107234909D01*
X116435693Y-107406599D01*
X116396856Y-107589312D01*
X116394248Y-107776089D01*
X116427968Y-107959815D01*
X116496732Y-108133493D01*
X116586000Y-108272010D01*
X116586000Y-114238369D01*
X116047185Y-114777185D01*
X115952789Y-114892103D01*
X115934988Y-114925302D01*
X115189000Y-115671290D01*
X115189000Y-96520000D01*
X115101994Y-96082593D01*
X114854223Y-95711777D01*
X114483407Y-95464006D01*
X114046000Y-95377000D01*
X89408000Y-95377000D01*
X88970593Y-95464006D01*
X88599777Y-95711777D01*
X88352006Y-96082593D01*
X88265000Y-96520000D01*
X58365575Y-96520000D01*
X58815824Y-92505943D01*
X61397020Y-84368981D01*
X65509536Y-76888343D01*
X70996725Y-70348965D01*
X77649585Y-64999929D01*
X85214708Y-61044978D01*
X93403941Y-58634756D01*
X101905360Y-57861066D01*
X110395148Y-58753379D01*
X110395148Y-58753379D01*
G37*
X110395148Y-58753379D02*
X118549932Y-61277706D01*
X126059098Y-65337897D01*
X132636624Y-70779300D01*
X138031975Y-77394654D01*
X142039644Y-84931982D01*
X144506978Y-93104189D01*
X145340000Y-101600000D01*
X145322946Y-102821292D01*
X144253033Y-111290531D01*
X141558478Y-119390661D01*
X137341918Y-126813150D01*
X131763959Y-133275277D01*
X125037064Y-138530903D01*
X117417459Y-142379843D01*
X109195371Y-144675491D01*
X100683979Y-145330407D01*
X98653883Y-145088333D01*
X98672539Y-145076493D01*
X98816828Y-144939088D01*
X98931681Y-144776273D01*
X99012723Y-144594251D01*
X99056866Y-144399955D01*
X99060044Y-144172376D01*
X99021343Y-143976923D01*
X98945415Y-143792709D01*
X98835153Y-143626751D01*
X98694756Y-143485371D01*
X98529572Y-143373953D01*
X98345893Y-143296741D01*
X98150715Y-143256677D01*
X97951472Y-143255286D01*
X97755753Y-143292621D01*
X97571014Y-143367261D01*
X97546962Y-143383000D01*
X95364236Y-143383000D01*
X94453092Y-142471856D01*
X94449343Y-142452923D01*
X94373415Y-142268709D01*
X94263153Y-142102751D01*
X94122756Y-141961371D01*
X93957572Y-141849953D01*
X93773893Y-141772741D01*
X93578715Y-141732677D01*
X93379472Y-141731286D01*
X93183753Y-141768621D01*
X92999014Y-141843261D01*
X92832290Y-141952361D01*
X92689933Y-142091768D01*
X92577364Y-142256170D01*
X92498872Y-142439306D01*
X92457446Y-142634200D01*
X92454664Y-142833428D01*
X92490633Y-143029403D01*
X92563981Y-143214659D01*
X92671915Y-143382140D01*
X92810324Y-143525467D01*
X92973936Y-143639180D01*
X93156520Y-143718949D01*
X93193940Y-143727176D01*
X94000175Y-144533411D01*
X92207477Y-144319645D01*
X84088733Y-141681706D01*
X80710434Y-139793638D01*
X96964100Y-139793638D01*
X96964100Y-140357282D01*
X96985716Y-140577738D01*
X97049740Y-140789797D01*
X97153734Y-140985381D01*
X97293737Y-141157042D01*
X97464416Y-141298240D01*
X97659270Y-141403597D01*
X97870877Y-141469100D01*
X98091176Y-141492254D01*
X98311778Y-141472178D01*
X98524278Y-141409636D01*
X98720584Y-141307009D01*
X98893218Y-141168208D01*
X99035604Y-140998520D01*
X99142319Y-140804406D01*
X99209298Y-140593262D01*
X99233989Y-140373129D01*
X99234100Y-140357282D01*
X99234100Y-139793638D01*
X99212484Y-139573182D01*
X99148460Y-139361123D01*
X99044466Y-139165539D01*
X98904463Y-138993878D01*
X98733784Y-138852680D01*
X98538930Y-138747323D01*
X98327323Y-138681820D01*
X98107024Y-138658666D01*
X97886422Y-138678742D01*
X97673922Y-138741284D01*
X97477616Y-138843911D01*
X97304982Y-138982712D01*
X97162596Y-139152400D01*
X97055881Y-139346514D01*
X96988902Y-139557658D01*
X96964211Y-139777791D01*
X96964100Y-139793638D01*
X80710434Y-139793638D01*
X76636989Y-137517066D01*
X76461498Y-137367711D01*
X97833030Y-137367711D01*
X97852664Y-137583453D01*
X97913829Y-137791273D01*
X98014195Y-137983255D01*
X98149938Y-138152086D01*
X98315890Y-138291336D01*
X98505727Y-138395700D01*
X98712221Y-138461204D01*
X98927505Y-138485352D01*
X98943003Y-138485460D01*
X99255197Y-138485460D01*
X99470797Y-138464320D01*
X99678185Y-138401706D01*
X99869462Y-138300003D01*
X100037341Y-138163084D01*
X100175429Y-137996164D01*
X100278465Y-137805602D01*
X100342526Y-137598656D01*
X100365170Y-137383209D01*
X100345536Y-137167467D01*
X100284371Y-136959647D01*
X100184005Y-136767665D01*
X100048262Y-136598834D01*
X99882310Y-136459584D01*
X99692473Y-136355220D01*
X99485979Y-136289716D01*
X99270695Y-136265568D01*
X99255197Y-136265460D01*
X98943003Y-136265460D01*
X98727403Y-136286600D01*
X98520015Y-136349214D01*
X98328738Y-136450917D01*
X98160859Y-136587836D01*
X98022771Y-136754756D01*
X97919735Y-136945318D01*
X97855674Y-137152264D01*
X97833030Y-137367711D01*
X76461498Y-137367711D01*
X70136077Y-131984357D01*
X64833617Y-125294317D01*
X60931577Y-117701768D01*
X59396435Y-112348089D01*
X77786248Y-112348089D01*
X77819968Y-112531815D01*
X77888732Y-112705493D01*
X77989920Y-112862506D01*
X78119679Y-112996875D01*
X78273065Y-113103482D01*
X78444237Y-113178265D01*
X78626674Y-113218376D01*
X78813428Y-113222288D01*
X78997386Y-113189852D01*
X79171539Y-113122302D01*
X79329255Y-113022212D01*
X79464527Y-112893395D01*
X79572201Y-112740756D01*
X79610500Y-112654736D01*
X80251236Y-112014000D01*
X85096799Y-112014000D01*
X85099936Y-112016180D01*
X85282520Y-112095949D01*
X85477119Y-112138734D01*
X85676324Y-112142907D01*
X85872545Y-112108308D01*
X86058308Y-112036255D01*
X86226539Y-111929493D01*
X86370828Y-111792088D01*
X86485681Y-111629273D01*
X86566723Y-111447251D01*
X86610866Y-111252955D01*
X86614044Y-111025376D01*
X86575343Y-110829923D01*
X86499415Y-110645709D01*
X86389153Y-110479751D01*
X86248756Y-110338371D01*
X86083572Y-110226953D01*
X85899893Y-110149741D01*
X85704715Y-110109677D01*
X85505472Y-110108286D01*
X85309753Y-110145621D01*
X85125014Y-110220261D01*
X85100962Y-110236000D01*
X79883000Y-110236000D01*
X79801296Y-110244011D01*
X79719467Y-110251170D01*
X79714975Y-110252475D01*
X79710326Y-110252931D01*
X79631716Y-110276665D01*
X79552854Y-110299577D01*
X79548706Y-110301727D01*
X79544228Y-110303079D01*
X79471691Y-110341647D01*
X79398816Y-110379422D01*
X79395163Y-110382338D01*
X79391035Y-110384533D01*
X79327389Y-110436442D01*
X79263220Y-110487667D01*
X79256712Y-110494084D01*
X79256580Y-110494192D01*
X79256479Y-110494315D01*
X79254382Y-110496382D01*
X78354266Y-111396498D01*
X78296575Y-111419807D01*
X78140272Y-111522089D01*
X78006812Y-111652782D01*
X77901279Y-111806909D01*
X77827693Y-111978599D01*
X77788856Y-112161312D01*
X77786248Y-112348089D01*
X59396435Y-112348089D01*
X58578584Y-109495907D01*
X57864264Y-100989294D01*
X58365575Y-96520000D01*
X88265000Y-96520000D01*
X88265000Y-122428000D01*
X88352006Y-122865407D01*
X88599777Y-123236223D01*
X88970593Y-123483994D01*
X89408000Y-123571000D01*
X90616370Y-123571000D01*
X90036650Y-124150720D01*
X89899768Y-124176832D01*
X89726575Y-124246807D01*
X89570272Y-124349089D01*
X89436812Y-124479782D01*
X89331279Y-124633909D01*
X89257693Y-124805599D01*
X89218856Y-124988312D01*
X89216248Y-125175089D01*
X89249968Y-125358815D01*
X89318732Y-125532493D01*
X89419920Y-125689506D01*
X89549679Y-125823875D01*
X89703065Y-125930482D01*
X89874237Y-126005265D01*
X90056674Y-126045376D01*
X90243428Y-126049288D01*
X90427386Y-126016852D01*
X90601539Y-125949302D01*
X90759255Y-125849212D01*
X90894527Y-125720395D01*
X91002201Y-125567756D01*
X91078178Y-125397111D01*
X91117178Y-125225452D01*
X92390630Y-123952000D01*
X95321740Y-123952000D01*
X95427466Y-124025482D01*
X95598638Y-124100265D01*
X95781075Y-124140376D01*
X95967829Y-124144288D01*
X96151787Y-124111852D01*
X96325940Y-124044302D01*
X96483656Y-123944212D01*
X96618928Y-123815395D01*
X96726602Y-123662756D01*
X96767455Y-123571000D01*
X100143405Y-123571000D01*
X100187134Y-123616283D01*
X100308901Y-123700913D01*
X100308901Y-133947763D01*
X100208792Y-134045797D01*
X100110294Y-134189649D01*
X100041614Y-134349893D01*
X100005366Y-134520425D01*
X100002932Y-134694750D01*
X100034404Y-134866227D01*
X100098583Y-135028326D01*
X100193026Y-135174872D01*
X100314134Y-135300283D01*
X100457294Y-135399782D01*
X100617055Y-135469580D01*
X100787330Y-135507017D01*
X100961633Y-135510668D01*
X101133326Y-135480394D01*
X101276604Y-135424820D01*
X101379055Y-135469580D01*
X101549330Y-135507017D01*
X101723633Y-135510668D01*
X101895326Y-135480394D01*
X102057869Y-135417348D01*
X102143250Y-135363164D01*
X102109446Y-135522200D01*
X102106664Y-135721428D01*
X102142633Y-135917403D01*
X102215981Y-136102659D01*
X102323915Y-136270140D01*
X102462324Y-136413467D01*
X102625936Y-136527180D01*
X102808520Y-136606949D01*
X103003119Y-136649734D01*
X103107838Y-136651928D01*
X103022771Y-136754756D01*
X102919735Y-136945318D01*
X102855674Y-137152264D01*
X102833030Y-137367711D01*
X102852664Y-137583453D01*
X102913829Y-137791273D01*
X103014195Y-137983255D01*
X103149938Y-138152086D01*
X103178813Y-138176315D01*
X103031472Y-138175286D01*
X102835753Y-138212621D01*
X102651014Y-138287261D01*
X102484290Y-138396361D01*
X102341933Y-138535768D01*
X102229364Y-138700170D01*
X102150872Y-138883306D01*
X102109446Y-139078200D01*
X102106664Y-139277428D01*
X102142633Y-139473403D01*
X102215981Y-139658659D01*
X102323915Y-139826140D01*
X102462324Y-139969467D01*
X102625936Y-140083180D01*
X102808520Y-140162949D01*
X103003119Y-140205734D01*
X103202324Y-140209907D01*
X103398545Y-140175308D01*
X103584308Y-140103255D01*
X103752539Y-139996493D01*
X103896828Y-139859088D01*
X103966108Y-139760877D01*
X103964211Y-139777791D01*
X103964100Y-139793638D01*
X103964100Y-140357282D01*
X103985716Y-140577738D01*
X104049740Y-140789797D01*
X104153734Y-140985381D01*
X104293737Y-141157042D01*
X104464416Y-141298240D01*
X104659270Y-141403597D01*
X104870877Y-141469100D01*
X105091176Y-141492254D01*
X105311778Y-141472178D01*
X105524278Y-141409636D01*
X105720584Y-141307009D01*
X105893218Y-141168208D01*
X106035604Y-140998520D01*
X106142319Y-140804406D01*
X106209298Y-140593262D01*
X106233989Y-140373129D01*
X106234100Y-140357282D01*
X106234100Y-139793638D01*
X106212484Y-139573182D01*
X106148460Y-139361123D01*
X106044466Y-139165539D01*
X105904463Y-138993878D01*
X105733784Y-138852680D01*
X105538930Y-138747323D01*
X105327323Y-138681820D01*
X105107024Y-138658666D01*
X104886422Y-138678742D01*
X104673922Y-138741284D01*
X104477616Y-138843911D01*
X104304982Y-138982712D01*
X104162596Y-139152400D01*
X104138596Y-139196056D01*
X104140044Y-139092376D01*
X104101343Y-138896923D01*
X104025415Y-138712709D01*
X103915153Y-138546751D01*
X103844990Y-138476096D01*
X103927505Y-138485352D01*
X103943003Y-138485460D01*
X104255197Y-138485460D01*
X104470797Y-138464320D01*
X104678185Y-138401706D01*
X104869462Y-138300003D01*
X105037341Y-138163084D01*
X105175429Y-137996164D01*
X105278465Y-137805602D01*
X105342526Y-137598656D01*
X105365170Y-137383209D01*
X105345536Y-137167467D01*
X105284371Y-136959647D01*
X105184005Y-136767665D01*
X105048262Y-136598834D01*
X104882310Y-136459584D01*
X104692473Y-136355220D01*
X104485979Y-136289716D01*
X104270695Y-136265568D01*
X104255197Y-136265460D01*
X103943003Y-136265460D01*
X103921913Y-136267528D01*
X104011681Y-136140273D01*
X104092723Y-135958251D01*
X104136866Y-135763955D01*
X104140044Y-135536376D01*
X104101343Y-135340923D01*
X104025415Y-135156709D01*
X103915153Y-134990751D01*
X103774756Y-134849371D01*
X103609572Y-134737953D01*
X103425893Y-134660741D01*
X103230715Y-134620677D01*
X103031472Y-134619286D01*
X102835753Y-134656621D01*
X102651014Y-134731261D01*
X102522394Y-134815427D01*
X102541357Y-134731960D01*
X102544138Y-134532829D01*
X102510274Y-134361808D01*
X102443838Y-134200621D01*
X102347359Y-134055408D01*
X102239299Y-133946592D01*
X102239299Y-123698806D01*
X102332071Y-123639931D01*
X102404455Y-123571000D01*
X114046000Y-123571000D01*
X114483407Y-123483994D01*
X114854223Y-123236223D01*
X115101994Y-122865407D01*
X115189000Y-122428000D01*
X115189000Y-117722226D01*
X115209181Y-117711765D01*
X115212208Y-117709348D01*
X115215628Y-117707530D01*
X115268368Y-117664516D01*
X115321531Y-117622077D01*
X115326920Y-117616763D01*
X115327034Y-117616670D01*
X115327121Y-117616565D01*
X115328855Y-117614855D01*
X116975329Y-115968381D01*
X117001014Y-115955067D01*
X117117240Y-115862286D01*
X117124815Y-115854815D01*
X117886816Y-115092815D01*
X117931537Y-115038371D01*
X117976736Y-114984505D01*
X117978664Y-114980997D01*
X117981211Y-114977897D01*
X118014509Y-114915796D01*
X118048381Y-114854184D01*
X118049591Y-114850368D01*
X118051487Y-114846833D01*
X118072088Y-114779449D01*
X118093348Y-114712429D01*
X118093794Y-114708451D01*
X118094967Y-114704615D01*
X118102081Y-114634578D01*
X118109926Y-114564639D01*
X118109981Y-114556803D01*
X118109995Y-114556660D01*
X118109982Y-114556527D01*
X118110000Y-114554000D01*
X118110000Y-108268273D01*
X118180201Y-108168756D01*
X118256178Y-107998111D01*
X118297562Y-107815958D01*
X118300541Y-107602603D01*
X118264259Y-107419365D01*
X118193077Y-107246665D01*
X118089706Y-107091079D01*
X117958084Y-106958535D01*
X117803224Y-106854080D01*
X117631025Y-106781694D01*
X117448045Y-106744134D01*
X117261255Y-106742830D01*
X117077768Y-106777832D01*
X116904575Y-106847807D01*
X116748272Y-106950089D01*
X116614812Y-107080782D01*
X116509279Y-107234909D01*
X116435693Y-107406599D01*
X116396856Y-107589312D01*
X116394248Y-107776089D01*
X116427968Y-107959815D01*
X116496732Y-108133493D01*
X116586000Y-108272010D01*
X116586000Y-114238369D01*
X116047185Y-114777185D01*
X115952789Y-114892103D01*
X115934988Y-114925302D01*
X115189000Y-115671290D01*
X115189000Y-96520000D01*
X115101994Y-96082593D01*
X114854223Y-95711777D01*
X114483407Y-95464006D01*
X114046000Y-95377000D01*
X89408000Y-95377000D01*
X88970593Y-95464006D01*
X88599777Y-95711777D01*
X88352006Y-96082593D01*
X88265000Y-96520000D01*
X58365575Y-96520000D01*
X58815824Y-92505943D01*
X61397020Y-84368981D01*
X65509536Y-76888343D01*
X70996725Y-70348965D01*
X77649585Y-64999929D01*
X85214708Y-61044978D01*
X93403941Y-58634756D01*
X101905360Y-57861066D01*
X110395148Y-58753379D01*
G36*
X113919000Y-108703392D02*
X113846484Y-108672909D01*
X113482830Y-108598261D01*
X113111602Y-108595670D01*
X112746942Y-108665232D01*
X112402737Y-108804300D01*
X112092100Y-109007575D01*
X111849242Y-109245400D01*
X107442000Y-109245400D01*
X107327561Y-109256621D01*
X107213055Y-109266639D01*
X107206773Y-109268464D01*
X107200256Y-109269103D01*
X107090185Y-109302335D01*
X106979796Y-109334406D01*
X106973983Y-109337419D01*
X106967720Y-109339310D01*
X106866250Y-109393262D01*
X106764142Y-109446190D01*
X106759025Y-109450275D01*
X106753249Y-109453346D01*
X106664172Y-109525996D01*
X106574308Y-109597733D01*
X106565203Y-109606713D01*
X106565012Y-109606868D01*
X106564866Y-109607045D01*
X106561935Y-109609935D01*
X105326362Y-110845508D01*
X105249645Y-110860142D01*
X104984082Y-110967437D01*
X104744417Y-111124269D01*
X104539778Y-111324666D01*
X104377961Y-111560994D01*
X104265129Y-111824252D01*
X104205579Y-112104412D01*
X104201580Y-112390803D01*
X104253284Y-112672516D01*
X104358722Y-112938822D01*
X104513877Y-113179576D01*
X104712841Y-113385608D01*
X104948033Y-113549072D01*
X105210497Y-113663739D01*
X105490234Y-113725243D01*
X105567821Y-113726868D01*
X105728841Y-113893608D01*
X105964033Y-114057072D01*
X106226497Y-114171739D01*
X106506234Y-114233243D01*
X106792590Y-114239242D01*
X107074658Y-114189506D01*
X107341693Y-114085929D01*
X107444635Y-114020600D01*
X111670250Y-114020600D01*
X111793290Y-114211522D01*
X112051173Y-114478567D01*
X112356013Y-114690437D01*
X112696201Y-114839061D01*
X113058777Y-114918778D01*
X113429932Y-114926553D01*
X113795528Y-114862088D01*
X113919000Y-114814197D01*
X113919000Y-115849400D01*
X107442000Y-115849400D01*
X107327569Y-115860620D01*
X107213054Y-115870639D01*
X107206772Y-115872464D01*
X107200256Y-115873103D01*
X107090211Y-115906328D01*
X106979795Y-115938406D01*
X106973981Y-115941420D01*
X106967720Y-115943310D01*
X106866268Y-115997253D01*
X106764142Y-116050190D01*
X106759025Y-116054275D01*
X106753249Y-116057346D01*
X106664172Y-116129996D01*
X106574308Y-116201733D01*
X106565203Y-116210713D01*
X106565012Y-116210868D01*
X106564866Y-116211045D01*
X106561935Y-116213935D01*
X106116202Y-116659668D01*
X106071403Y-116650472D01*
X105784991Y-116648473D01*
X105503645Y-116702142D01*
X105238082Y-116809437D01*
X104998417Y-116966269D01*
X104793778Y-117166666D01*
X104631961Y-117402994D01*
X104519129Y-117666252D01*
X104459579Y-117946412D01*
X104455580Y-118232803D01*
X104507284Y-118514516D01*
X104612722Y-118780822D01*
X104767877Y-119021576D01*
X104966841Y-119227608D01*
X105202033Y-119391072D01*
X105464497Y-119505739D01*
X105744234Y-119567243D01*
X106030590Y-119573242D01*
X106312658Y-119523506D01*
X106579693Y-119419929D01*
X106767394Y-119300811D01*
X106777835Y-119297658D01*
X106888205Y-119265593D01*
X106894014Y-119262582D01*
X106900280Y-119260690D01*
X107001767Y-119206728D01*
X107103858Y-119153810D01*
X107108975Y-119149725D01*
X107114751Y-119146654D01*
X107203828Y-119074004D01*
X107293692Y-119002267D01*
X107302797Y-118993287D01*
X107302988Y-118993132D01*
X107303134Y-118992955D01*
X107306065Y-118990065D01*
X107957530Y-118338600D01*
X113919000Y-118338600D01*
X113919000Y-122301000D01*
X103031448Y-122301000D01*
X103021546Y-122276975D01*
X102869935Y-122048783D01*
X102676890Y-121854385D01*
X102449762Y-121701185D01*
X102197203Y-121595019D01*
X101928833Y-121539931D01*
X101654874Y-121538018D01*
X101385761Y-121589354D01*
X101274584Y-121634273D01*
X101181203Y-121595019D01*
X100912833Y-121539931D01*
X100638874Y-121538018D01*
X100369761Y-121589354D01*
X100115744Y-121691984D01*
X99886499Y-121841997D01*
X99690758Y-122033681D01*
X99535977Y-122259734D01*
X99518290Y-122301000D01*
X97057293Y-122301000D01*
X97031684Y-122262455D01*
X96829863Y-122059220D01*
X96592411Y-121899057D01*
X96328372Y-121788065D01*
X96047804Y-121730472D01*
X95761392Y-121728473D01*
X95480046Y-121782142D01*
X95214483Y-121889437D01*
X95167778Y-121920000D01*
X92075000Y-121920000D01*
X91958237Y-121931449D01*
X91841382Y-121941672D01*
X91834968Y-121943535D01*
X91828322Y-121944187D01*
X91716038Y-121978088D01*
X91603363Y-122010823D01*
X91597432Y-122013898D01*
X91591041Y-122015827D01*
X91487491Y-122070885D01*
X91383309Y-122124888D01*
X91378089Y-122129055D01*
X91372193Y-122132190D01*
X91281261Y-122206353D01*
X91189601Y-122279524D01*
X91180307Y-122288688D01*
X91180115Y-122288845D01*
X91179968Y-122289023D01*
X91176975Y-122291974D01*
X91167949Y-122301000D01*
X89535000Y-122301000D01*
X89535000Y-108834803D01*
X90485580Y-108834803D01*
X90537284Y-109116516D01*
X90642722Y-109382822D01*
X90797877Y-109623576D01*
X90996841Y-109829608D01*
X91232033Y-109993072D01*
X91494497Y-110107739D01*
X91774234Y-110169243D01*
X92060590Y-110175242D01*
X92342658Y-110125506D01*
X92587653Y-110030478D01*
X92764497Y-110107739D01*
X93044234Y-110169243D01*
X93330590Y-110175242D01*
X93612658Y-110125506D01*
X93879693Y-110021929D01*
X94121524Y-109868459D01*
X94328941Y-109670939D01*
X94494042Y-109436893D01*
X94610539Y-109175236D01*
X94628097Y-109097955D01*
X95268051Y-108458000D01*
X103632000Y-108458000D01*
X103748763Y-108446551D01*
X103865618Y-108436328D01*
X103872032Y-108434465D01*
X103878678Y-108433813D01*
X103990962Y-108399912D01*
X104103637Y-108367177D01*
X104109568Y-108364102D01*
X104115959Y-108362173D01*
X104219549Y-108307094D01*
X104323691Y-108253111D01*
X104328907Y-108248947D01*
X104334807Y-108245810D01*
X104425743Y-108171645D01*
X104517400Y-108098476D01*
X104526699Y-108089307D01*
X104526885Y-108089155D01*
X104527028Y-108088983D01*
X104530026Y-108086026D01*
X108086025Y-104530026D01*
X108160487Y-104439375D01*
X108235894Y-104349508D01*
X108239112Y-104343654D01*
X108243350Y-104338495D01*
X108298760Y-104235156D01*
X108355302Y-104132306D01*
X108357323Y-104125936D01*
X108360476Y-104120055D01*
X108394762Y-104007912D01*
X108430247Y-103896048D01*
X108430991Y-103889412D01*
X108432944Y-103883025D01*
X108444800Y-103766310D01*
X108457876Y-103649732D01*
X108457967Y-103636677D01*
X108457992Y-103636434D01*
X108457971Y-103636207D01*
X108458000Y-103632000D01*
X108458000Y-100555458D01*
X108464042Y-100546893D01*
X108580539Y-100285236D01*
X108643995Y-100005935D01*
X108648563Y-99678791D01*
X108592931Y-99397826D01*
X108483785Y-99133019D01*
X108325283Y-98894455D01*
X108123462Y-98691220D01*
X107886010Y-98531057D01*
X107621971Y-98420065D01*
X107341403Y-98362472D01*
X107054991Y-98360473D01*
X106773645Y-98414142D01*
X106508082Y-98521437D01*
X106268417Y-98678269D01*
X106063778Y-98878666D01*
X105901961Y-99114994D01*
X105789129Y-99378252D01*
X105778964Y-99426075D01*
X105757645Y-99430142D01*
X105492082Y-99537437D01*
X105252417Y-99694269D01*
X105047778Y-99894666D01*
X104885961Y-100130994D01*
X104773129Y-100394252D01*
X104713579Y-100674412D01*
X104709580Y-100960803D01*
X104761284Y-101242516D01*
X104866722Y-101508822D01*
X104902000Y-101563563D01*
X104902000Y-102851949D01*
X102851948Y-104902000D01*
X94488000Y-104902000D01*
X94371187Y-104913454D01*
X94254382Y-104923673D01*
X94247973Y-104925535D01*
X94241322Y-104926187D01*
X94129010Y-104960096D01*
X94016362Y-104992823D01*
X94010429Y-104995898D01*
X94004041Y-104997827D01*
X93900470Y-105052897D01*
X93796309Y-105106889D01*
X93791093Y-105111053D01*
X93785193Y-105114190D01*
X93694257Y-105188355D01*
X93602600Y-105261524D01*
X93593306Y-105270689D01*
X93593115Y-105270845D01*
X93592969Y-105271022D01*
X93589974Y-105273975D01*
X91565973Y-107297975D01*
X91533645Y-107304142D01*
X91268082Y-107411437D01*
X91028417Y-107568269D01*
X90823778Y-107768666D01*
X90661961Y-108004994D01*
X90549129Y-108268252D01*
X90489579Y-108548412D01*
X90485580Y-108834803D01*
X89535000Y-108834803D01*
X89535000Y-96647000D01*
X113919000Y-96647000D01*
X113919000Y-108703392D01*
X113919000Y-108703392D01*
G37*
X113919000Y-108703392D02*
X113846484Y-108672909D01*
X113482830Y-108598261D01*
X113111602Y-108595670D01*
X112746942Y-108665232D01*
X112402737Y-108804300D01*
X112092100Y-109007575D01*
X111849242Y-109245400D01*
X107442000Y-109245400D01*
X107327561Y-109256621D01*
X107213055Y-109266639D01*
X107206773Y-109268464D01*
X107200256Y-109269103D01*
X107090185Y-109302335D01*
X106979796Y-109334406D01*
X106973983Y-109337419D01*
X106967720Y-109339310D01*
X106866250Y-109393262D01*
X106764142Y-109446190D01*
X106759025Y-109450275D01*
X106753249Y-109453346D01*
X106664172Y-109525996D01*
X106574308Y-109597733D01*
X106565203Y-109606713D01*
X106565012Y-109606868D01*
X106564866Y-109607045D01*
X106561935Y-109609935D01*
X105326362Y-110845508D01*
X105249645Y-110860142D01*
X104984082Y-110967437D01*
X104744417Y-111124269D01*
X104539778Y-111324666D01*
X104377961Y-111560994D01*
X104265129Y-111824252D01*
X104205579Y-112104412D01*
X104201580Y-112390803D01*
X104253284Y-112672516D01*
X104358722Y-112938822D01*
X104513877Y-113179576D01*
X104712841Y-113385608D01*
X104948033Y-113549072D01*
X105210497Y-113663739D01*
X105490234Y-113725243D01*
X105567821Y-113726868D01*
X105728841Y-113893608D01*
X105964033Y-114057072D01*
X106226497Y-114171739D01*
X106506234Y-114233243D01*
X106792590Y-114239242D01*
X107074658Y-114189506D01*
X107341693Y-114085929D01*
X107444635Y-114020600D01*
X111670250Y-114020600D01*
X111793290Y-114211522D01*
X112051173Y-114478567D01*
X112356013Y-114690437D01*
X112696201Y-114839061D01*
X113058777Y-114918778D01*
X113429932Y-114926553D01*
X113795528Y-114862088D01*
X113919000Y-114814197D01*
X113919000Y-115849400D01*
X107442000Y-115849400D01*
X107327569Y-115860620D01*
X107213054Y-115870639D01*
X107206772Y-115872464D01*
X107200256Y-115873103D01*
X107090211Y-115906328D01*
X106979795Y-115938406D01*
X106973981Y-115941420D01*
X106967720Y-115943310D01*
X106866268Y-115997253D01*
X106764142Y-116050190D01*
X106759025Y-116054275D01*
X106753249Y-116057346D01*
X106664172Y-116129996D01*
X106574308Y-116201733D01*
X106565203Y-116210713D01*
X106565012Y-116210868D01*
X106564866Y-116211045D01*
X106561935Y-116213935D01*
X106116202Y-116659668D01*
X106071403Y-116650472D01*
X105784991Y-116648473D01*
X105503645Y-116702142D01*
X105238082Y-116809437D01*
X104998417Y-116966269D01*
X104793778Y-117166666D01*
X104631961Y-117402994D01*
X104519129Y-117666252D01*
X104459579Y-117946412D01*
X104455580Y-118232803D01*
X104507284Y-118514516D01*
X104612722Y-118780822D01*
X104767877Y-119021576D01*
X104966841Y-119227608D01*
X105202033Y-119391072D01*
X105464497Y-119505739D01*
X105744234Y-119567243D01*
X106030590Y-119573242D01*
X106312658Y-119523506D01*
X106579693Y-119419929D01*
X106767394Y-119300811D01*
X106777835Y-119297658D01*
X106888205Y-119265593D01*
X106894014Y-119262582D01*
X106900280Y-119260690D01*
X107001767Y-119206728D01*
X107103858Y-119153810D01*
X107108975Y-119149725D01*
X107114751Y-119146654D01*
X107203828Y-119074004D01*
X107293692Y-119002267D01*
X107302797Y-118993287D01*
X107302988Y-118993132D01*
X107303134Y-118992955D01*
X107306065Y-118990065D01*
X107957530Y-118338600D01*
X113919000Y-118338600D01*
X113919000Y-122301000D01*
X103031448Y-122301000D01*
X103021546Y-122276975D01*
X102869935Y-122048783D01*
X102676890Y-121854385D01*
X102449762Y-121701185D01*
X102197203Y-121595019D01*
X101928833Y-121539931D01*
X101654874Y-121538018D01*
X101385761Y-121589354D01*
X101274584Y-121634273D01*
X101181203Y-121595019D01*
X100912833Y-121539931D01*
X100638874Y-121538018D01*
X100369761Y-121589354D01*
X100115744Y-121691984D01*
X99886499Y-121841997D01*
X99690758Y-122033681D01*
X99535977Y-122259734D01*
X99518290Y-122301000D01*
X97057293Y-122301000D01*
X97031684Y-122262455D01*
X96829863Y-122059220D01*
X96592411Y-121899057D01*
X96328372Y-121788065D01*
X96047804Y-121730472D01*
X95761392Y-121728473D01*
X95480046Y-121782142D01*
X95214483Y-121889437D01*
X95167778Y-121920000D01*
X92075000Y-121920000D01*
X91958237Y-121931449D01*
X91841382Y-121941672D01*
X91834968Y-121943535D01*
X91828322Y-121944187D01*
X91716038Y-121978088D01*
X91603363Y-122010823D01*
X91597432Y-122013898D01*
X91591041Y-122015827D01*
X91487491Y-122070885D01*
X91383309Y-122124888D01*
X91378089Y-122129055D01*
X91372193Y-122132190D01*
X91281261Y-122206353D01*
X91189601Y-122279524D01*
X91180307Y-122288688D01*
X91180115Y-122288845D01*
X91179968Y-122289023D01*
X91176975Y-122291974D01*
X91167949Y-122301000D01*
X89535000Y-122301000D01*
X89535000Y-108834803D01*
X90485580Y-108834803D01*
X90537284Y-109116516D01*
X90642722Y-109382822D01*
X90797877Y-109623576D01*
X90996841Y-109829608D01*
X91232033Y-109993072D01*
X91494497Y-110107739D01*
X91774234Y-110169243D01*
X92060590Y-110175242D01*
X92342658Y-110125506D01*
X92587653Y-110030478D01*
X92764497Y-110107739D01*
X93044234Y-110169243D01*
X93330590Y-110175242D01*
X93612658Y-110125506D01*
X93879693Y-110021929D01*
X94121524Y-109868459D01*
X94328941Y-109670939D01*
X94494042Y-109436893D01*
X94610539Y-109175236D01*
X94628097Y-109097955D01*
X95268051Y-108458000D01*
X103632000Y-108458000D01*
X103748763Y-108446551D01*
X103865618Y-108436328D01*
X103872032Y-108434465D01*
X103878678Y-108433813D01*
X103990962Y-108399912D01*
X104103637Y-108367177D01*
X104109568Y-108364102D01*
X104115959Y-108362173D01*
X104219549Y-108307094D01*
X104323691Y-108253111D01*
X104328907Y-108248947D01*
X104334807Y-108245810D01*
X104425743Y-108171645D01*
X104517400Y-108098476D01*
X104526699Y-108089307D01*
X104526885Y-108089155D01*
X104527028Y-108088983D01*
X104530026Y-108086026D01*
X108086025Y-104530026D01*
X108160487Y-104439375D01*
X108235894Y-104349508D01*
X108239112Y-104343654D01*
X108243350Y-104338495D01*
X108298760Y-104235156D01*
X108355302Y-104132306D01*
X108357323Y-104125936D01*
X108360476Y-104120055D01*
X108394762Y-104007912D01*
X108430247Y-103896048D01*
X108430991Y-103889412D01*
X108432944Y-103883025D01*
X108444800Y-103766310D01*
X108457876Y-103649732D01*
X108457967Y-103636677D01*
X108457992Y-103636434D01*
X108457971Y-103636207D01*
X108458000Y-103632000D01*
X108458000Y-100555458D01*
X108464042Y-100546893D01*
X108580539Y-100285236D01*
X108643995Y-100005935D01*
X108648563Y-99678791D01*
X108592931Y-99397826D01*
X108483785Y-99133019D01*
X108325283Y-98894455D01*
X108123462Y-98691220D01*
X107886010Y-98531057D01*
X107621971Y-98420065D01*
X107341403Y-98362472D01*
X107054991Y-98360473D01*
X106773645Y-98414142D01*
X106508082Y-98521437D01*
X106268417Y-98678269D01*
X106063778Y-98878666D01*
X105901961Y-99114994D01*
X105789129Y-99378252D01*
X105778964Y-99426075D01*
X105757645Y-99430142D01*
X105492082Y-99537437D01*
X105252417Y-99694269D01*
X105047778Y-99894666D01*
X104885961Y-100130994D01*
X104773129Y-100394252D01*
X104713579Y-100674412D01*
X104709580Y-100960803D01*
X104761284Y-101242516D01*
X104866722Y-101508822D01*
X104902000Y-101563563D01*
X104902000Y-102851949D01*
X102851948Y-104902000D01*
X94488000Y-104902000D01*
X94371187Y-104913454D01*
X94254382Y-104923673D01*
X94247973Y-104925535D01*
X94241322Y-104926187D01*
X94129010Y-104960096D01*
X94016362Y-104992823D01*
X94010429Y-104995898D01*
X94004041Y-104997827D01*
X93900470Y-105052897D01*
X93796309Y-105106889D01*
X93791093Y-105111053D01*
X93785193Y-105114190D01*
X93694257Y-105188355D01*
X93602600Y-105261524D01*
X93593306Y-105270689D01*
X93593115Y-105270845D01*
X93592969Y-105271022D01*
X93589974Y-105273975D01*
X91565973Y-107297975D01*
X91533645Y-107304142D01*
X91268082Y-107411437D01*
X91028417Y-107568269D01*
X90823778Y-107768666D01*
X90661961Y-108004994D01*
X90549129Y-108268252D01*
X90489579Y-108548412D01*
X90485580Y-108834803D01*
X89535000Y-108834803D01*
X89535000Y-96647000D01*
X113919000Y-96647000D01*
X113919000Y-108703392D01*
M02*
