G04 #@! TF.FileFunction,Soldermask,Top*
%FSLAX46Y46*%
G04 Gerber Fmt 4.6, Leading zero omitted, Abs format (unit mm)*
G04 Created by KiCad (PCBNEW 201609251018+7233~55~ubuntu16.04.1-) date Mon Sep 26 23:00:05 2016*
%MOMM*%
%LPD*%
G01*
G04 APERTURE LIST*
%ADD10C,0.100000*%
%ADD11C,0.900000*%
%ADD12C,1.250000*%
%ADD13R,1.400000X1.250000*%
%ADD14C,2.600000*%
%ADD15R,1.197560X1.197560*%
%ADD16R,1.300000X1.400000*%
%ADD17R,2.125000X2.125000*%
%ADD18R,1.100000X0.650000*%
%ADD19R,0.650000X1.100000*%
%ADD20R,3.900000X2.100000*%
%ADD21R,1.000000X0.900000*%
%ADD22R,1.250000X1.400000*%
%ADD23R,0.900000X1.000000*%
%ADD24R,0.775000X0.650000*%
%ADD25R,0.650000X0.875000*%
%ADD26R,0.900000X1.300000*%
%ADD27R,1.300000X0.900000*%
%ADD28C,1.050000*%
%ADD29R,1.500000X2.300000*%
%ADD30R,1.150000X1.200000*%
%ADD31R,1.400000X1.300000*%
%ADD32C,2.540000*%
%ADD33C,1.950000*%
%ADD34O,1.650000X1.350000*%
%ADD35C,1.197560*%
%ADD36R,2.400000X2.400000*%
G04 APERTURE END LIST*
D10*
D11*
X54944910Y-61822147D03*
D10*
G36*
X54337822Y-61532415D02*
X55169314Y-61188000D01*
X55551998Y-62111879D01*
X54720506Y-62456294D01*
X54337822Y-61532415D01*
X54337822Y-61532415D01*
G37*
D11*
X55365862Y-62838415D03*
D10*
G36*
X54758774Y-62548683D02*
X55590266Y-62204268D01*
X55972950Y-63128147D01*
X55141458Y-63472562D01*
X54758774Y-62548683D01*
X54758774Y-62548683D01*
G37*
D11*
X27077853Y-54944910D03*
D10*
G36*
X27367585Y-54337822D02*
X27712000Y-55169314D01*
X26788121Y-55551998D01*
X26443706Y-54720506D01*
X27367585Y-54337822D01*
X27367585Y-54337822D01*
G37*
D11*
X26061585Y-55365862D03*
D10*
G36*
X26351317Y-54758774D02*
X26695732Y-55590266D01*
X25771853Y-55972950D01*
X25427438Y-55141458D01*
X26351317Y-54758774D01*
X26351317Y-54758774D01*
G37*
D12*
X64035842Y-53509815D03*
D10*
G36*
X64921735Y-53200269D02*
X64443381Y-54355118D01*
X63149949Y-53819361D01*
X63628303Y-52664512D01*
X64921735Y-53200269D01*
X64921735Y-53200269D01*
G37*
D12*
X64705538Y-51893025D03*
D10*
G36*
X65591431Y-51583479D02*
X65113077Y-52738328D01*
X63819645Y-52202571D01*
X64297999Y-51047722D01*
X65591431Y-51583479D01*
X65591431Y-51583479D01*
G37*
D12*
X60802264Y-52170423D03*
D10*
G36*
X61688157Y-51860877D02*
X61209803Y-53015726D01*
X59916371Y-52479969D01*
X60394725Y-51325120D01*
X61688157Y-51860877D01*
X61688157Y-51860877D01*
G37*
D12*
X61471960Y-50553633D03*
D10*
G36*
X62357853Y-50244087D02*
X61879499Y-51398936D01*
X60586067Y-50863179D01*
X61064421Y-49708330D01*
X62357853Y-50244087D01*
X62357853Y-50244087D01*
G37*
D13*
X22888000Y-43575000D03*
X22888000Y-45325000D03*
X26388000Y-43575000D03*
X26388000Y-45325000D03*
D12*
X29822082Y-28584645D03*
D10*
G36*
X28885166Y-28531612D02*
X29769049Y-27647729D01*
X30758998Y-28637678D01*
X29875115Y-29521561D01*
X28885166Y-28531612D01*
X28885166Y-28531612D01*
G37*
D12*
X28584645Y-29822082D03*
D10*
G36*
X27647729Y-29769049D02*
X28531612Y-28885166D01*
X29521561Y-29875115D01*
X28637678Y-30758998D01*
X27647729Y-29769049D01*
X27647729Y-29769049D01*
G37*
D12*
X32296955Y-31059518D03*
D10*
G36*
X31360039Y-31006485D02*
X32243922Y-30122602D01*
X33233871Y-31112551D01*
X32349988Y-31996434D01*
X31360039Y-31006485D01*
X31360039Y-31006485D01*
G37*
D12*
X31059518Y-32296955D03*
D10*
G36*
X30122602Y-32243922D02*
X31006485Y-31360039D01*
X31996434Y-32349988D01*
X31112551Y-33233871D01*
X30122602Y-32243922D01*
X30122602Y-32243922D01*
G37*
D12*
X60315355Y-29822082D03*
D10*
G36*
X60368388Y-28885166D02*
X61252271Y-29769049D01*
X60262322Y-30758998D01*
X59378439Y-29875115D01*
X60368388Y-28885166D01*
X60368388Y-28885166D01*
G37*
D12*
X59077918Y-28584645D03*
D10*
G36*
X59130951Y-27647729D02*
X60014834Y-28531612D01*
X59024885Y-29521561D01*
X58141002Y-28637678D01*
X59130951Y-27647729D01*
X59130951Y-27647729D01*
G37*
D12*
X57840482Y-32296955D03*
D10*
G36*
X57893515Y-31360039D02*
X58777398Y-32243922D01*
X57787449Y-33233871D01*
X56903566Y-32349988D01*
X57893515Y-31360039D01*
X57893515Y-31360039D01*
G37*
D12*
X56603045Y-31059518D03*
D10*
G36*
X56656078Y-30122602D02*
X57539961Y-31006485D01*
X56550012Y-31996434D01*
X55666129Y-31112551D01*
X56656078Y-30122602D01*
X56656078Y-30122602D01*
G37*
D12*
X53509815Y-24864158D03*
D10*
G36*
X53200269Y-23978265D02*
X54355118Y-24456619D01*
X53819361Y-25750051D01*
X52664512Y-25271697D01*
X53200269Y-23978265D01*
X53200269Y-23978265D01*
G37*
D12*
X51893025Y-24194462D03*
D10*
G36*
X51583479Y-23308569D02*
X52738328Y-23786923D01*
X52202571Y-25080355D01*
X51047722Y-24602001D01*
X51583479Y-23308569D01*
X51583479Y-23308569D01*
G37*
D12*
X52170423Y-28097736D03*
D10*
G36*
X51860877Y-27211843D02*
X53015726Y-27690197D01*
X52479969Y-28983629D01*
X51325120Y-28505275D01*
X51860877Y-27211843D01*
X51860877Y-27211843D01*
G37*
D12*
X50553633Y-27428040D03*
D10*
G36*
X50244087Y-26542147D02*
X51398936Y-27020501D01*
X50863179Y-28313933D01*
X49708330Y-27835579D01*
X50244087Y-26542147D01*
X50244087Y-26542147D01*
G37*
D14*
X29464000Y-41402000D03*
X58928000Y-49530000D03*
D15*
X32004000Y-34810700D03*
X32004000Y-36309300D03*
D16*
X47226000Y-36614000D03*
X51326000Y-36614000D03*
X51326000Y-35014000D03*
X47226000Y-35014000D03*
D17*
X56234500Y-43587500D03*
X54509500Y-43587500D03*
X56234500Y-45312500D03*
X54509500Y-45312500D03*
D18*
X57772000Y-42700000D03*
X57772000Y-43200000D03*
X57772000Y-43700000D03*
X57772000Y-44200000D03*
X57772000Y-44700000D03*
X57772000Y-45200000D03*
X57772000Y-45700000D03*
X57772000Y-46200000D03*
D19*
X57122000Y-46850000D03*
X56622000Y-46850000D03*
X56122000Y-46850000D03*
X55622000Y-46850000D03*
X55122000Y-46850000D03*
X54622000Y-46850000D03*
X54122000Y-46850000D03*
X53622000Y-46850000D03*
D18*
X52972000Y-46200000D03*
X52972000Y-45700000D03*
X52972000Y-45200000D03*
X52972000Y-44700000D03*
X52972000Y-44200000D03*
X52972000Y-43700000D03*
X52972000Y-43200000D03*
X52972000Y-42700000D03*
D19*
X53622000Y-42050000D03*
X54122000Y-42050000D03*
X54622000Y-42050000D03*
X55122000Y-42050000D03*
X55622000Y-42050000D03*
X56122000Y-42050000D03*
X56622000Y-42050000D03*
X57122000Y-42050000D03*
D20*
X36068000Y-57479000D03*
X36068000Y-52249000D03*
D11*
X49733893Y-23728746D03*
D10*
G36*
X49958297Y-24362893D02*
X49126805Y-24018478D01*
X49509489Y-23094599D01*
X50340981Y-23439014D01*
X49958297Y-24362893D01*
X49958297Y-24362893D01*
G37*
D11*
X49312941Y-24745014D03*
D10*
G36*
X49537345Y-25379161D02*
X48705853Y-25034746D01*
X49088537Y-24110867D01*
X49920029Y-24455282D01*
X49537345Y-25379161D01*
X49537345Y-25379161D01*
G37*
D11*
X57261361Y-27328116D03*
D10*
G36*
X57226006Y-27999867D02*
X56589610Y-27363471D01*
X57296716Y-26656365D01*
X57933112Y-27292761D01*
X57226006Y-27999867D01*
X57226006Y-27999867D01*
G37*
D11*
X56483543Y-28105934D03*
D10*
G36*
X56448188Y-28777685D02*
X55811792Y-28141289D01*
X56518898Y-27434183D01*
X57155294Y-28070579D01*
X56448188Y-28777685D01*
X56448188Y-28777685D01*
G37*
D11*
X62838415Y-33534138D03*
D10*
G36*
X62548683Y-34141226D02*
X62204268Y-33309734D01*
X63128147Y-32927050D01*
X63472562Y-33758542D01*
X62548683Y-34141226D01*
X62548683Y-34141226D01*
G37*
D11*
X61822147Y-33955090D03*
D10*
G36*
X61532415Y-34562178D02*
X61188000Y-33730686D01*
X62111879Y-33348002D01*
X62456294Y-34179494D01*
X61532415Y-34562178D01*
X61532415Y-34562178D01*
G37*
D21*
X65616000Y-41402000D03*
X64516000Y-41402000D03*
D11*
X65171254Y-49733893D03*
D10*
G36*
X64537107Y-49958297D02*
X64881522Y-49126805D01*
X65805401Y-49509489D01*
X65460986Y-50340981D01*
X64537107Y-49958297D01*
X64537107Y-49958297D01*
G37*
D11*
X64154986Y-49312941D03*
D10*
G36*
X63520839Y-49537345D02*
X63865254Y-48705853D01*
X64789133Y-49088537D01*
X64444718Y-49920029D01*
X63520839Y-49537345D01*
X63520839Y-49537345D01*
G37*
D11*
X61571884Y-57261361D03*
D10*
G36*
X60900133Y-57226006D02*
X61536529Y-56589610D01*
X62243635Y-57296716D01*
X61607239Y-57933112D01*
X60900133Y-57226006D01*
X60900133Y-57226006D01*
G37*
D11*
X60794066Y-56483543D03*
D10*
G36*
X60122315Y-56448188D02*
X60758711Y-55811792D01*
X61465817Y-56518898D01*
X60829421Y-57155294D01*
X60122315Y-56448188D01*
X60122315Y-56448188D01*
G37*
D11*
X39166107Y-65171254D03*
D10*
G36*
X38941703Y-64537107D02*
X39773195Y-64881522D01*
X39390511Y-65805401D01*
X38559019Y-65460986D01*
X38941703Y-64537107D01*
X38941703Y-64537107D01*
G37*
D11*
X39587059Y-64154986D03*
D10*
G36*
X39362655Y-63520839D02*
X40194147Y-63865254D01*
X39811463Y-64789133D01*
X38979971Y-64444718D01*
X39362655Y-63520839D01*
X39362655Y-63520839D01*
G37*
D11*
X31638639Y-61571884D03*
D10*
G36*
X31673994Y-60900133D02*
X32310390Y-61536529D01*
X31603284Y-62243635D01*
X30966888Y-61607239D01*
X31673994Y-60900133D01*
X31673994Y-60900133D01*
G37*
D11*
X32416457Y-60794066D03*
D10*
G36*
X32451812Y-60122315D02*
X33088208Y-60758711D01*
X32381102Y-61465817D01*
X31744706Y-60829421D01*
X32451812Y-60122315D01*
X32451812Y-60122315D01*
G37*
D21*
X23284000Y-47498000D03*
X24384000Y-47498000D03*
D11*
X23728746Y-39166107D03*
D10*
G36*
X24362893Y-38941703D02*
X24018478Y-39773195D01*
X23094599Y-39390511D01*
X23439014Y-38559019D01*
X24362893Y-38941703D01*
X24362893Y-38941703D01*
G37*
D11*
X24745014Y-39587059D03*
D10*
G36*
X25379161Y-39362655D02*
X25034746Y-40194147D01*
X24110867Y-39811463D01*
X24455282Y-38979971D01*
X25379161Y-39362655D01*
X25379161Y-39362655D01*
G37*
D11*
X27328116Y-31638639D03*
D10*
G36*
X27999867Y-31673994D02*
X27363471Y-32310390D01*
X26656365Y-31603284D01*
X27292761Y-30966888D01*
X27999867Y-31673994D01*
X27999867Y-31673994D01*
G37*
D11*
X28105934Y-32416457D03*
D10*
G36*
X28777685Y-32451812D02*
X28141289Y-33088208D01*
X27434183Y-32381102D01*
X28070579Y-31744706D01*
X28777685Y-32451812D01*
X28777685Y-32451812D01*
G37*
D11*
X33534138Y-26061585D03*
D10*
G36*
X34141226Y-26351317D02*
X33309734Y-26695732D01*
X32927050Y-25771853D01*
X33758542Y-25427438D01*
X34141226Y-26351317D01*
X34141226Y-26351317D01*
G37*
D11*
X33955090Y-27077853D03*
D10*
G36*
X34562178Y-27367585D02*
X33730686Y-27712000D01*
X33348002Y-26788121D01*
X34179494Y-26443706D01*
X34562178Y-27367585D01*
X34562178Y-27367585D01*
G37*
D12*
X28584645Y-59077918D03*
D10*
G36*
X28531612Y-60014834D02*
X27647729Y-59130951D01*
X28637678Y-58141002D01*
X29521561Y-59024885D01*
X28531612Y-60014834D01*
X28531612Y-60014834D01*
G37*
D12*
X29822082Y-60315355D03*
D10*
G36*
X29769049Y-61252271D02*
X28885166Y-60368388D01*
X29875115Y-59378439D01*
X30758998Y-60262322D01*
X29769049Y-61252271D01*
X29769049Y-61252271D01*
G37*
D12*
X31059518Y-56603045D03*
D10*
G36*
X31006485Y-57539961D02*
X30122602Y-56656078D01*
X31112551Y-55666129D01*
X31996434Y-56550012D01*
X31006485Y-57539961D01*
X31006485Y-57539961D01*
G37*
D12*
X32296955Y-57840482D03*
D10*
G36*
X32243922Y-58777398D02*
X31360039Y-57893515D01*
X32349988Y-56903566D01*
X33233871Y-57787449D01*
X32243922Y-58777398D01*
X32243922Y-58777398D01*
G37*
D12*
X35390185Y-64035842D03*
D10*
G36*
X35699731Y-64921735D02*
X34544882Y-64443381D01*
X35080639Y-63149949D01*
X36235488Y-63628303D01*
X35699731Y-64921735D01*
X35699731Y-64921735D01*
G37*
D12*
X37006975Y-64705538D03*
D10*
G36*
X37316521Y-65591431D02*
X36161672Y-65113077D01*
X36697429Y-63819645D01*
X37852278Y-64297999D01*
X37316521Y-65591431D01*
X37316521Y-65591431D01*
G37*
D12*
X36729577Y-60802264D03*
D10*
G36*
X37039123Y-61688157D02*
X35884274Y-61209803D01*
X36420031Y-59916371D01*
X37574880Y-60394725D01*
X37039123Y-61688157D01*
X37039123Y-61688157D01*
G37*
D12*
X38346367Y-61471960D03*
D10*
G36*
X38655913Y-62357853D02*
X37501064Y-61879499D01*
X38036821Y-60586067D01*
X39191670Y-61064421D01*
X38655913Y-62357853D01*
X38655913Y-62357853D01*
G37*
D22*
X45325000Y-22888000D03*
X43575000Y-22888000D03*
X45325000Y-26388000D03*
X43575000Y-26388000D03*
D23*
X41402000Y-23284000D03*
X41402000Y-24384000D03*
D12*
X24194462Y-51893025D03*
D10*
G36*
X23786923Y-52738328D02*
X23308569Y-51583479D01*
X24602001Y-51047722D01*
X25080355Y-52202571D01*
X23786923Y-52738328D01*
X23786923Y-52738328D01*
G37*
D12*
X24864158Y-53509815D03*
D10*
G36*
X24456619Y-54355118D02*
X23978265Y-53200269D01*
X25271697Y-52664512D01*
X25750051Y-53819361D01*
X24456619Y-54355118D01*
X24456619Y-54355118D01*
G37*
D12*
X27428040Y-50553633D03*
D10*
G36*
X27020501Y-51398936D02*
X26542147Y-50244087D01*
X27835579Y-49708330D01*
X28313933Y-50863179D01*
X27020501Y-51398936D01*
X27020501Y-51398936D01*
G37*
D12*
X28097736Y-52170423D03*
D10*
G36*
X27690197Y-53015726D02*
X27211843Y-51860877D01*
X28505275Y-51325120D01*
X28983629Y-52479969D01*
X27690197Y-53015726D01*
X27690197Y-53015726D01*
G37*
D12*
X24864158Y-35390185D03*
D10*
G36*
X23978265Y-35699731D02*
X24456619Y-34544882D01*
X25750051Y-35080639D01*
X25271697Y-36235488D01*
X23978265Y-35699731D01*
X23978265Y-35699731D01*
G37*
D12*
X24194462Y-37006975D03*
D10*
G36*
X23308569Y-37316521D02*
X23786923Y-36161672D01*
X25080355Y-36697429D01*
X24602001Y-37852278D01*
X23308569Y-37316521D01*
X23308569Y-37316521D01*
G37*
D12*
X28097736Y-36729577D03*
D10*
G36*
X27211843Y-37039123D02*
X27690197Y-35884274D01*
X28983629Y-36420031D01*
X28505275Y-37574880D01*
X27211843Y-37039123D01*
X27211843Y-37039123D01*
G37*
D12*
X27428040Y-38346367D03*
D10*
G36*
X26542147Y-38655913D02*
X27020501Y-37501064D01*
X28313933Y-38036821D01*
X27835579Y-39191670D01*
X26542147Y-38655913D01*
X26542147Y-38655913D01*
G37*
D12*
X37006975Y-24194462D03*
D10*
G36*
X36161672Y-23786923D02*
X37316521Y-23308569D01*
X37852278Y-24602001D01*
X36697429Y-25080355D01*
X36161672Y-23786923D01*
X36161672Y-23786923D01*
G37*
D12*
X35390185Y-24864158D03*
D10*
G36*
X34544882Y-24456619D02*
X35699731Y-23978265D01*
X36235488Y-25271697D01*
X35080639Y-25750051D01*
X34544882Y-24456619D01*
X34544882Y-24456619D01*
G37*
D12*
X38346367Y-27428040D03*
D10*
G36*
X37501064Y-27020501D02*
X38655913Y-26542147D01*
X39191670Y-27835579D01*
X38036821Y-28313933D01*
X37501064Y-27020501D01*
X37501064Y-27020501D01*
G37*
D12*
X36729577Y-28097736D03*
D10*
G36*
X35884274Y-27690197D02*
X37039123Y-27211843D01*
X37574880Y-28505275D01*
X36420031Y-28983629D01*
X35884274Y-27690197D01*
X35884274Y-27690197D01*
G37*
D12*
X64705538Y-37006975D03*
D10*
G36*
X65113077Y-36161672D02*
X65591431Y-37316521D01*
X64297999Y-37852278D01*
X63819645Y-36697429D01*
X65113077Y-36161672D01*
X65113077Y-36161672D01*
G37*
D12*
X64035842Y-35390185D03*
D10*
G36*
X64443381Y-34544882D02*
X64921735Y-35699731D01*
X63628303Y-36235488D01*
X63149949Y-35080639D01*
X64443381Y-34544882D01*
X64443381Y-34544882D01*
G37*
D12*
X61471960Y-38346367D03*
D10*
G36*
X61879499Y-37501064D02*
X62357853Y-38655913D01*
X61064421Y-39191670D01*
X60586067Y-38036821D01*
X61879499Y-37501064D01*
X61879499Y-37501064D01*
G37*
D12*
X60802264Y-36729577D03*
D10*
G36*
X61209803Y-35884274D02*
X61688157Y-37039123D01*
X60394725Y-37574880D01*
X59916371Y-36420031D01*
X61209803Y-35884274D01*
X61209803Y-35884274D01*
G37*
D13*
X66012000Y-45325000D03*
X66012000Y-43575000D03*
X62512000Y-45325000D03*
X62512000Y-43575000D03*
D12*
X59077918Y-60315355D03*
D10*
G36*
X60014834Y-60368388D02*
X59130951Y-61252271D01*
X58141002Y-60262322D01*
X59024885Y-59378439D01*
X60014834Y-60368388D01*
X60014834Y-60368388D01*
G37*
D12*
X60315355Y-59077918D03*
D10*
G36*
X61252271Y-59130951D02*
X60368388Y-60014834D01*
X59378439Y-59024885D01*
X60262322Y-58141002D01*
X61252271Y-59130951D01*
X61252271Y-59130951D01*
G37*
D12*
X56603045Y-57840482D03*
D10*
G36*
X57539961Y-57893515D02*
X56656078Y-58777398D01*
X55666129Y-57787449D01*
X56550012Y-56903566D01*
X57539961Y-57893515D01*
X57539961Y-57893515D01*
G37*
D12*
X57840482Y-56603045D03*
D10*
G36*
X58777398Y-56656078D02*
X57893515Y-57539961D01*
X56903566Y-56550012D01*
X57787449Y-55666129D01*
X58777398Y-56656078D01*
X58777398Y-56656078D01*
G37*
D12*
X51893025Y-64705538D03*
D10*
G36*
X52738328Y-65113077D02*
X51583479Y-65591431D01*
X51047722Y-64297999D01*
X52202571Y-63819645D01*
X52738328Y-65113077D01*
X52738328Y-65113077D01*
G37*
D12*
X53509815Y-64035842D03*
D10*
G36*
X54355118Y-64443381D02*
X53200269Y-64921735D01*
X52664512Y-63628303D01*
X53819361Y-63149949D01*
X54355118Y-64443381D01*
X54355118Y-64443381D01*
G37*
D12*
X50553633Y-61471960D03*
D10*
G36*
X51398936Y-61879499D02*
X50244087Y-62357853D01*
X49708330Y-61064421D01*
X50863179Y-60586067D01*
X51398936Y-61879499D01*
X51398936Y-61879499D01*
G37*
D12*
X52170423Y-60802264D03*
D10*
G36*
X53015726Y-61209803D02*
X51860877Y-61688157D01*
X51325120Y-60394725D01*
X52479969Y-59916371D01*
X53015726Y-61209803D01*
X53015726Y-61209803D01*
G37*
D21*
X44746000Y-59944000D03*
X43646000Y-59944000D03*
D22*
X43575000Y-66012000D03*
X45325000Y-66012000D03*
X43575000Y-62512000D03*
X45325000Y-62512000D03*
D23*
X51562000Y-41868000D03*
X51562000Y-42968000D03*
D21*
X57108000Y-35687000D03*
X58208000Y-35687000D03*
D23*
X54864000Y-35687000D03*
X54864000Y-34587000D03*
X39370000Y-43265000D03*
X39370000Y-44365000D03*
D21*
X41952000Y-40640000D03*
X40852000Y-40640000D03*
D23*
X44450000Y-34840000D03*
X44450000Y-33740000D03*
X42418000Y-34840000D03*
X42418000Y-33740000D03*
X43700000Y-48556000D03*
X43700000Y-47456000D03*
X52578000Y-58504000D03*
X52578000Y-57404000D03*
D15*
X47764700Y-49530000D03*
X49263300Y-49530000D03*
X41148000Y-56629300D03*
X41148000Y-55130700D03*
D24*
X42200000Y-43700000D03*
X42200000Y-44200000D03*
X42200000Y-44700000D03*
D25*
X43200000Y-42887500D03*
X43700000Y-42887500D03*
X44200000Y-42887500D03*
X44700000Y-42887500D03*
X45200000Y-42887500D03*
X45700000Y-42887500D03*
X46200000Y-42887500D03*
X46700000Y-42887500D03*
D24*
X46700000Y-43700000D03*
X46700000Y-44200000D03*
X46700000Y-44700000D03*
X46700000Y-45200000D03*
D25*
X46700000Y-46012500D03*
X46200000Y-46012500D03*
X45700000Y-46012500D03*
X45200000Y-46012500D03*
X44700000Y-46012500D03*
X44200000Y-46012500D03*
X43700000Y-46012500D03*
X43200000Y-46012500D03*
X42700000Y-46012500D03*
X42200000Y-46012500D03*
D24*
X42200000Y-45200000D03*
D25*
X42700000Y-42887500D03*
X42200000Y-42887500D03*
D26*
X49264000Y-58674000D03*
X47764000Y-58674000D03*
D27*
X48387000Y-42926000D03*
X48387000Y-44426000D03*
X50038000Y-45478000D03*
X50038000Y-46978000D03*
D26*
X52820000Y-49530000D03*
X51320000Y-49530000D03*
D27*
X32004000Y-38112000D03*
X32004000Y-39612000D03*
X42164000Y-52058000D03*
X42164000Y-50558000D03*
D28*
X54517638Y-56434484D03*
D10*
G36*
X54662595Y-55547065D02*
X55405057Y-56289527D01*
X54372681Y-57321903D01*
X53630219Y-56579441D01*
X54662595Y-55547065D01*
X54662595Y-55547065D01*
G37*
D28*
X53174135Y-55090981D03*
D10*
G36*
X53319092Y-54203562D02*
X54061554Y-54946024D01*
X53029178Y-55978400D01*
X52286716Y-55235938D01*
X53319092Y-54203562D01*
X53319092Y-54203562D01*
G37*
D28*
X54729770Y-53535346D03*
D10*
G36*
X54874727Y-52647927D02*
X55617189Y-53390389D01*
X54584813Y-54422765D01*
X53842351Y-53680303D01*
X54874727Y-52647927D01*
X54874727Y-52647927D01*
G37*
D28*
X55401521Y-54207098D03*
D10*
G36*
X55546478Y-53319679D02*
X56288940Y-54062141D01*
X55256564Y-55094517D01*
X54514102Y-54352055D01*
X55546478Y-53319679D01*
X55546478Y-53319679D01*
G37*
D28*
X56073273Y-54878849D03*
D10*
G36*
X56218230Y-53991430D02*
X56960692Y-54733892D01*
X55928316Y-55766268D01*
X55185854Y-55023806D01*
X56218230Y-53991430D01*
X56218230Y-53991430D01*
G37*
D29*
X54757000Y-37846000D03*
X57257000Y-37846000D03*
X42184000Y-37338000D03*
X44684000Y-37338000D03*
D30*
X60452000Y-46216000D03*
X60452000Y-44716000D03*
D23*
X60452000Y-42122000D03*
X60452000Y-43222000D03*
D31*
X36868000Y-39642000D03*
X36868000Y-35542000D03*
X35268000Y-35542000D03*
X35268000Y-39642000D03*
D16*
X49294000Y-29642000D03*
X45194000Y-29642000D03*
X45194000Y-31242000D03*
X49294000Y-31242000D03*
X33510000Y-49314000D03*
X37610000Y-49314000D03*
X37610000Y-47714000D03*
X33510000Y-47714000D03*
D31*
X49530000Y-56678000D03*
X49530000Y-52578000D03*
X47930000Y-52578000D03*
X47930000Y-56678000D03*
D21*
X51350000Y-38354000D03*
X50250000Y-38354000D03*
D26*
X46978000Y-39878000D03*
X45478000Y-39878000D03*
X49542000Y-39878000D03*
X51042000Y-39878000D03*
D32*
X31877000Y-27178000D03*
X55626000Y-26162000D03*
X33274000Y-62611000D03*
D33*
X40950000Y-65692000D03*
X47950000Y-65692000D03*
D34*
X41950000Y-62992000D03*
X46950000Y-62992000D03*
D35*
X48989255Y-63315737D03*
D10*
G36*
X49771599Y-63639794D02*
X48665198Y-64098081D01*
X48206911Y-62991680D01*
X49313312Y-62533393D01*
X49771599Y-63639794D01*
X49771599Y-63639794D01*
G37*
D35*
X49562745Y-64700263D03*
D10*
G36*
X50345089Y-65024320D02*
X49238688Y-65482607D01*
X48780401Y-64376206D01*
X49886802Y-63917919D01*
X50345089Y-65024320D01*
X50345089Y-65024320D01*
G37*
D27*
X53848000Y-31750000D03*
X53848000Y-30250000D03*
D36*
X32544000Y-43688000D03*
X36544000Y-43688000D03*
M02*
