G04 #@! TF.FileFunction,Copper,L1,Top,Signal*
%FSLAX46Y46*%
G04 Gerber Fmt 4.6, Leading zero omitted, Abs format (unit mm)*
G04 Created by KiCad (PCBNEW 4.1.0-alpha+201609140817+7151~55~ubuntu16.04.1-) date Thu Sep 15 01:48:53 2016*
%MOMM*%
%LPD*%
G01*
G04 APERTURE LIST*
%ADD10C,0.100000*%
%ADD11R,1.000000X0.850000*%
%ADD12R,0.797560X0.797560*%
%ADD13R,0.900000X1.000000*%
%ADD14R,1.725000X1.725000*%
%ADD15R,0.700000X0.250000*%
%ADD16R,0.250000X0.700000*%
%ADD17R,3.500000X1.700000*%
%ADD18R,0.600000X0.500000*%
%ADD19R,0.850000X1.000000*%
%ADD20R,0.500000X0.600000*%
%ADD21R,0.375000X0.250000*%
%ADD22R,0.250000X0.475000*%
%ADD23R,0.500000X0.900000*%
%ADD24R,0.900000X0.500000*%
%ADD25R,1.100000X1.900000*%
%ADD26R,0.750000X0.800000*%
%ADD27R,1.000000X0.900000*%
%ADD28C,1.000000*%
%ADD29C,1.550000*%
%ADD30O,1.250000X0.950000*%
%ADD31R,2.000000X2.000000*%
%ADD32C,0.635000*%
%ADD33C,0.762000*%
%ADD34C,0.508000*%
%ADD35C,0.254000*%
%ADD36C,0.508000*%
%ADD37C,0.203200*%
%ADD38C,1.016000*%
G04 APERTURE END LIST*
D10*
G36*
X54599135Y-61640654D02*
X55061075Y-61449312D01*
X55290685Y-62003640D01*
X54828745Y-62194982D01*
X54599135Y-61640654D01*
X54599135Y-61640654D01*
G37*
G36*
X55020087Y-62656922D02*
X55482027Y-62465580D01*
X55711637Y-63019908D01*
X55249697Y-63211250D01*
X55020087Y-62656922D01*
X55020087Y-62656922D01*
G37*
G36*
X27259346Y-54599135D02*
X27450688Y-55061075D01*
X26896360Y-55290685D01*
X26705018Y-54828745D01*
X27259346Y-54599135D01*
X27259346Y-54599135D01*
G37*
G36*
X26243078Y-55020087D02*
X26434420Y-55482027D01*
X25880092Y-55711637D01*
X25688750Y-55249697D01*
X26243078Y-55020087D01*
X26243078Y-55020087D01*
G37*
G36*
X64660422Y-53308508D02*
X64335141Y-54093806D01*
X63411262Y-53711122D01*
X63736543Y-52925824D01*
X64660422Y-53308508D01*
X64660422Y-53308508D01*
G37*
G36*
X65330118Y-51691718D02*
X65004837Y-52477016D01*
X64080958Y-52094332D01*
X64406239Y-51309034D01*
X65330118Y-51691718D01*
X65330118Y-51691718D01*
G37*
G36*
X61426844Y-51969116D02*
X61101563Y-52754414D01*
X60177684Y-52371730D01*
X60502965Y-51586432D01*
X61426844Y-51969116D01*
X61426844Y-51969116D01*
G37*
G36*
X62096540Y-50352326D02*
X61771259Y-51137624D01*
X60847380Y-50754940D01*
X61172661Y-49969642D01*
X62096540Y-50352326D01*
X62096540Y-50352326D01*
G37*
D11*
X22888000Y-43575000D03*
X22888000Y-45325000D03*
X26388000Y-43575000D03*
X26388000Y-45325000D03*
D10*
G36*
X29168008Y-28531612D02*
X29769049Y-27930571D01*
X30476156Y-28637678D01*
X29875115Y-29238719D01*
X29168008Y-28531612D01*
X29168008Y-28531612D01*
G37*
G36*
X27930571Y-29769049D02*
X28531612Y-29168008D01*
X29238719Y-29875115D01*
X28637678Y-30476156D01*
X27930571Y-29769049D01*
X27930571Y-29769049D01*
G37*
G36*
X31642881Y-31006485D02*
X32243922Y-30405444D01*
X32951029Y-31112551D01*
X32349988Y-31713592D01*
X31642881Y-31006485D01*
X31642881Y-31006485D01*
G37*
G36*
X30405444Y-32243922D02*
X31006485Y-31642881D01*
X31713592Y-32349988D01*
X31112551Y-32951029D01*
X30405444Y-32243922D01*
X30405444Y-32243922D01*
G37*
G36*
X60368388Y-29168008D02*
X60969429Y-29769049D01*
X60262322Y-30476156D01*
X59661281Y-29875115D01*
X60368388Y-29168008D01*
X60368388Y-29168008D01*
G37*
G36*
X59130951Y-27930571D02*
X59731992Y-28531612D01*
X59024885Y-29238719D01*
X58423844Y-28637678D01*
X59130951Y-27930571D01*
X59130951Y-27930571D01*
G37*
G36*
X57893515Y-31642881D02*
X58494556Y-32243922D01*
X57787449Y-32951029D01*
X57186408Y-32349988D01*
X57893515Y-31642881D01*
X57893515Y-31642881D01*
G37*
G36*
X56656078Y-30405444D02*
X57257119Y-31006485D01*
X56550012Y-31713592D01*
X55948971Y-31112551D01*
X56656078Y-30405444D01*
X56656078Y-30405444D01*
G37*
G36*
X53308508Y-24239578D02*
X54093806Y-24564859D01*
X53711122Y-25488738D01*
X52925824Y-25163457D01*
X53308508Y-24239578D01*
X53308508Y-24239578D01*
G37*
G36*
X51691718Y-23569882D02*
X52477016Y-23895163D01*
X52094332Y-24819042D01*
X51309034Y-24493761D01*
X51691718Y-23569882D01*
X51691718Y-23569882D01*
G37*
G36*
X51969116Y-27473156D02*
X52754414Y-27798437D01*
X52371730Y-28722316D01*
X51586432Y-28397035D01*
X51969116Y-27473156D01*
X51969116Y-27473156D01*
G37*
G36*
X50352326Y-26803460D02*
X51137624Y-27128741D01*
X50754940Y-28052620D01*
X49969642Y-27727339D01*
X50352326Y-26803460D01*
X50352326Y-26803460D01*
G37*
D12*
X32004000Y-34810700D03*
X32004000Y-36309300D03*
D13*
X47226000Y-36614000D03*
X51326000Y-36614000D03*
X51326000Y-35014000D03*
X47226000Y-35014000D03*
D14*
X56234500Y-43587500D03*
X54509500Y-43587500D03*
X56234500Y-45312500D03*
X54509500Y-45312500D03*
D15*
X57772000Y-42700000D03*
X57772000Y-43200000D03*
X57772000Y-43700000D03*
X57772000Y-44200000D03*
X57772000Y-44700000D03*
X57772000Y-45200000D03*
X57772000Y-45700000D03*
X57772000Y-46200000D03*
D16*
X57122000Y-46850000D03*
X56622000Y-46850000D03*
X56122000Y-46850000D03*
X55622000Y-46850000D03*
X55122000Y-46850000D03*
X54622000Y-46850000D03*
X54122000Y-46850000D03*
X53622000Y-46850000D03*
D15*
X52972000Y-46200000D03*
X52972000Y-45700000D03*
X52972000Y-45200000D03*
X52972000Y-44700000D03*
X52972000Y-44200000D03*
X52972000Y-43700000D03*
X52972000Y-43200000D03*
X52972000Y-42700000D03*
D16*
X53622000Y-42050000D03*
X54122000Y-42050000D03*
X54622000Y-42050000D03*
X55122000Y-42050000D03*
X55622000Y-42050000D03*
X56122000Y-42050000D03*
X56622000Y-42050000D03*
X57122000Y-42050000D03*
D17*
X36068000Y-57479000D03*
X36068000Y-52249000D03*
D10*
G36*
X49850058Y-24101581D02*
X49388118Y-23910239D01*
X49617728Y-23355911D01*
X50079668Y-23547253D01*
X49850058Y-24101581D01*
X49850058Y-24101581D01*
G37*
G36*
X49429106Y-25117849D02*
X48967166Y-24926507D01*
X49196776Y-24372179D01*
X49658716Y-24563521D01*
X49429106Y-25117849D01*
X49429106Y-25117849D01*
G37*
G36*
X57226006Y-27717025D02*
X56872452Y-27363471D01*
X57296716Y-26939207D01*
X57650270Y-27292761D01*
X57226006Y-27717025D01*
X57226006Y-27717025D01*
G37*
G36*
X56448188Y-28494843D02*
X56094634Y-28141289D01*
X56518898Y-27717025D01*
X56872452Y-28070579D01*
X56448188Y-28494843D01*
X56448188Y-28494843D01*
G37*
G36*
X62656922Y-33879913D02*
X62465580Y-33417973D01*
X63019908Y-33188363D01*
X63211250Y-33650303D01*
X62656922Y-33879913D01*
X62656922Y-33879913D01*
G37*
G36*
X61640654Y-34300865D02*
X61449312Y-33838925D01*
X62003640Y-33609315D01*
X62194982Y-34071255D01*
X61640654Y-34300865D01*
X61640654Y-34300865D01*
G37*
D18*
X65616000Y-41402000D03*
X64516000Y-41402000D03*
D10*
G36*
X64798419Y-49850058D02*
X64989761Y-49388118D01*
X65544089Y-49617728D01*
X65352747Y-50079668D01*
X64798419Y-49850058D01*
X64798419Y-49850058D01*
G37*
G36*
X63782151Y-49429106D02*
X63973493Y-48967166D01*
X64527821Y-49196776D01*
X64336479Y-49658716D01*
X63782151Y-49429106D01*
X63782151Y-49429106D01*
G37*
G36*
X61182975Y-57226006D02*
X61536529Y-56872452D01*
X61960793Y-57296716D01*
X61607239Y-57650270D01*
X61182975Y-57226006D01*
X61182975Y-57226006D01*
G37*
G36*
X60405157Y-56448188D02*
X60758711Y-56094634D01*
X61182975Y-56518898D01*
X60829421Y-56872452D01*
X60405157Y-56448188D01*
X60405157Y-56448188D01*
G37*
G36*
X39049942Y-64798419D02*
X39511882Y-64989761D01*
X39282272Y-65544089D01*
X38820332Y-65352747D01*
X39049942Y-64798419D01*
X39049942Y-64798419D01*
G37*
G36*
X39470894Y-63782151D02*
X39932834Y-63973493D01*
X39703224Y-64527821D01*
X39241284Y-64336479D01*
X39470894Y-63782151D01*
X39470894Y-63782151D01*
G37*
G36*
X31673994Y-61182975D02*
X32027548Y-61536529D01*
X31603284Y-61960793D01*
X31249730Y-61607239D01*
X31673994Y-61182975D01*
X31673994Y-61182975D01*
G37*
G36*
X32451812Y-60405157D02*
X32805366Y-60758711D01*
X32381102Y-61182975D01*
X32027548Y-60829421D01*
X32451812Y-60405157D01*
X32451812Y-60405157D01*
G37*
D18*
X23284000Y-47498000D03*
X24384000Y-47498000D03*
D10*
G36*
X24101581Y-39049942D02*
X23910239Y-39511882D01*
X23355911Y-39282272D01*
X23547253Y-38820332D01*
X24101581Y-39049942D01*
X24101581Y-39049942D01*
G37*
G36*
X25117849Y-39470894D02*
X24926507Y-39932834D01*
X24372179Y-39703224D01*
X24563521Y-39241284D01*
X25117849Y-39470894D01*
X25117849Y-39470894D01*
G37*
G36*
X27717025Y-31673994D02*
X27363471Y-32027548D01*
X26939207Y-31603284D01*
X27292761Y-31249730D01*
X27717025Y-31673994D01*
X27717025Y-31673994D01*
G37*
G36*
X28494843Y-32451812D02*
X28141289Y-32805366D01*
X27717025Y-32381102D01*
X28070579Y-32027548D01*
X28494843Y-32451812D01*
X28494843Y-32451812D01*
G37*
G36*
X33879913Y-26243078D02*
X33417973Y-26434420D01*
X33188363Y-25880092D01*
X33650303Y-25688750D01*
X33879913Y-26243078D01*
X33879913Y-26243078D01*
G37*
G36*
X34300865Y-27259346D02*
X33838925Y-27450688D01*
X33609315Y-26896360D01*
X34071255Y-26705018D01*
X34300865Y-27259346D01*
X34300865Y-27259346D01*
G37*
G36*
X28531612Y-59731992D02*
X27930571Y-59130951D01*
X28637678Y-58423844D01*
X29238719Y-59024885D01*
X28531612Y-59731992D01*
X28531612Y-59731992D01*
G37*
G36*
X29769049Y-60969429D02*
X29168008Y-60368388D01*
X29875115Y-59661281D01*
X30476156Y-60262322D01*
X29769049Y-60969429D01*
X29769049Y-60969429D01*
G37*
G36*
X31006485Y-57257119D02*
X30405444Y-56656078D01*
X31112551Y-55948971D01*
X31713592Y-56550012D01*
X31006485Y-57257119D01*
X31006485Y-57257119D01*
G37*
G36*
X32243922Y-58494556D02*
X31642881Y-57893515D01*
X32349988Y-57186408D01*
X32951029Y-57787449D01*
X32243922Y-58494556D01*
X32243922Y-58494556D01*
G37*
G36*
X35591492Y-64660422D02*
X34806194Y-64335141D01*
X35188878Y-63411262D01*
X35974176Y-63736543D01*
X35591492Y-64660422D01*
X35591492Y-64660422D01*
G37*
G36*
X37208282Y-65330118D02*
X36422984Y-65004837D01*
X36805668Y-64080958D01*
X37590966Y-64406239D01*
X37208282Y-65330118D01*
X37208282Y-65330118D01*
G37*
G36*
X36930884Y-61426844D02*
X36145586Y-61101563D01*
X36528270Y-60177684D01*
X37313568Y-60502965D01*
X36930884Y-61426844D01*
X36930884Y-61426844D01*
G37*
G36*
X38547674Y-62096540D02*
X37762376Y-61771259D01*
X38145060Y-60847380D01*
X38930358Y-61172661D01*
X38547674Y-62096540D01*
X38547674Y-62096540D01*
G37*
D19*
X45325000Y-22888000D03*
X43575000Y-22888000D03*
X45325000Y-26388000D03*
X43575000Y-26388000D03*
D20*
X41402000Y-23284000D03*
X41402000Y-24384000D03*
D10*
G36*
X23895163Y-52477016D02*
X23569882Y-51691718D01*
X24493761Y-51309034D01*
X24819042Y-52094332D01*
X23895163Y-52477016D01*
X23895163Y-52477016D01*
G37*
G36*
X24564859Y-54093806D02*
X24239578Y-53308508D01*
X25163457Y-52925824D01*
X25488738Y-53711122D01*
X24564859Y-54093806D01*
X24564859Y-54093806D01*
G37*
G36*
X27128741Y-51137624D02*
X26803460Y-50352326D01*
X27727339Y-49969642D01*
X28052620Y-50754940D01*
X27128741Y-51137624D01*
X27128741Y-51137624D01*
G37*
G36*
X27798437Y-52754414D02*
X27473156Y-51969116D01*
X28397035Y-51586432D01*
X28722316Y-52371730D01*
X27798437Y-52754414D01*
X27798437Y-52754414D01*
G37*
G36*
X24239578Y-35591492D02*
X24564859Y-34806194D01*
X25488738Y-35188878D01*
X25163457Y-35974176D01*
X24239578Y-35591492D01*
X24239578Y-35591492D01*
G37*
G36*
X23569882Y-37208282D02*
X23895163Y-36422984D01*
X24819042Y-36805668D01*
X24493761Y-37590966D01*
X23569882Y-37208282D01*
X23569882Y-37208282D01*
G37*
G36*
X27473156Y-36930884D02*
X27798437Y-36145586D01*
X28722316Y-36528270D01*
X28397035Y-37313568D01*
X27473156Y-36930884D01*
X27473156Y-36930884D01*
G37*
G36*
X26803460Y-38547674D02*
X27128741Y-37762376D01*
X28052620Y-38145060D01*
X27727339Y-38930358D01*
X26803460Y-38547674D01*
X26803460Y-38547674D01*
G37*
G36*
X36422984Y-23895163D02*
X37208282Y-23569882D01*
X37590966Y-24493761D01*
X36805668Y-24819042D01*
X36422984Y-23895163D01*
X36422984Y-23895163D01*
G37*
G36*
X34806194Y-24564859D02*
X35591492Y-24239578D01*
X35974176Y-25163457D01*
X35188878Y-25488738D01*
X34806194Y-24564859D01*
X34806194Y-24564859D01*
G37*
G36*
X37762376Y-27128741D02*
X38547674Y-26803460D01*
X38930358Y-27727339D01*
X38145060Y-28052620D01*
X37762376Y-27128741D01*
X37762376Y-27128741D01*
G37*
G36*
X36145586Y-27798437D02*
X36930884Y-27473156D01*
X37313568Y-28397035D01*
X36528270Y-28722316D01*
X36145586Y-27798437D01*
X36145586Y-27798437D01*
G37*
G36*
X65004837Y-36422984D02*
X65330118Y-37208282D01*
X64406239Y-37590966D01*
X64080958Y-36805668D01*
X65004837Y-36422984D01*
X65004837Y-36422984D01*
G37*
G36*
X64335141Y-34806194D02*
X64660422Y-35591492D01*
X63736543Y-35974176D01*
X63411262Y-35188878D01*
X64335141Y-34806194D01*
X64335141Y-34806194D01*
G37*
G36*
X61771259Y-37762376D02*
X62096540Y-38547674D01*
X61172661Y-38930358D01*
X60847380Y-38145060D01*
X61771259Y-37762376D01*
X61771259Y-37762376D01*
G37*
G36*
X61101563Y-36145586D02*
X61426844Y-36930884D01*
X60502965Y-37313568D01*
X60177684Y-36528270D01*
X61101563Y-36145586D01*
X61101563Y-36145586D01*
G37*
D11*
X66012000Y-45325000D03*
X66012000Y-43575000D03*
X62512000Y-45325000D03*
X62512000Y-43575000D03*
D10*
G36*
X59731992Y-60368388D02*
X59130951Y-60969429D01*
X58423844Y-60262322D01*
X59024885Y-59661281D01*
X59731992Y-60368388D01*
X59731992Y-60368388D01*
G37*
G36*
X60969429Y-59130951D02*
X60368388Y-59731992D01*
X59661281Y-59024885D01*
X60262322Y-58423844D01*
X60969429Y-59130951D01*
X60969429Y-59130951D01*
G37*
G36*
X57257119Y-57893515D02*
X56656078Y-58494556D01*
X55948971Y-57787449D01*
X56550012Y-57186408D01*
X57257119Y-57893515D01*
X57257119Y-57893515D01*
G37*
G36*
X58494556Y-56656078D02*
X57893515Y-57257119D01*
X57186408Y-56550012D01*
X57787449Y-55948971D01*
X58494556Y-56656078D01*
X58494556Y-56656078D01*
G37*
G36*
X52477016Y-65004837D02*
X51691718Y-65330118D01*
X51309034Y-64406239D01*
X52094332Y-64080958D01*
X52477016Y-65004837D01*
X52477016Y-65004837D01*
G37*
G36*
X54093806Y-64335141D02*
X53308508Y-64660422D01*
X52925824Y-63736543D01*
X53711122Y-63411262D01*
X54093806Y-64335141D01*
X54093806Y-64335141D01*
G37*
G36*
X51137624Y-61771259D02*
X50352326Y-62096540D01*
X49969642Y-61172661D01*
X50754940Y-60847380D01*
X51137624Y-61771259D01*
X51137624Y-61771259D01*
G37*
G36*
X52754414Y-61101563D02*
X51969116Y-61426844D01*
X51586432Y-60502965D01*
X52371730Y-60177684D01*
X52754414Y-61101563D01*
X52754414Y-61101563D01*
G37*
D18*
X44746000Y-59944000D03*
X43646000Y-59944000D03*
D19*
X43575000Y-66012000D03*
X45325000Y-66012000D03*
X43575000Y-62512000D03*
X45325000Y-62512000D03*
D20*
X51562000Y-41868000D03*
X51562000Y-42968000D03*
D18*
X57108000Y-35687000D03*
X58208000Y-35687000D03*
D20*
X54864000Y-35687000D03*
X54864000Y-34587000D03*
X39370000Y-43265000D03*
X39370000Y-44365000D03*
D18*
X41952000Y-40640000D03*
X40852000Y-40640000D03*
D20*
X44450000Y-34840000D03*
X44450000Y-33740000D03*
X42418000Y-34840000D03*
X42418000Y-33740000D03*
X43700000Y-48556000D03*
X43700000Y-47456000D03*
X52578000Y-58504000D03*
X52578000Y-57404000D03*
D12*
X47764700Y-49530000D03*
X49263300Y-49530000D03*
X41148000Y-56629300D03*
X41148000Y-55130700D03*
D21*
X42200000Y-43700000D03*
X42200000Y-44200000D03*
X42200000Y-44700000D03*
D22*
X43200000Y-42887500D03*
X43700000Y-42887500D03*
X44200000Y-42887500D03*
X44700000Y-42887500D03*
X45200000Y-42887500D03*
X45700000Y-42887500D03*
X46200000Y-42887500D03*
X46700000Y-42887500D03*
D21*
X46700000Y-43700000D03*
X46700000Y-44200000D03*
X46700000Y-44700000D03*
X46700000Y-45200000D03*
D22*
X46700000Y-46012500D03*
X46200000Y-46012500D03*
X45700000Y-46012500D03*
X45200000Y-46012500D03*
X44700000Y-46012500D03*
X44200000Y-46012500D03*
X43700000Y-46012500D03*
X43200000Y-46012500D03*
X42700000Y-46012500D03*
X42200000Y-46012500D03*
D21*
X42200000Y-45200000D03*
D22*
X42700000Y-42887500D03*
X42200000Y-42887500D03*
D23*
X49264000Y-58674000D03*
X47764000Y-58674000D03*
D24*
X48387000Y-42926000D03*
X48387000Y-44426000D03*
X50038000Y-45478000D03*
X50038000Y-46978000D03*
D23*
X52820000Y-49530000D03*
X51320000Y-49530000D03*
D24*
X32004000Y-38112000D03*
X32004000Y-39612000D03*
X42164000Y-52058000D03*
X42164000Y-50558000D03*
D10*
G36*
X54662595Y-55829908D02*
X55122214Y-56289527D01*
X54372681Y-57039060D01*
X53913062Y-56579441D01*
X54662595Y-55829908D01*
X54662595Y-55829908D01*
G37*
G36*
X53319092Y-54486405D02*
X53778711Y-54946024D01*
X53029178Y-55695557D01*
X52569559Y-55235938D01*
X53319092Y-54486405D01*
X53319092Y-54486405D01*
G37*
G36*
X54874727Y-52930770D02*
X55334346Y-53390389D01*
X54584813Y-54139922D01*
X54125194Y-53680303D01*
X54874727Y-52930770D01*
X54874727Y-52930770D01*
G37*
G36*
X55546478Y-53602522D02*
X56006097Y-54062141D01*
X55256564Y-54811674D01*
X54796945Y-54352055D01*
X55546478Y-53602522D01*
X55546478Y-53602522D01*
G37*
G36*
X56218230Y-54274273D02*
X56677849Y-54733892D01*
X55928316Y-55483425D01*
X55468697Y-55023806D01*
X56218230Y-54274273D01*
X56218230Y-54274273D01*
G37*
D25*
X54757000Y-37846000D03*
X57257000Y-37846000D03*
X42184000Y-37338000D03*
X44684000Y-37338000D03*
D26*
X60452000Y-46216000D03*
X60452000Y-44716000D03*
D20*
X60452000Y-42122000D03*
X60452000Y-43222000D03*
D27*
X36868000Y-39642000D03*
X36868000Y-35542000D03*
X35268000Y-35542000D03*
X35268000Y-39642000D03*
D13*
X49294000Y-29642000D03*
X45194000Y-29642000D03*
X45194000Y-31242000D03*
X49294000Y-31242000D03*
X33510000Y-49314000D03*
X37610000Y-49314000D03*
X37610000Y-47714000D03*
X33510000Y-47714000D03*
D27*
X49530000Y-56678000D03*
X49530000Y-52578000D03*
X47930000Y-52578000D03*
X47930000Y-56678000D03*
D18*
X51350000Y-38354000D03*
X50250000Y-38354000D03*
D23*
X46978000Y-39878000D03*
X45478000Y-39878000D03*
X49542000Y-39878000D03*
X51042000Y-39878000D03*
D28*
X31877000Y-27178000D03*
X55626000Y-26162000D03*
X33274000Y-62611000D03*
D29*
X40950000Y-65692000D03*
X47950000Y-65692000D03*
D30*
X41950000Y-62992000D03*
X46950000Y-62992000D03*
D10*
G36*
X49510286Y-63531555D02*
X48773437Y-63836768D01*
X48468224Y-63099919D01*
X49205073Y-62794706D01*
X49510286Y-63531555D01*
X49510286Y-63531555D01*
G37*
G36*
X50083776Y-64916081D02*
X49346927Y-65221294D01*
X49041714Y-64484445D01*
X49778563Y-64179232D01*
X50083776Y-64916081D01*
X50083776Y-64916081D01*
G37*
D24*
X53848000Y-31750000D03*
X53848000Y-30250000D03*
D31*
X32544000Y-43688000D03*
X36544000Y-43688000D03*
D32*
X59536830Y-30620406D03*
X51453399Y-63680770D03*
X58279594Y-59536830D03*
X63000359Y-53096057D03*
X63680770Y-37446601D03*
X64897000Y-45339000D03*
X35803943Y-63000359D03*
X29363170Y-58279594D03*
X25219230Y-51453399D03*
X25899641Y-35803943D03*
X24003000Y-43561000D03*
X30620406Y-29363170D03*
X37446601Y-25219230D03*
X53096057Y-25899641D03*
X45339000Y-24003000D03*
X49800000Y-42148000D03*
X58928000Y-45212000D03*
X60706000Y-40894000D03*
X46228000Y-48514000D03*
D33*
X51562393Y-58559164D03*
X44450000Y-64516000D03*
X34798000Y-46990000D03*
D32*
X45720000Y-33782000D03*
D33*
X35814000Y-31242000D03*
D32*
X40725000Y-42291000D03*
D33*
X44200000Y-44454000D03*
X40386000Y-58674000D03*
D32*
X50292000Y-41148000D03*
X59182000Y-43434000D03*
X48768000Y-46990000D03*
X41402000Y-39624000D03*
X38227000Y-44323000D03*
X55372000Y-44450000D03*
X41402000Y-48260000D03*
D34*
X42926000Y-54258400D03*
X42926000Y-54969600D03*
D32*
X58099989Y-29183565D03*
X43180000Y-58674000D03*
X53330722Y-62903158D03*
X59716435Y-58099989D03*
X63777972Y-51218734D03*
X62903158Y-35569278D03*
X64897000Y-43307000D03*
X37681266Y-63777972D03*
X30800011Y-59716435D03*
X25996842Y-53330722D03*
X25122028Y-37681266D03*
X24003000Y-45593000D03*
X29183565Y-30800011D03*
X35569278Y-25996842D03*
X51218734Y-25122028D03*
X43307000Y-24003000D03*
X40386000Y-37084000D03*
D33*
X35814000Y-49530000D03*
X38354000Y-58928000D03*
X35319000Y-54864000D03*
X38862000Y-52070000D03*
D32*
X59182000Y-41021000D03*
X59182000Y-40099994D03*
X32775667Y-56483543D03*
X29059285Y-51099970D03*
X27686000Y-44704000D03*
X28864882Y-38269360D03*
X32416457Y-32416457D03*
X37937493Y-28727418D03*
X44450000Y-27432000D03*
X50962507Y-28727418D03*
X51562000Y-45212000D03*
X43180000Y-32004000D03*
X51562000Y-47244000D03*
X40894000Y-49276000D03*
D33*
X51816000Y-51054000D03*
X38100000Y-45720000D03*
D32*
X54622000Y-47994000D03*
D34*
X48818810Y-60502810D03*
D32*
X55118000Y-32766000D03*
D34*
X50038000Y-65786000D03*
D32*
X49784000Y-35814000D03*
D34*
X52070000Y-40132000D03*
X58547000Y-46990000D03*
X56642000Y-53086000D03*
X54864000Y-49530000D03*
D35*
X63000359Y-53096057D02*
X62551347Y-53096057D01*
X62551347Y-53096057D02*
X61799404Y-53848000D01*
X61799404Y-53848000D02*
X57104122Y-53848000D01*
X51562393Y-58559164D02*
X52522836Y-58559164D01*
X52522836Y-58559164D02*
X52578000Y-58504000D01*
D36*
X55151549Y-63355814D02*
X55365862Y-62838415D01*
X61571884Y-57821389D02*
X61571884Y-57261361D01*
X65385567Y-50251292D02*
X65171253Y-49733893D01*
X53509815Y-64035842D02*
X55151549Y-63355814D01*
X60315355Y-59077918D02*
X61571884Y-57821389D01*
X64705538Y-51893026D02*
X65385567Y-50251292D01*
X52052997Y-63432409D02*
X51453399Y-63680770D01*
X58738507Y-59077918D02*
X58279594Y-59536830D01*
X63248721Y-52496459D02*
X63000359Y-53096057D01*
X53509815Y-64035842D02*
X52052997Y-63432409D01*
X60315355Y-59077918D02*
X58738507Y-59077918D01*
X64705538Y-51893026D02*
X63248721Y-52496459D01*
X63355814Y-33748451D02*
X62838415Y-33534138D01*
X64035842Y-35390185D02*
X63355814Y-33748451D01*
X63432409Y-36847003D02*
X63680770Y-37446601D01*
X64035842Y-35390185D02*
X63432409Y-36847003D01*
X64897000Y-44690000D02*
X64897000Y-45339000D01*
X66012000Y-43575000D02*
X64897000Y-44690000D01*
X66012000Y-41798000D02*
X65616000Y-41402000D01*
X66012000Y-43575000D02*
X66012000Y-41798000D01*
X37006974Y-64705538D02*
X38648708Y-65385567D01*
X29822082Y-60315355D02*
X31078611Y-61571884D01*
X24864158Y-53509815D02*
X25544186Y-55151549D01*
X38648708Y-65385567D02*
X39166107Y-65171253D01*
X31078611Y-61571884D02*
X31638639Y-61571884D01*
X25544186Y-55151549D02*
X26061585Y-55365862D01*
X37006974Y-64705538D02*
X36403541Y-63248721D01*
X29822082Y-60315355D02*
X29822082Y-58738507D01*
X24864158Y-53509815D02*
X25467591Y-52052997D01*
X36403541Y-63248721D02*
X35803943Y-63000359D01*
X29822082Y-58738507D02*
X29363170Y-58279594D01*
X25467591Y-52052997D02*
X25219230Y-51453399D01*
X25651279Y-36403541D02*
X25899641Y-35803943D01*
X23514433Y-38648708D02*
X23728747Y-39166107D01*
X24194462Y-37006974D02*
X25651279Y-36403541D01*
X24194462Y-37006974D02*
X23514433Y-38648708D01*
X22888000Y-47102000D02*
X23284000Y-47498000D01*
X22888000Y-45325000D02*
X22888000Y-47102000D01*
X24003000Y-44210000D02*
X24003000Y-43561000D01*
X22888000Y-45325000D02*
X24003000Y-44210000D01*
X28584645Y-29822082D02*
X30161493Y-29822082D01*
X35390185Y-24864158D02*
X36847003Y-25467591D01*
X30161493Y-29822082D02*
X30620406Y-29363170D01*
X36847003Y-25467591D02*
X37446601Y-25219230D01*
X28584645Y-29822082D02*
X27328116Y-31078611D01*
X35390185Y-24864158D02*
X33748451Y-25544186D01*
X27328116Y-31078611D02*
X27328116Y-31638639D01*
X33748451Y-25544186D02*
X33534138Y-26061585D01*
D35*
X59536830Y-30620406D02*
X59536830Y-32919170D01*
X59536830Y-32919170D02*
X58208000Y-34248000D01*
X53848000Y-30250000D02*
X53848000Y-27432000D01*
X53848000Y-27432000D02*
X53096057Y-26680057D01*
X53096057Y-26680057D02*
X53096057Y-25899641D01*
D36*
X59077918Y-28584645D02*
X59077918Y-30161493D01*
X51893026Y-24194462D02*
X52496459Y-25651279D01*
X57821389Y-27328116D02*
X57261361Y-27328116D01*
X50251292Y-23514433D02*
X49733893Y-23728747D01*
X59077918Y-28584645D02*
X57821389Y-27328116D01*
X51893026Y-24194462D02*
X50251292Y-23514433D01*
X59077918Y-30161493D02*
X59536830Y-30620406D01*
X52496459Y-25651279D02*
X53096057Y-25899641D01*
X43575000Y-22888000D02*
X44690000Y-24003000D01*
X44690000Y-24003000D02*
X45339000Y-24003000D01*
X43575000Y-22888000D02*
X41798000Y-22888000D01*
X41798000Y-22888000D02*
X41402000Y-23284000D01*
D35*
X60452000Y-46216000D02*
X59932000Y-46216000D01*
X59932000Y-46216000D02*
X58928000Y-45212000D01*
X50842000Y-42968000D02*
X50339499Y-42465499D01*
X50339499Y-42465499D02*
X50117499Y-42465499D01*
X50117499Y-42465499D02*
X49800000Y-42148000D01*
X58928000Y-45212000D02*
X58416000Y-44700000D01*
X60452000Y-42122000D02*
X60452000Y-41148000D01*
X60452000Y-41148000D02*
X60706000Y-40894000D01*
D37*
X57772000Y-44700000D02*
X58416000Y-44700000D01*
X52171590Y-38035610D02*
X52171590Y-35909590D01*
X52171590Y-35909590D02*
X51326000Y-35064000D01*
X51350000Y-38354000D02*
X51853200Y-38354000D01*
X51853200Y-38354000D02*
X52171590Y-38035610D01*
D35*
X54864000Y-34587000D02*
X55368000Y-34587000D01*
X55368000Y-34587000D02*
X55707000Y-34248000D01*
X55707000Y-34248000D02*
X58208000Y-34248000D01*
D37*
X47930000Y-52578000D02*
X47880000Y-52578000D01*
X46736000Y-49530000D02*
X46228000Y-49022000D01*
X47764700Y-49530000D02*
X46736000Y-49530000D01*
X43700000Y-48556000D02*
X46186000Y-48556000D01*
D36*
X45325000Y-66012000D02*
X45325000Y-65391000D01*
X45325000Y-65391000D02*
X44450000Y-64516000D01*
D37*
X33510000Y-47714000D02*
X34074000Y-47714000D01*
X34074000Y-47714000D02*
X34798000Y-46990000D01*
X37610000Y-47714000D02*
X35522000Y-47714000D01*
X35522000Y-47714000D02*
X34798000Y-46990000D01*
X43551857Y-57899299D02*
X44773156Y-56678000D01*
X44773156Y-56678000D02*
X47930000Y-56678000D01*
X45194000Y-31242000D02*
X49294000Y-31242000D01*
X45720000Y-33782000D02*
X45720000Y-31768000D01*
X45720000Y-31768000D02*
X45194000Y-31242000D01*
X35268000Y-35542000D02*
X35268000Y-31788000D01*
X35268000Y-31788000D02*
X35814000Y-31242000D01*
X35268000Y-35542000D02*
X35268000Y-36195200D01*
X35268000Y-36195200D02*
X35268000Y-39642000D01*
X32004000Y-34810700D02*
X32004000Y-34208720D01*
X32004000Y-34208720D02*
X34970720Y-31242000D01*
X34970720Y-31242000D02*
X35275185Y-31242000D01*
X35275185Y-31242000D02*
X35814000Y-31242000D01*
X45720000Y-33782000D02*
X44492000Y-33782000D01*
X44492000Y-33782000D02*
X44450000Y-33740000D01*
X47226000Y-35014000D02*
X47226000Y-34964000D01*
X47226000Y-34964000D02*
X46044000Y-33782000D01*
X46044000Y-33782000D02*
X45720000Y-33782000D01*
X51326000Y-35014000D02*
X47226000Y-35014000D01*
X51326000Y-35064000D02*
X51326000Y-35014000D01*
D35*
X57104122Y-53848000D02*
X56073273Y-54878849D01*
X52578000Y-58504000D02*
X52578000Y-58554000D01*
D37*
X44450000Y-33690000D02*
X44450000Y-33740000D01*
D36*
X44746000Y-59944000D02*
X44746000Y-59093442D01*
X44746000Y-59093442D02*
X43551857Y-57899299D01*
X43551857Y-57899299D02*
X41160701Y-57899299D01*
D35*
X55072010Y-55433221D02*
X54175399Y-54536609D01*
X54175399Y-54536609D02*
X54175399Y-54089718D01*
X54175399Y-54089718D02*
X54729770Y-53535346D01*
X56073273Y-54878849D02*
X55518901Y-55433221D01*
X55518901Y-55433221D02*
X55072010Y-55433221D01*
X58208000Y-35687000D02*
X58208000Y-34248000D01*
X44450000Y-33740000D02*
X42418000Y-33740000D01*
D36*
X45325000Y-65937000D02*
X45325000Y-66012000D01*
X59077918Y-28584645D02*
X58818410Y-28844153D01*
X64705538Y-51893026D02*
X64366475Y-51752581D01*
X60315355Y-59077918D02*
X60055847Y-58818410D01*
D37*
X40725000Y-42291000D02*
X40725000Y-43265000D01*
X40725000Y-41220200D02*
X40725000Y-42291000D01*
X40852000Y-40640000D02*
X40852000Y-41093200D01*
X40852000Y-41093200D02*
X40725000Y-41220200D01*
X40725000Y-43265000D02*
X41160000Y-43700000D01*
X41160000Y-43700000D02*
X42200000Y-43700000D01*
X39370000Y-43265000D02*
X40725000Y-43265000D01*
D35*
X51562000Y-42968000D02*
X50842000Y-42968000D01*
D37*
X52972000Y-43200000D02*
X51794000Y-43200000D01*
X51794000Y-43200000D02*
X51562000Y-42968000D01*
X42200000Y-46012500D02*
X42200000Y-45200000D01*
X46700000Y-46012500D02*
X46700000Y-45200000D01*
X42200000Y-45200000D02*
X42641500Y-45200000D01*
X43387500Y-44454000D02*
X44200000Y-44454000D01*
X42641500Y-45200000D02*
X43387500Y-44454000D01*
X44200000Y-44454000D02*
X43446000Y-43700000D01*
X43446000Y-43700000D02*
X42200000Y-43700000D01*
X46700000Y-44200000D02*
X45986000Y-44200000D01*
X45986000Y-44200000D02*
X45732000Y-44454000D01*
X45978000Y-44700000D02*
X45732000Y-44454000D01*
X45732000Y-44454000D02*
X44200000Y-44454000D01*
X46700000Y-44700000D02*
X45978000Y-44700000D01*
X44946000Y-45200000D02*
X44200000Y-44454000D01*
X44200000Y-44454000D02*
X44200000Y-42887500D01*
X46700000Y-45200000D02*
X44946000Y-45200000D01*
D36*
X41160701Y-57899299D02*
X40766999Y-58293001D01*
X40766999Y-58293001D02*
X40386000Y-58674000D01*
D35*
X41148000Y-57912000D02*
X40386000Y-58674000D01*
X41148000Y-56629300D02*
X41148000Y-57912000D01*
D37*
X46228000Y-50926000D02*
X46228000Y-48514000D01*
X47880000Y-52578000D02*
X46228000Y-50926000D01*
X46228000Y-49022000D02*
X46228000Y-48514000D01*
X46186000Y-48556000D02*
X46228000Y-48514000D01*
X48387000Y-46609000D02*
X48387000Y-44426000D01*
D35*
X51562000Y-41868000D02*
X51012000Y-41868000D01*
X51012000Y-41868000D02*
X50292000Y-41148000D01*
D37*
X45478000Y-40531200D02*
X45586800Y-40640000D01*
X50292000Y-41148000D02*
X46094800Y-41148000D01*
X46094800Y-41148000D02*
X45586800Y-40640000D01*
D35*
X59182000Y-43434000D02*
X58732988Y-43434000D01*
X58732988Y-43434000D02*
X58466988Y-43700000D01*
X59648000Y-43222000D02*
X59394000Y-43222000D01*
X59394000Y-43222000D02*
X59182000Y-43434000D01*
D37*
X57772000Y-43700000D02*
X58408000Y-43700000D01*
D35*
X59648000Y-43222000D02*
X60452000Y-43222000D01*
D37*
X45478000Y-39878000D02*
X45478000Y-40531200D01*
X50038000Y-46978000D02*
X48780000Y-46978000D01*
X48780000Y-46978000D02*
X48768000Y-46990000D01*
X48387000Y-46609000D02*
X48768000Y-46990000D01*
X41952000Y-40640000D02*
X41952000Y-40174000D01*
X41952000Y-40174000D02*
X41402000Y-39624000D01*
X42418000Y-41656000D02*
X42700000Y-41938000D01*
X42700000Y-41938000D02*
X42700000Y-42887500D01*
D35*
X41952000Y-40640000D02*
X41952000Y-41190000D01*
X41952000Y-41190000D02*
X42418000Y-41656000D01*
D37*
X39370000Y-44365000D02*
X38269000Y-44365000D01*
X38269000Y-44365000D02*
X38227000Y-44323000D01*
X41106000Y-44365000D02*
X41271000Y-44200000D01*
X41271000Y-44200000D02*
X42200000Y-44200000D01*
X39370000Y-44365000D02*
X41106000Y-44365000D01*
X52468200Y-41868000D02*
X51562000Y-41868000D01*
X56847000Y-44200000D02*
X56234500Y-43587500D01*
X57772000Y-43700000D02*
X56347000Y-43700000D01*
X56347000Y-43700000D02*
X56234500Y-43587500D01*
D36*
X54509500Y-43587500D02*
X56234500Y-43587500D01*
X56234500Y-43587500D02*
X56234500Y-45312500D01*
X55372000Y-44450000D02*
X54509500Y-43587500D01*
X56234500Y-45312500D02*
X55372000Y-44450000D01*
D37*
X52972000Y-42700000D02*
X52976801Y-42704801D01*
X52976801Y-42704801D02*
X53626801Y-42704801D01*
X53626801Y-42704801D02*
X54509500Y-43587500D01*
D36*
X54509500Y-43587500D02*
X54509500Y-45312500D01*
X56234500Y-45312500D02*
X54509500Y-45312500D01*
D37*
X52972000Y-42700000D02*
X52972000Y-42371800D01*
X52972000Y-42371800D02*
X52468200Y-41868000D01*
D35*
X42164000Y-49022000D02*
X41402000Y-48260000D01*
X42164000Y-50558000D02*
X42164000Y-49022000D01*
X45325000Y-62512000D02*
X45325000Y-61758000D01*
X47647000Y-59436000D02*
X47706000Y-59436000D01*
X47706000Y-59436000D02*
X47764000Y-59378000D01*
X47764000Y-59378000D02*
X47764000Y-58674000D01*
X45325000Y-61758000D02*
X47647000Y-59436000D01*
X53174135Y-55090981D02*
X49591116Y-58674000D01*
X49591116Y-58674000D02*
X49264000Y-58674000D01*
X43575000Y-66012000D02*
X42886407Y-66012000D01*
X42886407Y-66012000D02*
X38346367Y-61471960D01*
D37*
X42926000Y-54258400D02*
X43078401Y-54410801D01*
X44615610Y-54242048D02*
X44651123Y-54298568D01*
X43078401Y-54410801D02*
X43688000Y-54410801D01*
X44098323Y-53879654D02*
X44154843Y-53844141D01*
X43688000Y-54410801D02*
X43754331Y-54403328D01*
X43978616Y-54179043D02*
X43993563Y-54046379D01*
X43754331Y-54403328D02*
X43817336Y-54381281D01*
X43817336Y-54381281D02*
X43873856Y-54345768D01*
X44698323Y-54345768D02*
X44754843Y-54381281D01*
X44651123Y-54298568D02*
X44698323Y-54345768D01*
X43956569Y-54242048D02*
X43978616Y-54179043D01*
X43873856Y-54345768D02*
X43921056Y-54298568D01*
X51219831Y-54410801D02*
X56668800Y-48961832D01*
X44051123Y-53926854D02*
X44098323Y-53879654D01*
X43921056Y-54298568D02*
X43956569Y-54242048D01*
X43993563Y-54046379D02*
X44015610Y-53983374D01*
X44154843Y-53844141D02*
X44217848Y-53822094D01*
X44015610Y-53983374D02*
X44051123Y-53926854D01*
X44217848Y-53822094D02*
X44284180Y-53814620D01*
X44284180Y-53814620D02*
X44288000Y-53814620D01*
X44288000Y-53814620D02*
X44354331Y-53822094D01*
X44354331Y-53822094D02*
X44417336Y-53844141D01*
X44593563Y-54179043D02*
X44615610Y-54242048D01*
X56668800Y-47421800D02*
X56622000Y-47375000D01*
X44417336Y-53844141D02*
X44473856Y-53879654D01*
X44817848Y-54403328D02*
X44884180Y-54410801D01*
X44473856Y-53879654D02*
X44521056Y-53926854D01*
X44521056Y-53926854D02*
X44556569Y-53983374D01*
X56668800Y-48961832D02*
X56668800Y-47421800D01*
X44556569Y-53983374D02*
X44578616Y-54046379D01*
X44578616Y-54046379D02*
X44593563Y-54179043D01*
X44754843Y-54381281D02*
X44817848Y-54403328D01*
X44884180Y-54410801D02*
X51219831Y-54410801D01*
X56622000Y-47375000D02*
X56622000Y-46850000D01*
X42936981Y-54269381D02*
X42926000Y-54258400D01*
X42926000Y-54969600D02*
X43078401Y-54817199D01*
X43078401Y-54817199D02*
X51388169Y-54817199D01*
X57122000Y-47375000D02*
X57122000Y-46850000D01*
X51388169Y-54817199D02*
X57075200Y-49130168D01*
X57075200Y-49130168D02*
X57075200Y-47421800D01*
X57075200Y-47421800D02*
X57122000Y-47375000D01*
X50467250Y-43930000D02*
X50038000Y-44359250D01*
X50038000Y-44359250D02*
X50038000Y-45478000D01*
X49911000Y-43930000D02*
X49257800Y-43930000D01*
X49257800Y-43930000D02*
X49027800Y-43700000D01*
X49027800Y-43700000D02*
X47090700Y-43700000D01*
X47090700Y-43700000D02*
X46700000Y-43700000D01*
X52972000Y-44200000D02*
X50737250Y-44200000D01*
X50737250Y-44200000D02*
X50467250Y-43930000D01*
X50467250Y-43930000D02*
X49911000Y-43930000D01*
X48260000Y-42914000D02*
X46726500Y-42914000D01*
X46726500Y-42914000D02*
X46700000Y-42887500D01*
X50292000Y-43180000D02*
X49179200Y-43180000D01*
X49179200Y-43180000D02*
X48913200Y-42914000D01*
X48913200Y-42914000D02*
X48260000Y-42914000D01*
X50812000Y-43700000D02*
X50292000Y-43180000D01*
X52972000Y-43700000D02*
X50812000Y-43700000D01*
D35*
X41148000Y-52874000D02*
X41148000Y-55130700D01*
X41964000Y-52058000D02*
X41148000Y-52874000D01*
X42164000Y-52058000D02*
X41964000Y-52058000D01*
D36*
X24370000Y-45593000D02*
X26388000Y-43575000D01*
X24003000Y-45593000D02*
X24370000Y-45593000D01*
X43646000Y-59944000D02*
X43646000Y-59140000D01*
X43646000Y-59140000D02*
X43180000Y-58674000D01*
X53190278Y-62564094D02*
X53378181Y-62564094D01*
X53378181Y-62564094D02*
X53536918Y-62405357D01*
X53536918Y-62405357D02*
X53330722Y-62903158D01*
X59716435Y-58099989D02*
X59456927Y-57840481D01*
X63777972Y-51218734D02*
X63438908Y-51078289D01*
X54944911Y-61822148D02*
X53536918Y-62405357D01*
X60794066Y-56483543D02*
X59716435Y-57561174D01*
X64154986Y-49312941D02*
X63571776Y-50720933D01*
X59716435Y-57561174D02*
X59716435Y-58099989D01*
X63571776Y-50720933D02*
X63777972Y-51218734D01*
X53190278Y-62564094D02*
X50553634Y-61471960D01*
X59456927Y-57840481D02*
X56603044Y-57840481D01*
X63438908Y-51078289D02*
X60802264Y-52170423D01*
X50535342Y-61464383D02*
X50553634Y-61471960D01*
X56583245Y-57840481D02*
X56603044Y-57840481D01*
X60783972Y-52177999D02*
X60802264Y-52170423D01*
X62903158Y-35569278D02*
X62564094Y-35709722D01*
X61822148Y-33955089D02*
X62405357Y-35363082D01*
X62405357Y-35363082D02*
X62903158Y-35569278D01*
X62564094Y-35709722D02*
X61471960Y-38346366D01*
X61464383Y-38364658D02*
X61471960Y-38346366D01*
X64530000Y-43307000D02*
X62512000Y-45325000D01*
X64897000Y-43307000D02*
X64530000Y-43307000D01*
X64516000Y-42926000D02*
X64897000Y-43307000D01*
X64516000Y-41402000D02*
X64516000Y-42926000D01*
X39587059Y-64154986D02*
X38179067Y-63571776D01*
X32416457Y-60794066D02*
X31338826Y-59716435D01*
X27077852Y-54944911D02*
X26494643Y-53536918D01*
X37681266Y-63777972D02*
X37821711Y-63438908D01*
X30800011Y-59716435D02*
X31059519Y-59456927D01*
X25996842Y-53330722D02*
X26335906Y-53190278D01*
X38179067Y-63571776D02*
X37681266Y-63777972D01*
X31338826Y-59716435D02*
X30800011Y-59716435D01*
X26494643Y-53536918D02*
X25996842Y-53330722D01*
X37821711Y-63438908D02*
X36729577Y-60802264D01*
X31059519Y-59456927D02*
X31059519Y-56603044D01*
X26335906Y-53190278D02*
X27428040Y-50553634D01*
X25461092Y-37821711D02*
X28097736Y-36729577D01*
X25122028Y-37681266D02*
X25461092Y-37821711D01*
X25328224Y-38179067D02*
X25122028Y-37681266D01*
X24745014Y-39587059D02*
X25328224Y-38179067D01*
X24384000Y-45974000D02*
X24003000Y-45593000D01*
X24384000Y-47498000D02*
X24384000Y-45974000D01*
X29443073Y-31059519D02*
X32296956Y-31059519D01*
X35709722Y-26335906D02*
X38346366Y-27428040D01*
X29183565Y-31338826D02*
X29183565Y-30800011D01*
X35363082Y-26494643D02*
X35569278Y-25996842D01*
X28105934Y-32416457D02*
X29183565Y-31338826D01*
X33955089Y-27077852D02*
X35363082Y-26494643D01*
X29183565Y-30800011D02*
X29443073Y-31059519D01*
X35569278Y-25996842D02*
X35709722Y-26335906D01*
X57840481Y-29443073D02*
X57840481Y-32296956D01*
X51078289Y-25461092D02*
X52170423Y-28097736D01*
X56483543Y-28105934D02*
X57561174Y-29183565D01*
X49312941Y-24745014D02*
X50720933Y-25328224D01*
X57561174Y-29183565D02*
X58099989Y-29183565D01*
X50720933Y-25328224D02*
X51218734Y-25122028D01*
X58099989Y-29183565D02*
X57840481Y-29443073D01*
X51218734Y-25122028D02*
X51078289Y-25461092D01*
X43307000Y-24003000D02*
X43307000Y-24370000D01*
X43307000Y-24370000D02*
X45325000Y-26388000D01*
X41402000Y-24384000D02*
X42926000Y-24384000D01*
X42926000Y-24384000D02*
X43307000Y-24003000D01*
D35*
X32004000Y-39612000D02*
X31300000Y-39612000D01*
X31300000Y-39612000D02*
X30480000Y-38792000D01*
X30480000Y-38792000D02*
X30480000Y-37338000D01*
X30480000Y-37338000D02*
X29871577Y-36729577D01*
X29871577Y-36729577D02*
X28097736Y-36729577D01*
X53548122Y-57404000D02*
X53594000Y-57404000D01*
X53594000Y-57404000D02*
X54030482Y-57840482D01*
X52578000Y-57404000D02*
X53548122Y-57404000D01*
X53548122Y-57404000D02*
X54517638Y-56434484D01*
X56603045Y-57840482D02*
X54030482Y-57840482D01*
D38*
X36068000Y-57479000D02*
X36905000Y-57479000D01*
X36905000Y-57479000D02*
X38354000Y-58928000D01*
X36068000Y-57479000D02*
X36068000Y-55613000D01*
X36068000Y-55613000D02*
X35319000Y-54864000D01*
D36*
X52177999Y-28116028D02*
X52170423Y-28097736D01*
X62498000Y-45339000D02*
X62512000Y-45325000D01*
X43646000Y-59944000D02*
X43646000Y-62441000D01*
D38*
X36068000Y-52249000D02*
X32945000Y-52249000D01*
X32945000Y-52249000D02*
X31496000Y-50800000D01*
X32544000Y-43688000D02*
X32544000Y-45704000D01*
X32544000Y-45704000D02*
X31496000Y-46752000D01*
X31496000Y-46752000D02*
X31496000Y-50800000D01*
X36068000Y-52249000D02*
X35231000Y-52249000D01*
X38862000Y-52070000D02*
X36247000Y-52070000D01*
X36247000Y-52070000D02*
X36068000Y-52249000D01*
X35889000Y-52070000D02*
X36068000Y-52249000D01*
D37*
X58325200Y-43200000D02*
X59182000Y-42343200D01*
X59182000Y-42343200D02*
X59182000Y-41021000D01*
X57772000Y-43200000D02*
X58325200Y-43200000D01*
X57772000Y-42700000D02*
X57772000Y-41509994D01*
X57772000Y-41509994D02*
X59182000Y-40099994D01*
X32296956Y-57840481D02*
X33002424Y-58132696D01*
X33002424Y-58132696D02*
X35418886Y-63966552D01*
D35*
X32775667Y-57361770D02*
X32775667Y-56483543D01*
X32296956Y-57840481D02*
X32775667Y-57361770D01*
D37*
X28097736Y-52170423D02*
X28637678Y-52710365D01*
X28637678Y-52710365D02*
X28637678Y-59024885D01*
D35*
X28097736Y-52170423D02*
X28723202Y-51911346D01*
X28723202Y-51911346D02*
X29059285Y-51099970D01*
X26388000Y-45325000D02*
X27065000Y-45325000D01*
X27065000Y-45325000D02*
X27686000Y-44704000D01*
D37*
X26388000Y-45325000D02*
X26680215Y-46030468D01*
X26680215Y-46030468D02*
X24263752Y-51864324D01*
D35*
X28053506Y-38605443D02*
X28864882Y-38269360D01*
X27428040Y-38346366D02*
X28053506Y-38605443D01*
D37*
X27428040Y-38346367D02*
X27428040Y-39109960D01*
X27428040Y-39109960D02*
X22963000Y-43575000D01*
X31059519Y-32296956D02*
X30767304Y-33002424D01*
X30767304Y-33002424D02*
X24933448Y-35418886D01*
X32416457Y-32416457D02*
X32296956Y-32296956D01*
X32296956Y-32296956D02*
X31059519Y-32296956D01*
X36729577Y-28097736D02*
X36189635Y-28637678D01*
X36189635Y-28637678D02*
X29875115Y-28637678D01*
X29875115Y-28637678D02*
X29822082Y-28584645D01*
X37937493Y-28727418D02*
X37872820Y-28571282D01*
X37872820Y-28571282D02*
X36729577Y-28097736D01*
X44450000Y-27432000D02*
X44450000Y-27263000D01*
X44450000Y-27263000D02*
X43575000Y-26388000D01*
X43575000Y-26388000D02*
X42869532Y-26680215D01*
X42869532Y-26680215D02*
X37035676Y-24263752D01*
X37035676Y-24263752D02*
X37006974Y-24194462D01*
X50962507Y-28727418D02*
X51027180Y-28571282D01*
X51027180Y-28571282D02*
X50553634Y-27428040D01*
X50553633Y-27428040D02*
X49790040Y-27428040D01*
X49790040Y-27428040D02*
X45325000Y-22963000D01*
X45325000Y-22963000D02*
X45325000Y-22888000D01*
X53481114Y-24933448D02*
X53509815Y-24864158D01*
X55897576Y-30767304D02*
X53481114Y-24933448D01*
X56603044Y-31059519D02*
X55897576Y-30767304D01*
X60262322Y-29875115D02*
X60315355Y-29822082D01*
X60262322Y-36189635D02*
X60262322Y-29875115D01*
X60802264Y-36729577D02*
X60262322Y-36189635D01*
X62512000Y-43575000D02*
X62512000Y-41628000D01*
X62512000Y-41628000D02*
X64705538Y-39434462D01*
X64705538Y-39434462D02*
X64705538Y-37006975D01*
X65937000Y-45325000D02*
X66012000Y-45325000D01*
X61471960Y-50553633D02*
X61471960Y-49790040D01*
X61471960Y-49790040D02*
X65937000Y-45325000D01*
X57840481Y-56603044D02*
X58132696Y-55897576D01*
X58132696Y-55897576D02*
X63966552Y-53481114D01*
X52170423Y-60802264D02*
X52710365Y-60262322D01*
X52710365Y-60262322D02*
X59024885Y-60262322D01*
D35*
X52328000Y-44700000D02*
X52074000Y-44700000D01*
X52074000Y-44700000D02*
X51562000Y-45212000D01*
D37*
X52972000Y-44700000D02*
X52328000Y-44700000D01*
D35*
X39702000Y-32004000D02*
X43180000Y-32004000D01*
X36868000Y-35542000D02*
X36868000Y-34838000D01*
X36868000Y-34838000D02*
X39702000Y-32004000D01*
D37*
X36868000Y-39642000D02*
X36868000Y-38988800D01*
X36868000Y-38988800D02*
X36868000Y-35542000D01*
X52578000Y-39878000D02*
X52578000Y-32976000D01*
X52578000Y-32976000D02*
X49294000Y-29692000D01*
X49294000Y-29692000D02*
X49294000Y-29642000D01*
X53622000Y-40922000D02*
X52578000Y-39878000D01*
X53622000Y-42050000D02*
X53622000Y-40922000D01*
X45194000Y-29642000D02*
X49294000Y-29642000D01*
X51562000Y-46228000D02*
X52090000Y-45700000D01*
X52090000Y-45700000D02*
X52972000Y-45700000D01*
X51562000Y-47244000D02*
X51562000Y-46228000D01*
X37610000Y-49314000D02*
X40856000Y-49314000D01*
X40856000Y-49314000D02*
X40894000Y-49276000D01*
X33510000Y-49314000D02*
X34163200Y-49314000D01*
X34163200Y-49314000D02*
X34798000Y-48679200D01*
X34798000Y-48679200D02*
X36322000Y-48679200D01*
X37610000Y-49314000D02*
X36956800Y-49314000D01*
X36956800Y-49314000D02*
X36322000Y-48679200D01*
X51308000Y-52578000D02*
X53622000Y-50264000D01*
X53622000Y-50264000D02*
X53622000Y-46850000D01*
X49530000Y-52578000D02*
X51308000Y-52578000D01*
D38*
X38100000Y-45720000D02*
X36544000Y-44164000D01*
X36544000Y-44164000D02*
X36544000Y-43688000D01*
D37*
X54622000Y-46850000D02*
X54622000Y-47994000D01*
X48818810Y-60502810D02*
X48818810Y-63145292D01*
X48818810Y-63145292D02*
X48989255Y-63315737D01*
X55118000Y-32766000D02*
X53848000Y-32766000D01*
X54622000Y-42050000D02*
X54622000Y-41347250D01*
X54622000Y-41347250D02*
X53594000Y-40319250D01*
X53594000Y-40319250D02*
X53594000Y-33469012D01*
X53594000Y-33469012D02*
X53594000Y-33020000D01*
X53848000Y-31750000D02*
X53848000Y-32766000D01*
X53848000Y-32766000D02*
X53594000Y-33020000D01*
X50038000Y-65786000D02*
X50038000Y-65175518D01*
X50038000Y-65175518D02*
X49562745Y-64700263D01*
X47226000Y-36614000D02*
X48984000Y-36614000D01*
X48984000Y-36614000D02*
X49784000Y-35814000D01*
X51326000Y-36614000D02*
X50672800Y-36614000D01*
X50672800Y-36614000D02*
X47226000Y-36614000D01*
X49542000Y-39878000D02*
X49088800Y-39878000D01*
X49088800Y-39878000D02*
X47226000Y-38015200D01*
X47226000Y-38015200D02*
X47226000Y-37317200D01*
X47226000Y-37317200D02*
X47226000Y-36614000D01*
X57122000Y-37981000D02*
X57257000Y-37846000D01*
X57108000Y-35687000D02*
X57108000Y-37697000D01*
X57108000Y-37697000D02*
X57257000Y-37846000D01*
X57122000Y-42050000D02*
X57122000Y-37981000D01*
X54757000Y-37846000D02*
X54757000Y-38246000D01*
X54757000Y-38246000D02*
X56622000Y-40111000D01*
X54864000Y-35687000D02*
X54864000Y-37739000D01*
X54864000Y-37739000D02*
X54757000Y-37846000D01*
X56622000Y-40111000D02*
X56622000Y-41496800D01*
X56622000Y-41496800D02*
X56622000Y-42050000D01*
X51042000Y-39878000D02*
X51042000Y-39678000D01*
X51042000Y-39678000D02*
X50250000Y-38886000D01*
X50250000Y-38886000D02*
X50250000Y-38807200D01*
X50250000Y-38807200D02*
X50250000Y-38354000D01*
X51042000Y-39878000D02*
X50588800Y-39878000D01*
X50588800Y-39878000D02*
X49910199Y-40556601D01*
X49910199Y-40556601D02*
X48109801Y-40556601D01*
X48109801Y-40556601D02*
X47431200Y-39878000D01*
X47431200Y-39878000D02*
X46978000Y-39878000D01*
X52070000Y-40132000D02*
X51296000Y-40132000D01*
X51296000Y-40132000D02*
X51042000Y-39878000D01*
X58325200Y-45700000D02*
X58547000Y-45921800D01*
X57772000Y-45700000D02*
X58325200Y-45700000D01*
X58547000Y-45921800D02*
X58547000Y-46990000D01*
X44450000Y-34840000D02*
X44450000Y-37104000D01*
X44450000Y-37104000D02*
X44684000Y-37338000D01*
X44684000Y-38628000D02*
X44684000Y-37338000D01*
X43700000Y-42887500D02*
X43700000Y-39612000D01*
X43700000Y-39612000D02*
X44684000Y-38628000D01*
X42418000Y-34840000D02*
X42418000Y-37104000D01*
X42418000Y-37104000D02*
X42184000Y-37338000D01*
X43200000Y-39644000D02*
X42184000Y-38628000D01*
X42184000Y-38628000D02*
X42184000Y-37338000D01*
X43200000Y-42887500D02*
X43200000Y-39644000D01*
X43700000Y-46012500D02*
X43700000Y-47456000D01*
D35*
X59436000Y-44704000D02*
X60440000Y-44704000D01*
X60440000Y-44704000D02*
X60452000Y-44716000D01*
X58666000Y-44196000D02*
X58928000Y-44196000D01*
X58928000Y-44196000D02*
X59436000Y-44704000D01*
X58420000Y-44196000D02*
X58666000Y-44196000D01*
D37*
X57920000Y-44196000D02*
X58420000Y-44196000D01*
X57772000Y-44200000D02*
X57916000Y-44200000D01*
X57916000Y-44200000D02*
X57920000Y-44196000D01*
X57772000Y-44200000D02*
X57997000Y-44200000D01*
X57997000Y-44200000D02*
X58001000Y-44196000D01*
X50866800Y-49530000D02*
X49263300Y-49530000D01*
X51320000Y-49530000D02*
X50866800Y-49530000D01*
X52820000Y-49530000D02*
X52820000Y-46352000D01*
X52820000Y-46352000D02*
X52972000Y-46200000D01*
X55401521Y-54207098D02*
X55520902Y-54207098D01*
X55520902Y-54207098D02*
X56642000Y-53086000D01*
X56134000Y-46990000D02*
X56134000Y-48260000D01*
X56134000Y-48260000D02*
X54864000Y-49530000D01*
X56122000Y-46850000D02*
X56122000Y-46978000D01*
X56122000Y-46978000D02*
X56134000Y-46990000D01*
D35*
X32004000Y-38112000D02*
X32004000Y-36309300D01*
G36*
X44327235Y-43723157D02*
X44398603Y-43737353D01*
X44421250Y-43760000D01*
X44451309Y-43760000D01*
X44471147Y-43751783D01*
X44575000Y-43772440D01*
X44825000Y-43772440D01*
X44950000Y-43747576D01*
X45075000Y-43772440D01*
X45325000Y-43772440D01*
X45450000Y-43747576D01*
X45575000Y-43772440D01*
X45825000Y-43772440D01*
X45865060Y-43764472D01*
X45865060Y-43825000D01*
X45885717Y-43928852D01*
X45877500Y-43948690D01*
X45877500Y-43978750D01*
X45900147Y-44001397D01*
X45914343Y-44072765D01*
X45995400Y-44194074D01*
X45974173Y-44215301D01*
X45896903Y-44401847D01*
X45877500Y-44421250D01*
X45877500Y-44478750D01*
X45896903Y-44498153D01*
X45974173Y-44684699D01*
X45989474Y-44700000D01*
X45974173Y-44715301D01*
X45896903Y-44901847D01*
X45877500Y-44921250D01*
X45877500Y-44978750D01*
X45896903Y-44998153D01*
X45927905Y-45072998D01*
X45877500Y-45072998D01*
X45877500Y-45138003D01*
X45825000Y-45127560D01*
X45575000Y-45127560D01*
X45450000Y-45152424D01*
X45325000Y-45127560D01*
X45075000Y-45127560D01*
X44950000Y-45152424D01*
X44825000Y-45127560D01*
X44575000Y-45127560D01*
X44450000Y-45152424D01*
X44325000Y-45127560D01*
X44075000Y-45127560D01*
X43950000Y-45152424D01*
X43825000Y-45127560D01*
X43575000Y-45127560D01*
X43450000Y-45152424D01*
X43325000Y-45127560D01*
X43075000Y-45127560D01*
X43022500Y-45138003D01*
X43022500Y-45072998D01*
X42985501Y-45072998D01*
X42985657Y-45072765D01*
X42999853Y-45001397D01*
X43022500Y-44978750D01*
X43022500Y-44948690D01*
X43014283Y-44928852D01*
X43034940Y-44825000D01*
X43034940Y-44575000D01*
X43010076Y-44450000D01*
X43034940Y-44325000D01*
X43034940Y-44075000D01*
X43014283Y-43971148D01*
X43022500Y-43951310D01*
X43022500Y-43921250D01*
X42999853Y-43898603D01*
X42985657Y-43827235D01*
X42985501Y-43827002D01*
X43022500Y-43827002D01*
X43022500Y-43761997D01*
X43075000Y-43772440D01*
X43325000Y-43772440D01*
X43450000Y-43747576D01*
X43575000Y-43772440D01*
X43825000Y-43772440D01*
X43928853Y-43751783D01*
X43948691Y-43760000D01*
X43978750Y-43760000D01*
X44001397Y-43737353D01*
X44072765Y-43723157D01*
X44200000Y-43638141D01*
X44327235Y-43723157D01*
X44327235Y-43723157D01*
G37*
X44327235Y-43723157D02*
X44398603Y-43737353D01*
X44421250Y-43760000D01*
X44451309Y-43760000D01*
X44471147Y-43751783D01*
X44575000Y-43772440D01*
X44825000Y-43772440D01*
X44950000Y-43747576D01*
X45075000Y-43772440D01*
X45325000Y-43772440D01*
X45450000Y-43747576D01*
X45575000Y-43772440D01*
X45825000Y-43772440D01*
X45865060Y-43764472D01*
X45865060Y-43825000D01*
X45885717Y-43928852D01*
X45877500Y-43948690D01*
X45877500Y-43978750D01*
X45900147Y-44001397D01*
X45914343Y-44072765D01*
X45995400Y-44194074D01*
X45974173Y-44215301D01*
X45896903Y-44401847D01*
X45877500Y-44421250D01*
X45877500Y-44478750D01*
X45896903Y-44498153D01*
X45974173Y-44684699D01*
X45989474Y-44700000D01*
X45974173Y-44715301D01*
X45896903Y-44901847D01*
X45877500Y-44921250D01*
X45877500Y-44978750D01*
X45896903Y-44998153D01*
X45927905Y-45072998D01*
X45877500Y-45072998D01*
X45877500Y-45138003D01*
X45825000Y-45127560D01*
X45575000Y-45127560D01*
X45450000Y-45152424D01*
X45325000Y-45127560D01*
X45075000Y-45127560D01*
X44950000Y-45152424D01*
X44825000Y-45127560D01*
X44575000Y-45127560D01*
X44450000Y-45152424D01*
X44325000Y-45127560D01*
X44075000Y-45127560D01*
X43950000Y-45152424D01*
X43825000Y-45127560D01*
X43575000Y-45127560D01*
X43450000Y-45152424D01*
X43325000Y-45127560D01*
X43075000Y-45127560D01*
X43022500Y-45138003D01*
X43022500Y-45072998D01*
X42985501Y-45072998D01*
X42985657Y-45072765D01*
X42999853Y-45001397D01*
X43022500Y-44978750D01*
X43022500Y-44948690D01*
X43014283Y-44928852D01*
X43034940Y-44825000D01*
X43034940Y-44575000D01*
X43010076Y-44450000D01*
X43034940Y-44325000D01*
X43034940Y-44075000D01*
X43014283Y-43971148D01*
X43022500Y-43951310D01*
X43022500Y-43921250D01*
X42999853Y-43898603D01*
X42985657Y-43827235D01*
X42985501Y-43827002D01*
X43022500Y-43827002D01*
X43022500Y-43761997D01*
X43075000Y-43772440D01*
X43325000Y-43772440D01*
X43450000Y-43747576D01*
X43575000Y-43772440D01*
X43825000Y-43772440D01*
X43928853Y-43751783D01*
X43948691Y-43760000D01*
X43978750Y-43760000D01*
X44001397Y-43737353D01*
X44072765Y-43723157D01*
X44200000Y-43638141D01*
X44327235Y-43723157D01*
M02*
