G04 #@! TF.FileFunction,Copper,L2,Inr,Plane*
%FSLAX46Y46*%
G04 Gerber Fmt 4.6, Leading zero omitted, Abs format (unit mm)*
G04 Created by KiCad (PCBNEW 201609251018+7233~55~ubuntu16.04.1-) date Mon Sep 26 22:51:00 2016*
%MOMM*%
%LPD*%
G01*
G04 APERTURE LIST*
%ADD10C,0.100000*%
%ADD11O,1.250000X0.950000*%
%ADD12C,1.550000*%
%ADD13C,0.635000*%
%ADD14C,0.762000*%
%ADD15C,0.508000*%
%ADD16C,0.254000*%
G04 APERTURE END LIST*
D10*
D11*
X46950000Y-65747460D03*
X41950000Y-65747460D03*
D12*
X47950000Y-68447460D03*
X40950000Y-68447460D03*
D13*
X58208000Y-34248000D03*
D14*
X55003557Y-58420000D03*
D13*
X54068073Y-23552987D03*
X61332882Y-28824354D03*
X66027424Y-36474585D03*
X67437000Y-45339000D03*
X65347013Y-54068073D03*
X60075646Y-61332882D03*
X52425415Y-66027424D03*
X43561000Y-67437000D03*
X34831927Y-65347013D03*
X27567118Y-60075646D03*
X22872576Y-52425415D03*
X21463000Y-43561000D03*
X23552987Y-34831927D03*
X28824354Y-27567118D03*
X36474585Y-22872576D03*
X45339000Y-21463000D03*
X49800000Y-42148000D03*
X58928000Y-45212000D03*
X60706000Y-40894000D03*
X46228000Y-48514000D03*
D14*
X34798000Y-46990000D03*
D13*
X45720000Y-33782000D03*
D14*
X35814000Y-31242000D03*
D13*
X40725000Y-42291000D03*
D14*
X44200000Y-44454000D03*
X40386000Y-58674000D03*
D13*
X50292000Y-41148000D03*
X59182000Y-43434000D03*
X48768000Y-46990000D03*
X41402000Y-39624000D03*
X38227000Y-44323000D03*
X55372000Y-44450000D03*
X41402000Y-48260000D03*
X38862000Y-63881000D03*
X42545000Y-68199000D03*
D15*
X42926000Y-54258400D03*
X42926000Y-54969600D03*
D14*
X27357000Y-54939000D03*
X33095000Y-54939000D03*
D13*
X41021000Y-60960000D03*
X52324000Y-57150000D03*
X40386000Y-37084000D03*
X52190750Y-22775374D03*
X59896041Y-27387513D03*
X65249812Y-34597262D03*
X67437000Y-43307000D03*
X66124626Y-52190750D03*
X61512487Y-59896041D03*
X54302738Y-65249812D03*
X36709250Y-66124626D03*
X29003959Y-61512487D03*
X23650188Y-54302738D03*
X21463000Y-45593000D03*
X22775374Y-36709250D03*
X27387513Y-29003959D03*
X34597262Y-23650188D03*
X43307000Y-21463000D03*
D14*
X35814000Y-49530000D03*
X30226000Y-51689000D03*
X27460000Y-49709000D03*
D13*
X59182000Y-41021000D03*
X59182000Y-40099994D03*
X30620406Y-58279594D03*
X26380764Y-51934523D03*
X24892000Y-44450000D03*
X26380764Y-36965477D03*
X30620406Y-30620406D03*
X36965477Y-26380764D03*
X44450000Y-24892000D03*
X51934523Y-26380764D03*
D15*
X40767000Y-32639000D03*
D13*
X51562000Y-45212000D03*
X51562000Y-47244000D03*
X40894000Y-49276000D03*
D14*
X51816000Y-51054000D03*
X38100000Y-45720000D03*
D13*
X49276000Y-65024000D03*
X54622000Y-47994000D03*
X55118000Y-32766000D03*
X51562000Y-65278000D03*
X49784000Y-35814000D03*
D15*
X52070000Y-40132000D03*
X58547000Y-46990000D03*
D13*
X56388000Y-51562000D03*
D15*
X54864000Y-49530000D03*
D16*
G36*
X49414614Y-20264287D02*
X54017760Y-21689199D01*
X58256473Y-23981062D01*
X61969301Y-27052581D01*
X65014825Y-30786763D01*
X67277042Y-35041372D01*
X68669783Y-39654354D01*
X69140000Y-44450000D01*
X69130374Y-45139385D01*
X68526438Y-49920032D01*
X67005437Y-54492328D01*
X64625308Y-58682114D01*
X61476707Y-62329803D01*
X57679564Y-65296456D01*
X53378511Y-67469075D01*
X49356109Y-68592149D01*
X49360060Y-68309202D01*
X49306351Y-68037953D01*
X49200980Y-67782302D01*
X49047958Y-67551987D01*
X48853116Y-67355780D01*
X48623875Y-67201155D01*
X48368966Y-67094001D01*
X48098098Y-67038399D01*
X47821590Y-67036469D01*
X47549972Y-67088283D01*
X47293592Y-67191867D01*
X47062214Y-67343277D01*
X46864651Y-67536744D01*
X46708429Y-67764901D01*
X46599498Y-68019056D01*
X46542008Y-68289528D01*
X46538147Y-68566017D01*
X46588063Y-68837989D01*
X46623525Y-68927555D01*
X43932932Y-69134585D01*
X43019995Y-69025724D01*
X43134255Y-68953212D01*
X43269527Y-68824395D01*
X43377201Y-68671756D01*
X43453178Y-68501111D01*
X43494562Y-68318958D01*
X43497541Y-68105603D01*
X43461259Y-67922365D01*
X43390077Y-67749665D01*
X43286706Y-67594079D01*
X43155084Y-67461535D01*
X43000224Y-67357080D01*
X42828025Y-67284694D01*
X42645045Y-67247134D01*
X42458255Y-67245830D01*
X42274768Y-67280832D01*
X42101575Y-67350807D01*
X41947985Y-67451314D01*
X41853116Y-67355780D01*
X41623875Y-67201155D01*
X41368966Y-67094001D01*
X41098098Y-67038399D01*
X40821590Y-67036469D01*
X40549972Y-67088283D01*
X40293592Y-67191867D01*
X40062214Y-67343277D01*
X39864651Y-67536744D01*
X39708429Y-67764901D01*
X39599498Y-68019056D01*
X39542008Y-68289528D01*
X39538147Y-68566017D01*
X39546501Y-68611535D01*
X39148185Y-68564039D01*
X34565382Y-67074996D01*
X33008198Y-66204715D01*
X35755498Y-66204715D01*
X35789218Y-66388441D01*
X35857982Y-66562119D01*
X35959170Y-66719132D01*
X36088929Y-66853501D01*
X36242315Y-66960108D01*
X36413487Y-67034891D01*
X36595924Y-67075002D01*
X36782678Y-67078914D01*
X36966636Y-67046478D01*
X37140789Y-66978928D01*
X37298505Y-66878838D01*
X37433777Y-66750021D01*
X37541451Y-66597382D01*
X37617428Y-66426737D01*
X37658812Y-66244584D01*
X37661791Y-66031229D01*
X37625509Y-65847991D01*
X37580880Y-65739711D01*
X40683930Y-65739711D01*
X40703564Y-65955453D01*
X40764729Y-66163273D01*
X40865095Y-66355255D01*
X41000838Y-66524086D01*
X41166790Y-66663336D01*
X41356627Y-66767700D01*
X41563121Y-66833204D01*
X41778405Y-66857352D01*
X41793903Y-66857460D01*
X42106097Y-66857460D01*
X42321697Y-66836320D01*
X42529085Y-66773706D01*
X42720362Y-66672003D01*
X42888241Y-66535084D01*
X43026329Y-66368164D01*
X43129365Y-66177602D01*
X43193426Y-65970656D01*
X43216070Y-65755209D01*
X43214660Y-65739711D01*
X45683930Y-65739711D01*
X45703564Y-65955453D01*
X45764729Y-66163273D01*
X45865095Y-66355255D01*
X46000838Y-66524086D01*
X46166790Y-66663336D01*
X46356627Y-66767700D01*
X46563121Y-66833204D01*
X46778405Y-66857352D01*
X46793903Y-66857460D01*
X47106097Y-66857460D01*
X47321697Y-66836320D01*
X47529085Y-66773706D01*
X47720362Y-66672003D01*
X47888241Y-66535084D01*
X48026329Y-66368164D01*
X48129365Y-66177602D01*
X48193426Y-65970656D01*
X48216070Y-65755209D01*
X48196436Y-65539467D01*
X48135271Y-65331647D01*
X48034905Y-65139665D01*
X48006302Y-65104089D01*
X48322248Y-65104089D01*
X48355968Y-65287815D01*
X48424732Y-65461493D01*
X48525920Y-65618506D01*
X48655679Y-65752875D01*
X48809065Y-65859482D01*
X48980237Y-65934265D01*
X49162674Y-65974376D01*
X49349428Y-65978288D01*
X49533386Y-65945852D01*
X49707539Y-65878302D01*
X49865255Y-65778212D01*
X50000527Y-65649395D01*
X50108201Y-65496756D01*
X50169940Y-65358089D01*
X50608248Y-65358089D01*
X50641968Y-65541815D01*
X50710732Y-65715493D01*
X50811920Y-65872506D01*
X50941679Y-66006875D01*
X51095065Y-66113482D01*
X51266237Y-66188265D01*
X51448674Y-66228376D01*
X51635428Y-66232288D01*
X51819386Y-66199852D01*
X51993539Y-66132302D01*
X52151255Y-66032212D01*
X52286527Y-65903395D01*
X52394201Y-65750756D01*
X52470178Y-65580111D01*
X52511562Y-65397958D01*
X52512512Y-65329901D01*
X53348986Y-65329901D01*
X53382706Y-65513627D01*
X53451470Y-65687305D01*
X53552658Y-65844318D01*
X53682417Y-65978687D01*
X53835803Y-66085294D01*
X54006975Y-66160077D01*
X54189412Y-66200188D01*
X54376166Y-66204100D01*
X54560124Y-66171664D01*
X54734277Y-66104114D01*
X54891993Y-66004024D01*
X55027265Y-65875207D01*
X55134939Y-65722568D01*
X55210916Y-65551923D01*
X55252300Y-65369770D01*
X55255279Y-65156415D01*
X55218997Y-64973177D01*
X55147815Y-64800477D01*
X55044444Y-64644891D01*
X54912822Y-64512347D01*
X54757962Y-64407892D01*
X54585763Y-64335506D01*
X54402783Y-64297946D01*
X54215993Y-64296642D01*
X54032506Y-64331644D01*
X53859313Y-64401619D01*
X53703010Y-64503901D01*
X53569550Y-64634594D01*
X53464017Y-64788721D01*
X53390431Y-64960411D01*
X53351594Y-65143124D01*
X53348986Y-65329901D01*
X52512512Y-65329901D01*
X52514541Y-65184603D01*
X52478259Y-65001365D01*
X52407077Y-64828665D01*
X52303706Y-64673079D01*
X52172084Y-64540535D01*
X52017224Y-64436080D01*
X51845025Y-64363694D01*
X51662045Y-64326134D01*
X51475255Y-64324830D01*
X51291768Y-64359832D01*
X51118575Y-64429807D01*
X50962272Y-64532089D01*
X50828812Y-64662782D01*
X50723279Y-64816909D01*
X50649693Y-64988599D01*
X50610856Y-65171312D01*
X50608248Y-65358089D01*
X50169940Y-65358089D01*
X50184178Y-65326111D01*
X50225562Y-65143958D01*
X50228541Y-64930603D01*
X50192259Y-64747365D01*
X50121077Y-64574665D01*
X50017706Y-64419079D01*
X49886084Y-64286535D01*
X49731224Y-64182080D01*
X49559025Y-64109694D01*
X49376045Y-64072134D01*
X49189255Y-64070830D01*
X49005768Y-64105832D01*
X48832575Y-64175807D01*
X48676272Y-64278089D01*
X48542812Y-64408782D01*
X48437279Y-64562909D01*
X48363693Y-64734599D01*
X48324856Y-64917312D01*
X48322248Y-65104089D01*
X48006302Y-65104089D01*
X47899162Y-64970834D01*
X47733210Y-64831584D01*
X47543373Y-64727220D01*
X47336879Y-64661716D01*
X47121595Y-64637568D01*
X47106097Y-64637460D01*
X46793903Y-64637460D01*
X46578303Y-64658600D01*
X46370915Y-64721214D01*
X46179638Y-64822917D01*
X46011759Y-64959836D01*
X45873671Y-65126756D01*
X45770635Y-65317318D01*
X45706574Y-65524264D01*
X45683930Y-65739711D01*
X43214660Y-65739711D01*
X43196436Y-65539467D01*
X43135271Y-65331647D01*
X43034905Y-65139665D01*
X42899162Y-64970834D01*
X42733210Y-64831584D01*
X42543373Y-64727220D01*
X42336879Y-64661716D01*
X42121595Y-64637568D01*
X42106097Y-64637460D01*
X41793903Y-64637460D01*
X41578303Y-64658600D01*
X41370915Y-64721214D01*
X41179638Y-64822917D01*
X41011759Y-64959836D01*
X40873671Y-65126756D01*
X40770635Y-65317318D01*
X40706574Y-65524264D01*
X40683930Y-65739711D01*
X37580880Y-65739711D01*
X37554327Y-65675291D01*
X37450956Y-65519705D01*
X37319334Y-65387161D01*
X37164474Y-65282706D01*
X36992275Y-65210320D01*
X36809295Y-65172760D01*
X36622505Y-65171456D01*
X36439018Y-65206458D01*
X36265825Y-65276433D01*
X36109522Y-65378715D01*
X35976062Y-65509408D01*
X35870529Y-65663535D01*
X35796943Y-65835225D01*
X35758106Y-66017938D01*
X35755498Y-66204715D01*
X33008198Y-66204715D01*
X30359082Y-64724174D01*
X29462461Y-63961089D01*
X37908248Y-63961089D01*
X37941968Y-64144815D01*
X38010732Y-64318493D01*
X38111920Y-64475506D01*
X38241679Y-64609875D01*
X38395065Y-64716482D01*
X38566237Y-64791265D01*
X38748674Y-64831376D01*
X38935428Y-64835288D01*
X39119386Y-64802852D01*
X39293539Y-64735302D01*
X39451255Y-64635212D01*
X39586527Y-64506395D01*
X39694201Y-64353756D01*
X39770178Y-64183111D01*
X39811562Y-64000958D01*
X39814541Y-63787603D01*
X39778259Y-63604365D01*
X39707077Y-63431665D01*
X39603706Y-63276079D01*
X39472084Y-63143535D01*
X39317224Y-63039080D01*
X39145025Y-62966694D01*
X38962045Y-62929134D01*
X38775255Y-62927830D01*
X38591768Y-62962832D01*
X38418575Y-63032807D01*
X38262272Y-63135089D01*
X38128812Y-63265782D01*
X38023279Y-63419909D01*
X37949693Y-63591599D01*
X37910856Y-63774312D01*
X37908248Y-63961089D01*
X29462461Y-63961089D01*
X26689500Y-61601115D01*
X26682733Y-61592576D01*
X28050207Y-61592576D01*
X28083927Y-61776302D01*
X28152691Y-61949980D01*
X28253879Y-62106993D01*
X28383638Y-62241362D01*
X28537024Y-62347969D01*
X28708196Y-62422752D01*
X28890633Y-62462863D01*
X29077387Y-62466775D01*
X29261345Y-62434339D01*
X29435498Y-62366789D01*
X29593214Y-62266699D01*
X29728486Y-62137882D01*
X29836160Y-61985243D01*
X29912137Y-61814598D01*
X29953521Y-61632445D01*
X29956500Y-61419090D01*
X29920218Y-61235852D01*
X29849036Y-61063152D01*
X29833713Y-61040089D01*
X40067248Y-61040089D01*
X40100968Y-61223815D01*
X40169732Y-61397493D01*
X40270920Y-61554506D01*
X40400679Y-61688875D01*
X40554065Y-61795482D01*
X40725237Y-61870265D01*
X40907674Y-61910376D01*
X41094428Y-61914288D01*
X41278386Y-61881852D01*
X41452539Y-61814302D01*
X41610255Y-61714212D01*
X41745527Y-61585395D01*
X41853201Y-61432756D01*
X41929178Y-61262111D01*
X41970562Y-61079958D01*
X41973541Y-60866603D01*
X41937259Y-60683365D01*
X41866077Y-60510665D01*
X41762706Y-60355079D01*
X41631084Y-60222535D01*
X41476224Y-60118080D01*
X41304025Y-60045694D01*
X41121045Y-60008134D01*
X40934255Y-60006830D01*
X40750768Y-60041832D01*
X40577575Y-60111807D01*
X40421272Y-60214089D01*
X40287812Y-60344782D01*
X40182279Y-60498909D01*
X40108693Y-60670599D01*
X40069856Y-60853312D01*
X40067248Y-61040089D01*
X29833713Y-61040089D01*
X29745665Y-60907566D01*
X29614043Y-60775022D01*
X29459183Y-60670567D01*
X29286984Y-60598181D01*
X29104004Y-60560621D01*
X28917214Y-60559317D01*
X28733727Y-60594319D01*
X28560534Y-60664294D01*
X28404231Y-60766576D01*
X28270771Y-60897269D01*
X28165238Y-61051396D01*
X28091652Y-61223086D01*
X28052815Y-61405799D01*
X28050207Y-61592576D01*
X26682733Y-61592576D01*
X25401554Y-59976130D01*
X60558735Y-59976130D01*
X60592455Y-60159856D01*
X60661219Y-60333534D01*
X60762407Y-60490547D01*
X60892166Y-60624916D01*
X61045552Y-60731523D01*
X61216724Y-60806306D01*
X61399161Y-60846417D01*
X61585915Y-60850329D01*
X61769873Y-60817893D01*
X61944026Y-60750343D01*
X62101742Y-60650253D01*
X62237014Y-60521436D01*
X62344688Y-60368797D01*
X62420665Y-60198152D01*
X62462049Y-60015999D01*
X62465028Y-59802644D01*
X62428746Y-59619406D01*
X62357564Y-59446706D01*
X62254193Y-59291120D01*
X62122571Y-59158576D01*
X61967711Y-59054121D01*
X61795512Y-58981735D01*
X61612532Y-58944175D01*
X61425742Y-58942871D01*
X61242255Y-58977873D01*
X61069062Y-59047848D01*
X60912759Y-59150130D01*
X60779299Y-59280823D01*
X60673766Y-59434950D01*
X60600180Y-59606640D01*
X60561343Y-59789353D01*
X60558735Y-59976130D01*
X25401554Y-59976130D01*
X24120374Y-58359683D01*
X29666654Y-58359683D01*
X29700374Y-58543409D01*
X29769138Y-58717087D01*
X29870326Y-58874100D01*
X30000085Y-59008469D01*
X30153471Y-59115076D01*
X30324643Y-59189859D01*
X30507080Y-59229970D01*
X30693834Y-59233882D01*
X30877792Y-59201446D01*
X31051945Y-59133896D01*
X31209661Y-59033806D01*
X31344933Y-58904989D01*
X31452607Y-58752350D01*
X31528584Y-58581705D01*
X31569968Y-58399552D01*
X31572947Y-58186197D01*
X31536665Y-58002959D01*
X31465483Y-57830259D01*
X31362112Y-57674673D01*
X31230490Y-57542129D01*
X31075630Y-57437674D01*
X30903431Y-57365288D01*
X30720451Y-57327728D01*
X30533661Y-57326424D01*
X30350174Y-57361426D01*
X30176981Y-57431401D01*
X30020678Y-57533683D01*
X29887218Y-57664376D01*
X29781685Y-57818503D01*
X29708099Y-57990193D01*
X29669262Y-58172906D01*
X29666654Y-58359683D01*
X24120374Y-58359683D01*
X23696411Y-57824776D01*
X23390784Y-57230089D01*
X51370248Y-57230089D01*
X51403968Y-57413815D01*
X51472732Y-57587493D01*
X51573920Y-57744506D01*
X51703679Y-57878875D01*
X51857065Y-57985482D01*
X52028237Y-58060265D01*
X52210674Y-58100376D01*
X52397428Y-58104288D01*
X52581386Y-58071852D01*
X52755539Y-58004302D01*
X52913255Y-57904212D01*
X53048527Y-57775395D01*
X53156201Y-57622756D01*
X53232178Y-57452111D01*
X53273562Y-57269958D01*
X53276541Y-57056603D01*
X53240259Y-56873365D01*
X53169077Y-56700665D01*
X53065706Y-56545079D01*
X52934084Y-56412535D01*
X52779224Y-56308080D01*
X52607025Y-56235694D01*
X52424045Y-56198134D01*
X52237255Y-56196830D01*
X52053768Y-56231832D01*
X51880575Y-56301807D01*
X51724272Y-56404089D01*
X51590812Y-56534782D01*
X51485279Y-56688909D01*
X51411693Y-56860599D01*
X51372856Y-57043312D01*
X51370248Y-57230089D01*
X23390784Y-57230089D01*
X21927490Y-54382827D01*
X22696436Y-54382827D01*
X22730156Y-54566553D01*
X22798920Y-54740231D01*
X22900108Y-54897244D01*
X23029867Y-55031613D01*
X23183253Y-55138220D01*
X23354425Y-55213003D01*
X23536862Y-55253114D01*
X23723616Y-55257026D01*
X23907574Y-55224590D01*
X24081727Y-55157040D01*
X24239443Y-55056950D01*
X24273594Y-55024428D01*
X26339664Y-55024428D01*
X26375633Y-55220403D01*
X26448981Y-55405659D01*
X26556915Y-55573140D01*
X26695324Y-55716467D01*
X26858936Y-55830180D01*
X27041520Y-55909949D01*
X27236119Y-55952734D01*
X27435324Y-55956907D01*
X27631545Y-55922308D01*
X27817308Y-55850255D01*
X27985539Y-55743493D01*
X28129828Y-55606088D01*
X28244681Y-55443273D01*
X28325723Y-55261251D01*
X28369866Y-55066955D01*
X28370459Y-55024428D01*
X32077664Y-55024428D01*
X32113633Y-55220403D01*
X32186981Y-55405659D01*
X32294915Y-55573140D01*
X32433324Y-55716467D01*
X32596936Y-55830180D01*
X32779520Y-55909949D01*
X32974119Y-55952734D01*
X33173324Y-55956907D01*
X33369545Y-55922308D01*
X33555308Y-55850255D01*
X33723539Y-55743493D01*
X33867828Y-55606088D01*
X33982681Y-55443273D01*
X34063723Y-55261251D01*
X34107866Y-55066955D01*
X34111044Y-54839376D01*
X34072343Y-54643923D01*
X33996415Y-54459709D01*
X33912330Y-54333150D01*
X42035832Y-54333150D01*
X42067304Y-54504627D01*
X42110871Y-54614665D01*
X42074514Y-54699493D01*
X42038266Y-54870025D01*
X42035832Y-55044350D01*
X42067304Y-55215827D01*
X42131483Y-55377926D01*
X42225926Y-55524472D01*
X42347034Y-55649883D01*
X42490194Y-55749382D01*
X42649955Y-55819180D01*
X42820230Y-55856617D01*
X42994533Y-55860268D01*
X43166226Y-55829994D01*
X43328769Y-55766948D01*
X43475971Y-55673531D01*
X43602224Y-55553301D01*
X43702721Y-55410839D01*
X43773632Y-55251570D01*
X43812257Y-55081560D01*
X43815038Y-54882429D01*
X43781174Y-54711408D01*
X43740941Y-54613795D01*
X43773632Y-54540370D01*
X43812257Y-54370360D01*
X43815038Y-54171229D01*
X43781174Y-54000208D01*
X43714738Y-53839021D01*
X43618259Y-53693808D01*
X43495411Y-53570100D01*
X43350876Y-53472609D01*
X43190156Y-53405049D01*
X43019375Y-53369993D01*
X42845038Y-53368775D01*
X42673784Y-53401444D01*
X42512137Y-53466753D01*
X42366254Y-53562217D01*
X42241692Y-53684197D01*
X42143194Y-53828049D01*
X42074514Y-53988293D01*
X42038266Y-54158825D01*
X42035832Y-54333150D01*
X33912330Y-54333150D01*
X33886153Y-54293751D01*
X33745756Y-54152371D01*
X33580572Y-54040953D01*
X33396893Y-53963741D01*
X33201715Y-53923677D01*
X33002472Y-53922286D01*
X32806753Y-53959621D01*
X32622014Y-54034261D01*
X32455290Y-54143361D01*
X32312933Y-54282768D01*
X32200364Y-54447170D01*
X32121872Y-54630306D01*
X32080446Y-54825200D01*
X32077664Y-55024428D01*
X28370459Y-55024428D01*
X28373044Y-54839376D01*
X28334343Y-54643923D01*
X28258415Y-54459709D01*
X28148153Y-54293751D01*
X28007756Y-54152371D01*
X27842572Y-54040953D01*
X27658893Y-53963741D01*
X27463715Y-53923677D01*
X27264472Y-53922286D01*
X27068753Y-53959621D01*
X26884014Y-54034261D01*
X26717290Y-54143361D01*
X26574933Y-54282768D01*
X26462364Y-54447170D01*
X26383872Y-54630306D01*
X26342446Y-54825200D01*
X26339664Y-55024428D01*
X24273594Y-55024428D01*
X24374715Y-54928133D01*
X24482389Y-54775494D01*
X24558366Y-54604849D01*
X24599750Y-54422696D01*
X24602729Y-54209341D01*
X24566447Y-54026103D01*
X24495265Y-53853403D01*
X24391894Y-53697817D01*
X24260272Y-53565273D01*
X24105412Y-53460818D01*
X23933213Y-53388432D01*
X23750233Y-53350872D01*
X23563443Y-53349568D01*
X23379956Y-53384570D01*
X23206763Y-53454545D01*
X23050460Y-53556827D01*
X22917000Y-53687520D01*
X22811467Y-53841647D01*
X22737881Y-54013337D01*
X22699044Y-54196050D01*
X22696436Y-54382827D01*
X21927490Y-54382827D01*
X21493819Y-53538995D01*
X21056709Y-52014612D01*
X25427012Y-52014612D01*
X25460732Y-52198338D01*
X25529496Y-52372016D01*
X25630684Y-52529029D01*
X25760443Y-52663398D01*
X25913829Y-52770005D01*
X26085001Y-52844788D01*
X26267438Y-52884899D01*
X26454192Y-52888811D01*
X26638150Y-52856375D01*
X26812303Y-52788825D01*
X26970019Y-52688735D01*
X27105291Y-52559918D01*
X27212965Y-52407279D01*
X27288942Y-52236634D01*
X27330326Y-52054481D01*
X27333305Y-51841126D01*
X27320099Y-51774428D01*
X29208664Y-51774428D01*
X29244633Y-51970403D01*
X29317981Y-52155659D01*
X29425915Y-52323140D01*
X29564324Y-52466467D01*
X29727936Y-52580180D01*
X29910520Y-52659949D01*
X30105119Y-52702734D01*
X30304324Y-52706907D01*
X30500545Y-52672308D01*
X30686308Y-52600255D01*
X30854539Y-52493493D01*
X30998828Y-52356088D01*
X31113681Y-52193273D01*
X31194723Y-52011251D01*
X31238866Y-51816955D01*
X31242044Y-51589376D01*
X31203343Y-51393923D01*
X31127415Y-51209709D01*
X31080721Y-51139428D01*
X50798664Y-51139428D01*
X50834633Y-51335403D01*
X50907981Y-51520659D01*
X51015915Y-51688140D01*
X51154324Y-51831467D01*
X51317936Y-51945180D01*
X51500520Y-52024949D01*
X51695119Y-52067734D01*
X51894324Y-52071907D01*
X52090545Y-52037308D01*
X52276308Y-51965255D01*
X52444539Y-51858493D01*
X52588828Y-51721088D01*
X52644555Y-51642089D01*
X55434248Y-51642089D01*
X55467968Y-51825815D01*
X55536732Y-51999493D01*
X55637920Y-52156506D01*
X55767679Y-52290875D01*
X55921065Y-52397482D01*
X56092237Y-52472265D01*
X56274674Y-52512376D01*
X56461428Y-52516288D01*
X56645386Y-52483852D01*
X56819539Y-52416302D01*
X56977255Y-52316212D01*
X57024901Y-52270839D01*
X65170874Y-52270839D01*
X65204594Y-52454565D01*
X65273358Y-52628243D01*
X65374546Y-52785256D01*
X65504305Y-52919625D01*
X65657691Y-53026232D01*
X65828863Y-53101015D01*
X66011300Y-53141126D01*
X66198054Y-53145038D01*
X66382012Y-53112602D01*
X66556165Y-53045052D01*
X66713881Y-52944962D01*
X66849153Y-52816145D01*
X66956827Y-52663506D01*
X67032804Y-52492861D01*
X67074188Y-52310708D01*
X67077167Y-52097353D01*
X67040885Y-51914115D01*
X66969703Y-51741415D01*
X66866332Y-51585829D01*
X66734710Y-51453285D01*
X66579850Y-51348830D01*
X66407651Y-51276444D01*
X66224671Y-51238884D01*
X66037881Y-51237580D01*
X65854394Y-51272582D01*
X65681201Y-51342557D01*
X65524898Y-51444839D01*
X65391438Y-51575532D01*
X65285905Y-51729659D01*
X65212319Y-51901349D01*
X65173482Y-52084062D01*
X65170874Y-52270839D01*
X57024901Y-52270839D01*
X57112527Y-52187395D01*
X57220201Y-52034756D01*
X57296178Y-51864111D01*
X57337562Y-51681958D01*
X57340541Y-51468603D01*
X57304259Y-51285365D01*
X57233077Y-51112665D01*
X57129706Y-50957079D01*
X56998084Y-50824535D01*
X56843224Y-50720080D01*
X56671025Y-50647694D01*
X56488045Y-50610134D01*
X56301255Y-50608830D01*
X56117768Y-50643832D01*
X55944575Y-50713807D01*
X55788272Y-50816089D01*
X55654812Y-50946782D01*
X55549279Y-51100909D01*
X55475693Y-51272599D01*
X55436856Y-51455312D01*
X55434248Y-51642089D01*
X52644555Y-51642089D01*
X52703681Y-51558273D01*
X52784723Y-51376251D01*
X52828866Y-51181955D01*
X52832044Y-50954376D01*
X52793343Y-50758923D01*
X52717415Y-50574709D01*
X52607153Y-50408751D01*
X52466756Y-50267371D01*
X52301572Y-50155953D01*
X52117893Y-50078741D01*
X51922715Y-50038677D01*
X51723472Y-50037286D01*
X51527753Y-50074621D01*
X51343014Y-50149261D01*
X51176290Y-50258361D01*
X51033933Y-50397768D01*
X50921364Y-50562170D01*
X50842872Y-50745306D01*
X50801446Y-50940200D01*
X50798664Y-51139428D01*
X31080721Y-51139428D01*
X31017153Y-51043751D01*
X30876756Y-50902371D01*
X30711572Y-50790953D01*
X30527893Y-50713741D01*
X30332715Y-50673677D01*
X30133472Y-50672286D01*
X29937753Y-50709621D01*
X29753014Y-50784261D01*
X29586290Y-50893361D01*
X29443933Y-51032768D01*
X29331364Y-51197170D01*
X29252872Y-51380306D01*
X29211446Y-51575200D01*
X29208664Y-51774428D01*
X27320099Y-51774428D01*
X27297023Y-51657888D01*
X27225841Y-51485188D01*
X27122470Y-51329602D01*
X26990848Y-51197058D01*
X26835988Y-51092603D01*
X26663789Y-51020217D01*
X26480809Y-50982657D01*
X26294019Y-50981353D01*
X26110532Y-51016355D01*
X25937339Y-51086330D01*
X25781036Y-51188612D01*
X25647576Y-51319305D01*
X25542043Y-51473432D01*
X25468457Y-51645122D01*
X25429620Y-51827835D01*
X25427012Y-52014612D01*
X21056709Y-52014612D01*
X20420081Y-49794428D01*
X26442664Y-49794428D01*
X26478633Y-49990403D01*
X26551981Y-50175659D01*
X26659915Y-50343140D01*
X26798324Y-50486467D01*
X26961936Y-50600180D01*
X27144520Y-50679949D01*
X27339119Y-50722734D01*
X27538324Y-50726907D01*
X27734545Y-50692308D01*
X27920308Y-50620255D01*
X28088539Y-50513493D01*
X28232828Y-50376088D01*
X28347681Y-50213273D01*
X28428723Y-50031251D01*
X28472866Y-49836955D01*
X28475959Y-49615428D01*
X34796664Y-49615428D01*
X34832633Y-49811403D01*
X34905981Y-49996659D01*
X35013915Y-50164140D01*
X35152324Y-50307467D01*
X35315936Y-50421180D01*
X35498520Y-50500949D01*
X35693119Y-50543734D01*
X35892324Y-50547907D01*
X36088545Y-50513308D01*
X36274308Y-50441255D01*
X36442539Y-50334493D01*
X36586828Y-50197088D01*
X36701681Y-50034273D01*
X36782723Y-49852251D01*
X36826866Y-49657955D01*
X36830044Y-49430376D01*
X36815335Y-49356089D01*
X39940248Y-49356089D01*
X39973968Y-49539815D01*
X40042732Y-49713493D01*
X40143920Y-49870506D01*
X40273679Y-50004875D01*
X40427065Y-50111482D01*
X40598237Y-50186265D01*
X40780674Y-50226376D01*
X40967428Y-50230288D01*
X41151386Y-50197852D01*
X41325539Y-50130302D01*
X41483255Y-50030212D01*
X41618527Y-49901395D01*
X41726201Y-49748756D01*
X41802178Y-49578111D01*
X41843562Y-49395958D01*
X41846541Y-49182603D01*
X41833054Y-49114490D01*
X41833539Y-49114302D01*
X41991255Y-49014212D01*
X42126527Y-48885395D01*
X42234201Y-48732756D01*
X42310178Y-48562111D01*
X42351562Y-48379958D01*
X42354541Y-48166603D01*
X42318259Y-47983365D01*
X42247077Y-47810665D01*
X42143706Y-47655079D01*
X42012084Y-47522535D01*
X41857224Y-47418080D01*
X41685025Y-47345694D01*
X41502045Y-47308134D01*
X41315255Y-47306830D01*
X41131768Y-47341832D01*
X40958575Y-47411807D01*
X40802272Y-47514089D01*
X40668812Y-47644782D01*
X40563279Y-47798909D01*
X40489693Y-47970599D01*
X40450856Y-48153312D01*
X40448248Y-48340089D01*
X40463396Y-48422627D01*
X40450575Y-48427807D01*
X40294272Y-48530089D01*
X40160812Y-48660782D01*
X40055279Y-48814909D01*
X39981693Y-48986599D01*
X39942856Y-49169312D01*
X39940248Y-49356089D01*
X36815335Y-49356089D01*
X36791343Y-49234923D01*
X36715415Y-49050709D01*
X36605153Y-48884751D01*
X36464756Y-48743371D01*
X36299572Y-48631953D01*
X36115893Y-48554741D01*
X35920715Y-48514677D01*
X35721472Y-48513286D01*
X35525753Y-48550621D01*
X35341014Y-48625261D01*
X35174290Y-48734361D01*
X35031933Y-48873768D01*
X34919364Y-49038170D01*
X34840872Y-49221306D01*
X34799446Y-49416200D01*
X34796664Y-49615428D01*
X28475959Y-49615428D01*
X28476044Y-49609376D01*
X28437343Y-49413923D01*
X28361415Y-49229709D01*
X28251153Y-49063751D01*
X28110756Y-48922371D01*
X27945572Y-48810953D01*
X27761893Y-48733741D01*
X27566715Y-48693677D01*
X27367472Y-48692286D01*
X27171753Y-48729621D01*
X26987014Y-48804261D01*
X26820290Y-48913361D01*
X26677933Y-49052768D01*
X26565364Y-49217170D01*
X26486872Y-49400306D01*
X26445446Y-49595200D01*
X26442664Y-49794428D01*
X20420081Y-49794428D01*
X20165620Y-48907018D01*
X20011370Y-47070089D01*
X47814248Y-47070089D01*
X47847968Y-47253815D01*
X47916732Y-47427493D01*
X48017920Y-47584506D01*
X48147679Y-47718875D01*
X48301065Y-47825482D01*
X48472237Y-47900265D01*
X48654674Y-47940376D01*
X48841428Y-47944288D01*
X49025386Y-47911852D01*
X49199539Y-47844302D01*
X49357255Y-47744212D01*
X49492527Y-47615395D01*
X49600201Y-47462756D01*
X49661940Y-47324089D01*
X50608248Y-47324089D01*
X50641968Y-47507815D01*
X50710732Y-47681493D01*
X50811920Y-47838506D01*
X50941679Y-47972875D01*
X51095065Y-48079482D01*
X51266237Y-48154265D01*
X51448674Y-48194376D01*
X51635428Y-48198288D01*
X51819386Y-48165852D01*
X51993539Y-48098302D01*
X52031692Y-48074089D01*
X53668248Y-48074089D01*
X53701968Y-48257815D01*
X53770732Y-48431493D01*
X53871920Y-48588506D01*
X54001679Y-48722875D01*
X54155065Y-48829482D01*
X54261290Y-48875890D01*
X54179692Y-48955797D01*
X54081194Y-49099649D01*
X54012514Y-49259893D01*
X53976266Y-49430425D01*
X53973832Y-49604750D01*
X54005304Y-49776227D01*
X54069483Y-49938326D01*
X54163926Y-50084872D01*
X54285034Y-50210283D01*
X54428194Y-50309782D01*
X54587955Y-50379580D01*
X54758230Y-50417017D01*
X54932533Y-50420668D01*
X55104226Y-50390394D01*
X55266769Y-50327348D01*
X55413971Y-50233931D01*
X55540224Y-50113701D01*
X55640721Y-49971239D01*
X55659133Y-49929884D01*
X58714719Y-49929884D01*
X58776141Y-50264545D01*
X58901396Y-50580902D01*
X59085713Y-50866906D01*
X59322071Y-51111662D01*
X59601468Y-51305848D01*
X59913261Y-51442067D01*
X60245575Y-51515131D01*
X60585752Y-51522257D01*
X60920833Y-51463173D01*
X61238058Y-51340130D01*
X61525341Y-51157814D01*
X61771741Y-50923170D01*
X61967873Y-50645136D01*
X62106266Y-50334301D01*
X62181648Y-50002505D01*
X62187074Y-49613874D01*
X62120986Y-49280103D01*
X61991326Y-48965526D01*
X61803034Y-48682123D01*
X61563282Y-48440691D01*
X61281201Y-48250425D01*
X60967536Y-48118572D01*
X60634234Y-48050156D01*
X60293992Y-48047780D01*
X59959767Y-48111537D01*
X59644292Y-48238997D01*
X59359582Y-48425306D01*
X59116482Y-48663367D01*
X58924251Y-48944113D01*
X58790212Y-49256850D01*
X58719470Y-49589666D01*
X58714719Y-49929884D01*
X55659133Y-49929884D01*
X55711632Y-49811970D01*
X55750257Y-49641960D01*
X55753038Y-49442829D01*
X55719174Y-49271808D01*
X55652738Y-49110621D01*
X55556259Y-48965408D01*
X55433411Y-48841700D01*
X55288876Y-48744209D01*
X55237942Y-48722798D01*
X55346527Y-48619395D01*
X55454201Y-48466756D01*
X55530178Y-48296111D01*
X55571562Y-48113958D01*
X55574541Y-47900603D01*
X55538259Y-47717365D01*
X55467077Y-47544665D01*
X55363706Y-47389079D01*
X55232084Y-47256535D01*
X55077224Y-47152080D01*
X54905025Y-47079694D01*
X54832223Y-47064750D01*
X57656832Y-47064750D01*
X57688304Y-47236227D01*
X57752483Y-47398326D01*
X57846926Y-47544872D01*
X57968034Y-47670283D01*
X58111194Y-47769782D01*
X58270955Y-47839580D01*
X58441230Y-47877017D01*
X58615533Y-47880668D01*
X58787226Y-47850394D01*
X58949769Y-47787348D01*
X59096971Y-47693931D01*
X59223224Y-47573701D01*
X59323721Y-47431239D01*
X59394632Y-47271970D01*
X59433257Y-47101960D01*
X59436038Y-46902829D01*
X59402174Y-46731808D01*
X59335738Y-46570621D01*
X59239259Y-46425408D01*
X59116411Y-46301700D01*
X58971876Y-46204209D01*
X58811156Y-46136649D01*
X58640375Y-46101593D01*
X58466038Y-46100375D01*
X58294784Y-46133044D01*
X58133137Y-46198353D01*
X57987254Y-46293817D01*
X57862692Y-46415797D01*
X57764194Y-46559649D01*
X57695514Y-46719893D01*
X57659266Y-46890425D01*
X57656832Y-47064750D01*
X54832223Y-47064750D01*
X54722045Y-47042134D01*
X54535255Y-47040830D01*
X54351768Y-47075832D01*
X54178575Y-47145807D01*
X54022272Y-47248089D01*
X53888812Y-47378782D01*
X53783279Y-47532909D01*
X53709693Y-47704599D01*
X53670856Y-47887312D01*
X53668248Y-48074089D01*
X52031692Y-48074089D01*
X52151255Y-47998212D01*
X52286527Y-47869395D01*
X52394201Y-47716756D01*
X52470178Y-47546111D01*
X52511562Y-47363958D01*
X52514541Y-47150603D01*
X52478259Y-46967365D01*
X52407077Y-46794665D01*
X52303706Y-46639079D01*
X52172084Y-46506535D01*
X52017224Y-46402080D01*
X51845025Y-46329694D01*
X51662045Y-46292134D01*
X51475255Y-46290830D01*
X51291768Y-46325832D01*
X51118575Y-46395807D01*
X50962272Y-46498089D01*
X50828812Y-46628782D01*
X50723279Y-46782909D01*
X50649693Y-46954599D01*
X50610856Y-47137312D01*
X50608248Y-47324089D01*
X49661940Y-47324089D01*
X49676178Y-47292111D01*
X49717562Y-47109958D01*
X49720541Y-46896603D01*
X49684259Y-46713365D01*
X49613077Y-46540665D01*
X49509706Y-46385079D01*
X49378084Y-46252535D01*
X49223224Y-46148080D01*
X49051025Y-46075694D01*
X48868045Y-46038134D01*
X48681255Y-46036830D01*
X48497768Y-46071832D01*
X48324575Y-46141807D01*
X48168272Y-46244089D01*
X48034812Y-46374782D01*
X47929279Y-46528909D01*
X47855693Y-46700599D01*
X47816856Y-46883312D01*
X47814248Y-47070089D01*
X20011370Y-47070089D01*
X19894060Y-45673089D01*
X20509248Y-45673089D01*
X20542968Y-45856815D01*
X20611732Y-46030493D01*
X20712920Y-46187506D01*
X20842679Y-46321875D01*
X20996065Y-46428482D01*
X21167237Y-46503265D01*
X21349674Y-46543376D01*
X21536428Y-46547288D01*
X21720386Y-46514852D01*
X21894539Y-46447302D01*
X22052255Y-46347212D01*
X22187527Y-46218395D01*
X22295201Y-46065756D01*
X22371178Y-45895111D01*
X22391553Y-45805428D01*
X37082664Y-45805428D01*
X37118633Y-46001403D01*
X37191981Y-46186659D01*
X37299915Y-46354140D01*
X37438324Y-46497467D01*
X37601936Y-46611180D01*
X37784520Y-46690949D01*
X37979119Y-46733734D01*
X38178324Y-46737907D01*
X38374545Y-46703308D01*
X38560308Y-46631255D01*
X38728539Y-46524493D01*
X38872828Y-46387088D01*
X38987681Y-46224273D01*
X39068723Y-46042251D01*
X39112866Y-45847955D01*
X39116044Y-45620376D01*
X39077343Y-45424923D01*
X39022593Y-45292089D01*
X50608248Y-45292089D01*
X50641968Y-45475815D01*
X50710732Y-45649493D01*
X50811920Y-45806506D01*
X50941679Y-45940875D01*
X51095065Y-46047482D01*
X51266237Y-46122265D01*
X51448674Y-46162376D01*
X51635428Y-46166288D01*
X51819386Y-46133852D01*
X51993539Y-46066302D01*
X52151255Y-45966212D01*
X52286527Y-45837395D01*
X52394201Y-45684756D01*
X52470178Y-45514111D01*
X52511562Y-45331958D01*
X52514541Y-45118603D01*
X52478259Y-44935365D01*
X52407077Y-44762665D01*
X52303706Y-44607079D01*
X52227252Y-44530089D01*
X54418248Y-44530089D01*
X54451968Y-44713815D01*
X54520732Y-44887493D01*
X54621920Y-45044506D01*
X54751679Y-45178875D01*
X54905065Y-45285482D01*
X55076237Y-45360265D01*
X55258674Y-45400376D01*
X55445428Y-45404288D01*
X55629386Y-45371852D01*
X55803539Y-45304302D01*
X55961255Y-45204212D01*
X56096527Y-45075395D01*
X56204201Y-44922756D01*
X56280178Y-44752111D01*
X56321562Y-44569958D01*
X56324541Y-44356603D01*
X56288259Y-44173365D01*
X56217077Y-44000665D01*
X56113706Y-43845079D01*
X55982084Y-43712535D01*
X55827224Y-43608080D01*
X55655025Y-43535694D01*
X55549773Y-43514089D01*
X58228248Y-43514089D01*
X58261968Y-43697815D01*
X58330732Y-43871493D01*
X58431920Y-44028506D01*
X58561679Y-44162875D01*
X58715065Y-44269482D01*
X58886237Y-44344265D01*
X59068674Y-44384376D01*
X59255428Y-44388288D01*
X59439386Y-44355852D01*
X59613539Y-44288302D01*
X59771255Y-44188212D01*
X59906527Y-44059395D01*
X60014201Y-43906756D01*
X60090178Y-43736111D01*
X60131562Y-43553958D01*
X60133891Y-43387089D01*
X66483248Y-43387089D01*
X66516968Y-43570815D01*
X66585732Y-43744493D01*
X66686920Y-43901506D01*
X66816679Y-44035875D01*
X66970065Y-44142482D01*
X67141237Y-44217265D01*
X67323674Y-44257376D01*
X67510428Y-44261288D01*
X67694386Y-44228852D01*
X67868539Y-44161302D01*
X68026255Y-44061212D01*
X68161527Y-43932395D01*
X68269201Y-43779756D01*
X68345178Y-43609111D01*
X68386562Y-43426958D01*
X68389541Y-43213603D01*
X68353259Y-43030365D01*
X68282077Y-42857665D01*
X68178706Y-42702079D01*
X68047084Y-42569535D01*
X67892224Y-42465080D01*
X67720025Y-42392694D01*
X67537045Y-42355134D01*
X67350255Y-42353830D01*
X67166768Y-42388832D01*
X66993575Y-42458807D01*
X66837272Y-42561089D01*
X66703812Y-42691782D01*
X66598279Y-42845909D01*
X66524693Y-43017599D01*
X66485856Y-43200312D01*
X66483248Y-43387089D01*
X60133891Y-43387089D01*
X60134541Y-43340603D01*
X60098259Y-43157365D01*
X60027077Y-42984665D01*
X59923706Y-42829079D01*
X59792084Y-42696535D01*
X59637224Y-42592080D01*
X59465025Y-42519694D01*
X59282045Y-42482134D01*
X59095255Y-42480830D01*
X58911768Y-42515832D01*
X58738575Y-42585807D01*
X58582272Y-42688089D01*
X58448812Y-42818782D01*
X58343279Y-42972909D01*
X58269693Y-43144599D01*
X58230856Y-43327312D01*
X58228248Y-43514089D01*
X55549773Y-43514089D01*
X55472045Y-43498134D01*
X55285255Y-43496830D01*
X55101768Y-43531832D01*
X54928575Y-43601807D01*
X54772272Y-43704089D01*
X54638812Y-43834782D01*
X54533279Y-43988909D01*
X54459693Y-44160599D01*
X54420856Y-44343312D01*
X54418248Y-44530089D01*
X52227252Y-44530089D01*
X52172084Y-44474535D01*
X52017224Y-44370080D01*
X51845025Y-44297694D01*
X51662045Y-44260134D01*
X51475255Y-44258830D01*
X51291768Y-44293832D01*
X51118575Y-44363807D01*
X50962272Y-44466089D01*
X50828812Y-44596782D01*
X50723279Y-44750909D01*
X50649693Y-44922599D01*
X50610856Y-45105312D01*
X50608248Y-45292089D01*
X39022593Y-45292089D01*
X39001415Y-45240709D01*
X38891153Y-45074751D01*
X38856006Y-45039358D01*
X38951527Y-44948395D01*
X39059201Y-44795756D01*
X39135178Y-44625111D01*
X39176562Y-44442958D01*
X39179541Y-44229603D01*
X39143259Y-44046365D01*
X39072077Y-43873665D01*
X38968706Y-43718079D01*
X38837084Y-43585535D01*
X38682224Y-43481080D01*
X38510025Y-43408694D01*
X38327045Y-43371134D01*
X38140255Y-43369830D01*
X37956768Y-43404832D01*
X37783575Y-43474807D01*
X37627272Y-43577089D01*
X37493812Y-43707782D01*
X37388279Y-43861909D01*
X37314693Y-44033599D01*
X37275856Y-44216312D01*
X37273248Y-44403089D01*
X37306968Y-44586815D01*
X37375732Y-44760493D01*
X37475094Y-44914673D01*
X37460290Y-44924361D01*
X37317933Y-45063768D01*
X37205364Y-45228170D01*
X37126872Y-45411306D01*
X37085446Y-45606200D01*
X37082664Y-45805428D01*
X22391553Y-45805428D01*
X22412562Y-45712958D01*
X22415541Y-45499603D01*
X22379259Y-45316365D01*
X22308077Y-45143665D01*
X22204706Y-44988079D01*
X22073084Y-44855535D01*
X21918224Y-44751080D01*
X21746025Y-44678694D01*
X21563045Y-44641134D01*
X21376255Y-44639830D01*
X21192768Y-44674832D01*
X21019575Y-44744807D01*
X20863272Y-44847089D01*
X20729812Y-44977782D01*
X20624279Y-45131909D01*
X20550693Y-45303599D01*
X20511856Y-45486312D01*
X20509248Y-45673089D01*
X19894060Y-45673089D01*
X19798080Y-44530089D01*
X23938248Y-44530089D01*
X23971968Y-44713815D01*
X24040732Y-44887493D01*
X24141920Y-45044506D01*
X24271679Y-45178875D01*
X24425065Y-45285482D01*
X24596237Y-45360265D01*
X24778674Y-45400376D01*
X24965428Y-45404288D01*
X25149386Y-45371852D01*
X25323539Y-45304302D01*
X25481255Y-45204212D01*
X25616527Y-45075395D01*
X25724201Y-44922756D01*
X25800178Y-44752111D01*
X25841562Y-44569958D01*
X25844541Y-44356603D01*
X25808259Y-44173365D01*
X25737077Y-44000665D01*
X25633706Y-43845079D01*
X25502084Y-43712535D01*
X25347224Y-43608080D01*
X25175025Y-43535694D01*
X24992045Y-43498134D01*
X24805255Y-43496830D01*
X24621768Y-43531832D01*
X24448575Y-43601807D01*
X24292272Y-43704089D01*
X24158812Y-43834782D01*
X24053279Y-43988909D01*
X23979693Y-44160599D01*
X23940856Y-44343312D01*
X23938248Y-44530089D01*
X19798080Y-44530089D01*
X19762407Y-44105274D01*
X20035018Y-41674884D01*
X26329719Y-41674884D01*
X26391141Y-42009545D01*
X26516396Y-42325902D01*
X26700713Y-42611906D01*
X26937071Y-42856662D01*
X27216468Y-43050848D01*
X27528261Y-43187067D01*
X27860575Y-43260131D01*
X28200752Y-43267257D01*
X28535833Y-43208173D01*
X28853058Y-43085130D01*
X29140341Y-42902814D01*
X29386741Y-42668170D01*
X29582873Y-42390136D01*
X29721266Y-42079301D01*
X29796648Y-41747505D01*
X29802074Y-41358874D01*
X29776179Y-41228089D01*
X49338248Y-41228089D01*
X49371968Y-41411815D01*
X49440732Y-41585493D01*
X49541920Y-41742506D01*
X49671679Y-41876875D01*
X49825065Y-41983482D01*
X49996237Y-42058265D01*
X50178674Y-42098376D01*
X50365428Y-42102288D01*
X50549386Y-42069852D01*
X50723539Y-42002302D01*
X50881255Y-41902212D01*
X51016527Y-41773395D01*
X51124201Y-41620756D01*
X51200178Y-41450111D01*
X51241562Y-41267958D01*
X51244541Y-41054603D01*
X51208259Y-40871365D01*
X51137077Y-40698665D01*
X51033706Y-40543079D01*
X50902084Y-40410535D01*
X50747224Y-40306080D01*
X50575025Y-40233694D01*
X50443763Y-40206750D01*
X51179832Y-40206750D01*
X51211304Y-40378227D01*
X51275483Y-40540326D01*
X51369926Y-40686872D01*
X51491034Y-40812283D01*
X51634194Y-40911782D01*
X51793955Y-40981580D01*
X51964230Y-41019017D01*
X52138533Y-41022668D01*
X52310226Y-40992394D01*
X52472769Y-40929348D01*
X52619971Y-40835931D01*
X52746224Y-40715701D01*
X52846721Y-40573239D01*
X52917632Y-40413970D01*
X52956257Y-40243960D01*
X52957149Y-40180083D01*
X58228248Y-40180083D01*
X58261968Y-40363809D01*
X58330732Y-40537487D01*
X58344259Y-40558477D01*
X58343279Y-40559909D01*
X58269693Y-40731599D01*
X58230856Y-40914312D01*
X58228248Y-41101089D01*
X58261968Y-41284815D01*
X58330732Y-41458493D01*
X58431920Y-41615506D01*
X58561679Y-41749875D01*
X58715065Y-41856482D01*
X58886237Y-41931265D01*
X59068674Y-41971376D01*
X59255428Y-41975288D01*
X59439386Y-41942852D01*
X59613539Y-41875302D01*
X59771255Y-41775212D01*
X59906527Y-41646395D01*
X60014201Y-41493756D01*
X60090178Y-41323111D01*
X60131562Y-41140958D01*
X60134541Y-40927603D01*
X60098259Y-40744365D01*
X60027077Y-40571665D01*
X60019657Y-40560497D01*
X60090178Y-40402105D01*
X60131562Y-40219952D01*
X60134541Y-40006597D01*
X60098259Y-39823359D01*
X60027077Y-39650659D01*
X59923706Y-39495073D01*
X59792084Y-39362529D01*
X59637224Y-39258074D01*
X59465025Y-39185688D01*
X59282045Y-39148128D01*
X59095255Y-39146824D01*
X58911768Y-39181826D01*
X58738575Y-39251801D01*
X58582272Y-39354083D01*
X58448812Y-39484776D01*
X58343279Y-39638903D01*
X58269693Y-39810593D01*
X58230856Y-39993306D01*
X58228248Y-40180083D01*
X52957149Y-40180083D01*
X52959038Y-40044829D01*
X52925174Y-39873808D01*
X52858738Y-39712621D01*
X52762259Y-39567408D01*
X52639411Y-39443700D01*
X52494876Y-39346209D01*
X52334156Y-39278649D01*
X52163375Y-39243593D01*
X51989038Y-39242375D01*
X51817784Y-39275044D01*
X51656137Y-39340353D01*
X51510254Y-39435817D01*
X51385692Y-39557797D01*
X51287194Y-39701649D01*
X51218514Y-39861893D01*
X51182266Y-40032425D01*
X51179832Y-40206750D01*
X50443763Y-40206750D01*
X50392045Y-40196134D01*
X50205255Y-40194830D01*
X50021768Y-40229832D01*
X49848575Y-40299807D01*
X49692272Y-40402089D01*
X49558812Y-40532782D01*
X49453279Y-40686909D01*
X49379693Y-40858599D01*
X49340856Y-41041312D01*
X49338248Y-41228089D01*
X29776179Y-41228089D01*
X29735986Y-41025103D01*
X29606326Y-40710526D01*
X29418034Y-40427123D01*
X29178282Y-40185691D01*
X28896201Y-39995425D01*
X28582536Y-39863572D01*
X28249234Y-39795156D01*
X27908992Y-39792780D01*
X27574767Y-39856537D01*
X27259292Y-39983997D01*
X26974582Y-40170306D01*
X26731482Y-40408367D01*
X26539251Y-40689113D01*
X26405212Y-41001850D01*
X26334470Y-41334666D01*
X26329719Y-41674884D01*
X20035018Y-41674884D01*
X20256078Y-39704089D01*
X40448248Y-39704089D01*
X40481968Y-39887815D01*
X40550732Y-40061493D01*
X40651920Y-40218506D01*
X40781679Y-40352875D01*
X40935065Y-40459482D01*
X41106237Y-40534265D01*
X41288674Y-40574376D01*
X41475428Y-40578288D01*
X41659386Y-40545852D01*
X41833539Y-40478302D01*
X41991255Y-40378212D01*
X42126527Y-40249395D01*
X42234201Y-40096756D01*
X42310178Y-39926111D01*
X42351562Y-39743958D01*
X42354541Y-39530603D01*
X42318259Y-39347365D01*
X42247077Y-39174665D01*
X42143706Y-39019079D01*
X42012084Y-38886535D01*
X41857224Y-38782080D01*
X41685025Y-38709694D01*
X41502045Y-38672134D01*
X41315255Y-38670830D01*
X41131768Y-38705832D01*
X40958575Y-38775807D01*
X40802272Y-38878089D01*
X40668812Y-39008782D01*
X40563279Y-39162909D01*
X40489693Y-39334599D01*
X40450856Y-39517312D01*
X40448248Y-39704089D01*
X20256078Y-39704089D01*
X20299536Y-39316660D01*
X21101249Y-36789339D01*
X21821622Y-36789339D01*
X21855342Y-36973065D01*
X21924106Y-37146743D01*
X22025294Y-37303756D01*
X22155053Y-37438125D01*
X22308439Y-37544732D01*
X22479611Y-37619515D01*
X22662048Y-37659626D01*
X22848802Y-37663538D01*
X23032760Y-37631102D01*
X23206913Y-37563552D01*
X23364629Y-37463462D01*
X23499901Y-37334645D01*
X23607575Y-37182006D01*
X23668322Y-37045566D01*
X25427012Y-37045566D01*
X25460732Y-37229292D01*
X25529496Y-37402970D01*
X25630684Y-37559983D01*
X25760443Y-37694352D01*
X25913829Y-37800959D01*
X26085001Y-37875742D01*
X26267438Y-37915853D01*
X26454192Y-37919765D01*
X26638150Y-37887329D01*
X26812303Y-37819779D01*
X26970019Y-37719689D01*
X27105291Y-37590872D01*
X27212965Y-37438233D01*
X27288942Y-37267588D01*
X27312456Y-37164089D01*
X39432248Y-37164089D01*
X39465968Y-37347815D01*
X39534732Y-37521493D01*
X39635920Y-37678506D01*
X39765679Y-37812875D01*
X39919065Y-37919482D01*
X40090237Y-37994265D01*
X40272674Y-38034376D01*
X40459428Y-38038288D01*
X40643386Y-38005852D01*
X40817539Y-37938302D01*
X40975255Y-37838212D01*
X41110527Y-37709395D01*
X41218201Y-37556756D01*
X41294178Y-37386111D01*
X41335562Y-37203958D01*
X41338541Y-36990603D01*
X41302259Y-36807365D01*
X41231077Y-36634665D01*
X41127706Y-36479079D01*
X40996084Y-36346535D01*
X40841224Y-36242080D01*
X40669025Y-36169694D01*
X40486045Y-36132134D01*
X40299255Y-36130830D01*
X40115768Y-36165832D01*
X39942575Y-36235807D01*
X39786272Y-36338089D01*
X39652812Y-36468782D01*
X39547279Y-36622909D01*
X39473693Y-36794599D01*
X39434856Y-36977312D01*
X39432248Y-37164089D01*
X27312456Y-37164089D01*
X27330326Y-37085435D01*
X27333305Y-36872080D01*
X27297023Y-36688842D01*
X27225841Y-36516142D01*
X27122470Y-36360556D01*
X26990848Y-36228012D01*
X26835988Y-36123557D01*
X26663789Y-36051171D01*
X26480809Y-36013611D01*
X26294019Y-36012307D01*
X26110532Y-36047309D01*
X25937339Y-36117284D01*
X25781036Y-36219566D01*
X25647576Y-36350259D01*
X25542043Y-36504386D01*
X25468457Y-36676076D01*
X25429620Y-36858789D01*
X25427012Y-37045566D01*
X23668322Y-37045566D01*
X23683552Y-37011361D01*
X23724936Y-36829208D01*
X23727915Y-36615853D01*
X23691633Y-36432615D01*
X23620451Y-36259915D01*
X23517080Y-36104329D01*
X23385458Y-35971785D01*
X23270270Y-35894089D01*
X48830248Y-35894089D01*
X48863968Y-36077815D01*
X48932732Y-36251493D01*
X49033920Y-36408506D01*
X49163679Y-36542875D01*
X49317065Y-36649482D01*
X49488237Y-36724265D01*
X49670674Y-36764376D01*
X49857428Y-36768288D01*
X50041386Y-36735852D01*
X50215539Y-36668302D01*
X50373255Y-36568212D01*
X50508527Y-36439395D01*
X50616201Y-36286756D01*
X50692178Y-36116111D01*
X50733562Y-35933958D01*
X50736541Y-35720603D01*
X50700259Y-35537365D01*
X50629077Y-35364665D01*
X50525706Y-35209079D01*
X50394084Y-35076535D01*
X50239224Y-34972080D01*
X50067025Y-34899694D01*
X49884045Y-34862134D01*
X49697255Y-34860830D01*
X49513768Y-34895832D01*
X49340575Y-34965807D01*
X49184272Y-35068089D01*
X49050812Y-35198782D01*
X48945279Y-35352909D01*
X48871693Y-35524599D01*
X48832856Y-35707312D01*
X48830248Y-35894089D01*
X23270270Y-35894089D01*
X23230598Y-35867330D01*
X23058399Y-35794944D01*
X22875419Y-35757384D01*
X22688629Y-35756080D01*
X22505142Y-35791082D01*
X22331949Y-35861057D01*
X22175646Y-35963339D01*
X22042186Y-36094032D01*
X21936653Y-36248159D01*
X21863067Y-36419849D01*
X21824230Y-36602562D01*
X21821622Y-36789339D01*
X21101249Y-36789339D01*
X21756548Y-34723574D01*
X21781959Y-34677351D01*
X64296060Y-34677351D01*
X64329780Y-34861077D01*
X64398544Y-35034755D01*
X64499732Y-35191768D01*
X64629491Y-35326137D01*
X64782877Y-35432744D01*
X64954049Y-35507527D01*
X65136486Y-35547638D01*
X65323240Y-35551550D01*
X65507198Y-35519114D01*
X65681351Y-35451564D01*
X65839067Y-35351474D01*
X65974339Y-35222657D01*
X66082013Y-35070018D01*
X66157990Y-34899373D01*
X66199374Y-34717220D01*
X66202353Y-34503865D01*
X66166071Y-34320627D01*
X66094889Y-34147927D01*
X65991518Y-33992341D01*
X65859896Y-33859797D01*
X65705036Y-33755342D01*
X65532837Y-33682956D01*
X65349857Y-33645396D01*
X65163067Y-33644092D01*
X64979580Y-33679094D01*
X64806387Y-33749069D01*
X64650084Y-33851351D01*
X64516624Y-33982044D01*
X64411091Y-34136171D01*
X64337505Y-34307861D01*
X64298668Y-34490574D01*
X64296060Y-34677351D01*
X21781959Y-34677351D01*
X22861458Y-32713750D01*
X39876832Y-32713750D01*
X39908304Y-32885227D01*
X39972483Y-33047326D01*
X40066926Y-33193872D01*
X40188034Y-33319283D01*
X40331194Y-33418782D01*
X40490955Y-33488580D01*
X40661230Y-33526017D01*
X40835533Y-33529668D01*
X41007226Y-33499394D01*
X41169769Y-33436348D01*
X41316971Y-33342931D01*
X41443224Y-33222701D01*
X41543721Y-33080239D01*
X41614632Y-32920970D01*
X41631644Y-32846089D01*
X54164248Y-32846089D01*
X54197968Y-33029815D01*
X54266732Y-33203493D01*
X54367920Y-33360506D01*
X54497679Y-33494875D01*
X54651065Y-33601482D01*
X54822237Y-33676265D01*
X55004674Y-33716376D01*
X55191428Y-33720288D01*
X55375386Y-33687852D01*
X55549539Y-33620302D01*
X55707255Y-33520212D01*
X55842527Y-33391395D01*
X55950201Y-33238756D01*
X56026178Y-33068111D01*
X56067562Y-32885958D01*
X56070541Y-32672603D01*
X56034259Y-32489365D01*
X55963077Y-32316665D01*
X55859706Y-32161079D01*
X55728084Y-32028535D01*
X55573224Y-31924080D01*
X55401025Y-31851694D01*
X55218045Y-31814134D01*
X55031255Y-31812830D01*
X54847768Y-31847832D01*
X54674575Y-31917807D01*
X54518272Y-32020089D01*
X54384812Y-32150782D01*
X54279279Y-32304909D01*
X54205693Y-32476599D01*
X54166856Y-32659312D01*
X54164248Y-32846089D01*
X41631644Y-32846089D01*
X41653257Y-32750960D01*
X41656038Y-32551829D01*
X41622174Y-32380808D01*
X41555738Y-32219621D01*
X41459259Y-32074408D01*
X41336411Y-31950700D01*
X41191876Y-31853209D01*
X41031156Y-31785649D01*
X40860375Y-31750593D01*
X40686038Y-31749375D01*
X40514784Y-31782044D01*
X40353137Y-31847353D01*
X40207254Y-31942817D01*
X40082692Y-32064797D01*
X39984194Y-32208649D01*
X39915514Y-32368893D01*
X39879266Y-32539425D01*
X39876832Y-32713750D01*
X22861458Y-32713750D01*
X23968255Y-30700495D01*
X29666654Y-30700495D01*
X29700374Y-30884221D01*
X29769138Y-31057899D01*
X29870326Y-31214912D01*
X30000085Y-31349281D01*
X30153471Y-31455888D01*
X30324643Y-31530671D01*
X30507080Y-31570782D01*
X30693834Y-31574694D01*
X30877792Y-31542258D01*
X31051945Y-31474708D01*
X31209661Y-31374618D01*
X31344933Y-31245801D01*
X31452607Y-31093162D01*
X31528584Y-30922517D01*
X31569968Y-30740364D01*
X31572947Y-30527009D01*
X31536665Y-30343771D01*
X31465483Y-30171071D01*
X31362112Y-30015485D01*
X31230490Y-29882941D01*
X31075630Y-29778486D01*
X30903431Y-29706100D01*
X30720451Y-29668540D01*
X30533661Y-29667236D01*
X30350174Y-29702238D01*
X30176981Y-29772213D01*
X30020678Y-29874495D01*
X29887218Y-30005188D01*
X29781685Y-30159315D01*
X29708099Y-30331005D01*
X29669262Y-30513718D01*
X29666654Y-30700495D01*
X23968255Y-30700495D01*
X24077948Y-30500965D01*
X25266882Y-29084048D01*
X26433761Y-29084048D01*
X26467481Y-29267774D01*
X26536245Y-29441452D01*
X26637433Y-29598465D01*
X26767192Y-29732834D01*
X26920578Y-29839441D01*
X27091750Y-29914224D01*
X27274187Y-29954335D01*
X27460941Y-29958247D01*
X27644899Y-29925811D01*
X27819052Y-29858261D01*
X27976768Y-29758171D01*
X28112040Y-29629354D01*
X28219714Y-29476715D01*
X28295691Y-29306070D01*
X28337075Y-29123917D01*
X28340054Y-28910562D01*
X28303772Y-28727324D01*
X28232590Y-28554624D01*
X28129219Y-28399038D01*
X27997597Y-28266494D01*
X27842737Y-28162039D01*
X27670538Y-28089653D01*
X27487558Y-28052093D01*
X27300768Y-28050789D01*
X27117281Y-28085791D01*
X26944088Y-28155766D01*
X26787785Y-28258048D01*
X26654325Y-28388741D01*
X26548792Y-28542868D01*
X26475206Y-28714558D01*
X26436369Y-28897271D01*
X26433761Y-29084048D01*
X25266882Y-29084048D01*
X26623241Y-27467602D01*
X58942289Y-27467602D01*
X58976009Y-27651328D01*
X59044773Y-27825006D01*
X59145961Y-27982019D01*
X59275720Y-28116388D01*
X59429106Y-28222995D01*
X59600278Y-28297778D01*
X59782715Y-28337889D01*
X59969469Y-28341801D01*
X60153427Y-28309365D01*
X60327580Y-28241815D01*
X60485296Y-28141725D01*
X60620568Y-28012908D01*
X60728242Y-27860269D01*
X60804219Y-27689624D01*
X60845603Y-27507471D01*
X60848582Y-27294116D01*
X60812300Y-27110878D01*
X60741118Y-26938178D01*
X60637747Y-26782592D01*
X60506125Y-26650048D01*
X60351265Y-26545593D01*
X60179066Y-26473207D01*
X59996086Y-26435647D01*
X59809296Y-26434343D01*
X59625809Y-26469345D01*
X59452616Y-26539320D01*
X59296313Y-26641602D01*
X59162853Y-26772295D01*
X59057320Y-26926422D01*
X58983734Y-27098112D01*
X58944897Y-27280825D01*
X58942289Y-27467602D01*
X26623241Y-27467602D01*
X27175312Y-26809670D01*
X27609152Y-26460853D01*
X36011725Y-26460853D01*
X36045445Y-26644579D01*
X36114209Y-26818257D01*
X36215397Y-26975270D01*
X36345156Y-27109639D01*
X36498542Y-27216246D01*
X36669714Y-27291029D01*
X36852151Y-27331140D01*
X37038905Y-27335052D01*
X37222863Y-27302616D01*
X37397016Y-27235066D01*
X37554732Y-27134976D01*
X37690004Y-27006159D01*
X37797678Y-26853520D01*
X37873655Y-26682875D01*
X37915039Y-26500722D01*
X37915595Y-26460853D01*
X50980771Y-26460853D01*
X51014491Y-26644579D01*
X51083255Y-26818257D01*
X51184443Y-26975270D01*
X51314202Y-27109639D01*
X51467588Y-27216246D01*
X51638760Y-27291029D01*
X51821197Y-27331140D01*
X52007951Y-27335052D01*
X52191909Y-27302616D01*
X52366062Y-27235066D01*
X52523778Y-27134976D01*
X52659050Y-27006159D01*
X52766724Y-26853520D01*
X52842701Y-26682875D01*
X52884085Y-26500722D01*
X52887064Y-26287367D01*
X52850782Y-26104129D01*
X52779600Y-25931429D01*
X52676229Y-25775843D01*
X52544607Y-25643299D01*
X52389747Y-25538844D01*
X52217548Y-25466458D01*
X52034568Y-25428898D01*
X51847778Y-25427594D01*
X51664291Y-25462596D01*
X51491098Y-25532571D01*
X51334795Y-25634853D01*
X51201335Y-25765546D01*
X51095802Y-25919673D01*
X51022216Y-26091363D01*
X50983379Y-26274076D01*
X50980771Y-26460853D01*
X37915595Y-26460853D01*
X37918018Y-26287367D01*
X37881736Y-26104129D01*
X37810554Y-25931429D01*
X37707183Y-25775843D01*
X37575561Y-25643299D01*
X37420701Y-25538844D01*
X37248502Y-25466458D01*
X37065522Y-25428898D01*
X36878732Y-25427594D01*
X36695245Y-25462596D01*
X36522052Y-25532571D01*
X36365749Y-25634853D01*
X36232289Y-25765546D01*
X36126756Y-25919673D01*
X36053170Y-26091363D01*
X36014333Y-26274076D01*
X36011725Y-26460853D01*
X27609152Y-26460853D01*
X29460801Y-24972089D01*
X43496248Y-24972089D01*
X43529968Y-25155815D01*
X43598732Y-25329493D01*
X43699920Y-25486506D01*
X43829679Y-25620875D01*
X43983065Y-25727482D01*
X44154237Y-25802265D01*
X44336674Y-25842376D01*
X44523428Y-25846288D01*
X44707386Y-25813852D01*
X44881539Y-25746302D01*
X45039255Y-25646212D01*
X45174527Y-25517395D01*
X45282201Y-25364756D01*
X45358178Y-25194111D01*
X45399562Y-25011958D01*
X45402541Y-24798603D01*
X45366259Y-24615365D01*
X45295077Y-24442665D01*
X45191706Y-24287079D01*
X45060084Y-24154535D01*
X44905224Y-24050080D01*
X44733025Y-23977694D01*
X44550045Y-23940134D01*
X44363255Y-23938830D01*
X44179768Y-23973832D01*
X44006575Y-24043807D01*
X43850272Y-24146089D01*
X43716812Y-24276782D01*
X43611279Y-24430909D01*
X43537693Y-24602599D01*
X43498856Y-24785312D01*
X43496248Y-24972089D01*
X29460801Y-24972089D01*
X30930664Y-23790289D01*
X31045456Y-23730277D01*
X33643510Y-23730277D01*
X33677230Y-23914003D01*
X33745994Y-24087681D01*
X33847182Y-24244694D01*
X33976941Y-24379063D01*
X34130327Y-24485670D01*
X34301499Y-24560453D01*
X34483936Y-24600564D01*
X34670690Y-24604476D01*
X34854648Y-24572040D01*
X35028801Y-24504490D01*
X35186517Y-24404400D01*
X35321789Y-24275583D01*
X35429463Y-24122944D01*
X35505440Y-23952299D01*
X35546824Y-23770146D01*
X35549803Y-23556791D01*
X35513521Y-23373553D01*
X35442339Y-23200853D01*
X35338968Y-23045267D01*
X35207346Y-22912723D01*
X35122456Y-22855463D01*
X51236998Y-22855463D01*
X51270718Y-23039189D01*
X51339482Y-23212867D01*
X51440670Y-23369880D01*
X51570429Y-23504249D01*
X51723815Y-23610856D01*
X51894987Y-23685639D01*
X52077424Y-23725750D01*
X52264178Y-23729662D01*
X52448136Y-23697226D01*
X52622289Y-23629676D01*
X52780005Y-23529586D01*
X52915277Y-23400769D01*
X53022951Y-23248130D01*
X53098928Y-23077485D01*
X53140312Y-22895332D01*
X53143291Y-22681977D01*
X53107009Y-22498739D01*
X53035827Y-22326039D01*
X52932456Y-22170453D01*
X52800834Y-22037909D01*
X52645974Y-21933454D01*
X52473775Y-21861068D01*
X52290795Y-21823508D01*
X52104005Y-21822204D01*
X51920518Y-21857206D01*
X51747325Y-21927181D01*
X51591022Y-22029463D01*
X51457562Y-22160156D01*
X51352029Y-22314283D01*
X51278443Y-22485973D01*
X51239606Y-22668686D01*
X51236998Y-22855463D01*
X35122456Y-22855463D01*
X35052486Y-22808268D01*
X34880287Y-22735882D01*
X34697307Y-22698322D01*
X34510517Y-22697018D01*
X34327030Y-22732020D01*
X34153837Y-22801995D01*
X33997534Y-22904277D01*
X33864074Y-23034970D01*
X33758541Y-23189097D01*
X33684955Y-23360787D01*
X33646118Y-23543500D01*
X33643510Y-23730277D01*
X31045456Y-23730277D01*
X35200963Y-21557831D01*
X35251052Y-21543089D01*
X42353248Y-21543089D01*
X42386968Y-21726815D01*
X42455732Y-21900493D01*
X42556920Y-22057506D01*
X42686679Y-22191875D01*
X42840065Y-22298482D01*
X43011237Y-22373265D01*
X43193674Y-22413376D01*
X43380428Y-22417288D01*
X43564386Y-22384852D01*
X43738539Y-22317302D01*
X43896255Y-22217212D01*
X44031527Y-22088395D01*
X44139201Y-21935756D01*
X44215178Y-21765111D01*
X44256562Y-21582958D01*
X44259541Y-21369603D01*
X44223259Y-21186365D01*
X44152077Y-21013665D01*
X44048706Y-20858079D01*
X43917084Y-20725535D01*
X43762224Y-20621080D01*
X43590025Y-20548694D01*
X43407045Y-20511134D01*
X43220255Y-20509830D01*
X43036768Y-20544832D01*
X42863575Y-20614807D01*
X42707272Y-20717089D01*
X42573812Y-20847782D01*
X42468279Y-21001909D01*
X42394693Y-21173599D01*
X42355856Y-21356312D01*
X42353248Y-21543089D01*
X35251052Y-21543089D01*
X39823555Y-20197328D01*
X44622367Y-19760602D01*
X49414614Y-20264287D01*
X49414614Y-20264287D01*
G37*
X49414614Y-20264287D02*
X54017760Y-21689199D01*
X58256473Y-23981062D01*
X61969301Y-27052581D01*
X65014825Y-30786763D01*
X67277042Y-35041372D01*
X68669783Y-39654354D01*
X69140000Y-44450000D01*
X69130374Y-45139385D01*
X68526438Y-49920032D01*
X67005437Y-54492328D01*
X64625308Y-58682114D01*
X61476707Y-62329803D01*
X57679564Y-65296456D01*
X53378511Y-67469075D01*
X49356109Y-68592149D01*
X49360060Y-68309202D01*
X49306351Y-68037953D01*
X49200980Y-67782302D01*
X49047958Y-67551987D01*
X48853116Y-67355780D01*
X48623875Y-67201155D01*
X48368966Y-67094001D01*
X48098098Y-67038399D01*
X47821590Y-67036469D01*
X47549972Y-67088283D01*
X47293592Y-67191867D01*
X47062214Y-67343277D01*
X46864651Y-67536744D01*
X46708429Y-67764901D01*
X46599498Y-68019056D01*
X46542008Y-68289528D01*
X46538147Y-68566017D01*
X46588063Y-68837989D01*
X46623525Y-68927555D01*
X43932932Y-69134585D01*
X43019995Y-69025724D01*
X43134255Y-68953212D01*
X43269527Y-68824395D01*
X43377201Y-68671756D01*
X43453178Y-68501111D01*
X43494562Y-68318958D01*
X43497541Y-68105603D01*
X43461259Y-67922365D01*
X43390077Y-67749665D01*
X43286706Y-67594079D01*
X43155084Y-67461535D01*
X43000224Y-67357080D01*
X42828025Y-67284694D01*
X42645045Y-67247134D01*
X42458255Y-67245830D01*
X42274768Y-67280832D01*
X42101575Y-67350807D01*
X41947985Y-67451314D01*
X41853116Y-67355780D01*
X41623875Y-67201155D01*
X41368966Y-67094001D01*
X41098098Y-67038399D01*
X40821590Y-67036469D01*
X40549972Y-67088283D01*
X40293592Y-67191867D01*
X40062214Y-67343277D01*
X39864651Y-67536744D01*
X39708429Y-67764901D01*
X39599498Y-68019056D01*
X39542008Y-68289528D01*
X39538147Y-68566017D01*
X39546501Y-68611535D01*
X39148185Y-68564039D01*
X34565382Y-67074996D01*
X33008198Y-66204715D01*
X35755498Y-66204715D01*
X35789218Y-66388441D01*
X35857982Y-66562119D01*
X35959170Y-66719132D01*
X36088929Y-66853501D01*
X36242315Y-66960108D01*
X36413487Y-67034891D01*
X36595924Y-67075002D01*
X36782678Y-67078914D01*
X36966636Y-67046478D01*
X37140789Y-66978928D01*
X37298505Y-66878838D01*
X37433777Y-66750021D01*
X37541451Y-66597382D01*
X37617428Y-66426737D01*
X37658812Y-66244584D01*
X37661791Y-66031229D01*
X37625509Y-65847991D01*
X37580880Y-65739711D01*
X40683930Y-65739711D01*
X40703564Y-65955453D01*
X40764729Y-66163273D01*
X40865095Y-66355255D01*
X41000838Y-66524086D01*
X41166790Y-66663336D01*
X41356627Y-66767700D01*
X41563121Y-66833204D01*
X41778405Y-66857352D01*
X41793903Y-66857460D01*
X42106097Y-66857460D01*
X42321697Y-66836320D01*
X42529085Y-66773706D01*
X42720362Y-66672003D01*
X42888241Y-66535084D01*
X43026329Y-66368164D01*
X43129365Y-66177602D01*
X43193426Y-65970656D01*
X43216070Y-65755209D01*
X43214660Y-65739711D01*
X45683930Y-65739711D01*
X45703564Y-65955453D01*
X45764729Y-66163273D01*
X45865095Y-66355255D01*
X46000838Y-66524086D01*
X46166790Y-66663336D01*
X46356627Y-66767700D01*
X46563121Y-66833204D01*
X46778405Y-66857352D01*
X46793903Y-66857460D01*
X47106097Y-66857460D01*
X47321697Y-66836320D01*
X47529085Y-66773706D01*
X47720362Y-66672003D01*
X47888241Y-66535084D01*
X48026329Y-66368164D01*
X48129365Y-66177602D01*
X48193426Y-65970656D01*
X48216070Y-65755209D01*
X48196436Y-65539467D01*
X48135271Y-65331647D01*
X48034905Y-65139665D01*
X48006302Y-65104089D01*
X48322248Y-65104089D01*
X48355968Y-65287815D01*
X48424732Y-65461493D01*
X48525920Y-65618506D01*
X48655679Y-65752875D01*
X48809065Y-65859482D01*
X48980237Y-65934265D01*
X49162674Y-65974376D01*
X49349428Y-65978288D01*
X49533386Y-65945852D01*
X49707539Y-65878302D01*
X49865255Y-65778212D01*
X50000527Y-65649395D01*
X50108201Y-65496756D01*
X50169940Y-65358089D01*
X50608248Y-65358089D01*
X50641968Y-65541815D01*
X50710732Y-65715493D01*
X50811920Y-65872506D01*
X50941679Y-66006875D01*
X51095065Y-66113482D01*
X51266237Y-66188265D01*
X51448674Y-66228376D01*
X51635428Y-66232288D01*
X51819386Y-66199852D01*
X51993539Y-66132302D01*
X52151255Y-66032212D01*
X52286527Y-65903395D01*
X52394201Y-65750756D01*
X52470178Y-65580111D01*
X52511562Y-65397958D01*
X52512512Y-65329901D01*
X53348986Y-65329901D01*
X53382706Y-65513627D01*
X53451470Y-65687305D01*
X53552658Y-65844318D01*
X53682417Y-65978687D01*
X53835803Y-66085294D01*
X54006975Y-66160077D01*
X54189412Y-66200188D01*
X54376166Y-66204100D01*
X54560124Y-66171664D01*
X54734277Y-66104114D01*
X54891993Y-66004024D01*
X55027265Y-65875207D01*
X55134939Y-65722568D01*
X55210916Y-65551923D01*
X55252300Y-65369770D01*
X55255279Y-65156415D01*
X55218997Y-64973177D01*
X55147815Y-64800477D01*
X55044444Y-64644891D01*
X54912822Y-64512347D01*
X54757962Y-64407892D01*
X54585763Y-64335506D01*
X54402783Y-64297946D01*
X54215993Y-64296642D01*
X54032506Y-64331644D01*
X53859313Y-64401619D01*
X53703010Y-64503901D01*
X53569550Y-64634594D01*
X53464017Y-64788721D01*
X53390431Y-64960411D01*
X53351594Y-65143124D01*
X53348986Y-65329901D01*
X52512512Y-65329901D01*
X52514541Y-65184603D01*
X52478259Y-65001365D01*
X52407077Y-64828665D01*
X52303706Y-64673079D01*
X52172084Y-64540535D01*
X52017224Y-64436080D01*
X51845025Y-64363694D01*
X51662045Y-64326134D01*
X51475255Y-64324830D01*
X51291768Y-64359832D01*
X51118575Y-64429807D01*
X50962272Y-64532089D01*
X50828812Y-64662782D01*
X50723279Y-64816909D01*
X50649693Y-64988599D01*
X50610856Y-65171312D01*
X50608248Y-65358089D01*
X50169940Y-65358089D01*
X50184178Y-65326111D01*
X50225562Y-65143958D01*
X50228541Y-64930603D01*
X50192259Y-64747365D01*
X50121077Y-64574665D01*
X50017706Y-64419079D01*
X49886084Y-64286535D01*
X49731224Y-64182080D01*
X49559025Y-64109694D01*
X49376045Y-64072134D01*
X49189255Y-64070830D01*
X49005768Y-64105832D01*
X48832575Y-64175807D01*
X48676272Y-64278089D01*
X48542812Y-64408782D01*
X48437279Y-64562909D01*
X48363693Y-64734599D01*
X48324856Y-64917312D01*
X48322248Y-65104089D01*
X48006302Y-65104089D01*
X47899162Y-64970834D01*
X47733210Y-64831584D01*
X47543373Y-64727220D01*
X47336879Y-64661716D01*
X47121595Y-64637568D01*
X47106097Y-64637460D01*
X46793903Y-64637460D01*
X46578303Y-64658600D01*
X46370915Y-64721214D01*
X46179638Y-64822917D01*
X46011759Y-64959836D01*
X45873671Y-65126756D01*
X45770635Y-65317318D01*
X45706574Y-65524264D01*
X45683930Y-65739711D01*
X43214660Y-65739711D01*
X43196436Y-65539467D01*
X43135271Y-65331647D01*
X43034905Y-65139665D01*
X42899162Y-64970834D01*
X42733210Y-64831584D01*
X42543373Y-64727220D01*
X42336879Y-64661716D01*
X42121595Y-64637568D01*
X42106097Y-64637460D01*
X41793903Y-64637460D01*
X41578303Y-64658600D01*
X41370915Y-64721214D01*
X41179638Y-64822917D01*
X41011759Y-64959836D01*
X40873671Y-65126756D01*
X40770635Y-65317318D01*
X40706574Y-65524264D01*
X40683930Y-65739711D01*
X37580880Y-65739711D01*
X37554327Y-65675291D01*
X37450956Y-65519705D01*
X37319334Y-65387161D01*
X37164474Y-65282706D01*
X36992275Y-65210320D01*
X36809295Y-65172760D01*
X36622505Y-65171456D01*
X36439018Y-65206458D01*
X36265825Y-65276433D01*
X36109522Y-65378715D01*
X35976062Y-65509408D01*
X35870529Y-65663535D01*
X35796943Y-65835225D01*
X35758106Y-66017938D01*
X35755498Y-66204715D01*
X33008198Y-66204715D01*
X30359082Y-64724174D01*
X29462461Y-63961089D01*
X37908248Y-63961089D01*
X37941968Y-64144815D01*
X38010732Y-64318493D01*
X38111920Y-64475506D01*
X38241679Y-64609875D01*
X38395065Y-64716482D01*
X38566237Y-64791265D01*
X38748674Y-64831376D01*
X38935428Y-64835288D01*
X39119386Y-64802852D01*
X39293539Y-64735302D01*
X39451255Y-64635212D01*
X39586527Y-64506395D01*
X39694201Y-64353756D01*
X39770178Y-64183111D01*
X39811562Y-64000958D01*
X39814541Y-63787603D01*
X39778259Y-63604365D01*
X39707077Y-63431665D01*
X39603706Y-63276079D01*
X39472084Y-63143535D01*
X39317224Y-63039080D01*
X39145025Y-62966694D01*
X38962045Y-62929134D01*
X38775255Y-62927830D01*
X38591768Y-62962832D01*
X38418575Y-63032807D01*
X38262272Y-63135089D01*
X38128812Y-63265782D01*
X38023279Y-63419909D01*
X37949693Y-63591599D01*
X37910856Y-63774312D01*
X37908248Y-63961089D01*
X29462461Y-63961089D01*
X26689500Y-61601115D01*
X26682733Y-61592576D01*
X28050207Y-61592576D01*
X28083927Y-61776302D01*
X28152691Y-61949980D01*
X28253879Y-62106993D01*
X28383638Y-62241362D01*
X28537024Y-62347969D01*
X28708196Y-62422752D01*
X28890633Y-62462863D01*
X29077387Y-62466775D01*
X29261345Y-62434339D01*
X29435498Y-62366789D01*
X29593214Y-62266699D01*
X29728486Y-62137882D01*
X29836160Y-61985243D01*
X29912137Y-61814598D01*
X29953521Y-61632445D01*
X29956500Y-61419090D01*
X29920218Y-61235852D01*
X29849036Y-61063152D01*
X29833713Y-61040089D01*
X40067248Y-61040089D01*
X40100968Y-61223815D01*
X40169732Y-61397493D01*
X40270920Y-61554506D01*
X40400679Y-61688875D01*
X40554065Y-61795482D01*
X40725237Y-61870265D01*
X40907674Y-61910376D01*
X41094428Y-61914288D01*
X41278386Y-61881852D01*
X41452539Y-61814302D01*
X41610255Y-61714212D01*
X41745527Y-61585395D01*
X41853201Y-61432756D01*
X41929178Y-61262111D01*
X41970562Y-61079958D01*
X41973541Y-60866603D01*
X41937259Y-60683365D01*
X41866077Y-60510665D01*
X41762706Y-60355079D01*
X41631084Y-60222535D01*
X41476224Y-60118080D01*
X41304025Y-60045694D01*
X41121045Y-60008134D01*
X40934255Y-60006830D01*
X40750768Y-60041832D01*
X40577575Y-60111807D01*
X40421272Y-60214089D01*
X40287812Y-60344782D01*
X40182279Y-60498909D01*
X40108693Y-60670599D01*
X40069856Y-60853312D01*
X40067248Y-61040089D01*
X29833713Y-61040089D01*
X29745665Y-60907566D01*
X29614043Y-60775022D01*
X29459183Y-60670567D01*
X29286984Y-60598181D01*
X29104004Y-60560621D01*
X28917214Y-60559317D01*
X28733727Y-60594319D01*
X28560534Y-60664294D01*
X28404231Y-60766576D01*
X28270771Y-60897269D01*
X28165238Y-61051396D01*
X28091652Y-61223086D01*
X28052815Y-61405799D01*
X28050207Y-61592576D01*
X26682733Y-61592576D01*
X25401554Y-59976130D01*
X60558735Y-59976130D01*
X60592455Y-60159856D01*
X60661219Y-60333534D01*
X60762407Y-60490547D01*
X60892166Y-60624916D01*
X61045552Y-60731523D01*
X61216724Y-60806306D01*
X61399161Y-60846417D01*
X61585915Y-60850329D01*
X61769873Y-60817893D01*
X61944026Y-60750343D01*
X62101742Y-60650253D01*
X62237014Y-60521436D01*
X62344688Y-60368797D01*
X62420665Y-60198152D01*
X62462049Y-60015999D01*
X62465028Y-59802644D01*
X62428746Y-59619406D01*
X62357564Y-59446706D01*
X62254193Y-59291120D01*
X62122571Y-59158576D01*
X61967711Y-59054121D01*
X61795512Y-58981735D01*
X61612532Y-58944175D01*
X61425742Y-58942871D01*
X61242255Y-58977873D01*
X61069062Y-59047848D01*
X60912759Y-59150130D01*
X60779299Y-59280823D01*
X60673766Y-59434950D01*
X60600180Y-59606640D01*
X60561343Y-59789353D01*
X60558735Y-59976130D01*
X25401554Y-59976130D01*
X24120374Y-58359683D01*
X29666654Y-58359683D01*
X29700374Y-58543409D01*
X29769138Y-58717087D01*
X29870326Y-58874100D01*
X30000085Y-59008469D01*
X30153471Y-59115076D01*
X30324643Y-59189859D01*
X30507080Y-59229970D01*
X30693834Y-59233882D01*
X30877792Y-59201446D01*
X31051945Y-59133896D01*
X31209661Y-59033806D01*
X31344933Y-58904989D01*
X31452607Y-58752350D01*
X31528584Y-58581705D01*
X31569968Y-58399552D01*
X31572947Y-58186197D01*
X31536665Y-58002959D01*
X31465483Y-57830259D01*
X31362112Y-57674673D01*
X31230490Y-57542129D01*
X31075630Y-57437674D01*
X30903431Y-57365288D01*
X30720451Y-57327728D01*
X30533661Y-57326424D01*
X30350174Y-57361426D01*
X30176981Y-57431401D01*
X30020678Y-57533683D01*
X29887218Y-57664376D01*
X29781685Y-57818503D01*
X29708099Y-57990193D01*
X29669262Y-58172906D01*
X29666654Y-58359683D01*
X24120374Y-58359683D01*
X23696411Y-57824776D01*
X23390784Y-57230089D01*
X51370248Y-57230089D01*
X51403968Y-57413815D01*
X51472732Y-57587493D01*
X51573920Y-57744506D01*
X51703679Y-57878875D01*
X51857065Y-57985482D01*
X52028237Y-58060265D01*
X52210674Y-58100376D01*
X52397428Y-58104288D01*
X52581386Y-58071852D01*
X52755539Y-58004302D01*
X52913255Y-57904212D01*
X53048527Y-57775395D01*
X53156201Y-57622756D01*
X53232178Y-57452111D01*
X53273562Y-57269958D01*
X53276541Y-57056603D01*
X53240259Y-56873365D01*
X53169077Y-56700665D01*
X53065706Y-56545079D01*
X52934084Y-56412535D01*
X52779224Y-56308080D01*
X52607025Y-56235694D01*
X52424045Y-56198134D01*
X52237255Y-56196830D01*
X52053768Y-56231832D01*
X51880575Y-56301807D01*
X51724272Y-56404089D01*
X51590812Y-56534782D01*
X51485279Y-56688909D01*
X51411693Y-56860599D01*
X51372856Y-57043312D01*
X51370248Y-57230089D01*
X23390784Y-57230089D01*
X21927490Y-54382827D01*
X22696436Y-54382827D01*
X22730156Y-54566553D01*
X22798920Y-54740231D01*
X22900108Y-54897244D01*
X23029867Y-55031613D01*
X23183253Y-55138220D01*
X23354425Y-55213003D01*
X23536862Y-55253114D01*
X23723616Y-55257026D01*
X23907574Y-55224590D01*
X24081727Y-55157040D01*
X24239443Y-55056950D01*
X24273594Y-55024428D01*
X26339664Y-55024428D01*
X26375633Y-55220403D01*
X26448981Y-55405659D01*
X26556915Y-55573140D01*
X26695324Y-55716467D01*
X26858936Y-55830180D01*
X27041520Y-55909949D01*
X27236119Y-55952734D01*
X27435324Y-55956907D01*
X27631545Y-55922308D01*
X27817308Y-55850255D01*
X27985539Y-55743493D01*
X28129828Y-55606088D01*
X28244681Y-55443273D01*
X28325723Y-55261251D01*
X28369866Y-55066955D01*
X28370459Y-55024428D01*
X32077664Y-55024428D01*
X32113633Y-55220403D01*
X32186981Y-55405659D01*
X32294915Y-55573140D01*
X32433324Y-55716467D01*
X32596936Y-55830180D01*
X32779520Y-55909949D01*
X32974119Y-55952734D01*
X33173324Y-55956907D01*
X33369545Y-55922308D01*
X33555308Y-55850255D01*
X33723539Y-55743493D01*
X33867828Y-55606088D01*
X33982681Y-55443273D01*
X34063723Y-55261251D01*
X34107866Y-55066955D01*
X34111044Y-54839376D01*
X34072343Y-54643923D01*
X33996415Y-54459709D01*
X33912330Y-54333150D01*
X42035832Y-54333150D01*
X42067304Y-54504627D01*
X42110871Y-54614665D01*
X42074514Y-54699493D01*
X42038266Y-54870025D01*
X42035832Y-55044350D01*
X42067304Y-55215827D01*
X42131483Y-55377926D01*
X42225926Y-55524472D01*
X42347034Y-55649883D01*
X42490194Y-55749382D01*
X42649955Y-55819180D01*
X42820230Y-55856617D01*
X42994533Y-55860268D01*
X43166226Y-55829994D01*
X43328769Y-55766948D01*
X43475971Y-55673531D01*
X43602224Y-55553301D01*
X43702721Y-55410839D01*
X43773632Y-55251570D01*
X43812257Y-55081560D01*
X43815038Y-54882429D01*
X43781174Y-54711408D01*
X43740941Y-54613795D01*
X43773632Y-54540370D01*
X43812257Y-54370360D01*
X43815038Y-54171229D01*
X43781174Y-54000208D01*
X43714738Y-53839021D01*
X43618259Y-53693808D01*
X43495411Y-53570100D01*
X43350876Y-53472609D01*
X43190156Y-53405049D01*
X43019375Y-53369993D01*
X42845038Y-53368775D01*
X42673784Y-53401444D01*
X42512137Y-53466753D01*
X42366254Y-53562217D01*
X42241692Y-53684197D01*
X42143194Y-53828049D01*
X42074514Y-53988293D01*
X42038266Y-54158825D01*
X42035832Y-54333150D01*
X33912330Y-54333150D01*
X33886153Y-54293751D01*
X33745756Y-54152371D01*
X33580572Y-54040953D01*
X33396893Y-53963741D01*
X33201715Y-53923677D01*
X33002472Y-53922286D01*
X32806753Y-53959621D01*
X32622014Y-54034261D01*
X32455290Y-54143361D01*
X32312933Y-54282768D01*
X32200364Y-54447170D01*
X32121872Y-54630306D01*
X32080446Y-54825200D01*
X32077664Y-55024428D01*
X28370459Y-55024428D01*
X28373044Y-54839376D01*
X28334343Y-54643923D01*
X28258415Y-54459709D01*
X28148153Y-54293751D01*
X28007756Y-54152371D01*
X27842572Y-54040953D01*
X27658893Y-53963741D01*
X27463715Y-53923677D01*
X27264472Y-53922286D01*
X27068753Y-53959621D01*
X26884014Y-54034261D01*
X26717290Y-54143361D01*
X26574933Y-54282768D01*
X26462364Y-54447170D01*
X26383872Y-54630306D01*
X26342446Y-54825200D01*
X26339664Y-55024428D01*
X24273594Y-55024428D01*
X24374715Y-54928133D01*
X24482389Y-54775494D01*
X24558366Y-54604849D01*
X24599750Y-54422696D01*
X24602729Y-54209341D01*
X24566447Y-54026103D01*
X24495265Y-53853403D01*
X24391894Y-53697817D01*
X24260272Y-53565273D01*
X24105412Y-53460818D01*
X23933213Y-53388432D01*
X23750233Y-53350872D01*
X23563443Y-53349568D01*
X23379956Y-53384570D01*
X23206763Y-53454545D01*
X23050460Y-53556827D01*
X22917000Y-53687520D01*
X22811467Y-53841647D01*
X22737881Y-54013337D01*
X22699044Y-54196050D01*
X22696436Y-54382827D01*
X21927490Y-54382827D01*
X21493819Y-53538995D01*
X21056709Y-52014612D01*
X25427012Y-52014612D01*
X25460732Y-52198338D01*
X25529496Y-52372016D01*
X25630684Y-52529029D01*
X25760443Y-52663398D01*
X25913829Y-52770005D01*
X26085001Y-52844788D01*
X26267438Y-52884899D01*
X26454192Y-52888811D01*
X26638150Y-52856375D01*
X26812303Y-52788825D01*
X26970019Y-52688735D01*
X27105291Y-52559918D01*
X27212965Y-52407279D01*
X27288942Y-52236634D01*
X27330326Y-52054481D01*
X27333305Y-51841126D01*
X27320099Y-51774428D01*
X29208664Y-51774428D01*
X29244633Y-51970403D01*
X29317981Y-52155659D01*
X29425915Y-52323140D01*
X29564324Y-52466467D01*
X29727936Y-52580180D01*
X29910520Y-52659949D01*
X30105119Y-52702734D01*
X30304324Y-52706907D01*
X30500545Y-52672308D01*
X30686308Y-52600255D01*
X30854539Y-52493493D01*
X30998828Y-52356088D01*
X31113681Y-52193273D01*
X31194723Y-52011251D01*
X31238866Y-51816955D01*
X31242044Y-51589376D01*
X31203343Y-51393923D01*
X31127415Y-51209709D01*
X31080721Y-51139428D01*
X50798664Y-51139428D01*
X50834633Y-51335403D01*
X50907981Y-51520659D01*
X51015915Y-51688140D01*
X51154324Y-51831467D01*
X51317936Y-51945180D01*
X51500520Y-52024949D01*
X51695119Y-52067734D01*
X51894324Y-52071907D01*
X52090545Y-52037308D01*
X52276308Y-51965255D01*
X52444539Y-51858493D01*
X52588828Y-51721088D01*
X52644555Y-51642089D01*
X55434248Y-51642089D01*
X55467968Y-51825815D01*
X55536732Y-51999493D01*
X55637920Y-52156506D01*
X55767679Y-52290875D01*
X55921065Y-52397482D01*
X56092237Y-52472265D01*
X56274674Y-52512376D01*
X56461428Y-52516288D01*
X56645386Y-52483852D01*
X56819539Y-52416302D01*
X56977255Y-52316212D01*
X57024901Y-52270839D01*
X65170874Y-52270839D01*
X65204594Y-52454565D01*
X65273358Y-52628243D01*
X65374546Y-52785256D01*
X65504305Y-52919625D01*
X65657691Y-53026232D01*
X65828863Y-53101015D01*
X66011300Y-53141126D01*
X66198054Y-53145038D01*
X66382012Y-53112602D01*
X66556165Y-53045052D01*
X66713881Y-52944962D01*
X66849153Y-52816145D01*
X66956827Y-52663506D01*
X67032804Y-52492861D01*
X67074188Y-52310708D01*
X67077167Y-52097353D01*
X67040885Y-51914115D01*
X66969703Y-51741415D01*
X66866332Y-51585829D01*
X66734710Y-51453285D01*
X66579850Y-51348830D01*
X66407651Y-51276444D01*
X66224671Y-51238884D01*
X66037881Y-51237580D01*
X65854394Y-51272582D01*
X65681201Y-51342557D01*
X65524898Y-51444839D01*
X65391438Y-51575532D01*
X65285905Y-51729659D01*
X65212319Y-51901349D01*
X65173482Y-52084062D01*
X65170874Y-52270839D01*
X57024901Y-52270839D01*
X57112527Y-52187395D01*
X57220201Y-52034756D01*
X57296178Y-51864111D01*
X57337562Y-51681958D01*
X57340541Y-51468603D01*
X57304259Y-51285365D01*
X57233077Y-51112665D01*
X57129706Y-50957079D01*
X56998084Y-50824535D01*
X56843224Y-50720080D01*
X56671025Y-50647694D01*
X56488045Y-50610134D01*
X56301255Y-50608830D01*
X56117768Y-50643832D01*
X55944575Y-50713807D01*
X55788272Y-50816089D01*
X55654812Y-50946782D01*
X55549279Y-51100909D01*
X55475693Y-51272599D01*
X55436856Y-51455312D01*
X55434248Y-51642089D01*
X52644555Y-51642089D01*
X52703681Y-51558273D01*
X52784723Y-51376251D01*
X52828866Y-51181955D01*
X52832044Y-50954376D01*
X52793343Y-50758923D01*
X52717415Y-50574709D01*
X52607153Y-50408751D01*
X52466756Y-50267371D01*
X52301572Y-50155953D01*
X52117893Y-50078741D01*
X51922715Y-50038677D01*
X51723472Y-50037286D01*
X51527753Y-50074621D01*
X51343014Y-50149261D01*
X51176290Y-50258361D01*
X51033933Y-50397768D01*
X50921364Y-50562170D01*
X50842872Y-50745306D01*
X50801446Y-50940200D01*
X50798664Y-51139428D01*
X31080721Y-51139428D01*
X31017153Y-51043751D01*
X30876756Y-50902371D01*
X30711572Y-50790953D01*
X30527893Y-50713741D01*
X30332715Y-50673677D01*
X30133472Y-50672286D01*
X29937753Y-50709621D01*
X29753014Y-50784261D01*
X29586290Y-50893361D01*
X29443933Y-51032768D01*
X29331364Y-51197170D01*
X29252872Y-51380306D01*
X29211446Y-51575200D01*
X29208664Y-51774428D01*
X27320099Y-51774428D01*
X27297023Y-51657888D01*
X27225841Y-51485188D01*
X27122470Y-51329602D01*
X26990848Y-51197058D01*
X26835988Y-51092603D01*
X26663789Y-51020217D01*
X26480809Y-50982657D01*
X26294019Y-50981353D01*
X26110532Y-51016355D01*
X25937339Y-51086330D01*
X25781036Y-51188612D01*
X25647576Y-51319305D01*
X25542043Y-51473432D01*
X25468457Y-51645122D01*
X25429620Y-51827835D01*
X25427012Y-52014612D01*
X21056709Y-52014612D01*
X20420081Y-49794428D01*
X26442664Y-49794428D01*
X26478633Y-49990403D01*
X26551981Y-50175659D01*
X26659915Y-50343140D01*
X26798324Y-50486467D01*
X26961936Y-50600180D01*
X27144520Y-50679949D01*
X27339119Y-50722734D01*
X27538324Y-50726907D01*
X27734545Y-50692308D01*
X27920308Y-50620255D01*
X28088539Y-50513493D01*
X28232828Y-50376088D01*
X28347681Y-50213273D01*
X28428723Y-50031251D01*
X28472866Y-49836955D01*
X28475959Y-49615428D01*
X34796664Y-49615428D01*
X34832633Y-49811403D01*
X34905981Y-49996659D01*
X35013915Y-50164140D01*
X35152324Y-50307467D01*
X35315936Y-50421180D01*
X35498520Y-50500949D01*
X35693119Y-50543734D01*
X35892324Y-50547907D01*
X36088545Y-50513308D01*
X36274308Y-50441255D01*
X36442539Y-50334493D01*
X36586828Y-50197088D01*
X36701681Y-50034273D01*
X36782723Y-49852251D01*
X36826866Y-49657955D01*
X36830044Y-49430376D01*
X36815335Y-49356089D01*
X39940248Y-49356089D01*
X39973968Y-49539815D01*
X40042732Y-49713493D01*
X40143920Y-49870506D01*
X40273679Y-50004875D01*
X40427065Y-50111482D01*
X40598237Y-50186265D01*
X40780674Y-50226376D01*
X40967428Y-50230288D01*
X41151386Y-50197852D01*
X41325539Y-50130302D01*
X41483255Y-50030212D01*
X41618527Y-49901395D01*
X41726201Y-49748756D01*
X41802178Y-49578111D01*
X41843562Y-49395958D01*
X41846541Y-49182603D01*
X41833054Y-49114490D01*
X41833539Y-49114302D01*
X41991255Y-49014212D01*
X42126527Y-48885395D01*
X42234201Y-48732756D01*
X42310178Y-48562111D01*
X42351562Y-48379958D01*
X42354541Y-48166603D01*
X42318259Y-47983365D01*
X42247077Y-47810665D01*
X42143706Y-47655079D01*
X42012084Y-47522535D01*
X41857224Y-47418080D01*
X41685025Y-47345694D01*
X41502045Y-47308134D01*
X41315255Y-47306830D01*
X41131768Y-47341832D01*
X40958575Y-47411807D01*
X40802272Y-47514089D01*
X40668812Y-47644782D01*
X40563279Y-47798909D01*
X40489693Y-47970599D01*
X40450856Y-48153312D01*
X40448248Y-48340089D01*
X40463396Y-48422627D01*
X40450575Y-48427807D01*
X40294272Y-48530089D01*
X40160812Y-48660782D01*
X40055279Y-48814909D01*
X39981693Y-48986599D01*
X39942856Y-49169312D01*
X39940248Y-49356089D01*
X36815335Y-49356089D01*
X36791343Y-49234923D01*
X36715415Y-49050709D01*
X36605153Y-48884751D01*
X36464756Y-48743371D01*
X36299572Y-48631953D01*
X36115893Y-48554741D01*
X35920715Y-48514677D01*
X35721472Y-48513286D01*
X35525753Y-48550621D01*
X35341014Y-48625261D01*
X35174290Y-48734361D01*
X35031933Y-48873768D01*
X34919364Y-49038170D01*
X34840872Y-49221306D01*
X34799446Y-49416200D01*
X34796664Y-49615428D01*
X28475959Y-49615428D01*
X28476044Y-49609376D01*
X28437343Y-49413923D01*
X28361415Y-49229709D01*
X28251153Y-49063751D01*
X28110756Y-48922371D01*
X27945572Y-48810953D01*
X27761893Y-48733741D01*
X27566715Y-48693677D01*
X27367472Y-48692286D01*
X27171753Y-48729621D01*
X26987014Y-48804261D01*
X26820290Y-48913361D01*
X26677933Y-49052768D01*
X26565364Y-49217170D01*
X26486872Y-49400306D01*
X26445446Y-49595200D01*
X26442664Y-49794428D01*
X20420081Y-49794428D01*
X20165620Y-48907018D01*
X20011370Y-47070089D01*
X47814248Y-47070089D01*
X47847968Y-47253815D01*
X47916732Y-47427493D01*
X48017920Y-47584506D01*
X48147679Y-47718875D01*
X48301065Y-47825482D01*
X48472237Y-47900265D01*
X48654674Y-47940376D01*
X48841428Y-47944288D01*
X49025386Y-47911852D01*
X49199539Y-47844302D01*
X49357255Y-47744212D01*
X49492527Y-47615395D01*
X49600201Y-47462756D01*
X49661940Y-47324089D01*
X50608248Y-47324089D01*
X50641968Y-47507815D01*
X50710732Y-47681493D01*
X50811920Y-47838506D01*
X50941679Y-47972875D01*
X51095065Y-48079482D01*
X51266237Y-48154265D01*
X51448674Y-48194376D01*
X51635428Y-48198288D01*
X51819386Y-48165852D01*
X51993539Y-48098302D01*
X52031692Y-48074089D01*
X53668248Y-48074089D01*
X53701968Y-48257815D01*
X53770732Y-48431493D01*
X53871920Y-48588506D01*
X54001679Y-48722875D01*
X54155065Y-48829482D01*
X54261290Y-48875890D01*
X54179692Y-48955797D01*
X54081194Y-49099649D01*
X54012514Y-49259893D01*
X53976266Y-49430425D01*
X53973832Y-49604750D01*
X54005304Y-49776227D01*
X54069483Y-49938326D01*
X54163926Y-50084872D01*
X54285034Y-50210283D01*
X54428194Y-50309782D01*
X54587955Y-50379580D01*
X54758230Y-50417017D01*
X54932533Y-50420668D01*
X55104226Y-50390394D01*
X55266769Y-50327348D01*
X55413971Y-50233931D01*
X55540224Y-50113701D01*
X55640721Y-49971239D01*
X55659133Y-49929884D01*
X58714719Y-49929884D01*
X58776141Y-50264545D01*
X58901396Y-50580902D01*
X59085713Y-50866906D01*
X59322071Y-51111662D01*
X59601468Y-51305848D01*
X59913261Y-51442067D01*
X60245575Y-51515131D01*
X60585752Y-51522257D01*
X60920833Y-51463173D01*
X61238058Y-51340130D01*
X61525341Y-51157814D01*
X61771741Y-50923170D01*
X61967873Y-50645136D01*
X62106266Y-50334301D01*
X62181648Y-50002505D01*
X62187074Y-49613874D01*
X62120986Y-49280103D01*
X61991326Y-48965526D01*
X61803034Y-48682123D01*
X61563282Y-48440691D01*
X61281201Y-48250425D01*
X60967536Y-48118572D01*
X60634234Y-48050156D01*
X60293992Y-48047780D01*
X59959767Y-48111537D01*
X59644292Y-48238997D01*
X59359582Y-48425306D01*
X59116482Y-48663367D01*
X58924251Y-48944113D01*
X58790212Y-49256850D01*
X58719470Y-49589666D01*
X58714719Y-49929884D01*
X55659133Y-49929884D01*
X55711632Y-49811970D01*
X55750257Y-49641960D01*
X55753038Y-49442829D01*
X55719174Y-49271808D01*
X55652738Y-49110621D01*
X55556259Y-48965408D01*
X55433411Y-48841700D01*
X55288876Y-48744209D01*
X55237942Y-48722798D01*
X55346527Y-48619395D01*
X55454201Y-48466756D01*
X55530178Y-48296111D01*
X55571562Y-48113958D01*
X55574541Y-47900603D01*
X55538259Y-47717365D01*
X55467077Y-47544665D01*
X55363706Y-47389079D01*
X55232084Y-47256535D01*
X55077224Y-47152080D01*
X54905025Y-47079694D01*
X54832223Y-47064750D01*
X57656832Y-47064750D01*
X57688304Y-47236227D01*
X57752483Y-47398326D01*
X57846926Y-47544872D01*
X57968034Y-47670283D01*
X58111194Y-47769782D01*
X58270955Y-47839580D01*
X58441230Y-47877017D01*
X58615533Y-47880668D01*
X58787226Y-47850394D01*
X58949769Y-47787348D01*
X59096971Y-47693931D01*
X59223224Y-47573701D01*
X59323721Y-47431239D01*
X59394632Y-47271970D01*
X59433257Y-47101960D01*
X59436038Y-46902829D01*
X59402174Y-46731808D01*
X59335738Y-46570621D01*
X59239259Y-46425408D01*
X59116411Y-46301700D01*
X58971876Y-46204209D01*
X58811156Y-46136649D01*
X58640375Y-46101593D01*
X58466038Y-46100375D01*
X58294784Y-46133044D01*
X58133137Y-46198353D01*
X57987254Y-46293817D01*
X57862692Y-46415797D01*
X57764194Y-46559649D01*
X57695514Y-46719893D01*
X57659266Y-46890425D01*
X57656832Y-47064750D01*
X54832223Y-47064750D01*
X54722045Y-47042134D01*
X54535255Y-47040830D01*
X54351768Y-47075832D01*
X54178575Y-47145807D01*
X54022272Y-47248089D01*
X53888812Y-47378782D01*
X53783279Y-47532909D01*
X53709693Y-47704599D01*
X53670856Y-47887312D01*
X53668248Y-48074089D01*
X52031692Y-48074089D01*
X52151255Y-47998212D01*
X52286527Y-47869395D01*
X52394201Y-47716756D01*
X52470178Y-47546111D01*
X52511562Y-47363958D01*
X52514541Y-47150603D01*
X52478259Y-46967365D01*
X52407077Y-46794665D01*
X52303706Y-46639079D01*
X52172084Y-46506535D01*
X52017224Y-46402080D01*
X51845025Y-46329694D01*
X51662045Y-46292134D01*
X51475255Y-46290830D01*
X51291768Y-46325832D01*
X51118575Y-46395807D01*
X50962272Y-46498089D01*
X50828812Y-46628782D01*
X50723279Y-46782909D01*
X50649693Y-46954599D01*
X50610856Y-47137312D01*
X50608248Y-47324089D01*
X49661940Y-47324089D01*
X49676178Y-47292111D01*
X49717562Y-47109958D01*
X49720541Y-46896603D01*
X49684259Y-46713365D01*
X49613077Y-46540665D01*
X49509706Y-46385079D01*
X49378084Y-46252535D01*
X49223224Y-46148080D01*
X49051025Y-46075694D01*
X48868045Y-46038134D01*
X48681255Y-46036830D01*
X48497768Y-46071832D01*
X48324575Y-46141807D01*
X48168272Y-46244089D01*
X48034812Y-46374782D01*
X47929279Y-46528909D01*
X47855693Y-46700599D01*
X47816856Y-46883312D01*
X47814248Y-47070089D01*
X20011370Y-47070089D01*
X19894060Y-45673089D01*
X20509248Y-45673089D01*
X20542968Y-45856815D01*
X20611732Y-46030493D01*
X20712920Y-46187506D01*
X20842679Y-46321875D01*
X20996065Y-46428482D01*
X21167237Y-46503265D01*
X21349674Y-46543376D01*
X21536428Y-46547288D01*
X21720386Y-46514852D01*
X21894539Y-46447302D01*
X22052255Y-46347212D01*
X22187527Y-46218395D01*
X22295201Y-46065756D01*
X22371178Y-45895111D01*
X22391553Y-45805428D01*
X37082664Y-45805428D01*
X37118633Y-46001403D01*
X37191981Y-46186659D01*
X37299915Y-46354140D01*
X37438324Y-46497467D01*
X37601936Y-46611180D01*
X37784520Y-46690949D01*
X37979119Y-46733734D01*
X38178324Y-46737907D01*
X38374545Y-46703308D01*
X38560308Y-46631255D01*
X38728539Y-46524493D01*
X38872828Y-46387088D01*
X38987681Y-46224273D01*
X39068723Y-46042251D01*
X39112866Y-45847955D01*
X39116044Y-45620376D01*
X39077343Y-45424923D01*
X39022593Y-45292089D01*
X50608248Y-45292089D01*
X50641968Y-45475815D01*
X50710732Y-45649493D01*
X50811920Y-45806506D01*
X50941679Y-45940875D01*
X51095065Y-46047482D01*
X51266237Y-46122265D01*
X51448674Y-46162376D01*
X51635428Y-46166288D01*
X51819386Y-46133852D01*
X51993539Y-46066302D01*
X52151255Y-45966212D01*
X52286527Y-45837395D01*
X52394201Y-45684756D01*
X52470178Y-45514111D01*
X52511562Y-45331958D01*
X52514541Y-45118603D01*
X52478259Y-44935365D01*
X52407077Y-44762665D01*
X52303706Y-44607079D01*
X52227252Y-44530089D01*
X54418248Y-44530089D01*
X54451968Y-44713815D01*
X54520732Y-44887493D01*
X54621920Y-45044506D01*
X54751679Y-45178875D01*
X54905065Y-45285482D01*
X55076237Y-45360265D01*
X55258674Y-45400376D01*
X55445428Y-45404288D01*
X55629386Y-45371852D01*
X55803539Y-45304302D01*
X55961255Y-45204212D01*
X56096527Y-45075395D01*
X56204201Y-44922756D01*
X56280178Y-44752111D01*
X56321562Y-44569958D01*
X56324541Y-44356603D01*
X56288259Y-44173365D01*
X56217077Y-44000665D01*
X56113706Y-43845079D01*
X55982084Y-43712535D01*
X55827224Y-43608080D01*
X55655025Y-43535694D01*
X55549773Y-43514089D01*
X58228248Y-43514089D01*
X58261968Y-43697815D01*
X58330732Y-43871493D01*
X58431920Y-44028506D01*
X58561679Y-44162875D01*
X58715065Y-44269482D01*
X58886237Y-44344265D01*
X59068674Y-44384376D01*
X59255428Y-44388288D01*
X59439386Y-44355852D01*
X59613539Y-44288302D01*
X59771255Y-44188212D01*
X59906527Y-44059395D01*
X60014201Y-43906756D01*
X60090178Y-43736111D01*
X60131562Y-43553958D01*
X60133891Y-43387089D01*
X66483248Y-43387089D01*
X66516968Y-43570815D01*
X66585732Y-43744493D01*
X66686920Y-43901506D01*
X66816679Y-44035875D01*
X66970065Y-44142482D01*
X67141237Y-44217265D01*
X67323674Y-44257376D01*
X67510428Y-44261288D01*
X67694386Y-44228852D01*
X67868539Y-44161302D01*
X68026255Y-44061212D01*
X68161527Y-43932395D01*
X68269201Y-43779756D01*
X68345178Y-43609111D01*
X68386562Y-43426958D01*
X68389541Y-43213603D01*
X68353259Y-43030365D01*
X68282077Y-42857665D01*
X68178706Y-42702079D01*
X68047084Y-42569535D01*
X67892224Y-42465080D01*
X67720025Y-42392694D01*
X67537045Y-42355134D01*
X67350255Y-42353830D01*
X67166768Y-42388832D01*
X66993575Y-42458807D01*
X66837272Y-42561089D01*
X66703812Y-42691782D01*
X66598279Y-42845909D01*
X66524693Y-43017599D01*
X66485856Y-43200312D01*
X66483248Y-43387089D01*
X60133891Y-43387089D01*
X60134541Y-43340603D01*
X60098259Y-43157365D01*
X60027077Y-42984665D01*
X59923706Y-42829079D01*
X59792084Y-42696535D01*
X59637224Y-42592080D01*
X59465025Y-42519694D01*
X59282045Y-42482134D01*
X59095255Y-42480830D01*
X58911768Y-42515832D01*
X58738575Y-42585807D01*
X58582272Y-42688089D01*
X58448812Y-42818782D01*
X58343279Y-42972909D01*
X58269693Y-43144599D01*
X58230856Y-43327312D01*
X58228248Y-43514089D01*
X55549773Y-43514089D01*
X55472045Y-43498134D01*
X55285255Y-43496830D01*
X55101768Y-43531832D01*
X54928575Y-43601807D01*
X54772272Y-43704089D01*
X54638812Y-43834782D01*
X54533279Y-43988909D01*
X54459693Y-44160599D01*
X54420856Y-44343312D01*
X54418248Y-44530089D01*
X52227252Y-44530089D01*
X52172084Y-44474535D01*
X52017224Y-44370080D01*
X51845025Y-44297694D01*
X51662045Y-44260134D01*
X51475255Y-44258830D01*
X51291768Y-44293832D01*
X51118575Y-44363807D01*
X50962272Y-44466089D01*
X50828812Y-44596782D01*
X50723279Y-44750909D01*
X50649693Y-44922599D01*
X50610856Y-45105312D01*
X50608248Y-45292089D01*
X39022593Y-45292089D01*
X39001415Y-45240709D01*
X38891153Y-45074751D01*
X38856006Y-45039358D01*
X38951527Y-44948395D01*
X39059201Y-44795756D01*
X39135178Y-44625111D01*
X39176562Y-44442958D01*
X39179541Y-44229603D01*
X39143259Y-44046365D01*
X39072077Y-43873665D01*
X38968706Y-43718079D01*
X38837084Y-43585535D01*
X38682224Y-43481080D01*
X38510025Y-43408694D01*
X38327045Y-43371134D01*
X38140255Y-43369830D01*
X37956768Y-43404832D01*
X37783575Y-43474807D01*
X37627272Y-43577089D01*
X37493812Y-43707782D01*
X37388279Y-43861909D01*
X37314693Y-44033599D01*
X37275856Y-44216312D01*
X37273248Y-44403089D01*
X37306968Y-44586815D01*
X37375732Y-44760493D01*
X37475094Y-44914673D01*
X37460290Y-44924361D01*
X37317933Y-45063768D01*
X37205364Y-45228170D01*
X37126872Y-45411306D01*
X37085446Y-45606200D01*
X37082664Y-45805428D01*
X22391553Y-45805428D01*
X22412562Y-45712958D01*
X22415541Y-45499603D01*
X22379259Y-45316365D01*
X22308077Y-45143665D01*
X22204706Y-44988079D01*
X22073084Y-44855535D01*
X21918224Y-44751080D01*
X21746025Y-44678694D01*
X21563045Y-44641134D01*
X21376255Y-44639830D01*
X21192768Y-44674832D01*
X21019575Y-44744807D01*
X20863272Y-44847089D01*
X20729812Y-44977782D01*
X20624279Y-45131909D01*
X20550693Y-45303599D01*
X20511856Y-45486312D01*
X20509248Y-45673089D01*
X19894060Y-45673089D01*
X19798080Y-44530089D01*
X23938248Y-44530089D01*
X23971968Y-44713815D01*
X24040732Y-44887493D01*
X24141920Y-45044506D01*
X24271679Y-45178875D01*
X24425065Y-45285482D01*
X24596237Y-45360265D01*
X24778674Y-45400376D01*
X24965428Y-45404288D01*
X25149386Y-45371852D01*
X25323539Y-45304302D01*
X25481255Y-45204212D01*
X25616527Y-45075395D01*
X25724201Y-44922756D01*
X25800178Y-44752111D01*
X25841562Y-44569958D01*
X25844541Y-44356603D01*
X25808259Y-44173365D01*
X25737077Y-44000665D01*
X25633706Y-43845079D01*
X25502084Y-43712535D01*
X25347224Y-43608080D01*
X25175025Y-43535694D01*
X24992045Y-43498134D01*
X24805255Y-43496830D01*
X24621768Y-43531832D01*
X24448575Y-43601807D01*
X24292272Y-43704089D01*
X24158812Y-43834782D01*
X24053279Y-43988909D01*
X23979693Y-44160599D01*
X23940856Y-44343312D01*
X23938248Y-44530089D01*
X19798080Y-44530089D01*
X19762407Y-44105274D01*
X20035018Y-41674884D01*
X26329719Y-41674884D01*
X26391141Y-42009545D01*
X26516396Y-42325902D01*
X26700713Y-42611906D01*
X26937071Y-42856662D01*
X27216468Y-43050848D01*
X27528261Y-43187067D01*
X27860575Y-43260131D01*
X28200752Y-43267257D01*
X28535833Y-43208173D01*
X28853058Y-43085130D01*
X29140341Y-42902814D01*
X29386741Y-42668170D01*
X29582873Y-42390136D01*
X29721266Y-42079301D01*
X29796648Y-41747505D01*
X29802074Y-41358874D01*
X29776179Y-41228089D01*
X49338248Y-41228089D01*
X49371968Y-41411815D01*
X49440732Y-41585493D01*
X49541920Y-41742506D01*
X49671679Y-41876875D01*
X49825065Y-41983482D01*
X49996237Y-42058265D01*
X50178674Y-42098376D01*
X50365428Y-42102288D01*
X50549386Y-42069852D01*
X50723539Y-42002302D01*
X50881255Y-41902212D01*
X51016527Y-41773395D01*
X51124201Y-41620756D01*
X51200178Y-41450111D01*
X51241562Y-41267958D01*
X51244541Y-41054603D01*
X51208259Y-40871365D01*
X51137077Y-40698665D01*
X51033706Y-40543079D01*
X50902084Y-40410535D01*
X50747224Y-40306080D01*
X50575025Y-40233694D01*
X50443763Y-40206750D01*
X51179832Y-40206750D01*
X51211304Y-40378227D01*
X51275483Y-40540326D01*
X51369926Y-40686872D01*
X51491034Y-40812283D01*
X51634194Y-40911782D01*
X51793955Y-40981580D01*
X51964230Y-41019017D01*
X52138533Y-41022668D01*
X52310226Y-40992394D01*
X52472769Y-40929348D01*
X52619971Y-40835931D01*
X52746224Y-40715701D01*
X52846721Y-40573239D01*
X52917632Y-40413970D01*
X52956257Y-40243960D01*
X52957149Y-40180083D01*
X58228248Y-40180083D01*
X58261968Y-40363809D01*
X58330732Y-40537487D01*
X58344259Y-40558477D01*
X58343279Y-40559909D01*
X58269693Y-40731599D01*
X58230856Y-40914312D01*
X58228248Y-41101089D01*
X58261968Y-41284815D01*
X58330732Y-41458493D01*
X58431920Y-41615506D01*
X58561679Y-41749875D01*
X58715065Y-41856482D01*
X58886237Y-41931265D01*
X59068674Y-41971376D01*
X59255428Y-41975288D01*
X59439386Y-41942852D01*
X59613539Y-41875302D01*
X59771255Y-41775212D01*
X59906527Y-41646395D01*
X60014201Y-41493756D01*
X60090178Y-41323111D01*
X60131562Y-41140958D01*
X60134541Y-40927603D01*
X60098259Y-40744365D01*
X60027077Y-40571665D01*
X60019657Y-40560497D01*
X60090178Y-40402105D01*
X60131562Y-40219952D01*
X60134541Y-40006597D01*
X60098259Y-39823359D01*
X60027077Y-39650659D01*
X59923706Y-39495073D01*
X59792084Y-39362529D01*
X59637224Y-39258074D01*
X59465025Y-39185688D01*
X59282045Y-39148128D01*
X59095255Y-39146824D01*
X58911768Y-39181826D01*
X58738575Y-39251801D01*
X58582272Y-39354083D01*
X58448812Y-39484776D01*
X58343279Y-39638903D01*
X58269693Y-39810593D01*
X58230856Y-39993306D01*
X58228248Y-40180083D01*
X52957149Y-40180083D01*
X52959038Y-40044829D01*
X52925174Y-39873808D01*
X52858738Y-39712621D01*
X52762259Y-39567408D01*
X52639411Y-39443700D01*
X52494876Y-39346209D01*
X52334156Y-39278649D01*
X52163375Y-39243593D01*
X51989038Y-39242375D01*
X51817784Y-39275044D01*
X51656137Y-39340353D01*
X51510254Y-39435817D01*
X51385692Y-39557797D01*
X51287194Y-39701649D01*
X51218514Y-39861893D01*
X51182266Y-40032425D01*
X51179832Y-40206750D01*
X50443763Y-40206750D01*
X50392045Y-40196134D01*
X50205255Y-40194830D01*
X50021768Y-40229832D01*
X49848575Y-40299807D01*
X49692272Y-40402089D01*
X49558812Y-40532782D01*
X49453279Y-40686909D01*
X49379693Y-40858599D01*
X49340856Y-41041312D01*
X49338248Y-41228089D01*
X29776179Y-41228089D01*
X29735986Y-41025103D01*
X29606326Y-40710526D01*
X29418034Y-40427123D01*
X29178282Y-40185691D01*
X28896201Y-39995425D01*
X28582536Y-39863572D01*
X28249234Y-39795156D01*
X27908992Y-39792780D01*
X27574767Y-39856537D01*
X27259292Y-39983997D01*
X26974582Y-40170306D01*
X26731482Y-40408367D01*
X26539251Y-40689113D01*
X26405212Y-41001850D01*
X26334470Y-41334666D01*
X26329719Y-41674884D01*
X20035018Y-41674884D01*
X20256078Y-39704089D01*
X40448248Y-39704089D01*
X40481968Y-39887815D01*
X40550732Y-40061493D01*
X40651920Y-40218506D01*
X40781679Y-40352875D01*
X40935065Y-40459482D01*
X41106237Y-40534265D01*
X41288674Y-40574376D01*
X41475428Y-40578288D01*
X41659386Y-40545852D01*
X41833539Y-40478302D01*
X41991255Y-40378212D01*
X42126527Y-40249395D01*
X42234201Y-40096756D01*
X42310178Y-39926111D01*
X42351562Y-39743958D01*
X42354541Y-39530603D01*
X42318259Y-39347365D01*
X42247077Y-39174665D01*
X42143706Y-39019079D01*
X42012084Y-38886535D01*
X41857224Y-38782080D01*
X41685025Y-38709694D01*
X41502045Y-38672134D01*
X41315255Y-38670830D01*
X41131768Y-38705832D01*
X40958575Y-38775807D01*
X40802272Y-38878089D01*
X40668812Y-39008782D01*
X40563279Y-39162909D01*
X40489693Y-39334599D01*
X40450856Y-39517312D01*
X40448248Y-39704089D01*
X20256078Y-39704089D01*
X20299536Y-39316660D01*
X21101249Y-36789339D01*
X21821622Y-36789339D01*
X21855342Y-36973065D01*
X21924106Y-37146743D01*
X22025294Y-37303756D01*
X22155053Y-37438125D01*
X22308439Y-37544732D01*
X22479611Y-37619515D01*
X22662048Y-37659626D01*
X22848802Y-37663538D01*
X23032760Y-37631102D01*
X23206913Y-37563552D01*
X23364629Y-37463462D01*
X23499901Y-37334645D01*
X23607575Y-37182006D01*
X23668322Y-37045566D01*
X25427012Y-37045566D01*
X25460732Y-37229292D01*
X25529496Y-37402970D01*
X25630684Y-37559983D01*
X25760443Y-37694352D01*
X25913829Y-37800959D01*
X26085001Y-37875742D01*
X26267438Y-37915853D01*
X26454192Y-37919765D01*
X26638150Y-37887329D01*
X26812303Y-37819779D01*
X26970019Y-37719689D01*
X27105291Y-37590872D01*
X27212965Y-37438233D01*
X27288942Y-37267588D01*
X27312456Y-37164089D01*
X39432248Y-37164089D01*
X39465968Y-37347815D01*
X39534732Y-37521493D01*
X39635920Y-37678506D01*
X39765679Y-37812875D01*
X39919065Y-37919482D01*
X40090237Y-37994265D01*
X40272674Y-38034376D01*
X40459428Y-38038288D01*
X40643386Y-38005852D01*
X40817539Y-37938302D01*
X40975255Y-37838212D01*
X41110527Y-37709395D01*
X41218201Y-37556756D01*
X41294178Y-37386111D01*
X41335562Y-37203958D01*
X41338541Y-36990603D01*
X41302259Y-36807365D01*
X41231077Y-36634665D01*
X41127706Y-36479079D01*
X40996084Y-36346535D01*
X40841224Y-36242080D01*
X40669025Y-36169694D01*
X40486045Y-36132134D01*
X40299255Y-36130830D01*
X40115768Y-36165832D01*
X39942575Y-36235807D01*
X39786272Y-36338089D01*
X39652812Y-36468782D01*
X39547279Y-36622909D01*
X39473693Y-36794599D01*
X39434856Y-36977312D01*
X39432248Y-37164089D01*
X27312456Y-37164089D01*
X27330326Y-37085435D01*
X27333305Y-36872080D01*
X27297023Y-36688842D01*
X27225841Y-36516142D01*
X27122470Y-36360556D01*
X26990848Y-36228012D01*
X26835988Y-36123557D01*
X26663789Y-36051171D01*
X26480809Y-36013611D01*
X26294019Y-36012307D01*
X26110532Y-36047309D01*
X25937339Y-36117284D01*
X25781036Y-36219566D01*
X25647576Y-36350259D01*
X25542043Y-36504386D01*
X25468457Y-36676076D01*
X25429620Y-36858789D01*
X25427012Y-37045566D01*
X23668322Y-37045566D01*
X23683552Y-37011361D01*
X23724936Y-36829208D01*
X23727915Y-36615853D01*
X23691633Y-36432615D01*
X23620451Y-36259915D01*
X23517080Y-36104329D01*
X23385458Y-35971785D01*
X23270270Y-35894089D01*
X48830248Y-35894089D01*
X48863968Y-36077815D01*
X48932732Y-36251493D01*
X49033920Y-36408506D01*
X49163679Y-36542875D01*
X49317065Y-36649482D01*
X49488237Y-36724265D01*
X49670674Y-36764376D01*
X49857428Y-36768288D01*
X50041386Y-36735852D01*
X50215539Y-36668302D01*
X50373255Y-36568212D01*
X50508527Y-36439395D01*
X50616201Y-36286756D01*
X50692178Y-36116111D01*
X50733562Y-35933958D01*
X50736541Y-35720603D01*
X50700259Y-35537365D01*
X50629077Y-35364665D01*
X50525706Y-35209079D01*
X50394084Y-35076535D01*
X50239224Y-34972080D01*
X50067025Y-34899694D01*
X49884045Y-34862134D01*
X49697255Y-34860830D01*
X49513768Y-34895832D01*
X49340575Y-34965807D01*
X49184272Y-35068089D01*
X49050812Y-35198782D01*
X48945279Y-35352909D01*
X48871693Y-35524599D01*
X48832856Y-35707312D01*
X48830248Y-35894089D01*
X23270270Y-35894089D01*
X23230598Y-35867330D01*
X23058399Y-35794944D01*
X22875419Y-35757384D01*
X22688629Y-35756080D01*
X22505142Y-35791082D01*
X22331949Y-35861057D01*
X22175646Y-35963339D01*
X22042186Y-36094032D01*
X21936653Y-36248159D01*
X21863067Y-36419849D01*
X21824230Y-36602562D01*
X21821622Y-36789339D01*
X21101249Y-36789339D01*
X21756548Y-34723574D01*
X21781959Y-34677351D01*
X64296060Y-34677351D01*
X64329780Y-34861077D01*
X64398544Y-35034755D01*
X64499732Y-35191768D01*
X64629491Y-35326137D01*
X64782877Y-35432744D01*
X64954049Y-35507527D01*
X65136486Y-35547638D01*
X65323240Y-35551550D01*
X65507198Y-35519114D01*
X65681351Y-35451564D01*
X65839067Y-35351474D01*
X65974339Y-35222657D01*
X66082013Y-35070018D01*
X66157990Y-34899373D01*
X66199374Y-34717220D01*
X66202353Y-34503865D01*
X66166071Y-34320627D01*
X66094889Y-34147927D01*
X65991518Y-33992341D01*
X65859896Y-33859797D01*
X65705036Y-33755342D01*
X65532837Y-33682956D01*
X65349857Y-33645396D01*
X65163067Y-33644092D01*
X64979580Y-33679094D01*
X64806387Y-33749069D01*
X64650084Y-33851351D01*
X64516624Y-33982044D01*
X64411091Y-34136171D01*
X64337505Y-34307861D01*
X64298668Y-34490574D01*
X64296060Y-34677351D01*
X21781959Y-34677351D01*
X22861458Y-32713750D01*
X39876832Y-32713750D01*
X39908304Y-32885227D01*
X39972483Y-33047326D01*
X40066926Y-33193872D01*
X40188034Y-33319283D01*
X40331194Y-33418782D01*
X40490955Y-33488580D01*
X40661230Y-33526017D01*
X40835533Y-33529668D01*
X41007226Y-33499394D01*
X41169769Y-33436348D01*
X41316971Y-33342931D01*
X41443224Y-33222701D01*
X41543721Y-33080239D01*
X41614632Y-32920970D01*
X41631644Y-32846089D01*
X54164248Y-32846089D01*
X54197968Y-33029815D01*
X54266732Y-33203493D01*
X54367920Y-33360506D01*
X54497679Y-33494875D01*
X54651065Y-33601482D01*
X54822237Y-33676265D01*
X55004674Y-33716376D01*
X55191428Y-33720288D01*
X55375386Y-33687852D01*
X55549539Y-33620302D01*
X55707255Y-33520212D01*
X55842527Y-33391395D01*
X55950201Y-33238756D01*
X56026178Y-33068111D01*
X56067562Y-32885958D01*
X56070541Y-32672603D01*
X56034259Y-32489365D01*
X55963077Y-32316665D01*
X55859706Y-32161079D01*
X55728084Y-32028535D01*
X55573224Y-31924080D01*
X55401025Y-31851694D01*
X55218045Y-31814134D01*
X55031255Y-31812830D01*
X54847768Y-31847832D01*
X54674575Y-31917807D01*
X54518272Y-32020089D01*
X54384812Y-32150782D01*
X54279279Y-32304909D01*
X54205693Y-32476599D01*
X54166856Y-32659312D01*
X54164248Y-32846089D01*
X41631644Y-32846089D01*
X41653257Y-32750960D01*
X41656038Y-32551829D01*
X41622174Y-32380808D01*
X41555738Y-32219621D01*
X41459259Y-32074408D01*
X41336411Y-31950700D01*
X41191876Y-31853209D01*
X41031156Y-31785649D01*
X40860375Y-31750593D01*
X40686038Y-31749375D01*
X40514784Y-31782044D01*
X40353137Y-31847353D01*
X40207254Y-31942817D01*
X40082692Y-32064797D01*
X39984194Y-32208649D01*
X39915514Y-32368893D01*
X39879266Y-32539425D01*
X39876832Y-32713750D01*
X22861458Y-32713750D01*
X23968255Y-30700495D01*
X29666654Y-30700495D01*
X29700374Y-30884221D01*
X29769138Y-31057899D01*
X29870326Y-31214912D01*
X30000085Y-31349281D01*
X30153471Y-31455888D01*
X30324643Y-31530671D01*
X30507080Y-31570782D01*
X30693834Y-31574694D01*
X30877792Y-31542258D01*
X31051945Y-31474708D01*
X31209661Y-31374618D01*
X31344933Y-31245801D01*
X31452607Y-31093162D01*
X31528584Y-30922517D01*
X31569968Y-30740364D01*
X31572947Y-30527009D01*
X31536665Y-30343771D01*
X31465483Y-30171071D01*
X31362112Y-30015485D01*
X31230490Y-29882941D01*
X31075630Y-29778486D01*
X30903431Y-29706100D01*
X30720451Y-29668540D01*
X30533661Y-29667236D01*
X30350174Y-29702238D01*
X30176981Y-29772213D01*
X30020678Y-29874495D01*
X29887218Y-30005188D01*
X29781685Y-30159315D01*
X29708099Y-30331005D01*
X29669262Y-30513718D01*
X29666654Y-30700495D01*
X23968255Y-30700495D01*
X24077948Y-30500965D01*
X25266882Y-29084048D01*
X26433761Y-29084048D01*
X26467481Y-29267774D01*
X26536245Y-29441452D01*
X26637433Y-29598465D01*
X26767192Y-29732834D01*
X26920578Y-29839441D01*
X27091750Y-29914224D01*
X27274187Y-29954335D01*
X27460941Y-29958247D01*
X27644899Y-29925811D01*
X27819052Y-29858261D01*
X27976768Y-29758171D01*
X28112040Y-29629354D01*
X28219714Y-29476715D01*
X28295691Y-29306070D01*
X28337075Y-29123917D01*
X28340054Y-28910562D01*
X28303772Y-28727324D01*
X28232590Y-28554624D01*
X28129219Y-28399038D01*
X27997597Y-28266494D01*
X27842737Y-28162039D01*
X27670538Y-28089653D01*
X27487558Y-28052093D01*
X27300768Y-28050789D01*
X27117281Y-28085791D01*
X26944088Y-28155766D01*
X26787785Y-28258048D01*
X26654325Y-28388741D01*
X26548792Y-28542868D01*
X26475206Y-28714558D01*
X26436369Y-28897271D01*
X26433761Y-29084048D01*
X25266882Y-29084048D01*
X26623241Y-27467602D01*
X58942289Y-27467602D01*
X58976009Y-27651328D01*
X59044773Y-27825006D01*
X59145961Y-27982019D01*
X59275720Y-28116388D01*
X59429106Y-28222995D01*
X59600278Y-28297778D01*
X59782715Y-28337889D01*
X59969469Y-28341801D01*
X60153427Y-28309365D01*
X60327580Y-28241815D01*
X60485296Y-28141725D01*
X60620568Y-28012908D01*
X60728242Y-27860269D01*
X60804219Y-27689624D01*
X60845603Y-27507471D01*
X60848582Y-27294116D01*
X60812300Y-27110878D01*
X60741118Y-26938178D01*
X60637747Y-26782592D01*
X60506125Y-26650048D01*
X60351265Y-26545593D01*
X60179066Y-26473207D01*
X59996086Y-26435647D01*
X59809296Y-26434343D01*
X59625809Y-26469345D01*
X59452616Y-26539320D01*
X59296313Y-26641602D01*
X59162853Y-26772295D01*
X59057320Y-26926422D01*
X58983734Y-27098112D01*
X58944897Y-27280825D01*
X58942289Y-27467602D01*
X26623241Y-27467602D01*
X27175312Y-26809670D01*
X27609152Y-26460853D01*
X36011725Y-26460853D01*
X36045445Y-26644579D01*
X36114209Y-26818257D01*
X36215397Y-26975270D01*
X36345156Y-27109639D01*
X36498542Y-27216246D01*
X36669714Y-27291029D01*
X36852151Y-27331140D01*
X37038905Y-27335052D01*
X37222863Y-27302616D01*
X37397016Y-27235066D01*
X37554732Y-27134976D01*
X37690004Y-27006159D01*
X37797678Y-26853520D01*
X37873655Y-26682875D01*
X37915039Y-26500722D01*
X37915595Y-26460853D01*
X50980771Y-26460853D01*
X51014491Y-26644579D01*
X51083255Y-26818257D01*
X51184443Y-26975270D01*
X51314202Y-27109639D01*
X51467588Y-27216246D01*
X51638760Y-27291029D01*
X51821197Y-27331140D01*
X52007951Y-27335052D01*
X52191909Y-27302616D01*
X52366062Y-27235066D01*
X52523778Y-27134976D01*
X52659050Y-27006159D01*
X52766724Y-26853520D01*
X52842701Y-26682875D01*
X52884085Y-26500722D01*
X52887064Y-26287367D01*
X52850782Y-26104129D01*
X52779600Y-25931429D01*
X52676229Y-25775843D01*
X52544607Y-25643299D01*
X52389747Y-25538844D01*
X52217548Y-25466458D01*
X52034568Y-25428898D01*
X51847778Y-25427594D01*
X51664291Y-25462596D01*
X51491098Y-25532571D01*
X51334795Y-25634853D01*
X51201335Y-25765546D01*
X51095802Y-25919673D01*
X51022216Y-26091363D01*
X50983379Y-26274076D01*
X50980771Y-26460853D01*
X37915595Y-26460853D01*
X37918018Y-26287367D01*
X37881736Y-26104129D01*
X37810554Y-25931429D01*
X37707183Y-25775843D01*
X37575561Y-25643299D01*
X37420701Y-25538844D01*
X37248502Y-25466458D01*
X37065522Y-25428898D01*
X36878732Y-25427594D01*
X36695245Y-25462596D01*
X36522052Y-25532571D01*
X36365749Y-25634853D01*
X36232289Y-25765546D01*
X36126756Y-25919673D01*
X36053170Y-26091363D01*
X36014333Y-26274076D01*
X36011725Y-26460853D01*
X27609152Y-26460853D01*
X29460801Y-24972089D01*
X43496248Y-24972089D01*
X43529968Y-25155815D01*
X43598732Y-25329493D01*
X43699920Y-25486506D01*
X43829679Y-25620875D01*
X43983065Y-25727482D01*
X44154237Y-25802265D01*
X44336674Y-25842376D01*
X44523428Y-25846288D01*
X44707386Y-25813852D01*
X44881539Y-25746302D01*
X45039255Y-25646212D01*
X45174527Y-25517395D01*
X45282201Y-25364756D01*
X45358178Y-25194111D01*
X45399562Y-25011958D01*
X45402541Y-24798603D01*
X45366259Y-24615365D01*
X45295077Y-24442665D01*
X45191706Y-24287079D01*
X45060084Y-24154535D01*
X44905224Y-24050080D01*
X44733025Y-23977694D01*
X44550045Y-23940134D01*
X44363255Y-23938830D01*
X44179768Y-23973832D01*
X44006575Y-24043807D01*
X43850272Y-24146089D01*
X43716812Y-24276782D01*
X43611279Y-24430909D01*
X43537693Y-24602599D01*
X43498856Y-24785312D01*
X43496248Y-24972089D01*
X29460801Y-24972089D01*
X30930664Y-23790289D01*
X31045456Y-23730277D01*
X33643510Y-23730277D01*
X33677230Y-23914003D01*
X33745994Y-24087681D01*
X33847182Y-24244694D01*
X33976941Y-24379063D01*
X34130327Y-24485670D01*
X34301499Y-24560453D01*
X34483936Y-24600564D01*
X34670690Y-24604476D01*
X34854648Y-24572040D01*
X35028801Y-24504490D01*
X35186517Y-24404400D01*
X35321789Y-24275583D01*
X35429463Y-24122944D01*
X35505440Y-23952299D01*
X35546824Y-23770146D01*
X35549803Y-23556791D01*
X35513521Y-23373553D01*
X35442339Y-23200853D01*
X35338968Y-23045267D01*
X35207346Y-22912723D01*
X35122456Y-22855463D01*
X51236998Y-22855463D01*
X51270718Y-23039189D01*
X51339482Y-23212867D01*
X51440670Y-23369880D01*
X51570429Y-23504249D01*
X51723815Y-23610856D01*
X51894987Y-23685639D01*
X52077424Y-23725750D01*
X52264178Y-23729662D01*
X52448136Y-23697226D01*
X52622289Y-23629676D01*
X52780005Y-23529586D01*
X52915277Y-23400769D01*
X53022951Y-23248130D01*
X53098928Y-23077485D01*
X53140312Y-22895332D01*
X53143291Y-22681977D01*
X53107009Y-22498739D01*
X53035827Y-22326039D01*
X52932456Y-22170453D01*
X52800834Y-22037909D01*
X52645974Y-21933454D01*
X52473775Y-21861068D01*
X52290795Y-21823508D01*
X52104005Y-21822204D01*
X51920518Y-21857206D01*
X51747325Y-21927181D01*
X51591022Y-22029463D01*
X51457562Y-22160156D01*
X51352029Y-22314283D01*
X51278443Y-22485973D01*
X51239606Y-22668686D01*
X51236998Y-22855463D01*
X35122456Y-22855463D01*
X35052486Y-22808268D01*
X34880287Y-22735882D01*
X34697307Y-22698322D01*
X34510517Y-22697018D01*
X34327030Y-22732020D01*
X34153837Y-22801995D01*
X33997534Y-22904277D01*
X33864074Y-23034970D01*
X33758541Y-23189097D01*
X33684955Y-23360787D01*
X33646118Y-23543500D01*
X33643510Y-23730277D01*
X31045456Y-23730277D01*
X35200963Y-21557831D01*
X35251052Y-21543089D01*
X42353248Y-21543089D01*
X42386968Y-21726815D01*
X42455732Y-21900493D01*
X42556920Y-22057506D01*
X42686679Y-22191875D01*
X42840065Y-22298482D01*
X43011237Y-22373265D01*
X43193674Y-22413376D01*
X43380428Y-22417288D01*
X43564386Y-22384852D01*
X43738539Y-22317302D01*
X43896255Y-22217212D01*
X44031527Y-22088395D01*
X44139201Y-21935756D01*
X44215178Y-21765111D01*
X44256562Y-21582958D01*
X44259541Y-21369603D01*
X44223259Y-21186365D01*
X44152077Y-21013665D01*
X44048706Y-20858079D01*
X43917084Y-20725535D01*
X43762224Y-20621080D01*
X43590025Y-20548694D01*
X43407045Y-20511134D01*
X43220255Y-20509830D01*
X43036768Y-20544832D01*
X42863575Y-20614807D01*
X42707272Y-20717089D01*
X42573812Y-20847782D01*
X42468279Y-21001909D01*
X42394693Y-21173599D01*
X42355856Y-21356312D01*
X42353248Y-21543089D01*
X35251052Y-21543089D01*
X39823555Y-20197328D01*
X44622367Y-19760602D01*
X49414614Y-20264287D01*
M02*
