  0
SECTION
  2
HEADER
  9
$ANGBASE
  50
0.0
  9
$ANGDIR
  70
  1
  9
$MEASUREMENT
  70
0
  0
ENDSEC
  0
SECTION
  2
TABLES
  0
TABLE
  2
LTYPE
  70
1
  0
LTYPE
  2
CONTINUOUS
  70
0
  3
Solid line
  72
65
  73
0
  40
0.0
  0
ENDTAB
  0
TABLE
  2
STYLE
  70
4
  0
STYLE
  2
KICAD
  70
0
  40
0
  41
1
  42
1
  50
0
  71
0
  3
isocp.shx
  0
STYLE
  2
KICADB
  70
0
  40
0
  41
1
  42
1
  50
0
  71
0
  3
isocp.shx
  0
STYLE
  2
KICADI
  70
0
  40
0
  41
1
  42
1
  50
15
  71
0
  3
isocp.shx
  0
STYLE
  2
KICADBI
  70
0
  40
0
  41
1
  42
1
  50
15
  71
0
  3
isocp.shx
  0
ENDTAB
  0
TABLE
  2
LAYER
  70
30
  0
LAYER
  2
BLACK
  70
0
  62
7
  6
CONTINUOUS
  0
LAYER
  2
GRAY1
  70
0
  62
251
  6
CONTINUOUS
  0
LAYER
  2
GRAY2
  70
0
  62
8
  6
CONTINUOUS
  0
LAYER
  2
GRAY3
  70
0
  62
9
  6
CONTINUOUS
  0
LAYER
  2
WHITE
  70
0
  62
7
  6
CONTINUOUS
  0
LAYER
  2
LYELLOW
  70
0
  62
51
  6
CONTINUOUS
  0
LAYER
  2
BLUE1
  70
0
  62
178
  6
CONTINUOUS
  0
LAYER
  2
GREEN1
  70
0
  62
98
  6
CONTINUOUS
  0
LAYER
  2
CYAN1
  70
0
  62
138
  6
CONTINUOUS
  0
LAYER
  2
RED1
  70
0
  62
18
  6
CONTINUOUS
  0
LAYER
  2
MAGENTA1
  70
0
  62
228
  6
CONTINUOUS
  0
LAYER
  2
BROWN1
  70
0
  62
58
  6
CONTINUOUS
  0
LAYER
  2
BLUE2
  70
0
  62
5
  6
CONTINUOUS
  0
LAYER
  2
GREEN2
  70
0
  62
3
  6
CONTINUOUS
  0
LAYER
  2
CYAN2
  70
0
  62
4
  6
CONTINUOUS
  0
LAYER
  2
RED2
  70
0
  62
1
  6
CONTINUOUS
  0
LAYER
  2
MAGENTA2
  70
0
  62
6
  6
CONTINUOUS
  0
LAYER
  2
BROWN2
  70
0
  62
54
  6
CONTINUOUS
  0
LAYER
  2
BLUE3
  70
0
  62
171
  6
CONTINUOUS
  0
LAYER
  2
GREEN3
  70
0
  62
91
  6
CONTINUOUS
  0
LAYER
  2
CYAN3
  70
0
  62
131
  6
CONTINUOUS
  0
LAYER
  2
RED3
  70
0
  62
11
  6
CONTINUOUS
  0
LAYER
  2
MAGENTA3
  70
0
  62
221
  6
CONTINUOUS
  0
LAYER
  2
YELLOW3
  70
0
  62
2
  6
CONTINUOUS
  0
LAYER
  2
BLUE4
  70
0
  62
5
  6
CONTINUOUS
  0
LAYER
  2
GREEN4
  70
0
  62
3
  6
CONTINUOUS
  0
LAYER
  2
CYAN4
  70
0
  62
4
  6
CONTINUOUS
  0
LAYER
  2
RED4
  70
0
  62
1
  6
CONTINUOUS
  0
LAYER
  2
MAGENTA4
  70
0
  62
6
  6
CONTINUOUS
  0
LAYER
  2
YELLOW4
  70
0
  62
2
  6
CONTINUOUS
  0
ENDTAB
  0
ENDSEC
  0
SECTION
  2
ENTITIES
0
LINE
8
Black
10
48.1184
20
-65.2292
11
48.2665
21
-65.3148
0
LINE
8
Black
10
48.2665
20
-65.3148
11
48.3765
21
-65.4458
0
LINE
8
Black
10
48.3765
20
-65.4458
11
48.435
21
-65.6065
0
LINE
8
Black
10
48.435
20
-65.6065
11
48.435
21
-65.7775
0
LINE
8
Black
10
48.435
20
-65.7775
11
48.3765
21
-65.9382
0
LINE
8
Black
10
48.3765
20
-65.9382
11
48.2665
21
-66.0692
0
LINE
8
Black
10
48.2665
20
-66.0692
11
48.1184
21
-66.1548
0
LINE
8
Black
10
48.1184
20
-66.1548
11
47.95
21
-66.1844
0
LINE
8
Black
10
47.95
20
-66.1844
11
47.7816
21
-66.1548
0
LINE
8
Black
10
47.7816
20
-66.1548
11
47.6335
21
-66.0692
0
LINE
8
Black
10
47.6335
20
-66.0692
11
47.5235
21
-65.9382
0
LINE
8
Black
10
47.5235
20
-65.9382
11
47.465
21
-65.7775
0
LINE
8
Black
10
47.465
20
-65.7775
11
47.465
21
-65.6065
0
LINE
8
Black
10
47.465
20
-65.6065
11
47.5235
21
-65.4458
0
LINE
8
Black
10
47.5235
20
-65.4458
11
47.6335
21
-65.3148
0
LINE
8
Black
10
47.6335
20
-65.3148
11
47.7816
21
-65.2292
0
LINE
8
Black
10
47.7816
20
-65.2292
11
47.95
21
-65.1996
0
LINE
8
Black
10
47.95
20
-65.1996
11
48.1184
21
-65.2292
0
LINE
8
Black
10
41.1184
20
-65.2292
11
41.2665
21
-65.3148
0
LINE
8
Black
10
41.2665
20
-65.3148
11
41.3765
21
-65.4458
0
LINE
8
Black
10
41.3765
20
-65.4458
11
41.435
21
-65.6065
0
LINE
8
Black
10
41.435
20
-65.6065
11
41.435
21
-65.7775
0
LINE
8
Black
10
41.435
20
-65.7775
11
41.3765
21
-65.9382
0
LINE
8
Black
10
41.3765
20
-65.9382
11
41.2665
21
-66.0692
0
LINE
8
Black
10
41.2665
20
-66.0692
11
41.1184
21
-66.1548
0
LINE
8
Black
10
41.1184
20
-66.1548
11
40.95
21
-66.1844
0
LINE
8
Black
10
40.95
20
-66.1844
11
40.7816
21
-66.1548
0
LINE
8
Black
10
40.7816
20
-66.1548
11
40.6335
21
-66.0692
0
LINE
8
Black
10
40.6335
20
-66.0692
11
40.5235
21
-65.9382
0
LINE
8
Black
10
40.5235
20
-65.9382
11
40.465
21
-65.7775
0
LINE
8
Black
10
40.465
20
-65.7775
11
40.465
21
-65.6065
0
LINE
8
Black
10
40.465
20
-65.6065
11
40.5235
21
-65.4458
0
LINE
8
Black
10
40.5235
20
-65.4458
11
40.6335
21
-65.3148
0
LINE
8
Black
10
40.6335
20
-65.3148
11
40.7816
21
-65.2292
0
LINE
8
Black
10
40.7816
20
-65.2292
11
40.95
21
-65.1996
0
LINE
8
Black
10
40.95
20
-65.1996
11
41.1184
21
-65.2292
0
LINE
8
Black
10
43.2766
20
-63.4193
11
43.0234
21
-63.4193
0
LINE
8
Black
10
43.0234
20
-63.4193
11
43.0234
21
-62.5647
0
LINE
8
Black
10
43.0234
20
-62.5647
11
43.2766
21
-62.5647
0
LINE
8
Black
10
43.2766
20
-62.5647
11
43.2766
21
-63.4193
0
LINE
8
Black
10
43.9266
20
-63.4193
11
43.6734
21
-63.4193
0
LINE
8
Black
10
43.6734
20
-63.4193
11
43.6734
21
-62.5647
0
LINE
8
Black
10
43.6734
20
-62.5647
11
43.9266
21
-62.5647
0
LINE
8
Black
10
43.9266
20
-62.5647
11
43.9266
21
-63.4193
0
LINE
8
Black
10
44.5766
20
-63.4193
11
44.3234
21
-63.4193
0
LINE
8
Black
10
44.3234
20
-63.4193
11
44.3234
21
-62.5647
0
LINE
8
Black
10
44.3234
20
-62.5647
11
44.5766
21
-62.5647
0
LINE
8
Black
10
44.5766
20
-62.5647
11
44.5766
21
-63.4193
0
LINE
8
Black
10
45.2266
20
-63.4193
11
44.9734
21
-63.4193
0
LINE
8
Black
10
44.9734
20
-63.4193
11
44.9734
21
-62.5647
0
LINE
8
Black
10
44.9734
20
-62.5647
11
45.2266
21
-62.5647
0
LINE
8
Black
10
45.2266
20
-62.5647
11
45.2266
21
-63.4193
0
LINE
8
Black
10
45.8766
20
-63.4193
11
45.6234
21
-63.4193
0
LINE
8
Black
10
45.6234
20
-63.4193
11
45.6234
21
-62.5647
0
LINE
8
Black
10
45.6234
20
-62.5647
11
45.8766
21
-62.5647
0
LINE
8
Black
10
45.8766
20
-62.5647
11
45.8766
21
-63.4193
0
LINE
8
Black
10
42.2046
20
-62.7095
11
42.295
21
-62.7617
0
LINE
8
Black
10
42.295
20
-62.7617
11
42.3621
21
-62.8417
0
LINE
8
Black
10
42.3621
20
-62.8417
11
42.3978
21
-62.9398
0
LINE
8
Black
10
42.3978
20
-62.9398
11
42.3978
21
-63.0442
0
LINE
8
Black
10
42.3978
20
-63.0442
11
42.3621
21
-63.1423
0
LINE
8
Black
10
42.3621
20
-63.1423
11
42.295
21
-63.2223
0
LINE
8
Black
10
42.295
20
-63.2223
11
42.2046
21
-63.2745
0
LINE
8
Black
10
42.2046
20
-63.2745
11
42.1017
21
-63.2927
0
LINE
8
Black
10
42.1017
20
-63.2927
11
41.7983
21
-63.2927
0
LINE
8
Black
10
41.7983
20
-63.2927
11
41.6954
21
-63.2745
0
LINE
8
Black
10
41.6954
20
-63.2745
11
41.605
21
-63.2223
0
LINE
8
Black
10
41.605
20
-63.2223
11
41.5379
21
-63.1423
0
LINE
8
Black
10
41.5379
20
-63.1423
11
41.5022
21
-63.0442
0
LINE
8
Black
10
41.5022
20
-63.0442
11
41.5022
21
-62.9398
0
LINE
8
Black
10
41.5022
20
-62.9398
11
41.5379
21
-62.8417
0
LINE
8
Black
10
41.5379
20
-62.8417
11
41.605
21
-62.7617
0
LINE
8
Black
10
41.605
20
-62.7617
11
41.6954
21
-62.7095
0
LINE
8
Black
10
41.6954
20
-62.7095
11
41.7983
21
-62.6913
0
LINE
8
Black
10
41.7983
20
-62.6913
11
42.1017
21
-62.6913
0
LINE
8
Black
10
42.1017
20
-62.6913
11
42.2046
21
-62.7095
0
LINE
8
Black
10
47.2046
20
-62.7095
11
47.295
21
-62.7617
0
LINE
8
Black
10
47.295
20
-62.7617
11
47.3621
21
-62.8417
0
LINE
8
Black
10
47.3621
20
-62.8417
11
47.3978
21
-62.9398
0
LINE
8
Black
10
47.3978
20
-62.9398
11
47.3978
21
-63.0442
0
LINE
8
Black
10
47.3978
20
-63.0442
11
47.3621
21
-63.1423
0
LINE
8
Black
10
47.3621
20
-63.1423
11
47.295
21
-63.2223
0
LINE
8
Black
10
47.295
20
-63.2223
11
47.2046
21
-63.2745
0
LINE
8
Black
10
47.2046
20
-63.2745
11
47.1017
21
-63.2927
0
LINE
8
Black
10
47.1017
20
-63.2927
11
46.7983
21
-63.2927
0
LINE
8
Black
10
46.7983
20
-63.2927
11
46.6954
21
-63.2745
0
LINE
8
Black
10
46.6954
20
-63.2745
11
46.605
21
-63.2223
0
LINE
8
Black
10
46.605
20
-63.2223
11
46.5379
21
-63.1423
0
LINE
8
Black
10
46.5379
20
-63.1423
11
46.5022
21
-63.0442
0
LINE
8
Black
10
46.5022
20
-63.0442
11
46.5022
21
-62.9398
0
LINE
8
Black
10
46.5022
20
-62.9398
11
46.5379
21
-62.8417
0
LINE
8
Black
10
46.5379
20
-62.8417
11
46.605
21
-62.7617
0
LINE
8
Black
10
46.605
20
-62.7617
11
46.6954
21
-62.7095
0
LINE
8
Black
10
46.6954
20
-62.7095
11
46.7983
21
-62.6913
0
LINE
8
Black
10
46.7983
20
-62.6913
11
47.1017
21
-62.6913
0
LINE
8
Black
10
47.1017
20
-62.6913
11
47.2046
21
-62.7095
0
LINE
8
Black
10
50.7038
20
-62.8842
11
50.1341
21
-62.8842
0
LINE
8
Black
10
50.1341
20
-62.8842
11
50.1341
21
-62.5677
0
LINE
8
Black
10
50.1341
20
-62.5677
11
50.7038
21
-62.5677
0
LINE
8
Black
10
50.7038
20
-62.5677
11
50.7038
21
-62.8842
0
LINE
8
Black
10
57.8271
20
-61.6652
11
57.1109
21
-62.3814
0
LINE
8
Black
10
57.1109
20
-62.3814
11
55.5891
21
-60.8595
0
LINE
8
Black
10
55.5891
20
-60.8595
11
56.3052
21
-60.1434
0
LINE
8
Black
10
56.3052
20
-60.1434
11
57.8271
21
-61.6652
0
LINE
8
Black
10
50.7038
20
-61.3842
11
50.1341
21
-61.3842
0
LINE
8
Black
10
50.1341
20
-61.3842
11
50.1341
21
-61.0677
0
LINE
8
Black
10
50.1341
20
-61.0677
11
50.7038
21
-61.0677
0
LINE
8
Black
10
50.7038
20
-61.0677
11
50.7038
21
-61.3842
0
LINE
8
Black
10
31.5932
20
-60.6678
11
31.2352
21
-61.0259
0
LINE
8
Black
10
31.2352
20
-61.0259
11
31.0561
21
-60.8468
0
LINE
8
Black
10
31.0561
20
-60.8468
11
31.4142
21
-60.4887
0
LINE
8
Black
10
31.4142
20
-60.4887
11
31.5932
21
-60.6678
0
LINE
8
Black
10
32.6315
20
-58.1705
11
32.2734
21
-58.5286
0
LINE
8
Black
10
32.2734
20
-58.5286
11
32.1392
21
-58.3943
0
LINE
8
Black
10
32.1392
20
-58.3943
11
32.4972
21
-58.0362
0
LINE
8
Black
10
32.4972
20
-58.0362
11
32.6315
21
-58.1705
0
LINE
8
Black
10
32.278
20
-57.817
11
31.9199
21
-58.175
0
LINE
8
Black
10
31.9199
20
-58.175
11
31.7856
21
-58.0408
0
LINE
8
Black
10
31.7856
20
-58.0408
11
32.1437
21
-57.6827
0
LINE
8
Black
10
32.1437
20
-57.6827
11
32.278
21
-57.817
0
LINE
8
Black
10
28.4113
20
-57.4858
11
28.0532
21
-57.8439
0
LINE
8
Black
10
28.0532
20
-57.8439
11
27.8741
21
-57.6648
0
LINE
8
Black
10
27.8741
20
-57.6648
11
28.2322
21
-57.3068
0
LINE
8
Black
10
28.2322
20
-57.3068
11
28.4113
21
-57.4858
0
LINE
8
Black
10
31.9244
20
-57.4634
11
31.5663
21
-57.8215
0
LINE
8
Black
10
31.5663
20
-57.8215
11
31.4321
21
-57.6872
0
LINE
8
Black
10
31.4321
20
-57.6872
11
31.7901
21
-57.3291
0
LINE
8
Black
10
31.7901
20
-57.3291
11
31.9244
21
-57.4634
0
LINE
8
Black
10
62.6354
20
-56.8569
11
61.9192
21
-57.5731
0
LINE
8
Black
10
61.9192
20
-57.5731
11
60.3974
21
-56.0512
0
LINE
8
Black
10
60.3974
20
-56.0512
11
61.1135
21
-55.3351
0
LINE
8
Black
10
61.1135
20
-55.3351
11
62.6354
21
-56.8569
0
LINE
8
Black
10
31.5709
20
-57.1099
11
31.2128
21
-57.4679
0
LINE
8
Black
10
31.2128
20
-57.4679
11
31.0785
21
-57.3337
0
LINE
8
Black
10
31.0785
20
-57.3337
11
31.4366
21
-56.9756
0
LINE
8
Black
10
31.4366
20
-56.9756
11
31.5709
21
-57.1099
0
LINE
8
Black
10
31.2173
20
-56.7563
11
30.8592
21
-57.1144
0
LINE
8
Black
10
30.8592
20
-57.1144
11
30.725
21
-56.9801
0
LINE
8
Black
10
30.725
20
-56.9801
11
31.083
21
-56.622
0
LINE
8
Black
10
31.083
20
-56.622
11
31.2173
21
-56.7563
0
LINE
8
Black
10
30.8638
20
-56.4028
11
30.5057
21
-56.7608
0
LINE
8
Black
10
30.5057
20
-56.7608
11
30.3714
21
-56.6266
0
LINE
8
Black
10
30.3714
20
-56.6266
11
30.7295
21
-56.2685
0
LINE
8
Black
10
30.7295
20
-56.2685
11
30.8638
21
-56.4028
0
LINE
8
Black
10
55.4878
20
-56.2004
11
55.0402
21
-56.648
0
LINE
8
Black
10
55.0402
20
-56.648
11
53.4736
21
-55.0814
0
LINE
8
Black
10
53.4736
20
-55.0814
11
53.9212
21
-54.6338
0
LINE
8
Black
10
53.9212
20
-54.6338
11
55.4878
21
-56.2004
0
LINE
8
Black
10
41.5326
20
-55.4431
11
41.0894
21
-55.4431
0
LINE
8
Black
10
41.0894
20
-55.4431
11
41.0894
21
-55.2849
0
LINE
8
Black
10
41.0894
20
-55.2849
11
41.5326
21
-55.2849
0
LINE
8
Black
10
41.5326
20
-55.2849
11
41.5326
21
-55.4431
0
LINE
8
Black
10
39.6825
20
-55.4431
11
39.2394
21
-55.4431
0
LINE
8
Black
10
39.2394
20
-55.4431
11
39.2394
21
-55.2849
0
LINE
8
Black
10
39.2394
20
-55.2849
11
39.6825
21
-55.2849
0
LINE
8
Black
10
39.6825
20
-55.2849
11
39.6825
21
-55.4431
0
LINE
8
Black
10
40.569
20
-55.432
11
40.203
21
-55.432
0
LINE
8
Black
10
40.203
20
-55.432
11
40.203
21
-55.006
0
LINE
8
Black
10
40.203
20
-55.006
11
40.569
21
-55.006
0
LINE
8
Black
10
40.569
20
-55.006
11
40.569
21
-55.432
0
LINE
8
Black
10
56.902
20
-54.7862
11
56.4544
21
-55.2338
0
LINE
8
Black
10
56.4544
20
-55.2338
11
54.8878
21
-53.6672
0
LINE
8
Black
10
54.8878
20
-53.6672
11
55.3354
21
-53.2196
0
LINE
8
Black
10
55.3354
20
-53.2196
11
56.902
21
-54.7862
0
LINE
8
Black
10
48.0237
20
-55.0295
11
47.6123
21
-55.0295
0
LINE
8
Black
10
47.6123
20
-55.0295
11
47.6123
21
-54.3585
0
LINE
8
Black
10
47.6123
20
-54.3585
11
48.0237
21
-54.3585
0
LINE
8
Black
10
48.0237
20
-54.3585
11
48.0237
21
-55.0295
0
LINE
8
Black
10
49.9237
20
-55.0295
11
49.5123
21
-55.0295
0
LINE
8
Black
10
49.5123
20
-55.0295
11
49.5123
21
-54.3585
0
LINE
8
Black
10
49.5123
20
-54.3585
11
49.9237
21
-54.3585
0
LINE
8
Black
10
49.9237
20
-54.3585
11
49.9237
21
-55.0295
0
LINE
8
Black
10
41.5326
20
-54.9431
11
41.0894
21
-54.9431
0
LINE
8
Black
10
41.0894
20
-54.9431
11
41.0894
21
-54.7849
0
LINE
8
Black
10
41.0894
20
-54.7849
11
41.5326
21
-54.7849
0
LINE
8
Black
10
41.5326
20
-54.7849
11
41.5326
21
-54.9431
0
LINE
8
Black
10
39.6825
20
-54.9431
11
39.2394
21
-54.9431
0
LINE
8
Black
10
39.2394
20
-54.9431
11
39.2394
21
-54.7849
0
LINE
8
Black
10
39.2394
20
-54.7849
11
39.6825
21
-54.7849
0
LINE
8
Black
10
39.6825
20
-54.7849
11
39.6825
21
-54.9431
0
LINE
8
Black
10
40.569
20
-54.722
11
40.203
21
-54.722
0
LINE
8
Black
10
40.203
20
-54.722
11
40.203
21
-54.296
0
LINE
8
Black
10
40.203
20
-54.296
11
40.569
21
-54.296
0
LINE
8
Black
10
40.569
20
-54.296
11
40.569
21
-54.722
0
LINE
8
Black
10
26.3656
20
-54.5132
11
25.8978
21
-54.707
0
LINE
8
Black
10
25.8978
20
-54.707
11
25.8009
21
-54.4731
0
LINE
8
Black
10
25.8009
20
-54.4731
11
26.2687
21
-54.2793
0
LINE
8
Black
10
26.2687
20
-54.2793
11
26.3656
21
-54.5132
0
LINE
8
Black
10
39.6825
20
-54.4431
11
39.2394
21
-54.4431
0
LINE
8
Black
10
39.2394
20
-54.4431
11
39.2394
21
-54.2849
0
LINE
8
Black
10
39.2394
20
-54.2849
11
39.6825
21
-54.2849
0
LINE
8
Black
10
39.6825
20
-54.2849
11
39.6825
21
-54.4431
0
LINE
8
Black
10
41.5326
20
-54.4431
11
41.0894
21
-54.4431
0
LINE
8
Black
10
41.0894
20
-54.4431
11
41.0894
21
-54.2849
0
LINE
8
Black
10
41.0894
20
-54.2849
11
41.5326
21
-54.2849
0
LINE
8
Black
10
41.5326
20
-54.2849
11
41.5326
21
-54.4431
0
LINE
8
Black
10
48.0237
20
-52.8295
11
47.6123
21
-52.8295
0
LINE
8
Black
10
47.6123
20
-52.8295
11
47.6123
21
-52.1585
0
LINE
8
Black
10
47.6123
20
-52.1585
11
48.0237
21
-52.1585
0
LINE
8
Black
10
48.0237
20
-52.1585
11
48.0237
21
-52.8295
0
LINE
8
Black
10
48.9737
20
-52.8295
11
48.5623
21
-52.8295
0
LINE
8
Black
10
48.5623
20
-52.8295
11
48.5623
21
-52.1585
0
LINE
8
Black
10
48.5623
20
-52.1585
11
48.9737
21
-52.1585
0
LINE
8
Black
10
48.9737
20
-52.1585
11
48.9737
21
-52.8295
0
LINE
8
Black
10
49.9237
20
-52.8295
11
49.5123
21
-52.8295
0
LINE
8
Black
10
49.5123
20
-52.8295
11
49.5123
21
-52.1585
0
LINE
8
Black
10
49.5123
20
-52.1585
11
49.9237
21
-52.1585
0
LINE
8
Black
10
49.9237
20
-52.1585
11
49.9237
21
-52.8295
0
LINE
8
Black
10
28.2805
20
-52.6034
11
27.8127
21
-52.7972
0
LINE
8
Black
10
27.8127
20
-52.7972
11
27.74
21
-52.6217
0
LINE
8
Black
10
27.74
20
-52.6217
11
28.2079
21
-52.4279
0
LINE
8
Black
10
28.2079
20
-52.4279
11
28.2805
21
-52.6034
0
LINE
8
Black
10
45.503
20
-52.1818
11
45.2792
21
-52.4056
0
LINE
8
Black
10
45.2792
20
-52.4056
11
44.8764
21
-52.0028
0
LINE
8
Black
10
44.8764
20
-52.0028
11
45.1001
21
-51.779
0
LINE
8
Black
10
45.1001
20
-51.779
11
45.503
21
-52.1818
0
LINE
8
Black
10
28.0892
20
-52.1414
11
27.6213
21
-52.3352
0
LINE
8
Black
10
27.6213
20
-52.3352
11
27.5487
21
-52.1598
0
LINE
8
Black
10
27.5487
20
-52.1598
11
28.0165
21
-51.966
0
LINE
8
Black
10
28.0165
20
-51.966
11
28.0892
21
-52.1414
0
LINE
8
Black
10
27.8979
20
-51.6795
11
27.43
21
-51.8733
0
LINE
8
Black
10
27.43
20
-51.8733
11
27.3573
21
-51.6978
0
LINE
8
Black
10
27.3573
20
-51.6978
11
27.8252
21
-51.5041
0
LINE
8
Black
10
27.8252
20
-51.5041
11
27.8979
21
-51.6795
0
LINE
8
Black
10
27.7065
20
-51.2176
11
27.2387
21
-51.4113
0
LINE
8
Black
10
27.2387
20
-51.4113
11
27.166
21
-51.2359
0
LINE
8
Black
10
27.166
20
-51.2359
11
27.6338
21
-51.0421
0
LINE
8
Black
10
27.6338
20
-51.0421
11
27.7065
21
-51.2176
0
LINE
8
Black
10
46.5636
20
-51.1212
11
46.3398
21
-51.345
0
LINE
8
Black
10
46.3398
20
-51.345
11
45.937
21
-50.9421
0
LINE
8
Black
10
45.937
20
-50.9421
11
46.1608
21
-50.7184
0
LINE
8
Black
10
46.1608
20
-50.7184
11
46.5636
21
-51.1212
0
LINE
8
Black
10
27.5152
20
-50.7556
11
27.0473
21
-50.9494
0
LINE
8
Black
10
27.0473
20
-50.9494
11
26.9746
21
-50.774
0
LINE
8
Black
10
26.9746
20
-50.774
11
27.4425
21
-50.5802
0
LINE
8
Black
10
27.4425
20
-50.5802
11
27.5152
21
-50.7556
0
LINE
8
Black
10
24.6436
20
-50.3557
11
24.1757
21
-50.5495
0
LINE
8
Black
10
24.1757
20
-50.5495
11
24.0788
21
-50.3156
0
LINE
8
Black
10
24.0788
20
-50.3156
11
24.5467
21
-50.1218
0
LINE
8
Black
10
24.5467
20
-50.1218
11
24.6436
21
-50.3557
0
LINE
8
Black
10
27.3238
20
-50.2937
11
26.856
21
-50.4875
0
LINE
8
Black
10
26.856
20
-50.4875
11
26.7833
21
-50.312
0
LINE
8
Black
10
26.7833
20
-50.312
11
27.2512
21
-50.1182
0
LINE
8
Black
10
27.2512
20
-50.1182
11
27.3238
21
-50.2937
0
LINE
8
Black
10
48.3385
20
-50.4336
11
47.7055
21
-50.4336
0
LINE
8
Black
10
47.7055
20
-50.4336
11
47.7055
21
-49.6424
0
LINE
8
Black
10
47.7055
20
-49.6424
11
48.3385
21
-49.6424
0
LINE
8
Black
10
48.3385
20
-49.6424
11
48.3385
21
-50.4336
0
LINE
8
Black
10
50.3385
20
-50.4336
11
49.7055
21
-50.4336
0
LINE
8
Black
10
49.7055
20
-50.4336
11
49.7055
21
-49.6424
0
LINE
8
Black
10
49.7055
20
-49.6424
11
50.3385
21
-49.6424
0
LINE
8
Black
10
50.3385
20
-49.6424
11
50.3385
21
-50.4336
0
LINE
8
Black
10
33.1901
20
-49.2831
11
31.6899
21
-49.2831
0
LINE
8
Black
10
31.6899
20
-49.2831
11
31.6899
21
-47.7449
0
LINE
8
Black
10
31.6899
20
-47.7449
11
33.1901
21
-47.7449
0
LINE
8
Black
10
33.1901
20
-47.7449
11
33.1901
21
-49.2831
0
LINE
8
Black
10
39.4301
20
-49.2831
11
37.9299
21
-49.2831
0
LINE
8
Black
10
37.9299
20
-49.2831
11
37.9299
21
-47.7449
0
LINE
8
Black
10
37.9299
20
-47.7449
11
39.4301
21
-47.7449
0
LINE
8
Black
10
39.4301
20
-47.7449
11
39.4301
21
-49.2831
0
LINE
8
Black
10
30.0028
20
-48.1522
11
29.4331
21
-48.1522
0
LINE
8
Black
10
29.4331
20
-48.1522
11
29.4331
21
-47.8357
0
LINE
8
Black
10
29.4331
20
-47.8357
11
30.0028
21
-47.8357
0
LINE
8
Black
10
30.0028
20
-47.8357
11
30.0028
21
-48.1522
0
LINE
8
Black
10
23.8912
20
-46.8266
11
23.3848
21
-46.8266
0
LINE
8
Black
10
23.3848
20
-46.8266
11
23.3848
21
-46.5734
0
LINE
8
Black
10
23.3848
20
-46.5734
11
23.8912
21
-46.5734
0
LINE
8
Black
10
23.8912
20
-46.5734
11
23.8912
21
-46.8266
0
LINE
8
Black
10
30.0028
20
-46.6522
11
29.4331
21
-46.6522
0
LINE
8
Black
10
29.4331
20
-46.6522
11
29.4331
21
-46.3357
0
LINE
8
Black
10
29.4331
20
-46.3357
11
30.0028
21
-46.3357
0
LINE
8
Black
10
30.0028
20
-46.3357
11
30.0028
21
-46.6522
0
LINE
8
Black
10
26.3912
20
-45.795
11
25.8848
21
-45.795
0
LINE
8
Black
10
25.8848
20
-45.795
11
25.8848
21
-45.605
0
LINE
8
Black
10
25.8848
20
-45.605
11
26.3912
21
-45.605
0
LINE
8
Black
10
26.3912
20
-45.605
11
26.3912
21
-45.795
0
LINE
8
Black
10
61.3556
20
-45.7505
11
60.5644
21
-45.7505
0
LINE
8
Black
10
60.5644
20
-45.7505
11
60.5644
21
-45.1175
0
LINE
8
Black
10
60.5644
20
-45.1175
11
61.3556
21
-45.1175
0
LINE
8
Black
10
61.3556
20
-45.1175
11
61.3556
21
-45.7505
0
LINE
8
Black
10
33.9217
20
-45.3775
11
33.5103
21
-45.3775
0
LINE
8
Black
10
33.5103
20
-45.3775
11
33.5103
21
-44.7065
0
LINE
8
Black
10
33.5103
20
-44.7065
11
33.9217
21
-44.7065
0
LINE
8
Black
10
33.9217
20
-44.7065
11
33.9217
21
-45.3775
0
LINE
8
Black
10
32.9717
20
-45.3775
11
32.5603
21
-45.3775
0
LINE
8
Black
10
32.5603
20
-45.3775
11
32.5603
21
-44.7065
0
LINE
8
Black
10
32.5603
20
-44.7065
11
32.9717
21
-44.7065
0
LINE
8
Black
10
32.9717
20
-44.7065
11
32.9717
21
-45.3775
0
LINE
8
Black
10
32.0217
20
-45.3775
11
31.6103
21
-45.3775
0
LINE
8
Black
10
31.6103
20
-45.3775
11
31.6103
21
-44.7065
0
LINE
8
Black
10
31.6103
20
-44.7065
11
32.0217
21
-44.7065
0
LINE
8
Black
10
32.0217
20
-44.7065
11
32.0217
21
-45.3775
0
LINE
8
Black
10
26.3912
20
-45.295
11
25.8848
21
-45.295
0
LINE
8
Black
10
25.8848
20
-45.295
11
25.8848
21
-45.105
0
LINE
8
Black
10
25.8848
20
-45.105
11
26.3912
21
-45.105
0
LINE
8
Black
10
26.3912
20
-45.105
11
26.3912
21
-45.295
0
LINE
8
Black
10
26.3912
20
-44.795
11
25.8848
21
-44.795
0
LINE
8
Black
10
25.8848
20
-44.795
11
25.8848
21
-44.605
0
LINE
8
Black
10
25.8848
20
-44.605
11
26.3912
21
-44.605
0
LINE
8
Black
10
26.3912
20
-44.605
11
26.3912
21
-44.795
0
LINE
8
Black
10
26.3912
20
-44.295
11
25.8848
21
-44.295
0
LINE
8
Black
10
25.8848
20
-44.295
11
25.8848
21
-44.105
0
LINE
8
Black
10
25.8848
20
-44.105
11
26.3912
21
-44.105
0
LINE
8
Black
10
26.3912
20
-44.105
11
26.3912
21
-44.295
0
LINE
8
Black
10
52.1165
20
-44.0836
11
51.4835
21
-44.0836
0
LINE
8
Black
10
51.4835
20
-44.0836
11
51.4835
21
-43.2924
0
LINE
8
Black
10
51.4835
20
-43.2924
11
52.1165
21
-43.2924
0
LINE
8
Black
10
52.1165
20
-43.2924
11
52.1165
21
-44.0836
0
LINE
8
Black
10
50.1165
20
-44.0836
11
49.4835
21
-44.0836
0
LINE
8
Black
10
49.4835
20
-44.0836
11
49.4835
21
-43.2924
0
LINE
8
Black
10
49.4835
20
-43.2924
11
50.1165
21
-43.2924
0
LINE
8
Black
10
50.1165
20
-43.2924
11
50.1165
21
-44.0836
0
LINE
8
Black
10
26.3912
20
-43.795
11
25.8848
21
-43.795
0
LINE
8
Black
10
25.8848
20
-43.795
11
25.8848
21
-43.605
0
LINE
8
Black
10
25.8848
20
-43.605
11
26.3912
21
-43.605
0
LINE
8
Black
10
26.3912
20
-43.605
11
26.3912
21
-43.795
0
LINE
8
Black
10
61.3556
20
-43.7505
11
60.5644
21
-43.7505
0
LINE
8
Black
10
60.5644
20
-43.7505
11
60.5644
21
-43.1175
0
LINE
8
Black
10
60.5644
20
-43.1175
11
61.3556
21
-43.1175
0
LINE
8
Black
10
61.3556
20
-43.1175
11
61.3556
21
-43.7505
0
LINE
8
Black
10
26.3912
20
-43.295
11
25.8848
21
-43.295
0
LINE
8
Black
10
25.8848
20
-43.295
11
25.8848
21
-43.105
0
LINE
8
Black
10
25.8848
20
-43.105
11
26.3912
21
-43.105
0
LINE
8
Black
10
26.3912
20
-43.105
11
26.3912
21
-43.295
0
LINE
8
Black
10
33.9217
20
-43.1775
11
33.5103
21
-43.1775
0
LINE
8
Black
10
33.5103
20
-43.1775
11
33.5103
21
-42.5065
0
LINE
8
Black
10
33.5103
20
-42.5065
11
33.9217
21
-42.5065
0
LINE
8
Black
10
33.9217
20
-42.5065
11
33.9217
21
-43.1775
0
LINE
8
Black
10
32.0217
20
-43.1775
11
31.6103
21
-43.1775
0
LINE
8
Black
10
31.6103
20
-43.1775
11
31.6103
21
-42.5065
0
LINE
8
Black
10
31.6103
20
-42.5065
11
32.0217
21
-42.5065
0
LINE
8
Black
10
32.0217
20
-42.5065
11
32.0217
21
-43.1775
0
LINE
8
Black
10
23.8912
20
-42.3266
11
23.3848
21
-42.3266
0
LINE
8
Black
10
23.3848
20
-42.3266
11
23.3848
21
-42.0734
0
LINE
8
Black
10
23.3848
20
-42.0734
11
23.8912
21
-42.0734
0
LINE
8
Black
10
23.8912
20
-42.0734
11
23.8912
21
-42.3266
0
LINE
8
Black
10
37.0911
20
-40.9541
11
35.5529
21
-40.9541
0
LINE
8
Black
10
35.5529
20
-40.9541
11
35.5529
21
-39.4539
0
LINE
8
Black
10
35.5529
20
-39.4539
11
37.0911
21
-39.4539
0
LINE
8
Black
10
37.0911
20
-39.4539
11
37.0911
21
-40.9541
0
LINE
8
Black
10
51.2002
20
-40.1628
11
50.8837
21
-40.1628
0
LINE
8
Black
10
50.8837
20
-40.1628
11
50.8837
21
-39.5932
0
LINE
8
Black
10
50.8837
20
-39.5932
11
51.2002
21
-39.5932
0
LINE
8
Black
10
51.2002
20
-39.5932
11
51.2002
21
-40.1628
0
LINE
8
Black
10
49.7002
20
-40.1628
11
49.3837
21
-40.1628
0
LINE
8
Black
10
49.3837
20
-40.1628
11
49.3837
21
-39.5932
0
LINE
8
Black
10
49.3837
20
-39.5932
11
49.7002
21
-39.5932
0
LINE
8
Black
10
49.7002
20
-39.5932
11
49.7002
21
-40.1628
0
LINE
8
Black
10
27.3238
20
-38.6063
11
27.2512
21
-38.7818
0
LINE
8
Black
10
27.2512
20
-38.7818
11
26.7833
21
-38.588
0
LINE
8
Black
10
26.7833
20
-38.588
11
26.856
21
-38.4125
0
LINE
8
Black
10
26.856
20
-38.4125
11
27.3238
21
-38.6063
0
LINE
8
Black
10
24.6436
20
-38.5443
11
24.5467
21
-38.7782
0
LINE
8
Black
10
24.5467
20
-38.7782
11
24.0788
21
-38.5844
0
LINE
8
Black
10
24.0788
20
-38.5844
11
24.1757
21
-38.3505
0
LINE
8
Black
10
24.1757
20
-38.3505
11
24.6436
21
-38.5443
0
LINE
8
Black
10
27.5152
20
-38.1444
11
27.4425
21
-38.3198
0
LINE
8
Black
10
27.4425
20
-38.3198
11
26.9746
21
-38.126
0
LINE
8
Black
10
26.9746
20
-38.126
11
27.0473
21
-37.9506
0
LINE
8
Black
10
27.0473
20
-37.9506
11
27.5152
21
-38.1444
0
LINE
8
Black
10
27.7065
20
-37.6824
11
27.6338
21
-37.8579
0
LINE
8
Black
10
27.6338
20
-37.8579
11
27.166
21
-37.6641
0
LINE
8
Black
10
27.166
20
-37.6641
11
27.2387
21
-37.4887
0
LINE
8
Black
10
27.2387
20
-37.4887
11
27.7065
21
-37.6824
0
LINE
8
Black
10
27.8979
20
-37.2205
11
27.8252
21
-37.3959
0
LINE
8
Black
10
27.8252
20
-37.3959
11
27.3573
21
-37.2022
0
LINE
8
Black
10
27.3573
20
-37.2022
11
27.43
21
-37.0267
0
LINE
8
Black
10
27.43
20
-37.0267
11
27.8979
21
-37.2205
0
LINE
8
Black
10
28.0892
20
-36.7586
11
28.0165
21
-36.934
0
LINE
8
Black
10
28.0165
20
-36.934
11
27.5487
21
-36.7402
0
LINE
8
Black
10
27.5487
20
-36.7402
11
27.6213
21
-36.5648
0
LINE
8
Black
10
27.6213
20
-36.5648
11
28.0892
21
-36.7586
0
LINE
8
Black
10
28.2805
20
-36.2966
11
28.2079
21
-36.4721
0
LINE
8
Black
10
28.2079
20
-36.4721
11
27.74
21
-36.2783
0
LINE
8
Black
10
27.74
20
-36.2783
11
27.8127
21
-36.1028
0
LINE
8
Black
10
27.8127
20
-36.1028
11
28.2805
21
-36.2966
0
LINE
8
Black
10
37.0911
20
-34.7141
11
35.5529
21
-34.7141
0
LINE
8
Black
10
35.5529
20
-34.7141
11
35.5529
21
-33.2139
0
LINE
8
Black
10
35.5529
20
-33.2139
11
37.0911
21
-33.2139
0
LINE
8
Black
10
37.0911
20
-33.2139
11
37.0911
21
-34.7141
0
LINE
8
Black
10
26.3656
20
-34.3868
11
26.2687
21
-34.6207
0
LINE
8
Black
10
26.2687
20
-34.6207
11
25.8009
21
-34.4269
0
LINE
8
Black
10
25.8009
20
-34.4269
11
25.8978
21
-34.193
0
LINE
8
Black
10
25.8978
20
-34.193
11
26.3656
21
-34.3868
0
LINE
8
Black
10
56.7882
20
-34.5748
11
56.4718
21
-34.5748
0
LINE
8
Black
10
56.4718
20
-34.5748
11
56.4718
21
-34.0052
0
LINE
8
Black
10
56.4718
20
-34.0052
11
56.7882
21
-34.0052
0
LINE
8
Black
10
56.7882
20
-34.0052
11
56.7882
21
-34.5748
0
LINE
8
Black
10
55.2882
20
-34.5748
11
54.9718
21
-34.5748
0
LINE
8
Black
10
54.9718
20
-34.5748
11
54.9718
21
-34.0052
0
LINE
8
Black
10
54.9718
20
-34.0052
11
55.2882
21
-34.0052
0
LINE
8
Black
10
55.2882
20
-34.0052
11
55.2882
21
-34.5748
0
LINE
8
Black
10
29.6925
20
-32.2971
11
29.4687
21
-32.5209
0
LINE
8
Black
10
29.4687
20
-32.5209
11
29.0211
21
-32.0733
0
LINE
8
Black
10
29.0211
20
-32.0733
11
29.2449
21
-31.8495
0
LINE
8
Black
10
29.2449
20
-31.8495
11
29.6925
21
-32.2971
0
LINE
8
Black
10
27.7077
20
-31.8375
11
27.1706
21
-32.3746
0
LINE
8
Black
10
27.1706
20
-32.3746
11
26.4097
21
-31.6137
0
LINE
8
Black
10
26.4097
20
-31.6137
11
26.9468
21
-31.0766
0
LINE
8
Black
10
26.9468
20
-31.0766
11
27.7077
21
-31.8375
0
LINE
8
Black
10
30.2582
20
-31.7314
11
30.0344
21
-31.9552
0
LINE
8
Black
10
30.0344
20
-31.9552
11
29.5868
21
-31.5076
0
LINE
8
Black
10
29.5868
20
-31.5076
11
29.8106
21
-31.2838
0
LINE
8
Black
10
29.8106
20
-31.2838
11
30.2582
21
-31.7314
0
LINE
8
Black
10
30.8239
20
-31.1658
11
30.6001
21
-31.3896
0
LINE
8
Black
10
30.6001
20
-31.3896
11
30.1525
21
-30.942
0
LINE
8
Black
10
30.1525
20
-30.942
11
30.3763
21
-30.7182
0
LINE
8
Black
10
30.3763
20
-30.7182
11
30.8239
21
-31.1658
0
LINE
8
Black
10
31.3896
20
-30.6001
11
31.1658
21
-30.8239
0
LINE
8
Black
10
31.1658
20
-30.8239
11
30.7182
21
-30.3763
0
LINE
8
Black
10
30.7182
20
-30.3763
11
30.942
21
-30.1525
0
LINE
8
Black
10
30.942
20
-30.1525
11
31.3896
21
-30.6001
0
LINE
8
Black
10
31.9552
20
-30.0344
11
31.7314
21
-30.2582
0
LINE
8
Black
10
31.7314
20
-30.2582
11
31.2838
21
-29.8106
0
LINE
8
Black
10
31.2838
20
-29.8106
11
31.5076
21
-29.5868
0
LINE
8
Black
10
31.5076
20
-29.5868
11
31.9552
21
-30.0344
0
LINE
8
Black
10
32.5209
20
-29.4687
11
32.2971
21
-29.6925
0
LINE
8
Black
10
32.2971
20
-29.6925
11
31.8495
21
-29.2449
0
LINE
8
Black
10
31.8495
20
-29.2449
11
32.0733
21
-29.0211
0
LINE
8
Black
10
32.0733
20
-29.0211
11
32.5209
21
-29.4687
0
LINE
8
Black
10
32.3746
20
-27.1706
11
31.8375
21
-27.7077
0
LINE
8
Black
10
31.8375
20
-27.7077
11
31.0766
21
-26.9468
0
LINE
8
Black
10
31.0766
20
-26.9468
11
31.6137
21
-26.4097
0
LINE
8
Black
10
31.6137
20
-26.4097
11
32.3746
21
-27.1706
0
LINE
8
Black
10
53.9681
20
-27.1111
11
53.7259
21
-27.6959
0
LINE
8
Black
10
53.7259
20
-27.6959
11
53.4334
21
-27.5748
0
LINE
8
Black
10
53.4334
20
-27.5748
11
53.6757
21
-26.9899
0
LINE
8
Black
10
53.6757
20
-26.9899
11
53.9681
21
-27.1111
0
LINE
8
Black
10
35.4666
20
-27.5748
11
35.1741
21
-27.6959
0
LINE
8
Black
10
35.1741
20
-27.6959
11
34.9319
21
-27.1111
0
LINE
8
Black
10
34.9319
20
-27.1111
11
35.2243
21
-26.9899
0
LINE
8
Black
10
35.2243
20
-26.9899
11
35.4666
21
-27.5748
0
LINE
8
Black
10
53.229
20
-26.8049
11
52.9868
21
-27.3897
0
LINE
8
Black
10
52.9868
20
-27.3897
11
52.6943
21
-27.2686
0
LINE
8
Black
10
52.6943
20
-27.2686
11
52.9366
21
-26.6838
0
LINE
8
Black
10
52.9366
20
-26.6838
11
53.229
21
-26.8049
0
LINE
8
Black
10
36.2057
20
-27.2686
11
35.9132
21
-27.3897
0
LINE
8
Black
10
35.9132
20
-27.3897
11
35.671
21
-26.8049
0
LINE
8
Black
10
35.671
20
-26.8049
11
35.9634
21
-26.6838
0
LINE
8
Black
10
35.9634
20
-26.6838
11
36.2057
21
-27.2686
0
LINE
8
Black
10
52.4899
20
-26.4988
11
52.2476
21
-27.0836
0
LINE
8
Black
10
52.2476
20
-27.0836
11
51.9552
21
-26.9625
0
LINE
8
Black
10
51.9552
20
-26.9625
11
52.1975
21
-26.3777
0
LINE
8
Black
10
52.1975
20
-26.3777
11
52.4899
21
-26.4988
0
LINE
8
Black
10
36.9448
20
-26.9625
11
36.6524
21
-27.0836
0
LINE
8
Black
10
36.6524
20
-27.0836
11
36.4101
21
-26.4988
0
LINE
8
Black
10
36.4101
20
-26.4988
11
36.7025
21
-26.3777
0
LINE
8
Black
10
36.7025
20
-26.3777
11
36.9448
21
-26.9625
0
LINE
8
Black
10
51.7508
20
-26.1926
11
51.5085
21
-26.7774
0
LINE
8
Black
10
51.5085
20
-26.7774
11
51.2161
21
-26.6563
0
LINE
8
Black
10
51.2161
20
-26.6563
11
51.4584
21
-26.0715
0
LINE
8
Black
10
51.4584
20
-26.0715
11
51.7508
21
-26.1926
0
LINE
8
Black
10
37.6839
20
-26.6563
11
37.3915
21
-26.7774
0
LINE
8
Black
10
37.3915
20
-26.7774
11
37.1492
21
-26.1926
0
LINE
8
Black
10
37.1492
20
-26.1926
11
37.4416
21
-26.0715
0
LINE
8
Black
10
37.4416
20
-26.0715
11
37.6839
21
-26.6563
0
LINE
8
Black
10
33.8087
20
-26.3906
11
33.107
21
-26.6813
0
LINE
8
Black
10
33.107
20
-26.6813
11
32.6952
21
-25.6871
0
LINE
8
Black
10
32.6952
20
-25.6871
11
33.3969
21
-25.3964
0
LINE
8
Black
10
33.3969
20
-25.3964
11
33.8087
21
-26.3906
0
LINE
8
Black
10
56.2048
20
-25.6871
11
55.793
21
-26.6813
0
LINE
8
Black
10
55.793
20
-26.6813
11
55.0913
21
-26.3906
0
LINE
8
Black
10
55.0913
20
-26.3906
11
55.5031
21
-25.3964
0
LINE
8
Black
10
55.5031
20
-25.3964
11
56.2048
21
-25.6871
0
LINE
8
Black
10
51.0117
20
-25.8865
11
50.7694
21
-26.4713
0
LINE
8
Black
10
50.7694
20
-26.4713
11
50.477
21
-26.3502
0
LINE
8
Black
10
50.477
20
-26.3502
11
50.7193
21
-25.7654
0
LINE
8
Black
10
50.7193
20
-25.7654
11
51.0117
21
-25.8865
0
LINE
8
Black
10
38.423
20
-26.3502
11
38.1306
21
-26.4713
0
LINE
8
Black
10
38.1306
20
-26.4713
11
37.8883
21
-25.8865
0
LINE
8
Black
10
37.8883
20
-25.8865
11
38.1807
21
-25.7654
0
LINE
8
Black
10
38.1807
20
-25.7654
11
38.423
21
-26.3502
0
LINE
8
Black
10
39.1621
20
-26.044
11
38.8697
21
-26.1652
0
LINE
8
Black
10
38.8697
20
-26.1652
11
38.6274
21
-25.5803
0
LINE
8
Black
10
38.6274
20
-25.5803
11
38.9198
21
-25.4592
0
LINE
8
Black
10
38.9198
20
-25.4592
11
39.1621
21
-26.044
0
LINE
8
Black
10
50.2726
20
-25.5803
11
50.0303
21
-26.1652
0
LINE
8
Black
10
50.0303
20
-26.1652
11
49.7379
21
-26.044
0
LINE
8
Black
10
49.7379
20
-26.044
11
49.9802
21
-25.4592
0
LINE
8
Black
10
49.9802
20
-25.4592
11
50.2726
21
-25.5803
0
LINE
8
Black
10
44.2082
20
-25.4215
11
43.8917
21
-25.4215
0
LINE
8
Black
10
43.8917
20
-25.4215
11
43.8917
21
-24.7885
0
LINE
8
Black
10
43.8917
20
-24.7885
11
44.2082
21
-24.7885
0
LINE
8
Black
10
44.2082
20
-24.7885
11
44.2082
21
-25.4215
0
LINE
8
Black
10
46.6082
20
-25.4215
11
46.2918
21
-25.4215
0
LINE
8
Black
10
46.2918
20
-25.4215
11
46.2918
21
-24.7885
0
LINE
8
Black
10
46.2918
20
-24.7885
11
46.6082
21
-24.7885
0
LINE
8
Black
10
46.6082
20
-24.7885
11
46.6082
21
-25.4215
0
LINE
8
Black
10
45.8083
20
-25.4215
11
45.4917
21
-25.4215
0
LINE
8
Black
10
45.4917
20
-25.4215
11
45.4917
21
-24.7885
0
LINE
8
Black
10
45.4917
20
-24.7885
11
45.8083
21
-24.7885
0
LINE
8
Black
10
45.8083
20
-24.7885
11
45.8083
21
-25.4215
0
LINE
8
Black
10
45.0082
20
-25.4215
11
44.6917
21
-25.4215
0
LINE
8
Black
10
44.6917
20
-25.4215
11
44.6917
21
-24.7885
0
LINE
8
Black
10
44.6917
20
-24.7885
11
45.0082
21
-24.7885
0
LINE
8
Black
10
45.0082
20
-24.7885
11
45.0082
21
-25.4215
0
LINE
8
Black
10
42.6082
20
-25.4215
11
42.2918
21
-25.4215
0
LINE
8
Black
10
42.2918
20
-25.4215
11
42.2918
21
-24.7885
0
LINE
8
Black
10
42.2918
20
-24.7885
11
42.6082
21
-24.7885
0
LINE
8
Black
10
42.6082
20
-24.7885
11
42.6082
21
-25.4215
0
LINE
8
Black
10
43.4082
20
-25.4215
11
43.0917
21
-25.4215
0
LINE
8
Black
10
43.0917
20
-25.4215
11
43.0917
21
-24.7885
0
LINE
8
Black
10
43.0917
20
-24.7885
11
43.4082
21
-24.7885
0
LINE
8
Black
10
43.4082
20
-24.7885
11
43.4082
21
-25.4215
0
LINE
8
Black
10
50.1072
20
-23.1614
11
49.6954
21
-24.1556
0
LINE
8
Black
10
49.6954
20
-24.1556
11
48.9936
21
-23.8649
0
LINE
8
Black
10
48.9936
20
-23.8649
11
49.4055
21
-22.8707
0
LINE
8
Black
10
49.4055
20
-22.8707
11
50.1072
21
-23.1614
0
LINE
8
Black
10
39.9064
20
-23.8649
11
39.2046
21
-24.1556
0
LINE
8
Black
10
39.2046
20
-24.1556
11
38.7928
21
-23.1614
0
LINE
8
Black
10
38.7928
20
-23.1614
11
39.4945
21
-22.8707
0
LINE
8
Black
10
39.4945
20
-22.8707
11
39.9064
21
-23.8649
0
LINE
8
Black
10
41.5298
20
-23.693
11
40.7702
21
-23.693
0
LINE
8
Black
10
40.7702
20
-23.693
11
40.7702
21
-22.6169
0
LINE
8
Black
10
40.7702
20
-22.6169
11
41.5298
21
-22.6169
0
LINE
8
Black
10
41.5298
20
-22.6169
11
41.5298
21
-23.693
0
LINE
8
Black
10
48.1298
20
-23.693
11
47.3702
21
-23.693
0
LINE
8
Black
10
47.3702
20
-23.693
11
47.3702
21
-22.6169
0
LINE
8
Black
10
47.3702
20
-22.6169
11
48.1298
21
-22.6169
0
LINE
8
Black
10
48.1298
20
-22.6169
11
48.1298
21
-23.693
  0
ENDSEC
  0
EOF
