G04 #@! TF.FileFunction,Legend,Bot*
%FSLAX46Y46*%
G04 Gerber Fmt 4.6, Leading zero omitted, Abs format (unit mm)*
G04 Created by KiCad (PCBNEW 201609251018+7233~55~ubuntu16.04.1-) date Mon Sep 26 23:00:05 2016*
%MOMM*%
%LPD*%
G01*
G04 APERTURE LIST*
%ADD10C,0.100000*%
%ADD11C,0.150000*%
G04 APERTURE END LIST*
D10*
D11*
X37940761Y-51935571D02*
X38274095Y-51935571D01*
X38274095Y-52459380D02*
X38274095Y-51459380D01*
X37797904Y-51459380D01*
X37036000Y-52411761D02*
X37131238Y-52459380D01*
X37321714Y-52459380D01*
X37416952Y-52411761D01*
X37464571Y-52316523D01*
X37464571Y-51935571D01*
X37416952Y-51840333D01*
X37321714Y-51792714D01*
X37131238Y-51792714D01*
X37036000Y-51840333D01*
X36988380Y-51935571D01*
X36988380Y-52030809D01*
X37464571Y-52126047D01*
X36131238Y-52459380D02*
X36131238Y-51935571D01*
X36178857Y-51840333D01*
X36274095Y-51792714D01*
X36464571Y-51792714D01*
X36559809Y-51840333D01*
X36131238Y-52411761D02*
X36226476Y-52459380D01*
X36464571Y-52459380D01*
X36559809Y-52411761D01*
X36607428Y-52316523D01*
X36607428Y-52221285D01*
X36559809Y-52126047D01*
X36464571Y-52078428D01*
X36226476Y-52078428D01*
X36131238Y-52030809D01*
X35797904Y-51792714D02*
X35416952Y-51792714D01*
X35655047Y-51459380D02*
X35655047Y-52316523D01*
X35607428Y-52411761D01*
X35512190Y-52459380D01*
X35416952Y-52459380D01*
X35083619Y-52459380D02*
X35083619Y-51459380D01*
X34655047Y-52459380D02*
X34655047Y-51935571D01*
X34702666Y-51840333D01*
X34797904Y-51792714D01*
X34940761Y-51792714D01*
X35036000Y-51840333D01*
X35083619Y-51887952D01*
X33797904Y-52411761D02*
X33893142Y-52459380D01*
X34083619Y-52459380D01*
X34178857Y-52411761D01*
X34226476Y-52316523D01*
X34226476Y-51935571D01*
X34178857Y-51840333D01*
X34083619Y-51792714D01*
X33893142Y-51792714D01*
X33797904Y-51840333D01*
X33750285Y-51935571D01*
X33750285Y-52030809D01*
X34226476Y-52126047D01*
X33321714Y-52459380D02*
X33321714Y-51792714D01*
X33321714Y-51983190D02*
X33274095Y-51887952D01*
X33226476Y-51840333D01*
X33131238Y-51792714D01*
X33036000Y-51792714D01*
X32559809Y-52459380D02*
X32655047Y-52411761D01*
X32702666Y-52316523D01*
X32702666Y-51459380D01*
X32178857Y-52459380D02*
X32178857Y-51792714D01*
X32178857Y-51459380D02*
X32226476Y-51507000D01*
X32178857Y-51554619D01*
X32131238Y-51507000D01*
X32178857Y-51459380D01*
X32178857Y-51554619D01*
X31274095Y-51792714D02*
X31274095Y-52602238D01*
X31321714Y-52697476D01*
X31369333Y-52745095D01*
X31464571Y-52792714D01*
X31607428Y-52792714D01*
X31702666Y-52745095D01*
X31274095Y-52411761D02*
X31369333Y-52459380D01*
X31559809Y-52459380D01*
X31655047Y-52411761D01*
X31702666Y-52364142D01*
X31750285Y-52268904D01*
X31750285Y-51983190D01*
X31702666Y-51887952D01*
X31655047Y-51840333D01*
X31559809Y-51792714D01*
X31369333Y-51792714D01*
X31274095Y-51840333D01*
X30797904Y-52459380D02*
X30797904Y-51459380D01*
X30369333Y-52459380D02*
X30369333Y-51935571D01*
X30416952Y-51840333D01*
X30512190Y-51792714D01*
X30655047Y-51792714D01*
X30750285Y-51840333D01*
X30797904Y-51887952D01*
X30036000Y-51792714D02*
X29655047Y-51792714D01*
X29893142Y-51459380D02*
X29893142Y-52316523D01*
X29845523Y-52411761D01*
X29750285Y-52459380D01*
X29655047Y-52459380D01*
X35416952Y-54109380D02*
X35750285Y-53633190D01*
X35988380Y-54109380D02*
X35988380Y-53109380D01*
X35607428Y-53109380D01*
X35512190Y-53157000D01*
X35464571Y-53204619D01*
X35416952Y-53299857D01*
X35416952Y-53442714D01*
X35464571Y-53537952D01*
X35512190Y-53585571D01*
X35607428Y-53633190D01*
X35988380Y-53633190D01*
X34607428Y-54061761D02*
X34702666Y-54109380D01*
X34893142Y-54109380D01*
X34988380Y-54061761D01*
X35036000Y-53966523D01*
X35036000Y-53585571D01*
X34988380Y-53490333D01*
X34893142Y-53442714D01*
X34702666Y-53442714D01*
X34607428Y-53490333D01*
X34559809Y-53585571D01*
X34559809Y-53680809D01*
X35036000Y-53776047D01*
X34226476Y-53442714D02*
X33988380Y-54109380D01*
X33750285Y-53442714D01*
X32274095Y-53585571D02*
X32131238Y-53633190D01*
X32083619Y-53680809D01*
X32036000Y-53776047D01*
X32036000Y-53918904D01*
X32083619Y-54014142D01*
X32131238Y-54061761D01*
X32226476Y-54109380D01*
X32607428Y-54109380D01*
X32607428Y-53109380D01*
X32274095Y-53109380D01*
X32178857Y-53157000D01*
X32131238Y-53204619D01*
X32083619Y-53299857D01*
X32083619Y-53395095D01*
X32131238Y-53490333D01*
X32178857Y-53537952D01*
X32274095Y-53585571D01*
X32607428Y-53585571D01*
X49429000Y-34962267D02*
X49429000Y-34139142D01*
X48061619Y-34329619D02*
X48537809Y-34662952D01*
X48061619Y-34901047D02*
X49061619Y-34901047D01*
X49061619Y-34520095D01*
X49014000Y-34424857D01*
X48966380Y-34377238D01*
X48871142Y-34329619D01*
X48728285Y-34329619D01*
X48633047Y-34377238D01*
X48585428Y-34424857D01*
X48537809Y-34520095D01*
X48537809Y-34901047D01*
X49429000Y-34139142D02*
X49429000Y-33186761D01*
X48109238Y-33948666D02*
X48061619Y-33805809D01*
X48061619Y-33567714D01*
X48109238Y-33472476D01*
X48156857Y-33424857D01*
X48252095Y-33377238D01*
X48347333Y-33377238D01*
X48442571Y-33424857D01*
X48490190Y-33472476D01*
X48537809Y-33567714D01*
X48585428Y-33758190D01*
X48633047Y-33853428D01*
X48680666Y-33901047D01*
X48775904Y-33948666D01*
X48871142Y-33948666D01*
X48966380Y-33901047D01*
X49014000Y-33853428D01*
X49061619Y-33758190D01*
X49061619Y-33520095D01*
X49014000Y-33377238D01*
X49429000Y-33186761D02*
X49429000Y-32424857D01*
X49061619Y-33091523D02*
X49061619Y-32520095D01*
X48061619Y-32805809D02*
X49061619Y-32805809D01*
X43362571Y-35147142D02*
X43362571Y-34385238D01*
X42981619Y-34766190D02*
X43743523Y-34766190D01*
X43981619Y-33432857D02*
X43981619Y-33909047D01*
X43505428Y-33956666D01*
X43553047Y-33909047D01*
X43600666Y-33813809D01*
X43600666Y-33575714D01*
X43553047Y-33480476D01*
X43505428Y-33432857D01*
X43410190Y-33385238D01*
X43172095Y-33385238D01*
X43076857Y-33432857D01*
X43029238Y-33480476D01*
X42981619Y-33575714D01*
X42981619Y-33813809D01*
X43029238Y-33909047D01*
X43076857Y-33956666D01*
X46474000Y-34543904D02*
X46521619Y-34639142D01*
X46521619Y-34782000D01*
X46474000Y-34924857D01*
X46378761Y-35020095D01*
X46283523Y-35067714D01*
X46093047Y-35115333D01*
X45950190Y-35115333D01*
X45759714Y-35067714D01*
X45664476Y-35020095D01*
X45569238Y-34924857D01*
X45521619Y-34782000D01*
X45521619Y-34686761D01*
X45569238Y-34543904D01*
X45616857Y-34496285D01*
X45950190Y-34496285D01*
X45950190Y-34686761D01*
X45521619Y-34067714D02*
X46521619Y-34067714D01*
X45521619Y-33496285D01*
X46521619Y-33496285D01*
X45521619Y-33020095D02*
X46521619Y-33020095D01*
X46521619Y-32782000D01*
X46474000Y-32639142D01*
X46378761Y-32543904D01*
X46283523Y-32496285D01*
X46093047Y-32448666D01*
X45950190Y-32448666D01*
X45759714Y-32496285D01*
X45664476Y-32543904D01*
X45569238Y-32639142D01*
X45521619Y-32782000D01*
X45521619Y-33020095D01*
X50649238Y-34885047D02*
X50601619Y-34742190D01*
X50601619Y-34504095D01*
X50649238Y-34408857D01*
X50696857Y-34361238D01*
X50792095Y-34313619D01*
X50887333Y-34313619D01*
X50982571Y-34361238D01*
X51030190Y-34408857D01*
X51077809Y-34504095D01*
X51125428Y-34694571D01*
X51173047Y-34789809D01*
X51220666Y-34837428D01*
X51315904Y-34885047D01*
X51411142Y-34885047D01*
X51506380Y-34837428D01*
X51554000Y-34789809D01*
X51601619Y-34694571D01*
X51601619Y-34456476D01*
X51554000Y-34313619D01*
X51601619Y-33980285D02*
X50601619Y-33742190D01*
X51315904Y-33551714D01*
X50601619Y-33361238D01*
X51601619Y-33123142D01*
X50601619Y-32742190D02*
X51601619Y-32742190D01*
X51601619Y-32504095D01*
X51554000Y-32361238D01*
X51458761Y-32266000D01*
X51363523Y-32218380D01*
X51173047Y-32170761D01*
X51030190Y-32170761D01*
X50839714Y-32218380D01*
X50744476Y-32266000D01*
X50649238Y-32361238D01*
X50601619Y-32504095D01*
X50601619Y-32742190D01*
X50601619Y-31742190D02*
X51601619Y-31742190D01*
X51601619Y-31075523D02*
X51601619Y-30885047D01*
X51554000Y-30789809D01*
X51458761Y-30694571D01*
X51268285Y-30646952D01*
X50934952Y-30646952D01*
X50744476Y-30694571D01*
X50649238Y-30789809D01*
X50601619Y-30885047D01*
X50601619Y-31075523D01*
X50649238Y-31170761D01*
X50744476Y-31266000D01*
X50934952Y-31313619D01*
X51268285Y-31313619D01*
X51458761Y-31266000D01*
X51554000Y-31170761D01*
X51601619Y-31075523D01*
X53189238Y-35027904D02*
X53141619Y-34885047D01*
X53141619Y-34646952D01*
X53189238Y-34551714D01*
X53236857Y-34504095D01*
X53332095Y-34456476D01*
X53427333Y-34456476D01*
X53522571Y-34504095D01*
X53570190Y-34551714D01*
X53617809Y-34646952D01*
X53665428Y-34837428D01*
X53713047Y-34932666D01*
X53760666Y-34980285D01*
X53855904Y-35027904D01*
X53951142Y-35027904D01*
X54046380Y-34980285D01*
X54094000Y-34932666D01*
X54141619Y-34837428D01*
X54141619Y-34599333D01*
X54094000Y-34456476D01*
X54141619Y-34123142D02*
X53141619Y-33885047D01*
X53855904Y-33694571D01*
X53141619Y-33504095D01*
X54141619Y-33266000D01*
X53236857Y-32313619D02*
X53189238Y-32361238D01*
X53141619Y-32504095D01*
X53141619Y-32599333D01*
X53189238Y-32742190D01*
X53284476Y-32837428D01*
X53379714Y-32885047D01*
X53570190Y-32932666D01*
X53713047Y-32932666D01*
X53903523Y-32885047D01*
X53998761Y-32837428D01*
X54094000Y-32742190D01*
X54141619Y-32599333D01*
X54141619Y-32504095D01*
X54094000Y-32361238D01*
X54046380Y-32313619D01*
X53141619Y-31408857D02*
X53141619Y-31885047D01*
X54141619Y-31885047D01*
X53141619Y-31075523D02*
X54141619Y-31075523D01*
X53141619Y-30504095D02*
X53713047Y-30932666D01*
X54141619Y-30504095D02*
X53570190Y-31075523D01*
X31147907Y-61570470D02*
X27329530Y-57752093D01*
X31147907Y-61570470D02*
X33976334Y-58742043D01*
X33976334Y-58742043D02*
X30157957Y-54923666D01*
X30157957Y-54923666D02*
X27329530Y-57752093D01*
X30157957Y-59731992D02*
X29168008Y-58742043D01*
X29168008Y-58742043D02*
X28743744Y-59166307D01*
X30157957Y-59731992D02*
X29733693Y-60156256D01*
X25608749Y-55176761D02*
X23542259Y-50187811D01*
X25608749Y-55176761D02*
X29304267Y-53646027D01*
X29304267Y-53646027D02*
X27237777Y-48657077D01*
X27237777Y-48657077D02*
X23542259Y-50187811D01*
X25397710Y-53099391D02*
X24861953Y-51805960D01*
X24861953Y-51805960D02*
X24307625Y-52035570D01*
X25397710Y-53099391D02*
X24843382Y-53329002D01*
X23542259Y-38712189D02*
X25608749Y-33723239D01*
X23542259Y-38712189D02*
X27237777Y-40242923D01*
X27237777Y-40242923D02*
X29304267Y-35253973D01*
X29304267Y-35253973D02*
X25608749Y-33723239D01*
X24861953Y-37094040D02*
X25397710Y-35800609D01*
X25397710Y-35800609D02*
X24843382Y-35570998D01*
X24861953Y-37094040D02*
X24307625Y-36864430D01*
X57311612Y-53413499D02*
G75*
G03X57311612Y-53413499I-250000J0D01*
G01*
X60491080Y-59529973D02*
X59783973Y-58822866D01*
X59783973Y-58822866D02*
X59076866Y-59529973D01*
X59076866Y-59529973D02*
X59783973Y-60237080D01*
X57238388Y-54297383D02*
X58122272Y-53413499D01*
X58122272Y-53413499D02*
X56990901Y-52282128D01*
X56990901Y-52282128D02*
X57556586Y-51716443D01*
X57556586Y-51716443D02*
X60455724Y-54615581D01*
X58122272Y-53413499D02*
X58687957Y-52847814D01*
X54551383Y-56984388D02*
X53667499Y-57868272D01*
X53667499Y-57868272D02*
X52536128Y-56736901D01*
X52536128Y-56736901D02*
X51970443Y-57302586D01*
X51970443Y-57302586D02*
X54869581Y-60201724D01*
X53667499Y-57868272D02*
X53101814Y-58433957D01*
X61693161Y-58327891D02*
X58581891Y-61439161D01*
X58228338Y-54863068D02*
X60632501Y-57267231D01*
X60632501Y-57267231D02*
X59925394Y-57974338D01*
X59925394Y-57974338D02*
X57521231Y-55570175D01*
X57521231Y-55570175D02*
X58228338Y-54863068D01*
X55117068Y-57974338D02*
X57521231Y-60378501D01*
X57521231Y-60378501D02*
X58228338Y-59671394D01*
X58228338Y-59671394D02*
X55824175Y-57267231D01*
X55824175Y-57267231D02*
X55117068Y-57974338D01*
X55965596Y-55570175D02*
X55824175Y-55711596D01*
X49690898Y-27224383D02*
X49651269Y-26666772D01*
X49228958Y-27033041D02*
X49690898Y-27224383D01*
X49651269Y-26666772D02*
X49228958Y-27033041D01*
X48507910Y-25246084D02*
X48833191Y-24460787D01*
X49200820Y-25533097D02*
X48507910Y-25246084D01*
X49086015Y-25810261D02*
X49200820Y-25533097D01*
X49363179Y-25925066D02*
X49086015Y-25810261D01*
X55159843Y-28001405D02*
X55485124Y-27216107D01*
X54466933Y-27714392D02*
X55159843Y-28001405D01*
X54352128Y-27991556D02*
X54466933Y-27714392D01*
X54074964Y-27876751D02*
X54352128Y-27991556D01*
X50611543Y-23303217D02*
X55046164Y-25140098D01*
X30541209Y-33016083D02*
X30010879Y-32839306D01*
X30187656Y-33369637D02*
X30541209Y-33016083D01*
X30010879Y-32839306D02*
X30187656Y-33369637D01*
X28260790Y-33351959D02*
X27659749Y-32750918D01*
X28791120Y-32821629D02*
X28260790Y-33351959D01*
X29003252Y-33033761D02*
X28791120Y-32821629D01*
X29215384Y-32821629D02*
X29003252Y-33033761D01*
X33351959Y-28260790D02*
X32750918Y-27659749D01*
X32821629Y-28791120D02*
X33351959Y-28260790D01*
X33033761Y-29003252D02*
X32821629Y-28791120D01*
X32821629Y-29215384D02*
X33033761Y-29003252D01*
X27270841Y-30664953D02*
X30664953Y-27270841D01*
X35975524Y-28563775D02*
X35553212Y-28197506D01*
X35513584Y-28755117D02*
X35975524Y-28563775D01*
X35553212Y-28197506D02*
X35513584Y-28755117D01*
X33740157Y-28001405D02*
X33414876Y-27216107D01*
X34433067Y-27714392D02*
X33740157Y-28001405D01*
X34547872Y-27991556D02*
X34433067Y-27714392D01*
X34825036Y-27876751D02*
X34547872Y-27991556D01*
X40392090Y-25246084D02*
X40066809Y-24460787D01*
X39699180Y-25533097D02*
X40392090Y-25246084D01*
X39813985Y-25810261D02*
X39699180Y-25533097D01*
X39536821Y-25925066D02*
X39813985Y-25810261D01*
X33853836Y-25140098D02*
X38288457Y-23303217D01*
X42050000Y-22555000D02*
X46850000Y-22555000D01*
X47000000Y-25455000D02*
X47300000Y-25455000D01*
X47300000Y-25455000D02*
X47300000Y-25155000D01*
X47300000Y-25155000D02*
X48050000Y-25155000D01*
X48050000Y-25155000D02*
X48050000Y-24305000D01*
X41900000Y-25455000D02*
X41600000Y-25455000D01*
X41600000Y-25455000D02*
X41600000Y-25155000D01*
X41600000Y-25155000D02*
X40850000Y-25155000D01*
X40850000Y-25155000D02*
X40850000Y-24305000D01*
X42450000Y-26030000D02*
X42200000Y-26530000D01*
X42200000Y-26530000D02*
X42700000Y-26530000D01*
X42700000Y-26530000D02*
X42450000Y-26030000D01*
X34122000Y-41284000D02*
X34122000Y-33284000D01*
X38522000Y-33284000D02*
X38522000Y-41384000D01*
X39760000Y-50714000D02*
X31760000Y-50714000D01*
X31760000Y-46314000D02*
X39860000Y-46314000D01*
X40961000Y-55989000D02*
X39811000Y-55989000D01*
X41736000Y-53739000D02*
X39811000Y-53739000D01*
X30393000Y-47744000D02*
X30393000Y-46744000D01*
X29043000Y-46744000D02*
X29043000Y-47744000D01*
X34566000Y-44242000D02*
G75*
G03X34566000Y-44242000I-100000J0D01*
G01*
X34216000Y-43692000D02*
X34216000Y-44192000D01*
X31316000Y-43692000D02*
X34216000Y-43692000D01*
X31316000Y-44192000D02*
X31316000Y-43692000D01*
X34216000Y-44192000D02*
X31316000Y-44192000D01*
X50792000Y-39203000D02*
X49792000Y-39203000D01*
X49792000Y-40553000D02*
X50792000Y-40553000D01*
X48800000Y-68372000D02*
X40100000Y-68372000D01*
X48800000Y-61967000D02*
X40100000Y-61967000D01*
X40100000Y-61967000D02*
X40100000Y-68372000D01*
X40100000Y-67142000D02*
X48800000Y-67142000D01*
X48800000Y-68372000D02*
X48800000Y-61967000D01*
X56380000Y-33615000D02*
X55380000Y-33615000D01*
X55380000Y-34965000D02*
X56380000Y-34965000D01*
X51094000Y-62475999D02*
X51094000Y-61476000D01*
X49744000Y-61476001D02*
X49744000Y-62476000D01*
X45596256Y-50731150D02*
X44889150Y-51438256D01*
X45843744Y-52392850D02*
X46550850Y-51685744D01*
X47168000Y-53294000D02*
G75*
G03X47168000Y-53294000I-100000J0D01*
G01*
X47318000Y-53844000D02*
X47318000Y-53344000D01*
X50218000Y-53844000D02*
X47318000Y-53844000D01*
X50218000Y-53344000D02*
X50218000Y-53844000D01*
X47318000Y-53344000D02*
X50218000Y-53344000D01*
X49522000Y-50888000D02*
X48522000Y-50888000D01*
X48522000Y-49188000D02*
X49522000Y-49188000D01*
X51300000Y-44538000D02*
X50300000Y-44538000D01*
X50300000Y-42838000D02*
X51300000Y-42838000D01*
X60110000Y-44934000D02*
X60110000Y-43934000D01*
X61810000Y-43934000D02*
X61810000Y-44934000D01*
X23538000Y-45150000D02*
X22938000Y-45150000D01*
X23538000Y-43750000D02*
X22938000Y-43750000D01*
X23538000Y-45150000D02*
X23538000Y-43750000D01*
X26938000Y-41750000D02*
X22938000Y-41750000D01*
X26938000Y-47150000D02*
X26938000Y-41750000D01*
X22938000Y-47150000D02*
X26938000Y-47150000D01*
X22938000Y-47150000D02*
X22938000Y-41750000D01*
M02*
