G04 #@! TF.FileFunction,Soldermask,Bot*
%FSLAX46Y46*%
G04 Gerber Fmt 4.6, Leading zero omitted, Abs format (unit mm)*
G04 Created by KiCad (PCBNEW 201609251018+7233~55~ubuntu16.04.1-) date Mon Sep 26 23:00:05 2016*
%MOMM*%
%LPD*%
G01*
G04 APERTURE LIST*
%ADD10C,0.100000*%
%ADD11C,0.700000*%
%ADD12C,0.800000*%
%ADD13C,2.000000*%
%ADD14C,1.400000*%
%ADD15C,0.900000*%
%ADD16C,1.600000*%
%ADD17R,1.600000X2.100000*%
%ADD18R,0.900000X1.400000*%
%ADD19C,2.600000*%
%ADD20R,2.830000X2.770000*%
%ADD21R,2.770000X2.830000*%
%ADD22R,1.010000X1.110000*%
%ADD23R,1.100000X0.650000*%
%ADD24R,1.300000X0.900000*%
%ADD25R,1.050000X1.460000*%
%ADD26C,1.900000*%
%ADD27R,0.900000X1.300000*%
%ADD28C,2.540000*%
%ADD29C,1.950000*%
%ADD30O,1.650000X1.350000*%
%ADD31R,0.800000X1.750000*%
%ADD32R,1.400000X1.650000*%
%ADD33R,1.650000X1.400000*%
%ADD34R,1.200000X0.800000*%
%ADD35R,1.200000X0.700000*%
G04 APERTURE END LIST*
D10*
D11*
X30617577Y-56514656D03*
D10*
G36*
X31289328Y-56337879D02*
X30440800Y-57186407D01*
X29945826Y-56691433D01*
X30794354Y-55842905D01*
X31289328Y-56337879D01*
X31289328Y-56337879D01*
G37*
D11*
X32385344Y-58282423D03*
D10*
G36*
X33057095Y-58105646D02*
X32208567Y-58954174D01*
X31713593Y-58459200D01*
X32562121Y-57610672D01*
X33057095Y-58105646D01*
X33057095Y-58105646D01*
G37*
D11*
X30971130Y-56868210D03*
D10*
G36*
X31642881Y-56691433D02*
X30794353Y-57539961D01*
X30299379Y-57044987D01*
X31147907Y-56196459D01*
X31642881Y-56691433D01*
X31642881Y-56691433D01*
G37*
D11*
X31678237Y-57575317D03*
D10*
G36*
X32349988Y-57398540D02*
X31501460Y-58247068D01*
X31006486Y-57752094D01*
X31855014Y-56903566D01*
X32349988Y-57398540D01*
X32349988Y-57398540D01*
G37*
D11*
X31324683Y-57221763D03*
D10*
G36*
X31996434Y-57044986D02*
X31147906Y-57893514D01*
X30652932Y-57398540D01*
X31501460Y-56550012D01*
X31996434Y-57044986D01*
X31996434Y-57044986D01*
G37*
D11*
X32031790Y-57928870D03*
D10*
G36*
X32703541Y-57752093D02*
X31855013Y-58600621D01*
X31360039Y-58105647D01*
X32208567Y-57257119D01*
X32703541Y-57752093D01*
X32703541Y-57752093D01*
G37*
D12*
X28142703Y-57575317D03*
D10*
G36*
X28849810Y-57433896D02*
X28001282Y-58282424D01*
X27435596Y-57716738D01*
X28284124Y-56868210D01*
X28849810Y-57433896D01*
X28849810Y-57433896D01*
G37*
D12*
X31324683Y-60757297D03*
D10*
G36*
X32031790Y-60615876D02*
X31183262Y-61464404D01*
X30617576Y-60898718D01*
X31466104Y-60050190D01*
X32031790Y-60615876D01*
X32031790Y-60615876D01*
G37*
D11*
X27053564Y-50302849D03*
D10*
G36*
X27741831Y-50396597D02*
X26633175Y-50855817D01*
X26365297Y-50209101D01*
X27473953Y-49749881D01*
X27741831Y-50396597D01*
X27741831Y-50396597D01*
G37*
D11*
X28010273Y-52612548D03*
D10*
G36*
X28698540Y-52706296D02*
X27589884Y-53165516D01*
X27322006Y-52518800D01*
X28430662Y-52059580D01*
X28698540Y-52706296D01*
X28698540Y-52706296D01*
G37*
D11*
X27244906Y-50764789D03*
D10*
G36*
X27933173Y-50858537D02*
X26824517Y-51317757D01*
X26556639Y-50671041D01*
X27665295Y-50211821D01*
X27933173Y-50858537D01*
X27933173Y-50858537D01*
G37*
D11*
X27627589Y-51688669D03*
D10*
G36*
X28315856Y-51782417D02*
X27207200Y-52241637D01*
X26939322Y-51594921D01*
X28047978Y-51135701D01*
X28315856Y-51782417D01*
X28315856Y-51782417D01*
G37*
D11*
X27436247Y-51226729D03*
D10*
G36*
X28124514Y-51320477D02*
X27015858Y-51779697D01*
X26747980Y-51132981D01*
X27856636Y-50673761D01*
X28124514Y-51320477D01*
X28124514Y-51320477D01*
G37*
D11*
X27818931Y-52150609D03*
D10*
G36*
X28507198Y-52244357D02*
X27398542Y-52703577D01*
X27130664Y-52056861D01*
X28239320Y-51597641D01*
X28507198Y-52244357D01*
X28507198Y-52244357D01*
G37*
D12*
X24361182Y-50335678D03*
D10*
G36*
X25068583Y-50475620D02*
X23959928Y-50934840D01*
X23653781Y-50195736D01*
X24762436Y-49736516D01*
X25068583Y-50475620D01*
X25068583Y-50475620D01*
G37*
D12*
X26083257Y-54493136D03*
D10*
G36*
X26790658Y-54633078D02*
X25682003Y-55092298D01*
X25375856Y-54353194D01*
X26484511Y-53893974D01*
X26790658Y-54633078D01*
X26790658Y-54633078D01*
G37*
D11*
X28010273Y-36287452D03*
D10*
G36*
X28430662Y-36840420D02*
X27322006Y-36381200D01*
X27589884Y-35734484D01*
X28698540Y-36193704D01*
X28430662Y-36840420D01*
X28430662Y-36840420D01*
G37*
D11*
X27053564Y-38597151D03*
D10*
G36*
X27473953Y-39150119D02*
X26365297Y-38690899D01*
X26633175Y-38044183D01*
X27741831Y-38503403D01*
X27473953Y-39150119D01*
X27473953Y-39150119D01*
G37*
D11*
X27818931Y-36749391D03*
D10*
G36*
X28239320Y-37302359D02*
X27130664Y-36843139D01*
X27398542Y-36196423D01*
X28507198Y-36655643D01*
X28239320Y-37302359D01*
X28239320Y-37302359D01*
G37*
D11*
X27436247Y-37673271D03*
D10*
G36*
X27856636Y-38226239D02*
X26747980Y-37767019D01*
X27015858Y-37120303D01*
X28124514Y-37579523D01*
X27856636Y-38226239D01*
X27856636Y-38226239D01*
G37*
D11*
X27627589Y-37211331D03*
D10*
G36*
X28047978Y-37764299D02*
X26939322Y-37305079D01*
X27207200Y-36658363D01*
X28315856Y-37117583D01*
X28047978Y-37764299D01*
X28047978Y-37764299D01*
G37*
D11*
X27244906Y-38135211D03*
D10*
G36*
X27665295Y-38688179D02*
X26556639Y-38228959D01*
X26824517Y-37582243D01*
X27933173Y-38041463D01*
X27665295Y-38688179D01*
X27665295Y-38688179D01*
G37*
D12*
X26083257Y-34406864D03*
D10*
G36*
X26484511Y-35006026D02*
X25375856Y-34546806D01*
X25682003Y-33807702D01*
X26790658Y-34266922D01*
X26484511Y-35006026D01*
X26484511Y-35006026D01*
G37*
D12*
X24361182Y-38564322D03*
D10*
G36*
X24762436Y-39163484D02*
X23653781Y-38704264D01*
X23959928Y-37965160D01*
X25068583Y-38424380D01*
X24762436Y-39163484D01*
X24762436Y-39163484D01*
G37*
D13*
X56708058Y-61262384D03*
D10*
G36*
X56071662Y-59211774D02*
X58758668Y-61898780D01*
X57344454Y-63312994D01*
X54657448Y-60625988D01*
X56071662Y-59211774D01*
X56071662Y-59211774D01*
G37*
D13*
X61516384Y-56454058D03*
D10*
G36*
X60879988Y-54403448D02*
X63566994Y-57090454D01*
X62152780Y-58504668D01*
X59465774Y-55817662D01*
X60879988Y-54403448D01*
X60879988Y-54403448D01*
G37*
D14*
X54480672Y-55640885D03*
D10*
G36*
X53596789Y-53767052D02*
X56354505Y-56524768D01*
X55364555Y-57514718D01*
X52606839Y-54757002D01*
X53596789Y-53767052D01*
X53596789Y-53767052D01*
G37*
D14*
X55894885Y-54226672D03*
D10*
G36*
X55011002Y-52352839D02*
X57768718Y-55110555D01*
X56778768Y-56100505D01*
X54021052Y-53342789D01*
X55011002Y-52352839D01*
X55011002Y-52352839D01*
G37*
D15*
X50005253Y-25812184D03*
D10*
G36*
X49321629Y-26286692D02*
X49857386Y-24993261D01*
X50688877Y-25337676D01*
X50153120Y-26631107D01*
X49321629Y-26286692D01*
X49321629Y-26286692D01*
G37*
D15*
X50744355Y-26118330D03*
D10*
G36*
X50060731Y-26592838D02*
X50596488Y-25299407D01*
X51427979Y-25643822D01*
X50892222Y-26937253D01*
X50060731Y-26592838D01*
X50060731Y-26592838D01*
G37*
D15*
X51483459Y-26424477D03*
D10*
G36*
X50799835Y-26898985D02*
X51335592Y-25605554D01*
X52167083Y-25949969D01*
X51631326Y-27243400D01*
X50799835Y-26898985D01*
X50799835Y-26898985D01*
G37*
D15*
X52222562Y-26730624D03*
D10*
G36*
X51538938Y-27205132D02*
X52074695Y-25911701D01*
X52906186Y-26256116D01*
X52370429Y-27549547D01*
X51538938Y-27205132D01*
X51538938Y-27205132D01*
G37*
D15*
X52961666Y-27036771D03*
D10*
G36*
X52278042Y-27511279D02*
X52813799Y-26217848D01*
X53645290Y-26562263D01*
X53109533Y-27855694D01*
X52278042Y-27511279D01*
X52278042Y-27511279D01*
G37*
D15*
X53700770Y-27342917D03*
D10*
G36*
X53017146Y-27817425D02*
X53552903Y-26523994D01*
X54384394Y-26868409D01*
X53848637Y-28161840D01*
X53017146Y-27817425D01*
X53017146Y-27817425D01*
G37*
D16*
X55648046Y-26038841D03*
D10*
G36*
X54507125Y-26702768D02*
X55310760Y-24762621D01*
X56788967Y-25374914D01*
X55985332Y-27315061D01*
X54507125Y-26702768D01*
X54507125Y-26702768D01*
G37*
D16*
X49550441Y-23513130D03*
D10*
G36*
X48409520Y-24177057D02*
X49213155Y-22236910D01*
X50691362Y-22849203D01*
X49887727Y-24789350D01*
X48409520Y-24177057D01*
X48409520Y-24177057D01*
G37*
D15*
X29356806Y-32185233D03*
D10*
G36*
X29533583Y-32998406D02*
X28543633Y-32008456D01*
X29180029Y-31372060D01*
X30169979Y-32362010D01*
X29533583Y-32998406D01*
X29533583Y-32998406D01*
G37*
D15*
X29922491Y-31619547D03*
D10*
G36*
X30099268Y-32432720D02*
X29109318Y-31442770D01*
X29745714Y-30806374D01*
X30735664Y-31796324D01*
X30099268Y-32432720D01*
X30099268Y-32432720D01*
G37*
D15*
X30488176Y-31053862D03*
D10*
G36*
X30664953Y-31867035D02*
X29675003Y-30877085D01*
X30311399Y-30240689D01*
X31301349Y-31230639D01*
X30664953Y-31867035D01*
X30664953Y-31867035D01*
G37*
D15*
X31053862Y-30488176D03*
D10*
G36*
X31230639Y-31301349D02*
X30240689Y-30311399D01*
X30877085Y-29675003D01*
X31867035Y-30664953D01*
X31230639Y-31301349D01*
X31230639Y-31301349D01*
G37*
D15*
X31619547Y-29922491D03*
D10*
G36*
X31796324Y-30735664D02*
X30806374Y-29745714D01*
X31442770Y-29109318D01*
X32432720Y-30099268D01*
X31796324Y-30735664D01*
X31796324Y-30735664D01*
G37*
D15*
X32185233Y-29356806D03*
D10*
G36*
X32362010Y-30169979D02*
X31372060Y-29180029D01*
X32008456Y-28543633D01*
X32998406Y-29533583D01*
X32362010Y-30169979D01*
X32362010Y-30169979D01*
G37*
D16*
X31725613Y-27058709D03*
D10*
G36*
X31902390Y-28366857D02*
X30417465Y-26881932D01*
X31548836Y-25750561D01*
X33033761Y-27235486D01*
X31902390Y-28366857D01*
X31902390Y-28366857D01*
G37*
D16*
X27058709Y-31725613D03*
D10*
G36*
X27235486Y-33033761D02*
X25750561Y-31548836D01*
X26881932Y-30417465D01*
X28366857Y-31902390D01*
X27235486Y-33033761D01*
X27235486Y-33033761D01*
G37*
D15*
X35199230Y-27342917D03*
D10*
G36*
X35051363Y-28161840D02*
X34515606Y-26868409D01*
X35347097Y-26523994D01*
X35882854Y-27817425D01*
X35051363Y-28161840D01*
X35051363Y-28161840D01*
G37*
D15*
X35938334Y-27036771D03*
D10*
G36*
X35790467Y-27855694D02*
X35254710Y-26562263D01*
X36086201Y-26217848D01*
X36621958Y-27511279D01*
X35790467Y-27855694D01*
X35790467Y-27855694D01*
G37*
D15*
X36677438Y-26730624D03*
D10*
G36*
X36529571Y-27549547D02*
X35993814Y-26256116D01*
X36825305Y-25911701D01*
X37361062Y-27205132D01*
X36529571Y-27549547D01*
X36529571Y-27549547D01*
G37*
D15*
X37416541Y-26424477D03*
D10*
G36*
X37268674Y-27243400D02*
X36732917Y-25949969D01*
X37564408Y-25605554D01*
X38100165Y-26898985D01*
X37268674Y-27243400D01*
X37268674Y-27243400D01*
G37*
D15*
X38155645Y-26118330D03*
D10*
G36*
X38007778Y-26937253D02*
X37472021Y-25643822D01*
X38303512Y-25299407D01*
X38839269Y-26592838D01*
X38007778Y-26937253D01*
X38007778Y-26937253D01*
G37*
D15*
X38894747Y-25812184D03*
D10*
G36*
X38746880Y-26631107D02*
X38211123Y-25337676D01*
X39042614Y-24993261D01*
X39578371Y-26286692D01*
X38746880Y-26631107D01*
X38746880Y-26631107D01*
G37*
D16*
X39349559Y-23513130D03*
D10*
G36*
X39012273Y-24789350D02*
X38208638Y-22849203D01*
X39686845Y-22236910D01*
X40490480Y-24177057D01*
X39012273Y-24789350D01*
X39012273Y-24789350D01*
G37*
D16*
X33251954Y-26038841D03*
D10*
G36*
X32914668Y-27315061D02*
X32111033Y-25374914D01*
X33589240Y-24762621D01*
X34392875Y-26702768D01*
X32914668Y-27315061D01*
X32914668Y-27315061D01*
G37*
D17*
X41150000Y-23155000D03*
X47750000Y-23155000D03*
D18*
X46450000Y-25105000D03*
X45650000Y-25105000D03*
X44850000Y-25105000D03*
X44050000Y-25105000D03*
X43250000Y-25105000D03*
X42450000Y-25105000D03*
D19*
X29464000Y-41402000D03*
X58928000Y-49530000D03*
D20*
X36322000Y-40204000D03*
X36322000Y-33964000D03*
D21*
X38680000Y-48514000D03*
X32440000Y-48514000D03*
D22*
X40386000Y-54509000D03*
X40386000Y-55219000D03*
D23*
X39461000Y-54364000D03*
X39461000Y-54864000D03*
X39461000Y-55364000D03*
X41311000Y-55364000D03*
X41311000Y-54864000D03*
X41311000Y-54364000D03*
D24*
X29718000Y-47994000D03*
X29718000Y-46494000D03*
D25*
X33716000Y-42842000D03*
X31816000Y-42842000D03*
X31816000Y-45042000D03*
X32766000Y-45042000D03*
X33716000Y-45042000D03*
D26*
X53594000Y-37084000D03*
X51054000Y-37084000D03*
X48514000Y-37084000D03*
X43434000Y-37084000D03*
D27*
X51042000Y-39878000D03*
X49542000Y-39878000D03*
D28*
X36322000Y-37084000D03*
X36322000Y-60198000D03*
X61214000Y-37084000D03*
D29*
X40950000Y-65692000D03*
X47950000Y-65692000D03*
D30*
X41950000Y-62992000D03*
X46950000Y-62992000D03*
D31*
X43150000Y-62992000D03*
X43800000Y-62992000D03*
X44450000Y-62992000D03*
X45100000Y-62992000D03*
X45750000Y-62992000D03*
D27*
X56630000Y-34290000D03*
X55130000Y-34290000D03*
D24*
X50419000Y-62726000D03*
X50419000Y-61226000D03*
D15*
X46250330Y-51031670D03*
D10*
G36*
X46391751Y-51809487D02*
X45472513Y-50890249D01*
X46108909Y-50253853D01*
X47028147Y-51173091D01*
X46391751Y-51809487D01*
X46391751Y-51809487D01*
G37*
D15*
X45189670Y-52092330D03*
D10*
G36*
X45331091Y-52870147D02*
X44411853Y-51950909D01*
X45048249Y-51314513D01*
X45967487Y-52233751D01*
X45331091Y-52870147D01*
X45331091Y-52870147D01*
G37*
D25*
X47818000Y-54694000D03*
X49718000Y-54694000D03*
X49718000Y-52494000D03*
X48768000Y-52494000D03*
X47818000Y-52494000D03*
D26*
X45974000Y-37084000D03*
D32*
X50022000Y-50038000D03*
X48022000Y-50038000D03*
X51800000Y-43688000D03*
X49800000Y-43688000D03*
D33*
X60960000Y-45434000D03*
X60960000Y-43434000D03*
D34*
X23638000Y-46700000D03*
X23638000Y-42200000D03*
D35*
X26138000Y-45200000D03*
X26138000Y-44200000D03*
X26138000Y-44700000D03*
X26138000Y-43700000D03*
X26138000Y-45700000D03*
X26138000Y-43200000D03*
M02*
