G04 #@! TF.GenerationSoftware,KiCad,Pcbnew,no-vcs-found-7448~57~ubuntu16.10.1*
G04 #@! TF.CreationDate,2017-01-12T10:05:01-05:00*
G04 #@! TF.ProjectId,featherlight,666561746865726C696768742E6B6963,rev?*
G04 #@! TF.FileFunction,Paste,Top*
G04 #@! TF.FilePolarity,Positive*
%FSLAX46Y46*%
G04 Gerber Fmt 4.6, Leading zero omitted, Abs format (unit mm)*
G04 Created by KiCad (PCBNEW no-vcs-found-7448~57~ubuntu16.10.1) date Thu Jan 12 10:05:01 2017*
%MOMM*%
%LPD*%
G01*
G04 APERTURE LIST*
%ADD10C,0.100000*%
%ADD11R,1.266000X1.266000*%
%ADD12R,0.316500X0.253200*%
%ADD13R,0.316500X0.189900*%
%ADD14R,0.633000X2.025600*%
%ADD15R,0.363974X0.158250*%
%ADD16R,0.158250X0.427274*%
%ADD17R,0.504856X0.504856*%
%ADD18C,0.538050*%
%ADD19C,0.316500*%
%ADD20R,0.696300X1.202700*%
%ADD21R,1.035000X1.035000*%
%ADD22R,0.443100X0.158250*%
%ADD23R,0.158250X0.443100*%
%ADD24R,0.316500X0.569700*%
%ADD25R,0.633000X0.538050*%
%ADD26R,0.569700X0.633000*%
%ADD27R,0.670980X0.411450*%
%ADD28R,0.379800X0.316500*%
%ADD29R,0.538050X0.633000*%
%ADD30R,1.076100X2.215500*%
%ADD31R,0.316500X0.379800*%
%ADD32R,0.569700X0.316500*%
%ADD33R,2.025600X0.633000*%
G04 APERTURE END LIST*
D10*
D11*
X29464000Y-47879000D03*
X29464000Y-51879000D03*
D12*
X39632000Y-45986000D03*
D13*
X39632000Y-46986000D03*
X39632000Y-46486000D03*
D12*
X39632000Y-47486000D03*
D13*
X40632000Y-46486000D03*
D12*
X40632000Y-45986000D03*
D13*
X40632000Y-46986000D03*
D12*
X40632000Y-47486000D03*
D14*
X46514000Y-51464000D03*
X46514000Y-58264000D03*
X50514000Y-58264000D03*
X50514000Y-51464000D03*
D15*
X46700000Y-43700000D03*
X46700000Y-44200000D03*
X46700000Y-44700000D03*
D16*
X42200000Y-42887500D03*
X42700000Y-42887500D03*
X43200000Y-42887500D03*
X43700000Y-42887500D03*
X44200000Y-42887500D03*
X44700000Y-42887500D03*
X45200000Y-42887500D03*
X45700000Y-42887500D03*
X46200000Y-42887500D03*
X46700000Y-46012500D03*
X46200000Y-46012500D03*
X45700000Y-46012500D03*
X45200000Y-46012500D03*
X44700000Y-46012500D03*
X44200000Y-46012500D03*
X43700000Y-46012500D03*
X43200000Y-46012500D03*
X42700000Y-46012500D03*
D15*
X42200000Y-45200000D03*
X42200000Y-44700000D03*
X42200000Y-44200000D03*
X42200000Y-43700000D03*
D16*
X46700000Y-42887500D03*
D15*
X46700000Y-45200000D03*
D16*
X42200000Y-46012500D03*
D17*
X40894000Y-56756300D03*
X40894000Y-55257700D03*
D18*
X25111304Y-37374351D03*
D10*
G36*
X24715945Y-37501778D02*
X24921848Y-37004685D01*
X25506663Y-37246924D01*
X25300760Y-37744017D01*
X24715945Y-37501778D01*
X24715945Y-37501778D01*
G37*
D18*
X25781000Y-35757561D03*
D10*
G36*
X25385641Y-35884988D02*
X25591544Y-35387895D01*
X26176359Y-35630134D01*
X25970456Y-36127227D01*
X25385641Y-35884988D01*
X25385641Y-35884988D01*
G37*
D18*
X21877726Y-36034959D03*
D10*
G36*
X21482367Y-36162386D02*
X21688270Y-35665293D01*
X22273085Y-35907532D01*
X22067182Y-36404625D01*
X21482367Y-36162386D01*
X21482367Y-36162386D01*
G37*
D18*
X22547422Y-34418169D03*
D10*
G36*
X22152063Y-34545596D02*
X22357966Y-34048503D01*
X22942781Y-34290742D01*
X22736878Y-34787835D01*
X22152063Y-34545596D01*
X22152063Y-34545596D01*
G37*
D19*
X23714931Y-56337878D03*
D10*
G36*
X23829816Y-56119002D02*
X23950935Y-56411410D01*
X23600046Y-56556754D01*
X23478927Y-56264346D01*
X23829816Y-56119002D01*
X23829816Y-56119002D01*
G37*
D19*
X24731199Y-55916926D03*
D10*
G36*
X24846084Y-55698050D02*
X24967203Y-55990458D01*
X24616314Y-56135802D01*
X24495195Y-55843394D01*
X24846084Y-55698050D01*
X24846084Y-55698050D01*
G37*
D18*
X25751082Y-53142439D03*
D10*
G36*
X25561626Y-53512105D02*
X25355723Y-53015012D01*
X25940538Y-52772773D01*
X26146441Y-53269866D01*
X25561626Y-53512105D01*
X25561626Y-53512105D01*
G37*
D18*
X25081386Y-51525649D03*
D10*
G36*
X24891930Y-51895315D02*
X24686027Y-51398222D01*
X25270842Y-51155983D01*
X25476745Y-51653076D01*
X24891930Y-51895315D01*
X24891930Y-51895315D01*
G37*
D18*
X22517504Y-54481831D03*
D10*
G36*
X22328048Y-54851497D02*
X22122145Y-54354404D01*
X22706960Y-54112165D01*
X22912863Y-54609258D01*
X22328048Y-54851497D01*
X22328048Y-54851497D01*
G37*
D18*
X21847808Y-52865041D03*
D10*
G36*
X21658352Y-53234707D02*
X21452449Y-52737614D01*
X22037264Y-52495375D01*
X22243167Y-52992468D01*
X21658352Y-53234707D01*
X21658352Y-53234707D01*
G37*
D18*
X51525649Y-25081386D03*
D10*
G36*
X51398222Y-24686027D02*
X51895315Y-24891930D01*
X51653076Y-25476745D01*
X51155983Y-25270842D01*
X51398222Y-24686027D01*
X51398222Y-24686027D01*
G37*
D18*
X53142439Y-25751082D03*
D10*
G36*
X53015012Y-25355723D02*
X53512105Y-25561626D01*
X53269866Y-26146441D01*
X52772773Y-25940538D01*
X53015012Y-25355723D01*
X53015012Y-25355723D01*
G37*
D18*
X52865041Y-21847808D03*
D10*
G36*
X52737614Y-21452449D02*
X53234707Y-21658352D01*
X52992468Y-22243167D01*
X52495375Y-22037264D01*
X52737614Y-21452449D01*
X52737614Y-21452449D01*
G37*
D18*
X54481831Y-22517504D03*
D10*
G36*
X54354404Y-22122145D02*
X54851497Y-22328048D01*
X54609258Y-22912863D01*
X54112165Y-22706960D01*
X54354404Y-22122145D01*
X54354404Y-22122145D01*
G37*
D18*
X58399096Y-29263467D03*
D10*
G36*
X58432666Y-28849438D02*
X58813125Y-29229897D01*
X58365526Y-29677496D01*
X57985067Y-29297037D01*
X58432666Y-28849438D01*
X58432666Y-28849438D01*
G37*
D18*
X59636533Y-30500904D03*
D10*
G36*
X59670103Y-30086875D02*
X60050562Y-30467334D01*
X59602963Y-30914933D01*
X59222504Y-30534474D01*
X59670103Y-30086875D01*
X59670103Y-30086875D01*
G37*
D18*
X60873969Y-26788594D03*
D10*
G36*
X60907539Y-26374565D02*
X61287998Y-26755024D01*
X60840399Y-27202623D01*
X60459940Y-26822164D01*
X60907539Y-26374565D01*
X60907539Y-26374565D01*
G37*
D18*
X62111406Y-28026031D03*
D10*
G36*
X62144976Y-27612002D02*
X62525435Y-27992461D01*
X62077836Y-28440060D01*
X61697377Y-28059601D01*
X62144976Y-27612002D01*
X62144976Y-27612002D01*
G37*
D18*
X29263467Y-30500904D03*
D10*
G36*
X28849438Y-30467334D02*
X29229897Y-30086875D01*
X29677496Y-30534474D01*
X29297037Y-30914933D01*
X28849438Y-30467334D01*
X28849438Y-30467334D01*
G37*
D18*
X30500904Y-29263467D03*
D10*
G36*
X30086875Y-29229897D02*
X30467334Y-28849438D01*
X30914933Y-29297037D01*
X30534474Y-29677496D01*
X30086875Y-29229897D01*
X30086875Y-29229897D01*
G37*
D18*
X26788594Y-28026031D03*
D10*
G36*
X26374565Y-27992461D02*
X26755024Y-27612002D01*
X27202623Y-28059601D01*
X26822164Y-28440060D01*
X26374565Y-27992461D01*
X26374565Y-27992461D01*
G37*
D18*
X28026031Y-26788594D03*
D10*
G36*
X27612002Y-26755024D02*
X27992461Y-26374565D01*
X28440060Y-26822164D01*
X28059601Y-27202623D01*
X27612002Y-26755024D01*
X27612002Y-26755024D01*
G37*
D20*
X55773000Y-37846000D03*
X58273000Y-37846000D03*
D21*
X56234500Y-43587500D03*
X54509500Y-43587500D03*
X56234500Y-45312500D03*
X54509500Y-45312500D03*
D22*
X57772000Y-42700000D03*
X57772000Y-43200000D03*
X57772000Y-43700000D03*
X57772000Y-44200000D03*
X57772000Y-44700000D03*
X57772000Y-45200000D03*
X57772000Y-45700000D03*
X57772000Y-46200000D03*
D23*
X57122000Y-46850000D03*
X56622000Y-46850000D03*
X56122000Y-46850000D03*
X55622000Y-46850000D03*
X55122000Y-46850000D03*
X54622000Y-46850000D03*
X54122000Y-46850000D03*
X53622000Y-46850000D03*
D22*
X52972000Y-46200000D03*
X52972000Y-45700000D03*
X52972000Y-45200000D03*
X52972000Y-44700000D03*
X52972000Y-44200000D03*
X52972000Y-43700000D03*
X52972000Y-43200000D03*
X52972000Y-42700000D03*
D23*
X53622000Y-42050000D03*
X54122000Y-42050000D03*
X54622000Y-42050000D03*
X55122000Y-42050000D03*
X55622000Y-42050000D03*
X56122000Y-42050000D03*
X56622000Y-42050000D03*
X57122000Y-42050000D03*
D24*
X49542000Y-39878000D03*
X51042000Y-39878000D03*
D25*
X23848000Y-45325000D03*
X23848000Y-43575000D03*
X20348000Y-45325000D03*
X20348000Y-43575000D03*
D26*
X47226000Y-36614000D03*
X51326000Y-36614000D03*
X51326000Y-35014000D03*
X47226000Y-35014000D03*
D27*
X55288000Y-55052000D03*
X55288000Y-53152000D03*
X57488000Y-53152000D03*
X57487999Y-54102000D03*
X57488000Y-55052000D03*
D14*
X34576000Y-30382000D03*
X34576000Y-37182000D03*
X38576000Y-37182000D03*
X38576000Y-30382000D03*
D19*
X50284957Y-22398360D03*
D10*
G36*
X50358489Y-22634364D02*
X50066081Y-22513245D01*
X50211425Y-22162356D01*
X50503833Y-22283475D01*
X50358489Y-22634364D01*
X50358489Y-22634364D01*
G37*
D19*
X50705909Y-21382092D03*
D10*
G36*
X50779441Y-21618096D02*
X50487033Y-21496977D01*
X50632377Y-21146088D01*
X50924785Y-21267207D01*
X50779441Y-21618096D01*
X50779441Y-21618096D01*
G37*
D19*
X58279594Y-26309883D03*
D10*
G36*
X58257214Y-26556062D02*
X58033415Y-26332263D01*
X58301974Y-26063704D01*
X58525773Y-26287503D01*
X58257214Y-26556062D01*
X58257214Y-26556062D01*
G37*
D19*
X59057412Y-25532065D03*
D10*
G36*
X59035032Y-25778244D02*
X58811233Y-25554445D01*
X59079792Y-25285886D01*
X59303591Y-25509685D01*
X59035032Y-25778244D01*
X59035032Y-25778244D01*
G37*
D19*
X64168801Y-32983074D03*
D10*
G36*
X64053916Y-33201950D02*
X63932797Y-32909542D01*
X64283686Y-32764198D01*
X64404805Y-33056606D01*
X64053916Y-33201950D01*
X64053916Y-33201950D01*
G37*
D19*
X65185069Y-32562122D03*
D10*
G36*
X65070184Y-32780998D02*
X64949065Y-32488590D01*
X65299954Y-32343246D01*
X65421073Y-32635654D01*
X65070184Y-32780998D01*
X65070184Y-32780998D01*
G37*
D28*
X67056000Y-41402000D03*
X68156000Y-41402000D03*
D19*
X66501640Y-50284957D03*
D10*
G36*
X66265636Y-50358489D02*
X66386755Y-50066081D01*
X66737644Y-50211425D01*
X66616525Y-50503833D01*
X66265636Y-50358489D01*
X66265636Y-50358489D01*
G37*
D19*
X67517908Y-50705909D03*
D10*
G36*
X67281904Y-50779441D02*
X67403023Y-50487033D01*
X67753912Y-50632377D01*
X67632793Y-50924785D01*
X67281904Y-50779441D01*
X67281904Y-50779441D01*
G37*
D19*
X62590117Y-58279594D03*
D10*
G36*
X62343938Y-58257214D02*
X62567737Y-58033415D01*
X62836296Y-58301974D01*
X62612497Y-58525773D01*
X62343938Y-58257214D01*
X62343938Y-58257214D01*
G37*
D19*
X63367935Y-59057412D03*
D10*
G36*
X63121756Y-59035032D02*
X63345555Y-58811233D01*
X63614114Y-59079792D01*
X63390315Y-59303591D01*
X63121756Y-59035032D01*
X63121756Y-59035032D01*
G37*
D19*
X55916926Y-64168801D03*
D10*
G36*
X55698050Y-64053916D02*
X55990458Y-63932797D01*
X56135802Y-64283686D01*
X55843394Y-64404805D01*
X55698050Y-64053916D01*
X55698050Y-64053916D01*
G37*
D19*
X56337878Y-65185069D03*
D10*
G36*
X56119002Y-65070184D02*
X56411410Y-64949065D01*
X56556754Y-65299954D01*
X56264346Y-65421073D01*
X56119002Y-65070184D01*
X56119002Y-65070184D01*
G37*
D28*
X42588000Y-62738000D03*
X43688000Y-62738000D03*
D19*
X38615043Y-66501640D03*
D10*
G36*
X38541511Y-66265636D02*
X38833919Y-66386755D01*
X38688575Y-66737644D01*
X38396167Y-66616525D01*
X38541511Y-66265636D01*
X38541511Y-66265636D01*
G37*
D19*
X38194091Y-67517908D03*
D10*
G36*
X38120559Y-67281904D02*
X38412967Y-67403023D01*
X38267623Y-67753912D01*
X37975215Y-67632793D01*
X38120559Y-67281904D01*
X38120559Y-67281904D01*
G37*
D19*
X30620406Y-62590117D03*
D10*
G36*
X30642786Y-62343938D02*
X30866585Y-62567737D01*
X30598026Y-62836296D01*
X30374227Y-62612497D01*
X30642786Y-62343938D01*
X30642786Y-62343938D01*
G37*
D19*
X29842588Y-63367935D03*
D10*
G36*
X29864968Y-63121756D02*
X30088767Y-63345555D01*
X29820208Y-63614114D01*
X29596409Y-63390315D01*
X29864968Y-63121756D01*
X29864968Y-63121756D01*
G37*
D19*
X24731199Y-55916926D03*
D10*
G36*
X24846084Y-55698050D02*
X24967203Y-55990458D01*
X24616314Y-56135802D01*
X24495195Y-55843394D01*
X24846084Y-55698050D01*
X24846084Y-55698050D01*
G37*
D19*
X23714931Y-56337878D03*
D10*
G36*
X23829816Y-56119002D02*
X23950935Y-56411410D01*
X23600046Y-56556754D01*
X23478927Y-56264346D01*
X23829816Y-56119002D01*
X23829816Y-56119002D01*
G37*
D28*
X21844000Y-47498000D03*
X20744000Y-47498000D03*
D19*
X22398360Y-38615043D03*
D10*
G36*
X22634364Y-38541511D02*
X22513245Y-38833919D01*
X22162356Y-38688575D01*
X22283475Y-38396167D01*
X22634364Y-38541511D01*
X22634364Y-38541511D01*
G37*
D19*
X21382092Y-38194091D03*
D10*
G36*
X21618096Y-38120559D02*
X21496977Y-38412967D01*
X21146088Y-38267623D01*
X21267207Y-37975215D01*
X21618096Y-38120559D01*
X21618096Y-38120559D01*
G37*
D19*
X26309883Y-30620406D03*
D10*
G36*
X26556062Y-30642786D02*
X26332263Y-30866585D01*
X26063704Y-30598026D01*
X26287503Y-30374227D01*
X26556062Y-30642786D01*
X26556062Y-30642786D01*
G37*
D19*
X25532065Y-29842588D03*
D10*
G36*
X25778244Y-29864968D02*
X25554445Y-30088767D01*
X25285886Y-29820208D01*
X25509685Y-29596409D01*
X25778244Y-29864968D01*
X25778244Y-29864968D01*
G37*
D19*
X32983074Y-24731199D03*
D10*
G36*
X33201950Y-24846084D02*
X32909542Y-24967203D01*
X32764198Y-24616314D01*
X33056606Y-24495195D01*
X33201950Y-24846084D01*
X33201950Y-24846084D01*
G37*
D19*
X32562122Y-23714931D03*
D10*
G36*
X32780998Y-23829816D02*
X32488590Y-23950935D01*
X32343246Y-23600046D01*
X32635654Y-23478927D01*
X32780998Y-23829816D01*
X32780998Y-23829816D01*
G37*
D18*
X63148918Y-35757561D03*
D10*
G36*
X63338374Y-35387895D02*
X63544277Y-35884988D01*
X62959462Y-36127227D01*
X62753559Y-35630134D01*
X63338374Y-35387895D01*
X63338374Y-35387895D01*
G37*
D18*
X63818614Y-37374351D03*
D10*
G36*
X64008070Y-37004685D02*
X64213973Y-37501778D01*
X63629158Y-37744017D01*
X63423255Y-37246924D01*
X64008070Y-37004685D01*
X64008070Y-37004685D01*
G37*
D18*
X66382496Y-34418169D03*
D10*
G36*
X66571952Y-34048503D02*
X66777855Y-34545596D01*
X66193040Y-34787835D01*
X65987137Y-34290742D01*
X66571952Y-34048503D01*
X66571952Y-34048503D01*
G37*
D18*
X67052192Y-36034959D03*
D10*
G36*
X67241648Y-35665293D02*
X67447551Y-36162386D01*
X66862736Y-36404625D01*
X66656833Y-35907532D01*
X67241648Y-35665293D01*
X67241648Y-35665293D01*
G37*
D25*
X65052000Y-43575000D03*
X65052000Y-45325000D03*
X68552000Y-43575000D03*
X68552000Y-45325000D03*
D18*
X63818614Y-51525649D03*
D10*
G36*
X64213973Y-51398222D02*
X64008070Y-51895315D01*
X63423255Y-51653076D01*
X63629158Y-51155983D01*
X64213973Y-51398222D01*
X64213973Y-51398222D01*
G37*
D18*
X63148918Y-53142439D03*
D10*
G36*
X63544277Y-53015012D02*
X63338374Y-53512105D01*
X62753559Y-53269866D01*
X62959462Y-52772773D01*
X63544277Y-53015012D01*
X63544277Y-53015012D01*
G37*
D18*
X67052192Y-52865041D03*
D10*
G36*
X67447551Y-52737614D02*
X67241648Y-53234707D01*
X66656833Y-52992468D01*
X66862736Y-52495375D01*
X67447551Y-52737614D01*
X67447551Y-52737614D01*
G37*
D18*
X66382496Y-54481831D03*
D10*
G36*
X66777855Y-54354404D02*
X66571952Y-54851497D01*
X65987137Y-54609258D01*
X66193040Y-54112165D01*
X66777855Y-54354404D01*
X66777855Y-54354404D01*
G37*
D18*
X59636533Y-58399096D03*
D10*
G36*
X60050562Y-58432666D02*
X59670103Y-58813125D01*
X59222504Y-58365526D01*
X59602963Y-57985067D01*
X60050562Y-58432666D01*
X60050562Y-58432666D01*
G37*
D18*
X58399096Y-59636533D03*
D10*
G36*
X58813125Y-59670103D02*
X58432666Y-60050562D01*
X57985067Y-59602963D01*
X58365526Y-59222504D01*
X58813125Y-59670103D01*
X58813125Y-59670103D01*
G37*
D18*
X62111406Y-60873969D03*
D10*
G36*
X62525435Y-60907539D02*
X62144976Y-61287998D01*
X61697377Y-60840399D01*
X62077836Y-60459940D01*
X62525435Y-60907539D01*
X62525435Y-60907539D01*
G37*
D18*
X60873969Y-62111406D03*
D10*
G36*
X61287998Y-62144976D02*
X60907539Y-62525435D01*
X60459940Y-62077836D01*
X60840399Y-61697377D01*
X61287998Y-62144976D01*
X61287998Y-62144976D01*
G37*
D18*
X53142439Y-63148918D03*
D10*
G36*
X53512105Y-63338374D02*
X53015012Y-63544277D01*
X52772773Y-62959462D01*
X53269866Y-62753559D01*
X53512105Y-63338374D01*
X53512105Y-63338374D01*
G37*
D18*
X51525649Y-63818614D03*
D10*
G36*
X51895315Y-64008070D02*
X51398222Y-64213973D01*
X51155983Y-63629158D01*
X51653076Y-63423255D01*
X51895315Y-64008070D01*
X51895315Y-64008070D01*
G37*
D18*
X54481831Y-66382496D03*
D10*
G36*
X54851497Y-66571952D02*
X54354404Y-66777855D01*
X54112165Y-66193040D01*
X54609258Y-65987137D01*
X54851497Y-66571952D01*
X54851497Y-66571952D01*
G37*
D18*
X52865041Y-67052192D03*
D10*
G36*
X53234707Y-67241648D02*
X52737614Y-67447551D01*
X52495375Y-66862736D01*
X52992468Y-66656833D01*
X53234707Y-67241648D01*
X53234707Y-67241648D01*
G37*
D29*
X45325000Y-65052000D03*
X43575000Y-65052000D03*
X45325000Y-68552000D03*
X43575000Y-68552000D03*
D18*
X37374351Y-63818614D03*
D10*
G36*
X37501778Y-64213973D02*
X37004685Y-64008070D01*
X37246924Y-63423255D01*
X37744017Y-63629158D01*
X37501778Y-64213973D01*
X37501778Y-64213973D01*
G37*
D18*
X35757561Y-63148918D03*
D10*
G36*
X35884988Y-63544277D02*
X35387895Y-63338374D01*
X35630134Y-62753559D01*
X36127227Y-62959462D01*
X35884988Y-63544277D01*
X35884988Y-63544277D01*
G37*
D18*
X36034959Y-67052192D03*
D10*
G36*
X36162386Y-67447551D02*
X35665293Y-67241648D01*
X35907532Y-66656833D01*
X36404625Y-66862736D01*
X36162386Y-67447551D01*
X36162386Y-67447551D01*
G37*
D18*
X34418169Y-66382496D03*
D10*
G36*
X34545596Y-66777855D02*
X34048503Y-66571952D01*
X34290742Y-65987137D01*
X34787835Y-66193040D01*
X34545596Y-66777855D01*
X34545596Y-66777855D01*
G37*
D18*
X30500904Y-59636533D03*
D10*
G36*
X30467334Y-60050562D02*
X30086875Y-59670103D01*
X30534474Y-59222504D01*
X30914933Y-59602963D01*
X30467334Y-60050562D01*
X30467334Y-60050562D01*
G37*
D18*
X29263467Y-58399096D03*
D10*
G36*
X29229897Y-58813125D02*
X28849438Y-58432666D01*
X29297037Y-57985067D01*
X29677496Y-58365526D01*
X29229897Y-58813125D01*
X29229897Y-58813125D01*
G37*
D18*
X28026031Y-62111406D03*
D10*
G36*
X27992461Y-62525435D02*
X27612002Y-62144976D01*
X28059601Y-61697377D01*
X28440060Y-62077836D01*
X27992461Y-62525435D01*
X27992461Y-62525435D01*
G37*
D18*
X26788594Y-60873969D03*
D10*
G36*
X26755024Y-61287998D02*
X26374565Y-60907539D01*
X26822164Y-60459940D01*
X27202623Y-60840399D01*
X26755024Y-61287998D01*
X26755024Y-61287998D01*
G37*
D18*
X35757561Y-25751082D03*
D10*
G36*
X35387895Y-25561626D02*
X35884988Y-25355723D01*
X36127227Y-25940538D01*
X35630134Y-26146441D01*
X35387895Y-25561626D01*
X35387895Y-25561626D01*
G37*
D18*
X37374351Y-25081386D03*
D10*
G36*
X37004685Y-24891930D02*
X37501778Y-24686027D01*
X37744017Y-25270842D01*
X37246924Y-25476745D01*
X37004685Y-24891930D01*
X37004685Y-24891930D01*
G37*
D18*
X34418169Y-22517504D03*
D10*
G36*
X34048503Y-22328048D02*
X34545596Y-22122145D01*
X34787835Y-22706960D01*
X34290742Y-22912863D01*
X34048503Y-22328048D01*
X34048503Y-22328048D01*
G37*
D18*
X36034959Y-21847808D03*
D10*
G36*
X35665293Y-21658352D02*
X36162386Y-21452449D01*
X36404625Y-22037264D01*
X35907532Y-22243167D01*
X35665293Y-21658352D01*
X35665293Y-21658352D01*
G37*
D30*
X34694000Y-42672000D03*
X29464000Y-42672000D03*
D29*
X45325000Y-20348000D03*
X43575000Y-20348000D03*
X45325000Y-23848000D03*
X43575000Y-23848000D03*
D31*
X41402000Y-20744000D03*
X41402000Y-21844000D03*
X58273000Y-35667000D03*
X58273000Y-34567000D03*
X55773000Y-35667000D03*
X55773000Y-34567000D03*
X40132000Y-43265000D03*
X40132000Y-44365000D03*
D28*
X41952000Y-40640000D03*
X40852000Y-40640000D03*
D31*
X44450000Y-34840000D03*
X44450000Y-33740000D03*
X42418000Y-34840000D03*
X42418000Y-33740000D03*
X43700000Y-48556000D03*
X43700000Y-47456000D03*
D28*
X57192000Y-56896000D03*
X56092000Y-56896000D03*
D32*
X45720000Y-61480000D03*
X45720000Y-62980000D03*
X40894000Y-52209000D03*
X40894000Y-53709000D03*
D20*
X42184000Y-37338000D03*
X44684000Y-37338000D03*
D28*
X49954000Y-38100000D03*
X51054000Y-38100000D03*
D17*
X50292000Y-67805300D03*
X50292000Y-66306700D03*
D11*
X37433000Y-47879000D03*
X33433000Y-47879000D03*
D33*
X49374000Y-31210000D03*
X42574000Y-31210000D03*
X42574000Y-27210000D03*
X49374000Y-27210000D03*
D14*
X34576000Y-58772000D03*
X34576000Y-51972000D03*
X38576000Y-51972000D03*
X38576000Y-58772000D03*
M02*
