G04 #@! TF.GenerationSoftware,KiCad,Pcbnew,no-vcs-found-7448~57~ubuntu16.10.1*
G04 #@! TF.CreationDate,2017-01-11T20:57:49-05:00*
G04 #@! TF.ProjectId,featherlight,666561746865726C696768742E6B6963,rev?*
G04 #@! TF.FileFunction,Copper,L2,Inr,Plane*
G04 #@! TF.FilePolarity,Positive*
%FSLAX46Y46*%
G04 Gerber Fmt 4.6, Leading zero omitted, Abs format (unit mm)*
G04 Created by KiCad (PCBNEW no-vcs-found-7448~57~ubuntu16.10.1) date Wed Jan 11 20:57:49 2017*
%MOMM*%
%LPD*%
G01*
G04 APERTURE LIST*
%ADD10C,0.100000*%
%ADD11O,1.250000X0.950000*%
%ADD12C,1.550000*%
%ADD13C,0.635000*%
%ADD14C,0.508000*%
%ADD15C,0.762000*%
%ADD16C,0.254000*%
G04 APERTURE END LIST*
D10*
D11*
X46950000Y-64604460D03*
X41950000Y-64604460D03*
D12*
X47950000Y-67304460D03*
X40950000Y-67304460D03*
D13*
X35306000Y-48514000D03*
D14*
X46990000Y-47218590D03*
D15*
X48260000Y-49403000D03*
D14*
X47879000Y-44323000D03*
D13*
X40132000Y-41910000D03*
X44450000Y-41656000D03*
X65265304Y-55210416D03*
X55210416Y-23634696D03*
X22459280Y-51865416D03*
X54165500Y-27749500D03*
X62357000Y-29337000D03*
X58273000Y-33381000D03*
X48768000Y-38100000D03*
X45974000Y-27210000D03*
X45974000Y-32004000D03*
X29337000Y-26543000D03*
X41148000Y-33782000D03*
X37034584Y-22459280D03*
X46014533Y-21295467D03*
X59436000Y-45466000D03*
X43180000Y-61214000D03*
D15*
X55003557Y-58420000D03*
D13*
X66027424Y-36474585D03*
X67437000Y-45339000D03*
X60075646Y-61332882D03*
X52425415Y-66027424D03*
X43561000Y-67437000D03*
X34831927Y-65347013D03*
X27567118Y-60075646D03*
X21463000Y-43561000D03*
X23552987Y-34831927D03*
X55372000Y-44450000D03*
D15*
X35814000Y-31242000D03*
X40640000Y-58674000D03*
D13*
X51816026Y-42926000D03*
X48006000Y-40005000D03*
X59563000Y-43053000D03*
X41402000Y-39624000D03*
X38227000Y-44323000D03*
X38862000Y-63881000D03*
X42545000Y-68199000D03*
D14*
X42799000Y-54483000D03*
X42799000Y-55245000D03*
X49530000Y-43688000D03*
X50292000Y-42926000D03*
D15*
X36449000Y-37846000D03*
X36322000Y-44323000D03*
D13*
X41264052Y-62748948D03*
X56134000Y-28638500D03*
X23650188Y-54302738D03*
X66124626Y-52190750D03*
X59896041Y-27387513D03*
X34597262Y-23650188D03*
X27387513Y-29003959D03*
X52190750Y-22775374D03*
X52324000Y-57150000D03*
X65249812Y-34597262D03*
X67437000Y-43307000D03*
X61512487Y-59896041D03*
X54302738Y-65249812D03*
X36709250Y-66124626D03*
X29003959Y-61512487D03*
X21463000Y-45593000D03*
X22775374Y-36709250D03*
X43307000Y-21463000D03*
X60960000Y-37719000D03*
X59944000Y-36322000D03*
X26344390Y-55248721D03*
X27544566Y-31855089D03*
X33651279Y-26344390D03*
X41402000Y-23590106D03*
X49616751Y-24011552D03*
X57044911Y-27544566D03*
X64888448Y-49616751D03*
D15*
X40767000Y-50800000D03*
X52959000Y-51435000D03*
D13*
X55880000Y-39624000D03*
X50292000Y-64897000D03*
X49784000Y-35814000D03*
X59436000Y-44196000D03*
D14*
X53594000Y-48260000D03*
X42291000Y-52197000D03*
X48641000Y-45529500D03*
X38735000Y-41656000D03*
D13*
X36703000Y-51181000D03*
X40894000Y-49276000D03*
D14*
X49276000Y-47752000D03*
X50165000Y-46101000D03*
D13*
X45974000Y-41402000D03*
X51562000Y-27686000D03*
X51562000Y-26416000D03*
X45085000Y-28956000D03*
X56388000Y-51562000D03*
X54864000Y-49530000D03*
X61468000Y-46990000D03*
X52197000Y-38100000D03*
X45720000Y-30226000D03*
X46355000Y-29083000D03*
X55118000Y-31496000D03*
X49276000Y-65024000D03*
D15*
X45720000Y-66548000D03*
X46863000Y-62865000D03*
X32258000Y-52070000D03*
D13*
X36068000Y-55880000D03*
X51308000Y-41656000D03*
X60956001Y-41913999D03*
X52070000Y-40132000D03*
D14*
X49530000Y-44450000D03*
X42037000Y-48006000D03*
X44704000Y-47752000D03*
D16*
G36*
X49465688Y-20015475D02*
X54116189Y-21455046D01*
X58398508Y-23770487D01*
X62149532Y-26873604D01*
X65226387Y-30646201D01*
X67511876Y-34944581D01*
X68918945Y-39605018D01*
X69394000Y-44450000D01*
X69384275Y-45146477D01*
X68774125Y-49976306D01*
X67237478Y-54595639D01*
X64832862Y-58828528D01*
X61651870Y-62513743D01*
X57815664Y-65510916D01*
X53470363Y-67705885D01*
X48781480Y-69015045D01*
X43927612Y-69388529D01*
X39093642Y-68812113D01*
X37453840Y-68279309D01*
X40154756Y-68279309D01*
X40223310Y-68520728D01*
X40474556Y-68639128D01*
X40744071Y-68706238D01*
X41021502Y-68719478D01*
X41296184Y-68678339D01*
X41557562Y-68584403D01*
X41676690Y-68520728D01*
X41745243Y-68279311D01*
X41861606Y-68395674D01*
X41869458Y-68387822D01*
X41870310Y-68392464D01*
X41920736Y-68519828D01*
X41994941Y-68634971D01*
X42090098Y-68733509D01*
X42202581Y-68811687D01*
X42328107Y-68866528D01*
X42461895Y-68895943D01*
X42598848Y-68898811D01*
X42733749Y-68875025D01*
X42861462Y-68825488D01*
X42977120Y-68752089D01*
X43076320Y-68657623D01*
X43155281Y-68545688D01*
X43210997Y-68420548D01*
X43241345Y-68286969D01*
X43241451Y-68279309D01*
X47154756Y-68279309D01*
X47223310Y-68520728D01*
X47474556Y-68639128D01*
X47744071Y-68706238D01*
X48021502Y-68719478D01*
X48296184Y-68678339D01*
X48557562Y-68584403D01*
X48676690Y-68520728D01*
X48745244Y-68279309D01*
X47950000Y-67484065D01*
X47154756Y-68279309D01*
X43241451Y-68279309D01*
X43243530Y-68130509D01*
X43216923Y-67996134D01*
X43164723Y-67869487D01*
X43088918Y-67755391D01*
X42992395Y-67658192D01*
X42878831Y-67581592D01*
X42752552Y-67528509D01*
X42618366Y-67500965D01*
X42481387Y-67500009D01*
X42348028Y-67525448D01*
X42351778Y-67510389D01*
X42358193Y-67375962D01*
X46534982Y-67375962D01*
X46576121Y-67650644D01*
X46670057Y-67912022D01*
X46733732Y-68031150D01*
X46975151Y-68099704D01*
X47770395Y-67304460D01*
X48129605Y-67304460D01*
X48924849Y-68099704D01*
X49166268Y-68031150D01*
X49284668Y-67779904D01*
X49351778Y-67510389D01*
X49365018Y-67232958D01*
X49323879Y-66958276D01*
X49229943Y-66696898D01*
X49166268Y-66577770D01*
X48924849Y-66509216D01*
X48129605Y-67304460D01*
X47770395Y-67304460D01*
X46975151Y-66509216D01*
X46733732Y-66577770D01*
X46615332Y-66829016D01*
X46548222Y-67098531D01*
X46534982Y-67375962D01*
X42358193Y-67375962D01*
X42365018Y-67232958D01*
X42323879Y-66958276D01*
X42229943Y-66696898D01*
X42184603Y-66612071D01*
X44956998Y-66612071D01*
X44983974Y-66759052D01*
X45038985Y-66897994D01*
X45119936Y-67023605D01*
X45223743Y-67131100D01*
X45346452Y-67216385D01*
X45483390Y-67276212D01*
X45629340Y-67308301D01*
X45778743Y-67311430D01*
X45925908Y-67285481D01*
X46065231Y-67231441D01*
X46191404Y-67151370D01*
X46299621Y-67048316D01*
X46385761Y-66926205D01*
X46446542Y-66789688D01*
X46479649Y-66643966D01*
X46482033Y-66473282D01*
X46453585Y-66329611D01*
X47154756Y-66329611D01*
X47950000Y-67124855D01*
X48745244Y-66329611D01*
X48676690Y-66088192D01*
X48425444Y-65969792D01*
X48155929Y-65902682D01*
X47878498Y-65889442D01*
X47603816Y-65930581D01*
X47342438Y-66024517D01*
X47223310Y-66088192D01*
X47154756Y-66329611D01*
X46453585Y-66329611D01*
X46453007Y-66326692D01*
X46396061Y-66188532D01*
X46313365Y-66064063D01*
X46208067Y-65958028D01*
X46084179Y-65874465D01*
X45946420Y-65816556D01*
X45800036Y-65786508D01*
X45650604Y-65785464D01*
X45503815Y-65813466D01*
X45365260Y-65869445D01*
X45240218Y-65951271D01*
X45133450Y-66055826D01*
X45049023Y-66179127D01*
X44990154Y-66316479D01*
X44959085Y-66462650D01*
X44956998Y-66612071D01*
X42184603Y-66612071D01*
X42166268Y-66577770D01*
X41924849Y-66509216D01*
X41129605Y-67304460D01*
X41143748Y-67318603D01*
X40964143Y-67498208D01*
X40950000Y-67484065D01*
X40154756Y-68279309D01*
X37453840Y-68279309D01*
X34673623Y-67375962D01*
X39534982Y-67375962D01*
X39576121Y-67650644D01*
X39670057Y-67912022D01*
X39733732Y-68031150D01*
X39975151Y-68099704D01*
X40770395Y-67304460D01*
X39975151Y-66509216D01*
X39733732Y-66577770D01*
X39615332Y-66829016D01*
X39548222Y-67098531D01*
X39534982Y-67375962D01*
X34673623Y-67375962D01*
X34463694Y-67307752D01*
X32451828Y-66183358D01*
X36009832Y-66183358D01*
X36034560Y-66318090D01*
X36084986Y-66445454D01*
X36159191Y-66560597D01*
X36254348Y-66659135D01*
X36366831Y-66737313D01*
X36492357Y-66792154D01*
X36626145Y-66821569D01*
X36763098Y-66824437D01*
X36897999Y-66800651D01*
X37025712Y-66751114D01*
X37141370Y-66677715D01*
X37240570Y-66583249D01*
X37319531Y-66471314D01*
X37375247Y-66346174D01*
X37379009Y-66329611D01*
X40154756Y-66329611D01*
X40950000Y-67124855D01*
X41745244Y-66329611D01*
X41676690Y-66088192D01*
X41425444Y-65969792D01*
X41155929Y-65902682D01*
X40878498Y-65889442D01*
X40603816Y-65930581D01*
X40342438Y-66024517D01*
X40223310Y-66088192D01*
X40154756Y-66329611D01*
X37379009Y-66329611D01*
X37405595Y-66212595D01*
X37407780Y-66056135D01*
X37381173Y-65921760D01*
X37328973Y-65795113D01*
X37253168Y-65681017D01*
X37156645Y-65583818D01*
X37043081Y-65507218D01*
X36916802Y-65454135D01*
X36782616Y-65426591D01*
X36645637Y-65425635D01*
X36511080Y-65451303D01*
X36384072Y-65502617D01*
X36269449Y-65577624D01*
X36171579Y-65673466D01*
X36094188Y-65786493D01*
X36040225Y-65912399D01*
X36011744Y-66046388D01*
X36009832Y-66183358D01*
X32451828Y-66183358D01*
X30214121Y-64932746D01*
X30178463Y-64902398D01*
X40730732Y-64902398D01*
X40800397Y-65090610D01*
X40914447Y-65276282D01*
X41062529Y-65436136D01*
X41238951Y-65564029D01*
X41436934Y-65655046D01*
X41648869Y-65705690D01*
X41823000Y-65557024D01*
X41823000Y-64731460D01*
X42077000Y-64731460D01*
X42077000Y-65557024D01*
X42251131Y-65705690D01*
X42463066Y-65655046D01*
X42661049Y-65564029D01*
X42837471Y-65436136D01*
X42985553Y-65276282D01*
X43099603Y-65090610D01*
X43169268Y-64902398D01*
X45730732Y-64902398D01*
X45800397Y-65090610D01*
X45914447Y-65276282D01*
X46062529Y-65436136D01*
X46238951Y-65564029D01*
X46436934Y-65655046D01*
X46648869Y-65705690D01*
X46823000Y-65557024D01*
X46823000Y-64731460D01*
X47077000Y-64731460D01*
X47077000Y-65557024D01*
X47251131Y-65705690D01*
X47463066Y-65655046D01*
X47661049Y-65564029D01*
X47837471Y-65436136D01*
X47985553Y-65276282D01*
X48099603Y-65090610D01*
X48102518Y-65082732D01*
X48576582Y-65082732D01*
X48601310Y-65217464D01*
X48651736Y-65344828D01*
X48725941Y-65459971D01*
X48821098Y-65558509D01*
X48933581Y-65636687D01*
X49059107Y-65691528D01*
X49192895Y-65720943D01*
X49329848Y-65723811D01*
X49464749Y-65700025D01*
X49592462Y-65650488D01*
X49708120Y-65577089D01*
X49807320Y-65482623D01*
X49841311Y-65434437D01*
X49949581Y-65509687D01*
X50075107Y-65564528D01*
X50208895Y-65593943D01*
X50345848Y-65596811D01*
X50480749Y-65573025D01*
X50608462Y-65523488D01*
X50724120Y-65450089D01*
X50823320Y-65355623D01*
X50856530Y-65308544D01*
X53603320Y-65308544D01*
X53628048Y-65443276D01*
X53678474Y-65570640D01*
X53752679Y-65685783D01*
X53847836Y-65784321D01*
X53960319Y-65862499D01*
X54085845Y-65917340D01*
X54219633Y-65946755D01*
X54356586Y-65949623D01*
X54491487Y-65925837D01*
X54619200Y-65876300D01*
X54734858Y-65802901D01*
X54834058Y-65708435D01*
X54913019Y-65596500D01*
X54968735Y-65471360D01*
X54999083Y-65337781D01*
X55001268Y-65181321D01*
X54974661Y-65046946D01*
X54922461Y-64920299D01*
X54846656Y-64806203D01*
X54750133Y-64709004D01*
X54636569Y-64632404D01*
X54510290Y-64579321D01*
X54376104Y-64551777D01*
X54239125Y-64550821D01*
X54104568Y-64576489D01*
X53977560Y-64627803D01*
X53862937Y-64702810D01*
X53765067Y-64798652D01*
X53687676Y-64911679D01*
X53633713Y-65037585D01*
X53605232Y-65171574D01*
X53603320Y-65308544D01*
X50856530Y-65308544D01*
X50902281Y-65243688D01*
X50957997Y-65118548D01*
X50988345Y-64984969D01*
X50990530Y-64828509D01*
X50963923Y-64694134D01*
X50911723Y-64567487D01*
X50835918Y-64453391D01*
X50739395Y-64356192D01*
X50625831Y-64279592D01*
X50499552Y-64226509D01*
X50365366Y-64198965D01*
X50228387Y-64198009D01*
X50093830Y-64223677D01*
X49966822Y-64274991D01*
X49852199Y-64349998D01*
X49754329Y-64445840D01*
X49726567Y-64486386D01*
X49723395Y-64483192D01*
X49609831Y-64406592D01*
X49483552Y-64353509D01*
X49349366Y-64325965D01*
X49212387Y-64325009D01*
X49077830Y-64350677D01*
X48950822Y-64401991D01*
X48836199Y-64476998D01*
X48738329Y-64572840D01*
X48660938Y-64685867D01*
X48606975Y-64811773D01*
X48578494Y-64945762D01*
X48576582Y-65082732D01*
X48102518Y-65082732D01*
X48169268Y-64902398D01*
X48042734Y-64731460D01*
X47077000Y-64731460D01*
X46823000Y-64731460D01*
X45857266Y-64731460D01*
X45730732Y-64902398D01*
X43169268Y-64902398D01*
X43042734Y-64731460D01*
X42077000Y-64731460D01*
X41823000Y-64731460D01*
X40857266Y-64731460D01*
X40730732Y-64902398D01*
X30178463Y-64902398D01*
X29047334Y-63939732D01*
X38162582Y-63939732D01*
X38187310Y-64074464D01*
X38237736Y-64201828D01*
X38311941Y-64316971D01*
X38407098Y-64415509D01*
X38519581Y-64493687D01*
X38645107Y-64548528D01*
X38778895Y-64577943D01*
X38915848Y-64580811D01*
X39050749Y-64557025D01*
X39178462Y-64507488D01*
X39294120Y-64434089D01*
X39393320Y-64339623D01*
X39416670Y-64306522D01*
X40730732Y-64306522D01*
X40857266Y-64477460D01*
X41823000Y-64477460D01*
X41823000Y-63651896D01*
X42077000Y-63651896D01*
X42077000Y-64477460D01*
X43042734Y-64477460D01*
X43169268Y-64306522D01*
X45730732Y-64306522D01*
X45857266Y-64477460D01*
X46823000Y-64477460D01*
X46823000Y-64457460D01*
X47077000Y-64457460D01*
X47077000Y-64477460D01*
X48042734Y-64477460D01*
X48169268Y-64306522D01*
X48099603Y-64118310D01*
X47985553Y-63932638D01*
X47837471Y-63772784D01*
X47661049Y-63644891D01*
X47463066Y-63553874D01*
X47271720Y-63508150D01*
X47334404Y-63468370D01*
X47442621Y-63365316D01*
X47528761Y-63243205D01*
X47589542Y-63106688D01*
X47622649Y-62960966D01*
X47625033Y-62790282D01*
X47596007Y-62643692D01*
X47539061Y-62505532D01*
X47456365Y-62381063D01*
X47351067Y-62275028D01*
X47227179Y-62191465D01*
X47089420Y-62133556D01*
X46943036Y-62103508D01*
X46793604Y-62102464D01*
X46646815Y-62130466D01*
X46508260Y-62186445D01*
X46383218Y-62268271D01*
X46276450Y-62372826D01*
X46192023Y-62496127D01*
X46133154Y-62633479D01*
X46102085Y-62779650D01*
X46099998Y-62929071D01*
X46126974Y-63076052D01*
X46181985Y-63214994D01*
X46262936Y-63340605D01*
X46366743Y-63448100D01*
X46489452Y-63533385D01*
X46501199Y-63538517D01*
X46436934Y-63553874D01*
X46238951Y-63644891D01*
X46062529Y-63772784D01*
X45914447Y-63932638D01*
X45800397Y-64118310D01*
X45730732Y-64306522D01*
X43169268Y-64306522D01*
X43099603Y-64118310D01*
X42985553Y-63932638D01*
X42837471Y-63772784D01*
X42661049Y-63644891D01*
X42463066Y-63553874D01*
X42251131Y-63503230D01*
X42077000Y-63651896D01*
X41823000Y-63651896D01*
X41648869Y-63503230D01*
X41436934Y-63553874D01*
X41238951Y-63644891D01*
X41062529Y-63772784D01*
X40914447Y-63932638D01*
X40800397Y-64118310D01*
X40730732Y-64306522D01*
X39416670Y-64306522D01*
X39472281Y-64227688D01*
X39527997Y-64102548D01*
X39558345Y-63968969D01*
X39560530Y-63812509D01*
X39533923Y-63678134D01*
X39481723Y-63551487D01*
X39405918Y-63437391D01*
X39309395Y-63340192D01*
X39195831Y-63263592D01*
X39069552Y-63210509D01*
X38935366Y-63182965D01*
X38798387Y-63182009D01*
X38663830Y-63207677D01*
X38536822Y-63258991D01*
X38422199Y-63333998D01*
X38324329Y-63429840D01*
X38246938Y-63542867D01*
X38192975Y-63668773D01*
X38164494Y-63802762D01*
X38162582Y-63939732D01*
X29047334Y-63939732D01*
X27717178Y-62807680D01*
X40564634Y-62807680D01*
X40589362Y-62942412D01*
X40639788Y-63069776D01*
X40713993Y-63184919D01*
X40809150Y-63283457D01*
X40921633Y-63361635D01*
X41047159Y-63416476D01*
X41180947Y-63445891D01*
X41317900Y-63448759D01*
X41452801Y-63424973D01*
X41580514Y-63375436D01*
X41696172Y-63302037D01*
X41795372Y-63207571D01*
X41874333Y-63095636D01*
X41930049Y-62970496D01*
X41960397Y-62836917D01*
X41962582Y-62680457D01*
X41935975Y-62546082D01*
X41883775Y-62419435D01*
X41807970Y-62305339D01*
X41711447Y-62208140D01*
X41597883Y-62131540D01*
X41471604Y-62078457D01*
X41337418Y-62050913D01*
X41200439Y-62049957D01*
X41065882Y-62075625D01*
X40938874Y-62126939D01*
X40824251Y-62201946D01*
X40726381Y-62297788D01*
X40648990Y-62410815D01*
X40595027Y-62536721D01*
X40566546Y-62670710D01*
X40564634Y-62807680D01*
X27717178Y-62807680D01*
X26506788Y-61777558D01*
X26343246Y-61571219D01*
X28304541Y-61571219D01*
X28329269Y-61705951D01*
X28379695Y-61833315D01*
X28453900Y-61948458D01*
X28549057Y-62046996D01*
X28661540Y-62125174D01*
X28787066Y-62180015D01*
X28920854Y-62209430D01*
X29057807Y-62212298D01*
X29192708Y-62188512D01*
X29320421Y-62138975D01*
X29436079Y-62065576D01*
X29535279Y-61971110D01*
X29614240Y-61859175D01*
X29669956Y-61734035D01*
X29700304Y-61600456D01*
X29702489Y-61443996D01*
X29675882Y-61309621D01*
X29623682Y-61182974D01*
X29547877Y-61068878D01*
X29451354Y-60971679D01*
X29337790Y-60895079D01*
X29211511Y-60841996D01*
X29077325Y-60814452D01*
X28940346Y-60813496D01*
X28805789Y-60839164D01*
X28678781Y-60890478D01*
X28564158Y-60965485D01*
X28466288Y-61061327D01*
X28388897Y-61174354D01*
X28334934Y-61300260D01*
X28306453Y-61434249D01*
X28304541Y-61571219D01*
X26343246Y-61571219D01*
X25062067Y-59954773D01*
X60813069Y-59954773D01*
X60837797Y-60089505D01*
X60888223Y-60216869D01*
X60962428Y-60332012D01*
X61057585Y-60430550D01*
X61170068Y-60508728D01*
X61295594Y-60563569D01*
X61429382Y-60592984D01*
X61566335Y-60595852D01*
X61701236Y-60572066D01*
X61828949Y-60522529D01*
X61944607Y-60449130D01*
X62043807Y-60354664D01*
X62122768Y-60242729D01*
X62178484Y-60117589D01*
X62208832Y-59984010D01*
X62211017Y-59827550D01*
X62184410Y-59693175D01*
X62132210Y-59566528D01*
X62056405Y-59452432D01*
X61959882Y-59355233D01*
X61846318Y-59278633D01*
X61720039Y-59225550D01*
X61585853Y-59198006D01*
X61448874Y-59197050D01*
X61314317Y-59222718D01*
X61187309Y-59274032D01*
X61072686Y-59349039D01*
X60974816Y-59444881D01*
X60897425Y-59557908D01*
X60843462Y-59683814D01*
X60814981Y-59817803D01*
X60813069Y-59954773D01*
X25062067Y-59954773D01*
X23482907Y-57962370D01*
X23095590Y-57208732D01*
X51624582Y-57208732D01*
X51649310Y-57343464D01*
X51699736Y-57470828D01*
X51773941Y-57585971D01*
X51869098Y-57684509D01*
X51981581Y-57762687D01*
X52107107Y-57817528D01*
X52240895Y-57846943D01*
X52377848Y-57849811D01*
X52512749Y-57826025D01*
X52640462Y-57776488D01*
X52756120Y-57703089D01*
X52855320Y-57608623D01*
X52934281Y-57496688D01*
X52989997Y-57371548D01*
X53020345Y-57237969D01*
X53022530Y-57081509D01*
X52995923Y-56947134D01*
X52943723Y-56820487D01*
X52867918Y-56706391D01*
X52771395Y-56609192D01*
X52657831Y-56532592D01*
X52531552Y-56479509D01*
X52397366Y-56451965D01*
X52260387Y-56451009D01*
X52125830Y-56476677D01*
X51998822Y-56527991D01*
X51884199Y-56602998D01*
X51786329Y-56698840D01*
X51708938Y-56811867D01*
X51654975Y-56937773D01*
X51626494Y-57071762D01*
X51624582Y-57208732D01*
X23095590Y-57208732D01*
X22118466Y-55307453D01*
X25644972Y-55307453D01*
X25669700Y-55442185D01*
X25720126Y-55569549D01*
X25794331Y-55684692D01*
X25889488Y-55783230D01*
X26001971Y-55861408D01*
X26127497Y-55916249D01*
X26261285Y-55945664D01*
X26398238Y-55948532D01*
X26453818Y-55938732D01*
X35368582Y-55938732D01*
X35393310Y-56073464D01*
X35443736Y-56200828D01*
X35517941Y-56315971D01*
X35613098Y-56414509D01*
X35725581Y-56492687D01*
X35851107Y-56547528D01*
X35984895Y-56576943D01*
X36121848Y-56579811D01*
X36256749Y-56556025D01*
X36384462Y-56506488D01*
X36500120Y-56433089D01*
X36599320Y-56338623D01*
X36678281Y-56226688D01*
X36733997Y-56101548D01*
X36764345Y-55967969D01*
X36766530Y-55811509D01*
X36739923Y-55677134D01*
X36687723Y-55550487D01*
X36611918Y-55436391D01*
X36515395Y-55339192D01*
X36401831Y-55262592D01*
X36275552Y-55209509D01*
X36141366Y-55181965D01*
X36004387Y-55181009D01*
X35869830Y-55206677D01*
X35742822Y-55257991D01*
X35628199Y-55332998D01*
X35530329Y-55428840D01*
X35452938Y-55541867D01*
X35398975Y-55667773D01*
X35370494Y-55801762D01*
X35368582Y-55938732D01*
X26453818Y-55938732D01*
X26533139Y-55924746D01*
X26660852Y-55875209D01*
X26776510Y-55801810D01*
X26875710Y-55707344D01*
X26954671Y-55595409D01*
X27010387Y-55470269D01*
X27040735Y-55336690D01*
X27042920Y-55180230D01*
X27016313Y-55045855D01*
X26964113Y-54919208D01*
X26888308Y-54805112D01*
X26791785Y-54707913D01*
X26678221Y-54631313D01*
X26551942Y-54578230D01*
X26417756Y-54550686D01*
X26280777Y-54549730D01*
X26146220Y-54575398D01*
X26019212Y-54626712D01*
X25904589Y-54701719D01*
X25806719Y-54797561D01*
X25729328Y-54910588D01*
X25675365Y-55036494D01*
X25646884Y-55170483D01*
X25644972Y-55307453D01*
X22118466Y-55307453D01*
X21632296Y-54361470D01*
X22950770Y-54361470D01*
X22975498Y-54496202D01*
X23025924Y-54623566D01*
X23100129Y-54738709D01*
X23195286Y-54837247D01*
X23307769Y-54915425D01*
X23433295Y-54970266D01*
X23567083Y-54999681D01*
X23704036Y-55002549D01*
X23838937Y-54978763D01*
X23966650Y-54929226D01*
X24082308Y-54855827D01*
X24181508Y-54761361D01*
X24260469Y-54649426D01*
X24310795Y-54536392D01*
X42163166Y-54536392D01*
X42185646Y-54658876D01*
X42231488Y-54774661D01*
X42289639Y-54864895D01*
X42239853Y-54937606D01*
X42190796Y-55052066D01*
X42164905Y-55173875D01*
X42163166Y-55298392D01*
X42185646Y-55420876D01*
X42231488Y-55536661D01*
X42298947Y-55641337D01*
X42385453Y-55730916D01*
X42487710Y-55801987D01*
X42601825Y-55851843D01*
X42723450Y-55878583D01*
X42847952Y-55881191D01*
X42970590Y-55859567D01*
X43086692Y-55814534D01*
X43191836Y-55747808D01*
X43282017Y-55661929D01*
X43353800Y-55560170D01*
X43404451Y-55446407D01*
X43432041Y-55324972D01*
X43434027Y-55182735D01*
X43409839Y-55060577D01*
X43362384Y-54945443D01*
X43307831Y-54863335D01*
X43353800Y-54798170D01*
X43404451Y-54684407D01*
X43432041Y-54562972D01*
X43434027Y-54420735D01*
X43409839Y-54298577D01*
X43362384Y-54183443D01*
X43293470Y-54079720D01*
X43205722Y-53991357D01*
X43102482Y-53921721D01*
X42987683Y-53873464D01*
X42865697Y-53848423D01*
X42741170Y-53847554D01*
X42618846Y-53870889D01*
X42503384Y-53917538D01*
X42399182Y-53985726D01*
X42310208Y-54072855D01*
X42239853Y-54175606D01*
X42190796Y-54290066D01*
X42164905Y-54411875D01*
X42163166Y-54536392D01*
X24310795Y-54536392D01*
X24316185Y-54524286D01*
X24346533Y-54390707D01*
X24348718Y-54234247D01*
X24322111Y-54099872D01*
X24269911Y-53973225D01*
X24194106Y-53859129D01*
X24097583Y-53761930D01*
X23984019Y-53685330D01*
X23857740Y-53632247D01*
X23723554Y-53604703D01*
X23586575Y-53603747D01*
X23452018Y-53629415D01*
X23325010Y-53680729D01*
X23210387Y-53755736D01*
X23112517Y-53851578D01*
X23035126Y-53964605D01*
X22981163Y-54090511D01*
X22952682Y-54224500D01*
X22950770Y-54361470D01*
X21632296Y-54361470D01*
X21257655Y-53632499D01*
X20827988Y-52134071D01*
X31494998Y-52134071D01*
X31521974Y-52281052D01*
X31576985Y-52419994D01*
X31657936Y-52545605D01*
X31761743Y-52653100D01*
X31884452Y-52738385D01*
X32021390Y-52798212D01*
X32167340Y-52830301D01*
X32316743Y-52833430D01*
X32463908Y-52807481D01*
X32603231Y-52753441D01*
X32729404Y-52673370D01*
X32837621Y-52570316D01*
X32923761Y-52448205D01*
X32984542Y-52311688D01*
X32998468Y-52250392D01*
X41655166Y-52250392D01*
X41677646Y-52372876D01*
X41723488Y-52488661D01*
X41790947Y-52593337D01*
X41877453Y-52682916D01*
X41979710Y-52753987D01*
X42093825Y-52803843D01*
X42215450Y-52830583D01*
X42339952Y-52833191D01*
X42462590Y-52811567D01*
X42578692Y-52766534D01*
X42683836Y-52699808D01*
X42774017Y-52613929D01*
X42845800Y-52512170D01*
X42896451Y-52398407D01*
X42924041Y-52276972D01*
X42926027Y-52134735D01*
X42901839Y-52012577D01*
X42854384Y-51897443D01*
X42785470Y-51793720D01*
X42697722Y-51705357D01*
X42594482Y-51635721D01*
X42479683Y-51587464D01*
X42357697Y-51562423D01*
X42233170Y-51561554D01*
X42110846Y-51584889D01*
X41995384Y-51631538D01*
X41891182Y-51699726D01*
X41802208Y-51786855D01*
X41731853Y-51889606D01*
X41682796Y-52004066D01*
X41656905Y-52125875D01*
X41655166Y-52250392D01*
X32998468Y-52250392D01*
X33017649Y-52165966D01*
X33020033Y-51995282D01*
X32991007Y-51848692D01*
X32934061Y-51710532D01*
X32851365Y-51586063D01*
X32746067Y-51480028D01*
X32622179Y-51396465D01*
X32484420Y-51338556D01*
X32338036Y-51308508D01*
X32188604Y-51307464D01*
X32041815Y-51335466D01*
X31903260Y-51391445D01*
X31778218Y-51473271D01*
X31671450Y-51577826D01*
X31587023Y-51701127D01*
X31528154Y-51838479D01*
X31497085Y-51984650D01*
X31494998Y-52134071D01*
X20827988Y-52134071D01*
X20571541Y-51239732D01*
X36003582Y-51239732D01*
X36028310Y-51374464D01*
X36078736Y-51501828D01*
X36152941Y-51616971D01*
X36248098Y-51715509D01*
X36360581Y-51793687D01*
X36486107Y-51848528D01*
X36619895Y-51877943D01*
X36756848Y-51880811D01*
X36891749Y-51857025D01*
X37019462Y-51807488D01*
X37135120Y-51734089D01*
X37234320Y-51639623D01*
X37313281Y-51527688D01*
X37368997Y-51402548D01*
X37399345Y-51268969D01*
X37401530Y-51112509D01*
X37374923Y-50978134D01*
X37327910Y-50864071D01*
X40003998Y-50864071D01*
X40030974Y-51011052D01*
X40085985Y-51149994D01*
X40166936Y-51275605D01*
X40270743Y-51383100D01*
X40393452Y-51468385D01*
X40530390Y-51528212D01*
X40676340Y-51560301D01*
X40825743Y-51563430D01*
X40972908Y-51537481D01*
X41071934Y-51499071D01*
X52195998Y-51499071D01*
X52222974Y-51646052D01*
X52277985Y-51784994D01*
X52358936Y-51910605D01*
X52462743Y-52018100D01*
X52585452Y-52103385D01*
X52722390Y-52163212D01*
X52868340Y-52195301D01*
X53017743Y-52198430D01*
X53164908Y-52172481D01*
X53304231Y-52118441D01*
X53430404Y-52038370D01*
X53538621Y-51935316D01*
X53624761Y-51813205D01*
X53685542Y-51676688D01*
X53698254Y-51620732D01*
X55688582Y-51620732D01*
X55713310Y-51755464D01*
X55763736Y-51882828D01*
X55837941Y-51997971D01*
X55933098Y-52096509D01*
X56045581Y-52174687D01*
X56171107Y-52229528D01*
X56304895Y-52258943D01*
X56441848Y-52261811D01*
X56511771Y-52249482D01*
X65425208Y-52249482D01*
X65449936Y-52384214D01*
X65500362Y-52511578D01*
X65574567Y-52626721D01*
X65669724Y-52725259D01*
X65782207Y-52803437D01*
X65907733Y-52858278D01*
X66041521Y-52887693D01*
X66178474Y-52890561D01*
X66313375Y-52866775D01*
X66441088Y-52817238D01*
X66556746Y-52743839D01*
X66655946Y-52649373D01*
X66734907Y-52537438D01*
X66790623Y-52412298D01*
X66820971Y-52278719D01*
X66823156Y-52122259D01*
X66796549Y-51987884D01*
X66744349Y-51861237D01*
X66668544Y-51747141D01*
X66572021Y-51649942D01*
X66458457Y-51573342D01*
X66332178Y-51520259D01*
X66197992Y-51492715D01*
X66061013Y-51491759D01*
X65926456Y-51517427D01*
X65799448Y-51568741D01*
X65684825Y-51643748D01*
X65586955Y-51739590D01*
X65509564Y-51852617D01*
X65455601Y-51978523D01*
X65427120Y-52112512D01*
X65425208Y-52249482D01*
X56511771Y-52249482D01*
X56576749Y-52238025D01*
X56704462Y-52188488D01*
X56820120Y-52115089D01*
X56919320Y-52020623D01*
X56998281Y-51908688D01*
X57053997Y-51783548D01*
X57084345Y-51649969D01*
X57086530Y-51493509D01*
X57059923Y-51359134D01*
X57007723Y-51232487D01*
X56931918Y-51118391D01*
X56835395Y-51021192D01*
X56721831Y-50944592D01*
X56595552Y-50891509D01*
X56461366Y-50863965D01*
X56324387Y-50863009D01*
X56189830Y-50888677D01*
X56062822Y-50939991D01*
X55948199Y-51014998D01*
X55850329Y-51110840D01*
X55772938Y-51223867D01*
X55718975Y-51349773D01*
X55690494Y-51483762D01*
X55688582Y-51620732D01*
X53698254Y-51620732D01*
X53718649Y-51530966D01*
X53721033Y-51360282D01*
X53692007Y-51213692D01*
X53635061Y-51075532D01*
X53552365Y-50951063D01*
X53447067Y-50845028D01*
X53323179Y-50761465D01*
X53185420Y-50703556D01*
X53039036Y-50673508D01*
X52889604Y-50672464D01*
X52742815Y-50700466D01*
X52604260Y-50756445D01*
X52479218Y-50838271D01*
X52372450Y-50942826D01*
X52288023Y-51066127D01*
X52229154Y-51203479D01*
X52198085Y-51349650D01*
X52195998Y-51499071D01*
X41071934Y-51499071D01*
X41112231Y-51483441D01*
X41238404Y-51403370D01*
X41346621Y-51300316D01*
X41432761Y-51178205D01*
X41493542Y-51041688D01*
X41526649Y-50895966D01*
X41529033Y-50725282D01*
X41500007Y-50578692D01*
X41443061Y-50440532D01*
X41360365Y-50316063D01*
X41255067Y-50210028D01*
X41131179Y-50126465D01*
X40993420Y-50068556D01*
X40847036Y-50038508D01*
X40697604Y-50037464D01*
X40550815Y-50065466D01*
X40412260Y-50121445D01*
X40287218Y-50203271D01*
X40180450Y-50307826D01*
X40096023Y-50431127D01*
X40037154Y-50568479D01*
X40006085Y-50714650D01*
X40003998Y-50864071D01*
X37327910Y-50864071D01*
X37322723Y-50851487D01*
X37246918Y-50737391D01*
X37150395Y-50640192D01*
X37036831Y-50563592D01*
X36910552Y-50510509D01*
X36776366Y-50482965D01*
X36639387Y-50482009D01*
X36504830Y-50507677D01*
X36377822Y-50558991D01*
X36263199Y-50633998D01*
X36165329Y-50729840D01*
X36087938Y-50842867D01*
X36033975Y-50968773D01*
X36005494Y-51102762D01*
X36003582Y-51239732D01*
X20571541Y-51239732D01*
X20025291Y-49334732D01*
X40194582Y-49334732D01*
X40219310Y-49469464D01*
X40269736Y-49596828D01*
X40343941Y-49711971D01*
X40439098Y-49810509D01*
X40551581Y-49888687D01*
X40677107Y-49943528D01*
X40810895Y-49972943D01*
X40947848Y-49975811D01*
X41082749Y-49952025D01*
X41210462Y-49902488D01*
X41326120Y-49829089D01*
X41425320Y-49734623D01*
X41504281Y-49622688D01*
X41519399Y-49588732D01*
X54164582Y-49588732D01*
X54189310Y-49723464D01*
X54239736Y-49850828D01*
X54313941Y-49965971D01*
X54409098Y-50064509D01*
X54521581Y-50142687D01*
X54647107Y-50197528D01*
X54780895Y-50226943D01*
X54917848Y-50229811D01*
X55052749Y-50206025D01*
X55180462Y-50156488D01*
X55296120Y-50083089D01*
X55395320Y-49988623D01*
X55451821Y-49908527D01*
X58969053Y-49908527D01*
X59021483Y-50194194D01*
X59128401Y-50464238D01*
X59285734Y-50708371D01*
X59487490Y-50917295D01*
X59725984Y-51083053D01*
X59992131Y-51199330D01*
X60275795Y-51261698D01*
X60566171Y-51267780D01*
X60852197Y-51217346D01*
X61122981Y-51112316D01*
X61368206Y-50956691D01*
X61578534Y-50756398D01*
X61745953Y-50519067D01*
X61864085Y-50253738D01*
X61928431Y-49970517D01*
X61932551Y-49675483D01*
X64189030Y-49675483D01*
X64213758Y-49810215D01*
X64264184Y-49937579D01*
X64338389Y-50052722D01*
X64433546Y-50151260D01*
X64546029Y-50229438D01*
X64671555Y-50284279D01*
X64805343Y-50313694D01*
X64942296Y-50316562D01*
X65077197Y-50292776D01*
X65204910Y-50243239D01*
X65320568Y-50169840D01*
X65419768Y-50075374D01*
X65498729Y-49963439D01*
X65554445Y-49838299D01*
X65584793Y-49704720D01*
X65586978Y-49548260D01*
X65560371Y-49413885D01*
X65508171Y-49287238D01*
X65432366Y-49173142D01*
X65335843Y-49075943D01*
X65222279Y-48999343D01*
X65096000Y-48946260D01*
X64961814Y-48918716D01*
X64824835Y-48917760D01*
X64690278Y-48943428D01*
X64563270Y-48994742D01*
X64448647Y-49069749D01*
X64350777Y-49165591D01*
X64273386Y-49278618D01*
X64219423Y-49404524D01*
X64190942Y-49538513D01*
X64189030Y-49675483D01*
X61932551Y-49675483D01*
X61933064Y-49638780D01*
X61876650Y-49353873D01*
X61765973Y-49085348D01*
X61605246Y-48843435D01*
X61400593Y-48637348D01*
X61159808Y-48474937D01*
X60892063Y-48362387D01*
X60607556Y-48303986D01*
X60317124Y-48301959D01*
X60031829Y-48356382D01*
X59762539Y-48465182D01*
X59519510Y-48624216D01*
X59311999Y-48827425D01*
X59147910Y-49067071D01*
X59033494Y-49334023D01*
X58973108Y-49618116D01*
X58969053Y-49908527D01*
X55451821Y-49908527D01*
X55474281Y-49876688D01*
X55529997Y-49751548D01*
X55560345Y-49617969D01*
X55562530Y-49461509D01*
X55535923Y-49327134D01*
X55483723Y-49200487D01*
X55407918Y-49086391D01*
X55311395Y-48989192D01*
X55197831Y-48912592D01*
X55071552Y-48859509D01*
X54937366Y-48831965D01*
X54800387Y-48831009D01*
X54665830Y-48856677D01*
X54538822Y-48907991D01*
X54424199Y-48982998D01*
X54326329Y-49078840D01*
X54248938Y-49191867D01*
X54194975Y-49317773D01*
X54166494Y-49451762D01*
X54164582Y-49588732D01*
X41519399Y-49588732D01*
X41559997Y-49497548D01*
X41590345Y-49363969D01*
X41592530Y-49207509D01*
X41565923Y-49073134D01*
X41513723Y-48946487D01*
X41437918Y-48832391D01*
X41341395Y-48735192D01*
X41227831Y-48658592D01*
X41101552Y-48605509D01*
X40967366Y-48577965D01*
X40830387Y-48577009D01*
X40695830Y-48602677D01*
X40568822Y-48653991D01*
X40454199Y-48728998D01*
X40356329Y-48824840D01*
X40278938Y-48937867D01*
X40224975Y-49063773D01*
X40196494Y-49197762D01*
X40194582Y-49334732D01*
X20025291Y-49334732D01*
X19915793Y-48952870D01*
X19840766Y-48059392D01*
X41401166Y-48059392D01*
X41423646Y-48181876D01*
X41469488Y-48297661D01*
X41536947Y-48402337D01*
X41623453Y-48491916D01*
X41725710Y-48562987D01*
X41839825Y-48612843D01*
X41961450Y-48639583D01*
X42085952Y-48642191D01*
X42208590Y-48620567D01*
X42324692Y-48575534D01*
X42429836Y-48508808D01*
X42520017Y-48422929D01*
X42591800Y-48321170D01*
X42642451Y-48207407D01*
X42670041Y-48085972D01*
X42672027Y-47943735D01*
X42647839Y-47821577D01*
X42641168Y-47805392D01*
X44068166Y-47805392D01*
X44090646Y-47927876D01*
X44136488Y-48043661D01*
X44203947Y-48148337D01*
X44290453Y-48237916D01*
X44392710Y-48308987D01*
X44506825Y-48358843D01*
X44628450Y-48385583D01*
X44752952Y-48388191D01*
X44875590Y-48366567D01*
X44991692Y-48321534D01*
X45096836Y-48254808D01*
X45187017Y-48168929D01*
X45258800Y-48067170D01*
X45309451Y-47953407D01*
X45337041Y-47831972D01*
X45337412Y-47805392D01*
X48640166Y-47805392D01*
X48662646Y-47927876D01*
X48708488Y-48043661D01*
X48775947Y-48148337D01*
X48862453Y-48237916D01*
X48964710Y-48308987D01*
X49078825Y-48358843D01*
X49200450Y-48385583D01*
X49324952Y-48388191D01*
X49447590Y-48366567D01*
X49563692Y-48321534D01*
X49576521Y-48313392D01*
X52958166Y-48313392D01*
X52980646Y-48435876D01*
X53026488Y-48551661D01*
X53093947Y-48656337D01*
X53180453Y-48745916D01*
X53282710Y-48816987D01*
X53396825Y-48866843D01*
X53518450Y-48893583D01*
X53642952Y-48896191D01*
X53765590Y-48874567D01*
X53881692Y-48829534D01*
X53986836Y-48762808D01*
X54077017Y-48676929D01*
X54148800Y-48575170D01*
X54199451Y-48461407D01*
X54227041Y-48339972D01*
X54229027Y-48197735D01*
X54204839Y-48075577D01*
X54157384Y-47960443D01*
X54088470Y-47856720D01*
X54000722Y-47768357D01*
X53897482Y-47698721D01*
X53782683Y-47650464D01*
X53660697Y-47625423D01*
X53536170Y-47624554D01*
X53413846Y-47647889D01*
X53298384Y-47694538D01*
X53194182Y-47762726D01*
X53105208Y-47849855D01*
X53034853Y-47952606D01*
X52985796Y-48067066D01*
X52959905Y-48188875D01*
X52958166Y-48313392D01*
X49576521Y-48313392D01*
X49668836Y-48254808D01*
X49759017Y-48168929D01*
X49830800Y-48067170D01*
X49881451Y-47953407D01*
X49909041Y-47831972D01*
X49911027Y-47689735D01*
X49886839Y-47567577D01*
X49839384Y-47452443D01*
X49770470Y-47348720D01*
X49682722Y-47260357D01*
X49579482Y-47190721D01*
X49464683Y-47142464D01*
X49342697Y-47117423D01*
X49218170Y-47116554D01*
X49095846Y-47139889D01*
X48980384Y-47186538D01*
X48876182Y-47254726D01*
X48787208Y-47341855D01*
X48716853Y-47444606D01*
X48667796Y-47559066D01*
X48641905Y-47680875D01*
X48640166Y-47805392D01*
X45337412Y-47805392D01*
X45339027Y-47689735D01*
X45314839Y-47567577D01*
X45267384Y-47452443D01*
X45198470Y-47348720D01*
X45110722Y-47260357D01*
X45007482Y-47190721D01*
X44892683Y-47142464D01*
X44770697Y-47117423D01*
X44646170Y-47116554D01*
X44523846Y-47139889D01*
X44408384Y-47186538D01*
X44304182Y-47254726D01*
X44215208Y-47341855D01*
X44144853Y-47444606D01*
X44095796Y-47559066D01*
X44069905Y-47680875D01*
X44068166Y-47805392D01*
X42641168Y-47805392D01*
X42600384Y-47706443D01*
X42531470Y-47602720D01*
X42443722Y-47514357D01*
X42340482Y-47444721D01*
X42225683Y-47396464D01*
X42103697Y-47371423D01*
X41979170Y-47370554D01*
X41856846Y-47393889D01*
X41741384Y-47440538D01*
X41637182Y-47508726D01*
X41548208Y-47595855D01*
X41477853Y-47698606D01*
X41428796Y-47813066D01*
X41402905Y-47934875D01*
X41401166Y-48059392D01*
X19840766Y-48059392D01*
X19755899Y-47048732D01*
X60768582Y-47048732D01*
X60793310Y-47183464D01*
X60843736Y-47310828D01*
X60917941Y-47425971D01*
X61013098Y-47524509D01*
X61125581Y-47602687D01*
X61251107Y-47657528D01*
X61384895Y-47686943D01*
X61521848Y-47689811D01*
X61656749Y-47666025D01*
X61784462Y-47616488D01*
X61900120Y-47543089D01*
X61999320Y-47448623D01*
X62078281Y-47336688D01*
X62133997Y-47211548D01*
X62164345Y-47077969D01*
X62166530Y-46921509D01*
X62139923Y-46787134D01*
X62087723Y-46660487D01*
X62011918Y-46546391D01*
X61915395Y-46449192D01*
X61801831Y-46372592D01*
X61675552Y-46319509D01*
X61541366Y-46291965D01*
X61404387Y-46291009D01*
X61269830Y-46316677D01*
X61142822Y-46367991D01*
X61028199Y-46442998D01*
X60930329Y-46538840D01*
X60852938Y-46651867D01*
X60798975Y-46777773D01*
X60770494Y-46911762D01*
X60768582Y-47048732D01*
X19755899Y-47048732D01*
X19638589Y-45651732D01*
X20763582Y-45651732D01*
X20788310Y-45786464D01*
X20838736Y-45913828D01*
X20912941Y-46028971D01*
X21008098Y-46127509D01*
X21120581Y-46205687D01*
X21246107Y-46260528D01*
X21379895Y-46289943D01*
X21516848Y-46292811D01*
X21651749Y-46269025D01*
X21779462Y-46219488D01*
X21895120Y-46146089D01*
X21994320Y-46051623D01*
X22073281Y-45939688D01*
X22128997Y-45814548D01*
X22159345Y-45680969D01*
X22160714Y-45582892D01*
X48005166Y-45582892D01*
X48027646Y-45705376D01*
X48073488Y-45821161D01*
X48140947Y-45925837D01*
X48227453Y-46015416D01*
X48329710Y-46086487D01*
X48443825Y-46136343D01*
X48565450Y-46163083D01*
X48689952Y-46165691D01*
X48754032Y-46154392D01*
X49529166Y-46154392D01*
X49551646Y-46276876D01*
X49597488Y-46392661D01*
X49664947Y-46497337D01*
X49751453Y-46586916D01*
X49853710Y-46657987D01*
X49967825Y-46707843D01*
X50089450Y-46734583D01*
X50213952Y-46737191D01*
X50336590Y-46715567D01*
X50452692Y-46670534D01*
X50557836Y-46603808D01*
X50648017Y-46517929D01*
X50719800Y-46416170D01*
X50770451Y-46302407D01*
X50798041Y-46180972D01*
X50800027Y-46038735D01*
X50775839Y-45916577D01*
X50728384Y-45801443D01*
X50659470Y-45697720D01*
X50571722Y-45609357D01*
X50468482Y-45539721D01*
X50353683Y-45491464D01*
X50231697Y-45466423D01*
X50107170Y-45465554D01*
X49984846Y-45488889D01*
X49869384Y-45535538D01*
X49765182Y-45603726D01*
X49676208Y-45690855D01*
X49605853Y-45793606D01*
X49556796Y-45908066D01*
X49530905Y-46029875D01*
X49529166Y-46154392D01*
X48754032Y-46154392D01*
X48812590Y-46144067D01*
X48928692Y-46099034D01*
X49033836Y-46032308D01*
X49124017Y-45946429D01*
X49195800Y-45844670D01*
X49246451Y-45730907D01*
X49274041Y-45609472D01*
X49276027Y-45467235D01*
X49251839Y-45345077D01*
X49204384Y-45229943D01*
X49135470Y-45126220D01*
X49047722Y-45037857D01*
X48944482Y-44968221D01*
X48829683Y-44919964D01*
X48707697Y-44894923D01*
X48583170Y-44894054D01*
X48460846Y-44917389D01*
X48345384Y-44964038D01*
X48241182Y-45032226D01*
X48152208Y-45119355D01*
X48081853Y-45222106D01*
X48032796Y-45336566D01*
X48006905Y-45458375D01*
X48005166Y-45582892D01*
X22160714Y-45582892D01*
X22161530Y-45524509D01*
X22134923Y-45390134D01*
X22082723Y-45263487D01*
X22006918Y-45149391D01*
X21910395Y-45052192D01*
X21796831Y-44975592D01*
X21670552Y-44922509D01*
X21536366Y-44894965D01*
X21399387Y-44894009D01*
X21264830Y-44919677D01*
X21137822Y-44970991D01*
X21023199Y-45045998D01*
X20925329Y-45141840D01*
X20847938Y-45254867D01*
X20793975Y-45380773D01*
X20765494Y-45514762D01*
X20763582Y-45651732D01*
X19638589Y-45651732D01*
X19532393Y-44387071D01*
X35558998Y-44387071D01*
X35585974Y-44534052D01*
X35640985Y-44672994D01*
X35721936Y-44798605D01*
X35825743Y-44906100D01*
X35948452Y-44991385D01*
X36085390Y-45051212D01*
X36231340Y-45083301D01*
X36380743Y-45086430D01*
X36527908Y-45060481D01*
X36667231Y-45006441D01*
X36793404Y-44926370D01*
X36901621Y-44823316D01*
X36987761Y-44701205D01*
X37048542Y-44564688D01*
X37081649Y-44418966D01*
X37082169Y-44381732D01*
X37527582Y-44381732D01*
X37552310Y-44516464D01*
X37602736Y-44643828D01*
X37676941Y-44758971D01*
X37772098Y-44857509D01*
X37884581Y-44935687D01*
X38010107Y-44990528D01*
X38143895Y-45019943D01*
X38280848Y-45022811D01*
X38415749Y-44999025D01*
X38543462Y-44949488D01*
X38659120Y-44876089D01*
X38758320Y-44781623D01*
X38837281Y-44669688D01*
X38892997Y-44544548D01*
X38923345Y-44410969D01*
X38925530Y-44254509D01*
X38898923Y-44120134D01*
X38846723Y-43993487D01*
X38770918Y-43879391D01*
X38674395Y-43782192D01*
X38613907Y-43741392D01*
X48894166Y-43741392D01*
X48916646Y-43863876D01*
X48962488Y-43979661D01*
X49020639Y-44069895D01*
X48970853Y-44142606D01*
X48921796Y-44257066D01*
X48895905Y-44378875D01*
X48894166Y-44503392D01*
X48916646Y-44625876D01*
X48962488Y-44741661D01*
X49029947Y-44846337D01*
X49116453Y-44935916D01*
X49218710Y-45006987D01*
X49332825Y-45056843D01*
X49454450Y-45083583D01*
X49578952Y-45086191D01*
X49701590Y-45064567D01*
X49817692Y-45019534D01*
X49922836Y-44952808D01*
X50013017Y-44866929D01*
X50084800Y-44765170D01*
X50135451Y-44651407D01*
X50163041Y-44529972D01*
X50165027Y-44387735D01*
X50140839Y-44265577D01*
X50136369Y-44254732D01*
X58736582Y-44254732D01*
X58761310Y-44389464D01*
X58811736Y-44516828D01*
X58885941Y-44631971D01*
X58981098Y-44730509D01*
X59093581Y-44808687D01*
X59219107Y-44863528D01*
X59352895Y-44892943D01*
X59489848Y-44895811D01*
X59624749Y-44872025D01*
X59752462Y-44822488D01*
X59868120Y-44749089D01*
X59967320Y-44654623D01*
X60046281Y-44542688D01*
X60101997Y-44417548D01*
X60132345Y-44283969D01*
X60134530Y-44127509D01*
X60107923Y-43993134D01*
X60055723Y-43866487D01*
X59979918Y-43752391D01*
X59896675Y-43668565D01*
X59995120Y-43606089D01*
X60094320Y-43511623D01*
X60173281Y-43399688D01*
X60188399Y-43365732D01*
X66737582Y-43365732D01*
X66762310Y-43500464D01*
X66812736Y-43627828D01*
X66886941Y-43742971D01*
X66982098Y-43841509D01*
X67094581Y-43919687D01*
X67220107Y-43974528D01*
X67353895Y-44003943D01*
X67490848Y-44006811D01*
X67625749Y-43983025D01*
X67753462Y-43933488D01*
X67869120Y-43860089D01*
X67968320Y-43765623D01*
X68047281Y-43653688D01*
X68102997Y-43528548D01*
X68133345Y-43394969D01*
X68135530Y-43238509D01*
X68108923Y-43104134D01*
X68056723Y-42977487D01*
X67980918Y-42863391D01*
X67884395Y-42766192D01*
X67770831Y-42689592D01*
X67644552Y-42636509D01*
X67510366Y-42608965D01*
X67373387Y-42608009D01*
X67238830Y-42633677D01*
X67111822Y-42684991D01*
X66997199Y-42759998D01*
X66899329Y-42855840D01*
X66821938Y-42968867D01*
X66767975Y-43094773D01*
X66739494Y-43228762D01*
X66737582Y-43365732D01*
X60188399Y-43365732D01*
X60228997Y-43274548D01*
X60259345Y-43140969D01*
X60261530Y-42984509D01*
X60234923Y-42850134D01*
X60182723Y-42723487D01*
X60106918Y-42609391D01*
X60010395Y-42512192D01*
X59896831Y-42435592D01*
X59770552Y-42382509D01*
X59636366Y-42354965D01*
X59499387Y-42354009D01*
X59364830Y-42379677D01*
X59237822Y-42430991D01*
X59123199Y-42505998D01*
X59025329Y-42601840D01*
X58947938Y-42714867D01*
X58893975Y-42840773D01*
X58865494Y-42974762D01*
X58863582Y-43111732D01*
X58888310Y-43246464D01*
X58938736Y-43373828D01*
X59012941Y-43488971D01*
X59101154Y-43580318D01*
X58996199Y-43648998D01*
X58898329Y-43744840D01*
X58820938Y-43857867D01*
X58766975Y-43983773D01*
X58738494Y-44117762D01*
X58736582Y-44254732D01*
X50136369Y-44254732D01*
X50093384Y-44150443D01*
X50038831Y-44068335D01*
X50084800Y-44003170D01*
X50135451Y-43889407D01*
X50163041Y-43767972D01*
X50165027Y-43625735D01*
X50148992Y-43544752D01*
X50216450Y-43559583D01*
X50340952Y-43562191D01*
X50463590Y-43540567D01*
X50579692Y-43495534D01*
X50684836Y-43428808D01*
X50775017Y-43342929D01*
X50846800Y-43241170D01*
X50897451Y-43127407D01*
X50925041Y-43005972D01*
X50927027Y-42863735D01*
X50902839Y-42741577D01*
X50855384Y-42626443D01*
X50786470Y-42522720D01*
X50698722Y-42434357D01*
X50595482Y-42364721D01*
X50480683Y-42316464D01*
X50358697Y-42291423D01*
X50234170Y-42290554D01*
X50111846Y-42313889D01*
X49996384Y-42360538D01*
X49892182Y-42428726D01*
X49803208Y-42515855D01*
X49732853Y-42618606D01*
X49683796Y-42733066D01*
X49657905Y-42854875D01*
X49656166Y-42979392D01*
X49672613Y-43069007D01*
X49596697Y-43053423D01*
X49472170Y-43052554D01*
X49349846Y-43075889D01*
X49234384Y-43122538D01*
X49130182Y-43190726D01*
X49041208Y-43277855D01*
X48970853Y-43380606D01*
X48921796Y-43495066D01*
X48895905Y-43616875D01*
X48894166Y-43741392D01*
X38613907Y-43741392D01*
X38560831Y-43705592D01*
X38434552Y-43652509D01*
X38300366Y-43624965D01*
X38163387Y-43624009D01*
X38028830Y-43649677D01*
X37901822Y-43700991D01*
X37787199Y-43775998D01*
X37689329Y-43871840D01*
X37611938Y-43984867D01*
X37557975Y-44110773D01*
X37529494Y-44244762D01*
X37527582Y-44381732D01*
X37082169Y-44381732D01*
X37084033Y-44248282D01*
X37055007Y-44101692D01*
X36998061Y-43963532D01*
X36915365Y-43839063D01*
X36810067Y-43733028D01*
X36686179Y-43649465D01*
X36548420Y-43591556D01*
X36402036Y-43561508D01*
X36252604Y-43560464D01*
X36105815Y-43588466D01*
X35967260Y-43644445D01*
X35842218Y-43726271D01*
X35735450Y-43830826D01*
X35651023Y-43954127D01*
X35592154Y-44091479D01*
X35561085Y-44237650D01*
X35558998Y-44387071D01*
X19532393Y-44387071D01*
X19508431Y-44101727D01*
X19776774Y-41709392D01*
X38099166Y-41709392D01*
X38121646Y-41831876D01*
X38167488Y-41947661D01*
X38234947Y-42052337D01*
X38321453Y-42141916D01*
X38423710Y-42212987D01*
X38537825Y-42262843D01*
X38659450Y-42289583D01*
X38783952Y-42292191D01*
X38906590Y-42270567D01*
X39022692Y-42225534D01*
X39127836Y-42158808D01*
X39218017Y-42072929D01*
X39289800Y-41971170D01*
X39340451Y-41857407D01*
X39368041Y-41735972D01*
X39370027Y-41593735D01*
X39345839Y-41471577D01*
X39341369Y-41460732D01*
X45274582Y-41460732D01*
X45299310Y-41595464D01*
X45349736Y-41722828D01*
X45423941Y-41837971D01*
X45519098Y-41936509D01*
X45631581Y-42014687D01*
X45757107Y-42069528D01*
X45890895Y-42098943D01*
X46027848Y-42101811D01*
X46162749Y-42078025D01*
X46290462Y-42028488D01*
X46406120Y-41955089D01*
X46505320Y-41860623D01*
X46584281Y-41748688D01*
X46599399Y-41714732D01*
X50608582Y-41714732D01*
X50633310Y-41849464D01*
X50683736Y-41976828D01*
X50757941Y-42091971D01*
X50853098Y-42190509D01*
X50965581Y-42268687D01*
X51091107Y-42323528D01*
X51224895Y-42352943D01*
X51361848Y-42355811D01*
X51430030Y-42343789D01*
X51376225Y-42378998D01*
X51278355Y-42474840D01*
X51200964Y-42587867D01*
X51147001Y-42713773D01*
X51118520Y-42847762D01*
X51116608Y-42984732D01*
X51141336Y-43119464D01*
X51191762Y-43246828D01*
X51265967Y-43361971D01*
X51361124Y-43460509D01*
X51473607Y-43538687D01*
X51599133Y-43593528D01*
X51732921Y-43622943D01*
X51869874Y-43625811D01*
X52004775Y-43602025D01*
X52132488Y-43552488D01*
X52248146Y-43479089D01*
X52347346Y-43384623D01*
X52426307Y-43272688D01*
X52482023Y-43147548D01*
X52512371Y-43013969D01*
X52514556Y-42857509D01*
X52487949Y-42723134D01*
X52435749Y-42596487D01*
X52359944Y-42482391D01*
X52263421Y-42385192D01*
X52149857Y-42308592D01*
X52023578Y-42255509D01*
X51889392Y-42227965D01*
X51752413Y-42227009D01*
X51694464Y-42238063D01*
X51740120Y-42209089D01*
X51839320Y-42114623D01*
X51918281Y-42002688D01*
X51931618Y-41972731D01*
X60256583Y-41972731D01*
X60281311Y-42107463D01*
X60331737Y-42234827D01*
X60405942Y-42349970D01*
X60501099Y-42448508D01*
X60613582Y-42526686D01*
X60739108Y-42581527D01*
X60872896Y-42610942D01*
X61009849Y-42613810D01*
X61144750Y-42590024D01*
X61272463Y-42540487D01*
X61388121Y-42467088D01*
X61487321Y-42372622D01*
X61566282Y-42260687D01*
X61621998Y-42135547D01*
X61652346Y-42001968D01*
X61654531Y-41845508D01*
X61627924Y-41711133D01*
X61575724Y-41584486D01*
X61499919Y-41470390D01*
X61403396Y-41373191D01*
X61289832Y-41296591D01*
X61163553Y-41243508D01*
X61029367Y-41215964D01*
X60892388Y-41215008D01*
X60757831Y-41240676D01*
X60630823Y-41291990D01*
X60516200Y-41366997D01*
X60418330Y-41462839D01*
X60340939Y-41575866D01*
X60286976Y-41701772D01*
X60258495Y-41835761D01*
X60256583Y-41972731D01*
X51931618Y-41972731D01*
X51973997Y-41877548D01*
X52004345Y-41743969D01*
X52006530Y-41587509D01*
X51979923Y-41453134D01*
X51927723Y-41326487D01*
X51851918Y-41212391D01*
X51755395Y-41115192D01*
X51641831Y-41038592D01*
X51515552Y-40985509D01*
X51381366Y-40957965D01*
X51244387Y-40957009D01*
X51109830Y-40982677D01*
X50982822Y-41033991D01*
X50868199Y-41108998D01*
X50770329Y-41204840D01*
X50692938Y-41317867D01*
X50638975Y-41443773D01*
X50610494Y-41577762D01*
X50608582Y-41714732D01*
X46599399Y-41714732D01*
X46639997Y-41623548D01*
X46670345Y-41489969D01*
X46672530Y-41333509D01*
X46645923Y-41199134D01*
X46593723Y-41072487D01*
X46517918Y-40958391D01*
X46421395Y-40861192D01*
X46307831Y-40784592D01*
X46181552Y-40731509D01*
X46047366Y-40703965D01*
X45910387Y-40703009D01*
X45775830Y-40728677D01*
X45648822Y-40779991D01*
X45534199Y-40854998D01*
X45436329Y-40950840D01*
X45358938Y-41063867D01*
X45304975Y-41189773D01*
X45276494Y-41323762D01*
X45274582Y-41460732D01*
X39341369Y-41460732D01*
X39298384Y-41356443D01*
X39229470Y-41252720D01*
X39141722Y-41164357D01*
X39038482Y-41094721D01*
X38923683Y-41046464D01*
X38801697Y-41021423D01*
X38677170Y-41020554D01*
X38554846Y-41043889D01*
X38439384Y-41090538D01*
X38335182Y-41158726D01*
X38246208Y-41245855D01*
X38175853Y-41348606D01*
X38126796Y-41463066D01*
X38100905Y-41584875D01*
X38099166Y-41709392D01*
X19776774Y-41709392D01*
X20004100Y-39682732D01*
X40702582Y-39682732D01*
X40727310Y-39817464D01*
X40777736Y-39944828D01*
X40851941Y-40059971D01*
X40947098Y-40158509D01*
X41059581Y-40236687D01*
X41185107Y-40291528D01*
X41318895Y-40320943D01*
X41455848Y-40323811D01*
X41590749Y-40300025D01*
X41718462Y-40250488D01*
X41834120Y-40177089D01*
X41933320Y-40082623D01*
X41946646Y-40063732D01*
X47306582Y-40063732D01*
X47331310Y-40198464D01*
X47381736Y-40325828D01*
X47455941Y-40440971D01*
X47551098Y-40539509D01*
X47663581Y-40617687D01*
X47789107Y-40672528D01*
X47922895Y-40701943D01*
X48059848Y-40704811D01*
X48194749Y-40681025D01*
X48322462Y-40631488D01*
X48438120Y-40558089D01*
X48537320Y-40463623D01*
X48616281Y-40351688D01*
X48671997Y-40226548D01*
X48680134Y-40190732D01*
X51370582Y-40190732D01*
X51395310Y-40325464D01*
X51445736Y-40452828D01*
X51519941Y-40567971D01*
X51615098Y-40666509D01*
X51727581Y-40744687D01*
X51853107Y-40799528D01*
X51986895Y-40828943D01*
X52123848Y-40831811D01*
X52258749Y-40808025D01*
X52386462Y-40758488D01*
X52502120Y-40685089D01*
X52601320Y-40590623D01*
X52680281Y-40478688D01*
X52735997Y-40353548D01*
X52766345Y-40219969D01*
X52768530Y-40063509D01*
X52741923Y-39929134D01*
X52689723Y-39802487D01*
X52613918Y-39688391D01*
X52608299Y-39682732D01*
X55180582Y-39682732D01*
X55205310Y-39817464D01*
X55255736Y-39944828D01*
X55329941Y-40059971D01*
X55425098Y-40158509D01*
X55537581Y-40236687D01*
X55663107Y-40291528D01*
X55796895Y-40320943D01*
X55933848Y-40323811D01*
X56068749Y-40300025D01*
X56196462Y-40250488D01*
X56312120Y-40177089D01*
X56411320Y-40082623D01*
X56490281Y-39970688D01*
X56545997Y-39845548D01*
X56576345Y-39711969D01*
X56578530Y-39555509D01*
X56551923Y-39421134D01*
X56499723Y-39294487D01*
X56423918Y-39180391D01*
X56327395Y-39083192D01*
X56213831Y-39006592D01*
X56087552Y-38953509D01*
X55953366Y-38925965D01*
X55816387Y-38925009D01*
X55681830Y-38950677D01*
X55554822Y-39001991D01*
X55440199Y-39076998D01*
X55342329Y-39172840D01*
X55264938Y-39285867D01*
X55210975Y-39411773D01*
X55182494Y-39545762D01*
X55180582Y-39682732D01*
X52608299Y-39682732D01*
X52517395Y-39591192D01*
X52403831Y-39514592D01*
X52277552Y-39461509D01*
X52143366Y-39433965D01*
X52006387Y-39433009D01*
X51871830Y-39458677D01*
X51744822Y-39509991D01*
X51630199Y-39584998D01*
X51532329Y-39680840D01*
X51454938Y-39793867D01*
X51400975Y-39919773D01*
X51372494Y-40053762D01*
X51370582Y-40190732D01*
X48680134Y-40190732D01*
X48702345Y-40092969D01*
X48704530Y-39936509D01*
X48677923Y-39802134D01*
X48625723Y-39675487D01*
X48549918Y-39561391D01*
X48453395Y-39464192D01*
X48339831Y-39387592D01*
X48213552Y-39334509D01*
X48079366Y-39306965D01*
X47942387Y-39306009D01*
X47807830Y-39331677D01*
X47680822Y-39382991D01*
X47566199Y-39457998D01*
X47468329Y-39553840D01*
X47390938Y-39666867D01*
X47336975Y-39792773D01*
X47308494Y-39926762D01*
X47306582Y-40063732D01*
X41946646Y-40063732D01*
X42012281Y-39970688D01*
X42067997Y-39845548D01*
X42098345Y-39711969D01*
X42100530Y-39555509D01*
X42073923Y-39421134D01*
X42021723Y-39294487D01*
X41945918Y-39180391D01*
X41849395Y-39083192D01*
X41735831Y-39006592D01*
X41609552Y-38953509D01*
X41475366Y-38925965D01*
X41338387Y-38925009D01*
X41203830Y-38950677D01*
X41076822Y-39001991D01*
X40962199Y-39076998D01*
X40864329Y-39172840D01*
X40786938Y-39285867D01*
X40732975Y-39411773D01*
X40704494Y-39545762D01*
X40702582Y-39682732D01*
X20004100Y-39682732D01*
X20051086Y-39263851D01*
X20582212Y-37589527D01*
X28108053Y-37589527D01*
X28160483Y-37875194D01*
X28267401Y-38145238D01*
X28424734Y-38389371D01*
X28626490Y-38598295D01*
X28864984Y-38764053D01*
X29131131Y-38880330D01*
X29414795Y-38942698D01*
X29705171Y-38948780D01*
X29991197Y-38898346D01*
X30261981Y-38793316D01*
X30507206Y-38637691D01*
X30717534Y-38437398D01*
X30884953Y-38200067D01*
X31003085Y-37934738D01*
X31008689Y-37910071D01*
X35685998Y-37910071D01*
X35712974Y-38057052D01*
X35767985Y-38195994D01*
X35848936Y-38321605D01*
X35952743Y-38429100D01*
X36075452Y-38514385D01*
X36212390Y-38574212D01*
X36358340Y-38606301D01*
X36507743Y-38609430D01*
X36654908Y-38583481D01*
X36794231Y-38529441D01*
X36920404Y-38449370D01*
X37028621Y-38346316D01*
X37114761Y-38224205D01*
X37143911Y-38158732D01*
X51497582Y-38158732D01*
X51522310Y-38293464D01*
X51572736Y-38420828D01*
X51646941Y-38535971D01*
X51742098Y-38634509D01*
X51854581Y-38712687D01*
X51980107Y-38767528D01*
X52113895Y-38796943D01*
X52250848Y-38799811D01*
X52385749Y-38776025D01*
X52513462Y-38726488D01*
X52629120Y-38653089D01*
X52728320Y-38558623D01*
X52807281Y-38446688D01*
X52862997Y-38321548D01*
X52893345Y-38187969D01*
X52895530Y-38031509D01*
X52868923Y-37897134D01*
X52819710Y-37777732D01*
X60260582Y-37777732D01*
X60285310Y-37912464D01*
X60335736Y-38039828D01*
X60409941Y-38154971D01*
X60505098Y-38253509D01*
X60617581Y-38331687D01*
X60743107Y-38386528D01*
X60876895Y-38415943D01*
X61013848Y-38418811D01*
X61148749Y-38395025D01*
X61276462Y-38345488D01*
X61392120Y-38272089D01*
X61491320Y-38177623D01*
X61570281Y-38065688D01*
X61625997Y-37940548D01*
X61656345Y-37806969D01*
X61658530Y-37650509D01*
X61631923Y-37516134D01*
X61579723Y-37389487D01*
X61503918Y-37275391D01*
X61407395Y-37178192D01*
X61293831Y-37101592D01*
X61167552Y-37048509D01*
X61033366Y-37020965D01*
X60896387Y-37020009D01*
X60761830Y-37045677D01*
X60634822Y-37096991D01*
X60520199Y-37171998D01*
X60422329Y-37267840D01*
X60344938Y-37380867D01*
X60290975Y-37506773D01*
X60262494Y-37640762D01*
X60260582Y-37777732D01*
X52819710Y-37777732D01*
X52816723Y-37770487D01*
X52740918Y-37656391D01*
X52644395Y-37559192D01*
X52530831Y-37482592D01*
X52404552Y-37429509D01*
X52270366Y-37401965D01*
X52133387Y-37401009D01*
X51998830Y-37426677D01*
X51871822Y-37477991D01*
X51757199Y-37552998D01*
X51659329Y-37648840D01*
X51581938Y-37761867D01*
X51527975Y-37887773D01*
X51499494Y-38021762D01*
X51497582Y-38158732D01*
X37143911Y-38158732D01*
X37175542Y-38087688D01*
X37208649Y-37941966D01*
X37211033Y-37771282D01*
X37182007Y-37624692D01*
X37125061Y-37486532D01*
X37042365Y-37362063D01*
X36937067Y-37256028D01*
X36813179Y-37172465D01*
X36675420Y-37114556D01*
X36529036Y-37084508D01*
X36379604Y-37083464D01*
X36232815Y-37111466D01*
X36094260Y-37167445D01*
X35969218Y-37249271D01*
X35862450Y-37353826D01*
X35778023Y-37477127D01*
X35719154Y-37614479D01*
X35688085Y-37760650D01*
X35685998Y-37910071D01*
X31008689Y-37910071D01*
X31067431Y-37651517D01*
X31072064Y-37319780D01*
X31015650Y-37034873D01*
X30904973Y-36766348D01*
X30744246Y-36524435D01*
X30539593Y-36318348D01*
X30298808Y-36155937D01*
X30031063Y-36043387D01*
X29746556Y-35984986D01*
X29456124Y-35982959D01*
X29170829Y-36037382D01*
X28901539Y-36146182D01*
X28658510Y-36305216D01*
X28450999Y-36508425D01*
X28286910Y-36748071D01*
X28172494Y-37015023D01*
X28112108Y-37299116D01*
X28108053Y-37589527D01*
X20582212Y-37589527D01*
X20842822Y-36767982D01*
X22075956Y-36767982D01*
X22100684Y-36902714D01*
X22151110Y-37030078D01*
X22225315Y-37145221D01*
X22320472Y-37243759D01*
X22432955Y-37321937D01*
X22558481Y-37376778D01*
X22692269Y-37406193D01*
X22829222Y-37409061D01*
X22964123Y-37385275D01*
X23091836Y-37335738D01*
X23207494Y-37262339D01*
X23306694Y-37167873D01*
X23385655Y-37055938D01*
X23441371Y-36930798D01*
X23471719Y-36797219D01*
X23473904Y-36640759D01*
X23447297Y-36506384D01*
X23395097Y-36379737D01*
X23319292Y-36265641D01*
X23222769Y-36168442D01*
X23109205Y-36091842D01*
X22982926Y-36038759D01*
X22848740Y-36011215D01*
X22711761Y-36010259D01*
X22577204Y-36035927D01*
X22450196Y-36087241D01*
X22335573Y-36162248D01*
X22237703Y-36258090D01*
X22160312Y-36371117D01*
X22106349Y-36497023D01*
X22077868Y-36631012D01*
X22075956Y-36767982D01*
X20842822Y-36767982D01*
X21126812Y-35872732D01*
X49084582Y-35872732D01*
X49109310Y-36007464D01*
X49159736Y-36134828D01*
X49233941Y-36249971D01*
X49329098Y-36348509D01*
X49441581Y-36426687D01*
X49567107Y-36481528D01*
X49700895Y-36510943D01*
X49837848Y-36513811D01*
X49972749Y-36490025D01*
X50100462Y-36440488D01*
X50194622Y-36380732D01*
X59244582Y-36380732D01*
X59269310Y-36515464D01*
X59319736Y-36642828D01*
X59393941Y-36757971D01*
X59489098Y-36856509D01*
X59601581Y-36934687D01*
X59727107Y-36989528D01*
X59860895Y-37018943D01*
X59997848Y-37021811D01*
X60132749Y-36998025D01*
X60260462Y-36948488D01*
X60376120Y-36875089D01*
X60475320Y-36780623D01*
X60554281Y-36668688D01*
X60609997Y-36543548D01*
X60640345Y-36409969D01*
X60642530Y-36253509D01*
X60615923Y-36119134D01*
X60563723Y-35992487D01*
X60487918Y-35878391D01*
X60391395Y-35781192D01*
X60277831Y-35704592D01*
X60151552Y-35651509D01*
X60017366Y-35623965D01*
X59880387Y-35623009D01*
X59745830Y-35648677D01*
X59618822Y-35699991D01*
X59504199Y-35774998D01*
X59406329Y-35870840D01*
X59328938Y-35983867D01*
X59274975Y-36109773D01*
X59246494Y-36243762D01*
X59244582Y-36380732D01*
X50194622Y-36380732D01*
X50216120Y-36367089D01*
X50315320Y-36272623D01*
X50394281Y-36160688D01*
X50449997Y-36035548D01*
X50480345Y-35901969D01*
X50482530Y-35745509D01*
X50455923Y-35611134D01*
X50403723Y-35484487D01*
X50327918Y-35370391D01*
X50231395Y-35273192D01*
X50117831Y-35196592D01*
X49991552Y-35143509D01*
X49857366Y-35115965D01*
X49720387Y-35115009D01*
X49585830Y-35140677D01*
X49458822Y-35191991D01*
X49344199Y-35266998D01*
X49246329Y-35362840D01*
X49168938Y-35475867D01*
X49114975Y-35601773D01*
X49086494Y-35735762D01*
X49084582Y-35872732D01*
X21126812Y-35872732D01*
X21512784Y-34655994D01*
X64550394Y-34655994D01*
X64575122Y-34790726D01*
X64625548Y-34918090D01*
X64699753Y-35033233D01*
X64794910Y-35131771D01*
X64907393Y-35209949D01*
X65032919Y-35264790D01*
X65166707Y-35294205D01*
X65303660Y-35297073D01*
X65438561Y-35273287D01*
X65566274Y-35223750D01*
X65681932Y-35150351D01*
X65781132Y-35055885D01*
X65860093Y-34943950D01*
X65915809Y-34818810D01*
X65946157Y-34685231D01*
X65948342Y-34528771D01*
X65921735Y-34394396D01*
X65869535Y-34267749D01*
X65793730Y-34153653D01*
X65697207Y-34056454D01*
X65583643Y-33979854D01*
X65457364Y-33926771D01*
X65323178Y-33899227D01*
X65186199Y-33898271D01*
X65051642Y-33923939D01*
X64924634Y-33975253D01*
X64810011Y-34050260D01*
X64712141Y-34146102D01*
X64634750Y-34259129D01*
X64580787Y-34385035D01*
X64552306Y-34519024D01*
X64550394Y-34655994D01*
X21512784Y-34655994D01*
X21523088Y-34623513D01*
X23012753Y-31913821D01*
X26845148Y-31913821D01*
X26869876Y-32048553D01*
X26920302Y-32175917D01*
X26994507Y-32291060D01*
X27089664Y-32389598D01*
X27202147Y-32467776D01*
X27327673Y-32522617D01*
X27461461Y-32552032D01*
X27598414Y-32554900D01*
X27733315Y-32531114D01*
X27861028Y-32481577D01*
X27976686Y-32408178D01*
X28075886Y-32313712D01*
X28154847Y-32201777D01*
X28210563Y-32076637D01*
X28240911Y-31943058D01*
X28243096Y-31786598D01*
X28216489Y-31652223D01*
X28176307Y-31554732D01*
X54418582Y-31554732D01*
X54443310Y-31689464D01*
X54493736Y-31816828D01*
X54567941Y-31931971D01*
X54663098Y-32030509D01*
X54775581Y-32108687D01*
X54901107Y-32163528D01*
X55034895Y-32192943D01*
X55171848Y-32195811D01*
X55306749Y-32172025D01*
X55434462Y-32122488D01*
X55550120Y-32049089D01*
X55649320Y-31954623D01*
X55728281Y-31842688D01*
X55783997Y-31717548D01*
X55814345Y-31583969D01*
X55816530Y-31427509D01*
X55789923Y-31293134D01*
X55737723Y-31166487D01*
X55661918Y-31052391D01*
X55565395Y-30955192D01*
X55451831Y-30878592D01*
X55325552Y-30825509D01*
X55191366Y-30797965D01*
X55054387Y-30797009D01*
X54919830Y-30822677D01*
X54792822Y-30873991D01*
X54678199Y-30948998D01*
X54580329Y-31044840D01*
X54502938Y-31157867D01*
X54448975Y-31283773D01*
X54420494Y-31417762D01*
X54418582Y-31554732D01*
X28176307Y-31554732D01*
X28164289Y-31525576D01*
X28088484Y-31411480D01*
X27991961Y-31314281D01*
X27878397Y-31237681D01*
X27752118Y-31184598D01*
X27617932Y-31157054D01*
X27480953Y-31156098D01*
X27346396Y-31181766D01*
X27219388Y-31233080D01*
X27104765Y-31308087D01*
X27006895Y-31403929D01*
X26929504Y-31516956D01*
X26875541Y-31642862D01*
X26847060Y-31776851D01*
X26845148Y-31913821D01*
X23012753Y-31913821D01*
X23868369Y-30357463D01*
X24954811Y-29062691D01*
X26688095Y-29062691D01*
X26712823Y-29197423D01*
X26763249Y-29324787D01*
X26837454Y-29439930D01*
X26932611Y-29538468D01*
X27045094Y-29616646D01*
X27170620Y-29671487D01*
X27304408Y-29700902D01*
X27441361Y-29703770D01*
X27576262Y-29679984D01*
X27703975Y-29630447D01*
X27819633Y-29557048D01*
X27918833Y-29462582D01*
X27997794Y-29350647D01*
X28053510Y-29225507D01*
X28083858Y-29091928D01*
X28084936Y-29014732D01*
X44385582Y-29014732D01*
X44410310Y-29149464D01*
X44460736Y-29276828D01*
X44534941Y-29391971D01*
X44630098Y-29490509D01*
X44742581Y-29568687D01*
X44868107Y-29623528D01*
X45001895Y-29652943D01*
X45138848Y-29655811D01*
X45273749Y-29632025D01*
X45401462Y-29582488D01*
X45517120Y-29509089D01*
X45616320Y-29414623D01*
X45692342Y-29306854D01*
X45730736Y-29403828D01*
X45804941Y-29518971D01*
X45818635Y-29533152D01*
X45793366Y-29527965D01*
X45656387Y-29527009D01*
X45521830Y-29552677D01*
X45394822Y-29603991D01*
X45280199Y-29678998D01*
X45182329Y-29774840D01*
X45104938Y-29887867D01*
X45050975Y-30013773D01*
X45022494Y-30147762D01*
X45020582Y-30284732D01*
X45045310Y-30419464D01*
X45095736Y-30546828D01*
X45169941Y-30661971D01*
X45265098Y-30760509D01*
X45377581Y-30838687D01*
X45503107Y-30893528D01*
X45636895Y-30922943D01*
X45773848Y-30925811D01*
X45908749Y-30902025D01*
X46036462Y-30852488D01*
X46152120Y-30779089D01*
X46251320Y-30684623D01*
X46330281Y-30572688D01*
X46385997Y-30447548D01*
X46416345Y-30313969D01*
X46418530Y-30157509D01*
X46391923Y-30023134D01*
X46339723Y-29896487D01*
X46263918Y-29782391D01*
X46258580Y-29777016D01*
X46271895Y-29779943D01*
X46408848Y-29782811D01*
X46543749Y-29759025D01*
X46671462Y-29709488D01*
X46787120Y-29636089D01*
X46886320Y-29541623D01*
X46965281Y-29429688D01*
X47020997Y-29304548D01*
X47051345Y-29170969D01*
X47053530Y-29014509D01*
X47026923Y-28880134D01*
X46974723Y-28753487D01*
X46937348Y-28697232D01*
X55434582Y-28697232D01*
X55459310Y-28831964D01*
X55509736Y-28959328D01*
X55583941Y-29074471D01*
X55679098Y-29173009D01*
X55791581Y-29251187D01*
X55917107Y-29306028D01*
X56050895Y-29335443D01*
X56187848Y-29338311D01*
X56322749Y-29314525D01*
X56450462Y-29264988D01*
X56566120Y-29191589D01*
X56665320Y-29097123D01*
X56744281Y-28985188D01*
X56799997Y-28860048D01*
X56830345Y-28726469D01*
X56832530Y-28570009D01*
X56805923Y-28435634D01*
X56753723Y-28308987D01*
X56677918Y-28194891D01*
X56581395Y-28097692D01*
X56467831Y-28021092D01*
X56341552Y-27968009D01*
X56207366Y-27940465D01*
X56070387Y-27939509D01*
X55935830Y-27965177D01*
X55808822Y-28016491D01*
X55694199Y-28091498D01*
X55596329Y-28187340D01*
X55518938Y-28300367D01*
X55464975Y-28426273D01*
X55436494Y-28560262D01*
X55434582Y-28697232D01*
X46937348Y-28697232D01*
X46898918Y-28639391D01*
X46802395Y-28542192D01*
X46688831Y-28465592D01*
X46562552Y-28412509D01*
X46428366Y-28384965D01*
X46291387Y-28384009D01*
X46156830Y-28409677D01*
X46029822Y-28460991D01*
X45915199Y-28535998D01*
X45817329Y-28631840D01*
X45748414Y-28732489D01*
X45704723Y-28626487D01*
X45628918Y-28512391D01*
X45532395Y-28415192D01*
X45418831Y-28338592D01*
X45292552Y-28285509D01*
X45158366Y-28257965D01*
X45021387Y-28257009D01*
X44886830Y-28282677D01*
X44759822Y-28333991D01*
X44645199Y-28408998D01*
X44547329Y-28504840D01*
X44469938Y-28617867D01*
X44415975Y-28743773D01*
X44387494Y-28877762D01*
X44385582Y-29014732D01*
X28084936Y-29014732D01*
X28086043Y-28935468D01*
X28059436Y-28801093D01*
X28007236Y-28674446D01*
X27931431Y-28560350D01*
X27834908Y-28463151D01*
X27721344Y-28386551D01*
X27595065Y-28333468D01*
X27460879Y-28305924D01*
X27323900Y-28304968D01*
X27189343Y-28330636D01*
X27062335Y-28381950D01*
X26947712Y-28456957D01*
X26849842Y-28552799D01*
X26772451Y-28665826D01*
X26718488Y-28791732D01*
X26690007Y-28925721D01*
X26688095Y-29062691D01*
X24954811Y-29062691D01*
X26997598Y-26628193D01*
X27277529Y-26403122D01*
X32951861Y-26403122D01*
X32976589Y-26537854D01*
X33027015Y-26665218D01*
X33101220Y-26780361D01*
X33196377Y-26878899D01*
X33308860Y-26957077D01*
X33434386Y-27011918D01*
X33568174Y-27041333D01*
X33705127Y-27044201D01*
X33840028Y-27020415D01*
X33967741Y-26970878D01*
X34083399Y-26897479D01*
X34182599Y-26803013D01*
X34261560Y-26691078D01*
X34317276Y-26565938D01*
X34337997Y-26474732D01*
X50862582Y-26474732D01*
X50887310Y-26609464D01*
X50937736Y-26736828D01*
X51011941Y-26851971D01*
X51107098Y-26950509D01*
X51219581Y-27028687D01*
X51269848Y-27050648D01*
X51236822Y-27063991D01*
X51122199Y-27138998D01*
X51024329Y-27234840D01*
X50946938Y-27347867D01*
X50892975Y-27473773D01*
X50864494Y-27607762D01*
X50862582Y-27744732D01*
X50887310Y-27879464D01*
X50937736Y-28006828D01*
X51011941Y-28121971D01*
X51107098Y-28220509D01*
X51219581Y-28298687D01*
X51345107Y-28353528D01*
X51478895Y-28382943D01*
X51615848Y-28385811D01*
X51750749Y-28362025D01*
X51878462Y-28312488D01*
X51994120Y-28239089D01*
X52093320Y-28144623D01*
X52172281Y-28032688D01*
X52227997Y-27907548D01*
X52258345Y-27773969D01*
X52260530Y-27617509D01*
X52257717Y-27603298D01*
X56345493Y-27603298D01*
X56370221Y-27738030D01*
X56420647Y-27865394D01*
X56494852Y-27980537D01*
X56590009Y-28079075D01*
X56702492Y-28157253D01*
X56828018Y-28212094D01*
X56961806Y-28241509D01*
X57098759Y-28244377D01*
X57233660Y-28220591D01*
X57361373Y-28171054D01*
X57477031Y-28097655D01*
X57576231Y-28003189D01*
X57655192Y-27891254D01*
X57710908Y-27766114D01*
X57741256Y-27632535D01*
X57743441Y-27476075D01*
X57737535Y-27446245D01*
X59196623Y-27446245D01*
X59221351Y-27580977D01*
X59271777Y-27708341D01*
X59345982Y-27823484D01*
X59441139Y-27922022D01*
X59553622Y-28000200D01*
X59679148Y-28055041D01*
X59812936Y-28084456D01*
X59949889Y-28087324D01*
X60084790Y-28063538D01*
X60212503Y-28014001D01*
X60328161Y-27940602D01*
X60427361Y-27846136D01*
X60506322Y-27734201D01*
X60562038Y-27609061D01*
X60592386Y-27475482D01*
X60594571Y-27319022D01*
X60567964Y-27184647D01*
X60515764Y-27058000D01*
X60439959Y-26943904D01*
X60343436Y-26846705D01*
X60229872Y-26770105D01*
X60103593Y-26717022D01*
X59969407Y-26689478D01*
X59832428Y-26688522D01*
X59697871Y-26714190D01*
X59570863Y-26765504D01*
X59456240Y-26840511D01*
X59358370Y-26936353D01*
X59280979Y-27049380D01*
X59227016Y-27175286D01*
X59198535Y-27309275D01*
X59196623Y-27446245D01*
X57737535Y-27446245D01*
X57716834Y-27341700D01*
X57664634Y-27215053D01*
X57588829Y-27100957D01*
X57492306Y-27003758D01*
X57378742Y-26927158D01*
X57252463Y-26874075D01*
X57118277Y-26846531D01*
X56981298Y-26845575D01*
X56846741Y-26871243D01*
X56719733Y-26922557D01*
X56605110Y-26997564D01*
X56507240Y-27093406D01*
X56429849Y-27206433D01*
X56375886Y-27332339D01*
X56347405Y-27466328D01*
X56345493Y-27603298D01*
X52257717Y-27603298D01*
X52233923Y-27483134D01*
X52181723Y-27356487D01*
X52105918Y-27242391D01*
X52009395Y-27145192D01*
X51895831Y-27068592D01*
X51855198Y-27051511D01*
X51878462Y-27042488D01*
X51994120Y-26969089D01*
X52093320Y-26874623D01*
X52172281Y-26762688D01*
X52227997Y-26637548D01*
X52258345Y-26503969D01*
X52260530Y-26347509D01*
X52233923Y-26213134D01*
X52181723Y-26086487D01*
X52105918Y-25972391D01*
X52009395Y-25875192D01*
X51895831Y-25798592D01*
X51769552Y-25745509D01*
X51635366Y-25717965D01*
X51498387Y-25717009D01*
X51363830Y-25742677D01*
X51236822Y-25793991D01*
X51122199Y-25868998D01*
X51024329Y-25964840D01*
X50946938Y-26077867D01*
X50892975Y-26203773D01*
X50864494Y-26337762D01*
X50862582Y-26474732D01*
X34337997Y-26474732D01*
X34347624Y-26432359D01*
X34349809Y-26275899D01*
X34323202Y-26141524D01*
X34271002Y-26014877D01*
X34195197Y-25900781D01*
X34098674Y-25803582D01*
X33985110Y-25726982D01*
X33858831Y-25673899D01*
X33724645Y-25646355D01*
X33587666Y-25645399D01*
X33453109Y-25671067D01*
X33326101Y-25722381D01*
X33211478Y-25797388D01*
X33113608Y-25893230D01*
X33036217Y-26006257D01*
X32982254Y-26132163D01*
X32953773Y-26266152D01*
X32951861Y-26403122D01*
X27277529Y-26403122D01*
X30628441Y-23708920D01*
X33897844Y-23708920D01*
X33922572Y-23843652D01*
X33972998Y-23971016D01*
X34047203Y-24086159D01*
X34142360Y-24184697D01*
X34254843Y-24262875D01*
X34380369Y-24317716D01*
X34514157Y-24347131D01*
X34651110Y-24349999D01*
X34786011Y-24326213D01*
X34913724Y-24276676D01*
X35029382Y-24203277D01*
X35128582Y-24108811D01*
X35207543Y-23996876D01*
X35263259Y-23871736D01*
X35293607Y-23738157D01*
X35294854Y-23648838D01*
X40702582Y-23648838D01*
X40727310Y-23783570D01*
X40777736Y-23910934D01*
X40851941Y-24026077D01*
X40947098Y-24124615D01*
X41059581Y-24202793D01*
X41185107Y-24257634D01*
X41318895Y-24287049D01*
X41455848Y-24289917D01*
X41590749Y-24266131D01*
X41718462Y-24216594D01*
X41834120Y-24143195D01*
X41910684Y-24070284D01*
X48917333Y-24070284D01*
X48942061Y-24205016D01*
X48992487Y-24332380D01*
X49066692Y-24447523D01*
X49161849Y-24546061D01*
X49274332Y-24624239D01*
X49399858Y-24679080D01*
X49533646Y-24708495D01*
X49670599Y-24711363D01*
X49805500Y-24687577D01*
X49933213Y-24638040D01*
X50048871Y-24564641D01*
X50148071Y-24470175D01*
X50227032Y-24358240D01*
X50282748Y-24233100D01*
X50313096Y-24099521D01*
X50315281Y-23943061D01*
X50288674Y-23808686D01*
X50236474Y-23682039D01*
X50160669Y-23567943D01*
X50064146Y-23470744D01*
X49950582Y-23394144D01*
X49824303Y-23341061D01*
X49690117Y-23313517D01*
X49553138Y-23312561D01*
X49418581Y-23338229D01*
X49291573Y-23389543D01*
X49176950Y-23464550D01*
X49079080Y-23560392D01*
X49001689Y-23673419D01*
X48947726Y-23799325D01*
X48919245Y-23933314D01*
X48917333Y-24070284D01*
X41910684Y-24070284D01*
X41933320Y-24048729D01*
X42012281Y-23936794D01*
X42067997Y-23811654D01*
X42098345Y-23678075D01*
X42100530Y-23521615D01*
X42073923Y-23387240D01*
X42021723Y-23260593D01*
X41945918Y-23146497D01*
X41849395Y-23049298D01*
X41735831Y-22972698D01*
X41609552Y-22919615D01*
X41475366Y-22892071D01*
X41338387Y-22891115D01*
X41203830Y-22916783D01*
X41076822Y-22968097D01*
X40962199Y-23043104D01*
X40864329Y-23138946D01*
X40786938Y-23251973D01*
X40732975Y-23377879D01*
X40704494Y-23511868D01*
X40702582Y-23648838D01*
X35294854Y-23648838D01*
X35295792Y-23581697D01*
X35269185Y-23447322D01*
X35216985Y-23320675D01*
X35141180Y-23206579D01*
X35044657Y-23109380D01*
X34931093Y-23032780D01*
X34804814Y-22979697D01*
X34670628Y-22952153D01*
X34533649Y-22951197D01*
X34399092Y-22976865D01*
X34272084Y-23028179D01*
X34157461Y-23103186D01*
X34059591Y-23199028D01*
X33982200Y-23312055D01*
X33928237Y-23437961D01*
X33899756Y-23571950D01*
X33897844Y-23708920D01*
X30628441Y-23708920D01*
X30791583Y-23577751D01*
X32214044Y-22834106D01*
X51491332Y-22834106D01*
X51516060Y-22968838D01*
X51566486Y-23096202D01*
X51640691Y-23211345D01*
X51735848Y-23309883D01*
X51848331Y-23388061D01*
X51973857Y-23442902D01*
X52107645Y-23472317D01*
X52244598Y-23475185D01*
X52379499Y-23451399D01*
X52507212Y-23401862D01*
X52622870Y-23328463D01*
X52722070Y-23233997D01*
X52801031Y-23122062D01*
X52856747Y-22996922D01*
X52887095Y-22863343D01*
X52889280Y-22706883D01*
X52862673Y-22572508D01*
X52810473Y-22445861D01*
X52734668Y-22331765D01*
X52638145Y-22234566D01*
X52524581Y-22157966D01*
X52398302Y-22104883D01*
X52264116Y-22077339D01*
X52127137Y-22076383D01*
X51992580Y-22102051D01*
X51865572Y-22153365D01*
X51750949Y-22228372D01*
X51653079Y-22324214D01*
X51575688Y-22437241D01*
X51521725Y-22563147D01*
X51493244Y-22697136D01*
X51491332Y-22834106D01*
X32214044Y-22834106D01*
X34724384Y-21521732D01*
X42607582Y-21521732D01*
X42632310Y-21656464D01*
X42682736Y-21783828D01*
X42756941Y-21898971D01*
X42852098Y-21997509D01*
X42964581Y-22075687D01*
X43090107Y-22130528D01*
X43223895Y-22159943D01*
X43360848Y-22162811D01*
X43495749Y-22139025D01*
X43623462Y-22089488D01*
X43739120Y-22016089D01*
X43838320Y-21921623D01*
X43917281Y-21809688D01*
X43972997Y-21684548D01*
X44003345Y-21550969D01*
X44005530Y-21394509D01*
X43978923Y-21260134D01*
X43926723Y-21133487D01*
X43850918Y-21019391D01*
X43754395Y-20922192D01*
X43640831Y-20845592D01*
X43514552Y-20792509D01*
X43380366Y-20764965D01*
X43243387Y-20764009D01*
X43108830Y-20789677D01*
X42981822Y-20840991D01*
X42867199Y-20915998D01*
X42769329Y-21011840D01*
X42691938Y-21124867D01*
X42637975Y-21250773D01*
X42609494Y-21384762D01*
X42607582Y-21521732D01*
X34724384Y-21521732D01*
X35105813Y-21322326D01*
X39775960Y-19947827D01*
X44624141Y-19506608D01*
X49465688Y-20015475D01*
X49465688Y-20015475D01*
G37*
X49465688Y-20015475D02*
X54116189Y-21455046D01*
X58398508Y-23770487D01*
X62149532Y-26873604D01*
X65226387Y-30646201D01*
X67511876Y-34944581D01*
X68918945Y-39605018D01*
X69394000Y-44450000D01*
X69384275Y-45146477D01*
X68774125Y-49976306D01*
X67237478Y-54595639D01*
X64832862Y-58828528D01*
X61651870Y-62513743D01*
X57815664Y-65510916D01*
X53470363Y-67705885D01*
X48781480Y-69015045D01*
X43927612Y-69388529D01*
X39093642Y-68812113D01*
X37453840Y-68279309D01*
X40154756Y-68279309D01*
X40223310Y-68520728D01*
X40474556Y-68639128D01*
X40744071Y-68706238D01*
X41021502Y-68719478D01*
X41296184Y-68678339D01*
X41557562Y-68584403D01*
X41676690Y-68520728D01*
X41745243Y-68279311D01*
X41861606Y-68395674D01*
X41869458Y-68387822D01*
X41870310Y-68392464D01*
X41920736Y-68519828D01*
X41994941Y-68634971D01*
X42090098Y-68733509D01*
X42202581Y-68811687D01*
X42328107Y-68866528D01*
X42461895Y-68895943D01*
X42598848Y-68898811D01*
X42733749Y-68875025D01*
X42861462Y-68825488D01*
X42977120Y-68752089D01*
X43076320Y-68657623D01*
X43155281Y-68545688D01*
X43210997Y-68420548D01*
X43241345Y-68286969D01*
X43241451Y-68279309D01*
X47154756Y-68279309D01*
X47223310Y-68520728D01*
X47474556Y-68639128D01*
X47744071Y-68706238D01*
X48021502Y-68719478D01*
X48296184Y-68678339D01*
X48557562Y-68584403D01*
X48676690Y-68520728D01*
X48745244Y-68279309D01*
X47950000Y-67484065D01*
X47154756Y-68279309D01*
X43241451Y-68279309D01*
X43243530Y-68130509D01*
X43216923Y-67996134D01*
X43164723Y-67869487D01*
X43088918Y-67755391D01*
X42992395Y-67658192D01*
X42878831Y-67581592D01*
X42752552Y-67528509D01*
X42618366Y-67500965D01*
X42481387Y-67500009D01*
X42348028Y-67525448D01*
X42351778Y-67510389D01*
X42358193Y-67375962D01*
X46534982Y-67375962D01*
X46576121Y-67650644D01*
X46670057Y-67912022D01*
X46733732Y-68031150D01*
X46975151Y-68099704D01*
X47770395Y-67304460D01*
X48129605Y-67304460D01*
X48924849Y-68099704D01*
X49166268Y-68031150D01*
X49284668Y-67779904D01*
X49351778Y-67510389D01*
X49365018Y-67232958D01*
X49323879Y-66958276D01*
X49229943Y-66696898D01*
X49166268Y-66577770D01*
X48924849Y-66509216D01*
X48129605Y-67304460D01*
X47770395Y-67304460D01*
X46975151Y-66509216D01*
X46733732Y-66577770D01*
X46615332Y-66829016D01*
X46548222Y-67098531D01*
X46534982Y-67375962D01*
X42358193Y-67375962D01*
X42365018Y-67232958D01*
X42323879Y-66958276D01*
X42229943Y-66696898D01*
X42184603Y-66612071D01*
X44956998Y-66612071D01*
X44983974Y-66759052D01*
X45038985Y-66897994D01*
X45119936Y-67023605D01*
X45223743Y-67131100D01*
X45346452Y-67216385D01*
X45483390Y-67276212D01*
X45629340Y-67308301D01*
X45778743Y-67311430D01*
X45925908Y-67285481D01*
X46065231Y-67231441D01*
X46191404Y-67151370D01*
X46299621Y-67048316D01*
X46385761Y-66926205D01*
X46446542Y-66789688D01*
X46479649Y-66643966D01*
X46482033Y-66473282D01*
X46453585Y-66329611D01*
X47154756Y-66329611D01*
X47950000Y-67124855D01*
X48745244Y-66329611D01*
X48676690Y-66088192D01*
X48425444Y-65969792D01*
X48155929Y-65902682D01*
X47878498Y-65889442D01*
X47603816Y-65930581D01*
X47342438Y-66024517D01*
X47223310Y-66088192D01*
X47154756Y-66329611D01*
X46453585Y-66329611D01*
X46453007Y-66326692D01*
X46396061Y-66188532D01*
X46313365Y-66064063D01*
X46208067Y-65958028D01*
X46084179Y-65874465D01*
X45946420Y-65816556D01*
X45800036Y-65786508D01*
X45650604Y-65785464D01*
X45503815Y-65813466D01*
X45365260Y-65869445D01*
X45240218Y-65951271D01*
X45133450Y-66055826D01*
X45049023Y-66179127D01*
X44990154Y-66316479D01*
X44959085Y-66462650D01*
X44956998Y-66612071D01*
X42184603Y-66612071D01*
X42166268Y-66577770D01*
X41924849Y-66509216D01*
X41129605Y-67304460D01*
X41143748Y-67318603D01*
X40964143Y-67498208D01*
X40950000Y-67484065D01*
X40154756Y-68279309D01*
X37453840Y-68279309D01*
X34673623Y-67375962D01*
X39534982Y-67375962D01*
X39576121Y-67650644D01*
X39670057Y-67912022D01*
X39733732Y-68031150D01*
X39975151Y-68099704D01*
X40770395Y-67304460D01*
X39975151Y-66509216D01*
X39733732Y-66577770D01*
X39615332Y-66829016D01*
X39548222Y-67098531D01*
X39534982Y-67375962D01*
X34673623Y-67375962D01*
X34463694Y-67307752D01*
X32451828Y-66183358D01*
X36009832Y-66183358D01*
X36034560Y-66318090D01*
X36084986Y-66445454D01*
X36159191Y-66560597D01*
X36254348Y-66659135D01*
X36366831Y-66737313D01*
X36492357Y-66792154D01*
X36626145Y-66821569D01*
X36763098Y-66824437D01*
X36897999Y-66800651D01*
X37025712Y-66751114D01*
X37141370Y-66677715D01*
X37240570Y-66583249D01*
X37319531Y-66471314D01*
X37375247Y-66346174D01*
X37379009Y-66329611D01*
X40154756Y-66329611D01*
X40950000Y-67124855D01*
X41745244Y-66329611D01*
X41676690Y-66088192D01*
X41425444Y-65969792D01*
X41155929Y-65902682D01*
X40878498Y-65889442D01*
X40603816Y-65930581D01*
X40342438Y-66024517D01*
X40223310Y-66088192D01*
X40154756Y-66329611D01*
X37379009Y-66329611D01*
X37405595Y-66212595D01*
X37407780Y-66056135D01*
X37381173Y-65921760D01*
X37328973Y-65795113D01*
X37253168Y-65681017D01*
X37156645Y-65583818D01*
X37043081Y-65507218D01*
X36916802Y-65454135D01*
X36782616Y-65426591D01*
X36645637Y-65425635D01*
X36511080Y-65451303D01*
X36384072Y-65502617D01*
X36269449Y-65577624D01*
X36171579Y-65673466D01*
X36094188Y-65786493D01*
X36040225Y-65912399D01*
X36011744Y-66046388D01*
X36009832Y-66183358D01*
X32451828Y-66183358D01*
X30214121Y-64932746D01*
X30178463Y-64902398D01*
X40730732Y-64902398D01*
X40800397Y-65090610D01*
X40914447Y-65276282D01*
X41062529Y-65436136D01*
X41238951Y-65564029D01*
X41436934Y-65655046D01*
X41648869Y-65705690D01*
X41823000Y-65557024D01*
X41823000Y-64731460D01*
X42077000Y-64731460D01*
X42077000Y-65557024D01*
X42251131Y-65705690D01*
X42463066Y-65655046D01*
X42661049Y-65564029D01*
X42837471Y-65436136D01*
X42985553Y-65276282D01*
X43099603Y-65090610D01*
X43169268Y-64902398D01*
X45730732Y-64902398D01*
X45800397Y-65090610D01*
X45914447Y-65276282D01*
X46062529Y-65436136D01*
X46238951Y-65564029D01*
X46436934Y-65655046D01*
X46648869Y-65705690D01*
X46823000Y-65557024D01*
X46823000Y-64731460D01*
X47077000Y-64731460D01*
X47077000Y-65557024D01*
X47251131Y-65705690D01*
X47463066Y-65655046D01*
X47661049Y-65564029D01*
X47837471Y-65436136D01*
X47985553Y-65276282D01*
X48099603Y-65090610D01*
X48102518Y-65082732D01*
X48576582Y-65082732D01*
X48601310Y-65217464D01*
X48651736Y-65344828D01*
X48725941Y-65459971D01*
X48821098Y-65558509D01*
X48933581Y-65636687D01*
X49059107Y-65691528D01*
X49192895Y-65720943D01*
X49329848Y-65723811D01*
X49464749Y-65700025D01*
X49592462Y-65650488D01*
X49708120Y-65577089D01*
X49807320Y-65482623D01*
X49841311Y-65434437D01*
X49949581Y-65509687D01*
X50075107Y-65564528D01*
X50208895Y-65593943D01*
X50345848Y-65596811D01*
X50480749Y-65573025D01*
X50608462Y-65523488D01*
X50724120Y-65450089D01*
X50823320Y-65355623D01*
X50856530Y-65308544D01*
X53603320Y-65308544D01*
X53628048Y-65443276D01*
X53678474Y-65570640D01*
X53752679Y-65685783D01*
X53847836Y-65784321D01*
X53960319Y-65862499D01*
X54085845Y-65917340D01*
X54219633Y-65946755D01*
X54356586Y-65949623D01*
X54491487Y-65925837D01*
X54619200Y-65876300D01*
X54734858Y-65802901D01*
X54834058Y-65708435D01*
X54913019Y-65596500D01*
X54968735Y-65471360D01*
X54999083Y-65337781D01*
X55001268Y-65181321D01*
X54974661Y-65046946D01*
X54922461Y-64920299D01*
X54846656Y-64806203D01*
X54750133Y-64709004D01*
X54636569Y-64632404D01*
X54510290Y-64579321D01*
X54376104Y-64551777D01*
X54239125Y-64550821D01*
X54104568Y-64576489D01*
X53977560Y-64627803D01*
X53862937Y-64702810D01*
X53765067Y-64798652D01*
X53687676Y-64911679D01*
X53633713Y-65037585D01*
X53605232Y-65171574D01*
X53603320Y-65308544D01*
X50856530Y-65308544D01*
X50902281Y-65243688D01*
X50957997Y-65118548D01*
X50988345Y-64984969D01*
X50990530Y-64828509D01*
X50963923Y-64694134D01*
X50911723Y-64567487D01*
X50835918Y-64453391D01*
X50739395Y-64356192D01*
X50625831Y-64279592D01*
X50499552Y-64226509D01*
X50365366Y-64198965D01*
X50228387Y-64198009D01*
X50093830Y-64223677D01*
X49966822Y-64274991D01*
X49852199Y-64349998D01*
X49754329Y-64445840D01*
X49726567Y-64486386D01*
X49723395Y-64483192D01*
X49609831Y-64406592D01*
X49483552Y-64353509D01*
X49349366Y-64325965D01*
X49212387Y-64325009D01*
X49077830Y-64350677D01*
X48950822Y-64401991D01*
X48836199Y-64476998D01*
X48738329Y-64572840D01*
X48660938Y-64685867D01*
X48606975Y-64811773D01*
X48578494Y-64945762D01*
X48576582Y-65082732D01*
X48102518Y-65082732D01*
X48169268Y-64902398D01*
X48042734Y-64731460D01*
X47077000Y-64731460D01*
X46823000Y-64731460D01*
X45857266Y-64731460D01*
X45730732Y-64902398D01*
X43169268Y-64902398D01*
X43042734Y-64731460D01*
X42077000Y-64731460D01*
X41823000Y-64731460D01*
X40857266Y-64731460D01*
X40730732Y-64902398D01*
X30178463Y-64902398D01*
X29047334Y-63939732D01*
X38162582Y-63939732D01*
X38187310Y-64074464D01*
X38237736Y-64201828D01*
X38311941Y-64316971D01*
X38407098Y-64415509D01*
X38519581Y-64493687D01*
X38645107Y-64548528D01*
X38778895Y-64577943D01*
X38915848Y-64580811D01*
X39050749Y-64557025D01*
X39178462Y-64507488D01*
X39294120Y-64434089D01*
X39393320Y-64339623D01*
X39416670Y-64306522D01*
X40730732Y-64306522D01*
X40857266Y-64477460D01*
X41823000Y-64477460D01*
X41823000Y-63651896D01*
X42077000Y-63651896D01*
X42077000Y-64477460D01*
X43042734Y-64477460D01*
X43169268Y-64306522D01*
X45730732Y-64306522D01*
X45857266Y-64477460D01*
X46823000Y-64477460D01*
X46823000Y-64457460D01*
X47077000Y-64457460D01*
X47077000Y-64477460D01*
X48042734Y-64477460D01*
X48169268Y-64306522D01*
X48099603Y-64118310D01*
X47985553Y-63932638D01*
X47837471Y-63772784D01*
X47661049Y-63644891D01*
X47463066Y-63553874D01*
X47271720Y-63508150D01*
X47334404Y-63468370D01*
X47442621Y-63365316D01*
X47528761Y-63243205D01*
X47589542Y-63106688D01*
X47622649Y-62960966D01*
X47625033Y-62790282D01*
X47596007Y-62643692D01*
X47539061Y-62505532D01*
X47456365Y-62381063D01*
X47351067Y-62275028D01*
X47227179Y-62191465D01*
X47089420Y-62133556D01*
X46943036Y-62103508D01*
X46793604Y-62102464D01*
X46646815Y-62130466D01*
X46508260Y-62186445D01*
X46383218Y-62268271D01*
X46276450Y-62372826D01*
X46192023Y-62496127D01*
X46133154Y-62633479D01*
X46102085Y-62779650D01*
X46099998Y-62929071D01*
X46126974Y-63076052D01*
X46181985Y-63214994D01*
X46262936Y-63340605D01*
X46366743Y-63448100D01*
X46489452Y-63533385D01*
X46501199Y-63538517D01*
X46436934Y-63553874D01*
X46238951Y-63644891D01*
X46062529Y-63772784D01*
X45914447Y-63932638D01*
X45800397Y-64118310D01*
X45730732Y-64306522D01*
X43169268Y-64306522D01*
X43099603Y-64118310D01*
X42985553Y-63932638D01*
X42837471Y-63772784D01*
X42661049Y-63644891D01*
X42463066Y-63553874D01*
X42251131Y-63503230D01*
X42077000Y-63651896D01*
X41823000Y-63651896D01*
X41648869Y-63503230D01*
X41436934Y-63553874D01*
X41238951Y-63644891D01*
X41062529Y-63772784D01*
X40914447Y-63932638D01*
X40800397Y-64118310D01*
X40730732Y-64306522D01*
X39416670Y-64306522D01*
X39472281Y-64227688D01*
X39527997Y-64102548D01*
X39558345Y-63968969D01*
X39560530Y-63812509D01*
X39533923Y-63678134D01*
X39481723Y-63551487D01*
X39405918Y-63437391D01*
X39309395Y-63340192D01*
X39195831Y-63263592D01*
X39069552Y-63210509D01*
X38935366Y-63182965D01*
X38798387Y-63182009D01*
X38663830Y-63207677D01*
X38536822Y-63258991D01*
X38422199Y-63333998D01*
X38324329Y-63429840D01*
X38246938Y-63542867D01*
X38192975Y-63668773D01*
X38164494Y-63802762D01*
X38162582Y-63939732D01*
X29047334Y-63939732D01*
X27717178Y-62807680D01*
X40564634Y-62807680D01*
X40589362Y-62942412D01*
X40639788Y-63069776D01*
X40713993Y-63184919D01*
X40809150Y-63283457D01*
X40921633Y-63361635D01*
X41047159Y-63416476D01*
X41180947Y-63445891D01*
X41317900Y-63448759D01*
X41452801Y-63424973D01*
X41580514Y-63375436D01*
X41696172Y-63302037D01*
X41795372Y-63207571D01*
X41874333Y-63095636D01*
X41930049Y-62970496D01*
X41960397Y-62836917D01*
X41962582Y-62680457D01*
X41935975Y-62546082D01*
X41883775Y-62419435D01*
X41807970Y-62305339D01*
X41711447Y-62208140D01*
X41597883Y-62131540D01*
X41471604Y-62078457D01*
X41337418Y-62050913D01*
X41200439Y-62049957D01*
X41065882Y-62075625D01*
X40938874Y-62126939D01*
X40824251Y-62201946D01*
X40726381Y-62297788D01*
X40648990Y-62410815D01*
X40595027Y-62536721D01*
X40566546Y-62670710D01*
X40564634Y-62807680D01*
X27717178Y-62807680D01*
X26506788Y-61777558D01*
X26343246Y-61571219D01*
X28304541Y-61571219D01*
X28329269Y-61705951D01*
X28379695Y-61833315D01*
X28453900Y-61948458D01*
X28549057Y-62046996D01*
X28661540Y-62125174D01*
X28787066Y-62180015D01*
X28920854Y-62209430D01*
X29057807Y-62212298D01*
X29192708Y-62188512D01*
X29320421Y-62138975D01*
X29436079Y-62065576D01*
X29535279Y-61971110D01*
X29614240Y-61859175D01*
X29669956Y-61734035D01*
X29700304Y-61600456D01*
X29702489Y-61443996D01*
X29675882Y-61309621D01*
X29623682Y-61182974D01*
X29547877Y-61068878D01*
X29451354Y-60971679D01*
X29337790Y-60895079D01*
X29211511Y-60841996D01*
X29077325Y-60814452D01*
X28940346Y-60813496D01*
X28805789Y-60839164D01*
X28678781Y-60890478D01*
X28564158Y-60965485D01*
X28466288Y-61061327D01*
X28388897Y-61174354D01*
X28334934Y-61300260D01*
X28306453Y-61434249D01*
X28304541Y-61571219D01*
X26343246Y-61571219D01*
X25062067Y-59954773D01*
X60813069Y-59954773D01*
X60837797Y-60089505D01*
X60888223Y-60216869D01*
X60962428Y-60332012D01*
X61057585Y-60430550D01*
X61170068Y-60508728D01*
X61295594Y-60563569D01*
X61429382Y-60592984D01*
X61566335Y-60595852D01*
X61701236Y-60572066D01*
X61828949Y-60522529D01*
X61944607Y-60449130D01*
X62043807Y-60354664D01*
X62122768Y-60242729D01*
X62178484Y-60117589D01*
X62208832Y-59984010D01*
X62211017Y-59827550D01*
X62184410Y-59693175D01*
X62132210Y-59566528D01*
X62056405Y-59452432D01*
X61959882Y-59355233D01*
X61846318Y-59278633D01*
X61720039Y-59225550D01*
X61585853Y-59198006D01*
X61448874Y-59197050D01*
X61314317Y-59222718D01*
X61187309Y-59274032D01*
X61072686Y-59349039D01*
X60974816Y-59444881D01*
X60897425Y-59557908D01*
X60843462Y-59683814D01*
X60814981Y-59817803D01*
X60813069Y-59954773D01*
X25062067Y-59954773D01*
X23482907Y-57962370D01*
X23095590Y-57208732D01*
X51624582Y-57208732D01*
X51649310Y-57343464D01*
X51699736Y-57470828D01*
X51773941Y-57585971D01*
X51869098Y-57684509D01*
X51981581Y-57762687D01*
X52107107Y-57817528D01*
X52240895Y-57846943D01*
X52377848Y-57849811D01*
X52512749Y-57826025D01*
X52640462Y-57776488D01*
X52756120Y-57703089D01*
X52855320Y-57608623D01*
X52934281Y-57496688D01*
X52989997Y-57371548D01*
X53020345Y-57237969D01*
X53022530Y-57081509D01*
X52995923Y-56947134D01*
X52943723Y-56820487D01*
X52867918Y-56706391D01*
X52771395Y-56609192D01*
X52657831Y-56532592D01*
X52531552Y-56479509D01*
X52397366Y-56451965D01*
X52260387Y-56451009D01*
X52125830Y-56476677D01*
X51998822Y-56527991D01*
X51884199Y-56602998D01*
X51786329Y-56698840D01*
X51708938Y-56811867D01*
X51654975Y-56937773D01*
X51626494Y-57071762D01*
X51624582Y-57208732D01*
X23095590Y-57208732D01*
X22118466Y-55307453D01*
X25644972Y-55307453D01*
X25669700Y-55442185D01*
X25720126Y-55569549D01*
X25794331Y-55684692D01*
X25889488Y-55783230D01*
X26001971Y-55861408D01*
X26127497Y-55916249D01*
X26261285Y-55945664D01*
X26398238Y-55948532D01*
X26453818Y-55938732D01*
X35368582Y-55938732D01*
X35393310Y-56073464D01*
X35443736Y-56200828D01*
X35517941Y-56315971D01*
X35613098Y-56414509D01*
X35725581Y-56492687D01*
X35851107Y-56547528D01*
X35984895Y-56576943D01*
X36121848Y-56579811D01*
X36256749Y-56556025D01*
X36384462Y-56506488D01*
X36500120Y-56433089D01*
X36599320Y-56338623D01*
X36678281Y-56226688D01*
X36733997Y-56101548D01*
X36764345Y-55967969D01*
X36766530Y-55811509D01*
X36739923Y-55677134D01*
X36687723Y-55550487D01*
X36611918Y-55436391D01*
X36515395Y-55339192D01*
X36401831Y-55262592D01*
X36275552Y-55209509D01*
X36141366Y-55181965D01*
X36004387Y-55181009D01*
X35869830Y-55206677D01*
X35742822Y-55257991D01*
X35628199Y-55332998D01*
X35530329Y-55428840D01*
X35452938Y-55541867D01*
X35398975Y-55667773D01*
X35370494Y-55801762D01*
X35368582Y-55938732D01*
X26453818Y-55938732D01*
X26533139Y-55924746D01*
X26660852Y-55875209D01*
X26776510Y-55801810D01*
X26875710Y-55707344D01*
X26954671Y-55595409D01*
X27010387Y-55470269D01*
X27040735Y-55336690D01*
X27042920Y-55180230D01*
X27016313Y-55045855D01*
X26964113Y-54919208D01*
X26888308Y-54805112D01*
X26791785Y-54707913D01*
X26678221Y-54631313D01*
X26551942Y-54578230D01*
X26417756Y-54550686D01*
X26280777Y-54549730D01*
X26146220Y-54575398D01*
X26019212Y-54626712D01*
X25904589Y-54701719D01*
X25806719Y-54797561D01*
X25729328Y-54910588D01*
X25675365Y-55036494D01*
X25646884Y-55170483D01*
X25644972Y-55307453D01*
X22118466Y-55307453D01*
X21632296Y-54361470D01*
X22950770Y-54361470D01*
X22975498Y-54496202D01*
X23025924Y-54623566D01*
X23100129Y-54738709D01*
X23195286Y-54837247D01*
X23307769Y-54915425D01*
X23433295Y-54970266D01*
X23567083Y-54999681D01*
X23704036Y-55002549D01*
X23838937Y-54978763D01*
X23966650Y-54929226D01*
X24082308Y-54855827D01*
X24181508Y-54761361D01*
X24260469Y-54649426D01*
X24310795Y-54536392D01*
X42163166Y-54536392D01*
X42185646Y-54658876D01*
X42231488Y-54774661D01*
X42289639Y-54864895D01*
X42239853Y-54937606D01*
X42190796Y-55052066D01*
X42164905Y-55173875D01*
X42163166Y-55298392D01*
X42185646Y-55420876D01*
X42231488Y-55536661D01*
X42298947Y-55641337D01*
X42385453Y-55730916D01*
X42487710Y-55801987D01*
X42601825Y-55851843D01*
X42723450Y-55878583D01*
X42847952Y-55881191D01*
X42970590Y-55859567D01*
X43086692Y-55814534D01*
X43191836Y-55747808D01*
X43282017Y-55661929D01*
X43353800Y-55560170D01*
X43404451Y-55446407D01*
X43432041Y-55324972D01*
X43434027Y-55182735D01*
X43409839Y-55060577D01*
X43362384Y-54945443D01*
X43307831Y-54863335D01*
X43353800Y-54798170D01*
X43404451Y-54684407D01*
X43432041Y-54562972D01*
X43434027Y-54420735D01*
X43409839Y-54298577D01*
X43362384Y-54183443D01*
X43293470Y-54079720D01*
X43205722Y-53991357D01*
X43102482Y-53921721D01*
X42987683Y-53873464D01*
X42865697Y-53848423D01*
X42741170Y-53847554D01*
X42618846Y-53870889D01*
X42503384Y-53917538D01*
X42399182Y-53985726D01*
X42310208Y-54072855D01*
X42239853Y-54175606D01*
X42190796Y-54290066D01*
X42164905Y-54411875D01*
X42163166Y-54536392D01*
X24310795Y-54536392D01*
X24316185Y-54524286D01*
X24346533Y-54390707D01*
X24348718Y-54234247D01*
X24322111Y-54099872D01*
X24269911Y-53973225D01*
X24194106Y-53859129D01*
X24097583Y-53761930D01*
X23984019Y-53685330D01*
X23857740Y-53632247D01*
X23723554Y-53604703D01*
X23586575Y-53603747D01*
X23452018Y-53629415D01*
X23325010Y-53680729D01*
X23210387Y-53755736D01*
X23112517Y-53851578D01*
X23035126Y-53964605D01*
X22981163Y-54090511D01*
X22952682Y-54224500D01*
X22950770Y-54361470D01*
X21632296Y-54361470D01*
X21257655Y-53632499D01*
X20827988Y-52134071D01*
X31494998Y-52134071D01*
X31521974Y-52281052D01*
X31576985Y-52419994D01*
X31657936Y-52545605D01*
X31761743Y-52653100D01*
X31884452Y-52738385D01*
X32021390Y-52798212D01*
X32167340Y-52830301D01*
X32316743Y-52833430D01*
X32463908Y-52807481D01*
X32603231Y-52753441D01*
X32729404Y-52673370D01*
X32837621Y-52570316D01*
X32923761Y-52448205D01*
X32984542Y-52311688D01*
X32998468Y-52250392D01*
X41655166Y-52250392D01*
X41677646Y-52372876D01*
X41723488Y-52488661D01*
X41790947Y-52593337D01*
X41877453Y-52682916D01*
X41979710Y-52753987D01*
X42093825Y-52803843D01*
X42215450Y-52830583D01*
X42339952Y-52833191D01*
X42462590Y-52811567D01*
X42578692Y-52766534D01*
X42683836Y-52699808D01*
X42774017Y-52613929D01*
X42845800Y-52512170D01*
X42896451Y-52398407D01*
X42924041Y-52276972D01*
X42926027Y-52134735D01*
X42901839Y-52012577D01*
X42854384Y-51897443D01*
X42785470Y-51793720D01*
X42697722Y-51705357D01*
X42594482Y-51635721D01*
X42479683Y-51587464D01*
X42357697Y-51562423D01*
X42233170Y-51561554D01*
X42110846Y-51584889D01*
X41995384Y-51631538D01*
X41891182Y-51699726D01*
X41802208Y-51786855D01*
X41731853Y-51889606D01*
X41682796Y-52004066D01*
X41656905Y-52125875D01*
X41655166Y-52250392D01*
X32998468Y-52250392D01*
X33017649Y-52165966D01*
X33020033Y-51995282D01*
X32991007Y-51848692D01*
X32934061Y-51710532D01*
X32851365Y-51586063D01*
X32746067Y-51480028D01*
X32622179Y-51396465D01*
X32484420Y-51338556D01*
X32338036Y-51308508D01*
X32188604Y-51307464D01*
X32041815Y-51335466D01*
X31903260Y-51391445D01*
X31778218Y-51473271D01*
X31671450Y-51577826D01*
X31587023Y-51701127D01*
X31528154Y-51838479D01*
X31497085Y-51984650D01*
X31494998Y-52134071D01*
X20827988Y-52134071D01*
X20571541Y-51239732D01*
X36003582Y-51239732D01*
X36028310Y-51374464D01*
X36078736Y-51501828D01*
X36152941Y-51616971D01*
X36248098Y-51715509D01*
X36360581Y-51793687D01*
X36486107Y-51848528D01*
X36619895Y-51877943D01*
X36756848Y-51880811D01*
X36891749Y-51857025D01*
X37019462Y-51807488D01*
X37135120Y-51734089D01*
X37234320Y-51639623D01*
X37313281Y-51527688D01*
X37368997Y-51402548D01*
X37399345Y-51268969D01*
X37401530Y-51112509D01*
X37374923Y-50978134D01*
X37327910Y-50864071D01*
X40003998Y-50864071D01*
X40030974Y-51011052D01*
X40085985Y-51149994D01*
X40166936Y-51275605D01*
X40270743Y-51383100D01*
X40393452Y-51468385D01*
X40530390Y-51528212D01*
X40676340Y-51560301D01*
X40825743Y-51563430D01*
X40972908Y-51537481D01*
X41071934Y-51499071D01*
X52195998Y-51499071D01*
X52222974Y-51646052D01*
X52277985Y-51784994D01*
X52358936Y-51910605D01*
X52462743Y-52018100D01*
X52585452Y-52103385D01*
X52722390Y-52163212D01*
X52868340Y-52195301D01*
X53017743Y-52198430D01*
X53164908Y-52172481D01*
X53304231Y-52118441D01*
X53430404Y-52038370D01*
X53538621Y-51935316D01*
X53624761Y-51813205D01*
X53685542Y-51676688D01*
X53698254Y-51620732D01*
X55688582Y-51620732D01*
X55713310Y-51755464D01*
X55763736Y-51882828D01*
X55837941Y-51997971D01*
X55933098Y-52096509D01*
X56045581Y-52174687D01*
X56171107Y-52229528D01*
X56304895Y-52258943D01*
X56441848Y-52261811D01*
X56511771Y-52249482D01*
X65425208Y-52249482D01*
X65449936Y-52384214D01*
X65500362Y-52511578D01*
X65574567Y-52626721D01*
X65669724Y-52725259D01*
X65782207Y-52803437D01*
X65907733Y-52858278D01*
X66041521Y-52887693D01*
X66178474Y-52890561D01*
X66313375Y-52866775D01*
X66441088Y-52817238D01*
X66556746Y-52743839D01*
X66655946Y-52649373D01*
X66734907Y-52537438D01*
X66790623Y-52412298D01*
X66820971Y-52278719D01*
X66823156Y-52122259D01*
X66796549Y-51987884D01*
X66744349Y-51861237D01*
X66668544Y-51747141D01*
X66572021Y-51649942D01*
X66458457Y-51573342D01*
X66332178Y-51520259D01*
X66197992Y-51492715D01*
X66061013Y-51491759D01*
X65926456Y-51517427D01*
X65799448Y-51568741D01*
X65684825Y-51643748D01*
X65586955Y-51739590D01*
X65509564Y-51852617D01*
X65455601Y-51978523D01*
X65427120Y-52112512D01*
X65425208Y-52249482D01*
X56511771Y-52249482D01*
X56576749Y-52238025D01*
X56704462Y-52188488D01*
X56820120Y-52115089D01*
X56919320Y-52020623D01*
X56998281Y-51908688D01*
X57053997Y-51783548D01*
X57084345Y-51649969D01*
X57086530Y-51493509D01*
X57059923Y-51359134D01*
X57007723Y-51232487D01*
X56931918Y-51118391D01*
X56835395Y-51021192D01*
X56721831Y-50944592D01*
X56595552Y-50891509D01*
X56461366Y-50863965D01*
X56324387Y-50863009D01*
X56189830Y-50888677D01*
X56062822Y-50939991D01*
X55948199Y-51014998D01*
X55850329Y-51110840D01*
X55772938Y-51223867D01*
X55718975Y-51349773D01*
X55690494Y-51483762D01*
X55688582Y-51620732D01*
X53698254Y-51620732D01*
X53718649Y-51530966D01*
X53721033Y-51360282D01*
X53692007Y-51213692D01*
X53635061Y-51075532D01*
X53552365Y-50951063D01*
X53447067Y-50845028D01*
X53323179Y-50761465D01*
X53185420Y-50703556D01*
X53039036Y-50673508D01*
X52889604Y-50672464D01*
X52742815Y-50700466D01*
X52604260Y-50756445D01*
X52479218Y-50838271D01*
X52372450Y-50942826D01*
X52288023Y-51066127D01*
X52229154Y-51203479D01*
X52198085Y-51349650D01*
X52195998Y-51499071D01*
X41071934Y-51499071D01*
X41112231Y-51483441D01*
X41238404Y-51403370D01*
X41346621Y-51300316D01*
X41432761Y-51178205D01*
X41493542Y-51041688D01*
X41526649Y-50895966D01*
X41529033Y-50725282D01*
X41500007Y-50578692D01*
X41443061Y-50440532D01*
X41360365Y-50316063D01*
X41255067Y-50210028D01*
X41131179Y-50126465D01*
X40993420Y-50068556D01*
X40847036Y-50038508D01*
X40697604Y-50037464D01*
X40550815Y-50065466D01*
X40412260Y-50121445D01*
X40287218Y-50203271D01*
X40180450Y-50307826D01*
X40096023Y-50431127D01*
X40037154Y-50568479D01*
X40006085Y-50714650D01*
X40003998Y-50864071D01*
X37327910Y-50864071D01*
X37322723Y-50851487D01*
X37246918Y-50737391D01*
X37150395Y-50640192D01*
X37036831Y-50563592D01*
X36910552Y-50510509D01*
X36776366Y-50482965D01*
X36639387Y-50482009D01*
X36504830Y-50507677D01*
X36377822Y-50558991D01*
X36263199Y-50633998D01*
X36165329Y-50729840D01*
X36087938Y-50842867D01*
X36033975Y-50968773D01*
X36005494Y-51102762D01*
X36003582Y-51239732D01*
X20571541Y-51239732D01*
X20025291Y-49334732D01*
X40194582Y-49334732D01*
X40219310Y-49469464D01*
X40269736Y-49596828D01*
X40343941Y-49711971D01*
X40439098Y-49810509D01*
X40551581Y-49888687D01*
X40677107Y-49943528D01*
X40810895Y-49972943D01*
X40947848Y-49975811D01*
X41082749Y-49952025D01*
X41210462Y-49902488D01*
X41326120Y-49829089D01*
X41425320Y-49734623D01*
X41504281Y-49622688D01*
X41519399Y-49588732D01*
X54164582Y-49588732D01*
X54189310Y-49723464D01*
X54239736Y-49850828D01*
X54313941Y-49965971D01*
X54409098Y-50064509D01*
X54521581Y-50142687D01*
X54647107Y-50197528D01*
X54780895Y-50226943D01*
X54917848Y-50229811D01*
X55052749Y-50206025D01*
X55180462Y-50156488D01*
X55296120Y-50083089D01*
X55395320Y-49988623D01*
X55451821Y-49908527D01*
X58969053Y-49908527D01*
X59021483Y-50194194D01*
X59128401Y-50464238D01*
X59285734Y-50708371D01*
X59487490Y-50917295D01*
X59725984Y-51083053D01*
X59992131Y-51199330D01*
X60275795Y-51261698D01*
X60566171Y-51267780D01*
X60852197Y-51217346D01*
X61122981Y-51112316D01*
X61368206Y-50956691D01*
X61578534Y-50756398D01*
X61745953Y-50519067D01*
X61864085Y-50253738D01*
X61928431Y-49970517D01*
X61932551Y-49675483D01*
X64189030Y-49675483D01*
X64213758Y-49810215D01*
X64264184Y-49937579D01*
X64338389Y-50052722D01*
X64433546Y-50151260D01*
X64546029Y-50229438D01*
X64671555Y-50284279D01*
X64805343Y-50313694D01*
X64942296Y-50316562D01*
X65077197Y-50292776D01*
X65204910Y-50243239D01*
X65320568Y-50169840D01*
X65419768Y-50075374D01*
X65498729Y-49963439D01*
X65554445Y-49838299D01*
X65584793Y-49704720D01*
X65586978Y-49548260D01*
X65560371Y-49413885D01*
X65508171Y-49287238D01*
X65432366Y-49173142D01*
X65335843Y-49075943D01*
X65222279Y-48999343D01*
X65096000Y-48946260D01*
X64961814Y-48918716D01*
X64824835Y-48917760D01*
X64690278Y-48943428D01*
X64563270Y-48994742D01*
X64448647Y-49069749D01*
X64350777Y-49165591D01*
X64273386Y-49278618D01*
X64219423Y-49404524D01*
X64190942Y-49538513D01*
X64189030Y-49675483D01*
X61932551Y-49675483D01*
X61933064Y-49638780D01*
X61876650Y-49353873D01*
X61765973Y-49085348D01*
X61605246Y-48843435D01*
X61400593Y-48637348D01*
X61159808Y-48474937D01*
X60892063Y-48362387D01*
X60607556Y-48303986D01*
X60317124Y-48301959D01*
X60031829Y-48356382D01*
X59762539Y-48465182D01*
X59519510Y-48624216D01*
X59311999Y-48827425D01*
X59147910Y-49067071D01*
X59033494Y-49334023D01*
X58973108Y-49618116D01*
X58969053Y-49908527D01*
X55451821Y-49908527D01*
X55474281Y-49876688D01*
X55529997Y-49751548D01*
X55560345Y-49617969D01*
X55562530Y-49461509D01*
X55535923Y-49327134D01*
X55483723Y-49200487D01*
X55407918Y-49086391D01*
X55311395Y-48989192D01*
X55197831Y-48912592D01*
X55071552Y-48859509D01*
X54937366Y-48831965D01*
X54800387Y-48831009D01*
X54665830Y-48856677D01*
X54538822Y-48907991D01*
X54424199Y-48982998D01*
X54326329Y-49078840D01*
X54248938Y-49191867D01*
X54194975Y-49317773D01*
X54166494Y-49451762D01*
X54164582Y-49588732D01*
X41519399Y-49588732D01*
X41559997Y-49497548D01*
X41590345Y-49363969D01*
X41592530Y-49207509D01*
X41565923Y-49073134D01*
X41513723Y-48946487D01*
X41437918Y-48832391D01*
X41341395Y-48735192D01*
X41227831Y-48658592D01*
X41101552Y-48605509D01*
X40967366Y-48577965D01*
X40830387Y-48577009D01*
X40695830Y-48602677D01*
X40568822Y-48653991D01*
X40454199Y-48728998D01*
X40356329Y-48824840D01*
X40278938Y-48937867D01*
X40224975Y-49063773D01*
X40196494Y-49197762D01*
X40194582Y-49334732D01*
X20025291Y-49334732D01*
X19915793Y-48952870D01*
X19840766Y-48059392D01*
X41401166Y-48059392D01*
X41423646Y-48181876D01*
X41469488Y-48297661D01*
X41536947Y-48402337D01*
X41623453Y-48491916D01*
X41725710Y-48562987D01*
X41839825Y-48612843D01*
X41961450Y-48639583D01*
X42085952Y-48642191D01*
X42208590Y-48620567D01*
X42324692Y-48575534D01*
X42429836Y-48508808D01*
X42520017Y-48422929D01*
X42591800Y-48321170D01*
X42642451Y-48207407D01*
X42670041Y-48085972D01*
X42672027Y-47943735D01*
X42647839Y-47821577D01*
X42641168Y-47805392D01*
X44068166Y-47805392D01*
X44090646Y-47927876D01*
X44136488Y-48043661D01*
X44203947Y-48148337D01*
X44290453Y-48237916D01*
X44392710Y-48308987D01*
X44506825Y-48358843D01*
X44628450Y-48385583D01*
X44752952Y-48388191D01*
X44875590Y-48366567D01*
X44991692Y-48321534D01*
X45096836Y-48254808D01*
X45187017Y-48168929D01*
X45258800Y-48067170D01*
X45309451Y-47953407D01*
X45337041Y-47831972D01*
X45337412Y-47805392D01*
X48640166Y-47805392D01*
X48662646Y-47927876D01*
X48708488Y-48043661D01*
X48775947Y-48148337D01*
X48862453Y-48237916D01*
X48964710Y-48308987D01*
X49078825Y-48358843D01*
X49200450Y-48385583D01*
X49324952Y-48388191D01*
X49447590Y-48366567D01*
X49563692Y-48321534D01*
X49576521Y-48313392D01*
X52958166Y-48313392D01*
X52980646Y-48435876D01*
X53026488Y-48551661D01*
X53093947Y-48656337D01*
X53180453Y-48745916D01*
X53282710Y-48816987D01*
X53396825Y-48866843D01*
X53518450Y-48893583D01*
X53642952Y-48896191D01*
X53765590Y-48874567D01*
X53881692Y-48829534D01*
X53986836Y-48762808D01*
X54077017Y-48676929D01*
X54148800Y-48575170D01*
X54199451Y-48461407D01*
X54227041Y-48339972D01*
X54229027Y-48197735D01*
X54204839Y-48075577D01*
X54157384Y-47960443D01*
X54088470Y-47856720D01*
X54000722Y-47768357D01*
X53897482Y-47698721D01*
X53782683Y-47650464D01*
X53660697Y-47625423D01*
X53536170Y-47624554D01*
X53413846Y-47647889D01*
X53298384Y-47694538D01*
X53194182Y-47762726D01*
X53105208Y-47849855D01*
X53034853Y-47952606D01*
X52985796Y-48067066D01*
X52959905Y-48188875D01*
X52958166Y-48313392D01*
X49576521Y-48313392D01*
X49668836Y-48254808D01*
X49759017Y-48168929D01*
X49830800Y-48067170D01*
X49881451Y-47953407D01*
X49909041Y-47831972D01*
X49911027Y-47689735D01*
X49886839Y-47567577D01*
X49839384Y-47452443D01*
X49770470Y-47348720D01*
X49682722Y-47260357D01*
X49579482Y-47190721D01*
X49464683Y-47142464D01*
X49342697Y-47117423D01*
X49218170Y-47116554D01*
X49095846Y-47139889D01*
X48980384Y-47186538D01*
X48876182Y-47254726D01*
X48787208Y-47341855D01*
X48716853Y-47444606D01*
X48667796Y-47559066D01*
X48641905Y-47680875D01*
X48640166Y-47805392D01*
X45337412Y-47805392D01*
X45339027Y-47689735D01*
X45314839Y-47567577D01*
X45267384Y-47452443D01*
X45198470Y-47348720D01*
X45110722Y-47260357D01*
X45007482Y-47190721D01*
X44892683Y-47142464D01*
X44770697Y-47117423D01*
X44646170Y-47116554D01*
X44523846Y-47139889D01*
X44408384Y-47186538D01*
X44304182Y-47254726D01*
X44215208Y-47341855D01*
X44144853Y-47444606D01*
X44095796Y-47559066D01*
X44069905Y-47680875D01*
X44068166Y-47805392D01*
X42641168Y-47805392D01*
X42600384Y-47706443D01*
X42531470Y-47602720D01*
X42443722Y-47514357D01*
X42340482Y-47444721D01*
X42225683Y-47396464D01*
X42103697Y-47371423D01*
X41979170Y-47370554D01*
X41856846Y-47393889D01*
X41741384Y-47440538D01*
X41637182Y-47508726D01*
X41548208Y-47595855D01*
X41477853Y-47698606D01*
X41428796Y-47813066D01*
X41402905Y-47934875D01*
X41401166Y-48059392D01*
X19840766Y-48059392D01*
X19755899Y-47048732D01*
X60768582Y-47048732D01*
X60793310Y-47183464D01*
X60843736Y-47310828D01*
X60917941Y-47425971D01*
X61013098Y-47524509D01*
X61125581Y-47602687D01*
X61251107Y-47657528D01*
X61384895Y-47686943D01*
X61521848Y-47689811D01*
X61656749Y-47666025D01*
X61784462Y-47616488D01*
X61900120Y-47543089D01*
X61999320Y-47448623D01*
X62078281Y-47336688D01*
X62133997Y-47211548D01*
X62164345Y-47077969D01*
X62166530Y-46921509D01*
X62139923Y-46787134D01*
X62087723Y-46660487D01*
X62011918Y-46546391D01*
X61915395Y-46449192D01*
X61801831Y-46372592D01*
X61675552Y-46319509D01*
X61541366Y-46291965D01*
X61404387Y-46291009D01*
X61269830Y-46316677D01*
X61142822Y-46367991D01*
X61028199Y-46442998D01*
X60930329Y-46538840D01*
X60852938Y-46651867D01*
X60798975Y-46777773D01*
X60770494Y-46911762D01*
X60768582Y-47048732D01*
X19755899Y-47048732D01*
X19638589Y-45651732D01*
X20763582Y-45651732D01*
X20788310Y-45786464D01*
X20838736Y-45913828D01*
X20912941Y-46028971D01*
X21008098Y-46127509D01*
X21120581Y-46205687D01*
X21246107Y-46260528D01*
X21379895Y-46289943D01*
X21516848Y-46292811D01*
X21651749Y-46269025D01*
X21779462Y-46219488D01*
X21895120Y-46146089D01*
X21994320Y-46051623D01*
X22073281Y-45939688D01*
X22128997Y-45814548D01*
X22159345Y-45680969D01*
X22160714Y-45582892D01*
X48005166Y-45582892D01*
X48027646Y-45705376D01*
X48073488Y-45821161D01*
X48140947Y-45925837D01*
X48227453Y-46015416D01*
X48329710Y-46086487D01*
X48443825Y-46136343D01*
X48565450Y-46163083D01*
X48689952Y-46165691D01*
X48754032Y-46154392D01*
X49529166Y-46154392D01*
X49551646Y-46276876D01*
X49597488Y-46392661D01*
X49664947Y-46497337D01*
X49751453Y-46586916D01*
X49853710Y-46657987D01*
X49967825Y-46707843D01*
X50089450Y-46734583D01*
X50213952Y-46737191D01*
X50336590Y-46715567D01*
X50452692Y-46670534D01*
X50557836Y-46603808D01*
X50648017Y-46517929D01*
X50719800Y-46416170D01*
X50770451Y-46302407D01*
X50798041Y-46180972D01*
X50800027Y-46038735D01*
X50775839Y-45916577D01*
X50728384Y-45801443D01*
X50659470Y-45697720D01*
X50571722Y-45609357D01*
X50468482Y-45539721D01*
X50353683Y-45491464D01*
X50231697Y-45466423D01*
X50107170Y-45465554D01*
X49984846Y-45488889D01*
X49869384Y-45535538D01*
X49765182Y-45603726D01*
X49676208Y-45690855D01*
X49605853Y-45793606D01*
X49556796Y-45908066D01*
X49530905Y-46029875D01*
X49529166Y-46154392D01*
X48754032Y-46154392D01*
X48812590Y-46144067D01*
X48928692Y-46099034D01*
X49033836Y-46032308D01*
X49124017Y-45946429D01*
X49195800Y-45844670D01*
X49246451Y-45730907D01*
X49274041Y-45609472D01*
X49276027Y-45467235D01*
X49251839Y-45345077D01*
X49204384Y-45229943D01*
X49135470Y-45126220D01*
X49047722Y-45037857D01*
X48944482Y-44968221D01*
X48829683Y-44919964D01*
X48707697Y-44894923D01*
X48583170Y-44894054D01*
X48460846Y-44917389D01*
X48345384Y-44964038D01*
X48241182Y-45032226D01*
X48152208Y-45119355D01*
X48081853Y-45222106D01*
X48032796Y-45336566D01*
X48006905Y-45458375D01*
X48005166Y-45582892D01*
X22160714Y-45582892D01*
X22161530Y-45524509D01*
X22134923Y-45390134D01*
X22082723Y-45263487D01*
X22006918Y-45149391D01*
X21910395Y-45052192D01*
X21796831Y-44975592D01*
X21670552Y-44922509D01*
X21536366Y-44894965D01*
X21399387Y-44894009D01*
X21264830Y-44919677D01*
X21137822Y-44970991D01*
X21023199Y-45045998D01*
X20925329Y-45141840D01*
X20847938Y-45254867D01*
X20793975Y-45380773D01*
X20765494Y-45514762D01*
X20763582Y-45651732D01*
X19638589Y-45651732D01*
X19532393Y-44387071D01*
X35558998Y-44387071D01*
X35585974Y-44534052D01*
X35640985Y-44672994D01*
X35721936Y-44798605D01*
X35825743Y-44906100D01*
X35948452Y-44991385D01*
X36085390Y-45051212D01*
X36231340Y-45083301D01*
X36380743Y-45086430D01*
X36527908Y-45060481D01*
X36667231Y-45006441D01*
X36793404Y-44926370D01*
X36901621Y-44823316D01*
X36987761Y-44701205D01*
X37048542Y-44564688D01*
X37081649Y-44418966D01*
X37082169Y-44381732D01*
X37527582Y-44381732D01*
X37552310Y-44516464D01*
X37602736Y-44643828D01*
X37676941Y-44758971D01*
X37772098Y-44857509D01*
X37884581Y-44935687D01*
X38010107Y-44990528D01*
X38143895Y-45019943D01*
X38280848Y-45022811D01*
X38415749Y-44999025D01*
X38543462Y-44949488D01*
X38659120Y-44876089D01*
X38758320Y-44781623D01*
X38837281Y-44669688D01*
X38892997Y-44544548D01*
X38923345Y-44410969D01*
X38925530Y-44254509D01*
X38898923Y-44120134D01*
X38846723Y-43993487D01*
X38770918Y-43879391D01*
X38674395Y-43782192D01*
X38613907Y-43741392D01*
X48894166Y-43741392D01*
X48916646Y-43863876D01*
X48962488Y-43979661D01*
X49020639Y-44069895D01*
X48970853Y-44142606D01*
X48921796Y-44257066D01*
X48895905Y-44378875D01*
X48894166Y-44503392D01*
X48916646Y-44625876D01*
X48962488Y-44741661D01*
X49029947Y-44846337D01*
X49116453Y-44935916D01*
X49218710Y-45006987D01*
X49332825Y-45056843D01*
X49454450Y-45083583D01*
X49578952Y-45086191D01*
X49701590Y-45064567D01*
X49817692Y-45019534D01*
X49922836Y-44952808D01*
X50013017Y-44866929D01*
X50084800Y-44765170D01*
X50135451Y-44651407D01*
X50163041Y-44529972D01*
X50165027Y-44387735D01*
X50140839Y-44265577D01*
X50136369Y-44254732D01*
X58736582Y-44254732D01*
X58761310Y-44389464D01*
X58811736Y-44516828D01*
X58885941Y-44631971D01*
X58981098Y-44730509D01*
X59093581Y-44808687D01*
X59219107Y-44863528D01*
X59352895Y-44892943D01*
X59489848Y-44895811D01*
X59624749Y-44872025D01*
X59752462Y-44822488D01*
X59868120Y-44749089D01*
X59967320Y-44654623D01*
X60046281Y-44542688D01*
X60101997Y-44417548D01*
X60132345Y-44283969D01*
X60134530Y-44127509D01*
X60107923Y-43993134D01*
X60055723Y-43866487D01*
X59979918Y-43752391D01*
X59896675Y-43668565D01*
X59995120Y-43606089D01*
X60094320Y-43511623D01*
X60173281Y-43399688D01*
X60188399Y-43365732D01*
X66737582Y-43365732D01*
X66762310Y-43500464D01*
X66812736Y-43627828D01*
X66886941Y-43742971D01*
X66982098Y-43841509D01*
X67094581Y-43919687D01*
X67220107Y-43974528D01*
X67353895Y-44003943D01*
X67490848Y-44006811D01*
X67625749Y-43983025D01*
X67753462Y-43933488D01*
X67869120Y-43860089D01*
X67968320Y-43765623D01*
X68047281Y-43653688D01*
X68102997Y-43528548D01*
X68133345Y-43394969D01*
X68135530Y-43238509D01*
X68108923Y-43104134D01*
X68056723Y-42977487D01*
X67980918Y-42863391D01*
X67884395Y-42766192D01*
X67770831Y-42689592D01*
X67644552Y-42636509D01*
X67510366Y-42608965D01*
X67373387Y-42608009D01*
X67238830Y-42633677D01*
X67111822Y-42684991D01*
X66997199Y-42759998D01*
X66899329Y-42855840D01*
X66821938Y-42968867D01*
X66767975Y-43094773D01*
X66739494Y-43228762D01*
X66737582Y-43365732D01*
X60188399Y-43365732D01*
X60228997Y-43274548D01*
X60259345Y-43140969D01*
X60261530Y-42984509D01*
X60234923Y-42850134D01*
X60182723Y-42723487D01*
X60106918Y-42609391D01*
X60010395Y-42512192D01*
X59896831Y-42435592D01*
X59770552Y-42382509D01*
X59636366Y-42354965D01*
X59499387Y-42354009D01*
X59364830Y-42379677D01*
X59237822Y-42430991D01*
X59123199Y-42505998D01*
X59025329Y-42601840D01*
X58947938Y-42714867D01*
X58893975Y-42840773D01*
X58865494Y-42974762D01*
X58863582Y-43111732D01*
X58888310Y-43246464D01*
X58938736Y-43373828D01*
X59012941Y-43488971D01*
X59101154Y-43580318D01*
X58996199Y-43648998D01*
X58898329Y-43744840D01*
X58820938Y-43857867D01*
X58766975Y-43983773D01*
X58738494Y-44117762D01*
X58736582Y-44254732D01*
X50136369Y-44254732D01*
X50093384Y-44150443D01*
X50038831Y-44068335D01*
X50084800Y-44003170D01*
X50135451Y-43889407D01*
X50163041Y-43767972D01*
X50165027Y-43625735D01*
X50148992Y-43544752D01*
X50216450Y-43559583D01*
X50340952Y-43562191D01*
X50463590Y-43540567D01*
X50579692Y-43495534D01*
X50684836Y-43428808D01*
X50775017Y-43342929D01*
X50846800Y-43241170D01*
X50897451Y-43127407D01*
X50925041Y-43005972D01*
X50927027Y-42863735D01*
X50902839Y-42741577D01*
X50855384Y-42626443D01*
X50786470Y-42522720D01*
X50698722Y-42434357D01*
X50595482Y-42364721D01*
X50480683Y-42316464D01*
X50358697Y-42291423D01*
X50234170Y-42290554D01*
X50111846Y-42313889D01*
X49996384Y-42360538D01*
X49892182Y-42428726D01*
X49803208Y-42515855D01*
X49732853Y-42618606D01*
X49683796Y-42733066D01*
X49657905Y-42854875D01*
X49656166Y-42979392D01*
X49672613Y-43069007D01*
X49596697Y-43053423D01*
X49472170Y-43052554D01*
X49349846Y-43075889D01*
X49234384Y-43122538D01*
X49130182Y-43190726D01*
X49041208Y-43277855D01*
X48970853Y-43380606D01*
X48921796Y-43495066D01*
X48895905Y-43616875D01*
X48894166Y-43741392D01*
X38613907Y-43741392D01*
X38560831Y-43705592D01*
X38434552Y-43652509D01*
X38300366Y-43624965D01*
X38163387Y-43624009D01*
X38028830Y-43649677D01*
X37901822Y-43700991D01*
X37787199Y-43775998D01*
X37689329Y-43871840D01*
X37611938Y-43984867D01*
X37557975Y-44110773D01*
X37529494Y-44244762D01*
X37527582Y-44381732D01*
X37082169Y-44381732D01*
X37084033Y-44248282D01*
X37055007Y-44101692D01*
X36998061Y-43963532D01*
X36915365Y-43839063D01*
X36810067Y-43733028D01*
X36686179Y-43649465D01*
X36548420Y-43591556D01*
X36402036Y-43561508D01*
X36252604Y-43560464D01*
X36105815Y-43588466D01*
X35967260Y-43644445D01*
X35842218Y-43726271D01*
X35735450Y-43830826D01*
X35651023Y-43954127D01*
X35592154Y-44091479D01*
X35561085Y-44237650D01*
X35558998Y-44387071D01*
X19532393Y-44387071D01*
X19508431Y-44101727D01*
X19776774Y-41709392D01*
X38099166Y-41709392D01*
X38121646Y-41831876D01*
X38167488Y-41947661D01*
X38234947Y-42052337D01*
X38321453Y-42141916D01*
X38423710Y-42212987D01*
X38537825Y-42262843D01*
X38659450Y-42289583D01*
X38783952Y-42292191D01*
X38906590Y-42270567D01*
X39022692Y-42225534D01*
X39127836Y-42158808D01*
X39218017Y-42072929D01*
X39289800Y-41971170D01*
X39340451Y-41857407D01*
X39368041Y-41735972D01*
X39370027Y-41593735D01*
X39345839Y-41471577D01*
X39341369Y-41460732D01*
X45274582Y-41460732D01*
X45299310Y-41595464D01*
X45349736Y-41722828D01*
X45423941Y-41837971D01*
X45519098Y-41936509D01*
X45631581Y-42014687D01*
X45757107Y-42069528D01*
X45890895Y-42098943D01*
X46027848Y-42101811D01*
X46162749Y-42078025D01*
X46290462Y-42028488D01*
X46406120Y-41955089D01*
X46505320Y-41860623D01*
X46584281Y-41748688D01*
X46599399Y-41714732D01*
X50608582Y-41714732D01*
X50633310Y-41849464D01*
X50683736Y-41976828D01*
X50757941Y-42091971D01*
X50853098Y-42190509D01*
X50965581Y-42268687D01*
X51091107Y-42323528D01*
X51224895Y-42352943D01*
X51361848Y-42355811D01*
X51430030Y-42343789D01*
X51376225Y-42378998D01*
X51278355Y-42474840D01*
X51200964Y-42587867D01*
X51147001Y-42713773D01*
X51118520Y-42847762D01*
X51116608Y-42984732D01*
X51141336Y-43119464D01*
X51191762Y-43246828D01*
X51265967Y-43361971D01*
X51361124Y-43460509D01*
X51473607Y-43538687D01*
X51599133Y-43593528D01*
X51732921Y-43622943D01*
X51869874Y-43625811D01*
X52004775Y-43602025D01*
X52132488Y-43552488D01*
X52248146Y-43479089D01*
X52347346Y-43384623D01*
X52426307Y-43272688D01*
X52482023Y-43147548D01*
X52512371Y-43013969D01*
X52514556Y-42857509D01*
X52487949Y-42723134D01*
X52435749Y-42596487D01*
X52359944Y-42482391D01*
X52263421Y-42385192D01*
X52149857Y-42308592D01*
X52023578Y-42255509D01*
X51889392Y-42227965D01*
X51752413Y-42227009D01*
X51694464Y-42238063D01*
X51740120Y-42209089D01*
X51839320Y-42114623D01*
X51918281Y-42002688D01*
X51931618Y-41972731D01*
X60256583Y-41972731D01*
X60281311Y-42107463D01*
X60331737Y-42234827D01*
X60405942Y-42349970D01*
X60501099Y-42448508D01*
X60613582Y-42526686D01*
X60739108Y-42581527D01*
X60872896Y-42610942D01*
X61009849Y-42613810D01*
X61144750Y-42590024D01*
X61272463Y-42540487D01*
X61388121Y-42467088D01*
X61487321Y-42372622D01*
X61566282Y-42260687D01*
X61621998Y-42135547D01*
X61652346Y-42001968D01*
X61654531Y-41845508D01*
X61627924Y-41711133D01*
X61575724Y-41584486D01*
X61499919Y-41470390D01*
X61403396Y-41373191D01*
X61289832Y-41296591D01*
X61163553Y-41243508D01*
X61029367Y-41215964D01*
X60892388Y-41215008D01*
X60757831Y-41240676D01*
X60630823Y-41291990D01*
X60516200Y-41366997D01*
X60418330Y-41462839D01*
X60340939Y-41575866D01*
X60286976Y-41701772D01*
X60258495Y-41835761D01*
X60256583Y-41972731D01*
X51931618Y-41972731D01*
X51973997Y-41877548D01*
X52004345Y-41743969D01*
X52006530Y-41587509D01*
X51979923Y-41453134D01*
X51927723Y-41326487D01*
X51851918Y-41212391D01*
X51755395Y-41115192D01*
X51641831Y-41038592D01*
X51515552Y-40985509D01*
X51381366Y-40957965D01*
X51244387Y-40957009D01*
X51109830Y-40982677D01*
X50982822Y-41033991D01*
X50868199Y-41108998D01*
X50770329Y-41204840D01*
X50692938Y-41317867D01*
X50638975Y-41443773D01*
X50610494Y-41577762D01*
X50608582Y-41714732D01*
X46599399Y-41714732D01*
X46639997Y-41623548D01*
X46670345Y-41489969D01*
X46672530Y-41333509D01*
X46645923Y-41199134D01*
X46593723Y-41072487D01*
X46517918Y-40958391D01*
X46421395Y-40861192D01*
X46307831Y-40784592D01*
X46181552Y-40731509D01*
X46047366Y-40703965D01*
X45910387Y-40703009D01*
X45775830Y-40728677D01*
X45648822Y-40779991D01*
X45534199Y-40854998D01*
X45436329Y-40950840D01*
X45358938Y-41063867D01*
X45304975Y-41189773D01*
X45276494Y-41323762D01*
X45274582Y-41460732D01*
X39341369Y-41460732D01*
X39298384Y-41356443D01*
X39229470Y-41252720D01*
X39141722Y-41164357D01*
X39038482Y-41094721D01*
X38923683Y-41046464D01*
X38801697Y-41021423D01*
X38677170Y-41020554D01*
X38554846Y-41043889D01*
X38439384Y-41090538D01*
X38335182Y-41158726D01*
X38246208Y-41245855D01*
X38175853Y-41348606D01*
X38126796Y-41463066D01*
X38100905Y-41584875D01*
X38099166Y-41709392D01*
X19776774Y-41709392D01*
X20004100Y-39682732D01*
X40702582Y-39682732D01*
X40727310Y-39817464D01*
X40777736Y-39944828D01*
X40851941Y-40059971D01*
X40947098Y-40158509D01*
X41059581Y-40236687D01*
X41185107Y-40291528D01*
X41318895Y-40320943D01*
X41455848Y-40323811D01*
X41590749Y-40300025D01*
X41718462Y-40250488D01*
X41834120Y-40177089D01*
X41933320Y-40082623D01*
X41946646Y-40063732D01*
X47306582Y-40063732D01*
X47331310Y-40198464D01*
X47381736Y-40325828D01*
X47455941Y-40440971D01*
X47551098Y-40539509D01*
X47663581Y-40617687D01*
X47789107Y-40672528D01*
X47922895Y-40701943D01*
X48059848Y-40704811D01*
X48194749Y-40681025D01*
X48322462Y-40631488D01*
X48438120Y-40558089D01*
X48537320Y-40463623D01*
X48616281Y-40351688D01*
X48671997Y-40226548D01*
X48680134Y-40190732D01*
X51370582Y-40190732D01*
X51395310Y-40325464D01*
X51445736Y-40452828D01*
X51519941Y-40567971D01*
X51615098Y-40666509D01*
X51727581Y-40744687D01*
X51853107Y-40799528D01*
X51986895Y-40828943D01*
X52123848Y-40831811D01*
X52258749Y-40808025D01*
X52386462Y-40758488D01*
X52502120Y-40685089D01*
X52601320Y-40590623D01*
X52680281Y-40478688D01*
X52735997Y-40353548D01*
X52766345Y-40219969D01*
X52768530Y-40063509D01*
X52741923Y-39929134D01*
X52689723Y-39802487D01*
X52613918Y-39688391D01*
X52608299Y-39682732D01*
X55180582Y-39682732D01*
X55205310Y-39817464D01*
X55255736Y-39944828D01*
X55329941Y-40059971D01*
X55425098Y-40158509D01*
X55537581Y-40236687D01*
X55663107Y-40291528D01*
X55796895Y-40320943D01*
X55933848Y-40323811D01*
X56068749Y-40300025D01*
X56196462Y-40250488D01*
X56312120Y-40177089D01*
X56411320Y-40082623D01*
X56490281Y-39970688D01*
X56545997Y-39845548D01*
X56576345Y-39711969D01*
X56578530Y-39555509D01*
X56551923Y-39421134D01*
X56499723Y-39294487D01*
X56423918Y-39180391D01*
X56327395Y-39083192D01*
X56213831Y-39006592D01*
X56087552Y-38953509D01*
X55953366Y-38925965D01*
X55816387Y-38925009D01*
X55681830Y-38950677D01*
X55554822Y-39001991D01*
X55440199Y-39076998D01*
X55342329Y-39172840D01*
X55264938Y-39285867D01*
X55210975Y-39411773D01*
X55182494Y-39545762D01*
X55180582Y-39682732D01*
X52608299Y-39682732D01*
X52517395Y-39591192D01*
X52403831Y-39514592D01*
X52277552Y-39461509D01*
X52143366Y-39433965D01*
X52006387Y-39433009D01*
X51871830Y-39458677D01*
X51744822Y-39509991D01*
X51630199Y-39584998D01*
X51532329Y-39680840D01*
X51454938Y-39793867D01*
X51400975Y-39919773D01*
X51372494Y-40053762D01*
X51370582Y-40190732D01*
X48680134Y-40190732D01*
X48702345Y-40092969D01*
X48704530Y-39936509D01*
X48677923Y-39802134D01*
X48625723Y-39675487D01*
X48549918Y-39561391D01*
X48453395Y-39464192D01*
X48339831Y-39387592D01*
X48213552Y-39334509D01*
X48079366Y-39306965D01*
X47942387Y-39306009D01*
X47807830Y-39331677D01*
X47680822Y-39382991D01*
X47566199Y-39457998D01*
X47468329Y-39553840D01*
X47390938Y-39666867D01*
X47336975Y-39792773D01*
X47308494Y-39926762D01*
X47306582Y-40063732D01*
X41946646Y-40063732D01*
X42012281Y-39970688D01*
X42067997Y-39845548D01*
X42098345Y-39711969D01*
X42100530Y-39555509D01*
X42073923Y-39421134D01*
X42021723Y-39294487D01*
X41945918Y-39180391D01*
X41849395Y-39083192D01*
X41735831Y-39006592D01*
X41609552Y-38953509D01*
X41475366Y-38925965D01*
X41338387Y-38925009D01*
X41203830Y-38950677D01*
X41076822Y-39001991D01*
X40962199Y-39076998D01*
X40864329Y-39172840D01*
X40786938Y-39285867D01*
X40732975Y-39411773D01*
X40704494Y-39545762D01*
X40702582Y-39682732D01*
X20004100Y-39682732D01*
X20051086Y-39263851D01*
X20582212Y-37589527D01*
X28108053Y-37589527D01*
X28160483Y-37875194D01*
X28267401Y-38145238D01*
X28424734Y-38389371D01*
X28626490Y-38598295D01*
X28864984Y-38764053D01*
X29131131Y-38880330D01*
X29414795Y-38942698D01*
X29705171Y-38948780D01*
X29991197Y-38898346D01*
X30261981Y-38793316D01*
X30507206Y-38637691D01*
X30717534Y-38437398D01*
X30884953Y-38200067D01*
X31003085Y-37934738D01*
X31008689Y-37910071D01*
X35685998Y-37910071D01*
X35712974Y-38057052D01*
X35767985Y-38195994D01*
X35848936Y-38321605D01*
X35952743Y-38429100D01*
X36075452Y-38514385D01*
X36212390Y-38574212D01*
X36358340Y-38606301D01*
X36507743Y-38609430D01*
X36654908Y-38583481D01*
X36794231Y-38529441D01*
X36920404Y-38449370D01*
X37028621Y-38346316D01*
X37114761Y-38224205D01*
X37143911Y-38158732D01*
X51497582Y-38158732D01*
X51522310Y-38293464D01*
X51572736Y-38420828D01*
X51646941Y-38535971D01*
X51742098Y-38634509D01*
X51854581Y-38712687D01*
X51980107Y-38767528D01*
X52113895Y-38796943D01*
X52250848Y-38799811D01*
X52385749Y-38776025D01*
X52513462Y-38726488D01*
X52629120Y-38653089D01*
X52728320Y-38558623D01*
X52807281Y-38446688D01*
X52862997Y-38321548D01*
X52893345Y-38187969D01*
X52895530Y-38031509D01*
X52868923Y-37897134D01*
X52819710Y-37777732D01*
X60260582Y-37777732D01*
X60285310Y-37912464D01*
X60335736Y-38039828D01*
X60409941Y-38154971D01*
X60505098Y-38253509D01*
X60617581Y-38331687D01*
X60743107Y-38386528D01*
X60876895Y-38415943D01*
X61013848Y-38418811D01*
X61148749Y-38395025D01*
X61276462Y-38345488D01*
X61392120Y-38272089D01*
X61491320Y-38177623D01*
X61570281Y-38065688D01*
X61625997Y-37940548D01*
X61656345Y-37806969D01*
X61658530Y-37650509D01*
X61631923Y-37516134D01*
X61579723Y-37389487D01*
X61503918Y-37275391D01*
X61407395Y-37178192D01*
X61293831Y-37101592D01*
X61167552Y-37048509D01*
X61033366Y-37020965D01*
X60896387Y-37020009D01*
X60761830Y-37045677D01*
X60634822Y-37096991D01*
X60520199Y-37171998D01*
X60422329Y-37267840D01*
X60344938Y-37380867D01*
X60290975Y-37506773D01*
X60262494Y-37640762D01*
X60260582Y-37777732D01*
X52819710Y-37777732D01*
X52816723Y-37770487D01*
X52740918Y-37656391D01*
X52644395Y-37559192D01*
X52530831Y-37482592D01*
X52404552Y-37429509D01*
X52270366Y-37401965D01*
X52133387Y-37401009D01*
X51998830Y-37426677D01*
X51871822Y-37477991D01*
X51757199Y-37552998D01*
X51659329Y-37648840D01*
X51581938Y-37761867D01*
X51527975Y-37887773D01*
X51499494Y-38021762D01*
X51497582Y-38158732D01*
X37143911Y-38158732D01*
X37175542Y-38087688D01*
X37208649Y-37941966D01*
X37211033Y-37771282D01*
X37182007Y-37624692D01*
X37125061Y-37486532D01*
X37042365Y-37362063D01*
X36937067Y-37256028D01*
X36813179Y-37172465D01*
X36675420Y-37114556D01*
X36529036Y-37084508D01*
X36379604Y-37083464D01*
X36232815Y-37111466D01*
X36094260Y-37167445D01*
X35969218Y-37249271D01*
X35862450Y-37353826D01*
X35778023Y-37477127D01*
X35719154Y-37614479D01*
X35688085Y-37760650D01*
X35685998Y-37910071D01*
X31008689Y-37910071D01*
X31067431Y-37651517D01*
X31072064Y-37319780D01*
X31015650Y-37034873D01*
X30904973Y-36766348D01*
X30744246Y-36524435D01*
X30539593Y-36318348D01*
X30298808Y-36155937D01*
X30031063Y-36043387D01*
X29746556Y-35984986D01*
X29456124Y-35982959D01*
X29170829Y-36037382D01*
X28901539Y-36146182D01*
X28658510Y-36305216D01*
X28450999Y-36508425D01*
X28286910Y-36748071D01*
X28172494Y-37015023D01*
X28112108Y-37299116D01*
X28108053Y-37589527D01*
X20582212Y-37589527D01*
X20842822Y-36767982D01*
X22075956Y-36767982D01*
X22100684Y-36902714D01*
X22151110Y-37030078D01*
X22225315Y-37145221D01*
X22320472Y-37243759D01*
X22432955Y-37321937D01*
X22558481Y-37376778D01*
X22692269Y-37406193D01*
X22829222Y-37409061D01*
X22964123Y-37385275D01*
X23091836Y-37335738D01*
X23207494Y-37262339D01*
X23306694Y-37167873D01*
X23385655Y-37055938D01*
X23441371Y-36930798D01*
X23471719Y-36797219D01*
X23473904Y-36640759D01*
X23447297Y-36506384D01*
X23395097Y-36379737D01*
X23319292Y-36265641D01*
X23222769Y-36168442D01*
X23109205Y-36091842D01*
X22982926Y-36038759D01*
X22848740Y-36011215D01*
X22711761Y-36010259D01*
X22577204Y-36035927D01*
X22450196Y-36087241D01*
X22335573Y-36162248D01*
X22237703Y-36258090D01*
X22160312Y-36371117D01*
X22106349Y-36497023D01*
X22077868Y-36631012D01*
X22075956Y-36767982D01*
X20842822Y-36767982D01*
X21126812Y-35872732D01*
X49084582Y-35872732D01*
X49109310Y-36007464D01*
X49159736Y-36134828D01*
X49233941Y-36249971D01*
X49329098Y-36348509D01*
X49441581Y-36426687D01*
X49567107Y-36481528D01*
X49700895Y-36510943D01*
X49837848Y-36513811D01*
X49972749Y-36490025D01*
X50100462Y-36440488D01*
X50194622Y-36380732D01*
X59244582Y-36380732D01*
X59269310Y-36515464D01*
X59319736Y-36642828D01*
X59393941Y-36757971D01*
X59489098Y-36856509D01*
X59601581Y-36934687D01*
X59727107Y-36989528D01*
X59860895Y-37018943D01*
X59997848Y-37021811D01*
X60132749Y-36998025D01*
X60260462Y-36948488D01*
X60376120Y-36875089D01*
X60475320Y-36780623D01*
X60554281Y-36668688D01*
X60609997Y-36543548D01*
X60640345Y-36409969D01*
X60642530Y-36253509D01*
X60615923Y-36119134D01*
X60563723Y-35992487D01*
X60487918Y-35878391D01*
X60391395Y-35781192D01*
X60277831Y-35704592D01*
X60151552Y-35651509D01*
X60017366Y-35623965D01*
X59880387Y-35623009D01*
X59745830Y-35648677D01*
X59618822Y-35699991D01*
X59504199Y-35774998D01*
X59406329Y-35870840D01*
X59328938Y-35983867D01*
X59274975Y-36109773D01*
X59246494Y-36243762D01*
X59244582Y-36380732D01*
X50194622Y-36380732D01*
X50216120Y-36367089D01*
X50315320Y-36272623D01*
X50394281Y-36160688D01*
X50449997Y-36035548D01*
X50480345Y-35901969D01*
X50482530Y-35745509D01*
X50455923Y-35611134D01*
X50403723Y-35484487D01*
X50327918Y-35370391D01*
X50231395Y-35273192D01*
X50117831Y-35196592D01*
X49991552Y-35143509D01*
X49857366Y-35115965D01*
X49720387Y-35115009D01*
X49585830Y-35140677D01*
X49458822Y-35191991D01*
X49344199Y-35266998D01*
X49246329Y-35362840D01*
X49168938Y-35475867D01*
X49114975Y-35601773D01*
X49086494Y-35735762D01*
X49084582Y-35872732D01*
X21126812Y-35872732D01*
X21512784Y-34655994D01*
X64550394Y-34655994D01*
X64575122Y-34790726D01*
X64625548Y-34918090D01*
X64699753Y-35033233D01*
X64794910Y-35131771D01*
X64907393Y-35209949D01*
X65032919Y-35264790D01*
X65166707Y-35294205D01*
X65303660Y-35297073D01*
X65438561Y-35273287D01*
X65566274Y-35223750D01*
X65681932Y-35150351D01*
X65781132Y-35055885D01*
X65860093Y-34943950D01*
X65915809Y-34818810D01*
X65946157Y-34685231D01*
X65948342Y-34528771D01*
X65921735Y-34394396D01*
X65869535Y-34267749D01*
X65793730Y-34153653D01*
X65697207Y-34056454D01*
X65583643Y-33979854D01*
X65457364Y-33926771D01*
X65323178Y-33899227D01*
X65186199Y-33898271D01*
X65051642Y-33923939D01*
X64924634Y-33975253D01*
X64810011Y-34050260D01*
X64712141Y-34146102D01*
X64634750Y-34259129D01*
X64580787Y-34385035D01*
X64552306Y-34519024D01*
X64550394Y-34655994D01*
X21512784Y-34655994D01*
X21523088Y-34623513D01*
X23012753Y-31913821D01*
X26845148Y-31913821D01*
X26869876Y-32048553D01*
X26920302Y-32175917D01*
X26994507Y-32291060D01*
X27089664Y-32389598D01*
X27202147Y-32467776D01*
X27327673Y-32522617D01*
X27461461Y-32552032D01*
X27598414Y-32554900D01*
X27733315Y-32531114D01*
X27861028Y-32481577D01*
X27976686Y-32408178D01*
X28075886Y-32313712D01*
X28154847Y-32201777D01*
X28210563Y-32076637D01*
X28240911Y-31943058D01*
X28243096Y-31786598D01*
X28216489Y-31652223D01*
X28176307Y-31554732D01*
X54418582Y-31554732D01*
X54443310Y-31689464D01*
X54493736Y-31816828D01*
X54567941Y-31931971D01*
X54663098Y-32030509D01*
X54775581Y-32108687D01*
X54901107Y-32163528D01*
X55034895Y-32192943D01*
X55171848Y-32195811D01*
X55306749Y-32172025D01*
X55434462Y-32122488D01*
X55550120Y-32049089D01*
X55649320Y-31954623D01*
X55728281Y-31842688D01*
X55783997Y-31717548D01*
X55814345Y-31583969D01*
X55816530Y-31427509D01*
X55789923Y-31293134D01*
X55737723Y-31166487D01*
X55661918Y-31052391D01*
X55565395Y-30955192D01*
X55451831Y-30878592D01*
X55325552Y-30825509D01*
X55191366Y-30797965D01*
X55054387Y-30797009D01*
X54919830Y-30822677D01*
X54792822Y-30873991D01*
X54678199Y-30948998D01*
X54580329Y-31044840D01*
X54502938Y-31157867D01*
X54448975Y-31283773D01*
X54420494Y-31417762D01*
X54418582Y-31554732D01*
X28176307Y-31554732D01*
X28164289Y-31525576D01*
X28088484Y-31411480D01*
X27991961Y-31314281D01*
X27878397Y-31237681D01*
X27752118Y-31184598D01*
X27617932Y-31157054D01*
X27480953Y-31156098D01*
X27346396Y-31181766D01*
X27219388Y-31233080D01*
X27104765Y-31308087D01*
X27006895Y-31403929D01*
X26929504Y-31516956D01*
X26875541Y-31642862D01*
X26847060Y-31776851D01*
X26845148Y-31913821D01*
X23012753Y-31913821D01*
X23868369Y-30357463D01*
X24954811Y-29062691D01*
X26688095Y-29062691D01*
X26712823Y-29197423D01*
X26763249Y-29324787D01*
X26837454Y-29439930D01*
X26932611Y-29538468D01*
X27045094Y-29616646D01*
X27170620Y-29671487D01*
X27304408Y-29700902D01*
X27441361Y-29703770D01*
X27576262Y-29679984D01*
X27703975Y-29630447D01*
X27819633Y-29557048D01*
X27918833Y-29462582D01*
X27997794Y-29350647D01*
X28053510Y-29225507D01*
X28083858Y-29091928D01*
X28084936Y-29014732D01*
X44385582Y-29014732D01*
X44410310Y-29149464D01*
X44460736Y-29276828D01*
X44534941Y-29391971D01*
X44630098Y-29490509D01*
X44742581Y-29568687D01*
X44868107Y-29623528D01*
X45001895Y-29652943D01*
X45138848Y-29655811D01*
X45273749Y-29632025D01*
X45401462Y-29582488D01*
X45517120Y-29509089D01*
X45616320Y-29414623D01*
X45692342Y-29306854D01*
X45730736Y-29403828D01*
X45804941Y-29518971D01*
X45818635Y-29533152D01*
X45793366Y-29527965D01*
X45656387Y-29527009D01*
X45521830Y-29552677D01*
X45394822Y-29603991D01*
X45280199Y-29678998D01*
X45182329Y-29774840D01*
X45104938Y-29887867D01*
X45050975Y-30013773D01*
X45022494Y-30147762D01*
X45020582Y-30284732D01*
X45045310Y-30419464D01*
X45095736Y-30546828D01*
X45169941Y-30661971D01*
X45265098Y-30760509D01*
X45377581Y-30838687D01*
X45503107Y-30893528D01*
X45636895Y-30922943D01*
X45773848Y-30925811D01*
X45908749Y-30902025D01*
X46036462Y-30852488D01*
X46152120Y-30779089D01*
X46251320Y-30684623D01*
X46330281Y-30572688D01*
X46385997Y-30447548D01*
X46416345Y-30313969D01*
X46418530Y-30157509D01*
X46391923Y-30023134D01*
X46339723Y-29896487D01*
X46263918Y-29782391D01*
X46258580Y-29777016D01*
X46271895Y-29779943D01*
X46408848Y-29782811D01*
X46543749Y-29759025D01*
X46671462Y-29709488D01*
X46787120Y-29636089D01*
X46886320Y-29541623D01*
X46965281Y-29429688D01*
X47020997Y-29304548D01*
X47051345Y-29170969D01*
X47053530Y-29014509D01*
X47026923Y-28880134D01*
X46974723Y-28753487D01*
X46937348Y-28697232D01*
X55434582Y-28697232D01*
X55459310Y-28831964D01*
X55509736Y-28959328D01*
X55583941Y-29074471D01*
X55679098Y-29173009D01*
X55791581Y-29251187D01*
X55917107Y-29306028D01*
X56050895Y-29335443D01*
X56187848Y-29338311D01*
X56322749Y-29314525D01*
X56450462Y-29264988D01*
X56566120Y-29191589D01*
X56665320Y-29097123D01*
X56744281Y-28985188D01*
X56799997Y-28860048D01*
X56830345Y-28726469D01*
X56832530Y-28570009D01*
X56805923Y-28435634D01*
X56753723Y-28308987D01*
X56677918Y-28194891D01*
X56581395Y-28097692D01*
X56467831Y-28021092D01*
X56341552Y-27968009D01*
X56207366Y-27940465D01*
X56070387Y-27939509D01*
X55935830Y-27965177D01*
X55808822Y-28016491D01*
X55694199Y-28091498D01*
X55596329Y-28187340D01*
X55518938Y-28300367D01*
X55464975Y-28426273D01*
X55436494Y-28560262D01*
X55434582Y-28697232D01*
X46937348Y-28697232D01*
X46898918Y-28639391D01*
X46802395Y-28542192D01*
X46688831Y-28465592D01*
X46562552Y-28412509D01*
X46428366Y-28384965D01*
X46291387Y-28384009D01*
X46156830Y-28409677D01*
X46029822Y-28460991D01*
X45915199Y-28535998D01*
X45817329Y-28631840D01*
X45748414Y-28732489D01*
X45704723Y-28626487D01*
X45628918Y-28512391D01*
X45532395Y-28415192D01*
X45418831Y-28338592D01*
X45292552Y-28285509D01*
X45158366Y-28257965D01*
X45021387Y-28257009D01*
X44886830Y-28282677D01*
X44759822Y-28333991D01*
X44645199Y-28408998D01*
X44547329Y-28504840D01*
X44469938Y-28617867D01*
X44415975Y-28743773D01*
X44387494Y-28877762D01*
X44385582Y-29014732D01*
X28084936Y-29014732D01*
X28086043Y-28935468D01*
X28059436Y-28801093D01*
X28007236Y-28674446D01*
X27931431Y-28560350D01*
X27834908Y-28463151D01*
X27721344Y-28386551D01*
X27595065Y-28333468D01*
X27460879Y-28305924D01*
X27323900Y-28304968D01*
X27189343Y-28330636D01*
X27062335Y-28381950D01*
X26947712Y-28456957D01*
X26849842Y-28552799D01*
X26772451Y-28665826D01*
X26718488Y-28791732D01*
X26690007Y-28925721D01*
X26688095Y-29062691D01*
X24954811Y-29062691D01*
X26997598Y-26628193D01*
X27277529Y-26403122D01*
X32951861Y-26403122D01*
X32976589Y-26537854D01*
X33027015Y-26665218D01*
X33101220Y-26780361D01*
X33196377Y-26878899D01*
X33308860Y-26957077D01*
X33434386Y-27011918D01*
X33568174Y-27041333D01*
X33705127Y-27044201D01*
X33840028Y-27020415D01*
X33967741Y-26970878D01*
X34083399Y-26897479D01*
X34182599Y-26803013D01*
X34261560Y-26691078D01*
X34317276Y-26565938D01*
X34337997Y-26474732D01*
X50862582Y-26474732D01*
X50887310Y-26609464D01*
X50937736Y-26736828D01*
X51011941Y-26851971D01*
X51107098Y-26950509D01*
X51219581Y-27028687D01*
X51269848Y-27050648D01*
X51236822Y-27063991D01*
X51122199Y-27138998D01*
X51024329Y-27234840D01*
X50946938Y-27347867D01*
X50892975Y-27473773D01*
X50864494Y-27607762D01*
X50862582Y-27744732D01*
X50887310Y-27879464D01*
X50937736Y-28006828D01*
X51011941Y-28121971D01*
X51107098Y-28220509D01*
X51219581Y-28298687D01*
X51345107Y-28353528D01*
X51478895Y-28382943D01*
X51615848Y-28385811D01*
X51750749Y-28362025D01*
X51878462Y-28312488D01*
X51994120Y-28239089D01*
X52093320Y-28144623D01*
X52172281Y-28032688D01*
X52227997Y-27907548D01*
X52258345Y-27773969D01*
X52260530Y-27617509D01*
X52257717Y-27603298D01*
X56345493Y-27603298D01*
X56370221Y-27738030D01*
X56420647Y-27865394D01*
X56494852Y-27980537D01*
X56590009Y-28079075D01*
X56702492Y-28157253D01*
X56828018Y-28212094D01*
X56961806Y-28241509D01*
X57098759Y-28244377D01*
X57233660Y-28220591D01*
X57361373Y-28171054D01*
X57477031Y-28097655D01*
X57576231Y-28003189D01*
X57655192Y-27891254D01*
X57710908Y-27766114D01*
X57741256Y-27632535D01*
X57743441Y-27476075D01*
X57737535Y-27446245D01*
X59196623Y-27446245D01*
X59221351Y-27580977D01*
X59271777Y-27708341D01*
X59345982Y-27823484D01*
X59441139Y-27922022D01*
X59553622Y-28000200D01*
X59679148Y-28055041D01*
X59812936Y-28084456D01*
X59949889Y-28087324D01*
X60084790Y-28063538D01*
X60212503Y-28014001D01*
X60328161Y-27940602D01*
X60427361Y-27846136D01*
X60506322Y-27734201D01*
X60562038Y-27609061D01*
X60592386Y-27475482D01*
X60594571Y-27319022D01*
X60567964Y-27184647D01*
X60515764Y-27058000D01*
X60439959Y-26943904D01*
X60343436Y-26846705D01*
X60229872Y-26770105D01*
X60103593Y-26717022D01*
X59969407Y-26689478D01*
X59832428Y-26688522D01*
X59697871Y-26714190D01*
X59570863Y-26765504D01*
X59456240Y-26840511D01*
X59358370Y-26936353D01*
X59280979Y-27049380D01*
X59227016Y-27175286D01*
X59198535Y-27309275D01*
X59196623Y-27446245D01*
X57737535Y-27446245D01*
X57716834Y-27341700D01*
X57664634Y-27215053D01*
X57588829Y-27100957D01*
X57492306Y-27003758D01*
X57378742Y-26927158D01*
X57252463Y-26874075D01*
X57118277Y-26846531D01*
X56981298Y-26845575D01*
X56846741Y-26871243D01*
X56719733Y-26922557D01*
X56605110Y-26997564D01*
X56507240Y-27093406D01*
X56429849Y-27206433D01*
X56375886Y-27332339D01*
X56347405Y-27466328D01*
X56345493Y-27603298D01*
X52257717Y-27603298D01*
X52233923Y-27483134D01*
X52181723Y-27356487D01*
X52105918Y-27242391D01*
X52009395Y-27145192D01*
X51895831Y-27068592D01*
X51855198Y-27051511D01*
X51878462Y-27042488D01*
X51994120Y-26969089D01*
X52093320Y-26874623D01*
X52172281Y-26762688D01*
X52227997Y-26637548D01*
X52258345Y-26503969D01*
X52260530Y-26347509D01*
X52233923Y-26213134D01*
X52181723Y-26086487D01*
X52105918Y-25972391D01*
X52009395Y-25875192D01*
X51895831Y-25798592D01*
X51769552Y-25745509D01*
X51635366Y-25717965D01*
X51498387Y-25717009D01*
X51363830Y-25742677D01*
X51236822Y-25793991D01*
X51122199Y-25868998D01*
X51024329Y-25964840D01*
X50946938Y-26077867D01*
X50892975Y-26203773D01*
X50864494Y-26337762D01*
X50862582Y-26474732D01*
X34337997Y-26474732D01*
X34347624Y-26432359D01*
X34349809Y-26275899D01*
X34323202Y-26141524D01*
X34271002Y-26014877D01*
X34195197Y-25900781D01*
X34098674Y-25803582D01*
X33985110Y-25726982D01*
X33858831Y-25673899D01*
X33724645Y-25646355D01*
X33587666Y-25645399D01*
X33453109Y-25671067D01*
X33326101Y-25722381D01*
X33211478Y-25797388D01*
X33113608Y-25893230D01*
X33036217Y-26006257D01*
X32982254Y-26132163D01*
X32953773Y-26266152D01*
X32951861Y-26403122D01*
X27277529Y-26403122D01*
X30628441Y-23708920D01*
X33897844Y-23708920D01*
X33922572Y-23843652D01*
X33972998Y-23971016D01*
X34047203Y-24086159D01*
X34142360Y-24184697D01*
X34254843Y-24262875D01*
X34380369Y-24317716D01*
X34514157Y-24347131D01*
X34651110Y-24349999D01*
X34786011Y-24326213D01*
X34913724Y-24276676D01*
X35029382Y-24203277D01*
X35128582Y-24108811D01*
X35207543Y-23996876D01*
X35263259Y-23871736D01*
X35293607Y-23738157D01*
X35294854Y-23648838D01*
X40702582Y-23648838D01*
X40727310Y-23783570D01*
X40777736Y-23910934D01*
X40851941Y-24026077D01*
X40947098Y-24124615D01*
X41059581Y-24202793D01*
X41185107Y-24257634D01*
X41318895Y-24287049D01*
X41455848Y-24289917D01*
X41590749Y-24266131D01*
X41718462Y-24216594D01*
X41834120Y-24143195D01*
X41910684Y-24070284D01*
X48917333Y-24070284D01*
X48942061Y-24205016D01*
X48992487Y-24332380D01*
X49066692Y-24447523D01*
X49161849Y-24546061D01*
X49274332Y-24624239D01*
X49399858Y-24679080D01*
X49533646Y-24708495D01*
X49670599Y-24711363D01*
X49805500Y-24687577D01*
X49933213Y-24638040D01*
X50048871Y-24564641D01*
X50148071Y-24470175D01*
X50227032Y-24358240D01*
X50282748Y-24233100D01*
X50313096Y-24099521D01*
X50315281Y-23943061D01*
X50288674Y-23808686D01*
X50236474Y-23682039D01*
X50160669Y-23567943D01*
X50064146Y-23470744D01*
X49950582Y-23394144D01*
X49824303Y-23341061D01*
X49690117Y-23313517D01*
X49553138Y-23312561D01*
X49418581Y-23338229D01*
X49291573Y-23389543D01*
X49176950Y-23464550D01*
X49079080Y-23560392D01*
X49001689Y-23673419D01*
X48947726Y-23799325D01*
X48919245Y-23933314D01*
X48917333Y-24070284D01*
X41910684Y-24070284D01*
X41933320Y-24048729D01*
X42012281Y-23936794D01*
X42067997Y-23811654D01*
X42098345Y-23678075D01*
X42100530Y-23521615D01*
X42073923Y-23387240D01*
X42021723Y-23260593D01*
X41945918Y-23146497D01*
X41849395Y-23049298D01*
X41735831Y-22972698D01*
X41609552Y-22919615D01*
X41475366Y-22892071D01*
X41338387Y-22891115D01*
X41203830Y-22916783D01*
X41076822Y-22968097D01*
X40962199Y-23043104D01*
X40864329Y-23138946D01*
X40786938Y-23251973D01*
X40732975Y-23377879D01*
X40704494Y-23511868D01*
X40702582Y-23648838D01*
X35294854Y-23648838D01*
X35295792Y-23581697D01*
X35269185Y-23447322D01*
X35216985Y-23320675D01*
X35141180Y-23206579D01*
X35044657Y-23109380D01*
X34931093Y-23032780D01*
X34804814Y-22979697D01*
X34670628Y-22952153D01*
X34533649Y-22951197D01*
X34399092Y-22976865D01*
X34272084Y-23028179D01*
X34157461Y-23103186D01*
X34059591Y-23199028D01*
X33982200Y-23312055D01*
X33928237Y-23437961D01*
X33899756Y-23571950D01*
X33897844Y-23708920D01*
X30628441Y-23708920D01*
X30791583Y-23577751D01*
X32214044Y-22834106D01*
X51491332Y-22834106D01*
X51516060Y-22968838D01*
X51566486Y-23096202D01*
X51640691Y-23211345D01*
X51735848Y-23309883D01*
X51848331Y-23388061D01*
X51973857Y-23442902D01*
X52107645Y-23472317D01*
X52244598Y-23475185D01*
X52379499Y-23451399D01*
X52507212Y-23401862D01*
X52622870Y-23328463D01*
X52722070Y-23233997D01*
X52801031Y-23122062D01*
X52856747Y-22996922D01*
X52887095Y-22863343D01*
X52889280Y-22706883D01*
X52862673Y-22572508D01*
X52810473Y-22445861D01*
X52734668Y-22331765D01*
X52638145Y-22234566D01*
X52524581Y-22157966D01*
X52398302Y-22104883D01*
X52264116Y-22077339D01*
X52127137Y-22076383D01*
X51992580Y-22102051D01*
X51865572Y-22153365D01*
X51750949Y-22228372D01*
X51653079Y-22324214D01*
X51575688Y-22437241D01*
X51521725Y-22563147D01*
X51493244Y-22697136D01*
X51491332Y-22834106D01*
X32214044Y-22834106D01*
X34724384Y-21521732D01*
X42607582Y-21521732D01*
X42632310Y-21656464D01*
X42682736Y-21783828D01*
X42756941Y-21898971D01*
X42852098Y-21997509D01*
X42964581Y-22075687D01*
X43090107Y-22130528D01*
X43223895Y-22159943D01*
X43360848Y-22162811D01*
X43495749Y-22139025D01*
X43623462Y-22089488D01*
X43739120Y-22016089D01*
X43838320Y-21921623D01*
X43917281Y-21809688D01*
X43972997Y-21684548D01*
X44003345Y-21550969D01*
X44005530Y-21394509D01*
X43978923Y-21260134D01*
X43926723Y-21133487D01*
X43850918Y-21019391D01*
X43754395Y-20922192D01*
X43640831Y-20845592D01*
X43514552Y-20792509D01*
X43380366Y-20764965D01*
X43243387Y-20764009D01*
X43108830Y-20789677D01*
X42981822Y-20840991D01*
X42867199Y-20915998D01*
X42769329Y-21011840D01*
X42691938Y-21124867D01*
X42637975Y-21250773D01*
X42609494Y-21384762D01*
X42607582Y-21521732D01*
X34724384Y-21521732D01*
X35105813Y-21322326D01*
X39775960Y-19947827D01*
X44624141Y-19506608D01*
X49465688Y-20015475D01*
M02*
