G04 #@! TF.FileFunction,Paste,Top*
%FSLAX46Y46*%
G04 Gerber Fmt 4.6, Leading zero omitted, Abs format (unit mm)*
G04 Created by KiCad (PCBNEW 201611251247+7376~55~ubuntu16.10.1-product) date Fri Nov 25 19:13:33 2016*
%MOMM*%
%LPD*%
G01*
G04 APERTURE LIST*
%ADD10C,0.100000*%
%ADD11C,0.316500*%
%ADD12C,0.538050*%
%ADD13R,0.633000X0.538050*%
%ADD14R,0.504856X0.504856*%
%ADD15R,0.569700X0.633000*%
%ADD16R,1.035000X1.035000*%
%ADD17R,0.443100X0.158250*%
%ADD18R,0.158250X0.443100*%
%ADD19R,2.215500X1.076100*%
%ADD20R,0.379800X0.316500*%
%ADD21R,0.538050X0.633000*%
%ADD22R,0.316500X0.379800*%
%ADD23R,0.237374X0.158250*%
%ADD24R,0.158250X0.300674*%
%ADD25R,0.316500X0.569700*%
%ADD26R,0.569700X0.316500*%
%ADD27C,0.411450*%
%ADD28R,0.696300X1.202700*%
%ADD29R,0.474750X0.506400*%
%ADD30R,0.633000X0.569700*%
%ADD31C,0.504856*%
%ADD32R,1.266000X1.266000*%
G04 APERTURE END LIST*
D10*
D11*
X54944910Y-61822147D03*
D10*
G36*
X54726034Y-61707262D02*
X55018442Y-61586143D01*
X55163786Y-61937032D01*
X54871378Y-62058151D01*
X54726034Y-61707262D01*
X54726034Y-61707262D01*
G37*
D11*
X55365862Y-62838415D03*
D10*
G36*
X55146986Y-62723530D02*
X55439394Y-62602411D01*
X55584738Y-62953300D01*
X55292330Y-63074419D01*
X55146986Y-62723530D01*
X55146986Y-62723530D01*
G37*
D11*
X27077853Y-54944910D03*
D10*
G36*
X27192738Y-54726034D02*
X27313857Y-55018442D01*
X26962968Y-55163786D01*
X26841849Y-54871378D01*
X27192738Y-54726034D01*
X27192738Y-54726034D01*
G37*
D11*
X26061585Y-55365862D03*
D10*
G36*
X26176470Y-55146986D02*
X26297589Y-55439394D01*
X25946700Y-55584738D01*
X25825581Y-55292330D01*
X26176470Y-55146986D01*
X26176470Y-55146986D01*
G37*
D12*
X64035842Y-53509815D03*
D10*
G36*
X64431201Y-53382388D02*
X64225298Y-53879481D01*
X63640483Y-53637242D01*
X63846386Y-53140149D01*
X64431201Y-53382388D01*
X64431201Y-53382388D01*
G37*
D12*
X64705538Y-51893025D03*
D10*
G36*
X65100897Y-51765598D02*
X64894994Y-52262691D01*
X64310179Y-52020452D01*
X64516082Y-51523359D01*
X65100897Y-51765598D01*
X65100897Y-51765598D01*
G37*
D12*
X60802264Y-52170423D03*
D10*
G36*
X61197623Y-52042996D02*
X60991720Y-52540089D01*
X60406905Y-52297850D01*
X60612808Y-51800757D01*
X61197623Y-52042996D01*
X61197623Y-52042996D01*
G37*
D12*
X61471960Y-50553633D03*
D10*
G36*
X61867319Y-50426206D02*
X61661416Y-50923299D01*
X61076601Y-50681060D01*
X61282504Y-50183967D01*
X61867319Y-50426206D01*
X61867319Y-50426206D01*
G37*
D13*
X22888000Y-43575000D03*
X22888000Y-45325000D03*
X26388000Y-43575000D03*
X26388000Y-45325000D03*
D12*
X29822082Y-28584645D03*
D10*
G36*
X29408053Y-28551075D02*
X29788512Y-28170616D01*
X30236111Y-28618215D01*
X29855652Y-28998674D01*
X29408053Y-28551075D01*
X29408053Y-28551075D01*
G37*
D12*
X28584645Y-29822082D03*
D10*
G36*
X28170616Y-29788512D02*
X28551075Y-29408053D01*
X28998674Y-29855652D01*
X28618215Y-30236111D01*
X28170616Y-29788512D01*
X28170616Y-29788512D01*
G37*
D12*
X32296955Y-31059518D03*
D10*
G36*
X31882926Y-31025948D02*
X32263385Y-30645489D01*
X32710984Y-31093088D01*
X32330525Y-31473547D01*
X31882926Y-31025948D01*
X31882926Y-31025948D01*
G37*
D12*
X31059518Y-32296955D03*
D10*
G36*
X30645489Y-32263385D02*
X31025948Y-31882926D01*
X31473547Y-32330525D01*
X31093088Y-32710984D01*
X30645489Y-32263385D01*
X30645489Y-32263385D01*
G37*
D12*
X60315355Y-29822082D03*
D10*
G36*
X60348925Y-29408053D02*
X60729384Y-29788512D01*
X60281785Y-30236111D01*
X59901326Y-29855652D01*
X60348925Y-29408053D01*
X60348925Y-29408053D01*
G37*
D12*
X59077918Y-28584645D03*
D10*
G36*
X59111488Y-28170616D02*
X59491947Y-28551075D01*
X59044348Y-28998674D01*
X58663889Y-28618215D01*
X59111488Y-28170616D01*
X59111488Y-28170616D01*
G37*
D12*
X57840482Y-32296955D03*
D10*
G36*
X57874052Y-31882926D02*
X58254511Y-32263385D01*
X57806912Y-32710984D01*
X57426453Y-32330525D01*
X57874052Y-31882926D01*
X57874052Y-31882926D01*
G37*
D12*
X56603045Y-31059518D03*
D10*
G36*
X56636615Y-30645489D02*
X57017074Y-31025948D01*
X56569475Y-31473547D01*
X56189016Y-31093088D01*
X56636615Y-30645489D01*
X56636615Y-30645489D01*
G37*
D12*
X53509815Y-24864158D03*
D10*
G36*
X53382388Y-24468799D02*
X53879481Y-24674702D01*
X53637242Y-25259517D01*
X53140149Y-25053614D01*
X53382388Y-24468799D01*
X53382388Y-24468799D01*
G37*
D12*
X51893025Y-24194462D03*
D10*
G36*
X51765598Y-23799103D02*
X52262691Y-24005006D01*
X52020452Y-24589821D01*
X51523359Y-24383918D01*
X51765598Y-23799103D01*
X51765598Y-23799103D01*
G37*
D12*
X52170423Y-28097736D03*
D10*
G36*
X52042996Y-27702377D02*
X52540089Y-27908280D01*
X52297850Y-28493095D01*
X51800757Y-28287192D01*
X52042996Y-27702377D01*
X52042996Y-27702377D01*
G37*
D12*
X50553633Y-27428040D03*
D10*
G36*
X50426206Y-27032681D02*
X50923299Y-27238584D01*
X50681060Y-27823399D01*
X50183967Y-27617496D01*
X50426206Y-27032681D01*
X50426206Y-27032681D01*
G37*
D14*
X32004000Y-34810700D03*
X32004000Y-36309300D03*
D15*
X47226000Y-36614000D03*
X51326000Y-36614000D03*
X51326000Y-35014000D03*
X47226000Y-35014000D03*
D16*
X56234500Y-43587500D03*
X54509500Y-43587500D03*
X56234500Y-45312500D03*
X54509500Y-45312500D03*
D17*
X57772000Y-42700000D03*
X57772000Y-43200000D03*
X57772000Y-43700000D03*
X57772000Y-44200000D03*
X57772000Y-44700000D03*
X57772000Y-45200000D03*
X57772000Y-45700000D03*
X57772000Y-46200000D03*
D18*
X57122000Y-46850000D03*
X56622000Y-46850000D03*
X56122000Y-46850000D03*
X55622000Y-46850000D03*
X55122000Y-46850000D03*
X54622000Y-46850000D03*
X54122000Y-46850000D03*
X53622000Y-46850000D03*
D17*
X52972000Y-46200000D03*
X52972000Y-45700000D03*
X52972000Y-45200000D03*
X52972000Y-44700000D03*
X52972000Y-44200000D03*
X52972000Y-43700000D03*
X52972000Y-43200000D03*
X52972000Y-42700000D03*
D18*
X53622000Y-42050000D03*
X54122000Y-42050000D03*
X54622000Y-42050000D03*
X55122000Y-42050000D03*
X55622000Y-42050000D03*
X56122000Y-42050000D03*
X56622000Y-42050000D03*
X57122000Y-42050000D03*
D19*
X36068000Y-57479000D03*
X36068000Y-52249000D03*
D11*
X49733893Y-23728746D03*
D10*
G36*
X49807425Y-23964750D02*
X49515017Y-23843631D01*
X49660361Y-23492742D01*
X49952769Y-23613861D01*
X49807425Y-23964750D01*
X49807425Y-23964750D01*
G37*
D11*
X49312941Y-24745014D03*
D10*
G36*
X49386473Y-24981018D02*
X49094065Y-24859899D01*
X49239409Y-24509010D01*
X49531817Y-24630129D01*
X49386473Y-24981018D01*
X49386473Y-24981018D01*
G37*
D11*
X57261361Y-27328116D03*
D10*
G36*
X57238981Y-27574295D02*
X57015182Y-27350496D01*
X57283741Y-27081937D01*
X57507540Y-27305736D01*
X57238981Y-27574295D01*
X57238981Y-27574295D01*
G37*
D11*
X56483543Y-28105934D03*
D10*
G36*
X56461163Y-28352113D02*
X56237364Y-28128314D01*
X56505923Y-27859755D01*
X56729722Y-28083554D01*
X56461163Y-28352113D01*
X56461163Y-28352113D01*
G37*
D11*
X62838415Y-33534138D03*
D10*
G36*
X62723530Y-33753014D02*
X62602411Y-33460606D01*
X62953300Y-33315262D01*
X63074419Y-33607670D01*
X62723530Y-33753014D01*
X62723530Y-33753014D01*
G37*
D11*
X61822147Y-33955090D03*
D10*
G36*
X61707262Y-34173966D02*
X61586143Y-33881558D01*
X61937032Y-33736214D01*
X62058151Y-34028622D01*
X61707262Y-34173966D01*
X61707262Y-34173966D01*
G37*
D20*
X65616000Y-41402000D03*
X64516000Y-41402000D03*
D11*
X65171254Y-49733893D03*
D10*
G36*
X64935250Y-49807425D02*
X65056369Y-49515017D01*
X65407258Y-49660361D01*
X65286139Y-49952769D01*
X64935250Y-49807425D01*
X64935250Y-49807425D01*
G37*
D11*
X64154986Y-49312941D03*
D10*
G36*
X63918982Y-49386473D02*
X64040101Y-49094065D01*
X64390990Y-49239409D01*
X64269871Y-49531817D01*
X63918982Y-49386473D01*
X63918982Y-49386473D01*
G37*
D11*
X61571884Y-57261361D03*
D10*
G36*
X61325705Y-57238981D02*
X61549504Y-57015182D01*
X61818063Y-57283741D01*
X61594264Y-57507540D01*
X61325705Y-57238981D01*
X61325705Y-57238981D01*
G37*
D11*
X60794066Y-56483543D03*
D10*
G36*
X60547887Y-56461163D02*
X60771686Y-56237364D01*
X61040245Y-56505923D01*
X60816446Y-56729722D01*
X60547887Y-56461163D01*
X60547887Y-56461163D01*
G37*
D11*
X39166107Y-65171254D03*
D10*
G36*
X39092575Y-64935250D02*
X39384983Y-65056369D01*
X39239639Y-65407258D01*
X38947231Y-65286139D01*
X39092575Y-64935250D01*
X39092575Y-64935250D01*
G37*
D11*
X39587059Y-64154986D03*
D10*
G36*
X39513527Y-63918982D02*
X39805935Y-64040101D01*
X39660591Y-64390990D01*
X39368183Y-64269871D01*
X39513527Y-63918982D01*
X39513527Y-63918982D01*
G37*
D11*
X31638639Y-61571884D03*
D10*
G36*
X31661019Y-61325705D02*
X31884818Y-61549504D01*
X31616259Y-61818063D01*
X31392460Y-61594264D01*
X31661019Y-61325705D01*
X31661019Y-61325705D01*
G37*
D11*
X32416457Y-60794066D03*
D10*
G36*
X32438837Y-60547887D02*
X32662636Y-60771686D01*
X32394077Y-61040245D01*
X32170278Y-60816446D01*
X32438837Y-60547887D01*
X32438837Y-60547887D01*
G37*
D20*
X23284000Y-47498000D03*
X24384000Y-47498000D03*
D11*
X23728746Y-39166107D03*
D10*
G36*
X23964750Y-39092575D02*
X23843631Y-39384983D01*
X23492742Y-39239639D01*
X23613861Y-38947231D01*
X23964750Y-39092575D01*
X23964750Y-39092575D01*
G37*
D11*
X24745014Y-39587059D03*
D10*
G36*
X24981018Y-39513527D02*
X24859899Y-39805935D01*
X24509010Y-39660591D01*
X24630129Y-39368183D01*
X24981018Y-39513527D01*
X24981018Y-39513527D01*
G37*
D11*
X27328116Y-31638639D03*
D10*
G36*
X27574295Y-31661019D02*
X27350496Y-31884818D01*
X27081937Y-31616259D01*
X27305736Y-31392460D01*
X27574295Y-31661019D01*
X27574295Y-31661019D01*
G37*
D11*
X28105934Y-32416457D03*
D10*
G36*
X28352113Y-32438837D02*
X28128314Y-32662636D01*
X27859755Y-32394077D01*
X28083554Y-32170278D01*
X28352113Y-32438837D01*
X28352113Y-32438837D01*
G37*
D11*
X33534138Y-26061585D03*
D10*
G36*
X33753014Y-26176470D02*
X33460606Y-26297589D01*
X33315262Y-25946700D01*
X33607670Y-25825581D01*
X33753014Y-26176470D01*
X33753014Y-26176470D01*
G37*
D11*
X33955090Y-27077853D03*
D10*
G36*
X34173966Y-27192738D02*
X33881558Y-27313857D01*
X33736214Y-26962968D01*
X34028622Y-26841849D01*
X34173966Y-27192738D01*
X34173966Y-27192738D01*
G37*
D12*
X28584645Y-59077918D03*
D10*
G36*
X28551075Y-59491947D02*
X28170616Y-59111488D01*
X28618215Y-58663889D01*
X28998674Y-59044348D01*
X28551075Y-59491947D01*
X28551075Y-59491947D01*
G37*
D12*
X29822082Y-60315355D03*
D10*
G36*
X29788512Y-60729384D02*
X29408053Y-60348925D01*
X29855652Y-59901326D01*
X30236111Y-60281785D01*
X29788512Y-60729384D01*
X29788512Y-60729384D01*
G37*
D12*
X31059518Y-56603045D03*
D10*
G36*
X31025948Y-57017074D02*
X30645489Y-56636615D01*
X31093088Y-56189016D01*
X31473547Y-56569475D01*
X31025948Y-57017074D01*
X31025948Y-57017074D01*
G37*
D12*
X32296955Y-57840482D03*
D10*
G36*
X32263385Y-58254511D02*
X31882926Y-57874052D01*
X32330525Y-57426453D01*
X32710984Y-57806912D01*
X32263385Y-58254511D01*
X32263385Y-58254511D01*
G37*
D12*
X35390185Y-64035842D03*
D10*
G36*
X35517612Y-64431201D02*
X35020519Y-64225298D01*
X35262758Y-63640483D01*
X35759851Y-63846386D01*
X35517612Y-64431201D01*
X35517612Y-64431201D01*
G37*
D12*
X37006975Y-64705538D03*
D10*
G36*
X37134402Y-65100897D02*
X36637309Y-64894994D01*
X36879548Y-64310179D01*
X37376641Y-64516082D01*
X37134402Y-65100897D01*
X37134402Y-65100897D01*
G37*
D12*
X36729577Y-60802264D03*
D10*
G36*
X36857004Y-61197623D02*
X36359911Y-60991720D01*
X36602150Y-60406905D01*
X37099243Y-60612808D01*
X36857004Y-61197623D01*
X36857004Y-61197623D01*
G37*
D12*
X38346367Y-61471960D03*
D10*
G36*
X38473794Y-61867319D02*
X37976701Y-61661416D01*
X38218940Y-61076601D01*
X38716033Y-61282504D01*
X38473794Y-61867319D01*
X38473794Y-61867319D01*
G37*
D21*
X45325000Y-22888000D03*
X43575000Y-22888000D03*
X45325000Y-26388000D03*
X43575000Y-26388000D03*
D22*
X41402000Y-23284000D03*
X41402000Y-24384000D03*
D12*
X24194462Y-51893025D03*
D10*
G36*
X24005006Y-52262691D02*
X23799103Y-51765598D01*
X24383918Y-51523359D01*
X24589821Y-52020452D01*
X24005006Y-52262691D01*
X24005006Y-52262691D01*
G37*
D12*
X24864158Y-53509815D03*
D10*
G36*
X24674702Y-53879481D02*
X24468799Y-53382388D01*
X25053614Y-53140149D01*
X25259517Y-53637242D01*
X24674702Y-53879481D01*
X24674702Y-53879481D01*
G37*
D12*
X27428040Y-50553633D03*
D10*
G36*
X27238584Y-50923299D02*
X27032681Y-50426206D01*
X27617496Y-50183967D01*
X27823399Y-50681060D01*
X27238584Y-50923299D01*
X27238584Y-50923299D01*
G37*
D12*
X28097736Y-52170423D03*
D10*
G36*
X27908280Y-52540089D02*
X27702377Y-52042996D01*
X28287192Y-51800757D01*
X28493095Y-52297850D01*
X27908280Y-52540089D01*
X27908280Y-52540089D01*
G37*
D12*
X24864158Y-35390185D03*
D10*
G36*
X24468799Y-35517612D02*
X24674702Y-35020519D01*
X25259517Y-35262758D01*
X25053614Y-35759851D01*
X24468799Y-35517612D01*
X24468799Y-35517612D01*
G37*
D12*
X24194462Y-37006975D03*
D10*
G36*
X23799103Y-37134402D02*
X24005006Y-36637309D01*
X24589821Y-36879548D01*
X24383918Y-37376641D01*
X23799103Y-37134402D01*
X23799103Y-37134402D01*
G37*
D12*
X28097736Y-36729577D03*
D10*
G36*
X27702377Y-36857004D02*
X27908280Y-36359911D01*
X28493095Y-36602150D01*
X28287192Y-37099243D01*
X27702377Y-36857004D01*
X27702377Y-36857004D01*
G37*
D12*
X27428040Y-38346367D03*
D10*
G36*
X27032681Y-38473794D02*
X27238584Y-37976701D01*
X27823399Y-38218940D01*
X27617496Y-38716033D01*
X27032681Y-38473794D01*
X27032681Y-38473794D01*
G37*
D12*
X37006975Y-24194462D03*
D10*
G36*
X36637309Y-24005006D02*
X37134402Y-23799103D01*
X37376641Y-24383918D01*
X36879548Y-24589821D01*
X36637309Y-24005006D01*
X36637309Y-24005006D01*
G37*
D12*
X35390185Y-24864158D03*
D10*
G36*
X35020519Y-24674702D02*
X35517612Y-24468799D01*
X35759851Y-25053614D01*
X35262758Y-25259517D01*
X35020519Y-24674702D01*
X35020519Y-24674702D01*
G37*
D12*
X38346367Y-27428040D03*
D10*
G36*
X37976701Y-27238584D02*
X38473794Y-27032681D01*
X38716033Y-27617496D01*
X38218940Y-27823399D01*
X37976701Y-27238584D01*
X37976701Y-27238584D01*
G37*
D12*
X36729577Y-28097736D03*
D10*
G36*
X36359911Y-27908280D02*
X36857004Y-27702377D01*
X37099243Y-28287192D01*
X36602150Y-28493095D01*
X36359911Y-27908280D01*
X36359911Y-27908280D01*
G37*
D12*
X64705538Y-37006975D03*
D10*
G36*
X64894994Y-36637309D02*
X65100897Y-37134402D01*
X64516082Y-37376641D01*
X64310179Y-36879548D01*
X64894994Y-36637309D01*
X64894994Y-36637309D01*
G37*
D12*
X64035842Y-35390185D03*
D10*
G36*
X64225298Y-35020519D02*
X64431201Y-35517612D01*
X63846386Y-35759851D01*
X63640483Y-35262758D01*
X64225298Y-35020519D01*
X64225298Y-35020519D01*
G37*
D12*
X61471960Y-38346367D03*
D10*
G36*
X61661416Y-37976701D02*
X61867319Y-38473794D01*
X61282504Y-38716033D01*
X61076601Y-38218940D01*
X61661416Y-37976701D01*
X61661416Y-37976701D01*
G37*
D12*
X60802264Y-36729577D03*
D10*
G36*
X60991720Y-36359911D02*
X61197623Y-36857004D01*
X60612808Y-37099243D01*
X60406905Y-36602150D01*
X60991720Y-36359911D01*
X60991720Y-36359911D01*
G37*
D13*
X66012000Y-45325000D03*
X66012000Y-43575000D03*
X62512000Y-45325000D03*
X62512000Y-43575000D03*
D12*
X59077918Y-60315355D03*
D10*
G36*
X59491947Y-60348925D02*
X59111488Y-60729384D01*
X58663889Y-60281785D01*
X59044348Y-59901326D01*
X59491947Y-60348925D01*
X59491947Y-60348925D01*
G37*
D12*
X60315355Y-59077918D03*
D10*
G36*
X60729384Y-59111488D02*
X60348925Y-59491947D01*
X59901326Y-59044348D01*
X60281785Y-58663889D01*
X60729384Y-59111488D01*
X60729384Y-59111488D01*
G37*
D12*
X56603045Y-57840482D03*
D10*
G36*
X57017074Y-57874052D02*
X56636615Y-58254511D01*
X56189016Y-57806912D01*
X56569475Y-57426453D01*
X57017074Y-57874052D01*
X57017074Y-57874052D01*
G37*
D12*
X57840482Y-56603045D03*
D10*
G36*
X58254511Y-56636615D02*
X57874052Y-57017074D01*
X57426453Y-56569475D01*
X57806912Y-56189016D01*
X58254511Y-56636615D01*
X58254511Y-56636615D01*
G37*
D12*
X51893025Y-64705538D03*
D10*
G36*
X52262691Y-64894994D02*
X51765598Y-65100897D01*
X51523359Y-64516082D01*
X52020452Y-64310179D01*
X52262691Y-64894994D01*
X52262691Y-64894994D01*
G37*
D12*
X53509815Y-64035842D03*
D10*
G36*
X53879481Y-64225298D02*
X53382388Y-64431201D01*
X53140149Y-63846386D01*
X53637242Y-63640483D01*
X53879481Y-64225298D01*
X53879481Y-64225298D01*
G37*
D12*
X50553633Y-61471960D03*
D10*
G36*
X50923299Y-61661416D02*
X50426206Y-61867319D01*
X50183967Y-61282504D01*
X50681060Y-61076601D01*
X50923299Y-61661416D01*
X50923299Y-61661416D01*
G37*
D12*
X52170423Y-60802264D03*
D10*
G36*
X52540089Y-60991720D02*
X52042996Y-61197623D01*
X51800757Y-60612808D01*
X52297850Y-60406905D01*
X52540089Y-60991720D01*
X52540089Y-60991720D01*
G37*
D20*
X44746000Y-59944000D03*
X43646000Y-59944000D03*
D21*
X43575000Y-66012000D03*
X45325000Y-66012000D03*
X43575000Y-62512000D03*
X45325000Y-62512000D03*
D22*
X51562000Y-41868000D03*
X51562000Y-42968000D03*
D20*
X57108000Y-35687000D03*
X58208000Y-35687000D03*
D22*
X54864000Y-35687000D03*
X54864000Y-34587000D03*
X39370000Y-43265000D03*
X39370000Y-44365000D03*
D20*
X41952000Y-40640000D03*
X40852000Y-40640000D03*
D22*
X44450000Y-34840000D03*
X44450000Y-33740000D03*
X42418000Y-34840000D03*
X42418000Y-33740000D03*
X43700000Y-48556000D03*
X43700000Y-47456000D03*
X52578000Y-58504000D03*
X52578000Y-57404000D03*
D14*
X47764700Y-49530000D03*
X49263300Y-49530000D03*
X41148000Y-56629300D03*
X41148000Y-55130700D03*
D23*
X42200000Y-43700000D03*
X42200000Y-44200000D03*
X42200000Y-44700000D03*
D24*
X43200000Y-42887500D03*
X43700000Y-42887500D03*
X44200000Y-42887500D03*
X44700000Y-42887500D03*
X45200000Y-42887500D03*
X45700000Y-42887500D03*
X46200000Y-42887500D03*
X46700000Y-42887500D03*
D23*
X46700000Y-43700000D03*
X46700000Y-44200000D03*
X46700000Y-44700000D03*
X46700000Y-45200000D03*
D24*
X46700000Y-46012500D03*
X46200000Y-46012500D03*
X45700000Y-46012500D03*
X45200000Y-46012500D03*
X44700000Y-46012500D03*
X44200000Y-46012500D03*
X43700000Y-46012500D03*
X43200000Y-46012500D03*
X42700000Y-46012500D03*
X42200000Y-46012500D03*
D23*
X42200000Y-45200000D03*
D24*
X42700000Y-42887500D03*
X42200000Y-42887500D03*
D25*
X49264000Y-58674000D03*
X47764000Y-58674000D03*
D26*
X48387000Y-42926000D03*
X48387000Y-44426000D03*
X50038000Y-45478000D03*
X50038000Y-46978000D03*
D25*
X52820000Y-49530000D03*
X51320000Y-49530000D03*
D26*
X32004000Y-38112000D03*
X32004000Y-39612000D03*
X42164000Y-52058000D03*
X42164000Y-50558000D03*
D27*
X54517638Y-56434484D03*
D10*
G36*
X54609396Y-56051787D02*
X54900335Y-56342726D01*
X54425880Y-56817181D01*
X54134941Y-56526242D01*
X54609396Y-56051787D01*
X54609396Y-56051787D01*
G37*
D27*
X53174135Y-55090981D03*
D10*
G36*
X53265893Y-54708284D02*
X53556832Y-54999223D01*
X53082377Y-55473678D01*
X52791438Y-55182739D01*
X53265893Y-54708284D01*
X53265893Y-54708284D01*
G37*
D27*
X54729770Y-53535346D03*
D10*
G36*
X54821528Y-53152649D02*
X55112467Y-53443588D01*
X54638012Y-53918043D01*
X54347073Y-53627104D01*
X54821528Y-53152649D01*
X54821528Y-53152649D01*
G37*
D27*
X55401521Y-54207098D03*
D10*
G36*
X55493279Y-53824401D02*
X55784218Y-54115340D01*
X55309763Y-54589795D01*
X55018824Y-54298856D01*
X55493279Y-53824401D01*
X55493279Y-53824401D01*
G37*
D27*
X56073273Y-54878849D03*
D10*
G36*
X56165031Y-54496152D02*
X56455970Y-54787091D01*
X55981515Y-55261546D01*
X55690576Y-54970607D01*
X56165031Y-54496152D01*
X56165031Y-54496152D01*
G37*
D28*
X54757000Y-37846000D03*
X57257000Y-37846000D03*
X42184000Y-37338000D03*
X44684000Y-37338000D03*
D29*
X60452000Y-46216000D03*
X60452000Y-44716000D03*
D22*
X60452000Y-42122000D03*
X60452000Y-43222000D03*
D30*
X36868000Y-39642000D03*
X36868000Y-35542000D03*
X35268000Y-35542000D03*
X35268000Y-39642000D03*
D15*
X49294000Y-29642000D03*
X45194000Y-29642000D03*
X45194000Y-31242000D03*
X49294000Y-31242000D03*
X33510000Y-49314000D03*
X37610000Y-49314000D03*
X37610000Y-47714000D03*
X33510000Y-47714000D03*
D30*
X49530000Y-56678000D03*
X49530000Y-52578000D03*
X47930000Y-52578000D03*
X47930000Y-56678000D03*
D20*
X51350000Y-38354000D03*
X50250000Y-38354000D03*
D25*
X46978000Y-39878000D03*
X45478000Y-39878000D03*
X49542000Y-39878000D03*
X51042000Y-39878000D03*
D31*
X48989255Y-63315737D03*
D10*
G36*
X49319068Y-63452350D02*
X48852642Y-63645550D01*
X48659442Y-63179124D01*
X49125868Y-62985924D01*
X49319068Y-63452350D01*
X49319068Y-63452350D01*
G37*
D31*
X49562745Y-64700263D03*
D10*
G36*
X49892558Y-64836876D02*
X49426132Y-65030076D01*
X49232932Y-64563650D01*
X49699358Y-64370450D01*
X49892558Y-64836876D01*
X49892558Y-64836876D01*
G37*
D26*
X53848000Y-31750000D03*
X53848000Y-30250000D03*
D32*
X32544000Y-43688000D03*
X36544000Y-43688000D03*
M02*
