M48
;DRILL file {KiCad 201609251018+7233~55~ubuntu16.04.1-} date Mon Sep 26 22:51:03 2016
;FORMAT={-:-/ absolute / inch / decimal}
FMAT,2
INCH,TZ
T1C0.013
T2C0.015
T3C0.020
T4C0.033
T5C0.045
T6C0.087
%
G90
G05
M72
T1
X1.605Y-1.285
X1.69Y-2.1362
X1.69Y-2.1642
X2.05Y-1.58
X2.16Y-1.95
X2.305Y-1.85
T2
X0.845Y-1.715
X0.845Y-1.795
X0.8967Y-1.4452
X0.9005Y-2.064
X0.9273Y-1.3713
X0.9311Y-2.1379
X0.98Y-1.75
X1.0386Y-1.4553
X1.0386Y-2.0447
X1.0782Y-1.1419
X1.0853Y-2.3652
X1.1348Y-1.0853
X1.1419Y-2.4218
X1.2055Y-1.2055
X1.2055Y-2.2945
X1.3621Y-0.9311
X1.3713Y-2.5727
X1.436Y-0.9005
X1.4452Y-2.6033
X1.4553Y-1.0386
X1.505Y-1.745
X1.53Y-2.515
X1.59Y-1.46
X1.6033Y-1.665
X1.61Y-1.94
X1.615Y-2.4
X1.63Y-1.56
X1.63Y-1.9
X1.675Y-2.685
X1.705Y-0.845
X1.715Y-2.655
X1.75Y-0.98
X1.785Y-0.845
X1.8Y-1.33
X1.82Y-1.91
X1.92Y-1.85
X1.94Y-2.56
X1.96Y-1.41
X1.9606Y-1.6594
X1.98Y-1.62
X2.03Y-1.78
X2.03Y-1.86
X2.03Y-2.57
X2.0447Y-1.0386
X2.0548Y-0.8967
X2.06Y-2.25
X2.064Y-2.5995
X2.1287Y-0.9273
X2.1379Y-2.5689
X2.1505Y-1.8895
X2.17Y-1.29
X2.18Y-1.75
X2.22Y-2.03
X2.2917Y-1.3483
X2.32Y-1.78
X2.33Y-1.5787
X2.33Y-1.615
X2.33Y-1.71
X2.3581Y-1.0782
X2.3652Y-2.4147
X2.39Y-1.61
X2.4147Y-1.1348
X2.4218Y-2.3581
X2.5689Y-1.3621
X2.5727Y-2.1287
X2.5995Y-1.436
X2.6033Y-2.0548
X2.655Y-1.705
X2.655Y-1.785
T3
X1.077Y-2.163
X1.0811Y-1.957
X1.19Y-2.035
X1.303Y-2.163
X1.37Y-1.85
X1.41Y-1.23
X1.41Y-1.95
X1.5Y-1.8
X1.59Y-2.31
X1.7402Y-1.7502
X2.04Y-2.01
X2.1655Y-2.3
T4
X1.6516Y-2.5885
X1.8484Y-2.5885
T5
X1.6122Y-2.6948
X1.8878Y-2.6948
T6
X1.105Y-1.635
X2.38Y-1.96
T0
M30
