G04 #@! TF.FileFunction,Paste,Bot*
%FSLAX46Y46*%
G04 Gerber Fmt 4.6, Leading zero omitted, Abs format (unit mm)*
G04 Created by KiCad (PCBNEW 201611251247+7376~55~ubuntu16.10.1-product) date Fri Nov 25 19:08:55 2016*
%MOMM*%
%LPD*%
G01*
G04 APERTURE LIST*
%ADD10C,0.100000*%
%ADD11C,0.981150*%
%ADD12O,0.791250X0.601350*%
%ADD13R,0.253200X0.854550*%
%ADD14C,0.633000*%
%ADD15C,1.012800*%
%ADD16C,0.253200*%
%ADD17C,0.189900*%
%ADD18C,0.759600*%
%ADD19C,0.316500*%
%ADD20R,0.316500X0.633000*%
%ADD21R,0.759600X1.076100*%
%ADD22R,1.538190X1.500210*%
%ADD23R,1.500210X1.538190*%
%ADD24R,0.443100X0.158250*%
%ADD25R,0.366000X0.426000*%
%ADD26R,0.569700X0.316500*%
%ADD27R,0.411450X0.670980*%
%ADD28R,0.316500X0.569700*%
%ADD29R,0.633000X0.791250*%
%ADD30R,0.791250X0.633000*%
%ADD31R,0.506400X0.189900*%
%ADD32R,0.506400X0.253200*%
G04 APERTURE END LIST*
D10*
D11*
X40950000Y-68447460D03*
X47950000Y-68447460D03*
D12*
X41950000Y-65747460D03*
X46950000Y-65747460D03*
D13*
X43150000Y-65747460D03*
X43800000Y-65747460D03*
X44450000Y-65747460D03*
X45100000Y-65747460D03*
X45750000Y-65747460D03*
D14*
X57418885Y-56004672D03*
D10*
G36*
X56859387Y-54997575D02*
X58425982Y-56564170D01*
X57978383Y-57011769D01*
X56411788Y-55445174D01*
X56859387Y-54997575D01*
X56859387Y-54997575D01*
G37*
D14*
X56004672Y-57418885D03*
D10*
G36*
X55445174Y-56411788D02*
X57011769Y-57978383D01*
X56564170Y-58425982D01*
X54997575Y-56859387D01*
X55445174Y-56411788D01*
X55445174Y-56411788D01*
G37*
D15*
X63040384Y-58232058D03*
D10*
G36*
X62637545Y-57113062D02*
X64159380Y-58634897D01*
X63443223Y-59351054D01*
X61921388Y-57829219D01*
X62637545Y-57113062D01*
X62637545Y-57113062D01*
G37*
D15*
X58232058Y-63040384D03*
D10*
G36*
X57829219Y-61921388D02*
X59351054Y-63443223D01*
X58634897Y-64159380D01*
X57113062Y-62637545D01*
X57829219Y-61921388D01*
X57829219Y-61921388D01*
G37*
D16*
X21310531Y-37300701D03*
D10*
G36*
X21496010Y-37514560D02*
X21028157Y-37320769D01*
X21125052Y-37086842D01*
X21592905Y-37280633D01*
X21496010Y-37514560D01*
X21496010Y-37514560D01*
G37*
D16*
X23032606Y-33143243D03*
D10*
G36*
X23218085Y-33357102D02*
X22750232Y-33163311D01*
X22847127Y-32929384D01*
X23314980Y-33123175D01*
X23218085Y-33357102D01*
X23218085Y-33357102D01*
G37*
D17*
X24194255Y-36871590D03*
D10*
G36*
X24391846Y-37056208D02*
X23923993Y-36862417D01*
X23996664Y-36686972D01*
X24464517Y-36880763D01*
X24391846Y-37056208D01*
X24391846Y-37056208D01*
G37*
D17*
X24576938Y-35947710D03*
D10*
G36*
X24774529Y-36132328D02*
X24306676Y-35938537D01*
X24379347Y-35763092D01*
X24847200Y-35956883D01*
X24774529Y-36132328D01*
X24774529Y-36132328D01*
G37*
D17*
X24385596Y-36409650D03*
D10*
G36*
X24583187Y-36594268D02*
X24115334Y-36400477D01*
X24188005Y-36225032D01*
X24655858Y-36418823D01*
X24583187Y-36594268D01*
X24583187Y-36594268D01*
G37*
D17*
X24768280Y-35485770D03*
D10*
G36*
X24965871Y-35670388D02*
X24498018Y-35476597D01*
X24570689Y-35301152D01*
X25038542Y-35494943D01*
X24965871Y-35670388D01*
X24965871Y-35670388D01*
G37*
D17*
X24002913Y-37333530D03*
D10*
G36*
X24200504Y-37518148D02*
X23732651Y-37324357D01*
X23805322Y-37148912D01*
X24273175Y-37342703D01*
X24200504Y-37518148D01*
X24200504Y-37518148D01*
G37*
D17*
X24959622Y-35023831D03*
D10*
G36*
X25157213Y-35208449D02*
X24689360Y-35014658D01*
X24762031Y-34839213D01*
X25229884Y-35033004D01*
X25157213Y-35208449D01*
X25157213Y-35208449D01*
G37*
D16*
X28989817Y-63092163D03*
D10*
G36*
X29258376Y-63002643D02*
X28900297Y-63360722D01*
X28721258Y-63181683D01*
X29079337Y-62823604D01*
X29258376Y-63002643D01*
X29258376Y-63002643D01*
G37*
D16*
X25807837Y-59910183D03*
D10*
G36*
X26076396Y-59820663D02*
X25718317Y-60178742D01*
X25539278Y-59999703D01*
X25897357Y-59641624D01*
X26076396Y-59820663D01*
X26076396Y-59820663D01*
G37*
D17*
X29696924Y-60263736D03*
D10*
G36*
X29943103Y-60151836D02*
X29585024Y-60509915D01*
X29450745Y-60375636D01*
X29808824Y-60017557D01*
X29943103Y-60151836D01*
X29943103Y-60151836D01*
G37*
D17*
X28989817Y-59556629D03*
D10*
G36*
X29235996Y-59444729D02*
X28877917Y-59802808D01*
X28743638Y-59668529D01*
X29101717Y-59310450D01*
X29235996Y-59444729D01*
X29235996Y-59444729D01*
G37*
D17*
X29343371Y-59910183D03*
D10*
G36*
X29589550Y-59798283D02*
X29231471Y-60156362D01*
X29097192Y-60022083D01*
X29455271Y-59664004D01*
X29589550Y-59798283D01*
X29589550Y-59798283D01*
G37*
D17*
X28636264Y-59203076D03*
D10*
G36*
X28882443Y-59091176D02*
X28524364Y-59449255D01*
X28390085Y-59314976D01*
X28748164Y-58956897D01*
X28882443Y-59091176D01*
X28882443Y-59091176D01*
G37*
D17*
X30050478Y-60617289D03*
D10*
G36*
X30296657Y-60505389D02*
X29938578Y-60863468D01*
X29804299Y-60729189D01*
X30162378Y-60371110D01*
X30296657Y-60505389D01*
X30296657Y-60505389D01*
G37*
D17*
X28282711Y-58849522D03*
D10*
G36*
X28528890Y-58737622D02*
X28170811Y-59095701D01*
X28036532Y-58961422D01*
X28394611Y-58603343D01*
X28528890Y-58737622D01*
X28528890Y-58737622D01*
G37*
D16*
X23032606Y-55756757D03*
D10*
G36*
X23314980Y-55776825D02*
X22847127Y-55970616D01*
X22750232Y-55736689D01*
X23218085Y-55542898D01*
X23314980Y-55776825D01*
X23314980Y-55776825D01*
G37*
D16*
X21310531Y-51599299D03*
D10*
G36*
X21592905Y-51619367D02*
X21125052Y-51813158D01*
X21028157Y-51579231D01*
X21496010Y-51385440D01*
X21592905Y-51619367D01*
X21592905Y-51619367D01*
G37*
D17*
X24768280Y-53414230D03*
D10*
G36*
X25038542Y-53405057D02*
X24570689Y-53598848D01*
X24498018Y-53423403D01*
X24965871Y-53229612D01*
X25038542Y-53405057D01*
X25038542Y-53405057D01*
G37*
D17*
X24385596Y-52490350D03*
D10*
G36*
X24655858Y-52481177D02*
X24188005Y-52674968D01*
X24115334Y-52499523D01*
X24583187Y-52305732D01*
X24655858Y-52481177D01*
X24655858Y-52481177D01*
G37*
D17*
X24576938Y-52952290D03*
D10*
G36*
X24847200Y-52943117D02*
X24379347Y-53136908D01*
X24306676Y-52961463D01*
X24774529Y-52767672D01*
X24847200Y-52943117D01*
X24847200Y-52943117D01*
G37*
D17*
X24194255Y-52028410D03*
D10*
G36*
X24464517Y-52019237D02*
X23996664Y-52213028D01*
X23923993Y-52037583D01*
X24391846Y-51843792D01*
X24464517Y-52019237D01*
X24464517Y-52019237D01*
G37*
D17*
X24959622Y-53876169D03*
D10*
G36*
X25229884Y-53866996D02*
X24762031Y-54060787D01*
X24689360Y-53885342D01*
X25157213Y-53691551D01*
X25229884Y-53866996D01*
X25229884Y-53866996D01*
G37*
D17*
X24002913Y-51566470D03*
D10*
G36*
X24273175Y-51557297D02*
X23805322Y-51751088D01*
X23732651Y-51575643D01*
X24200504Y-51381852D01*
X24273175Y-51557297D01*
X24273175Y-51557297D01*
G37*
D18*
X25262658Y-29929562D03*
D10*
G36*
X25374558Y-30578580D02*
X24613640Y-29817662D01*
X25150758Y-29280544D01*
X25911676Y-30041462D01*
X25374558Y-30578580D01*
X25374558Y-30578580D01*
G37*
D18*
X29929562Y-25262658D03*
D10*
G36*
X30041462Y-25911676D02*
X29280544Y-25150758D01*
X29817662Y-24613640D01*
X30578580Y-25374558D01*
X30041462Y-25911676D01*
X30041462Y-25911676D01*
G37*
D19*
X30389182Y-27560755D03*
D10*
G36*
X30501082Y-27896454D02*
X30053483Y-27448855D01*
X30277282Y-27225056D01*
X30724881Y-27672655D01*
X30501082Y-27896454D01*
X30501082Y-27896454D01*
G37*
D19*
X29823496Y-28126440D03*
D10*
G36*
X29935396Y-28462139D02*
X29487797Y-28014540D01*
X29711596Y-27790741D01*
X30159195Y-28238340D01*
X29935396Y-28462139D01*
X29935396Y-28462139D01*
G37*
D19*
X29257811Y-28692125D03*
D10*
G36*
X29369711Y-29027824D02*
X28922112Y-28580225D01*
X29145911Y-28356426D01*
X29593510Y-28804025D01*
X29369711Y-29027824D01*
X29369711Y-29027824D01*
G37*
D19*
X28692125Y-29257811D03*
D10*
G36*
X28804025Y-29593510D02*
X28356426Y-29145911D01*
X28580225Y-28922112D01*
X29027824Y-29369711D01*
X28804025Y-29593510D01*
X28804025Y-29593510D01*
G37*
D19*
X28126440Y-29823496D03*
D10*
G36*
X28238340Y-30159195D02*
X27790741Y-29711596D01*
X28014540Y-29487797D01*
X28462139Y-29935396D01*
X28238340Y-30159195D01*
X28238340Y-30159195D01*
G37*
D19*
X27560755Y-30389182D03*
D10*
G36*
X27672655Y-30724881D02*
X27225056Y-30277282D01*
X27448855Y-30053483D01*
X27896454Y-30501082D01*
X27672655Y-30724881D01*
X27672655Y-30724881D01*
G37*
D18*
X32279938Y-23692187D03*
D10*
G36*
X32134951Y-24334624D02*
X31723146Y-23340437D01*
X32424925Y-23049750D01*
X32836730Y-24043937D01*
X32134951Y-24334624D01*
X32134951Y-24334624D01*
G37*
D18*
X38377543Y-21166476D03*
D10*
G36*
X38232556Y-21808913D02*
X37820751Y-20814726D01*
X38522530Y-20524039D01*
X38934335Y-21518226D01*
X38232556Y-21808913D01*
X38232556Y-21808913D01*
G37*
D19*
X37922731Y-23465530D03*
D10*
G36*
X37897646Y-23818498D02*
X37655408Y-23233682D01*
X37947816Y-23112562D01*
X38190054Y-23697378D01*
X37897646Y-23818498D01*
X37897646Y-23818498D01*
G37*
D19*
X37183629Y-23771676D03*
D10*
G36*
X37158544Y-24124644D02*
X36916306Y-23539828D01*
X37208714Y-23418708D01*
X37450952Y-24003524D01*
X37158544Y-24124644D01*
X37158544Y-24124644D01*
G37*
D19*
X36444525Y-24077823D03*
D10*
G36*
X36419440Y-24430791D02*
X36177202Y-23845975D01*
X36469610Y-23724855D01*
X36711848Y-24309671D01*
X36419440Y-24430791D01*
X36419440Y-24430791D01*
G37*
D19*
X35705422Y-24383970D03*
D10*
G36*
X35680337Y-24736938D02*
X35438099Y-24152122D01*
X35730507Y-24031002D01*
X35972745Y-24615818D01*
X35680337Y-24736938D01*
X35680337Y-24736938D01*
G37*
D19*
X34966318Y-24690117D03*
D10*
G36*
X34941233Y-25043085D02*
X34698995Y-24458269D01*
X34991403Y-24337149D01*
X35233641Y-24921965D01*
X34941233Y-25043085D01*
X34941233Y-25043085D01*
G37*
D19*
X34227214Y-24996263D03*
D10*
G36*
X34202129Y-25349231D02*
X33959891Y-24764415D01*
X34252299Y-24643295D01*
X34494537Y-25228111D01*
X34202129Y-25349231D01*
X34202129Y-25349231D01*
G37*
D18*
X50522457Y-21166476D03*
D10*
G36*
X49965665Y-21518226D02*
X50377470Y-20524039D01*
X51079249Y-20814726D01*
X50667444Y-21808913D01*
X49965665Y-21518226D01*
X49965665Y-21518226D01*
G37*
D18*
X56620062Y-23692187D03*
D10*
G36*
X56063270Y-24043937D02*
X56475075Y-23049750D01*
X57176854Y-23340437D01*
X56765049Y-24334624D01*
X56063270Y-24043937D01*
X56063270Y-24043937D01*
G37*
D19*
X54672786Y-24996263D03*
D10*
G36*
X54405463Y-25228111D02*
X54647701Y-24643295D01*
X54940109Y-24764415D01*
X54697871Y-25349231D01*
X54405463Y-25228111D01*
X54405463Y-25228111D01*
G37*
D19*
X53933682Y-24690117D03*
D10*
G36*
X53666359Y-24921965D02*
X53908597Y-24337149D01*
X54201005Y-24458269D01*
X53958767Y-25043085D01*
X53666359Y-24921965D01*
X53666359Y-24921965D01*
G37*
D19*
X53194578Y-24383970D03*
D10*
G36*
X52927255Y-24615818D02*
X53169493Y-24031002D01*
X53461901Y-24152122D01*
X53219663Y-24736938D01*
X52927255Y-24615818D01*
X52927255Y-24615818D01*
G37*
D19*
X52455475Y-24077823D03*
D10*
G36*
X52188152Y-24309671D02*
X52430390Y-23724855D01*
X52722798Y-23845975D01*
X52480560Y-24430791D01*
X52188152Y-24309671D01*
X52188152Y-24309671D01*
G37*
D19*
X51716371Y-23771676D03*
D10*
G36*
X51449048Y-24003524D02*
X51691286Y-23418708D01*
X51983694Y-23539828D01*
X51741456Y-24124644D01*
X51449048Y-24003524D01*
X51449048Y-24003524D01*
G37*
D19*
X50977269Y-23465530D03*
D10*
G36*
X50709946Y-23697378D02*
X50952184Y-23112562D01*
X51244592Y-23233682D01*
X51002354Y-23818498D01*
X50709946Y-23697378D01*
X50709946Y-23697378D01*
G37*
D20*
X42450000Y-22565000D03*
X43250000Y-22565000D03*
X44050000Y-22565000D03*
X44850000Y-22565000D03*
X45650000Y-22565000D03*
X46450000Y-22565000D03*
D21*
X47750000Y-20615000D03*
X41150000Y-20615000D03*
D22*
X36322000Y-33964000D03*
X36322000Y-40204000D03*
D23*
X32440000Y-48514000D03*
X38680000Y-48514000D03*
D24*
X41311000Y-54364000D03*
X41311000Y-54864000D03*
X41311000Y-55364000D03*
X39461000Y-55364000D03*
X39461000Y-54864000D03*
X39461000Y-54364000D03*
D25*
X40386000Y-55219000D03*
X40386000Y-54509000D03*
D26*
X29718000Y-46494000D03*
X29718000Y-47994000D03*
D27*
X33716000Y-45042000D03*
X32766000Y-45042000D03*
X31816000Y-45042000D03*
X31816000Y-42842000D03*
X33716000Y-42842000D03*
D28*
X49542000Y-39878000D03*
X51042000Y-39878000D03*
X55130000Y-34290000D03*
X56630000Y-34290000D03*
D26*
X50419000Y-61226000D03*
X50419000Y-62726000D03*
D19*
X45189670Y-52092330D03*
D10*
G36*
X45279190Y-52405649D02*
X44876351Y-52002810D01*
X45100150Y-51779011D01*
X45502989Y-52181850D01*
X45279190Y-52405649D01*
X45279190Y-52405649D01*
G37*
D19*
X46250330Y-51031670D03*
D10*
G36*
X46339850Y-51344989D02*
X45937011Y-50942150D01*
X46160810Y-50718351D01*
X46563649Y-51121190D01*
X46339850Y-51344989D01*
X46339850Y-51344989D01*
G37*
D27*
X47818000Y-52494000D03*
X48768000Y-52494000D03*
X49718000Y-52494000D03*
X49718000Y-54694000D03*
X47818000Y-54694000D03*
D29*
X48022000Y-50038000D03*
X50022000Y-50038000D03*
X49800000Y-43688000D03*
X51800000Y-43688000D03*
D30*
X60960000Y-43434000D03*
X60960000Y-45434000D03*
D31*
X22836000Y-43200000D03*
X22836000Y-45700000D03*
X22836000Y-43700000D03*
X22836000Y-44700000D03*
X22836000Y-44200000D03*
X22836000Y-45200000D03*
D32*
X20336000Y-42200000D03*
X20336000Y-46700000D03*
M02*
