  0
SECTION
  2
HEADER
  9
$ANGBASE
  50
0.0
  9
$ANGDIR
  70
  1
  9
$MEASUREMENT
  70
0
  0
ENDSEC
  0
SECTION
  2
TABLES
  0
TABLE
  2
LTYPE
  70
1
  0
LTYPE
  2
CONTINUOUS
  70
0
  3
Solid line
  72
65
  73
0
  40
0.0
  0
ENDTAB
  0
TABLE
  2
STYLE
  70
4
  0
STYLE
  2
KICAD
  70
0
  40
0
  41
1
  42
1
  50
0
  71
0
  3
isocp.shx
  0
STYLE
  2
KICADB
  70
0
  40
0
  41
1
  42
1
  50
0
  71
0
  3
isocp.shx
  0
STYLE
  2
KICADI
  70
0
  40
0
  41
1
  42
1
  50
15
  71
0
  3
isocp.shx
  0
STYLE
  2
KICADBI
  70
0
  40
0
  41
1
  42
1
  50
15
  71
0
  3
isocp.shx
  0
ENDTAB
  0
TABLE
  2
LAYER
  70
30
  0
LAYER
  2
BLACK
  70
0
  62
7
  6
CONTINUOUS
  0
LAYER
  2
GRAY1
  70
0
  62
251
  6
CONTINUOUS
  0
LAYER
  2
GRAY2
  70
0
  62
8
  6
CONTINUOUS
  0
LAYER
  2
GRAY3
  70
0
  62
9
  6
CONTINUOUS
  0
LAYER
  2
WHITE
  70
0
  62
7
  6
CONTINUOUS
  0
LAYER
  2
LYELLOW
  70
0
  62
51
  6
CONTINUOUS
  0
LAYER
  2
BLUE1
  70
0
  62
178
  6
CONTINUOUS
  0
LAYER
  2
GREEN1
  70
0
  62
98
  6
CONTINUOUS
  0
LAYER
  2
CYAN1
  70
0
  62
138
  6
CONTINUOUS
  0
LAYER
  2
RED1
  70
0
  62
18
  6
CONTINUOUS
  0
LAYER
  2
MAGENTA1
  70
0
  62
228
  6
CONTINUOUS
  0
LAYER
  2
BROWN1
  70
0
  62
58
  6
CONTINUOUS
  0
LAYER
  2
BLUE2
  70
0
  62
5
  6
CONTINUOUS
  0
LAYER
  2
GREEN2
  70
0
  62
3
  6
CONTINUOUS
  0
LAYER
  2
CYAN2
  70
0
  62
4
  6
CONTINUOUS
  0
LAYER
  2
RED2
  70
0
  62
1
  6
CONTINUOUS
  0
LAYER
  2
MAGENTA2
  70
0
  62
6
  6
CONTINUOUS
  0
LAYER
  2
BROWN2
  70
0
  62
54
  6
CONTINUOUS
  0
LAYER
  2
BLUE3
  70
0
  62
171
  6
CONTINUOUS
  0
LAYER
  2
GREEN3
  70
0
  62
91
  6
CONTINUOUS
  0
LAYER
  2
CYAN3
  70
0
  62
131
  6
CONTINUOUS
  0
LAYER
  2
RED3
  70
0
  62
11
  6
CONTINUOUS
  0
LAYER
  2
MAGENTA3
  70
0
  62
221
  6
CONTINUOUS
  0
LAYER
  2
YELLOW3
  70
0
  62
2
  6
CONTINUOUS
  0
LAYER
  2
BLUE4
  70
0
  62
5
  6
CONTINUOUS
  0
LAYER
  2
GREEN4
  70
0
  62
3
  6
CONTINUOUS
  0
LAYER
  2
CYAN4
  70
0
  62
4
  6
CONTINUOUS
  0
LAYER
  2
RED4
  70
0
  62
1
  6
CONTINUOUS
  0
LAYER
  2
MAGENTA4
  70
0
  62
6
  6
CONTINUOUS
  0
LAYER
  2
YELLOW4
  70
0
  62
2
  6
CONTINUOUS
  0
ENDTAB
  0
ENDSEC
  0
SECTION
  2
ENTITIES
0
LINE
8
Black
10
43.9575
20
-66.462
11
43.1925
21
-66.462
0
LINE
8
Black
10
43.1925
20
-66.462
11
43.1925
21
-65.562
0
LINE
8
Black
10
43.1925
20
-65.562
11
43.9575
21
-65.562
0
LINE
8
Black
10
43.9575
20
-65.562
11
43.9575
21
-66.462
0
LINE
8
Black
10
45.7075
20
-66.462
11
44.9425
21
-66.462
0
LINE
8
Black
10
44.9425
20
-66.462
11
44.9425
21
-65.562
0
LINE
8
Black
10
44.9425
20
-65.562
11
45.7075
21
-65.562
0
LINE
8
Black
10
45.7075
20
-65.562
11
45.7075
21
-66.462
0
LINE
8
Black
10
39.4773
20
-65.0079
11
39.2707
21
-65.5068
0
LINE
8
Black
10
39.2707
20
-65.5068
11
38.8549
21
-65.3346
0
LINE
8
Black
10
38.8549
20
-65.3346
11
39.0616
21
-64.8357
0
LINE
8
Black
10
39.0616
20
-64.8357
11
39.4773
21
-65.0079
0
LINE
8
Black
10
52.4186
20
-64.9749
11
51.7118
21
-65.2677
0
LINE
8
Black
10
51.7118
20
-65.2677
11
51.3674
21
-64.4362
0
LINE
8
Black
10
51.3674
20
-64.4362
11
52.0742
21
-64.1434
0
LINE
8
Black
10
52.0742
20
-64.1434
11
52.4186
21
-64.9749
0
LINE
8
Black
10
37.5326
20
-64.4362
11
37.1882
21
-65.2677
0
LINE
8
Black
10
37.1882
20
-65.2677
11
36.4814
21
-64.9749
0
LINE
8
Black
10
36.4814
20
-64.9749
11
36.8258
21
-64.1434
0
LINE
8
Black
10
36.8258
20
-64.1434
11
37.5326
21
-64.4362
0
LINE
8
Black
10
50.0317
20
-64.8945
11
49.3685
21
-65.1692
0
LINE
8
Black
10
49.3685
20
-65.1692
11
49.0938
21
-64.506
0
LINE
8
Black
10
49.0938
20
-64.506
11
49.757
21
-64.2313
0
LINE
8
Black
10
49.757
20
-64.2313
11
50.0317
21
-64.8945
0
LINE
8
Black
10
35.9158
20
-63.7665
11
35.5714
21
-64.598
0
LINE
8
Black
10
35.5714
20
-64.598
11
34.8646
21
-64.3052
0
LINE
8
Black
10
34.8646
20
-64.3052
11
35.209
21
-63.4737
0
LINE
8
Black
10
35.209
20
-63.4737
11
35.9158
21
-63.7665
0
LINE
8
Black
10
54.0354
20
-64.3052
11
53.3286
21
-64.598
0
LINE
8
Black
10
53.3286
20
-64.598
11
52.9842
21
-63.7665
0
LINE
8
Black
10
52.9842
20
-63.7665
11
53.691
21
-63.4737
0
LINE
8
Black
10
53.691
20
-63.4737
11
54.0354
21
-64.3052
0
LINE
8
Black
10
39.8983
20
-63.9916
11
39.6916
21
-64.4905
0
LINE
8
Black
10
39.6916
20
-64.4905
11
39.2759
21
-64.3183
0
LINE
8
Black
10
39.2759
20
-64.3183
11
39.4825
21
-63.8194
0
LINE
8
Black
10
39.4825
20
-63.8194
11
39.8983
21
-63.9916
0
LINE
8
Black
10
49.4582
20
-63.51
11
48.795
21
-63.7847
0
LINE
8
Black
10
48.795
20
-63.7847
11
48.5203
21
-63.1215
0
LINE
8
Black
10
48.5203
20
-63.1215
11
49.1835
21
-62.8468
0
LINE
8
Black
10
49.1835
20
-62.8468
11
49.4582
21
-63.51
0
LINE
8
Black
10
55.6771
20
-63.0018
11
55.2613
21
-63.174
0
LINE
8
Black
10
55.2613
20
-63.174
11
55.0547
21
-62.6751
0
LINE
8
Black
10
55.0547
20
-62.6751
11
55.4704
21
-62.5029
0
LINE
8
Black
10
55.4704
20
-62.5029
11
55.6771
21
-63.0018
0
LINE
8
Black
10
43.9575
20
-62.962
11
43.1925
21
-62.962
0
LINE
8
Black
10
43.1925
20
-62.962
11
43.1925
21
-62.062
0
LINE
8
Black
10
43.1925
20
-62.062
11
43.9575
21
-62.062
0
LINE
8
Black
10
43.9575
20
-62.062
11
43.9575
21
-62.962
0
LINE
8
Black
10
45.7075
20
-62.962
11
44.9425
21
-62.962
0
LINE
8
Black
10
44.9425
20
-62.962
11
44.9425
21
-62.062
0
LINE
8
Black
10
44.9425
20
-62.062
11
45.7075
21
-62.062
0
LINE
8
Black
10
45.7075
20
-62.062
11
45.7075
21
-62.962
0
LINE
8
Black
10
55.2561
20
-61.9855
11
54.8404
21
-62.1577
0
LINE
8
Black
10
54.8404
20
-62.1577
11
54.6337
21
-61.6588
0
LINE
8
Black
10
54.6337
20
-61.6588
11
55.0495
21
-61.4866
0
LINE
8
Black
10
55.0495
20
-61.4866
11
55.2561
21
-61.9855
0
LINE
8
Black
10
38.872
20
-61.2026
11
38.5275
21
-62.0341
0
LINE
8
Black
10
38.5275
20
-62.0341
11
37.8208
21
-61.7413
0
LINE
8
Black
10
37.8208
20
-61.7413
11
38.1652
21
-60.9098
0
LINE
8
Black
10
38.1652
20
-60.9098
11
38.872
21
-61.2026
0
LINE
8
Black
10
51.0792
20
-61.7413
11
50.3725
21
-62.0341
0
LINE
8
Black
10
50.3725
20
-62.0341
11
50.028
21
-61.2026
0
LINE
8
Black
10
50.028
20
-61.2026
11
50.7348
21
-60.9098
0
LINE
8
Black
10
50.7348
20
-60.9098
11
51.0792
21
-61.7413
0
LINE
8
Black
10
31.9887
20
-61.5401
11
31.6068
21
-61.9219
0
LINE
8
Black
10
31.6068
20
-61.9219
11
31.2886
21
-61.6037
0
LINE
8
Black
10
31.2886
20
-61.6037
11
31.6705
21
-61.2219
0
LINE
8
Black
10
31.6705
20
-61.2219
11
31.9887
21
-61.5401
0
LINE
8
Black
10
37.2552
20
-60.5329
11
36.9108
21
-61.3644
0
LINE
8
Black
10
36.9108
20
-61.3644
11
36.204
21
-61.0716
0
LINE
8
Black
10
36.204
20
-61.0716
11
36.5484
21
-60.2401
0
LINE
8
Black
10
36.5484
20
-60.2401
11
37.2552
21
-60.5329
0
LINE
8
Black
10
52.696
20
-61.0716
11
51.9892
21
-61.3644
0
LINE
8
Black
10
51.9892
20
-61.3644
11
51.6448
21
-60.5329
0
LINE
8
Black
10
51.6448
20
-60.5329
11
52.3516
21
-60.2401
0
LINE
8
Black
10
52.3516
20
-60.2401
11
52.696
21
-61.0716
0
LINE
8
Black
10
32.7665
20
-60.7622
11
32.3846
21
-61.1441
0
LINE
8
Black
10
32.3846
20
-61.1441
11
32.0664
21
-60.8259
0
LINE
8
Black
10
32.0664
20
-60.8259
11
32.4483
21
-60.444
0
LINE
8
Black
10
32.4483
20
-60.444
11
32.7665
21
-60.7622
0
LINE
8
Black
10
30.4107
20
-60.2676
11
29.7744
21
-60.904
0
LINE
8
Black
10
29.7744
20
-60.904
11
29.2334
21
-60.3631
0
LINE
8
Black
10
29.2334
20
-60.3631
11
29.8698
21
-59.7267
0
LINE
8
Black
10
29.8698
20
-59.7267
11
30.4107
21
-60.2676
0
LINE
8
Black
10
59.6666
20
-60.3631
11
59.1256
21
-60.904
0
LINE
8
Black
10
59.1256
20
-60.904
11
58.4893
21
-60.2676
0
LINE
8
Black
10
58.4893
20
-60.2676
11
59.0302
21
-59.7267
0
LINE
8
Black
10
59.0302
20
-59.7267
11
59.6666
21
-60.3631
0
LINE
8
Black
10
43.916
20
-60.169
11
43.376
21
-60.169
0
LINE
8
Black
10
43.376
20
-60.169
11
43.376
21
-59.719
0
LINE
8
Black
10
43.376
20
-59.719
11
43.916
21
-59.719
0
LINE
8
Black
10
43.916
20
-59.719
11
43.916
21
-60.169
0
LINE
8
Black
10
45.016
20
-60.169
11
44.476
21
-60.169
0
LINE
8
Black
10
44.476
20
-60.169
11
44.476
21
-59.719
0
LINE
8
Black
10
44.476
20
-59.719
11
45.016
21
-59.719
0
LINE
8
Black
10
45.016
20
-59.719
11
45.016
21
-60.169
0
LINE
8
Black
10
29.1733
20
-59.0302
11
28.5369
21
-59.6666
0
LINE
8
Black
10
28.5369
20
-59.6666
11
27.996
21
-59.1256
0
LINE
8
Black
10
27.996
20
-59.1256
11
28.6324
21
-58.4893
0
LINE
8
Black
10
28.6324
20
-58.4893
11
29.1733
21
-59.0302
0
LINE
8
Black
10
60.904
20
-59.1256
11
60.3631
21
-59.6666
0
LINE
8
Black
10
60.3631
20
-59.6666
11
59.7267
21
-59.0302
0
LINE
8
Black
10
59.7267
20
-59.0302
11
60.2676
21
-58.4893
0
LINE
8
Black
10
60.2676
20
-58.4893
11
60.904
21
-59.1256
0
LINE
8
Black
10
49.489
20
-59.079
11
49.039
21
-59.079
0
LINE
8
Black
10
49.039
20
-59.079
11
49.039
21
-58.269
0
LINE
8
Black
10
49.039
20
-58.269
11
49.489
21
-58.269
0
LINE
8
Black
10
49.489
20
-58.269
11
49.489
21
-59.079
0
LINE
8
Black
10
47.989
20
-59.079
11
47.539
21
-59.079
0
LINE
8
Black
10
47.539
20
-59.079
11
47.539
21
-58.269
0
LINE
8
Black
10
47.539
20
-58.269
11
47.989
21
-58.269
0
LINE
8
Black
10
47.989
20
-58.269
11
47.989
21
-59.079
0
LINE
8
Black
10
52.803
20
-58.774
11
52.353
21
-58.774
0
LINE
8
Black
10
52.353
20
-58.774
11
52.353
21
-58.234
0
LINE
8
Black
10
52.353
20
-58.234
11
52.803
21
-58.234
0
LINE
8
Black
10
52.803
20
-58.234
11
52.803
21
-58.774
0
LINE
8
Black
10
32.8856
20
-57.7928
11
32.2492
21
-58.4291
0
LINE
8
Black
10
32.2492
20
-58.4291
11
31.7083
21
-57.8882
0
LINE
8
Black
10
31.7083
20
-57.8882
11
32.3447
21
-57.2518
0
LINE
8
Black
10
32.3447
20
-57.2518
11
32.8856
21
-57.7928
0
LINE
8
Black
10
57.1917
20
-57.8882
11
56.6508
21
-58.4291
0
LINE
8
Black
10
56.6508
20
-58.4291
11
56.0144
21
-57.7928
0
LINE
8
Black
10
56.0144
20
-57.7928
11
56.5553
21
-57.2518
0
LINE
8
Black
10
56.5553
20
-57.2518
11
57.1917
21
-57.8882
0
LINE
8
Black
10
37.643
20
-58.244
11
34.493
21
-58.244
0
LINE
8
Black
10
34.493
20
-58.244
11
34.493
21
-56.714
0
LINE
8
Black
10
34.493
20
-56.714
11
37.643
21
-56.714
0
LINE
8
Black
10
37.643
20
-56.714
11
37.643
21
-58.244
0
LINE
8
Black
10
52.803
20
-57.674
11
52.353
21
-57.674
0
LINE
8
Black
10
52.353
20
-57.674
11
52.353
21
-57.134
0
LINE
8
Black
10
52.353
20
-57.134
11
52.803
21
-57.134
0
LINE
8
Black
10
52.803
20
-57.134
11
52.803
21
-57.674
0
LINE
8
Black
10
61.9219
20
-57.2932
11
61.6037
21
-57.6114
0
LINE
8
Black
10
61.6037
20
-57.6114
11
61.2219
21
-57.2295
0
LINE
8
Black
10
61.2219
20
-57.2295
11
61.5401
21
-56.9113
0
LINE
8
Black
10
61.5401
20
-56.9113
11
61.9219
21
-57.2932
0
LINE
8
Black
10
31.6482
20
-56.5553
11
31.0118
21
-57.1917
0
LINE
8
Black
10
31.0118
20
-57.1917
11
30.4709
21
-56.6508
0
LINE
8
Black
10
30.4709
20
-56.6508
11
31.1072
21
-56.0144
0
LINE
8
Black
10
31.1072
20
-56.0144
11
31.6482
21
-56.5553
0
LINE
8
Black
10
58.4291
20
-56.6508
11
57.8882
21
-57.1917
0
LINE
8
Black
10
57.8882
20
-57.1917
11
57.2518
21
-56.5553
0
LINE
8
Black
10
57.2518
20
-56.5553
11
57.7928
21
-56.0144
0
LINE
8
Black
10
57.7928
20
-56.0144
11
58.4291
21
-56.6508
0
LINE
8
Black
10
48.38
20
-57.083
11
47.48
21
-57.083
0
LINE
8
Black
10
47.48
20
-57.083
11
47.48
21
-56.273
0
LINE
8
Black
10
47.48
20
-56.273
11
48.38
21
-56.273
0
LINE
8
Black
10
48.38
20
-56.273
11
48.38
21
-57.083
0
LINE
8
Black
10
49.98
20
-57.083
11
49.08
21
-57.083
0
LINE
8
Black
10
49.08
20
-57.083
11
49.08
21
-56.273
0
LINE
8
Black
10
49.08
20
-56.273
11
49.98
21
-56.273
0
LINE
8
Black
10
49.98
20
-56.273
11
49.98
21
-57.083
0
LINE
8
Black
10
41.5069
20
-56.9882
11
40.7891
21
-56.9882
0
LINE
8
Black
10
40.7891
20
-56.9882
11
40.7891
21
-56.2704
0
LINE
8
Black
10
40.7891
20
-56.2704
11
41.5069
21
-56.2704
0
LINE
8
Black
10
41.5069
20
-56.2704
11
41.5069
21
-56.9882
0
LINE
8
Black
10
55.0618
20
-56.304
11
54.3872
21
-56.9786
0
LINE
8
Black
10
54.3872
20
-56.9786
11
53.9735
21
-56.5649
0
LINE
8
Black
10
53.9735
20
-56.5649
11
54.6481
21
-55.8904
0
LINE
8
Black
10
54.6481
20
-55.8904
11
55.0618
21
-56.304
0
LINE
8
Black
10
61.1441
20
-56.5154
11
60.8259
21
-56.8336
0
LINE
8
Black
10
60.8259
20
-56.8336
11
60.444
21
-56.4517
0
LINE
8
Black
10
60.444
20
-56.4517
11
60.7622
21
-56.1335
0
LINE
8
Black
10
60.7622
20
-56.1335
11
61.1441
21
-56.5154
0
LINE
8
Black
10
26.3971
20
-55.4704
11
25.8982
21
-55.6771
0
LINE
8
Black
10
25.8982
20
-55.6771
11
25.726
21
-55.2613
0
LINE
8
Black
10
25.726
20
-55.2613
11
26.2249
21
-55.0547
0
LINE
8
Black
10
26.2249
20
-55.0547
11
26.3971
21
-55.4704
0
LINE
8
Black
10
53.7183
20
-54.9605
11
53.0437
21
-55.6351
0
LINE
8
Black
10
53.0437
20
-55.6351
11
52.63
21
-55.2214
0
LINE
8
Black
10
52.63
20
-55.2214
11
53.3046
21
-54.5469
0
LINE
8
Black
10
53.3046
20
-54.5469
11
53.7183
21
-54.9605
0
LINE
8
Black
10
41.5069
20
-55.4896
11
40.7891
21
-55.4896
0
LINE
8
Black
10
40.7891
20
-55.4896
11
40.7891
21
-54.7718
0
LINE
8
Black
10
40.7891
20
-54.7718
11
41.5069
21
-54.7718
0
LINE
8
Black
10
41.5069
20
-54.7718
11
41.5069
21
-55.4896
0
LINE
8
Black
10
56.6174
20
-54.7484
11
55.9428
21
-55.423
0
LINE
8
Black
10
55.9428
20
-55.423
11
55.5292
21
-55.0093
0
LINE
8
Black
10
55.5292
20
-55.0093
11
56.2037
21
-54.3347
0
LINE
8
Black
10
56.2037
20
-54.3347
11
56.6174
21
-54.7484
0
LINE
8
Black
10
27.4134
20
-55.0495
11
26.9145
21
-55.2561
0
LINE
8
Black
10
26.9145
20
-55.2561
11
26.7423
21
-54.8404
0
LINE
8
Black
10
26.7423
20
-54.8404
11
27.2412
21
-54.6337
0
LINE
8
Black
10
27.2412
20
-54.6337
11
27.4134
21
-55.0495
0
LINE
8
Black
10
55.9456
20
-54.0766
11
55.2711
21
-54.7512
0
LINE
8
Black
10
55.2711
20
-54.7512
11
54.8574
21
-54.3376
0
LINE
8
Black
10
54.8574
20
-54.3376
11
55.532
21
-53.663
0
LINE
8
Black
10
55.532
20
-53.663
11
55.9456
21
-54.0766
0
LINE
8
Black
10
55.2739
20
-53.4049
11
54.5993
21
-54.0795
0
LINE
8
Black
10
54.5993
20
-54.0795
11
54.1857
21
-53.6658
0
LINE
8
Black
10
54.1857
20
-53.6658
11
54.8602
21
-52.9912
0
LINE
8
Black
10
54.8602
20
-52.9912
11
55.2739
21
-53.4049
0
LINE
8
Black
10
25.4263
20
-53.691
11
24.5948
21
-54.0354
0
LINE
8
Black
10
24.5948
20
-54.0354
11
24.302
21
-53.3286
0
LINE
8
Black
10
24.302
20
-53.3286
11
25.1335
21
-52.9842
0
LINE
8
Black
10
25.1335
20
-52.9842
11
25.4263
21
-53.691
0
LINE
8
Black
10
64.598
20
-53.3286
11
64.3052
21
-54.0354
0
LINE
8
Black
10
64.3052
20
-54.0354
11
63.4737
21
-53.691
0
LINE
8
Black
10
63.4737
20
-53.691
11
63.7665
21
-52.9842
0
LINE
8
Black
10
63.7665
20
-52.9842
11
64.598
21
-53.3286
0
LINE
8
Black
10
37.643
20
-53.014
11
34.493
21
-53.014
0
LINE
8
Black
10
34.493
20
-53.014
11
34.493
21
-51.484
0
LINE
8
Black
10
34.493
20
-51.484
11
37.643
21
-51.484
0
LINE
8
Black
10
37.643
20
-51.484
11
37.643
21
-53.014
0
LINE
8
Black
10
49.98
20
-52.983
11
49.08
21
-52.983
0
LINE
8
Black
10
49.08
20
-52.983
11
49.08
21
-52.173
0
LINE
8
Black
10
49.08
20
-52.173
11
49.98
21
-52.173
0
LINE
8
Black
10
49.98
20
-52.173
11
49.98
21
-52.983
0
LINE
8
Black
10
48.38
20
-52.983
11
47.48
21
-52.983
0
LINE
8
Black
10
47.48
20
-52.983
11
47.48
21
-52.173
0
LINE
8
Black
10
47.48
20
-52.173
11
48.38
21
-52.173
0
LINE
8
Black
10
48.38
20
-52.173
11
48.38
21
-52.983
0
LINE
8
Black
10
61.3644
20
-51.9892
11
61.0716
21
-52.696
0
LINE
8
Black
10
61.0716
20
-52.696
11
60.2401
21
-52.3516
0
LINE
8
Black
10
60.2401
20
-52.3516
11
60.5329
21
-51.6448
0
LINE
8
Black
10
60.5329
20
-51.6448
11
61.3644
21
-51.9892
0
LINE
8
Black
10
28.6599
20
-52.3516
11
27.8284
21
-52.696
0
LINE
8
Black
10
27.8284
20
-52.696
11
27.5356
21
-51.9892
0
LINE
8
Black
10
27.5356
20
-51.9892
11
28.3671
21
-51.6448
0
LINE
8
Black
10
28.3671
20
-51.6448
11
28.6599
21
-52.3516
0
LINE
8
Black
10
65.2677
20
-51.7118
11
64.9749
21
-52.4186
0
LINE
8
Black
10
64.9749
20
-52.4186
11
64.1434
21
-52.0742
0
LINE
8
Black
10
64.1434
20
-52.0742
11
64.4362
21
-51.3674
0
LINE
8
Black
10
64.4362
20
-51.3674
11
65.2677
21
-51.7118
0
LINE
8
Black
10
24.7566
20
-52.0742
11
23.9251
21
-52.4186
0
LINE
8
Black
10
23.9251
20
-52.4186
11
23.6323
21
-51.7118
0
LINE
8
Black
10
23.6323
20
-51.7118
11
24.4638
21
-51.3674
0
LINE
8
Black
10
24.4638
20
-51.3674
11
24.7566
21
-52.0742
0
LINE
8
Black
10
42.569
20
-52.283
11
41.759
21
-52.283
0
LINE
8
Black
10
41.759
20
-52.283
11
41.759
21
-51.833
0
LINE
8
Black
10
41.759
20
-51.833
11
42.569
21
-51.833
0
LINE
8
Black
10
42.569
20
-51.833
11
42.569
21
-52.283
0
LINE
8
Black
10
62.0341
20
-50.3725
11
61.7413
21
-51.0792
0
LINE
8
Black
10
61.7413
20
-51.0792
11
60.9098
21
-50.7348
0
LINE
8
Black
10
60.9098
20
-50.7348
11
61.2026
21
-50.028
0
LINE
8
Black
10
61.2026
20
-50.028
11
62.0341
21
-50.3725
0
LINE
8
Black
10
27.9902
20
-50.7348
11
27.1587
21
-51.0792
0
LINE
8
Black
10
27.1587
20
-51.0792
11
26.8659
21
-50.3725
0
LINE
8
Black
10
26.8659
20
-50.3725
11
27.6974
21
-50.028
0
LINE
8
Black
10
27.6974
20
-50.028
11
27.9902
21
-50.7348
0
LINE
8
Black
10
42.569
20
-50.783
11
41.759
21
-50.783
0
LINE
8
Black
10
41.759
20
-50.783
11
41.759
21
-50.333
0
LINE
8
Black
10
41.759
20
-50.333
11
42.569
21
-50.333
0
LINE
8
Black
10
42.569
20
-50.333
11
42.569
21
-50.783
0
LINE
8
Black
10
65.5068
20
-49.6293
11
65.3346
21
-50.0451
0
LINE
8
Black
10
65.3346
20
-50.0451
11
64.8357
21
-49.8384
0
LINE
8
Black
10
64.8357
20
-49.8384
11
65.0079
21
-49.4227
0
LINE
8
Black
10
65.0079
20
-49.4227
11
65.5068
21
-49.6293
0
LINE
8
Black
10
53.045
20
-49.935
11
52.595
21
-49.935
0
LINE
8
Black
10
52.595
20
-49.935
11
52.595
21
-49.125
0
LINE
8
Black
10
52.595
20
-49.125
11
53.045
21
-49.125
0
LINE
8
Black
10
53.045
20
-49.125
11
53.045
21
-49.935
0
LINE
8
Black
10
51.545
20
-49.935
11
51.095
21
-49.935
0
LINE
8
Black
10
51.095
20
-49.935
11
51.095
21
-49.125
0
LINE
8
Black
10
51.095
20
-49.125
11
51.545
21
-49.125
0
LINE
8
Black
10
51.545
20
-49.125
11
51.545
21
-49.935
0
LINE
8
Black
10
49.6222
20
-49.8889
11
48.9044
21
-49.8889
0
LINE
8
Black
10
48.9044
20
-49.8889
11
48.9044
21
-49.1711
0
LINE
8
Black
10
48.9044
20
-49.1711
11
49.6222
21
-49.1711
0
LINE
8
Black
10
49.6222
20
-49.1711
11
49.6222
21
-49.8889
0
LINE
8
Black
10
48.1236
20
-49.8889
11
47.4058
21
-49.8889
0
LINE
8
Black
10
47.4058
20
-49.8889
11
47.4058
21
-49.1711
0
LINE
8
Black
10
47.4058
20
-49.1711
11
48.1236
21
-49.1711
0
LINE
8
Black
10
48.1236
20
-49.1711
11
48.1236
21
-49.8889
0
LINE
8
Black
10
38.015
20
-49.764
11
37.205
21
-49.764
0
LINE
8
Black
10
37.205
20
-49.764
11
37.205
21
-48.864
0
LINE
8
Black
10
37.205
20
-48.864
11
38.015
21
-48.864
0
LINE
8
Black
10
38.015
20
-48.864
11
38.015
21
-49.764
0
LINE
8
Black
10
33.915
20
-49.764
11
33.105
21
-49.764
0
LINE
8
Black
10
33.105
20
-49.764
11
33.105
21
-48.864
0
LINE
8
Black
10
33.105
20
-48.864
11
33.915
21
-48.864
0
LINE
8
Black
10
33.915
20
-48.864
11
33.915
21
-49.764
0
LINE
8
Black
10
64.4905
20
-49.2084
11
64.3183
21
-49.6241
0
LINE
8
Black
10
64.3183
20
-49.6241
11
63.8194
21
-49.4175
0
LINE
8
Black
10
63.8194
20
-49.4175
11
63.9916
21
-49.0017
0
LINE
8
Black
10
63.9916
20
-49.0017
11
64.4905
21
-49.2084
0
LINE
8
Black
10
43.925
20
-48.826
11
43.475
21
-48.826
0
LINE
8
Black
10
43.475
20
-48.826
11
43.475
21
-48.286
0
LINE
8
Black
10
43.475
20
-48.286
11
43.925
21
-48.286
0
LINE
8
Black
10
43.925
20
-48.286
11
43.925
21
-48.826
0
LINE
8
Black
10
33.915
20
-48.164
11
33.105
21
-48.164
0
LINE
8
Black
10
33.105
20
-48.164
11
33.105
21
-47.264
0
LINE
8
Black
10
33.105
20
-47.264
11
33.915
21
-47.264
0
LINE
8
Black
10
33.915
20
-47.264
11
33.915
21
-48.164
0
LINE
8
Black
10
38.015
20
-48.164
11
37.205
21
-48.164
0
LINE
8
Black
10
37.205
20
-48.164
11
37.205
21
-47.264
0
LINE
8
Black
10
37.205
20
-47.264
11
38.015
21
-47.264
0
LINE
8
Black
10
38.015
20
-47.264
11
38.015
21
-48.164
0
LINE
8
Black
10
43.925
20
-47.726
11
43.475
21
-47.726
0
LINE
8
Black
10
43.475
20
-47.726
11
43.475
21
-47.186
0
LINE
8
Black
10
43.475
20
-47.186
11
43.925
21
-47.186
0
LINE
8
Black
10
43.925
20
-47.186
11
43.925
21
-47.726
0
LINE
8
Black
10
24.654
20
-47.723
11
24.114
21
-47.723
0
LINE
8
Black
10
24.114
20
-47.723
11
24.114
21
-47.273
0
LINE
8
Black
10
24.114
20
-47.273
11
24.654
21
-47.273
0
LINE
8
Black
10
24.654
20
-47.273
11
24.654
21
-47.723
0
LINE
8
Black
10
23.554
20
-47.723
11
23.014
21
-47.723
0
LINE
8
Black
10
23.014
20
-47.723
11
23.014
21
-47.273
0
LINE
8
Black
10
23.014
20
-47.273
11
23.554
21
-47.273
0
LINE
8
Black
10
23.554
20
-47.273
11
23.554
21
-47.723
0
LINE
8
Black
10
50.443
20
-47.203
11
49.633
21
-47.203
0
LINE
8
Black
10
49.633
20
-47.203
11
49.633
21
-46.753
0
LINE
8
Black
10
49.633
20
-46.753
11
50.443
21
-46.753
0
LINE
8
Black
10
50.443
20
-46.753
11
50.443
21
-47.203
0
LINE
8
Black
10
55.7345
20
-47.165
11
55.5095
21
-47.165
0
LINE
8
Black
10
55.5095
20
-47.165
11
55.5095
21
-46.535
0
LINE
8
Black
10
55.5095
20
-46.535
11
55.7345
21
-46.535
0
LINE
8
Black
10
55.7345
20
-46.535
11
55.7345
21
-47.165
0
LINE
8
Black
10
57.2345
20
-47.165
11
57.0095
21
-47.165
0
LINE
8
Black
10
57.0095
20
-47.165
11
57.0095
21
-46.535
0
LINE
8
Black
10
57.0095
20
-46.535
11
57.2345
21
-46.535
0
LINE
8
Black
10
57.2345
20
-46.535
11
57.2345
21
-47.165
0
LINE
8
Black
10
56.7345
20
-47.165
11
56.5095
21
-47.165
0
LINE
8
Black
10
56.5095
20
-47.165
11
56.5095
21
-46.535
0
LINE
8
Black
10
56.5095
20
-46.535
11
56.7345
21
-46.535
0
LINE
8
Black
10
56.7345
20
-46.535
11
56.7345
21
-47.165
0
LINE
8
Black
10
56.2345
20
-47.165
11
56.0095
21
-47.165
0
LINE
8
Black
10
56.0095
20
-47.165
11
56.0095
21
-46.535
0
LINE
8
Black
10
56.0095
20
-46.535
11
56.2345
21
-46.535
0
LINE
8
Black
10
56.2345
20
-46.535
11
56.2345
21
-47.165
0
LINE
8
Black
10
55.2345
20
-47.165
11
55.0095
21
-47.165
0
LINE
8
Black
10
55.0095
20
-47.165
11
55.0095
21
-46.535
0
LINE
8
Black
10
55.0095
20
-46.535
11
55.2345
21
-46.535
0
LINE
8
Black
10
55.2345
20
-46.535
11
55.2345
21
-47.165
0
LINE
8
Black
10
54.7345
20
-47.165
11
54.5095
21
-47.165
0
LINE
8
Black
10
54.5095
20
-47.165
11
54.5095
21
-46.535
0
LINE
8
Black
10
54.5095
20
-46.535
11
54.7345
21
-46.535
0
LINE
8
Black
10
54.7345
20
-46.535
11
54.7345
21
-47.165
0
LINE
8
Black
10
54.2345
20
-47.165
11
54.0095
21
-47.165
0
LINE
8
Black
10
54.0095
20
-47.165
11
54.0095
21
-46.535
0
LINE
8
Black
10
54.0095
20
-46.535
11
54.2345
21
-46.535
0
LINE
8
Black
10
54.2345
20
-46.535
11
54.2345
21
-47.165
0
LINE
8
Black
10
53.7345
20
-47.165
11
53.5095
21
-47.165
0
LINE
8
Black
10
53.5095
20
-47.165
11
53.5095
21
-46.535
0
LINE
8
Black
10
53.5095
20
-46.535
11
53.7345
21
-46.535
0
LINE
8
Black
10
53.7345
20
-46.535
11
53.7345
21
-47.165
0
LINE
8
Black
10
60.7895
20
-46.576
11
60.1145
21
-46.576
0
LINE
8
Black
10
60.1145
20
-46.576
11
60.1145
21
-45.856
0
LINE
8
Black
10
60.1145
20
-45.856
11
60.7895
21
-45.856
0
LINE
8
Black
10
60.7895
20
-45.856
11
60.7895
21
-46.576
0
LINE
8
Black
10
58.087
20
-46.3125
11
57.457
21
-46.3125
0
LINE
8
Black
10
57.457
20
-46.3125
11
57.457
21
-46.0875
0
LINE
8
Black
10
57.457
20
-46.0875
11
58.087
21
-46.0875
0
LINE
8
Black
10
58.087
20
-46.0875
11
58.087
21
-46.3125
0
LINE
8
Black
10
53.287
20
-46.3125
11
52.657
21
-46.3125
0
LINE
8
Black
10
52.657
20
-46.3125
11
52.657
21
-46.0875
0
LINE
8
Black
10
52.657
20
-46.0875
11
53.287
21
-46.0875
0
LINE
8
Black
10
53.287
20
-46.0875
11
53.287
21
-46.3125
0
LINE
8
Black
10
43.3125
20
-46.2263
11
43.0875
21
-46.2263
0
LINE
8
Black
10
43.0875
20
-46.2263
11
43.0875
21
-45.7987
0
LINE
8
Black
10
43.0875
20
-45.7987
11
43.3125
21
-45.7987
0
LINE
8
Black
10
43.3125
20
-45.7987
11
43.3125
21
-46.2263
0
LINE
8
Black
10
42.3125
20
-46.2263
11
42.0875
21
-46.2263
0
LINE
8
Black
10
42.0875
20
-46.2263
11
42.0875
21
-45.7987
0
LINE
8
Black
10
42.0875
20
-45.7987
11
42.3125
21
-45.7987
0
LINE
8
Black
10
42.3125
20
-45.7987
11
42.3125
21
-46.2263
0
LINE
8
Black
10
42.8125
20
-46.2263
11
42.5875
21
-46.2263
0
LINE
8
Black
10
42.5875
20
-46.2263
11
42.5875
21
-45.7987
0
LINE
8
Black
10
42.5875
20
-45.7987
11
42.8125
21
-45.7987
0
LINE
8
Black
10
42.8125
20
-45.7987
11
42.8125
21
-46.2263
0
LINE
8
Black
10
46.8125
20
-46.2263
11
46.5875
21
-46.2263
0
LINE
8
Black
10
46.5875
20
-46.2263
11
46.5875
21
-45.7987
0
LINE
8
Black
10
46.5875
20
-45.7987
11
46.8125
21
-45.7987
0
LINE
8
Black
10
46.8125
20
-45.7987
11
46.8125
21
-46.2263
0
LINE
8
Black
10
46.3125
20
-46.2263
11
46.0875
21
-46.2263
0
LINE
8
Black
10
46.0875
20
-46.2263
11
46.0875
21
-45.7987
0
LINE
8
Black
10
46.0875
20
-45.7987
11
46.3125
21
-45.7987
0
LINE
8
Black
10
46.3125
20
-45.7987
11
46.3125
21
-46.2263
0
LINE
8
Black
10
45.8125
20
-46.2263
11
45.5875
21
-46.2263
0
LINE
8
Black
10
45.5875
20
-46.2263
11
45.5875
21
-45.7987
0
LINE
8
Black
10
45.5875
20
-45.7987
11
45.8125
21
-45.7987
0
LINE
8
Black
10
45.8125
20
-45.7987
11
45.8125
21
-46.2263
0
LINE
8
Black
10
45.3125
20
-46.2263
11
45.0875
21
-46.2263
0
LINE
8
Black
10
45.0875
20
-46.2263
11
45.0875
21
-45.7987
0
LINE
8
Black
10
45.0875
20
-45.7987
11
45.3125
21
-45.7987
0
LINE
8
Black
10
45.3125
20
-45.7987
11
45.3125
21
-46.2263
0
LINE
8
Black
10
44.8125
20
-46.2263
11
44.5875
21
-46.2263
0
LINE
8
Black
10
44.5875
20
-46.2263
11
44.5875
21
-45.7987
0
LINE
8
Black
10
44.5875
20
-45.7987
11
44.8125
21
-45.7987
0
LINE
8
Black
10
44.8125
20
-45.7987
11
44.8125
21
-46.2263
0
LINE
8
Black
10
44.3125
20
-46.2263
11
44.0875
21
-46.2263
0
LINE
8
Black
10
44.0875
20
-46.2263
11
44.0875
21
-45.7987
0
LINE
8
Black
10
44.0875
20
-45.7987
11
44.3125
21
-45.7987
0
LINE
8
Black
10
44.3125
20
-45.7987
11
44.3125
21
-46.2263
0
LINE
8
Black
10
43.8125
20
-46.2263
11
43.5875
21
-46.2263
0
LINE
8
Black
10
43.5875
20
-46.2263
11
43.5875
21
-45.7987
0
LINE
8
Black
10
43.5875
20
-45.7987
11
43.8125
21
-45.7987
0
LINE
8
Black
10
43.8125
20
-45.7987
11
43.8125
21
-46.2263
0
LINE
8
Black
10
55.027
20
-45.83
11
53.992
21
-45.83
0
LINE
8
Black
10
53.992
20
-45.83
11
53.992
21
-44.795
0
LINE
8
Black
10
53.992
20
-44.795
11
55.027
21
-44.795
0
LINE
8
Black
10
55.027
20
-44.795
11
55.027
21
-45.83
0
LINE
8
Black
10
56.752
20
-45.83
11
55.717
21
-45.83
0
LINE
8
Black
10
55.717
20
-45.83
11
55.717
21
-44.795
0
LINE
8
Black
10
55.717
20
-44.795
11
56.752
21
-44.795
0
LINE
8
Black
10
56.752
20
-44.795
11
56.752
21
-45.83
0
LINE
8
Black
10
53.287
20
-45.8125
11
52.657
21
-45.8125
0
LINE
8
Black
10
52.657
20
-45.8125
11
52.657
21
-45.5875
0
LINE
8
Black
10
52.657
20
-45.5875
11
53.287
21
-45.5875
0
LINE
8
Black
10
53.287
20
-45.5875
11
53.287
21
-45.8125
0
LINE
8
Black
10
58.087
20
-45.8125
11
57.457
21
-45.8125
0
LINE
8
Black
10
57.457
20
-45.8125
11
57.457
21
-45.5875
0
LINE
8
Black
10
57.457
20
-45.5875
11
58.087
21
-45.5875
0
LINE
8
Black
10
58.087
20
-45.5875
11
58.087
21
-45.8125
0
LINE
8
Black
10
23.338
20
-45.7075
11
22.438
21
-45.7075
0
LINE
8
Black
10
22.438
20
-45.7075
11
22.438
21
-44.9425
0
LINE
8
Black
10
22.438
20
-44.9425
11
23.338
21
-44.9425
0
LINE
8
Black
10
23.338
20
-44.9425
11
23.338
21
-45.7075
0
LINE
8
Black
10
62.962
20
-45.7075
11
62.062
21
-45.7075
0
LINE
8
Black
10
62.062
20
-45.7075
11
62.062
21
-44.9425
0
LINE
8
Black
10
62.062
20
-44.9425
11
62.962
21
-44.9425
0
LINE
8
Black
10
62.962
20
-44.9425
11
62.962
21
-45.7075
0
LINE
8
Black
10
26.838
20
-45.7075
11
25.938
21
-45.7075
0
LINE
8
Black
10
25.938
20
-45.7075
11
25.938
21
-44.9425
0
LINE
8
Black
10
25.938
20
-44.9425
11
26.838
21
-44.9425
0
LINE
8
Black
10
26.838
20
-44.9425
11
26.838
21
-45.7075
0
LINE
8
Black
10
66.462
20
-45.7075
11
65.562
21
-45.7075
0
LINE
8
Black
10
65.562
20
-45.7075
11
65.562
21
-44.9425
0
LINE
8
Black
10
65.562
20
-44.9425
11
66.462
21
-44.9425
0
LINE
8
Black
10
66.462
20
-44.9425
11
66.462
21
-45.7075
0
LINE
8
Black
10
50.443
20
-45.703
11
49.633
21
-45.703
0
LINE
8
Black
10
49.633
20
-45.703
11
49.633
21
-45.253
0
LINE
8
Black
10
49.633
20
-45.253
11
50.443
21
-45.253
0
LINE
8
Black
10
50.443
20
-45.253
11
50.443
21
-45.703
0
LINE
8
Black
10
46.8687
20
-45.3125
11
46.5312
21
-45.3125
0
LINE
8
Black
10
46.5312
20
-45.3125
11
46.5312
21
-45.0875
0
LINE
8
Black
10
46.5312
20
-45.0875
11
46.8687
21
-45.0875
0
LINE
8
Black
10
46.8687
20
-45.0875
11
46.8687
21
-45.3125
0
LINE
8
Black
10
42.3687
20
-45.3125
11
42.0312
21
-45.3125
0
LINE
8
Black
10
42.0312
20
-45.3125
11
42.0312
21
-45.0875
0
LINE
8
Black
10
42.0312
20
-45.0875
11
42.3687
21
-45.0875
0
LINE
8
Black
10
42.3687
20
-45.0875
11
42.3687
21
-45.3125
0
LINE
8
Black
10
53.287
20
-45.3125
11
52.657
21
-45.3125
0
LINE
8
Black
10
52.657
20
-45.3125
11
52.657
21
-45.0875
0
LINE
8
Black
10
52.657
20
-45.0875
11
53.287
21
-45.0875
0
LINE
8
Black
10
53.287
20
-45.0875
11
53.287
21
-45.3125
0
LINE
8
Black
10
58.087
20
-45.3125
11
57.457
21
-45.3125
0
LINE
8
Black
10
57.457
20
-45.3125
11
57.457
21
-45.0875
0
LINE
8
Black
10
57.457
20
-45.0875
11
58.087
21
-45.0875
0
LINE
8
Black
10
58.087
20
-45.0875
11
58.087
21
-45.3125
0
LINE
8
Black
10
60.7895
20
-45.076
11
60.1145
21
-45.076
0
LINE
8
Black
10
60.1145
20
-45.076
11
60.1145
21
-44.356
0
LINE
8
Black
10
60.1145
20
-44.356
11
60.7895
21
-44.356
0
LINE
8
Black
10
60.7895
20
-44.356
11
60.7895
21
-45.076
0
LINE
8
Black
10
53.287
20
-44.8125
11
52.657
21
-44.8125
0
LINE
8
Black
10
52.657
20
-44.8125
11
52.657
21
-44.5875
0
LINE
8
Black
10
52.657
20
-44.5875
11
53.287
21
-44.5875
0
LINE
8
Black
10
53.287
20
-44.5875
11
53.287
21
-44.8125
0
LINE
8
Black
10
58.087
20
-44.8125
11
57.457
21
-44.8125
0
LINE
8
Black
10
57.457
20
-44.8125
11
57.457
21
-44.5875
0
LINE
8
Black
10
57.457
20
-44.5875
11
58.087
21
-44.5875
0
LINE
8
Black
10
58.087
20
-44.5875
11
58.087
21
-44.8125
0
LINE
8
Black
10
42.3687
20
-44.8125
11
42.0312
21
-44.8125
0
LINE
8
Black
10
42.0312
20
-44.8125
11
42.0312
21
-44.5875
0
LINE
8
Black
10
42.0312
20
-44.5875
11
42.3687
21
-44.5875
0
LINE
8
Black
10
42.3687
20
-44.5875
11
42.3687
21
-44.8125
0
LINE
8
Black
10
46.8687
20
-44.8125
11
46.5312
21
-44.8125
0
LINE
8
Black
10
46.5312
20
-44.8125
11
46.5312
21
-44.5875
0
LINE
8
Black
10
46.5312
20
-44.5875
11
46.8687
21
-44.5875
0
LINE
8
Black
10
46.8687
20
-44.5875
11
46.8687
21
-44.8125
0
LINE
8
Black
10
48.792
20
-44.651
11
47.982
21
-44.651
0
LINE
8
Black
10
47.982
20
-44.651
11
47.982
21
-44.201
0
LINE
8
Black
10
47.982
20
-44.201
11
48.792
21
-44.201
0
LINE
8
Black
10
48.792
20
-44.201
11
48.792
21
-44.651
0
LINE
8
Black
10
39.595
20
-44.635
11
39.145
21
-44.635
0
LINE
8
Black
10
39.145
20
-44.635
11
39.145
21
-44.095
0
LINE
8
Black
10
39.145
20
-44.095
11
39.595
21
-44.095
0
LINE
8
Black
10
39.595
20
-44.095
11
39.595
21
-44.635
0
LINE
8
Black
10
33.444
20
-44.588
11
31.644
21
-44.588
0
LINE
8
Black
10
31.644
20
-44.588
11
31.644
21
-42.788
0
LINE
8
Black
10
31.644
20
-42.788
11
33.444
21
-42.788
0
LINE
8
Black
10
33.444
20
-42.788
11
33.444
21
-44.588
0
LINE
8
Black
10
37.444
20
-44.588
11
35.644
21
-44.588
0
LINE
8
Black
10
35.644
20
-44.588
11
35.644
21
-42.788
0
LINE
8
Black
10
35.644
20
-42.788
11
37.444
21
-42.788
0
LINE
8
Black
10
37.444
20
-42.788
11
37.444
21
-44.588
0
LINE
8
Black
10
42.3687
20
-44.3125
11
42.0312
21
-44.3125
0
LINE
8
Black
10
42.0312
20
-44.3125
11
42.0312
21
-44.0875
0
LINE
8
Black
10
42.0312
20
-44.0875
11
42.3687
21
-44.0875
0
LINE
8
Black
10
42.3687
20
-44.0875
11
42.3687
21
-44.3125
0
LINE
8
Black
10
46.8687
20
-44.3125
11
46.5312
21
-44.3125
0
LINE
8
Black
10
46.5312
20
-44.3125
11
46.5312
21
-44.0875
0
LINE
8
Black
10
46.5312
20
-44.0875
11
46.8687
21
-44.0875
0
LINE
8
Black
10
46.8687
20
-44.0875
11
46.8687
21
-44.3125
0
LINE
8
Black
10
53.287
20
-44.3125
11
52.657
21
-44.3125
0
LINE
8
Black
10
52.657
20
-44.3125
11
52.657
21
-44.0875
0
LINE
8
Black
10
52.657
20
-44.0875
11
53.287
21
-44.0875
0
LINE
8
Black
10
53.287
20
-44.0875
11
53.287
21
-44.3125
0
LINE
8
Black
10
58.087
20
-44.3125
11
57.457
21
-44.3125
0
LINE
8
Black
10
57.457
20
-44.3125
11
57.457
21
-44.0875
0
LINE
8
Black
10
57.457
20
-44.0875
11
58.087
21
-44.0875
0
LINE
8
Black
10
58.087
20
-44.0875
11
58.087
21
-44.3125
0
LINE
8
Black
10
56.752
20
-44.105
11
55.717
21
-44.105
0
LINE
8
Black
10
55.717
20
-44.105
11
55.717
21
-43.07
0
LINE
8
Black
10
55.717
20
-43.07
11
56.752
21
-43.07
0
LINE
8
Black
10
56.752
20
-43.07
11
56.752
21
-44.105
0
LINE
8
Black
10
55.027
20
-44.105
11
53.992
21
-44.105
0
LINE
8
Black
10
53.992
20
-44.105
11
53.992
21
-43.07
0
LINE
8
Black
10
53.992
20
-43.07
11
55.027
21
-43.07
0
LINE
8
Black
10
55.027
20
-43.07
11
55.027
21
-44.105
0
LINE
8
Black
10
23.338
20
-43.9575
11
22.438
21
-43.9575
0
LINE
8
Black
10
22.438
20
-43.9575
11
22.438
21
-43.1925
0
LINE
8
Black
10
22.438
20
-43.1925
11
23.338
21
-43.1925
0
LINE
8
Black
10
23.338
20
-43.1925
11
23.338
21
-43.9575
0
LINE
8
Black
10
26.838
20
-43.9575
11
25.938
21
-43.9575
0
LINE
8
Black
10
25.938
20
-43.9575
11
25.938
21
-43.1925
0
LINE
8
Black
10
25.938
20
-43.1925
11
26.838
21
-43.1925
0
LINE
8
Black
10
26.838
20
-43.1925
11
26.838
21
-43.9575
0
LINE
8
Black
10
66.462
20
-43.9575
11
65.562
21
-43.9575
0
LINE
8
Black
10
65.562
20
-43.9575
11
65.562
21
-43.1925
0
LINE
8
Black
10
65.562
20
-43.1925
11
66.462
21
-43.1925
0
LINE
8
Black
10
66.462
20
-43.1925
11
66.462
21
-43.9575
0
LINE
8
Black
10
62.962
20
-43.9575
11
62.062
21
-43.9575
0
LINE
8
Black
10
62.062
20
-43.9575
11
62.062
21
-43.1925
0
LINE
8
Black
10
62.062
20
-43.1925
11
62.962
21
-43.1925
0
LINE
8
Black
10
62.962
20
-43.1925
11
62.962
21
-43.9575
0
LINE
8
Black
10
42.3687
20
-43.8125
11
42.0312
21
-43.8125
0
LINE
8
Black
10
42.0312
20
-43.8125
11
42.0312
21
-43.5875
0
LINE
8
Black
10
42.0312
20
-43.5875
11
42.3687
21
-43.5875
0
LINE
8
Black
10
42.3687
20
-43.5875
11
42.3687
21
-43.8125
0
LINE
8
Black
10
46.8687
20
-43.8125
11
46.5312
21
-43.8125
0
LINE
8
Black
10
46.5312
20
-43.8125
11
46.5312
21
-43.5875
0
LINE
8
Black
10
46.5312
20
-43.5875
11
46.8687
21
-43.5875
0
LINE
8
Black
10
46.8687
20
-43.5875
11
46.8687
21
-43.8125
0
LINE
8
Black
10
53.287
20
-43.8125
11
52.657
21
-43.8125
0
LINE
8
Black
10
52.657
20
-43.8125
11
52.657
21
-43.5875
0
LINE
8
Black
10
52.657
20
-43.5875
11
53.287
21
-43.5875
0
LINE
8
Black
10
53.287
20
-43.5875
11
53.287
21
-43.8125
0
LINE
8
Black
10
58.087
20
-43.8125
11
57.457
21
-43.8125
0
LINE
8
Black
10
57.457
20
-43.8125
11
57.457
21
-43.5875
0
LINE
8
Black
10
57.457
20
-43.5875
11
58.087
21
-43.5875
0
LINE
8
Black
10
58.087
20
-43.5875
11
58.087
21
-43.8125
0
LINE
8
Black
10
39.595
20
-43.535
11
39.145
21
-43.535
0
LINE
8
Black
10
39.145
20
-43.535
11
39.145
21
-42.995
0
LINE
8
Black
10
39.145
20
-42.995
11
39.595
21
-42.995
0
LINE
8
Black
10
39.595
20
-42.995
11
39.595
21
-43.535
0
LINE
8
Black
10
60.677
20
-43.492
11
60.227
21
-43.492
0
LINE
8
Black
10
60.227
20
-43.492
11
60.227
21
-42.952
0
LINE
8
Black
10
60.227
20
-42.952
11
60.677
21
-42.952
0
LINE
8
Black
10
60.677
20
-42.952
11
60.677
21
-43.492
0
LINE
8
Black
10
53.287
20
-43.3125
11
52.657
21
-43.3125
0
LINE
8
Black
10
52.657
20
-43.3125
11
52.657
21
-43.0875
0
LINE
8
Black
10
52.657
20
-43.0875
11
53.287
21
-43.0875
0
LINE
8
Black
10
53.287
20
-43.0875
11
53.287
21
-43.3125
0
LINE
8
Black
10
58.087
20
-43.3125
11
57.457
21
-43.3125
0
LINE
8
Black
10
57.457
20
-43.3125
11
57.457
21
-43.0875
0
LINE
8
Black
10
57.457
20
-43.0875
11
58.087
21
-43.0875
0
LINE
8
Black
10
58.087
20
-43.0875
11
58.087
21
-43.3125
0
LINE
8
Black
10
51.787
20
-43.238
11
51.337
21
-43.238
0
LINE
8
Black
10
51.337
20
-43.238
11
51.337
21
-42.698
0
LINE
8
Black
10
51.337
20
-42.698
11
51.787
21
-42.698
0
LINE
8
Black
10
51.787
20
-42.698
11
51.787
21
-43.238
0
LINE
8
Black
10
48.792
20
-43.151
11
47.982
21
-43.151
0
LINE
8
Black
10
47.982
20
-43.151
11
47.982
21
-42.701
0
LINE
8
Black
10
47.982
20
-42.701
11
48.792
21
-42.701
0
LINE
8
Black
10
48.792
20
-42.701
11
48.792
21
-43.151
0
LINE
8
Black
10
43.8125
20
-43.1013
11
43.5875
21
-43.1013
0
LINE
8
Black
10
43.5875
20
-43.1013
11
43.5875
21
-42.6737
0
LINE
8
Black
10
43.5875
20
-42.6737
11
43.8125
21
-42.6737
0
LINE
8
Black
10
43.8125
20
-42.6737
11
43.8125
21
-43.1013
0
LINE
8
Black
10
45.8125
20
-43.1013
11
45.5875
21
-43.1013
0
LINE
8
Black
10
45.5875
20
-43.1013
11
45.5875
21
-42.6737
0
LINE
8
Black
10
45.5875
20
-42.6737
11
45.8125
21
-42.6737
0
LINE
8
Black
10
45.8125
20
-42.6737
11
45.8125
21
-43.1013
0
LINE
8
Black
10
46.3125
20
-43.1013
11
46.0875
21
-43.1013
0
LINE
8
Black
10
46.0875
20
-43.1013
11
46.0875
21
-42.6737
0
LINE
8
Black
10
46.0875
20
-42.6737
11
46.3125
21
-42.6737
0
LINE
8
Black
10
46.3125
20
-42.6737
11
46.3125
21
-43.1013
0
LINE
8
Black
10
46.8125
20
-43.1013
11
46.5875
21
-43.1013
0
LINE
8
Black
10
46.5875
20
-43.1013
11
46.5875
21
-42.6737
0
LINE
8
Black
10
46.5875
20
-42.6737
11
46.8125
21
-42.6737
0
LINE
8
Black
10
46.8125
20
-42.6737
11
46.8125
21
-43.1013
0
LINE
8
Black
10
45.3125
20
-43.1013
11
45.0875
21
-43.1013
0
LINE
8
Black
10
45.0875
20
-43.1013
11
45.0875
21
-42.6737
0
LINE
8
Black
10
45.0875
20
-42.6737
11
45.3125
21
-42.6737
0
LINE
8
Black
10
45.3125
20
-42.6737
11
45.3125
21
-43.1013
0
LINE
8
Black
10
44.8125
20
-43.1013
11
44.5875
21
-43.1013
0
LINE
8
Black
10
44.5875
20
-43.1013
11
44.5875
21
-42.6737
0
LINE
8
Black
10
44.5875
20
-42.6737
11
44.8125
21
-42.6737
0
LINE
8
Black
10
44.8125
20
-42.6737
11
44.8125
21
-43.1013
0
LINE
8
Black
10
44.3125
20
-43.1013
11
44.0875
21
-43.1013
0
LINE
8
Black
10
44.0875
20
-43.1013
11
44.0875
21
-42.6737
0
LINE
8
Black
10
44.0875
20
-42.6737
11
44.3125
21
-42.6737
0
LINE
8
Black
10
44.3125
20
-42.6737
11
44.3125
21
-43.1013
0
LINE
8
Black
10
43.3125
20
-43.1013
11
43.0875
21
-43.1013
0
LINE
8
Black
10
43.0875
20
-43.1013
11
43.0875
21
-42.6737
0
LINE
8
Black
10
43.0875
20
-42.6737
11
43.3125
21
-42.6737
0
LINE
8
Black
10
43.3125
20
-42.6737
11
43.3125
21
-43.1013
0
LINE
8
Black
10
42.8125
20
-43.1013
11
42.5875
21
-43.1013
0
LINE
8
Black
10
42.5875
20
-43.1013
11
42.5875
21
-42.6737
0
LINE
8
Black
10
42.5875
20
-42.6737
11
42.8125
21
-42.6737
0
LINE
8
Black
10
42.8125
20
-42.6737
11
42.8125
21
-43.1013
0
LINE
8
Black
10
42.3125
20
-43.1013
11
42.0875
21
-43.1013
0
LINE
8
Black
10
42.0875
20
-43.1013
11
42.0875
21
-42.6737
0
LINE
8
Black
10
42.0875
20
-42.6737
11
42.3125
21
-42.6737
0
LINE
8
Black
10
42.3125
20
-42.6737
11
42.3125
21
-43.1013
0
LINE
8
Black
10
58.087
20
-42.8125
11
57.457
21
-42.8125
0
LINE
8
Black
10
57.457
20
-42.8125
11
57.457
21
-42.5875
0
LINE
8
Black
10
57.457
20
-42.5875
11
58.087
21
-42.5875
0
LINE
8
Black
10
58.087
20
-42.5875
11
58.087
21
-42.8125
0
LINE
8
Black
10
53.287
20
-42.8125
11
52.657
21
-42.8125
0
LINE
8
Black
10
52.657
20
-42.8125
11
52.657
21
-42.5875
0
LINE
8
Black
10
52.657
20
-42.5875
11
53.287
21
-42.5875
0
LINE
8
Black
10
53.287
20
-42.5875
11
53.287
21
-42.8125
0
LINE
8
Black
10
60.677
20
-42.392
11
60.227
21
-42.392
0
LINE
8
Black
10
60.227
20
-42.392
11
60.227
21
-41.852
0
LINE
8
Black
10
60.227
20
-41.852
11
60.677
21
-41.852
0
LINE
8
Black
10
60.677
20
-41.852
11
60.677
21
-42.392
0
LINE
8
Black
10
55.7345
20
-42.365
11
55.5095
21
-42.365
0
LINE
8
Black
10
55.5095
20
-42.365
11
55.5095
21
-41.735
0
LINE
8
Black
10
55.5095
20
-41.735
11
55.7345
21
-41.735
0
LINE
8
Black
10
55.7345
20
-41.735
11
55.7345
21
-42.365
0
LINE
8
Black
10
57.2345
20
-42.365
11
57.0095
21
-42.365
0
LINE
8
Black
10
57.0095
20
-42.365
11
57.0095
21
-41.735
0
LINE
8
Black
10
57.0095
20
-41.735
11
57.2345
21
-41.735
0
LINE
8
Black
10
57.2345
20
-41.735
11
57.2345
21
-42.365
0
LINE
8
Black
10
56.7345
20
-42.365
11
56.5095
21
-42.365
0
LINE
8
Black
10
56.5095
20
-42.365
11
56.5095
21
-41.735
0
LINE
8
Black
10
56.5095
20
-41.735
11
56.7345
21
-41.735
0
LINE
8
Black
10
56.7345
20
-41.735
11
56.7345
21
-42.365
0
LINE
8
Black
10
56.2345
20
-42.365
11
56.0095
21
-42.365
0
LINE
8
Black
10
56.0095
20
-42.365
11
56.0095
21
-41.735
0
LINE
8
Black
10
56.0095
20
-41.735
11
56.2345
21
-41.735
0
LINE
8
Black
10
56.2345
20
-41.735
11
56.2345
21
-42.365
0
LINE
8
Black
10
55.2345
20
-42.365
11
55.0095
21
-42.365
0
LINE
8
Black
10
55.0095
20
-42.365
11
55.0095
21
-41.735
0
LINE
8
Black
10
55.0095
20
-41.735
11
55.2345
21
-41.735
0
LINE
8
Black
10
55.2345
20
-41.735
11
55.2345
21
-42.365
0
LINE
8
Black
10
54.7345
20
-42.365
11
54.5095
21
-42.365
0
LINE
8
Black
10
54.5095
20
-42.365
11
54.5095
21
-41.735
0
LINE
8
Black
10
54.5095
20
-41.735
11
54.7345
21
-41.735
0
LINE
8
Black
10
54.7345
20
-41.735
11
54.7345
21
-42.365
0
LINE
8
Black
10
54.2345
20
-42.365
11
54.0095
21
-42.365
0
LINE
8
Black
10
54.0095
20
-42.365
11
54.0095
21
-41.735
0
LINE
8
Black
10
54.0095
20
-41.735
11
54.2345
21
-41.735
0
LINE
8
Black
10
54.2345
20
-41.735
11
54.2345
21
-42.365
0
LINE
8
Black
10
53.7345
20
-42.365
11
53.5095
21
-42.365
0
LINE
8
Black
10
53.5095
20
-42.365
11
53.5095
21
-41.735
0
LINE
8
Black
10
53.5095
20
-41.735
11
53.7345
21
-41.735
0
LINE
8
Black
10
53.7345
20
-41.735
11
53.7345
21
-42.365
0
LINE
8
Black
10
51.787
20
-42.138
11
51.337
21
-42.138
0
LINE
8
Black
10
51.337
20
-42.138
11
51.337
21
-41.598
0
LINE
8
Black
10
51.337
20
-41.598
11
51.787
21
-41.598
0
LINE
8
Black
10
51.787
20
-41.598
11
51.787
21
-42.138
0
LINE
8
Black
10
65.886
20
-41.627
11
65.346
21
-41.627
0
LINE
8
Black
10
65.346
20
-41.627
11
65.346
21
-41.177
0
LINE
8
Black
10
65.346
20
-41.177
11
65.886
21
-41.177
0
LINE
8
Black
10
65.886
20
-41.177
11
65.886
21
-41.627
0
LINE
8
Black
10
64.786
20
-41.627
11
64.246
21
-41.627
0
LINE
8
Black
10
64.246
20
-41.627
11
64.246
21
-41.177
0
LINE
8
Black
10
64.246
20
-41.177
11
64.786
21
-41.177
0
LINE
8
Black
10
64.786
20
-41.177
11
64.786
21
-41.627
0
LINE
8
Black
10
42.222
20
-40.865
11
41.682
21
-40.865
0
LINE
8
Black
10
41.682
20
-40.865
11
41.682
21
-40.415
0
LINE
8
Black
10
41.682
20
-40.415
11
42.222
21
-40.415
0
LINE
8
Black
10
42.222
20
-40.415
11
42.222
21
-40.865
0
LINE
8
Black
10
41.122
20
-40.865
11
40.582
21
-40.865
0
LINE
8
Black
10
40.582
20
-40.865
11
40.582
21
-40.415
0
LINE
8
Black
10
40.582
20
-40.415
11
41.122
21
-40.415
0
LINE
8
Black
10
41.122
20
-40.415
11
41.122
21
-40.865
0
LINE
8
Black
10
47.203
20
-40.283
11
46.753
21
-40.283
0
LINE
8
Black
10
46.753
20
-40.283
11
46.753
21
-39.473
0
LINE
8
Black
10
46.753
20
-39.473
11
47.203
21
-39.473
0
LINE
8
Black
10
47.203
20
-39.473
11
47.203
21
-40.283
0
LINE
8
Black
10
45.703
20
-40.283
11
45.253
21
-40.283
0
LINE
8
Black
10
45.253
20
-40.283
11
45.253
21
-39.473
0
LINE
8
Black
10
45.253
20
-39.473
11
45.703
21
-39.473
0
LINE
8
Black
10
45.703
20
-39.473
11
45.703
21
-40.283
0
LINE
8
Black
10
49.767
20
-40.283
11
49.317
21
-40.283
0
LINE
8
Black
10
49.317
20
-40.283
11
49.317
21
-39.473
0
LINE
8
Black
10
49.317
20
-39.473
11
49.767
21
-39.473
0
LINE
8
Black
10
49.767
20
-39.473
11
49.767
21
-40.283
0
LINE
8
Black
10
51.267
20
-40.283
11
50.817
21
-40.283
0
LINE
8
Black
10
50.817
20
-40.283
11
50.817
21
-39.473
0
LINE
8
Black
10
50.817
20
-39.473
11
51.267
21
-39.473
0
LINE
8
Black
10
51.267
20
-39.473
11
51.267
21
-40.283
0
LINE
8
Black
10
35.718
20
-40.047
11
34.818
21
-40.047
0
LINE
8
Black
10
34.818
20
-40.047
11
34.818
21
-39.237
0
LINE
8
Black
10
34.818
20
-39.237
11
35.718
21
-39.237
0
LINE
8
Black
10
35.718
20
-39.237
11
35.718
21
-40.047
0
LINE
8
Black
10
37.318
20
-40.047
11
36.418
21
-40.047
0
LINE
8
Black
10
36.418
20
-40.047
11
36.418
21
-39.237
0
LINE
8
Black
10
36.418
20
-39.237
11
37.318
21
-39.237
0
LINE
8
Black
10
37.318
20
-39.237
11
37.318
21
-40.047
0
LINE
8
Black
10
25.0806
20
-39.4825
11
24.9084
21
-39.8983
0
LINE
8
Black
10
24.9084
20
-39.8983
11
24.4095
21
-39.6916
0
LINE
8
Black
10
24.4095
20
-39.6916
11
24.5817
21
-39.2759
0
LINE
8
Black
10
24.5817
20
-39.2759
11
25.0806
21
-39.4825
0
LINE
8
Black
10
32.409
20
-39.837
11
31.599
21
-39.837
0
LINE
8
Black
10
31.599
20
-39.837
11
31.599
21
-39.387
0
LINE
8
Black
10
31.599
20
-39.387
11
32.409
21
-39.387
0
LINE
8
Black
10
32.409
20
-39.387
11
32.409
21
-39.837
0
LINE
8
Black
10
24.0643
20
-39.0616
11
23.8921
21
-39.4773
0
LINE
8
Black
10
23.8921
20
-39.4773
11
23.3932
21
-39.2707
0
LINE
8
Black
10
23.3932
20
-39.2707
11
23.5654
21
-38.8549
0
LINE
8
Black
10
23.5654
20
-38.8549
11
24.0643
21
-39.0616
0
LINE
8
Black
10
27.9902
20
-38.1652
11
27.6974
21
-38.872
0
LINE
8
Black
10
27.6974
20
-38.872
11
26.8659
21
-38.5275
0
LINE
8
Black
10
26.8659
20
-38.5275
11
27.1587
21
-37.8208
0
LINE
8
Black
10
27.1587
20
-37.8208
11
27.9902
21
-38.1652
0
LINE
8
Black
10
62.0341
20
-38.5275
11
61.2026
21
-38.872
0
LINE
8
Black
10
61.2026
20
-38.872
11
60.9098
21
-38.1652
0
LINE
8
Black
10
60.9098
20
-38.1652
11
61.7413
21
-37.8208
0
LINE
8
Black
10
61.7413
20
-37.8208
11
62.0341
21
-38.5275
0
LINE
8
Black
10
55.252
20
-38.701
11
54.262
21
-38.701
0
LINE
8
Black
10
54.262
20
-38.701
11
54.262
21
-36.991
0
LINE
8
Black
10
54.262
20
-36.991
11
55.252
21
-36.991
0
LINE
8
Black
10
55.252
20
-36.991
11
55.252
21
-38.701
0
LINE
8
Black
10
57.752
20
-38.701
11
56.762
21
-38.701
0
LINE
8
Black
10
56.762
20
-38.701
11
56.762
21
-36.991
0
LINE
8
Black
10
56.762
20
-36.991
11
57.752
21
-36.991
0
LINE
8
Black
10
57.752
20
-36.991
11
57.752
21
-38.701
0
LINE
8
Black
10
50.52
20
-38.579
11
49.98
21
-38.579
0
LINE
8
Black
10
49.98
20
-38.579
11
49.98
21
-38.129
0
LINE
8
Black
10
49.98
20
-38.129
11
50.52
21
-38.129
0
LINE
8
Black
10
50.52
20
-38.129
11
50.52
21
-38.579
0
LINE
8
Black
10
51.62
20
-38.579
11
51.08
21
-38.579
0
LINE
8
Black
10
51.08
20
-38.579
11
51.08
21
-38.129
0
LINE
8
Black
10
51.08
20
-38.129
11
51.62
21
-38.129
0
LINE
8
Black
10
51.62
20
-38.129
11
51.62
21
-38.579
0
LINE
8
Black
10
32.409
20
-38.337
11
31.599
21
-38.337
0
LINE
8
Black
10
31.599
20
-38.337
11
31.599
21
-37.887
0
LINE
8
Black
10
31.599
20
-37.887
11
32.409
21
-37.887
0
LINE
8
Black
10
32.409
20
-37.887
11
32.409
21
-38.337
0
LINE
8
Black
10
45.179
20
-38.193
11
44.189
21
-38.193
0
LINE
8
Black
10
44.189
20
-38.193
11
44.189
21
-36.483
0
LINE
8
Black
10
44.189
20
-36.483
11
45.179
21
-36.483
0
LINE
8
Black
10
45.179
20
-36.483
11
45.179
21
-38.193
0
LINE
8
Black
10
42.679
20
-38.193
11
41.689
21
-38.193
0
LINE
8
Black
10
41.689
20
-38.193
11
41.689
21
-36.483
0
LINE
8
Black
10
41.689
20
-36.483
11
42.679
21
-36.483
0
LINE
8
Black
10
42.679
20
-36.483
11
42.679
21
-38.193
0
LINE
8
Black
10
65.2677
20
-37.1882
11
64.4362
21
-37.5326
0
LINE
8
Black
10
64.4362
20
-37.5326
11
64.1434
21
-36.8258
0
LINE
8
Black
10
64.1434
20
-36.8258
11
64.9749
21
-36.4814
0
LINE
8
Black
10
64.9749
20
-36.4814
11
65.2677
21
-37.1882
0
LINE
8
Black
10
24.7566
20
-36.8258
11
24.4638
21
-37.5326
0
LINE
8
Black
10
24.4638
20
-37.5326
11
23.6323
21
-37.1882
0
LINE
8
Black
10
23.6323
20
-37.1882
11
23.9251
21
-36.4814
0
LINE
8
Black
10
23.9251
20
-36.4814
11
24.7566
21
-36.8258
0
LINE
8
Black
10
61.3644
20
-36.9108
11
60.5329
21
-37.2552
0
LINE
8
Black
10
60.5329
20
-37.2552
11
60.2401
21
-36.5484
0
LINE
8
Black
10
60.2401
20
-36.5484
11
61.0716
21
-36.204
0
LINE
8
Black
10
61.0716
20
-36.204
11
61.3644
21
-36.9108
0
LINE
8
Black
10
28.6599
20
-36.5484
11
28.3671
21
-37.2552
0
LINE
8
Black
10
28.3671
20
-37.2552
11
27.5356
21
-36.9108
0
LINE
8
Black
10
27.5356
20
-36.9108
11
27.8284
21
-36.204
0
LINE
8
Black
10
27.8284
20
-36.204
11
28.6599
21
-36.5484
0
LINE
8
Black
10
47.631
20
-37.064
11
46.821
21
-37.064
0
LINE
8
Black
10
46.821
20
-37.064
11
46.821
21
-36.164
0
LINE
8
Black
10
46.821
20
-36.164
11
47.631
21
-36.164
0
LINE
8
Black
10
47.631
20
-36.164
11
47.631
21
-37.064
0
LINE
8
Black
10
51.731
20
-37.064
11
50.921
21
-37.064
0
LINE
8
Black
10
50.921
20
-37.064
11
50.921
21
-36.164
0
LINE
8
Black
10
50.921
20
-36.164
11
51.731
21
-36.164
0
LINE
8
Black
10
51.731
20
-36.164
11
51.731
21
-37.064
0
LINE
8
Black
10
32.3629
20
-36.6682
11
31.6451
21
-36.6682
0
LINE
8
Black
10
31.6451
20
-36.6682
11
31.6451
21
-35.9504
0
LINE
8
Black
10
31.6451
20
-35.9504
11
32.3629
21
-35.9504
0
LINE
8
Black
10
32.3629
20
-35.9504
11
32.3629
21
-36.6682
0
LINE
8
Black
10
55.089
20
-35.957
11
54.639
21
-35.957
0
LINE
8
Black
10
54.639
20
-35.957
11
54.639
21
-35.417
0
LINE
8
Black
10
54.639
20
-35.417
11
55.089
21
-35.417
0
LINE
8
Black
10
55.089
20
-35.417
11
55.089
21
-35.957
0
LINE
8
Black
10
37.318
20
-35.947
11
36.418
21
-35.947
0
LINE
8
Black
10
36.418
20
-35.947
11
36.418
21
-35.137
0
LINE
8
Black
10
36.418
20
-35.137
11
37.318
21
-35.137
0
LINE
8
Black
10
37.318
20
-35.137
11
37.318
21
-35.947
0
LINE
8
Black
10
35.718
20
-35.947
11
34.818
21
-35.947
0
LINE
8
Black
10
34.818
20
-35.947
11
34.818
21
-35.137
0
LINE
8
Black
10
34.818
20
-35.137
11
35.718
21
-35.137
0
LINE
8
Black
10
35.718
20
-35.137
11
35.718
21
-35.947
0
LINE
8
Black
10
64.598
20
-35.5714
11
63.7665
21
-35.9158
0
LINE
8
Black
10
63.7665
20
-35.9158
11
63.4737
21
-35.209
0
LINE
8
Black
10
63.4737
20
-35.209
11
64.3052
21
-34.8646
0
LINE
8
Black
10
64.3052
20
-34.8646
11
64.598
21
-35.5714
0
LINE
8
Black
10
25.4263
20
-35.209
11
25.1335
21
-35.9158
0
LINE
8
Black
10
25.1335
20
-35.9158
11
24.302
21
-35.5714
0
LINE
8
Black
10
24.302
20
-35.5714
11
24.5948
21
-34.8646
0
LINE
8
Black
10
24.5948
20
-34.8646
11
25.4263
21
-35.209
0
LINE
8
Black
10
58.478
20
-35.912
11
57.938
21
-35.912
0
LINE
8
Black
10
57.938
20
-35.912
11
57.938
21
-35.462
0
LINE
8
Black
10
57.938
20
-35.462
11
58.478
21
-35.462
0
LINE
8
Black
10
58.478
20
-35.462
11
58.478
21
-35.912
0
LINE
8
Black
10
57.378
20
-35.912
11
56.838
21
-35.912
0
LINE
8
Black
10
56.838
20
-35.912
11
56.838
21
-35.462
0
LINE
8
Black
10
56.838
20
-35.462
11
57.378
21
-35.462
0
LINE
8
Black
10
57.378
20
-35.462
11
57.378
21
-35.912
0
LINE
8
Black
10
51.731
20
-35.464
11
50.921
21
-35.464
0
LINE
8
Black
10
50.921
20
-35.464
11
50.921
21
-34.564
0
LINE
8
Black
10
50.921
20
-34.564
11
51.731
21
-34.564
0
LINE
8
Black
10
51.731
20
-34.564
11
51.731
21
-35.464
0
LINE
8
Black
10
47.631
20
-35.464
11
46.821
21
-35.464
0
LINE
8
Black
10
46.821
20
-35.464
11
46.821
21
-34.564
0
LINE
8
Black
10
46.821
20
-34.564
11
47.631
21
-34.564
0
LINE
8
Black
10
47.631
20
-34.564
11
47.631
21
-35.464
0
LINE
8
Black
10
32.3629
20
-35.1696
11
31.6451
21
-35.1696
0
LINE
8
Black
10
31.6451
20
-35.1696
11
31.6451
21
-34.4518
0
LINE
8
Black
10
31.6451
20
-34.4518
11
32.3629
21
-34.4518
0
LINE
8
Black
10
32.3629
20
-34.4518
11
32.3629
21
-35.1696
0
LINE
8
Black
10
42.643
20
-35.11
11
42.193
21
-35.11
0
LINE
8
Black
10
42.193
20
-35.11
11
42.193
21
-34.57
0
LINE
8
Black
10
42.193
20
-34.57
11
42.643
21
-34.57
0
LINE
8
Black
10
42.643
20
-34.57
11
42.643
21
-35.11
0
LINE
8
Black
10
44.675
20
-35.11
11
44.225
21
-35.11
0
LINE
8
Black
10
44.225
20
-35.11
11
44.225
21
-34.57
0
LINE
8
Black
10
44.225
20
-34.57
11
44.675
21
-34.57
0
LINE
8
Black
10
44.675
20
-34.57
11
44.675
21
-35.11
0
LINE
8
Black
10
55.089
20
-34.857
11
54.639
21
-34.857
0
LINE
8
Black
10
54.639
20
-34.857
11
54.639
21
-34.317
0
LINE
8
Black
10
54.639
20
-34.317
11
55.089
21
-34.317
0
LINE
8
Black
10
55.089
20
-34.317
11
55.089
21
-34.857
0
LINE
8
Black
10
62.1577
20
-34.0596
11
61.6588
21
-34.2663
0
LINE
8
Black
10
61.6588
20
-34.2663
11
61.4866
21
-33.8505
0
LINE
8
Black
10
61.4866
20
-33.8505
11
61.9855
21
-33.6439
0
LINE
8
Black
10
61.9855
20
-33.6439
11
62.1577
21
-34.0596
0
LINE
8
Black
10
42.643
20
-34.01
11
42.193
21
-34.01
0
LINE
8
Black
10
42.193
20
-34.01
11
42.193
21
-33.47
0
LINE
8
Black
10
42.193
20
-33.47
11
42.643
21
-33.47
0
LINE
8
Black
10
42.643
20
-33.47
11
42.643
21
-34.01
0
LINE
8
Black
10
44.675
20
-34.01
11
44.225
21
-34.01
0
LINE
8
Black
10
44.225
20
-34.01
11
44.225
21
-33.47
0
LINE
8
Black
10
44.225
20
-33.47
11
44.675
21
-33.47
0
LINE
8
Black
10
44.675
20
-33.47
11
44.675
21
-34.01
0
LINE
8
Black
10
63.174
20
-33.6387
11
62.6751
21
-33.8453
0
LINE
8
Black
10
62.6751
20
-33.8453
11
62.5029
21
-33.4296
0
LINE
8
Black
10
62.5029
20
-33.4296
11
63.0018
21
-33.2229
0
LINE
8
Black
10
63.0018
20
-33.2229
11
63.174
21
-33.6387
0
LINE
8
Black
10
31.6482
20
-32.3447
11
31.1072
21
-32.8856
0
LINE
8
Black
10
31.1072
20
-32.8856
11
30.4709
21
-32.2492
0
LINE
8
Black
10
30.4709
20
-32.2492
11
31.0118
21
-31.7083
0
LINE
8
Black
10
31.0118
20
-31.7083
11
31.6482
21
-32.3447
0
LINE
8
Black
10
58.4291
20
-32.2492
11
57.7928
21
-32.8856
0
LINE
8
Black
10
57.7928
20
-32.8856
11
57.2518
21
-32.3447
0
LINE
8
Black
10
57.2518
20
-32.3447
11
57.8882
21
-31.7083
0
LINE
8
Black
10
57.8882
20
-31.7083
11
58.4291
21
-32.2492
0
LINE
8
Black
10
28.456
20
-32.4483
11
28.1378
21
-32.7665
0
LINE
8
Black
10
28.1378
20
-32.7665
11
27.7559
21
-32.3846
0
LINE
8
Black
10
27.7559
20
-32.3846
11
28.0741
21
-32.0664
0
LINE
8
Black
10
28.0741
20
-32.0664
11
28.456
21
-32.4483
0
LINE
8
Black
10
27.6781
20
-31.6705
11
27.3599
21
-31.9887
0
LINE
8
Black
10
27.3599
20
-31.9887
11
26.9781
21
-31.6068
0
LINE
8
Black
10
26.9781
20
-31.6068
11
27.2963
21
-31.2886
0
LINE
8
Black
10
27.2963
20
-31.2886
11
27.6781
21
-31.6705
0
LINE
8
Black
10
54.253
20
-31.975
11
53.443
21
-31.975
0
LINE
8
Black
10
53.443
20
-31.975
11
53.443
21
-31.525
0
LINE
8
Black
10
53.443
20
-31.525
11
54.253
21
-31.525
0
LINE
8
Black
10
54.253
20
-31.525
11
54.253
21
-31.975
0
LINE
8
Black
10
45.599
20
-31.692
11
44.789
21
-31.692
0
LINE
8
Black
10
44.789
20
-31.692
11
44.789
21
-30.792
0
LINE
8
Black
10
44.789
20
-30.792
11
45.599
21
-30.792
0
LINE
8
Black
10
45.599
20
-30.792
11
45.599
21
-31.692
0
LINE
8
Black
10
49.699
20
-31.692
11
48.889
21
-31.692
0
LINE
8
Black
10
48.889
20
-31.692
11
48.889
21
-30.792
0
LINE
8
Black
10
48.889
20
-30.792
11
49.699
21
-30.792
0
LINE
8
Black
10
49.699
20
-30.792
11
49.699
21
-31.692
0
LINE
8
Black
10
32.8856
20
-31.1072
11
32.3447
21
-31.6482
0
LINE
8
Black
10
32.3447
20
-31.6482
11
31.7083
21
-31.0118
0
LINE
8
Black
10
31.7083
20
-31.0118
11
32.2492
21
-30.4709
0
LINE
8
Black
10
32.2492
20
-30.4709
11
32.8856
21
-31.1072
0
LINE
8
Black
10
57.1917
20
-31.0118
11
56.5553
21
-31.6482
0
LINE
8
Black
10
56.5553
20
-31.6482
11
56.0144
21
-31.1072
0
LINE
8
Black
10
56.0144
20
-31.1072
11
56.6508
21
-30.4709
0
LINE
8
Black
10
56.6508
20
-30.4709
11
57.1917
21
-31.0118
0
LINE
8
Black
10
54.253
20
-30.475
11
53.443
21
-30.475
0
LINE
8
Black
10
53.443
20
-30.475
11
53.443
21
-30.025
0
LINE
8
Black
10
53.443
20
-30.025
11
54.253
21
-30.025
0
LINE
8
Black
10
54.253
20
-30.025
11
54.253
21
-30.475
0
LINE
8
Black
10
29.1733
20
-29.8698
11
28.6324
21
-30.4107
0
LINE
8
Black
10
28.6324
20
-30.4107
11
27.996
21
-29.7744
0
LINE
8
Black
10
27.996
20
-29.7744
11
28.5369
21
-29.2334
0
LINE
8
Black
10
28.5369
20
-29.2334
11
29.1733
21
-29.8698
0
LINE
8
Black
10
60.904
20
-29.7744
11
60.2676
21
-30.4107
0
LINE
8
Black
10
60.2676
20
-30.4107
11
59.7267
21
-29.8698
0
LINE
8
Black
10
59.7267
20
-29.8698
11
60.3631
21
-29.2334
0
LINE
8
Black
10
60.3631
20
-29.2334
11
60.904
21
-29.7744
0
LINE
8
Black
10
49.699
20
-30.092
11
48.889
21
-30.092
0
LINE
8
Black
10
48.889
20
-30.092
11
48.889
21
-29.192
0
LINE
8
Black
10
48.889
20
-29.192
11
49.699
21
-29.192
0
LINE
8
Black
10
49.699
20
-29.192
11
49.699
21
-30.092
0
LINE
8
Black
10
45.599
20
-30.092
11
44.789
21
-30.092
0
LINE
8
Black
10
44.789
20
-30.092
11
44.789
21
-29.192
0
LINE
8
Black
10
44.789
20
-29.192
11
45.599
21
-29.192
0
LINE
8
Black
10
45.599
20
-29.192
11
45.599
21
-30.092
0
LINE
8
Black
10
30.4107
20
-28.6324
11
29.8698
21
-29.1733
0
LINE
8
Black
10
29.8698
20
-29.1733
11
29.2334
21
-28.5369
0
LINE
8
Black
10
29.2334
20
-28.5369
11
29.7744
21
-27.996
0
LINE
8
Black
10
29.7744
20
-27.996
11
30.4107
21
-28.6324
0
LINE
8
Black
10
59.6666
20
-28.5369
11
59.0302
21
-29.1733
0
LINE
8
Black
10
59.0302
20
-29.1733
11
58.4893
21
-28.6324
0
LINE
8
Black
10
58.4893
20
-28.6324
11
59.1256
21
-27.996
0
LINE
8
Black
10
59.1256
20
-27.996
11
59.6666
21
-28.5369
0
LINE
8
Black
10
37.2552
20
-28.3671
11
36.5484
21
-28.6599
0
LINE
8
Black
10
36.5484
20
-28.6599
11
36.204
21
-27.8284
0
LINE
8
Black
10
36.204
20
-27.8284
11
36.9108
21
-27.5356
0
LINE
8
Black
10
36.9108
20
-27.5356
11
37.2552
21
-28.3671
0
LINE
8
Black
10
52.696
20
-27.8284
11
52.3516
21
-28.6599
0
LINE
8
Black
10
52.3516
20
-28.6599
11
51.6448
21
-28.3671
0
LINE
8
Black
10
51.6448
20
-28.3671
11
51.9892
21
-27.5356
0
LINE
8
Black
10
51.9892
20
-27.5356
11
52.696
21
-27.8284
0
LINE
8
Black
10
56.8336
20
-28.0741
11
56.4517
21
-28.456
0
LINE
8
Black
10
56.4517
20
-28.456
11
56.1335
21
-28.1378
0
LINE
8
Black
10
56.1335
20
-28.1378
11
56.5154
21
-27.7559
0
LINE
8
Black
10
56.5154
20
-27.7559
11
56.8336
21
-28.0741
0
LINE
8
Black
10
38.872
20
-27.6974
11
38.1652
21
-27.9902
0
LINE
8
Black
10
38.1652
20
-27.9902
11
37.8208
21
-27.1587
0
LINE
8
Black
10
37.8208
20
-27.1587
11
38.5275
21
-26.8659
0
LINE
8
Black
10
38.5275
20
-26.8659
11
38.872
21
-27.6974
0
LINE
8
Black
10
51.0792
20
-27.1587
11
50.7348
21
-27.9902
0
LINE
8
Black
10
50.7348
20
-27.9902
11
50.028
21
-27.6974
0
LINE
8
Black
10
50.028
20
-27.6974
11
50.3725
21
-26.8659
0
LINE
8
Black
10
50.3725
20
-26.8659
11
51.0792
21
-27.1587
0
LINE
8
Black
10
57.6114
20
-27.2963
11
57.2295
21
-27.6781
0
LINE
8
Black
10
57.2295
20
-27.6781
11
56.9113
21
-27.3599
0
LINE
8
Black
10
56.9113
20
-27.3599
11
57.2932
21
-26.9781
0
LINE
8
Black
10
57.2932
20
-26.9781
11
57.6114
21
-27.2963
0
LINE
8
Black
10
34.2663
20
-27.2412
11
33.8505
21
-27.4134
0
LINE
8
Black
10
33.8505
20
-27.4134
11
33.6439
21
-26.9145
0
LINE
8
Black
10
33.6439
20
-26.9145
11
34.0596
21
-26.7423
0
LINE
8
Black
10
34.0596
20
-26.7423
11
34.2663
21
-27.2412
0
LINE
8
Black
10
45.7075
20
-26.838
11
44.9425
21
-26.838
0
LINE
8
Black
10
44.9425
20
-26.838
11
44.9425
21
-25.938
0
LINE
8
Black
10
44.9425
20
-25.938
11
45.7075
21
-25.938
0
LINE
8
Black
10
45.7075
20
-25.938
11
45.7075
21
-26.838
0
LINE
8
Black
10
43.9575
20
-26.838
11
43.1925
21
-26.838
0
LINE
8
Black
10
43.1925
20
-26.838
11
43.1925
21
-25.938
0
LINE
8
Black
10
43.1925
20
-25.938
11
43.9575
21
-25.938
0
LINE
8
Black
10
43.9575
20
-25.938
11
43.9575
21
-26.838
0
LINE
8
Black
10
33.8453
20
-26.2249
11
33.4296
21
-26.3971
0
LINE
8
Black
10
33.4296
20
-26.3971
11
33.2229
21
-25.8982
0
LINE
8
Black
10
33.2229
20
-25.8982
11
33.6387
21
-25.726
0
LINE
8
Black
10
33.6387
20
-25.726
11
33.8453
21
-26.2249
0
LINE
8
Black
10
54.0354
20
-24.5948
11
53.691
21
-25.4263
0
LINE
8
Black
10
53.691
20
-25.4263
11
52.9842
21
-25.1335
0
LINE
8
Black
10
52.9842
20
-25.1335
11
53.3286
21
-24.302
0
LINE
8
Black
10
53.3286
20
-24.302
11
54.0354
21
-24.5948
0
LINE
8
Black
10
35.9158
20
-25.1335
11
35.209
21
-25.4263
0
LINE
8
Black
10
35.209
20
-25.4263
11
34.8646
21
-24.5948
0
LINE
8
Black
10
34.8646
20
-24.5948
11
35.5714
21
-24.302
0
LINE
8
Black
10
35.5714
20
-24.302
11
35.9158
21
-25.1335
0
LINE
8
Black
10
49.6241
20
-24.5817
11
49.4175
21
-25.0806
0
LINE
8
Black
10
49.4175
20
-25.0806
11
49.0017
21
-24.9084
0
LINE
8
Black
10
49.0017
20
-24.9084
11
49.2084
21
-24.4095
0
LINE
8
Black
10
49.2084
20
-24.4095
11
49.6241
21
-24.5817
0
LINE
8
Black
10
52.4186
20
-23.9251
11
52.0742
21
-24.7566
0
LINE
8
Black
10
52.0742
20
-24.7566
11
51.3674
21
-24.4638
0
LINE
8
Black
10
51.3674
20
-24.4638
11
51.7118
21
-23.6323
0
LINE
8
Black
10
51.7118
20
-23.6323
11
52.4186
21
-23.9251
0
LINE
8
Black
10
37.5326
20
-24.4638
11
36.8258
21
-24.7566
0
LINE
8
Black
10
36.8258
20
-24.7566
11
36.4814
21
-23.9251
0
LINE
8
Black
10
36.4814
20
-23.9251
11
37.1882
21
-23.6323
0
LINE
8
Black
10
37.1882
20
-23.6323
11
37.5326
21
-24.4638
0
LINE
8
Black
10
41.627
20
-24.654
11
41.177
21
-24.654
0
LINE
8
Black
10
41.177
20
-24.654
11
41.177
21
-24.114
0
LINE
8
Black
10
41.177
20
-24.114
11
41.627
21
-24.114
0
LINE
8
Black
10
41.627
20
-24.114
11
41.627
21
-24.654
0
LINE
8
Black
10
50.0451
20
-23.5654
11
49.8384
21
-24.0643
0
LINE
8
Black
10
49.8384
20
-24.0643
11
49.4227
21
-23.8921
0
LINE
8
Black
10
49.4227
20
-23.8921
11
49.6293
21
-23.3932
0
LINE
8
Black
10
49.6293
20
-23.3932
11
50.0451
21
-23.5654
0
LINE
8
Black
10
41.627
20
-23.554
11
41.177
21
-23.554
0
LINE
8
Black
10
41.177
20
-23.554
11
41.177
21
-23.014
0
LINE
8
Black
10
41.177
20
-23.014
11
41.627
21
-23.014
0
LINE
8
Black
10
41.627
20
-23.014
11
41.627
21
-23.554
0
LINE
8
Black
10
45.7075
20
-23.338
11
44.9425
21
-23.338
0
LINE
8
Black
10
44.9425
20
-23.338
11
44.9425
21
-22.438
0
LINE
8
Black
10
44.9425
20
-22.438
11
45.7075
21
-22.438
0
LINE
8
Black
10
45.7075
20
-22.438
11
45.7075
21
-23.338
0
LINE
8
Black
10
43.9575
20
-23.338
11
43.1925
21
-23.338
0
LINE
8
Black
10
43.1925
20
-23.338
11
43.1925
21
-22.438
0
LINE
8
Black
10
43.1925
20
-22.438
11
43.9575
21
-22.438
0
LINE
8
Black
10
43.9575
20
-22.438
11
43.9575
21
-23.338
  0
ENDSEC
  0
EOF
