M48
;DRILL file {KiCad 201611251247+7376~55~ubuntu16.10.1-product} date Sun Nov 27 21:51:47 2016
;FORMAT={-:-/ absolute / inch / decimal}
FMAT,2
INCH,TZ
T1C0.015
T2C0.020
T3C0.033
T4C0.045
%
G90
G05
M72
T1
X0.845Y-1.715
X0.845Y-1.795
X0.8842Y-2.0419
X0.8967Y-1.4452
X0.9273Y-1.3713
X0.9311Y-2.1379
X1.0372Y-2.1751
X1.0782Y-1.1419
X1.0844Y-1.2541
X1.0853Y-2.3652
X1.1419Y-2.4218
X1.155Y-1.045
X1.3249Y-1.0372
X1.3621Y-0.9311
X1.3713Y-2.5727
X1.42Y-2.2
X1.4452Y-2.6033
X1.4581Y-0.8842
X1.505Y-1.745
X1.53Y-2.515
X1.55Y-1.65
X1.6033Y-1.665
X1.61Y-1.94
X1.62Y-1.33
X1.63Y-0.9287
X1.63Y-1.56
X1.63Y-1.9
X1.63Y-2.5
X1.675Y-2.685
X1.685Y-2.145
X1.685Y-2.175
X1.7Y-2.41
X1.705Y-0.845
X1.715Y-2.655
X1.76Y-1.95
X1.775Y-1.14
X1.79Y-1.88
X1.8Y-1.19
X1.81Y-1.0713
X1.81Y-1.26
X1.81Y-1.63
X1.8116Y-0.8384
X1.825Y-1.145
X1.85Y-1.8635
X1.88Y-1.75
X1.88Y-1.8135
X1.92Y-1.5
X1.92Y-1.62
X1.92Y-1.74
X1.94Y-2.56
X1.9534Y-0.9453
X1.9598Y-1.74
X1.96Y-1.41
X1.985Y-1.785
X2.03Y-1.04
X2.03Y-1.09
X2.03Y-2.57
X2.0406Y-1.6806
X2.05Y-1.58
X2.0548Y-0.8967
X2.055Y-1.5
X2.06Y-2.25
X2.064Y-2.5995
X2.1325Y-1.0925
X2.1379Y-2.5689
X2.16Y-1.95
X2.17Y-1.24
X2.1736Y-0.9305
X2.18Y-1.75
X2.2Y-1.56
X2.21Y-1.1275
X2.22Y-2.03
X2.2459Y-1.0844
X2.2942Y-1.3142
X2.34Y-1.74
X2.34Y-1.79
X2.345Y-1.695
X2.3581Y-1.0782
X2.36Y-1.43
X2.3652Y-2.4147
X2.375Y-1.87
X2.3998Y-1.6502
X2.4Y-1.485
X2.4218Y-2.3581
X2.455Y-1.155
X2.5547Y-1.9534
X2.5689Y-1.3621
X2.5695Y-2.1736
X2.5995Y-1.436
X2.6033Y-2.0548
X2.655Y-1.705
X2.655Y-1.785
T2
X1.077Y-2.163
X1.08Y-1.61
X1.1749Y-1.6849
X1.37Y-1.85
X1.41Y-1.23
X1.41Y-1.95
X1.42Y-2.08
X1.5Y-1.8
X1.59Y-2.31
X1.7402Y-1.7502
X1.8Y-2.65
X1.82Y-1.93
X1.845Y-2.525
X2.04Y-2.01
X2.1655Y-2.3
T3
X1.6516Y-2.5885
X1.8484Y-2.5885
T4
X1.6122Y-2.6948
X1.8878Y-2.6948
T0
M30
