M48
;DRILL file {KiCad no-vcs-found-7448~57~ubuntu16.10.1} date Wed Jan 11 20:57:16 2017
;FORMAT={-:-/ absolute / inch / decimal}
FMAT,2
INCH,TZ
T1C0.015
T2C0.020
T3C0.033
T4C0.045
T5C0.087
%
G90
G05
M72
T1
X0.845Y-1.715
X0.845Y-1.795
X0.8842Y-2.0419
X0.8967Y-1.4452
X0.9273Y-1.3713
X0.9311Y-2.1379
X1.0372Y-2.1751
X1.0782Y-1.1419
X1.0844Y-1.2541
X1.0853Y-2.3652
X1.1419Y-2.4218
X1.155Y-1.045
X1.3249Y-1.0372
X1.3621Y-0.9311
X1.3713Y-2.5727
X1.39Y-1.91
X1.42Y-2.2
X1.445Y-2.015
X1.4452Y-2.6033
X1.4581Y-0.8842
X1.505Y-1.745
X1.525Y-1.64
X1.53Y-2.515
X1.58Y-1.65
X1.61Y-1.94
X1.62Y-1.33
X1.6246Y-2.4704
X1.63Y-0.9287
X1.63Y-1.56
X1.655Y-1.89
X1.665Y-2.055
X1.675Y-2.685
X1.685Y-2.145
X1.685Y-2.175
X1.7Y-2.41
X1.705Y-0.845
X1.715Y-2.655
X1.75Y-1.64
X1.76Y-1.88
X1.775Y-1.14
X1.8Y-1.19
X1.81Y-1.0713
X1.81Y-1.26
X1.81Y-1.63
X1.8116Y-0.8384
X1.825Y-1.145
X1.85Y-1.859
X1.885Y-1.745
X1.89Y-1.575
X1.915Y-1.7925
X1.92Y-1.5
X1.94Y-1.88
X1.94Y-2.56
X1.95Y-1.72
X1.95Y-1.75
X1.9534Y-0.9453
X1.96Y-1.41
X1.975Y-1.815
X1.98Y-1.69
X1.98Y-2.555
X2.02Y-1.64
X2.03Y-1.04
X2.03Y-1.09
X2.04Y-1.69
X2.05Y-1.58
X2.0548Y-0.8967
X2.055Y-1.5
X2.06Y-2.25
X2.064Y-2.5995
X2.11Y-1.9
X2.1325Y-1.0925
X2.1379Y-2.5689
X2.16Y-1.95
X2.17Y-1.24
X2.1736Y-0.9305
X2.18Y-1.75
X2.2Y-1.56
X2.21Y-1.1275
X2.22Y-2.03
X2.2459Y-1.0844
X2.2942Y-1.3142
X2.34Y-1.74
X2.34Y-1.79
X2.345Y-1.695
X2.3581Y-1.0782
X2.36Y-1.43
X2.3652Y-2.4147
X2.3998Y-1.6502
X2.4Y-1.485
X2.42Y-1.85
X2.4218Y-2.3581
X2.455Y-1.155
X2.5547Y-1.9534
X2.5689Y-1.3621
X2.5695Y-2.1736
X2.5995Y-1.436
X2.6033Y-2.0548
X2.655Y-1.705
X2.655Y-1.785
T2
X1.27Y-2.05
X1.41Y-1.23
X1.43Y-1.745
X1.435Y-1.49
X1.6Y-2.31
X1.605Y-2.
X1.8Y-2.62
X1.845Y-2.475
X1.9Y-1.945
X2.085Y-2.025
X2.1655Y-2.3
T3
X1.6516Y-2.5435
X1.8484Y-2.5435
T4
X1.6122Y-2.6498
X1.8878Y-2.6498
T5
X1.165Y-1.475
X2.38Y-1.96
T0
M30
