  0
SECTION
  2
HEADER
  9
$ANGBASE
  50
0.0
  9
$ANGDIR
  70
  1
  9
$MEASUREMENT
  70
0
  0
ENDSEC
  0
SECTION
  2
TABLES
  0
TABLE
  2
LTYPE
  70
1
  0
LTYPE
  2
CONTINUOUS
  70
0
  3
Solid line
  72
65
  73
0
  40
0.0
  0
ENDTAB
  0
TABLE
  2
STYLE
  70
4
  0
STYLE
  2
KICAD
  70
0
  40
0
  41
1
  42
1
  50
0
  71
0
  3
isocp.shx
  0
STYLE
  2
KICADB
  70
0
  40
0
  41
1
  42
1
  50
0
  71
0
  3
isocp.shx
  0
STYLE
  2
KICADI
  70
0
  40
0
  41
1
  42
1
  50
15
  71
0
  3
isocp.shx
  0
STYLE
  2
KICADBI
  70
0
  40
0
  41
1
  42
1
  50
15
  71
0
  3
isocp.shx
  0
ENDTAB
  0
TABLE
  2
LAYER
  70
30
  0
LAYER
  2
BLACK
  70
0
  62
7
  6
CONTINUOUS
  0
LAYER
  2
GRAY1
  70
0
  62
251
  6
CONTINUOUS
  0
LAYER
  2
GRAY2
  70
0
  62
8
  6
CONTINUOUS
  0
LAYER
  2
GRAY3
  70
0
  62
9
  6
CONTINUOUS
  0
LAYER
  2
WHITE
  70
0
  62
7
  6
CONTINUOUS
  0
LAYER
  2
LYELLOW
  70
0
  62
51
  6
CONTINUOUS
  0
LAYER
  2
BLUE1
  70
0
  62
178
  6
CONTINUOUS
  0
LAYER
  2
GREEN1
  70
0
  62
98
  6
CONTINUOUS
  0
LAYER
  2
CYAN1
  70
0
  62
138
  6
CONTINUOUS
  0
LAYER
  2
RED1
  70
0
  62
18
  6
CONTINUOUS
  0
LAYER
  2
MAGENTA1
  70
0
  62
228
  6
CONTINUOUS
  0
LAYER
  2
BROWN1
  70
0
  62
58
  6
CONTINUOUS
  0
LAYER
  2
BLUE2
  70
0
  62
5
  6
CONTINUOUS
  0
LAYER
  2
GREEN2
  70
0
  62
3
  6
CONTINUOUS
  0
LAYER
  2
CYAN2
  70
0
  62
4
  6
CONTINUOUS
  0
LAYER
  2
RED2
  70
0
  62
1
  6
CONTINUOUS
  0
LAYER
  2
MAGENTA2
  70
0
  62
6
  6
CONTINUOUS
  0
LAYER
  2
BROWN2
  70
0
  62
54
  6
CONTINUOUS
  0
LAYER
  2
BLUE3
  70
0
  62
171
  6
CONTINUOUS
  0
LAYER
  2
GREEN3
  70
0
  62
91
  6
CONTINUOUS
  0
LAYER
  2
CYAN3
  70
0
  62
131
  6
CONTINUOUS
  0
LAYER
  2
RED3
  70
0
  62
11
  6
CONTINUOUS
  0
LAYER
  2
MAGENTA3
  70
0
  62
221
  6
CONTINUOUS
  0
LAYER
  2
YELLOW3
  70
0
  62
2
  6
CONTINUOUS
  0
LAYER
  2
BLUE4
  70
0
  62
5
  6
CONTINUOUS
  0
LAYER
  2
GREEN4
  70
0
  62
3
  6
CONTINUOUS
  0
LAYER
  2
CYAN4
  70
0
  62
4
  6
CONTINUOUS
  0
LAYER
  2
RED4
  70
0
  62
1
  6
CONTINUOUS
  0
LAYER
  2
MAGENTA4
  70
0
  62
6
  6
CONTINUOUS
  0
LAYER
  2
YELLOW4
  70
0
  62
2
  6
CONTINUOUS
  0
ENDTAB
  0
ENDSEC
  0
SECTION
  2
ENTITIES
0
LINE
8
Black
10
48.1895
20
-67.7895
11
48.4001
21
-67.9111
0
LINE
8
Black
10
48.4001
20
-67.9111
11
48.5564
21
-68.0974
0
LINE
8
Black
10
48.5564
20
-68.0974
11
48.6395
21
-68.3259
0
LINE
8
Black
10
48.6395
20
-68.3259
11
48.6395
21
-68.569
0
LINE
8
Black
10
48.6395
20
-68.569
11
48.5564
21
-68.7975
0
LINE
8
Black
10
48.5564
20
-68.7975
11
48.4001
21
-68.9838
0
LINE
8
Black
10
48.4001
20
-68.9838
11
48.1895
21
-69.1054
0
LINE
8
Black
10
48.1895
20
-69.1054
11
47.95
21
-69.1476
0
LINE
8
Black
10
47.95
20
-69.1476
11
47.7105
21
-69.1054
0
LINE
8
Black
10
47.7105
20
-69.1054
11
47.4999
21
-68.9838
0
LINE
8
Black
10
47.4999
20
-68.9838
11
47.3436
21
-68.7975
0
LINE
8
Black
10
47.3436
20
-68.7975
11
47.2605
21
-68.569
0
LINE
8
Black
10
47.2605
20
-68.569
11
47.2605
21
-68.3259
0
LINE
8
Black
10
47.2605
20
-68.3259
11
47.3436
21
-68.0974
0
LINE
8
Black
10
47.3436
20
-68.0974
11
47.4999
21
-67.9111
0
LINE
8
Black
10
47.4999
20
-67.9111
11
47.7105
21
-67.7895
0
LINE
8
Black
10
47.7105
20
-67.7895
11
47.95
21
-67.7473
0
LINE
8
Black
10
47.95
20
-67.7473
11
48.1895
21
-67.7895
0
LINE
8
Black
10
41.1895
20
-67.7895
11
41.4001
21
-67.9111
0
LINE
8
Black
10
41.4001
20
-67.9111
11
41.5564
21
-68.0974
0
LINE
8
Black
10
41.5564
20
-68.0974
11
41.6395
21
-68.3259
0
LINE
8
Black
10
41.6395
20
-68.3259
11
41.6395
21
-68.569
0
LINE
8
Black
10
41.6395
20
-68.569
11
41.5564
21
-68.7975
0
LINE
8
Black
10
41.5564
20
-68.7975
11
41.4001
21
-68.9838
0
LINE
8
Black
10
41.4001
20
-68.9838
11
41.1895
21
-69.1054
0
LINE
8
Black
10
41.1895
20
-69.1054
11
40.95
21
-69.1476
0
LINE
8
Black
10
40.95
20
-69.1476
11
40.7105
21
-69.1054
0
LINE
8
Black
10
40.7105
20
-69.1054
11
40.4999
21
-68.9838
0
LINE
8
Black
10
40.4999
20
-68.9838
11
40.3436
21
-68.7975
0
LINE
8
Black
10
40.3436
20
-68.7975
11
40.2605
21
-68.569
0
LINE
8
Black
10
40.2605
20
-68.569
11
40.2605
21
-68.3259
0
LINE
8
Black
10
40.2605
20
-68.3259
11
40.3436
21
-68.0974
0
LINE
8
Black
10
40.3436
20
-68.0974
11
40.4999
21
-67.9111
0
LINE
8
Black
10
40.4999
20
-67.9111
11
40.7105
21
-67.7895
0
LINE
8
Black
10
40.7105
20
-67.7895
11
40.95
21
-67.7473
0
LINE
8
Black
10
40.95
20
-67.7473
11
41.1895
21
-67.7895
0
LINE
8
Black
10
43.33
20
-66.355
11
42.97
21
-66.355
0
LINE
8
Black
10
42.97
20
-66.355
11
42.97
21
-65.14
0
LINE
8
Black
10
42.97
20
-65.14
11
43.33
21
-65.14
0
LINE
8
Black
10
43.33
20
-65.14
11
43.33
21
-66.355
0
LINE
8
Black
10
43.98
20
-66.355
11
43.62
21
-66.355
0
LINE
8
Black
10
43.62
20
-66.355
11
43.62
21
-65.14
0
LINE
8
Black
10
43.62
20
-65.14
11
43.98
21
-65.14
0
LINE
8
Black
10
43.98
20
-65.14
11
43.98
21
-66.355
0
LINE
8
Black
10
44.63
20
-66.355
11
44.27
21
-66.355
0
LINE
8
Black
10
44.27
20
-66.355
11
44.27
21
-65.14
0
LINE
8
Black
10
44.27
20
-65.14
11
44.63
21
-65.14
0
LINE
8
Black
10
44.63
20
-65.14
11
44.63
21
-66.355
0
LINE
8
Black
10
45.28
20
-66.355
11
44.92
21
-66.355
0
LINE
8
Black
10
44.92
20
-66.355
11
44.92
21
-65.14
0
LINE
8
Black
10
44.92
20
-65.14
11
45.28
21
-65.14
0
LINE
8
Black
10
45.28
20
-65.14
11
45.28
21
-66.355
0
LINE
8
Black
10
45.93
20
-66.355
11
45.57
21
-66.355
0
LINE
8
Black
10
45.57
20
-66.355
11
45.57
21
-65.14
0
LINE
8
Black
10
45.57
20
-65.14
11
45.93
21
-65.14
0
LINE
8
Black
10
45.93
20
-65.14
11
45.93
21
-66.355
0
LINE
8
Black
10
42.2484
20
-65.3457
11
42.377
21
-65.42
0
LINE
8
Black
10
42.377
20
-65.42
11
42.4724
21
-65.5337
0
LINE
8
Black
10
42.4724
20
-65.5337
11
42.5232
21
-65.6732
0
LINE
8
Black
10
42.5232
20
-65.6732
11
42.5232
21
-65.8217
0
LINE
8
Black
10
42.5232
20
-65.8217
11
42.4724
21
-65.9612
0
LINE
8
Black
10
42.4724
20
-65.9612
11
42.377
21
-66.0749
0
LINE
8
Black
10
42.377
20
-66.0749
11
42.2484
21
-66.1492
0
LINE
8
Black
10
42.2484
20
-66.1492
11
42.1022
21
-66.175
0
LINE
8
Black
10
42.1022
20
-66.175
11
41.7978
21
-66.175
0
LINE
8
Black
10
41.7978
20
-66.175
11
41.6516
21
-66.1492
0
LINE
8
Black
10
41.6516
20
-66.1492
11
41.523
21
-66.0749
0
LINE
8
Black
10
41.523
20
-66.0749
11
41.4276
21
-65.9612
0
LINE
8
Black
10
41.4276
20
-65.9612
11
41.3768
21
-65.8217
0
LINE
8
Black
10
41.3768
20
-65.8217
11
41.3768
21
-65.6732
0
LINE
8
Black
10
41.3768
20
-65.6732
11
41.4276
21
-65.5337
0
LINE
8
Black
10
41.4276
20
-65.5337
11
41.523
21
-65.42
0
LINE
8
Black
10
41.523
20
-65.42
11
41.6516
21
-65.3457
0
LINE
8
Black
10
41.6516
20
-65.3457
11
41.7978
21
-65.32
0
LINE
8
Black
10
41.7978
20
-65.32
11
42.1022
21
-65.32
0
LINE
8
Black
10
42.1022
20
-65.32
11
42.2484
21
-65.3457
0
LINE
8
Black
10
47.2484
20
-65.3457
11
47.377
21
-65.42
0
LINE
8
Black
10
47.377
20
-65.42
11
47.4724
21
-65.5337
0
LINE
8
Black
10
47.4724
20
-65.5337
11
47.5232
21
-65.6732
0
LINE
8
Black
10
47.5232
20
-65.6732
11
47.5232
21
-65.8217
0
LINE
8
Black
10
47.5232
20
-65.8217
11
47.4724
21
-65.9612
0
LINE
8
Black
10
47.4724
20
-65.9612
11
47.377
21
-66.0749
0
LINE
8
Black
10
47.377
20
-66.0749
11
47.2484
21
-66.1492
0
LINE
8
Black
10
47.2484
20
-66.1492
11
47.1022
21
-66.175
0
LINE
8
Black
10
47.1022
20
-66.175
11
46.7978
21
-66.175
0
LINE
8
Black
10
46.7978
20
-66.175
11
46.6516
21
-66.1492
0
LINE
8
Black
10
46.6516
20
-66.1492
11
46.523
21
-66.0749
0
LINE
8
Black
10
46.523
20
-66.0749
11
46.4276
21
-65.9612
0
LINE
8
Black
10
46.4276
20
-65.9612
11
46.3768
21
-65.8217
0
LINE
8
Black
10
46.3768
20
-65.8217
11
46.3768
21
-65.6732
0
LINE
8
Black
10
46.3768
20
-65.6732
11
46.4276
21
-65.5337
0
LINE
8
Black
10
46.4276
20
-65.5337
11
46.523
21
-65.42
0
LINE
8
Black
10
46.523
20
-65.42
11
46.6516
21
-65.3457
0
LINE
8
Black
10
46.6516
20
-65.3457
11
46.7978
21
-65.32
0
LINE
8
Black
10
46.7978
20
-65.32
11
47.1022
21
-65.32
0
LINE
8
Black
10
47.1022
20
-65.32
11
47.2484
21
-65.3457
0
LINE
8
Black
10
59.823
20
-63.6131
11
58.8048
21
-64.6314
0
LINE
8
Black
10
58.8048
20
-64.6314
11
56.6411
21
-62.4676
0
LINE
8
Black
10
56.6411
20
-62.4676
11
57.6593
21
-61.4494
0
LINE
8
Black
10
57.6593
20
-61.4494
11
59.823
21
-63.6131
0
LINE
8
Black
10
29.3717
20
-62.9649
11
28.8625
21
-63.474
0
LINE
8
Black
10
28.8625
20
-63.474
11
28.608
21
-63.2194
0
LINE
8
Black
10
28.608
20
-63.2194
11
29.1171
21
-62.7103
0
LINE
8
Black
10
29.1171
20
-62.7103
11
29.3717
21
-62.9649
0
LINE
8
Black
10
50.824
20
-62.951
11
50.014
21
-62.951
0
LINE
8
Black
10
50.014
20
-62.951
11
50.014
21
-62.501
0
LINE
8
Black
10
50.014
20
-62.501
11
50.824
21
-62.501
0
LINE
8
Black
10
50.824
20
-62.501
11
50.824
21
-62.951
0
LINE
8
Black
10
50.824
20
-61.451
11
50.014
21
-61.451
0
LINE
8
Black
10
50.014
20
-61.451
11
50.014
21
-61.001
0
LINE
8
Black
10
50.014
20
-61.001
11
50.824
21
-61.001
0
LINE
8
Black
10
50.824
20
-61.001
11
50.824
21
-61.451
0
LINE
8
Black
10
30.4005
20
-60.4582
11
29.8914
21
-60.9673
0
LINE
8
Black
10
29.8914
20
-60.9673
11
29.7005
21
-60.7764
0
LINE
8
Black
10
29.7005
20
-60.7764
11
30.2096
21
-60.2673
0
LINE
8
Black
10
30.2096
20
-60.2673
11
30.4005
21
-60.4582
0
LINE
8
Black
10
30.0469
20
-60.1046
11
29.5378
21
-60.6138
0
LINE
8
Black
10
29.5378
20
-60.6138
11
29.3469
21
-60.4228
0
LINE
8
Black
10
29.3469
20
-60.4228
11
29.856
21
-59.9137
0
LINE
8
Black
10
29.856
20
-59.9137
11
30.0469
21
-60.1046
0
LINE
8
Black
10
26.1897
20
-59.7829
11
25.6806
21
-60.292
0
LINE
8
Black
10
25.6806
20
-60.292
11
25.426
21
-60.0375
0
LINE
8
Black
10
25.426
20
-60.0375
11
25.9351
21
-59.5283
0
LINE
8
Black
10
25.9351
20
-59.5283
11
26.1897
21
-59.7829
0
LINE
8
Black
10
29.6934
20
-59.7511
11
29.1843
21
-60.2602
0
LINE
8
Black
10
29.1843
20
-60.2602
11
28.9934
21
-60.0693
0
LINE
8
Black
10
28.9934
20
-60.0693
11
29.5025
21
-59.5602
0
LINE
8
Black
10
29.5025
20
-59.5602
11
29.6934
21
-59.7511
0
LINE
8
Black
10
29.3398
20
-59.3975
11
28.8307
21
-59.9066
0
LINE
8
Black
10
28.8307
20
-59.9066
11
28.6398
21
-59.7157
0
LINE
8
Black
10
28.6398
20
-59.7157
11
29.1489
21
-59.2066
0
LINE
8
Black
10
29.1489
20
-59.2066
11
29.3398
21
-59.3975
0
LINE
8
Black
10
64.6314
20
-58.8048
11
63.6131
21
-59.823
0
LINE
8
Black
10
63.6131
20
-59.823
11
61.4494
21
-57.6593
0
LINE
8
Black
10
61.4494
20
-57.6593
11
62.4676
21
-56.6411
0
LINE
8
Black
10
62.4676
20
-56.6411
11
64.6314
21
-58.8048
0
LINE
8
Black
10
28.9863
20
-59.044
11
28.4772
21
-59.5531
0
LINE
8
Black
10
28.4772
20
-59.5531
11
28.2862
21
-59.3622
0
LINE
8
Black
10
28.2862
20
-59.3622
11
28.7954
21
-58.8531
0
LINE
8
Black
10
28.7954
20
-58.8531
11
28.9863
21
-59.044
0
LINE
8
Black
10
28.6327
20
-58.6904
11
28.1236
21
-59.1995
0
LINE
8
Black
10
28.1236
20
-59.1995
11
27.9327
21
-59.0086
0
LINE
8
Black
10
27.9327
20
-59.0086
11
28.4418
21
-58.4995
0
LINE
8
Black
10
28.4418
20
-58.4995
11
28.6327
21
-58.6904
0
LINE
8
Black
10
57.4366
20
-58.2144
11
56.8002
21
-58.8508
0
LINE
8
Black
10
56.8002
20
-58.8508
11
54.5728
21
-56.6234
0
LINE
8
Black
10
54.5728
20
-56.6234
11
55.2092
21
-55.987
0
LINE
8
Black
10
55.2092
20
-55.987
11
57.4366
21
-58.2144
0
LINE
8
Black
10
58.8508
20
-56.8002
11
58.2144
21
-57.4366
0
LINE
8
Black
10
58.2144
20
-57.4366
11
55.987
21
-55.2092
0
LINE
8
Black
10
55.987
20
-55.2092
11
56.6234
21
-54.5728
0
LINE
8
Black
10
56.6234
20
-54.5728
11
58.8508
21
-56.8002
0
LINE
8
Black
10
23.4341
20
-55.7853
11
22.7689
21
-56.0608
0
LINE
8
Black
10
22.7689
20
-56.0608
11
22.6311
21
-55.7282
0
LINE
8
Black
10
22.6311
20
-55.7282
11
23.2963
21
-55.4527
0
LINE
8
Black
10
23.2963
20
-55.4527
11
23.4341
21
-55.7853
0
LINE
8
Black
10
39.776
20
-55.4765
11
39.146
21
-55.4765
0
LINE
8
Black
10
39.146
20
-55.4765
11
39.146
21
-55.2515
0
LINE
8
Black
10
39.146
20
-55.2515
11
39.776
21
-55.2515
0
LINE
8
Black
10
39.776
20
-55.2515
11
39.776
21
-55.4765
0
LINE
8
Black
10
41.626
20
-55.4765
11
40.996
21
-55.4765
0
LINE
8
Black
10
40.996
20
-55.4765
11
40.996
21
-55.2515
0
LINE
8
Black
10
40.996
20
-55.2515
11
41.626
21
-55.2515
0
LINE
8
Black
10
41.626
20
-55.2515
11
41.626
21
-55.4765
0
LINE
8
Black
10
40.569
20
-55.432
11
40.203
21
-55.432
0
LINE
8
Black
10
40.203
20
-55.432
11
40.203
21
-55.006
0
LINE
8
Black
10
40.203
20
-55.006
11
40.569
21
-55.006
0
LINE
8
Black
10
40.569
20
-55.006
11
40.569
21
-55.432
0
LINE
8
Black
10
48.1105
20
-55.171
11
47.5255
21
-55.171
0
LINE
8
Black
10
47.5255
20
-55.171
11
47.5255
21
-54.217
0
LINE
8
Black
10
47.5255
20
-54.217
11
48.1105
21
-54.217
0
LINE
8
Black
10
48.1105
20
-54.217
11
48.1105
21
-55.171
0
LINE
8
Black
10
50.0105
20
-55.171
11
49.4255
21
-55.171
0
LINE
8
Black
10
49.4255
20
-55.171
11
49.4255
21
-54.217
0
LINE
8
Black
10
49.4255
20
-54.217
11
50.0105
21
-54.217
0
LINE
8
Black
10
50.0105
20
-54.217
11
50.0105
21
-55.171
0
LINE
8
Black
10
41.626
20
-54.9765
11
40.996
21
-54.9765
0
LINE
8
Black
10
40.996
20
-54.9765
11
40.996
21
-54.7515
0
LINE
8
Black
10
40.996
20
-54.7515
11
41.626
21
-54.7515
0
LINE
8
Black
10
41.626
20
-54.7515
11
41.626
21
-54.9765
0
LINE
8
Black
10
39.776
20
-54.9765
11
39.146
21
-54.9765
0
LINE
8
Black
10
39.146
20
-54.9765
11
39.146
21
-54.7515
0
LINE
8
Black
10
39.146
20
-54.7515
11
39.776
21
-54.7515
0
LINE
8
Black
10
39.776
20
-54.7515
11
39.776
21
-54.9765
0
LINE
8
Black
10
40.569
20
-54.722
11
40.203
21
-54.722
0
LINE
8
Black
10
40.203
20
-54.722
11
40.203
21
-54.296
0
LINE
8
Black
10
40.203
20
-54.296
11
40.569
21
-54.296
0
LINE
8
Black
10
40.569
20
-54.296
11
40.569
21
-54.722
0
LINE
8
Black
10
41.626
20
-54.4765
11
40.996
21
-54.4765
0
LINE
8
Black
10
40.996
20
-54.4765
11
40.996
21
-54.2515
0
LINE
8
Black
10
40.996
20
-54.2515
11
41.626
21
-54.2515
0
LINE
8
Black
10
41.626
20
-54.2515
11
41.626
21
-54.4765
0
LINE
8
Black
10
39.776
20
-54.4765
11
39.146
21
-54.4765
0
LINE
8
Black
10
39.146
20
-54.4765
11
39.146
21
-54.2515
0
LINE
8
Black
10
39.146
20
-54.2515
11
39.776
21
-54.2515
0
LINE
8
Black
10
39.776
20
-54.2515
11
39.776
21
-54.4765
0
LINE
8
Black
10
25.3439
20
-53.8631
11
24.6787
21
-54.1387
0
LINE
8
Black
10
24.6787
20
-54.1387
11
24.5754
21
-53.8892
0
LINE
8
Black
10
24.5754
20
-53.8892
11
25.2406
21
-53.6137
0
LINE
8
Black
10
25.2406
20
-53.6137
11
25.3439
21
-53.8631
0
LINE
8
Black
10
25.1525
20
-53.4012
11
24.4873
21
-53.6767
0
LINE
8
Black
10
24.4873
20
-53.6767
11
24.384
21
-53.4273
0
LINE
8
Black
10
24.384
20
-53.4273
11
25.0492
21
-53.1517
0
LINE
8
Black
10
25.0492
20
-53.1517
11
25.1525
21
-53.4012
0
LINE
8
Black
10
24.9612
20
-52.9392
11
24.296
21
-53.2148
0
LINE
8
Black
10
24.296
20
-53.2148
11
24.1927
21
-52.9653
0
LINE
8
Black
10
24.1927
20
-52.9653
11
24.8579
21
-52.6898
0
LINE
8
Black
10
24.8579
20
-52.6898
11
24.9612
21
-52.9392
0
LINE
8
Black
10
49.0605
20
-52.971
11
48.4755
21
-52.971
0
LINE
8
Black
10
48.4755
20
-52.971
11
48.4755
21
-52.017
0
LINE
8
Black
10
48.4755
20
-52.017
11
49.0605
21
-52.017
0
LINE
8
Black
10
49.0605
20
-52.017
11
49.0605
21
-52.971
0
LINE
8
Black
10
48.1105
20
-52.971
11
47.5255
21
-52.971
0
LINE
8
Black
10
47.5255
20
-52.971
11
47.5255
21
-52.017
0
LINE
8
Black
10
47.5255
20
-52.017
11
48.1105
21
-52.017
0
LINE
8
Black
10
48.1105
20
-52.017
11
48.1105
21
-52.971
0
LINE
8
Black
10
50.0105
20
-52.971
11
49.4255
21
-52.971
0
LINE
8
Black
10
49.4255
20
-52.971
11
49.4255
21
-52.017
0
LINE
8
Black
10
49.4255
20
-52.017
11
50.0105
21
-52.017
0
LINE
8
Black
10
50.0105
20
-52.017
11
50.0105
21
-52.971
0
LINE
8
Black
10
24.7699
20
-52.4773
11
24.1047
21
-52.7528
0
LINE
8
Black
10
24.1047
20
-52.7528
11
24.0013
21
-52.5034
0
LINE
8
Black
10
24.0013
20
-52.5034
11
24.6665
21
-52.2279
0
LINE
8
Black
10
24.6665
20
-52.2279
11
24.7699
21
-52.4773
0
LINE
8
Black
10
45.6351
20
-52.2196
11
45.3169
21
-52.5378
0
LINE
8
Black
10
45.3169
20
-52.5378
11
44.7442
21
-51.9651
0
LINE
8
Black
10
44.7442
20
-51.9651
11
45.0624
21
-51.6469
0
LINE
8
Black
10
45.0624
20
-51.6469
11
45.6351
21
-52.2196
0
LINE
8
Black
10
24.5785
20
-52.0154
11
23.9133
21
-52.2909
0
LINE
8
Black
10
23.9133
20
-52.2909
11
23.81
21
-52.0415
0
LINE
8
Black
10
23.81
20
-52.0415
11
24.4752
21
-51.7659
0
LINE
8
Black
10
24.4752
20
-51.7659
11
24.5785
21
-52.0154
0
LINE
8
Black
10
21.712
20
-51.6278
11
21.0468
21
-51.9034
0
LINE
8
Black
10
21.0468
20
-51.9034
11
20.9091
21
-51.5708
0
LINE
8
Black
10
20.9091
20
-51.5708
11
21.5742
21
-51.2952
0
LINE
8
Black
10
21.5742
20
-51.2952
11
21.712
21
-51.6278
0
LINE
8
Black
10
24.3872
20
-51.5534
11
23.722
21
-51.829
0
LINE
8
Black
10
23.722
20
-51.829
11
23.6187
21
-51.5795
0
LINE
8
Black
10
23.6187
20
-51.5795
11
24.2838
21
-51.304
0
LINE
8
Black
10
24.2838
20
-51.304
11
24.3872
21
-51.5534
0
LINE
8
Black
10
46.6958
20
-51.1589
11
46.3776
21
-51.4771
0
LINE
8
Black
10
46.3776
20
-51.4771
11
45.8049
21
-50.9044
0
LINE
8
Black
10
45.8049
20
-50.9044
11
46.1231
21
-50.5862
0
LINE
8
Black
10
46.1231
20
-50.5862
11
46.6958
21
-51.1589
0
LINE
8
Black
10
50.472
20
-50.6005
11
49.572
21
-50.6005
0
LINE
8
Black
10
49.572
20
-50.6005
11
49.572
21
-49.4755
0
LINE
8
Black
10
49.572
20
-49.4755
11
50.472
21
-49.4755
0
LINE
8
Black
10
50.472
20
-49.4755
11
50.472
21
-50.6005
0
LINE
8
Black
10
48.472
20
-50.6005
11
47.572
21
-50.6005
0
LINE
8
Black
10
47.572
20
-50.6005
11
47.572
21
-49.4755
0
LINE
8
Black
10
47.572
20
-49.4755
11
48.472
21
-49.4755
0
LINE
8
Black
10
48.472
20
-49.4755
11
48.472
21
-50.6005
0
LINE
8
Black
10
39.7465
20
-49.6075
11
37.6135
21
-49.6075
0
LINE
8
Black
10
37.6135
20
-49.6075
11
37.6135
21
-47.4205
0
LINE
8
Black
10
37.6135
20
-47.4205
11
39.7465
21
-47.4205
0
LINE
8
Black
10
39.7465
20
-47.4205
11
39.7465
21
-49.6075
0
LINE
8
Black
10
33.5065
20
-49.6075
11
31.3735
21
-49.6075
0
LINE
8
Black
10
31.3735
20
-49.6075
11
31.3735
21
-47.4205
0
LINE
8
Black
10
31.3735
20
-47.4205
11
33.5065
21
-47.4205
0
LINE
8
Black
10
33.5065
20
-47.4205
11
33.5065
21
-49.6075
0
LINE
8
Black
10
30.123
20
-48.219
11
29.313
21
-48.219
0
LINE
8
Black
10
29.313
20
-48.219
11
29.313
21
-47.769
0
LINE
8
Black
10
29.313
20
-47.769
11
30.123
21
-47.769
0
LINE
8
Black
10
30.123
20
-47.769
11
30.123
21
-48.219
0
LINE
8
Black
10
20.696
20
-46.88
11
19.976
21
-46.88
0
LINE
8
Black
10
19.976
20
-46.88
11
19.976
21
-46.52
0
LINE
8
Black
10
19.976
20
-46.52
11
20.696
21
-46.52
0
LINE
8
Black
10
20.696
20
-46.52
11
20.696
21
-46.88
0
LINE
8
Black
10
30.123
20
-46.719
11
29.313
21
-46.719
0
LINE
8
Black
10
29.313
20
-46.719
11
29.313
21
-46.269
0
LINE
8
Black
10
29.313
20
-46.269
11
30.123
21
-46.269
0
LINE
8
Black
10
30.123
20
-46.269
11
30.123
21
-46.719
0
LINE
8
Black
10
61.5225
20
-45.884
11
60.3975
21
-45.884
0
LINE
8
Black
10
60.3975
20
-45.884
11
60.3975
21
-44.984
0
LINE
8
Black
10
60.3975
20
-44.984
11
61.5225
21
-44.984
0
LINE
8
Black
10
61.5225
20
-44.984
11
61.5225
21
-45.884
0
LINE
8
Black
10
23.196
20
-45.835
11
22.476
21
-45.835
0
LINE
8
Black
10
22.476
20
-45.835
11
22.476
21
-45.565
0
LINE
8
Black
10
22.476
20
-45.565
11
23.196
21
-45.565
0
LINE
8
Black
10
23.196
20
-45.565
11
23.196
21
-45.835
0
LINE
8
Black
10
34.0085
20
-45.519
11
33.4235
21
-45.519
0
LINE
8
Black
10
33.4235
20
-45.519
11
33.4235
21
-44.565
0
LINE
8
Black
10
33.4235
20
-44.565
11
34.0085
21
-44.565
0
LINE
8
Black
10
34.0085
20
-44.565
11
34.0085
21
-45.519
0
LINE
8
Black
10
33.0585
20
-45.519
11
32.4735
21
-45.519
0
LINE
8
Black
10
32.4735
20
-45.519
11
32.4735
21
-44.565
0
LINE
8
Black
10
32.4735
20
-44.565
11
33.0585
21
-44.565
0
LINE
8
Black
10
33.0585
20
-44.565
11
33.0585
21
-45.519
0
LINE
8
Black
10
32.1085
20
-45.519
11
31.5235
21
-45.519
0
LINE
8
Black
10
31.5235
20
-45.519
11
31.5235
21
-44.565
0
LINE
8
Black
10
31.5235
20
-44.565
11
32.1085
21
-44.565
0
LINE
8
Black
10
32.1085
20
-44.565
11
32.1085
21
-45.519
0
LINE
8
Black
10
23.196
20
-45.335
11
22.476
21
-45.335
0
LINE
8
Black
10
22.476
20
-45.335
11
22.476
21
-45.065
0
LINE
8
Black
10
22.476
20
-45.065
11
23.196
21
-45.065
0
LINE
8
Black
10
23.196
20
-45.065
11
23.196
21
-45.335
0
LINE
8
Black
10
23.196
20
-44.835
11
22.476
21
-44.835
0
LINE
8
Black
10
22.476
20
-44.835
11
22.476
21
-44.565
0
LINE
8
Black
10
22.476
20
-44.565
11
23.196
21
-44.565
0
LINE
8
Black
10
23.196
20
-44.565
11
23.196
21
-44.835
0
LINE
8
Black
10
23.196
20
-44.335
11
22.476
21
-44.335
0
LINE
8
Black
10
22.476
20
-44.335
11
22.476
21
-44.065
0
LINE
8
Black
10
22.476
20
-44.065
11
23.196
21
-44.065
0
LINE
8
Black
10
23.196
20
-44.065
11
23.196
21
-44.335
0
LINE
8
Black
10
52.25
20
-44.2505
11
51.35
21
-44.2505
0
LINE
8
Black
10
51.35
20
-44.2505
11
51.35
21
-43.1255
0
LINE
8
Black
10
51.35
20
-43.1255
11
52.25
21
-43.1255
0
LINE
8
Black
10
52.25
20
-43.1255
11
52.25
21
-44.2505
0
LINE
8
Black
10
50.25
20
-44.2505
11
49.35
21
-44.2505
0
LINE
8
Black
10
49.35
20
-44.2505
11
49.35
21
-43.1255
0
LINE
8
Black
10
49.35
20
-43.1255
11
50.25
21
-43.1255
0
LINE
8
Black
10
50.25
20
-43.1255
11
50.25
21
-44.2505
0
LINE
8
Black
10
61.5225
20
-43.884
11
60.3975
21
-43.884
0
LINE
8
Black
10
60.3975
20
-43.884
11
60.3975
21
-42.984
0
LINE
8
Black
10
60.3975
20
-42.984
11
61.5225
21
-42.984
0
LINE
8
Black
10
61.5225
20
-42.984
11
61.5225
21
-43.884
0
LINE
8
Black
10
23.196
20
-43.835
11
22.476
21
-43.835
0
LINE
8
Black
10
22.476
20
-43.835
11
22.476
21
-43.565
0
LINE
8
Black
10
22.476
20
-43.565
11
23.196
21
-43.565
0
LINE
8
Black
10
23.196
20
-43.565
11
23.196
21
-43.835
0
LINE
8
Black
10
23.196
20
-43.335
11
22.476
21
-43.335
0
LINE
8
Black
10
22.476
20
-43.335
11
22.476
21
-43.065
0
LINE
8
Black
10
22.476
20
-43.065
11
23.196
21
-43.065
0
LINE
8
Black
10
23.196
20
-43.065
11
23.196
21
-43.335
0
LINE
8
Black
10
34.0085
20
-43.319
11
33.4235
21
-43.319
0
LINE
8
Black
10
33.4235
20
-43.319
11
33.4235
21
-42.365
0
LINE
8
Black
10
33.4235
20
-42.365
11
34.0085
21
-42.365
0
LINE
8
Black
10
34.0085
20
-42.365
11
34.0085
21
-43.319
0
LINE
8
Black
10
32.1085
20
-43.319
11
31.5235
21
-43.319
0
LINE
8
Black
10
31.5235
20
-43.319
11
31.5235
21
-42.365
0
LINE
8
Black
10
31.5235
20
-42.365
11
32.1085
21
-42.365
0
LINE
8
Black
10
32.1085
20
-42.365
11
32.1085
21
-43.319
0
LINE
8
Black
10
20.696
20
-42.38
11
19.976
21
-42.38
0
LINE
8
Black
10
19.976
20
-42.38
11
19.976
21
-42.02
0
LINE
8
Black
10
19.976
20
-42.02
11
20.696
21
-42.02
0
LINE
8
Black
10
20.696
20
-42.02
11
20.696
21
-42.38
0
LINE
8
Black
10
37.4155
20
-41.2705
11
35.2285
21
-41.2705
0
LINE
8
Black
10
35.2285
20
-41.2705
11
35.2285
21
-39.1375
0
LINE
8
Black
10
35.2285
20
-39.1375
11
37.4155
21
-39.1375
0
LINE
8
Black
10
37.4155
20
-39.1375
11
37.4155
21
-41.2705
0
LINE
8
Black
10
51.267
20
-40.283
11
50.817
21
-40.283
0
LINE
8
Black
10
50.817
20
-40.283
11
50.817
21
-39.473
0
LINE
8
Black
10
50.817
20
-39.473
11
51.267
21
-39.473
0
LINE
8
Black
10
51.267
20
-39.473
11
51.267
21
-40.283
0
LINE
8
Black
10
49.767
20
-40.283
11
49.317
21
-40.283
0
LINE
8
Black
10
49.317
20
-40.283
11
49.317
21
-39.473
0
LINE
8
Black
10
49.317
20
-39.473
11
49.767
21
-39.473
0
LINE
8
Black
10
49.767
20
-39.473
11
49.767
21
-40.283
0
LINE
8
Black
10
21.712
20
-37.2722
11
21.5742
21
-37.6048
0
LINE
8
Black
10
21.5742
20
-37.6048
11
20.9091
21
-37.3292
0
LINE
8
Black
10
20.9091
20
-37.3292
11
21.0468
21
-36.9966
0
LINE
8
Black
10
21.0468
20
-36.9966
11
21.712
21
-37.2722
0
LINE
8
Black
10
24.3872
20
-37.3466
11
24.2838
21
-37.596
0
LINE
8
Black
10
24.2838
20
-37.596
11
23.6187
21
-37.3205
0
LINE
8
Black
10
23.6187
20
-37.3205
11
23.722
21
-37.071
0
LINE
8
Black
10
23.722
20
-37.071
11
24.3872
21
-37.3466
0
LINE
8
Black
10
24.5785
20
-36.8846
11
24.4752
21
-37.1341
0
LINE
8
Black
10
24.4752
20
-37.1341
11
23.81
21
-36.8585
0
LINE
8
Black
10
23.81
20
-36.8585
11
23.9133
21
-36.6091
0
LINE
8
Black
10
23.9133
20
-36.6091
11
24.5785
21
-36.8846
0
LINE
8
Black
10
24.7699
20
-36.4227
11
24.6665
21
-36.6721
0
LINE
8
Black
10
24.6665
20
-36.6721
11
24.0013
21
-36.3966
0
LINE
8
Black
10
24.0013
20
-36.3966
11
24.1047
21
-36.1472
0
LINE
8
Black
10
24.1047
20
-36.1472
11
24.7699
21
-36.4227
0
LINE
8
Black
10
24.9612
20
-35.9608
11
24.8579
21
-36.2102
0
LINE
8
Black
10
24.8579
20
-36.2102
11
24.1927
21
-35.9347
0
LINE
8
Black
10
24.1927
20
-35.9347
11
24.296
21
-35.6852
0
LINE
8
Black
10
24.296
20
-35.6852
11
24.9612
21
-35.9608
0
LINE
8
Black
10
25.1525
20
-35.4988
11
25.0492
21
-35.7483
0
LINE
8
Black
10
25.0492
20
-35.7483
11
24.384
21
-35.4727
0
LINE
8
Black
10
24.384
20
-35.4727
11
24.4873
21
-35.2233
0
LINE
8
Black
10
24.4873
20
-35.2233
11
25.1525
21
-35.4988
0
LINE
8
Black
10
25.3439
20
-35.0369
11
25.2406
21
-35.2863
0
LINE
8
Black
10
25.2406
20
-35.2863
11
24.5754
21
-35.0108
0
LINE
8
Black
10
24.5754
20
-35.0108
11
24.6787
21
-34.7613
0
LINE
8
Black
10
24.6787
20
-34.7613
11
25.3439
21
-35.0369
0
LINE
8
Black
10
37.4155
20
-35.0305
11
35.2285
21
-35.0305
0
LINE
8
Black
10
35.2285
20
-35.0305
11
35.2285
21
-32.8975
0
LINE
8
Black
10
35.2285
20
-32.8975
11
37.4155
21
-32.8975
0
LINE
8
Black
10
37.4155
20
-32.8975
11
37.4155
21
-35.0305
0
LINE
8
Black
10
56.855
20
-34.695
11
56.405
21
-34.695
0
LINE
8
Black
10
56.405
20
-34.695
11
56.405
21
-33.885
0
LINE
8
Black
10
56.405
20
-33.885
11
56.855
21
-33.885
0
LINE
8
Black
10
56.855
20
-33.885
11
56.855
21
-34.695
0
LINE
8
Black
10
55.355
20
-34.695
11
54.905
21
-34.695
0
LINE
8
Black
10
54.905
20
-34.695
11
54.905
21
-33.885
0
LINE
8
Black
10
54.905
20
-33.885
11
55.355
21
-33.885
0
LINE
8
Black
10
55.355
20
-33.885
11
55.355
21
-34.695
0
LINE
8
Black
10
23.4341
20
-33.1147
11
23.2963
21
-33.4473
0
LINE
8
Black
10
23.2963
20
-33.4473
11
22.6311
21
-33.1718
0
LINE
8
Black
10
22.6311
20
-33.1718
11
22.7689
21
-32.8392
0
LINE
8
Black
10
22.7689
20
-32.8392
11
23.4341
21
-33.1147
0
LINE
8
Black
10
28.0381
20
-30.5483
11
27.7199
21
-30.8665
0
LINE
8
Black
10
27.7199
20
-30.8665
11
27.0835
21
-30.2301
0
LINE
8
Black
10
27.0835
20
-30.2301
11
27.4017
21
-29.9119
0
LINE
8
Black
10
27.4017
20
-29.9119
11
28.0381
21
-30.5483
0
LINE
8
Black
10
26.1854
20
-30.0887
11
25.4218
21
-30.8523
0
LINE
8
Black
10
25.4218
20
-30.8523
11
24.3399
21
-29.7705
0
LINE
8
Black
10
24.3399
20
-29.7705
11
25.1036
21
-29.0068
0
LINE
8
Black
10
25.1036
20
-29.0068
11
26.1854
21
-30.0887
0
LINE
8
Black
10
28.6037
20
-29.9826
11
28.2855
21
-30.3008
0
LINE
8
Black
10
28.2855
20
-30.3008
11
27.6491
21
-29.6644
0
LINE
8
Black
10
27.6491
20
-29.6644
11
27.9673
21
-29.3462
0
LINE
8
Black
10
27.9673
20
-29.3462
11
28.6037
21
-29.9826
0
LINE
8
Black
10
29.1694
20
-29.4169
11
28.8512
21
-29.7351
0
LINE
8
Black
10
28.8512
20
-29.7351
11
28.2148
21
-29.0987
0
LINE
8
Black
10
28.2148
20
-29.0987
11
28.533
21
-28.7805
0
LINE
8
Black
10
28.533
20
-28.7805
11
29.1694
21
-29.4169
0
LINE
8
Black
10
29.7351
20
-28.8512
11
29.4169
21
-29.1694
0
LINE
8
Black
10
29.4169
20
-29.1694
11
28.7805
21
-28.533
0
LINE
8
Black
10
28.7805
20
-28.533
11
29.0987
21
-28.2148
0
LINE
8
Black
10
29.0987
20
-28.2148
11
29.7351
21
-28.8512
0
LINE
8
Black
10
30.3008
20
-28.2855
11
29.9826
21
-28.6037
0
LINE
8
Black
10
29.9826
20
-28.6037
11
29.3462
21
-27.9673
0
LINE
8
Black
10
29.3462
20
-27.9673
11
29.6644
21
-27.6491
0
LINE
8
Black
10
29.6644
20
-27.6491
11
30.3008
21
-28.2855
0
LINE
8
Black
10
30.8665
20
-27.7199
11
30.5483
21
-28.0381
0
LINE
8
Black
10
30.5483
20
-28.0381
11
29.9119
21
-27.4017
0
LINE
8
Black
10
29.9119
20
-27.4017
11
30.2301
21
-27.0835
0
LINE
8
Black
10
30.2301
20
-27.0835
11
30.8665
21
-27.7199
0
LINE
8
Black
10
30.8523
20
-25.4218
11
30.0887
21
-26.1854
0
LINE
8
Black
10
30.0887
20
-26.1854
11
29.0068
21
-25.1036
0
LINE
8
Black
10
29.0068
20
-25.1036
11
29.7705
21
-24.3399
0
LINE
8
Black
10
29.7705
20
-24.3399
11
30.8523
21
-25.4218
0
LINE
8
Black
10
55.0529
20
-24.6666
11
54.7085
21
-25.4981
0
LINE
8
Black
10
54.7085
20
-25.4981
11
54.2927
21
-25.3259
0
LINE
8
Black
10
54.2927
20
-25.3259
11
54.6371
21
-24.4944
0
LINE
8
Black
10
54.6371
20
-24.4944
11
55.0529
21
-24.6666
0
LINE
8
Black
10
34.6073
20
-25.3259
11
34.1915
21
-25.4981
0
LINE
8
Black
10
34.1915
20
-25.4981
11
33.8471
21
-24.6666
0
LINE
8
Black
10
33.8471
20
-24.6666
11
34.2629
21
-24.4944
0
LINE
8
Black
10
34.2629
20
-24.4944
11
34.6073
21
-25.3259
0
LINE
8
Black
10
54.3138
20
-24.3605
11
53.9693
21
-25.192
0
LINE
8
Black
10
53.9693
20
-25.192
11
53.5536
21
-25.0198
0
LINE
8
Black
10
53.5536
20
-25.0198
11
53.898
21
-24.1883
0
LINE
8
Black
10
53.898
20
-24.1883
11
54.3138
21
-24.3605
0
LINE
8
Black
10
35.3464
20
-25.0198
11
34.9307
21
-25.192
0
LINE
8
Black
10
34.9307
20
-25.192
11
34.5862
21
-24.3605
0
LINE
8
Black
10
34.5862
20
-24.3605
11
35.002
21
-24.1883
0
LINE
8
Black
10
35.002
20
-24.1883
11
35.3464
21
-25.0198
0
LINE
8
Black
10
36.0855
20
-24.7136
11
35.6698
21
-24.8858
0
LINE
8
Black
10
35.6698
20
-24.8858
11
35.3253
21
-24.0543
0
LINE
8
Black
10
35.3253
20
-24.0543
11
35.7411
21
-23.8821
0
LINE
8
Black
10
35.7411
20
-23.8821
11
36.0855
21
-24.7136
0
LINE
8
Black
10
53.5747
20
-24.0543
11
53.2302
21
-24.8858
0
LINE
8
Black
10
53.2302
20
-24.8858
11
52.8145
21
-24.7136
0
LINE
8
Black
10
52.8145
20
-24.7136
11
53.1589
21
-23.8821
0
LINE
8
Black
10
53.1589
20
-23.8821
11
53.5747
21
-24.0543
0
LINE
8
Black
10
57.4117
20
-23.1921
11
56.8262
21
-24.6056
0
LINE
8
Black
10
56.8262
20
-24.6056
11
55.8284
21
-24.1923
0
LINE
8
Black
10
55.8284
20
-24.1923
11
56.4139
21
-22.7788
0
LINE
8
Black
10
56.4139
20
-22.7788
11
57.4117
21
-23.1921
0
LINE
8
Black
10
33.0716
20
-24.1923
11
32.0738
21
-24.6056
0
LINE
8
Black
10
32.0738
20
-24.6056
11
31.4883
21
-23.1921
0
LINE
8
Black
10
31.4883
20
-23.1921
11
32.4861
21
-22.7788
0
LINE
8
Black
10
32.4861
20
-22.7788
11
33.0716
21
-24.1923
0
LINE
8
Black
10
36.8246
20
-24.4075
11
36.4089
21
-24.5797
0
LINE
8
Black
10
36.4089
20
-24.5797
11
36.0644
21
-23.7482
0
LINE
8
Black
10
36.0644
20
-23.7482
11
36.4802
21
-23.576
0
LINE
8
Black
10
36.4802
20
-23.576
11
36.8246
21
-24.4075
0
LINE
8
Black
10
52.8356
20
-23.7482
11
52.4911
21
-24.5797
0
LINE
8
Black
10
52.4911
20
-24.5797
11
52.0754
21
-24.4075
0
LINE
8
Black
10
52.0754
20
-24.4075
11
52.4198
21
-23.576
0
LINE
8
Black
10
52.4198
20
-23.576
11
52.8356
21
-23.7482
0
LINE
8
Black
10
37.5637
20
-24.1013
11
37.148
21
-24.2735
0
LINE
8
Black
10
37.148
20
-24.2735
11
36.8035
21
-23.442
0
LINE
8
Black
10
36.8035
20
-23.442
11
37.2193
21
-23.2698
0
LINE
8
Black
10
37.2193
20
-23.2698
11
37.5637
21
-24.1013
0
LINE
8
Black
10
52.0965
20
-23.442
11
51.752
21
-24.2735
0
LINE
8
Black
10
51.752
20
-24.2735
11
51.3363
21
-24.1013
0
LINE
8
Black
10
51.3363
20
-24.1013
11
51.6807
21
-23.2698
0
LINE
8
Black
10
51.6807
20
-23.2698
11
52.0965
21
-23.442
0
LINE
8
Black
10
38.3028
20
-23.7952
11
37.8871
21
-23.9674
0
LINE
8
Black
10
37.8871
20
-23.9674
11
37.5427
21
-23.1359
0
LINE
8
Black
10
37.5427
20
-23.1359
11
37.9584
21
-22.9637
0
LINE
8
Black
10
37.9584
20
-22.9637
11
38.3028
21
-23.7952
0
LINE
8
Black
10
51.3573
20
-23.1359
11
51.0129
21
-23.9674
0
LINE
8
Black
10
51.0129
20
-23.9674
11
50.5972
21
-23.7952
0
LINE
8
Black
10
50.5972
20
-23.7952
11
50.9416
21
-22.9637
0
LINE
8
Black
10
50.9416
20
-22.9637
11
51.3573
21
-23.1359
0
LINE
8
Black
10
43.475
20
-23.015
11
43.025
21
-23.015
0
LINE
8
Black
10
43.025
20
-23.015
11
43.025
21
-22.115
0
LINE
8
Black
10
43.025
20
-22.115
11
43.475
21
-22.115
0
LINE
8
Black
10
43.475
20
-22.115
11
43.475
21
-23.015
0
LINE
8
Black
10
42.675
20
-23.015
11
42.225
21
-23.015
0
LINE
8
Black
10
42.225
20
-23.015
11
42.225
21
-22.115
0
LINE
8
Black
10
42.225
20
-22.115
11
42.675
21
-22.115
0
LINE
8
Black
10
42.675
20
-22.115
11
42.675
21
-23.015
0
LINE
8
Black
10
45.075
20
-23.015
11
44.625
21
-23.015
0
LINE
8
Black
10
44.625
20
-23.015
11
44.625
21
-22.115
0
LINE
8
Black
10
44.625
20
-22.115
11
45.075
21
-22.115
0
LINE
8
Black
10
45.075
20
-22.115
11
45.075
21
-23.015
0
LINE
8
Black
10
44.275
20
-23.015
11
43.825
21
-23.015
0
LINE
8
Black
10
43.825
20
-23.015
11
43.825
21
-22.115
0
LINE
8
Black
10
43.825
20
-22.115
11
44.275
21
-22.115
0
LINE
8
Black
10
44.275
20
-22.115
11
44.275
21
-23.015
0
LINE
8
Black
10
46.675
20
-23.015
11
46.225
21
-23.015
0
LINE
8
Black
10
46.225
20
-23.015
11
46.225
21
-22.115
0
LINE
8
Black
10
46.225
20
-22.115
11
46.675
21
-22.115
0
LINE
8
Black
10
46.675
20
-22.115
11
46.675
21
-23.015
0
LINE
8
Black
10
45.875
20
-23.015
11
45.425
21
-23.015
0
LINE
8
Black
10
45.425
20
-23.015
11
45.425
21
-22.115
0
LINE
8
Black
10
45.425
20
-22.115
11
45.875
21
-22.115
0
LINE
8
Black
10
45.875
20
-22.115
11
45.875
21
-23.015
0
LINE
8
Black
10
39.1692
20
-21.6666
11
38.1714
21
-22.0799
0
LINE
8
Black
10
38.1714
20
-22.0799
11
37.5859
21
-20.6664
0
LINE
8
Black
10
37.5859
20
-20.6664
11
38.5837
21
-20.2531
0
LINE
8
Black
10
38.5837
20
-20.2531
11
39.1692
21
-21.6666
0
LINE
8
Black
10
51.3141
20
-20.6664
11
50.7286
21
-22.0799
0
LINE
8
Black
10
50.7286
20
-22.0799
11
49.7308
21
-21.6666
0
LINE
8
Black
10
49.7308
20
-21.6666
11
50.3163
21
-20.2531
0
LINE
8
Black
10
50.3163
20
-20.2531
11
51.3141
21
-20.6664
0
LINE
8
Black
10
41.69
20
-21.38
11
40.61
21
-21.38
0
LINE
8
Black
10
40.61
20
-21.38
11
40.61
21
-19.85
0
LINE
8
Black
10
40.61
20
-19.85
11
41.69
21
-19.85
0
LINE
8
Black
10
41.69
20
-19.85
11
41.69
21
-21.38
0
LINE
8
Black
10
48.29
20
-21.38
11
47.21
21
-21.38
0
LINE
8
Black
10
47.21
20
-21.38
11
47.21
21
-19.85
0
LINE
8
Black
10
47.21
20
-19.85
11
48.29
21
-19.85
0
LINE
8
Black
10
48.29
20
-19.85
11
48.29
21
-21.38
  0
ENDSEC
  0
EOF
