G04 #@! TF.FileFunction,Copper,L2,Inr,Plane*
%FSLAX46Y46*%
G04 Gerber Fmt 4.6, Leading zero omitted, Abs format (unit mm)*
G04 Created by KiCad (PCBNEW 201609251018+7233~55~ubuntu16.04.1-) date Mon Sep 26 23:00:05 2016*
%MOMM*%
%LPD*%
G01*
G04 APERTURE LIST*
%ADD10C,0.100000*%
%ADD11C,1.550000*%
%ADD12O,1.250000X0.950000*%
%ADD13C,0.635000*%
%ADD14C,0.762000*%
%ADD15C,0.508000*%
%ADD16C,0.254000*%
G04 APERTURE END LIST*
D10*
D11*
X40950000Y-65692000D03*
X47950000Y-65692000D03*
D12*
X41950000Y-62992000D03*
X46950000Y-62992000D03*
D13*
X59536830Y-30620406D03*
X51453399Y-63680770D03*
X58279594Y-59536830D03*
X63000359Y-53096057D03*
X63680770Y-37446601D03*
X64897000Y-45339000D03*
X35803943Y-63000359D03*
X29363170Y-58279594D03*
X25219230Y-51453399D03*
X25899641Y-35803943D03*
X24003000Y-43561000D03*
X30620406Y-29363170D03*
X37446601Y-25219230D03*
X53096057Y-25899641D03*
X45339000Y-24003000D03*
X49800000Y-42148000D03*
X58928000Y-45212000D03*
X60706000Y-40894000D03*
X46228000Y-48514000D03*
D14*
X51562393Y-58559164D03*
X44450000Y-64516000D03*
X34798000Y-46990000D03*
D13*
X45720000Y-33782000D03*
D14*
X35814000Y-31242000D03*
D13*
X40725000Y-42291000D03*
D14*
X44200000Y-44454000D03*
X40386000Y-58674000D03*
D13*
X50292000Y-41148000D03*
X59182000Y-43434000D03*
X48768000Y-46990000D03*
X41402000Y-39624000D03*
X38227000Y-44323000D03*
X55372000Y-44450000D03*
X41402000Y-48260000D03*
D15*
X42926000Y-54258400D03*
X42926000Y-54969600D03*
D13*
X58099989Y-29183565D03*
X43180000Y-58674000D03*
X53330722Y-62903158D03*
X59716435Y-58099989D03*
X63777972Y-51218734D03*
X62903158Y-35569278D03*
X64897000Y-43307000D03*
X37681266Y-63777972D03*
X30800011Y-59716435D03*
X25996842Y-53330722D03*
X25122028Y-37681266D03*
X24003000Y-45593000D03*
X29183565Y-30800011D03*
X35569278Y-25996842D03*
X51218734Y-25122028D03*
X43307000Y-24003000D03*
X40386000Y-37084000D03*
D14*
X35814000Y-49530000D03*
X38354000Y-58928000D03*
X35319000Y-54864000D03*
X38862000Y-52070000D03*
D13*
X59182000Y-41021000D03*
X59182000Y-40099994D03*
X32775667Y-56483543D03*
X29059285Y-51099970D03*
X27686000Y-44704000D03*
X28864882Y-38269360D03*
X32416457Y-32416457D03*
X37937493Y-28727418D03*
X44450000Y-27432000D03*
X50962507Y-28727418D03*
X51562000Y-45212000D03*
X43180000Y-32004000D03*
X51562000Y-47244000D03*
X40894000Y-49276000D03*
D14*
X51816000Y-51054000D03*
X38100000Y-45720000D03*
D13*
X54622000Y-47994000D03*
D15*
X48818810Y-60502810D03*
D13*
X55118000Y-32766000D03*
D15*
X50038000Y-65786000D03*
D13*
X49784000Y-35814000D03*
D15*
X52070000Y-40132000D03*
X58547000Y-46990000D03*
X56642000Y-53086000D03*
X54864000Y-49530000D03*
D16*
G36*
X48903876Y-22752408D02*
X53033470Y-24030731D01*
X56836123Y-26086818D01*
X60166992Y-28842352D01*
X62899205Y-32192377D01*
X64928695Y-36009291D01*
X66178157Y-40147709D01*
X66600000Y-44450000D01*
X66591364Y-45068464D01*
X66049558Y-49357299D01*
X64685032Y-53459217D01*
X62549759Y-57217976D01*
X59725073Y-60490407D01*
X56318564Y-63151864D01*
X52459984Y-65100972D01*
X50895168Y-65537877D01*
X50893174Y-65527808D01*
X50826738Y-65366621D01*
X50730259Y-65221408D01*
X50607411Y-65097700D01*
X50462876Y-65000209D01*
X50302156Y-64932649D01*
X50131375Y-64897593D01*
X49957038Y-64896375D01*
X49785784Y-64929044D01*
X49624137Y-64994353D01*
X49478254Y-65089817D01*
X49353692Y-65211797D01*
X49305951Y-65281521D01*
X49200980Y-65026842D01*
X49047958Y-64796527D01*
X48853116Y-64600320D01*
X48623875Y-64445695D01*
X48368966Y-64338541D01*
X48098098Y-64282939D01*
X47821590Y-64281009D01*
X47549972Y-64332823D01*
X47293592Y-64436407D01*
X47062214Y-64587817D01*
X46864651Y-64781284D01*
X46708429Y-65009441D01*
X46599498Y-65263596D01*
X46542008Y-65534068D01*
X46538147Y-65810557D01*
X46588063Y-66082529D01*
X46689855Y-66339626D01*
X46719005Y-66384859D01*
X43986125Y-66595142D01*
X42186919Y-66380600D01*
X42294388Y-66139218D01*
X42355650Y-65869575D01*
X42360060Y-65553742D01*
X42306351Y-65282493D01*
X42200980Y-65026842D01*
X42047958Y-64796527D01*
X41853116Y-64600320D01*
X41623875Y-64445695D01*
X41368966Y-64338541D01*
X41098098Y-64282939D01*
X40821590Y-64281009D01*
X40549972Y-64332823D01*
X40293592Y-64436407D01*
X40062214Y-64587817D01*
X39864651Y-64781284D01*
X39708429Y-65009441D01*
X39599498Y-65263596D01*
X39542008Y-65534068D01*
X39538147Y-65810557D01*
X39581518Y-66046869D01*
X35582269Y-64747434D01*
X33990923Y-63858061D01*
X36727514Y-63858061D01*
X36761234Y-64041787D01*
X36829998Y-64215465D01*
X36931186Y-64372478D01*
X37060945Y-64506847D01*
X37214331Y-64613454D01*
X37385503Y-64688237D01*
X37567940Y-64728348D01*
X37754694Y-64732260D01*
X37938652Y-64699824D01*
X38112805Y-64632274D01*
X38270521Y-64532184D01*
X38405793Y-64403367D01*
X38513467Y-64250728D01*
X38589444Y-64080083D01*
X38630828Y-63897930D01*
X38633807Y-63684575D01*
X38597525Y-63501337D01*
X38526343Y-63328637D01*
X38422972Y-63173051D01*
X38291350Y-63040507D01*
X38207948Y-62984251D01*
X40683930Y-62984251D01*
X40703564Y-63199993D01*
X40764729Y-63407813D01*
X40865095Y-63599795D01*
X41000838Y-63768626D01*
X41166790Y-63907876D01*
X41356627Y-64012240D01*
X41563121Y-64077744D01*
X41778405Y-64101892D01*
X41793903Y-64102000D01*
X42106097Y-64102000D01*
X42321697Y-64080860D01*
X42529085Y-64018246D01*
X42720362Y-63916543D01*
X42888241Y-63779624D01*
X43026329Y-63612704D01*
X43129365Y-63422142D01*
X43193426Y-63215196D01*
X43216070Y-62999749D01*
X43214660Y-62984251D01*
X45683930Y-62984251D01*
X45703564Y-63199993D01*
X45764729Y-63407813D01*
X45865095Y-63599795D01*
X46000838Y-63768626D01*
X46166790Y-63907876D01*
X46356627Y-64012240D01*
X46563121Y-64077744D01*
X46778405Y-64101892D01*
X46793903Y-64102000D01*
X47106097Y-64102000D01*
X47321697Y-64080860D01*
X47529085Y-64018246D01*
X47720362Y-63916543D01*
X47888241Y-63779624D01*
X48026329Y-63612704D01*
X48129365Y-63422142D01*
X48193426Y-63215196D01*
X48216070Y-62999749D01*
X48214569Y-62983247D01*
X52376970Y-62983247D01*
X52410690Y-63166973D01*
X52479454Y-63340651D01*
X52580642Y-63497664D01*
X52710401Y-63632033D01*
X52863787Y-63738640D01*
X53034959Y-63813423D01*
X53217396Y-63853534D01*
X53404150Y-63857446D01*
X53588108Y-63825010D01*
X53762261Y-63757460D01*
X53919977Y-63657370D01*
X54055249Y-63528553D01*
X54162923Y-63375914D01*
X54238900Y-63205269D01*
X54280284Y-63023116D01*
X54283263Y-62809761D01*
X54246981Y-62626523D01*
X54175799Y-62453823D01*
X54072428Y-62298237D01*
X53940806Y-62165693D01*
X53785946Y-62061238D01*
X53613747Y-61988852D01*
X53430767Y-61951292D01*
X53243977Y-61949988D01*
X53060490Y-61984990D01*
X52887297Y-62054965D01*
X52730994Y-62157247D01*
X52597534Y-62287940D01*
X52492001Y-62442067D01*
X52418415Y-62613757D01*
X52379578Y-62796470D01*
X52376970Y-62983247D01*
X48214569Y-62983247D01*
X48196436Y-62784007D01*
X48135271Y-62576187D01*
X48034905Y-62384205D01*
X47899162Y-62215374D01*
X47733210Y-62076124D01*
X47543373Y-61971760D01*
X47336879Y-61906256D01*
X47121595Y-61882108D01*
X47106097Y-61882000D01*
X46793903Y-61882000D01*
X46578303Y-61903140D01*
X46370915Y-61965754D01*
X46179638Y-62067457D01*
X46011759Y-62204376D01*
X45873671Y-62371296D01*
X45770635Y-62561858D01*
X45706574Y-62768804D01*
X45683930Y-62984251D01*
X43214660Y-62984251D01*
X43196436Y-62784007D01*
X43135271Y-62576187D01*
X43034905Y-62384205D01*
X42899162Y-62215374D01*
X42733210Y-62076124D01*
X42543373Y-61971760D01*
X42336879Y-61906256D01*
X42121595Y-61882108D01*
X42106097Y-61882000D01*
X41793903Y-61882000D01*
X41578303Y-61903140D01*
X41370915Y-61965754D01*
X41179638Y-62067457D01*
X41011759Y-62204376D01*
X40873671Y-62371296D01*
X40770635Y-62561858D01*
X40706574Y-62768804D01*
X40683930Y-62984251D01*
X38207948Y-62984251D01*
X38136490Y-62936052D01*
X37964291Y-62863666D01*
X37781311Y-62826106D01*
X37594521Y-62824802D01*
X37411034Y-62859804D01*
X37237841Y-62929779D01*
X37081538Y-63032061D01*
X36948078Y-63162754D01*
X36842545Y-63316881D01*
X36768959Y-63488571D01*
X36730122Y-63671284D01*
X36727514Y-63858061D01*
X33990923Y-63858061D01*
X31808694Y-62638455D01*
X28516623Y-59836683D01*
X28484794Y-59796524D01*
X29846259Y-59796524D01*
X29879979Y-59980250D01*
X29948743Y-60153928D01*
X30049931Y-60310941D01*
X30179690Y-60445310D01*
X30333076Y-60551917D01*
X30504248Y-60626700D01*
X30686685Y-60666811D01*
X30873439Y-60670723D01*
X31057397Y-60638287D01*
X31213959Y-60577560D01*
X47928642Y-60577560D01*
X47960114Y-60749037D01*
X48024293Y-60911136D01*
X48118736Y-61057682D01*
X48239844Y-61183093D01*
X48383004Y-61282592D01*
X48542765Y-61352390D01*
X48713040Y-61389827D01*
X48887343Y-61393478D01*
X49059036Y-61363204D01*
X49221579Y-61300158D01*
X49368781Y-61206741D01*
X49495034Y-61086511D01*
X49595531Y-60944049D01*
X49666442Y-60784780D01*
X49705067Y-60614770D01*
X49707848Y-60415639D01*
X49673984Y-60244618D01*
X49607548Y-60083431D01*
X49511069Y-59938218D01*
X49388221Y-59814510D01*
X49243686Y-59717019D01*
X49082966Y-59649459D01*
X48912185Y-59614403D01*
X48737848Y-59613185D01*
X48566594Y-59645854D01*
X48404947Y-59711163D01*
X48259064Y-59806627D01*
X48134502Y-59928607D01*
X48036004Y-60072459D01*
X47967324Y-60232703D01*
X47931076Y-60403235D01*
X47928642Y-60577560D01*
X31213959Y-60577560D01*
X31231550Y-60570737D01*
X31389266Y-60470647D01*
X31524538Y-60341830D01*
X31632212Y-60189191D01*
X31708189Y-60018546D01*
X31749573Y-59836393D01*
X31752552Y-59623038D01*
X31716270Y-59439800D01*
X31645088Y-59267100D01*
X31541717Y-59111514D01*
X31444314Y-59013428D01*
X37336664Y-59013428D01*
X37372633Y-59209403D01*
X37445981Y-59394659D01*
X37553915Y-59562140D01*
X37692324Y-59705467D01*
X37855936Y-59819180D01*
X38038520Y-59898949D01*
X38233119Y-59941734D01*
X38432324Y-59945907D01*
X38628545Y-59911308D01*
X38814308Y-59839255D01*
X38982539Y-59732493D01*
X39126828Y-59595088D01*
X39241681Y-59432273D01*
X39322723Y-59250251D01*
X39366866Y-59055955D01*
X39370044Y-58828376D01*
X39355335Y-58754089D01*
X42226248Y-58754089D01*
X42259968Y-58937815D01*
X42328732Y-59111493D01*
X42429920Y-59268506D01*
X42559679Y-59402875D01*
X42713065Y-59509482D01*
X42884237Y-59584265D01*
X43066674Y-59624376D01*
X43253428Y-59628288D01*
X43437386Y-59595852D01*
X43611539Y-59528302D01*
X43769255Y-59428212D01*
X43904527Y-59299395D01*
X44012201Y-59146756D01*
X44088178Y-58976111D01*
X44129562Y-58793958D01*
X44132541Y-58580603D01*
X44096259Y-58397365D01*
X44025077Y-58224665D01*
X43995454Y-58180078D01*
X58762683Y-58180078D01*
X58796403Y-58363804D01*
X58865167Y-58537482D01*
X58966355Y-58694495D01*
X59096114Y-58828864D01*
X59249500Y-58935471D01*
X59420672Y-59010254D01*
X59603109Y-59050365D01*
X59789863Y-59054277D01*
X59973821Y-59021841D01*
X60147974Y-58954291D01*
X60305690Y-58854201D01*
X60440962Y-58725384D01*
X60548636Y-58572745D01*
X60624613Y-58402100D01*
X60665997Y-58219947D01*
X60668976Y-58006592D01*
X60632694Y-57823354D01*
X60561512Y-57650654D01*
X60458141Y-57495068D01*
X60326519Y-57362524D01*
X60171659Y-57258069D01*
X59999460Y-57185683D01*
X59816480Y-57148123D01*
X59629690Y-57146819D01*
X59446203Y-57181821D01*
X59273010Y-57251796D01*
X59116707Y-57354078D01*
X58983247Y-57484771D01*
X58877714Y-57638898D01*
X58804128Y-57810588D01*
X58765291Y-57993301D01*
X58762683Y-58180078D01*
X43995454Y-58180078D01*
X43921706Y-58069079D01*
X43790084Y-57936535D01*
X43635224Y-57832080D01*
X43463025Y-57759694D01*
X43280045Y-57722134D01*
X43093255Y-57720830D01*
X42909768Y-57755832D01*
X42736575Y-57825807D01*
X42580272Y-57928089D01*
X42446812Y-58058782D01*
X42341279Y-58212909D01*
X42267693Y-58384599D01*
X42228856Y-58567312D01*
X42226248Y-58754089D01*
X39355335Y-58754089D01*
X39331343Y-58632923D01*
X39255415Y-58448709D01*
X39145153Y-58282751D01*
X39004756Y-58141371D01*
X38839572Y-58029953D01*
X38655893Y-57952741D01*
X38460715Y-57912677D01*
X38261472Y-57911286D01*
X38065753Y-57948621D01*
X37881014Y-58023261D01*
X37714290Y-58132361D01*
X37571933Y-58271768D01*
X37459364Y-58436170D01*
X37380872Y-58619306D01*
X37339446Y-58814200D01*
X37336664Y-59013428D01*
X31444314Y-59013428D01*
X31410095Y-58978970D01*
X31255235Y-58874515D01*
X31083036Y-58802129D01*
X30900056Y-58764569D01*
X30713266Y-58763265D01*
X30529779Y-58798267D01*
X30356586Y-58868242D01*
X30200283Y-58970524D01*
X30066823Y-59101217D01*
X29961290Y-59255344D01*
X29887704Y-59427034D01*
X29848867Y-59609747D01*
X29846259Y-59796524D01*
X28484794Y-59796524D01*
X25922436Y-56563632D01*
X31821915Y-56563632D01*
X31855635Y-56747358D01*
X31924399Y-56921036D01*
X32025587Y-57078049D01*
X32155346Y-57212418D01*
X32308732Y-57319025D01*
X32479904Y-57393808D01*
X32662341Y-57433919D01*
X32849095Y-57437831D01*
X33033053Y-57405395D01*
X33207206Y-57337845D01*
X33364922Y-57237755D01*
X33500194Y-57108938D01*
X33607868Y-56956299D01*
X33683845Y-56785654D01*
X33725229Y-56603501D01*
X33728208Y-56390146D01*
X33691926Y-56206908D01*
X33620744Y-56034208D01*
X33517373Y-55878622D01*
X33385751Y-55746078D01*
X33230891Y-55641623D01*
X33058692Y-55569237D01*
X32875712Y-55531677D01*
X32688922Y-55530373D01*
X32505435Y-55565375D01*
X32332242Y-55635350D01*
X32175939Y-55737632D01*
X32042479Y-55868325D01*
X31936946Y-56022452D01*
X31863360Y-56194142D01*
X31824523Y-56376855D01*
X31821915Y-56563632D01*
X25922436Y-56563632D01*
X25831450Y-56448837D01*
X25060859Y-54949428D01*
X34301664Y-54949428D01*
X34337633Y-55145403D01*
X34410981Y-55330659D01*
X34518915Y-55498140D01*
X34657324Y-55641467D01*
X34820936Y-55755180D01*
X35003520Y-55834949D01*
X35198119Y-55877734D01*
X35397324Y-55881907D01*
X35593545Y-55847308D01*
X35779308Y-55775255D01*
X35947539Y-55668493D01*
X36091828Y-55531088D01*
X36206681Y-55368273D01*
X36287723Y-55186251D01*
X36331866Y-54991955D01*
X36335044Y-54764376D01*
X36296343Y-54568923D01*
X36220415Y-54384709D01*
X36186160Y-54333150D01*
X42035832Y-54333150D01*
X42067304Y-54504627D01*
X42110871Y-54614665D01*
X42074514Y-54699493D01*
X42038266Y-54870025D01*
X42035832Y-55044350D01*
X42067304Y-55215827D01*
X42131483Y-55377926D01*
X42225926Y-55524472D01*
X42347034Y-55649883D01*
X42490194Y-55749382D01*
X42649955Y-55819180D01*
X42820230Y-55856617D01*
X42994533Y-55860268D01*
X43166226Y-55829994D01*
X43328769Y-55766948D01*
X43475971Y-55673531D01*
X43602224Y-55553301D01*
X43702721Y-55410839D01*
X43773632Y-55251570D01*
X43812257Y-55081560D01*
X43815038Y-54882429D01*
X43781174Y-54711408D01*
X43740941Y-54613795D01*
X43773632Y-54540370D01*
X43812257Y-54370360D01*
X43815038Y-54171229D01*
X43781174Y-54000208D01*
X43714738Y-53839021D01*
X43618259Y-53693808D01*
X43495411Y-53570100D01*
X43350876Y-53472609D01*
X43190156Y-53405049D01*
X43019375Y-53369993D01*
X42845038Y-53368775D01*
X42673784Y-53401444D01*
X42512137Y-53466753D01*
X42366254Y-53562217D01*
X42241692Y-53684197D01*
X42143194Y-53828049D01*
X42074514Y-53988293D01*
X42038266Y-54158825D01*
X42035832Y-54333150D01*
X36186160Y-54333150D01*
X36110153Y-54218751D01*
X35969756Y-54077371D01*
X35804572Y-53965953D01*
X35620893Y-53888741D01*
X35425715Y-53848677D01*
X35226472Y-53847286D01*
X35030753Y-53884621D01*
X34846014Y-53959261D01*
X34679290Y-54068361D01*
X34536933Y-54207768D01*
X34424364Y-54372170D01*
X34345872Y-54555306D01*
X34304446Y-54750200D01*
X34301664Y-54949428D01*
X25060859Y-54949428D01*
X24270117Y-53410811D01*
X25043090Y-53410811D01*
X25076810Y-53594537D01*
X25145574Y-53768215D01*
X25246762Y-53925228D01*
X25376521Y-54059597D01*
X25529907Y-54166204D01*
X25701079Y-54240987D01*
X25883516Y-54281098D01*
X26070270Y-54285010D01*
X26254228Y-54252574D01*
X26428381Y-54185024D01*
X26586097Y-54084934D01*
X26721369Y-53956117D01*
X26829043Y-53803478D01*
X26905020Y-53632833D01*
X26946404Y-53450680D01*
X26949383Y-53237325D01*
X26934221Y-53160750D01*
X55751832Y-53160750D01*
X55783304Y-53332227D01*
X55847483Y-53494326D01*
X55941926Y-53640872D01*
X56063034Y-53766283D01*
X56206194Y-53865782D01*
X56365955Y-53935580D01*
X56536230Y-53973017D01*
X56710533Y-53976668D01*
X56882226Y-53946394D01*
X57044769Y-53883348D01*
X57191971Y-53789931D01*
X57318224Y-53669701D01*
X57418721Y-53527239D01*
X57489632Y-53367970D01*
X57528257Y-53197960D01*
X57531038Y-52998829D01*
X57497174Y-52827808D01*
X57430738Y-52666621D01*
X57334259Y-52521408D01*
X57211411Y-52397700D01*
X57066876Y-52300209D01*
X56906156Y-52232649D01*
X56735375Y-52197593D01*
X56561038Y-52196375D01*
X56389784Y-52229044D01*
X56228137Y-52294353D01*
X56082254Y-52389817D01*
X55957692Y-52511797D01*
X55859194Y-52655649D01*
X55790514Y-52815893D01*
X55754266Y-52986425D01*
X55751832Y-53160750D01*
X26934221Y-53160750D01*
X26913101Y-53054087D01*
X26841919Y-52881387D01*
X26738548Y-52725801D01*
X26606926Y-52593257D01*
X26452066Y-52488802D01*
X26279867Y-52416416D01*
X26096887Y-52378856D01*
X25910097Y-52377552D01*
X25726610Y-52412554D01*
X25553417Y-52482529D01*
X25397114Y-52584811D01*
X25263654Y-52715504D01*
X25158121Y-52869631D01*
X25084535Y-53041321D01*
X25045698Y-53224034D01*
X25043090Y-53410811D01*
X24270117Y-53410811D01*
X23855451Y-52603959D01*
X23726838Y-52155428D01*
X37844664Y-52155428D01*
X37880633Y-52351403D01*
X37953981Y-52536659D01*
X38061915Y-52704140D01*
X38200324Y-52847467D01*
X38363936Y-52961180D01*
X38546520Y-53040949D01*
X38741119Y-53083734D01*
X38940324Y-53087907D01*
X39136545Y-53053308D01*
X39322308Y-52981255D01*
X39490539Y-52874493D01*
X39634828Y-52737088D01*
X39749681Y-52574273D01*
X39830723Y-52392251D01*
X39874866Y-52197955D01*
X39878044Y-51970376D01*
X39839343Y-51774923D01*
X39763415Y-51590709D01*
X39653153Y-51424751D01*
X39512756Y-51283371D01*
X39347572Y-51171953D01*
X39270199Y-51139428D01*
X50798664Y-51139428D01*
X50834633Y-51335403D01*
X50907981Y-51520659D01*
X51015915Y-51688140D01*
X51154324Y-51831467D01*
X51317936Y-51945180D01*
X51500520Y-52024949D01*
X51695119Y-52067734D01*
X51894324Y-52071907D01*
X52090545Y-52037308D01*
X52276308Y-51965255D01*
X52444539Y-51858493D01*
X52588828Y-51721088D01*
X52703681Y-51558273D01*
X52784723Y-51376251D01*
X52802314Y-51298823D01*
X62824220Y-51298823D01*
X62857940Y-51482549D01*
X62926704Y-51656227D01*
X63027892Y-51813240D01*
X63157651Y-51947609D01*
X63311037Y-52054216D01*
X63482209Y-52128999D01*
X63664646Y-52169110D01*
X63851400Y-52173022D01*
X64035358Y-52140586D01*
X64209511Y-52073036D01*
X64367227Y-51972946D01*
X64502499Y-51844129D01*
X64610173Y-51691490D01*
X64686150Y-51520845D01*
X64727534Y-51338692D01*
X64730513Y-51125337D01*
X64694231Y-50942099D01*
X64623049Y-50769399D01*
X64519678Y-50613813D01*
X64388056Y-50481269D01*
X64233196Y-50376814D01*
X64060997Y-50304428D01*
X63878017Y-50266868D01*
X63691227Y-50265564D01*
X63507740Y-50300566D01*
X63334547Y-50370541D01*
X63178244Y-50472823D01*
X63044784Y-50603516D01*
X62939251Y-50757643D01*
X62865665Y-50929333D01*
X62826828Y-51112046D01*
X62824220Y-51298823D01*
X52802314Y-51298823D01*
X52828866Y-51181955D01*
X52832044Y-50954376D01*
X52793343Y-50758923D01*
X52717415Y-50574709D01*
X52607153Y-50408751D01*
X52466756Y-50267371D01*
X52301572Y-50155953D01*
X52117893Y-50078741D01*
X51922715Y-50038677D01*
X51723472Y-50037286D01*
X51527753Y-50074621D01*
X51343014Y-50149261D01*
X51176290Y-50258361D01*
X51033933Y-50397768D01*
X50921364Y-50562170D01*
X50842872Y-50745306D01*
X50801446Y-50940200D01*
X50798664Y-51139428D01*
X39270199Y-51139428D01*
X39163893Y-51094741D01*
X38968715Y-51054677D01*
X38769472Y-51053286D01*
X38573753Y-51090621D01*
X38389014Y-51165261D01*
X38222290Y-51274361D01*
X38079933Y-51413768D01*
X37967364Y-51578170D01*
X37888872Y-51761306D01*
X37847446Y-51956200D01*
X37844664Y-52155428D01*
X23726838Y-52155428D01*
X23447155Y-51180059D01*
X28105533Y-51180059D01*
X28139253Y-51363785D01*
X28208017Y-51537463D01*
X28309205Y-51694476D01*
X28438964Y-51828845D01*
X28592350Y-51935452D01*
X28763522Y-52010235D01*
X28945959Y-52050346D01*
X29132713Y-52054258D01*
X29316671Y-52021822D01*
X29490824Y-51954272D01*
X29648540Y-51854182D01*
X29783812Y-51725365D01*
X29891486Y-51572726D01*
X29967463Y-51402081D01*
X30008847Y-51219928D01*
X30011826Y-51006573D01*
X29975544Y-50823335D01*
X29904362Y-50650635D01*
X29800991Y-50495049D01*
X29669369Y-50362505D01*
X29514509Y-50258050D01*
X29342310Y-50185664D01*
X29159330Y-50148104D01*
X28972540Y-50146800D01*
X28789053Y-50181802D01*
X28615860Y-50251777D01*
X28459557Y-50354059D01*
X28326097Y-50484752D01*
X28220564Y-50638879D01*
X28146978Y-50810569D01*
X28108141Y-50993282D01*
X28105533Y-51180059D01*
X23447155Y-51180059D01*
X22998504Y-49615428D01*
X34796664Y-49615428D01*
X34832633Y-49811403D01*
X34905981Y-49996659D01*
X35013915Y-50164140D01*
X35152324Y-50307467D01*
X35315936Y-50421180D01*
X35498520Y-50500949D01*
X35693119Y-50543734D01*
X35892324Y-50547907D01*
X36088545Y-50513308D01*
X36274308Y-50441255D01*
X36442539Y-50334493D01*
X36586828Y-50197088D01*
X36701681Y-50034273D01*
X36782723Y-49852251D01*
X36826866Y-49657955D01*
X36830044Y-49430376D01*
X36815335Y-49356089D01*
X39940248Y-49356089D01*
X39973968Y-49539815D01*
X40042732Y-49713493D01*
X40143920Y-49870506D01*
X40273679Y-50004875D01*
X40427065Y-50111482D01*
X40598237Y-50186265D01*
X40780674Y-50226376D01*
X40967428Y-50230288D01*
X41151386Y-50197852D01*
X41325539Y-50130302D01*
X41483255Y-50030212D01*
X41618527Y-49901395D01*
X41726201Y-49748756D01*
X41802178Y-49578111D01*
X41843562Y-49395958D01*
X41846541Y-49182603D01*
X41833054Y-49114490D01*
X41833539Y-49114302D01*
X41991255Y-49014212D01*
X42126527Y-48885395D01*
X42234201Y-48732756D01*
X42310178Y-48562111D01*
X42351562Y-48379958D01*
X42354541Y-48166603D01*
X42318259Y-47983365D01*
X42247077Y-47810665D01*
X42143706Y-47655079D01*
X42012084Y-47522535D01*
X41857224Y-47418080D01*
X41685025Y-47345694D01*
X41502045Y-47308134D01*
X41315255Y-47306830D01*
X41131768Y-47341832D01*
X40958575Y-47411807D01*
X40802272Y-47514089D01*
X40668812Y-47644782D01*
X40563279Y-47798909D01*
X40489693Y-47970599D01*
X40450856Y-48153312D01*
X40448248Y-48340089D01*
X40463396Y-48422627D01*
X40450575Y-48427807D01*
X40294272Y-48530089D01*
X40160812Y-48660782D01*
X40055279Y-48814909D01*
X39981693Y-48986599D01*
X39942856Y-49169312D01*
X39940248Y-49356089D01*
X36815335Y-49356089D01*
X36791343Y-49234923D01*
X36715415Y-49050709D01*
X36605153Y-48884751D01*
X36464756Y-48743371D01*
X36299572Y-48631953D01*
X36115893Y-48554741D01*
X35920715Y-48514677D01*
X35721472Y-48513286D01*
X35525753Y-48550621D01*
X35341014Y-48625261D01*
X35174290Y-48734361D01*
X35031933Y-48873768D01*
X34919364Y-49038170D01*
X34840872Y-49221306D01*
X34799446Y-49416200D01*
X34796664Y-49615428D01*
X22998504Y-49615428D01*
X22663892Y-48448499D01*
X22548145Y-47070089D01*
X47814248Y-47070089D01*
X47847968Y-47253815D01*
X47916732Y-47427493D01*
X48017920Y-47584506D01*
X48147679Y-47718875D01*
X48301065Y-47825482D01*
X48472237Y-47900265D01*
X48654674Y-47940376D01*
X48841428Y-47944288D01*
X49025386Y-47911852D01*
X49199539Y-47844302D01*
X49357255Y-47744212D01*
X49492527Y-47615395D01*
X49600201Y-47462756D01*
X49661940Y-47324089D01*
X50608248Y-47324089D01*
X50641968Y-47507815D01*
X50710732Y-47681493D01*
X50811920Y-47838506D01*
X50941679Y-47972875D01*
X51095065Y-48079482D01*
X51266237Y-48154265D01*
X51448674Y-48194376D01*
X51635428Y-48198288D01*
X51819386Y-48165852D01*
X51993539Y-48098302D01*
X52031692Y-48074089D01*
X53668248Y-48074089D01*
X53701968Y-48257815D01*
X53770732Y-48431493D01*
X53871920Y-48588506D01*
X54001679Y-48722875D01*
X54155065Y-48829482D01*
X54261290Y-48875890D01*
X54179692Y-48955797D01*
X54081194Y-49099649D01*
X54012514Y-49259893D01*
X53976266Y-49430425D01*
X53973832Y-49604750D01*
X54005304Y-49776227D01*
X54069483Y-49938326D01*
X54163926Y-50084872D01*
X54285034Y-50210283D01*
X54428194Y-50309782D01*
X54587955Y-50379580D01*
X54758230Y-50417017D01*
X54932533Y-50420668D01*
X55104226Y-50390394D01*
X55266769Y-50327348D01*
X55413971Y-50233931D01*
X55540224Y-50113701D01*
X55640721Y-49971239D01*
X55711632Y-49811970D01*
X55742549Y-49675884D01*
X57190719Y-49675884D01*
X57252141Y-50010545D01*
X57377396Y-50326902D01*
X57561713Y-50612906D01*
X57798071Y-50857662D01*
X58077468Y-51051848D01*
X58389261Y-51188067D01*
X58721575Y-51261131D01*
X59061752Y-51268257D01*
X59396833Y-51209173D01*
X59714058Y-51086130D01*
X60001341Y-50903814D01*
X60247741Y-50669170D01*
X60443873Y-50391136D01*
X60582266Y-50080301D01*
X60657648Y-49748505D01*
X60663074Y-49359874D01*
X60596986Y-49026103D01*
X60467326Y-48711526D01*
X60279034Y-48428123D01*
X60039282Y-48186691D01*
X59757201Y-47996425D01*
X59443536Y-47864572D01*
X59110234Y-47796156D01*
X58930300Y-47794899D01*
X58949769Y-47787348D01*
X59096971Y-47693931D01*
X59223224Y-47573701D01*
X59323721Y-47431239D01*
X59394632Y-47271970D01*
X59433257Y-47101960D01*
X59436038Y-46902829D01*
X59402174Y-46731808D01*
X59335738Y-46570621D01*
X59239259Y-46425408D01*
X59116411Y-46301700D01*
X58971876Y-46204209D01*
X58811156Y-46136649D01*
X58640375Y-46101593D01*
X58466038Y-46100375D01*
X58294784Y-46133044D01*
X58133137Y-46198353D01*
X57987254Y-46293817D01*
X57862692Y-46415797D01*
X57764194Y-46559649D01*
X57695514Y-46719893D01*
X57659266Y-46890425D01*
X57656832Y-47064750D01*
X57688304Y-47236227D01*
X57752483Y-47398326D01*
X57846926Y-47544872D01*
X57968034Y-47670283D01*
X58111194Y-47769782D01*
X58270955Y-47839580D01*
X58406469Y-47869374D01*
X58120292Y-47984997D01*
X57835582Y-48171306D01*
X57592482Y-48409367D01*
X57400251Y-48690113D01*
X57266212Y-49002850D01*
X57195470Y-49335666D01*
X57190719Y-49675884D01*
X55742549Y-49675884D01*
X55750257Y-49641960D01*
X55753038Y-49442829D01*
X55719174Y-49271808D01*
X55652738Y-49110621D01*
X55556259Y-48965408D01*
X55433411Y-48841700D01*
X55288876Y-48744209D01*
X55237942Y-48722798D01*
X55346527Y-48619395D01*
X55454201Y-48466756D01*
X55530178Y-48296111D01*
X55571562Y-48113958D01*
X55574541Y-47900603D01*
X55538259Y-47717365D01*
X55467077Y-47544665D01*
X55363706Y-47389079D01*
X55232084Y-47256535D01*
X55077224Y-47152080D01*
X54905025Y-47079694D01*
X54722045Y-47042134D01*
X54535255Y-47040830D01*
X54351768Y-47075832D01*
X54178575Y-47145807D01*
X54022272Y-47248089D01*
X53888812Y-47378782D01*
X53783279Y-47532909D01*
X53709693Y-47704599D01*
X53670856Y-47887312D01*
X53668248Y-48074089D01*
X52031692Y-48074089D01*
X52151255Y-47998212D01*
X52286527Y-47869395D01*
X52394201Y-47716756D01*
X52470178Y-47546111D01*
X52511562Y-47363958D01*
X52514541Y-47150603D01*
X52478259Y-46967365D01*
X52407077Y-46794665D01*
X52303706Y-46639079D01*
X52172084Y-46506535D01*
X52017224Y-46402080D01*
X51845025Y-46329694D01*
X51662045Y-46292134D01*
X51475255Y-46290830D01*
X51291768Y-46325832D01*
X51118575Y-46395807D01*
X50962272Y-46498089D01*
X50828812Y-46628782D01*
X50723279Y-46782909D01*
X50649693Y-46954599D01*
X50610856Y-47137312D01*
X50608248Y-47324089D01*
X49661940Y-47324089D01*
X49676178Y-47292111D01*
X49717562Y-47109958D01*
X49720541Y-46896603D01*
X49684259Y-46713365D01*
X49613077Y-46540665D01*
X49509706Y-46385079D01*
X49378084Y-46252535D01*
X49223224Y-46148080D01*
X49051025Y-46075694D01*
X48868045Y-46038134D01*
X48681255Y-46036830D01*
X48497768Y-46071832D01*
X48324575Y-46141807D01*
X48168272Y-46244089D01*
X48034812Y-46374782D01*
X47929279Y-46528909D01*
X47855693Y-46700599D01*
X47816856Y-46883312D01*
X47814248Y-47070089D01*
X22548145Y-47070089D01*
X22430835Y-45673089D01*
X23049248Y-45673089D01*
X23082968Y-45856815D01*
X23151732Y-46030493D01*
X23252920Y-46187506D01*
X23382679Y-46321875D01*
X23536065Y-46428482D01*
X23707237Y-46503265D01*
X23889674Y-46543376D01*
X24076428Y-46547288D01*
X24260386Y-46514852D01*
X24434539Y-46447302D01*
X24592255Y-46347212D01*
X24727527Y-46218395D01*
X24835201Y-46065756D01*
X24911178Y-45895111D01*
X24931553Y-45805428D01*
X37082664Y-45805428D01*
X37118633Y-46001403D01*
X37191981Y-46186659D01*
X37299915Y-46354140D01*
X37438324Y-46497467D01*
X37601936Y-46611180D01*
X37784520Y-46690949D01*
X37979119Y-46733734D01*
X38178324Y-46737907D01*
X38374545Y-46703308D01*
X38560308Y-46631255D01*
X38728539Y-46524493D01*
X38872828Y-46387088D01*
X38987681Y-46224273D01*
X39068723Y-46042251D01*
X39112866Y-45847955D01*
X39116044Y-45620376D01*
X39077343Y-45424923D01*
X39022593Y-45292089D01*
X50608248Y-45292089D01*
X50641968Y-45475815D01*
X50710732Y-45649493D01*
X50811920Y-45806506D01*
X50941679Y-45940875D01*
X51095065Y-46047482D01*
X51266237Y-46122265D01*
X51448674Y-46162376D01*
X51635428Y-46166288D01*
X51819386Y-46133852D01*
X51993539Y-46066302D01*
X52151255Y-45966212D01*
X52286527Y-45837395D01*
X52394201Y-45684756D01*
X52470178Y-45514111D01*
X52511562Y-45331958D01*
X52514541Y-45118603D01*
X52478259Y-44935365D01*
X52407077Y-44762665D01*
X52303706Y-44607079D01*
X52227252Y-44530089D01*
X54418248Y-44530089D01*
X54451968Y-44713815D01*
X54520732Y-44887493D01*
X54621920Y-45044506D01*
X54751679Y-45178875D01*
X54905065Y-45285482D01*
X55076237Y-45360265D01*
X55258674Y-45400376D01*
X55445428Y-45404288D01*
X55629386Y-45371852D01*
X55803539Y-45304302D01*
X55961255Y-45204212D01*
X56096527Y-45075395D01*
X56204201Y-44922756D01*
X56280178Y-44752111D01*
X56321562Y-44569958D01*
X56324541Y-44356603D01*
X56288259Y-44173365D01*
X56217077Y-44000665D01*
X56113706Y-43845079D01*
X55982084Y-43712535D01*
X55827224Y-43608080D01*
X55655025Y-43535694D01*
X55549773Y-43514089D01*
X58228248Y-43514089D01*
X58261968Y-43697815D01*
X58330732Y-43871493D01*
X58431920Y-44028506D01*
X58561679Y-44162875D01*
X58715065Y-44269482D01*
X58886237Y-44344265D01*
X59068674Y-44384376D01*
X59255428Y-44388288D01*
X59439386Y-44355852D01*
X59613539Y-44288302D01*
X59771255Y-44188212D01*
X59906527Y-44059395D01*
X60014201Y-43906756D01*
X60090178Y-43736111D01*
X60131562Y-43553958D01*
X60133891Y-43387089D01*
X63943248Y-43387089D01*
X63976968Y-43570815D01*
X64045732Y-43744493D01*
X64146920Y-43901506D01*
X64276679Y-44035875D01*
X64430065Y-44142482D01*
X64601237Y-44217265D01*
X64783674Y-44257376D01*
X64970428Y-44261288D01*
X65154386Y-44228852D01*
X65328539Y-44161302D01*
X65486255Y-44061212D01*
X65621527Y-43932395D01*
X65729201Y-43779756D01*
X65805178Y-43609111D01*
X65846562Y-43426958D01*
X65849541Y-43213603D01*
X65813259Y-43030365D01*
X65742077Y-42857665D01*
X65638706Y-42702079D01*
X65507084Y-42569535D01*
X65352224Y-42465080D01*
X65180025Y-42392694D01*
X64997045Y-42355134D01*
X64810255Y-42353830D01*
X64626768Y-42388832D01*
X64453575Y-42458807D01*
X64297272Y-42561089D01*
X64163812Y-42691782D01*
X64058279Y-42845909D01*
X63984693Y-43017599D01*
X63945856Y-43200312D01*
X63943248Y-43387089D01*
X60133891Y-43387089D01*
X60134541Y-43340603D01*
X60098259Y-43157365D01*
X60027077Y-42984665D01*
X59923706Y-42829079D01*
X59792084Y-42696535D01*
X59637224Y-42592080D01*
X59465025Y-42519694D01*
X59282045Y-42482134D01*
X59095255Y-42480830D01*
X58911768Y-42515832D01*
X58738575Y-42585807D01*
X58582272Y-42688089D01*
X58448812Y-42818782D01*
X58343279Y-42972909D01*
X58269693Y-43144599D01*
X58230856Y-43327312D01*
X58228248Y-43514089D01*
X55549773Y-43514089D01*
X55472045Y-43498134D01*
X55285255Y-43496830D01*
X55101768Y-43531832D01*
X54928575Y-43601807D01*
X54772272Y-43704089D01*
X54638812Y-43834782D01*
X54533279Y-43988909D01*
X54459693Y-44160599D01*
X54420856Y-44343312D01*
X54418248Y-44530089D01*
X52227252Y-44530089D01*
X52172084Y-44474535D01*
X52017224Y-44370080D01*
X51845025Y-44297694D01*
X51662045Y-44260134D01*
X51475255Y-44258830D01*
X51291768Y-44293832D01*
X51118575Y-44363807D01*
X50962272Y-44466089D01*
X50828812Y-44596782D01*
X50723279Y-44750909D01*
X50649693Y-44922599D01*
X50610856Y-45105312D01*
X50608248Y-45292089D01*
X39022593Y-45292089D01*
X39001415Y-45240709D01*
X38891153Y-45074751D01*
X38856006Y-45039358D01*
X38951527Y-44948395D01*
X39059201Y-44795756D01*
X39135178Y-44625111D01*
X39176562Y-44442958D01*
X39179541Y-44229603D01*
X39143259Y-44046365D01*
X39072077Y-43873665D01*
X38968706Y-43718079D01*
X38837084Y-43585535D01*
X38682224Y-43481080D01*
X38510025Y-43408694D01*
X38327045Y-43371134D01*
X38140255Y-43369830D01*
X37956768Y-43404832D01*
X37783575Y-43474807D01*
X37627272Y-43577089D01*
X37493812Y-43707782D01*
X37388279Y-43861909D01*
X37314693Y-44033599D01*
X37275856Y-44216312D01*
X37273248Y-44403089D01*
X37306968Y-44586815D01*
X37375732Y-44760493D01*
X37475094Y-44914673D01*
X37460290Y-44924361D01*
X37317933Y-45063768D01*
X37205364Y-45228170D01*
X37126872Y-45411306D01*
X37085446Y-45606200D01*
X37082664Y-45805428D01*
X24931553Y-45805428D01*
X24952562Y-45712958D01*
X24955541Y-45499603D01*
X24919259Y-45316365D01*
X24848077Y-45143665D01*
X24744706Y-44988079D01*
X24613084Y-44855535D01*
X24507162Y-44784089D01*
X26732248Y-44784089D01*
X26765968Y-44967815D01*
X26834732Y-45141493D01*
X26935920Y-45298506D01*
X27065679Y-45432875D01*
X27219065Y-45539482D01*
X27390237Y-45614265D01*
X27572674Y-45654376D01*
X27759428Y-45658288D01*
X27943386Y-45625852D01*
X28117539Y-45558302D01*
X28275255Y-45458212D01*
X28410527Y-45329395D01*
X28518201Y-45176756D01*
X28594178Y-45006111D01*
X28635562Y-44823958D01*
X28638541Y-44610603D01*
X28602259Y-44427365D01*
X28531077Y-44254665D01*
X28427706Y-44099079D01*
X28296084Y-43966535D01*
X28141224Y-43862080D01*
X27969025Y-43789694D01*
X27786045Y-43752134D01*
X27599255Y-43750830D01*
X27415768Y-43785832D01*
X27242575Y-43855807D01*
X27086272Y-43958089D01*
X26952812Y-44088782D01*
X26847279Y-44242909D01*
X26773693Y-44414599D01*
X26734856Y-44597312D01*
X26732248Y-44784089D01*
X24507162Y-44784089D01*
X24458224Y-44751080D01*
X24286025Y-44678694D01*
X24103045Y-44641134D01*
X23916255Y-44639830D01*
X23732768Y-44674832D01*
X23559575Y-44744807D01*
X23403272Y-44847089D01*
X23269812Y-44977782D01*
X23164279Y-45131909D01*
X23090693Y-45303599D01*
X23051856Y-45486312D01*
X23049248Y-45673089D01*
X22430835Y-45673089D01*
X22302159Y-44140738D01*
X22592994Y-41547884D01*
X27726719Y-41547884D01*
X27788141Y-41882545D01*
X27913396Y-42198902D01*
X28097713Y-42484906D01*
X28334071Y-42729662D01*
X28613468Y-42923848D01*
X28925261Y-43060067D01*
X29257575Y-43133131D01*
X29597752Y-43140257D01*
X29932833Y-43081173D01*
X30250058Y-42958130D01*
X30537341Y-42775814D01*
X30783741Y-42541170D01*
X30979873Y-42263136D01*
X31118266Y-41952301D01*
X31193648Y-41620505D01*
X31199074Y-41231874D01*
X31198325Y-41228089D01*
X49338248Y-41228089D01*
X49371968Y-41411815D01*
X49440732Y-41585493D01*
X49541920Y-41742506D01*
X49671679Y-41876875D01*
X49825065Y-41983482D01*
X49996237Y-42058265D01*
X50178674Y-42098376D01*
X50365428Y-42102288D01*
X50549386Y-42069852D01*
X50723539Y-42002302D01*
X50881255Y-41902212D01*
X51016527Y-41773395D01*
X51124201Y-41620756D01*
X51200178Y-41450111D01*
X51241562Y-41267958D01*
X51244541Y-41054603D01*
X51208259Y-40871365D01*
X51137077Y-40698665D01*
X51033706Y-40543079D01*
X50902084Y-40410535D01*
X50747224Y-40306080D01*
X50575025Y-40233694D01*
X50443763Y-40206750D01*
X51179832Y-40206750D01*
X51211304Y-40378227D01*
X51275483Y-40540326D01*
X51369926Y-40686872D01*
X51491034Y-40812283D01*
X51634194Y-40911782D01*
X51793955Y-40981580D01*
X51964230Y-41019017D01*
X52138533Y-41022668D01*
X52310226Y-40992394D01*
X52472769Y-40929348D01*
X52619971Y-40835931D01*
X52746224Y-40715701D01*
X52846721Y-40573239D01*
X52917632Y-40413970D01*
X52956257Y-40243960D01*
X52957149Y-40180083D01*
X58228248Y-40180083D01*
X58261968Y-40363809D01*
X58330732Y-40537487D01*
X58344259Y-40558477D01*
X58343279Y-40559909D01*
X58269693Y-40731599D01*
X58230856Y-40914312D01*
X58228248Y-41101089D01*
X58261968Y-41284815D01*
X58330732Y-41458493D01*
X58431920Y-41615506D01*
X58561679Y-41749875D01*
X58715065Y-41856482D01*
X58886237Y-41931265D01*
X59068674Y-41971376D01*
X59255428Y-41975288D01*
X59439386Y-41942852D01*
X59613539Y-41875302D01*
X59771255Y-41775212D01*
X59906527Y-41646395D01*
X60014201Y-41493756D01*
X60090178Y-41323111D01*
X60131562Y-41140958D01*
X60134541Y-40927603D01*
X60098259Y-40744365D01*
X60027077Y-40571665D01*
X60019657Y-40560497D01*
X60090178Y-40402105D01*
X60131562Y-40219952D01*
X60134541Y-40006597D01*
X60098259Y-39823359D01*
X60027077Y-39650659D01*
X59923706Y-39495073D01*
X59792084Y-39362529D01*
X59637224Y-39258074D01*
X59465025Y-39185688D01*
X59282045Y-39148128D01*
X59095255Y-39146824D01*
X58911768Y-39181826D01*
X58738575Y-39251801D01*
X58582272Y-39354083D01*
X58448812Y-39484776D01*
X58343279Y-39638903D01*
X58269693Y-39810593D01*
X58230856Y-39993306D01*
X58228248Y-40180083D01*
X52957149Y-40180083D01*
X52959038Y-40044829D01*
X52925174Y-39873808D01*
X52858738Y-39712621D01*
X52762259Y-39567408D01*
X52639411Y-39443700D01*
X52494876Y-39346209D01*
X52334156Y-39278649D01*
X52163375Y-39243593D01*
X51989038Y-39242375D01*
X51817784Y-39275044D01*
X51656137Y-39340353D01*
X51510254Y-39435817D01*
X51385692Y-39557797D01*
X51287194Y-39701649D01*
X51218514Y-39861893D01*
X51182266Y-40032425D01*
X51179832Y-40206750D01*
X50443763Y-40206750D01*
X50392045Y-40196134D01*
X50205255Y-40194830D01*
X50021768Y-40229832D01*
X49848575Y-40299807D01*
X49692272Y-40402089D01*
X49558812Y-40532782D01*
X49453279Y-40686909D01*
X49379693Y-40858599D01*
X49340856Y-41041312D01*
X49338248Y-41228089D01*
X31198325Y-41228089D01*
X31132986Y-40898103D01*
X31003326Y-40583526D01*
X30815034Y-40300123D01*
X30575282Y-40058691D01*
X30293201Y-39868425D01*
X29979536Y-39736572D01*
X29821289Y-39704089D01*
X40448248Y-39704089D01*
X40481968Y-39887815D01*
X40550732Y-40061493D01*
X40651920Y-40218506D01*
X40781679Y-40352875D01*
X40935065Y-40459482D01*
X41106237Y-40534265D01*
X41288674Y-40574376D01*
X41475428Y-40578288D01*
X41659386Y-40545852D01*
X41833539Y-40478302D01*
X41991255Y-40378212D01*
X42126527Y-40249395D01*
X42234201Y-40096756D01*
X42310178Y-39926111D01*
X42351562Y-39743958D01*
X42354541Y-39530603D01*
X42318259Y-39347365D01*
X42247077Y-39174665D01*
X42143706Y-39019079D01*
X42012084Y-38886535D01*
X41857224Y-38782080D01*
X41685025Y-38709694D01*
X41502045Y-38672134D01*
X41315255Y-38670830D01*
X41131768Y-38705832D01*
X40958575Y-38775807D01*
X40802272Y-38878089D01*
X40668812Y-39008782D01*
X40563279Y-39162909D01*
X40489693Y-39334599D01*
X40450856Y-39517312D01*
X40448248Y-39704089D01*
X29821289Y-39704089D01*
X29646234Y-39668156D01*
X29305992Y-39665780D01*
X28971767Y-39729537D01*
X28656292Y-39856997D01*
X28371582Y-40043306D01*
X28128482Y-40281367D01*
X27936251Y-40562113D01*
X27802212Y-40874850D01*
X27731470Y-41207666D01*
X27726719Y-41547884D01*
X22592994Y-41547884D01*
X22784031Y-39844756D01*
X23444924Y-37761355D01*
X24168276Y-37761355D01*
X24201996Y-37945081D01*
X24270760Y-38118759D01*
X24371948Y-38275772D01*
X24501707Y-38410141D01*
X24655093Y-38516748D01*
X24826265Y-38591531D01*
X25008702Y-38631642D01*
X25195456Y-38635554D01*
X25379414Y-38603118D01*
X25553567Y-38535568D01*
X25711283Y-38435478D01*
X25801622Y-38349449D01*
X27911130Y-38349449D01*
X27944850Y-38533175D01*
X28013614Y-38706853D01*
X28114802Y-38863866D01*
X28244561Y-38998235D01*
X28397947Y-39104842D01*
X28569119Y-39179625D01*
X28751556Y-39219736D01*
X28938310Y-39223648D01*
X29122268Y-39191212D01*
X29296421Y-39123662D01*
X29454137Y-39023572D01*
X29589409Y-38894755D01*
X29697083Y-38742116D01*
X29773060Y-38571471D01*
X29814444Y-38389318D01*
X29817423Y-38175963D01*
X29781141Y-37992725D01*
X29709959Y-37820025D01*
X29606588Y-37664439D01*
X29474966Y-37531895D01*
X29320106Y-37427440D01*
X29147907Y-37355054D01*
X28964927Y-37317494D01*
X28778137Y-37316190D01*
X28594650Y-37351192D01*
X28421457Y-37421167D01*
X28265154Y-37523449D01*
X28131694Y-37654142D01*
X28026161Y-37808269D01*
X27952575Y-37979959D01*
X27913738Y-38162672D01*
X27911130Y-38349449D01*
X25801622Y-38349449D01*
X25846555Y-38306661D01*
X25954229Y-38154022D01*
X26030206Y-37983377D01*
X26071590Y-37801224D01*
X26074569Y-37587869D01*
X26038287Y-37404631D01*
X25967105Y-37231931D01*
X25922031Y-37164089D01*
X39432248Y-37164089D01*
X39465968Y-37347815D01*
X39534732Y-37521493D01*
X39635920Y-37678506D01*
X39765679Y-37812875D01*
X39919065Y-37919482D01*
X40090237Y-37994265D01*
X40272674Y-38034376D01*
X40459428Y-38038288D01*
X40643386Y-38005852D01*
X40817539Y-37938302D01*
X40975255Y-37838212D01*
X41110527Y-37709395D01*
X41218201Y-37556756D01*
X41294178Y-37386111D01*
X41335562Y-37203958D01*
X41338541Y-36990603D01*
X41302259Y-36807365D01*
X41231077Y-36634665D01*
X41127706Y-36479079D01*
X40996084Y-36346535D01*
X40841224Y-36242080D01*
X40669025Y-36169694D01*
X40486045Y-36132134D01*
X40299255Y-36130830D01*
X40115768Y-36165832D01*
X39942575Y-36235807D01*
X39786272Y-36338089D01*
X39652812Y-36468782D01*
X39547279Y-36622909D01*
X39473693Y-36794599D01*
X39434856Y-36977312D01*
X39432248Y-37164089D01*
X25922031Y-37164089D01*
X25863734Y-37076345D01*
X25732112Y-36943801D01*
X25577252Y-36839346D01*
X25405053Y-36766960D01*
X25222073Y-36729400D01*
X25035283Y-36728096D01*
X24851796Y-36763098D01*
X24678603Y-36833073D01*
X24522300Y-36935355D01*
X24388840Y-37066048D01*
X24283307Y-37220175D01*
X24209721Y-37391865D01*
X24170884Y-37574578D01*
X24168276Y-37761355D01*
X23444924Y-37761355D01*
X24037255Y-35894089D01*
X48830248Y-35894089D01*
X48863968Y-36077815D01*
X48932732Y-36251493D01*
X49033920Y-36408506D01*
X49163679Y-36542875D01*
X49317065Y-36649482D01*
X49488237Y-36724265D01*
X49670674Y-36764376D01*
X49857428Y-36768288D01*
X50041386Y-36735852D01*
X50215539Y-36668302D01*
X50373255Y-36568212D01*
X50508527Y-36439395D01*
X50616201Y-36286756D01*
X50692178Y-36116111D01*
X50733562Y-35933958D01*
X50736541Y-35720603D01*
X50722436Y-35649367D01*
X61949406Y-35649367D01*
X61983126Y-35833093D01*
X62051890Y-36006771D01*
X62153078Y-36163784D01*
X62282837Y-36298153D01*
X62436223Y-36404760D01*
X62607395Y-36479543D01*
X62789832Y-36519654D01*
X62976586Y-36523566D01*
X63160544Y-36491130D01*
X63334697Y-36423580D01*
X63492413Y-36323490D01*
X63627685Y-36194673D01*
X63735359Y-36042034D01*
X63811336Y-35871389D01*
X63852720Y-35689236D01*
X63855699Y-35475881D01*
X63819417Y-35292643D01*
X63748235Y-35119943D01*
X63644864Y-34964357D01*
X63513242Y-34831813D01*
X63358382Y-34727358D01*
X63186183Y-34654972D01*
X63003203Y-34617412D01*
X62816413Y-34616108D01*
X62632926Y-34651110D01*
X62459733Y-34721085D01*
X62303430Y-34823367D01*
X62169970Y-34954060D01*
X62064437Y-35108187D01*
X61990851Y-35279877D01*
X61952014Y-35462590D01*
X61949406Y-35649367D01*
X50722436Y-35649367D01*
X50700259Y-35537365D01*
X50629077Y-35364665D01*
X50525706Y-35209079D01*
X50394084Y-35076535D01*
X50239224Y-34972080D01*
X50067025Y-34899694D01*
X49884045Y-34862134D01*
X49697255Y-34860830D01*
X49513768Y-34895832D01*
X49340575Y-34965807D01*
X49184272Y-35068089D01*
X49050812Y-35198782D01*
X48945279Y-35352909D01*
X48871693Y-35524599D01*
X48832856Y-35707312D01*
X48830248Y-35894089D01*
X24037255Y-35894089D01*
X24091152Y-35724187D01*
X25865562Y-32496546D01*
X31462705Y-32496546D01*
X31496425Y-32680272D01*
X31565189Y-32853950D01*
X31666377Y-33010963D01*
X31796136Y-33145332D01*
X31949522Y-33251939D01*
X32120694Y-33326722D01*
X32303131Y-33366833D01*
X32489885Y-33370745D01*
X32673843Y-33338309D01*
X32847996Y-33270759D01*
X33005712Y-33170669D01*
X33140984Y-33041852D01*
X33248658Y-32889213D01*
X33324635Y-32718568D01*
X33366019Y-32536415D01*
X33368998Y-32323060D01*
X33332716Y-32139822D01*
X33309745Y-32084089D01*
X42226248Y-32084089D01*
X42259968Y-32267815D01*
X42328732Y-32441493D01*
X42429920Y-32598506D01*
X42559679Y-32732875D01*
X42713065Y-32839482D01*
X42884237Y-32914265D01*
X43066674Y-32954376D01*
X43253428Y-32958288D01*
X43437386Y-32925852D01*
X43611539Y-32858302D01*
X43630783Y-32846089D01*
X54164248Y-32846089D01*
X54197968Y-33029815D01*
X54266732Y-33203493D01*
X54367920Y-33360506D01*
X54497679Y-33494875D01*
X54651065Y-33601482D01*
X54822237Y-33676265D01*
X55004674Y-33716376D01*
X55191428Y-33720288D01*
X55375386Y-33687852D01*
X55549539Y-33620302D01*
X55707255Y-33520212D01*
X55842527Y-33391395D01*
X55950201Y-33238756D01*
X56026178Y-33068111D01*
X56067562Y-32885958D01*
X56070541Y-32672603D01*
X56034259Y-32489365D01*
X55963077Y-32316665D01*
X55859706Y-32161079D01*
X55728084Y-32028535D01*
X55573224Y-31924080D01*
X55401025Y-31851694D01*
X55218045Y-31814134D01*
X55031255Y-31812830D01*
X54847768Y-31847832D01*
X54674575Y-31917807D01*
X54518272Y-32020089D01*
X54384812Y-32150782D01*
X54279279Y-32304909D01*
X54205693Y-32476599D01*
X54166856Y-32659312D01*
X54164248Y-32846089D01*
X43630783Y-32846089D01*
X43769255Y-32758212D01*
X43904527Y-32629395D01*
X44012201Y-32476756D01*
X44088178Y-32306111D01*
X44129562Y-32123958D01*
X44132541Y-31910603D01*
X44096259Y-31727365D01*
X44025077Y-31554665D01*
X43921706Y-31399079D01*
X43790084Y-31266535D01*
X43635224Y-31162080D01*
X43463025Y-31089694D01*
X43280045Y-31052134D01*
X43093255Y-31050830D01*
X42909768Y-31085832D01*
X42736575Y-31155807D01*
X42580272Y-31258089D01*
X42446812Y-31388782D01*
X42341279Y-31542909D01*
X42267693Y-31714599D01*
X42228856Y-31897312D01*
X42226248Y-32084089D01*
X33309745Y-32084089D01*
X33261534Y-31967122D01*
X33158163Y-31811536D01*
X33026541Y-31678992D01*
X32871681Y-31574537D01*
X32699482Y-31502151D01*
X32516502Y-31464591D01*
X32329712Y-31463287D01*
X32146225Y-31498289D01*
X31973032Y-31568264D01*
X31816729Y-31670546D01*
X31683269Y-31801239D01*
X31577736Y-31955366D01*
X31504150Y-32127056D01*
X31465313Y-32309769D01*
X31462705Y-32496546D01*
X25865562Y-32496546D01*
X26173736Y-31935981D01*
X27059725Y-30880100D01*
X28229813Y-30880100D01*
X28263533Y-31063826D01*
X28332297Y-31237504D01*
X28433485Y-31394517D01*
X28563244Y-31528886D01*
X28716630Y-31635493D01*
X28887802Y-31710276D01*
X29070239Y-31750387D01*
X29256993Y-31754299D01*
X29440951Y-31721863D01*
X29615104Y-31654313D01*
X29772820Y-31554223D01*
X29908092Y-31425406D01*
X30015766Y-31272767D01*
X30091743Y-31102122D01*
X30133127Y-30919969D01*
X30136106Y-30706614D01*
X30099824Y-30523376D01*
X30028642Y-30350676D01*
X29925271Y-30195090D01*
X29793649Y-30062546D01*
X29638789Y-29958091D01*
X29466590Y-29885705D01*
X29283610Y-29848145D01*
X29096820Y-29846841D01*
X28913333Y-29881843D01*
X28740140Y-29951818D01*
X28583837Y-30054100D01*
X28450377Y-30184793D01*
X28344844Y-30338920D01*
X28271258Y-30510610D01*
X28232421Y-30693323D01*
X28229813Y-30880100D01*
X27059725Y-30880100D01*
X28798837Y-28807507D01*
X36983741Y-28807507D01*
X37017461Y-28991233D01*
X37086225Y-29164911D01*
X37187413Y-29321924D01*
X37317172Y-29456293D01*
X37470558Y-29562900D01*
X37641730Y-29637683D01*
X37824167Y-29677794D01*
X38010921Y-29681706D01*
X38194879Y-29649270D01*
X38369032Y-29581720D01*
X38526748Y-29481630D01*
X38662020Y-29352813D01*
X38769694Y-29200174D01*
X38845671Y-29029529D01*
X38887055Y-28847376D01*
X38887611Y-28807507D01*
X50008755Y-28807507D01*
X50042475Y-28991233D01*
X50111239Y-29164911D01*
X50212427Y-29321924D01*
X50342186Y-29456293D01*
X50495572Y-29562900D01*
X50666744Y-29637683D01*
X50849181Y-29677794D01*
X51035935Y-29681706D01*
X51219893Y-29649270D01*
X51394046Y-29581720D01*
X51551762Y-29481630D01*
X51687034Y-29352813D01*
X51749928Y-29263654D01*
X57146237Y-29263654D01*
X57179957Y-29447380D01*
X57248721Y-29621058D01*
X57349909Y-29778071D01*
X57479668Y-29912440D01*
X57633054Y-30019047D01*
X57804226Y-30093830D01*
X57986663Y-30133941D01*
X58173417Y-30137853D01*
X58357375Y-30105417D01*
X58531528Y-30037867D01*
X58689244Y-29937777D01*
X58824516Y-29808960D01*
X58932190Y-29656321D01*
X59008167Y-29485676D01*
X59049551Y-29303523D01*
X59052530Y-29090168D01*
X59016248Y-28906930D01*
X58945066Y-28734230D01*
X58841695Y-28578644D01*
X58710073Y-28446100D01*
X58555213Y-28341645D01*
X58383014Y-28269259D01*
X58200034Y-28231699D01*
X58013244Y-28230395D01*
X57829757Y-28265397D01*
X57656564Y-28335372D01*
X57500261Y-28437654D01*
X57366801Y-28568347D01*
X57261268Y-28722474D01*
X57187682Y-28894164D01*
X57148845Y-29076877D01*
X57146237Y-29263654D01*
X51749928Y-29263654D01*
X51794708Y-29200174D01*
X51870685Y-29029529D01*
X51912069Y-28847376D01*
X51915048Y-28634021D01*
X51878766Y-28450783D01*
X51807584Y-28278083D01*
X51704213Y-28122497D01*
X51572591Y-27989953D01*
X51417731Y-27885498D01*
X51245532Y-27813112D01*
X51062552Y-27775552D01*
X50875762Y-27774248D01*
X50692275Y-27809250D01*
X50519082Y-27879225D01*
X50362779Y-27981507D01*
X50229319Y-28112200D01*
X50123786Y-28266327D01*
X50050200Y-28438017D01*
X50011363Y-28620730D01*
X50008755Y-28807507D01*
X38887611Y-28807507D01*
X38890034Y-28634021D01*
X38853752Y-28450783D01*
X38782570Y-28278083D01*
X38679199Y-28122497D01*
X38547577Y-27989953D01*
X38392717Y-27885498D01*
X38220518Y-27813112D01*
X38037538Y-27775552D01*
X37850748Y-27774248D01*
X37667261Y-27809250D01*
X37494068Y-27879225D01*
X37337765Y-27981507D01*
X37204305Y-28112200D01*
X37098772Y-28266327D01*
X37025186Y-28438017D01*
X36986349Y-28620730D01*
X36983741Y-28807507D01*
X28798837Y-28807507D01*
X28952457Y-28624430D01*
X30335929Y-27512089D01*
X43496248Y-27512089D01*
X43529968Y-27695815D01*
X43598732Y-27869493D01*
X43699920Y-28026506D01*
X43829679Y-28160875D01*
X43983065Y-28267482D01*
X44154237Y-28342265D01*
X44336674Y-28382376D01*
X44523428Y-28386288D01*
X44707386Y-28353852D01*
X44881539Y-28286302D01*
X45039255Y-28186212D01*
X45174527Y-28057395D01*
X45282201Y-27904756D01*
X45358178Y-27734111D01*
X45399562Y-27551958D01*
X45402541Y-27338603D01*
X45366259Y-27155365D01*
X45295077Y-26982665D01*
X45191706Y-26827079D01*
X45060084Y-26694535D01*
X44905224Y-26590080D01*
X44733025Y-26517694D01*
X44550045Y-26480134D01*
X44363255Y-26478830D01*
X44179768Y-26513832D01*
X44006575Y-26583807D01*
X43850272Y-26686089D01*
X43716812Y-26816782D01*
X43611279Y-26970909D01*
X43537693Y-27142599D01*
X43498856Y-27325312D01*
X43496248Y-27512089D01*
X30335929Y-27512089D01*
X32120906Y-26076931D01*
X34615526Y-26076931D01*
X34649246Y-26260657D01*
X34718010Y-26434335D01*
X34819198Y-26591348D01*
X34948957Y-26725717D01*
X35102343Y-26832324D01*
X35273515Y-26907107D01*
X35455952Y-26947218D01*
X35642706Y-26951130D01*
X35826664Y-26918694D01*
X36000817Y-26851144D01*
X36158533Y-26751054D01*
X36293805Y-26622237D01*
X36401479Y-26469598D01*
X36477456Y-26298953D01*
X36518840Y-26116800D01*
X36521819Y-25903445D01*
X36485537Y-25720207D01*
X36414355Y-25547507D01*
X36310984Y-25391921D01*
X36179362Y-25259377D01*
X36094472Y-25202117D01*
X50264982Y-25202117D01*
X50298702Y-25385843D01*
X50367466Y-25559521D01*
X50468654Y-25716534D01*
X50598413Y-25850903D01*
X50751799Y-25957510D01*
X50922971Y-26032293D01*
X51105408Y-26072404D01*
X51292162Y-26076316D01*
X51476120Y-26043880D01*
X51650273Y-25976330D01*
X51807989Y-25876240D01*
X51943261Y-25747423D01*
X52050935Y-25594784D01*
X52126912Y-25424139D01*
X52168296Y-25241986D01*
X52171275Y-25028631D01*
X52134993Y-24845393D01*
X52063811Y-24672693D01*
X51960440Y-24517107D01*
X51828818Y-24384563D01*
X51673958Y-24280108D01*
X51501759Y-24207722D01*
X51318779Y-24170162D01*
X51131989Y-24168858D01*
X50948502Y-24203860D01*
X50775309Y-24273835D01*
X50619006Y-24376117D01*
X50485546Y-24506810D01*
X50380013Y-24660937D01*
X50306427Y-24832627D01*
X50267590Y-25015340D01*
X50264982Y-25202117D01*
X36094472Y-25202117D01*
X36024502Y-25154922D01*
X35852303Y-25082536D01*
X35669323Y-25044976D01*
X35482533Y-25043672D01*
X35299046Y-25078674D01*
X35125853Y-25148649D01*
X34969550Y-25250931D01*
X34836090Y-25381624D01*
X34730557Y-25535751D01*
X34656971Y-25707441D01*
X34618134Y-25890154D01*
X34615526Y-26076931D01*
X32120906Y-26076931D01*
X32321475Y-25915670D01*
X35826880Y-24083089D01*
X42353248Y-24083089D01*
X42386968Y-24266815D01*
X42455732Y-24440493D01*
X42556920Y-24597506D01*
X42686679Y-24731875D01*
X42840065Y-24838482D01*
X43011237Y-24913265D01*
X43193674Y-24953376D01*
X43380428Y-24957288D01*
X43564386Y-24924852D01*
X43738539Y-24857302D01*
X43896255Y-24757212D01*
X44031527Y-24628395D01*
X44139201Y-24475756D01*
X44215178Y-24305111D01*
X44256562Y-24122958D01*
X44259541Y-23909603D01*
X44223259Y-23726365D01*
X44152077Y-23553665D01*
X44048706Y-23398079D01*
X43917084Y-23265535D01*
X43762224Y-23161080D01*
X43590025Y-23088694D01*
X43407045Y-23051134D01*
X43220255Y-23049830D01*
X43036768Y-23084832D01*
X42863575Y-23154807D01*
X42707272Y-23257089D01*
X42573812Y-23387782D01*
X42468279Y-23541909D01*
X42394693Y-23713599D01*
X42355856Y-23896312D01*
X42353248Y-24083089D01*
X35826880Y-24083089D01*
X36152464Y-23912878D01*
X40299504Y-22692337D01*
X44604635Y-22300540D01*
X48903876Y-22752408D01*
X48903876Y-22752408D01*
G37*
X48903876Y-22752408D02*
X53033470Y-24030731D01*
X56836123Y-26086818D01*
X60166992Y-28842352D01*
X62899205Y-32192377D01*
X64928695Y-36009291D01*
X66178157Y-40147709D01*
X66600000Y-44450000D01*
X66591364Y-45068464D01*
X66049558Y-49357299D01*
X64685032Y-53459217D01*
X62549759Y-57217976D01*
X59725073Y-60490407D01*
X56318564Y-63151864D01*
X52459984Y-65100972D01*
X50895168Y-65537877D01*
X50893174Y-65527808D01*
X50826738Y-65366621D01*
X50730259Y-65221408D01*
X50607411Y-65097700D01*
X50462876Y-65000209D01*
X50302156Y-64932649D01*
X50131375Y-64897593D01*
X49957038Y-64896375D01*
X49785784Y-64929044D01*
X49624137Y-64994353D01*
X49478254Y-65089817D01*
X49353692Y-65211797D01*
X49305951Y-65281521D01*
X49200980Y-65026842D01*
X49047958Y-64796527D01*
X48853116Y-64600320D01*
X48623875Y-64445695D01*
X48368966Y-64338541D01*
X48098098Y-64282939D01*
X47821590Y-64281009D01*
X47549972Y-64332823D01*
X47293592Y-64436407D01*
X47062214Y-64587817D01*
X46864651Y-64781284D01*
X46708429Y-65009441D01*
X46599498Y-65263596D01*
X46542008Y-65534068D01*
X46538147Y-65810557D01*
X46588063Y-66082529D01*
X46689855Y-66339626D01*
X46719005Y-66384859D01*
X43986125Y-66595142D01*
X42186919Y-66380600D01*
X42294388Y-66139218D01*
X42355650Y-65869575D01*
X42360060Y-65553742D01*
X42306351Y-65282493D01*
X42200980Y-65026842D01*
X42047958Y-64796527D01*
X41853116Y-64600320D01*
X41623875Y-64445695D01*
X41368966Y-64338541D01*
X41098098Y-64282939D01*
X40821590Y-64281009D01*
X40549972Y-64332823D01*
X40293592Y-64436407D01*
X40062214Y-64587817D01*
X39864651Y-64781284D01*
X39708429Y-65009441D01*
X39599498Y-65263596D01*
X39542008Y-65534068D01*
X39538147Y-65810557D01*
X39581518Y-66046869D01*
X35582269Y-64747434D01*
X33990923Y-63858061D01*
X36727514Y-63858061D01*
X36761234Y-64041787D01*
X36829998Y-64215465D01*
X36931186Y-64372478D01*
X37060945Y-64506847D01*
X37214331Y-64613454D01*
X37385503Y-64688237D01*
X37567940Y-64728348D01*
X37754694Y-64732260D01*
X37938652Y-64699824D01*
X38112805Y-64632274D01*
X38270521Y-64532184D01*
X38405793Y-64403367D01*
X38513467Y-64250728D01*
X38589444Y-64080083D01*
X38630828Y-63897930D01*
X38633807Y-63684575D01*
X38597525Y-63501337D01*
X38526343Y-63328637D01*
X38422972Y-63173051D01*
X38291350Y-63040507D01*
X38207948Y-62984251D01*
X40683930Y-62984251D01*
X40703564Y-63199993D01*
X40764729Y-63407813D01*
X40865095Y-63599795D01*
X41000838Y-63768626D01*
X41166790Y-63907876D01*
X41356627Y-64012240D01*
X41563121Y-64077744D01*
X41778405Y-64101892D01*
X41793903Y-64102000D01*
X42106097Y-64102000D01*
X42321697Y-64080860D01*
X42529085Y-64018246D01*
X42720362Y-63916543D01*
X42888241Y-63779624D01*
X43026329Y-63612704D01*
X43129365Y-63422142D01*
X43193426Y-63215196D01*
X43216070Y-62999749D01*
X43214660Y-62984251D01*
X45683930Y-62984251D01*
X45703564Y-63199993D01*
X45764729Y-63407813D01*
X45865095Y-63599795D01*
X46000838Y-63768626D01*
X46166790Y-63907876D01*
X46356627Y-64012240D01*
X46563121Y-64077744D01*
X46778405Y-64101892D01*
X46793903Y-64102000D01*
X47106097Y-64102000D01*
X47321697Y-64080860D01*
X47529085Y-64018246D01*
X47720362Y-63916543D01*
X47888241Y-63779624D01*
X48026329Y-63612704D01*
X48129365Y-63422142D01*
X48193426Y-63215196D01*
X48216070Y-62999749D01*
X48214569Y-62983247D01*
X52376970Y-62983247D01*
X52410690Y-63166973D01*
X52479454Y-63340651D01*
X52580642Y-63497664D01*
X52710401Y-63632033D01*
X52863787Y-63738640D01*
X53034959Y-63813423D01*
X53217396Y-63853534D01*
X53404150Y-63857446D01*
X53588108Y-63825010D01*
X53762261Y-63757460D01*
X53919977Y-63657370D01*
X54055249Y-63528553D01*
X54162923Y-63375914D01*
X54238900Y-63205269D01*
X54280284Y-63023116D01*
X54283263Y-62809761D01*
X54246981Y-62626523D01*
X54175799Y-62453823D01*
X54072428Y-62298237D01*
X53940806Y-62165693D01*
X53785946Y-62061238D01*
X53613747Y-61988852D01*
X53430767Y-61951292D01*
X53243977Y-61949988D01*
X53060490Y-61984990D01*
X52887297Y-62054965D01*
X52730994Y-62157247D01*
X52597534Y-62287940D01*
X52492001Y-62442067D01*
X52418415Y-62613757D01*
X52379578Y-62796470D01*
X52376970Y-62983247D01*
X48214569Y-62983247D01*
X48196436Y-62784007D01*
X48135271Y-62576187D01*
X48034905Y-62384205D01*
X47899162Y-62215374D01*
X47733210Y-62076124D01*
X47543373Y-61971760D01*
X47336879Y-61906256D01*
X47121595Y-61882108D01*
X47106097Y-61882000D01*
X46793903Y-61882000D01*
X46578303Y-61903140D01*
X46370915Y-61965754D01*
X46179638Y-62067457D01*
X46011759Y-62204376D01*
X45873671Y-62371296D01*
X45770635Y-62561858D01*
X45706574Y-62768804D01*
X45683930Y-62984251D01*
X43214660Y-62984251D01*
X43196436Y-62784007D01*
X43135271Y-62576187D01*
X43034905Y-62384205D01*
X42899162Y-62215374D01*
X42733210Y-62076124D01*
X42543373Y-61971760D01*
X42336879Y-61906256D01*
X42121595Y-61882108D01*
X42106097Y-61882000D01*
X41793903Y-61882000D01*
X41578303Y-61903140D01*
X41370915Y-61965754D01*
X41179638Y-62067457D01*
X41011759Y-62204376D01*
X40873671Y-62371296D01*
X40770635Y-62561858D01*
X40706574Y-62768804D01*
X40683930Y-62984251D01*
X38207948Y-62984251D01*
X38136490Y-62936052D01*
X37964291Y-62863666D01*
X37781311Y-62826106D01*
X37594521Y-62824802D01*
X37411034Y-62859804D01*
X37237841Y-62929779D01*
X37081538Y-63032061D01*
X36948078Y-63162754D01*
X36842545Y-63316881D01*
X36768959Y-63488571D01*
X36730122Y-63671284D01*
X36727514Y-63858061D01*
X33990923Y-63858061D01*
X31808694Y-62638455D01*
X28516623Y-59836683D01*
X28484794Y-59796524D01*
X29846259Y-59796524D01*
X29879979Y-59980250D01*
X29948743Y-60153928D01*
X30049931Y-60310941D01*
X30179690Y-60445310D01*
X30333076Y-60551917D01*
X30504248Y-60626700D01*
X30686685Y-60666811D01*
X30873439Y-60670723D01*
X31057397Y-60638287D01*
X31213959Y-60577560D01*
X47928642Y-60577560D01*
X47960114Y-60749037D01*
X48024293Y-60911136D01*
X48118736Y-61057682D01*
X48239844Y-61183093D01*
X48383004Y-61282592D01*
X48542765Y-61352390D01*
X48713040Y-61389827D01*
X48887343Y-61393478D01*
X49059036Y-61363204D01*
X49221579Y-61300158D01*
X49368781Y-61206741D01*
X49495034Y-61086511D01*
X49595531Y-60944049D01*
X49666442Y-60784780D01*
X49705067Y-60614770D01*
X49707848Y-60415639D01*
X49673984Y-60244618D01*
X49607548Y-60083431D01*
X49511069Y-59938218D01*
X49388221Y-59814510D01*
X49243686Y-59717019D01*
X49082966Y-59649459D01*
X48912185Y-59614403D01*
X48737848Y-59613185D01*
X48566594Y-59645854D01*
X48404947Y-59711163D01*
X48259064Y-59806627D01*
X48134502Y-59928607D01*
X48036004Y-60072459D01*
X47967324Y-60232703D01*
X47931076Y-60403235D01*
X47928642Y-60577560D01*
X31213959Y-60577560D01*
X31231550Y-60570737D01*
X31389266Y-60470647D01*
X31524538Y-60341830D01*
X31632212Y-60189191D01*
X31708189Y-60018546D01*
X31749573Y-59836393D01*
X31752552Y-59623038D01*
X31716270Y-59439800D01*
X31645088Y-59267100D01*
X31541717Y-59111514D01*
X31444314Y-59013428D01*
X37336664Y-59013428D01*
X37372633Y-59209403D01*
X37445981Y-59394659D01*
X37553915Y-59562140D01*
X37692324Y-59705467D01*
X37855936Y-59819180D01*
X38038520Y-59898949D01*
X38233119Y-59941734D01*
X38432324Y-59945907D01*
X38628545Y-59911308D01*
X38814308Y-59839255D01*
X38982539Y-59732493D01*
X39126828Y-59595088D01*
X39241681Y-59432273D01*
X39322723Y-59250251D01*
X39366866Y-59055955D01*
X39370044Y-58828376D01*
X39355335Y-58754089D01*
X42226248Y-58754089D01*
X42259968Y-58937815D01*
X42328732Y-59111493D01*
X42429920Y-59268506D01*
X42559679Y-59402875D01*
X42713065Y-59509482D01*
X42884237Y-59584265D01*
X43066674Y-59624376D01*
X43253428Y-59628288D01*
X43437386Y-59595852D01*
X43611539Y-59528302D01*
X43769255Y-59428212D01*
X43904527Y-59299395D01*
X44012201Y-59146756D01*
X44088178Y-58976111D01*
X44129562Y-58793958D01*
X44132541Y-58580603D01*
X44096259Y-58397365D01*
X44025077Y-58224665D01*
X43995454Y-58180078D01*
X58762683Y-58180078D01*
X58796403Y-58363804D01*
X58865167Y-58537482D01*
X58966355Y-58694495D01*
X59096114Y-58828864D01*
X59249500Y-58935471D01*
X59420672Y-59010254D01*
X59603109Y-59050365D01*
X59789863Y-59054277D01*
X59973821Y-59021841D01*
X60147974Y-58954291D01*
X60305690Y-58854201D01*
X60440962Y-58725384D01*
X60548636Y-58572745D01*
X60624613Y-58402100D01*
X60665997Y-58219947D01*
X60668976Y-58006592D01*
X60632694Y-57823354D01*
X60561512Y-57650654D01*
X60458141Y-57495068D01*
X60326519Y-57362524D01*
X60171659Y-57258069D01*
X59999460Y-57185683D01*
X59816480Y-57148123D01*
X59629690Y-57146819D01*
X59446203Y-57181821D01*
X59273010Y-57251796D01*
X59116707Y-57354078D01*
X58983247Y-57484771D01*
X58877714Y-57638898D01*
X58804128Y-57810588D01*
X58765291Y-57993301D01*
X58762683Y-58180078D01*
X43995454Y-58180078D01*
X43921706Y-58069079D01*
X43790084Y-57936535D01*
X43635224Y-57832080D01*
X43463025Y-57759694D01*
X43280045Y-57722134D01*
X43093255Y-57720830D01*
X42909768Y-57755832D01*
X42736575Y-57825807D01*
X42580272Y-57928089D01*
X42446812Y-58058782D01*
X42341279Y-58212909D01*
X42267693Y-58384599D01*
X42228856Y-58567312D01*
X42226248Y-58754089D01*
X39355335Y-58754089D01*
X39331343Y-58632923D01*
X39255415Y-58448709D01*
X39145153Y-58282751D01*
X39004756Y-58141371D01*
X38839572Y-58029953D01*
X38655893Y-57952741D01*
X38460715Y-57912677D01*
X38261472Y-57911286D01*
X38065753Y-57948621D01*
X37881014Y-58023261D01*
X37714290Y-58132361D01*
X37571933Y-58271768D01*
X37459364Y-58436170D01*
X37380872Y-58619306D01*
X37339446Y-58814200D01*
X37336664Y-59013428D01*
X31444314Y-59013428D01*
X31410095Y-58978970D01*
X31255235Y-58874515D01*
X31083036Y-58802129D01*
X30900056Y-58764569D01*
X30713266Y-58763265D01*
X30529779Y-58798267D01*
X30356586Y-58868242D01*
X30200283Y-58970524D01*
X30066823Y-59101217D01*
X29961290Y-59255344D01*
X29887704Y-59427034D01*
X29848867Y-59609747D01*
X29846259Y-59796524D01*
X28484794Y-59796524D01*
X25922436Y-56563632D01*
X31821915Y-56563632D01*
X31855635Y-56747358D01*
X31924399Y-56921036D01*
X32025587Y-57078049D01*
X32155346Y-57212418D01*
X32308732Y-57319025D01*
X32479904Y-57393808D01*
X32662341Y-57433919D01*
X32849095Y-57437831D01*
X33033053Y-57405395D01*
X33207206Y-57337845D01*
X33364922Y-57237755D01*
X33500194Y-57108938D01*
X33607868Y-56956299D01*
X33683845Y-56785654D01*
X33725229Y-56603501D01*
X33728208Y-56390146D01*
X33691926Y-56206908D01*
X33620744Y-56034208D01*
X33517373Y-55878622D01*
X33385751Y-55746078D01*
X33230891Y-55641623D01*
X33058692Y-55569237D01*
X32875712Y-55531677D01*
X32688922Y-55530373D01*
X32505435Y-55565375D01*
X32332242Y-55635350D01*
X32175939Y-55737632D01*
X32042479Y-55868325D01*
X31936946Y-56022452D01*
X31863360Y-56194142D01*
X31824523Y-56376855D01*
X31821915Y-56563632D01*
X25922436Y-56563632D01*
X25831450Y-56448837D01*
X25060859Y-54949428D01*
X34301664Y-54949428D01*
X34337633Y-55145403D01*
X34410981Y-55330659D01*
X34518915Y-55498140D01*
X34657324Y-55641467D01*
X34820936Y-55755180D01*
X35003520Y-55834949D01*
X35198119Y-55877734D01*
X35397324Y-55881907D01*
X35593545Y-55847308D01*
X35779308Y-55775255D01*
X35947539Y-55668493D01*
X36091828Y-55531088D01*
X36206681Y-55368273D01*
X36287723Y-55186251D01*
X36331866Y-54991955D01*
X36335044Y-54764376D01*
X36296343Y-54568923D01*
X36220415Y-54384709D01*
X36186160Y-54333150D01*
X42035832Y-54333150D01*
X42067304Y-54504627D01*
X42110871Y-54614665D01*
X42074514Y-54699493D01*
X42038266Y-54870025D01*
X42035832Y-55044350D01*
X42067304Y-55215827D01*
X42131483Y-55377926D01*
X42225926Y-55524472D01*
X42347034Y-55649883D01*
X42490194Y-55749382D01*
X42649955Y-55819180D01*
X42820230Y-55856617D01*
X42994533Y-55860268D01*
X43166226Y-55829994D01*
X43328769Y-55766948D01*
X43475971Y-55673531D01*
X43602224Y-55553301D01*
X43702721Y-55410839D01*
X43773632Y-55251570D01*
X43812257Y-55081560D01*
X43815038Y-54882429D01*
X43781174Y-54711408D01*
X43740941Y-54613795D01*
X43773632Y-54540370D01*
X43812257Y-54370360D01*
X43815038Y-54171229D01*
X43781174Y-54000208D01*
X43714738Y-53839021D01*
X43618259Y-53693808D01*
X43495411Y-53570100D01*
X43350876Y-53472609D01*
X43190156Y-53405049D01*
X43019375Y-53369993D01*
X42845038Y-53368775D01*
X42673784Y-53401444D01*
X42512137Y-53466753D01*
X42366254Y-53562217D01*
X42241692Y-53684197D01*
X42143194Y-53828049D01*
X42074514Y-53988293D01*
X42038266Y-54158825D01*
X42035832Y-54333150D01*
X36186160Y-54333150D01*
X36110153Y-54218751D01*
X35969756Y-54077371D01*
X35804572Y-53965953D01*
X35620893Y-53888741D01*
X35425715Y-53848677D01*
X35226472Y-53847286D01*
X35030753Y-53884621D01*
X34846014Y-53959261D01*
X34679290Y-54068361D01*
X34536933Y-54207768D01*
X34424364Y-54372170D01*
X34345872Y-54555306D01*
X34304446Y-54750200D01*
X34301664Y-54949428D01*
X25060859Y-54949428D01*
X24270117Y-53410811D01*
X25043090Y-53410811D01*
X25076810Y-53594537D01*
X25145574Y-53768215D01*
X25246762Y-53925228D01*
X25376521Y-54059597D01*
X25529907Y-54166204D01*
X25701079Y-54240987D01*
X25883516Y-54281098D01*
X26070270Y-54285010D01*
X26254228Y-54252574D01*
X26428381Y-54185024D01*
X26586097Y-54084934D01*
X26721369Y-53956117D01*
X26829043Y-53803478D01*
X26905020Y-53632833D01*
X26946404Y-53450680D01*
X26949383Y-53237325D01*
X26934221Y-53160750D01*
X55751832Y-53160750D01*
X55783304Y-53332227D01*
X55847483Y-53494326D01*
X55941926Y-53640872D01*
X56063034Y-53766283D01*
X56206194Y-53865782D01*
X56365955Y-53935580D01*
X56536230Y-53973017D01*
X56710533Y-53976668D01*
X56882226Y-53946394D01*
X57044769Y-53883348D01*
X57191971Y-53789931D01*
X57318224Y-53669701D01*
X57418721Y-53527239D01*
X57489632Y-53367970D01*
X57528257Y-53197960D01*
X57531038Y-52998829D01*
X57497174Y-52827808D01*
X57430738Y-52666621D01*
X57334259Y-52521408D01*
X57211411Y-52397700D01*
X57066876Y-52300209D01*
X56906156Y-52232649D01*
X56735375Y-52197593D01*
X56561038Y-52196375D01*
X56389784Y-52229044D01*
X56228137Y-52294353D01*
X56082254Y-52389817D01*
X55957692Y-52511797D01*
X55859194Y-52655649D01*
X55790514Y-52815893D01*
X55754266Y-52986425D01*
X55751832Y-53160750D01*
X26934221Y-53160750D01*
X26913101Y-53054087D01*
X26841919Y-52881387D01*
X26738548Y-52725801D01*
X26606926Y-52593257D01*
X26452066Y-52488802D01*
X26279867Y-52416416D01*
X26096887Y-52378856D01*
X25910097Y-52377552D01*
X25726610Y-52412554D01*
X25553417Y-52482529D01*
X25397114Y-52584811D01*
X25263654Y-52715504D01*
X25158121Y-52869631D01*
X25084535Y-53041321D01*
X25045698Y-53224034D01*
X25043090Y-53410811D01*
X24270117Y-53410811D01*
X23855451Y-52603959D01*
X23726838Y-52155428D01*
X37844664Y-52155428D01*
X37880633Y-52351403D01*
X37953981Y-52536659D01*
X38061915Y-52704140D01*
X38200324Y-52847467D01*
X38363936Y-52961180D01*
X38546520Y-53040949D01*
X38741119Y-53083734D01*
X38940324Y-53087907D01*
X39136545Y-53053308D01*
X39322308Y-52981255D01*
X39490539Y-52874493D01*
X39634828Y-52737088D01*
X39749681Y-52574273D01*
X39830723Y-52392251D01*
X39874866Y-52197955D01*
X39878044Y-51970376D01*
X39839343Y-51774923D01*
X39763415Y-51590709D01*
X39653153Y-51424751D01*
X39512756Y-51283371D01*
X39347572Y-51171953D01*
X39270199Y-51139428D01*
X50798664Y-51139428D01*
X50834633Y-51335403D01*
X50907981Y-51520659D01*
X51015915Y-51688140D01*
X51154324Y-51831467D01*
X51317936Y-51945180D01*
X51500520Y-52024949D01*
X51695119Y-52067734D01*
X51894324Y-52071907D01*
X52090545Y-52037308D01*
X52276308Y-51965255D01*
X52444539Y-51858493D01*
X52588828Y-51721088D01*
X52703681Y-51558273D01*
X52784723Y-51376251D01*
X52802314Y-51298823D01*
X62824220Y-51298823D01*
X62857940Y-51482549D01*
X62926704Y-51656227D01*
X63027892Y-51813240D01*
X63157651Y-51947609D01*
X63311037Y-52054216D01*
X63482209Y-52128999D01*
X63664646Y-52169110D01*
X63851400Y-52173022D01*
X64035358Y-52140586D01*
X64209511Y-52073036D01*
X64367227Y-51972946D01*
X64502499Y-51844129D01*
X64610173Y-51691490D01*
X64686150Y-51520845D01*
X64727534Y-51338692D01*
X64730513Y-51125337D01*
X64694231Y-50942099D01*
X64623049Y-50769399D01*
X64519678Y-50613813D01*
X64388056Y-50481269D01*
X64233196Y-50376814D01*
X64060997Y-50304428D01*
X63878017Y-50266868D01*
X63691227Y-50265564D01*
X63507740Y-50300566D01*
X63334547Y-50370541D01*
X63178244Y-50472823D01*
X63044784Y-50603516D01*
X62939251Y-50757643D01*
X62865665Y-50929333D01*
X62826828Y-51112046D01*
X62824220Y-51298823D01*
X52802314Y-51298823D01*
X52828866Y-51181955D01*
X52832044Y-50954376D01*
X52793343Y-50758923D01*
X52717415Y-50574709D01*
X52607153Y-50408751D01*
X52466756Y-50267371D01*
X52301572Y-50155953D01*
X52117893Y-50078741D01*
X51922715Y-50038677D01*
X51723472Y-50037286D01*
X51527753Y-50074621D01*
X51343014Y-50149261D01*
X51176290Y-50258361D01*
X51033933Y-50397768D01*
X50921364Y-50562170D01*
X50842872Y-50745306D01*
X50801446Y-50940200D01*
X50798664Y-51139428D01*
X39270199Y-51139428D01*
X39163893Y-51094741D01*
X38968715Y-51054677D01*
X38769472Y-51053286D01*
X38573753Y-51090621D01*
X38389014Y-51165261D01*
X38222290Y-51274361D01*
X38079933Y-51413768D01*
X37967364Y-51578170D01*
X37888872Y-51761306D01*
X37847446Y-51956200D01*
X37844664Y-52155428D01*
X23726838Y-52155428D01*
X23447155Y-51180059D01*
X28105533Y-51180059D01*
X28139253Y-51363785D01*
X28208017Y-51537463D01*
X28309205Y-51694476D01*
X28438964Y-51828845D01*
X28592350Y-51935452D01*
X28763522Y-52010235D01*
X28945959Y-52050346D01*
X29132713Y-52054258D01*
X29316671Y-52021822D01*
X29490824Y-51954272D01*
X29648540Y-51854182D01*
X29783812Y-51725365D01*
X29891486Y-51572726D01*
X29967463Y-51402081D01*
X30008847Y-51219928D01*
X30011826Y-51006573D01*
X29975544Y-50823335D01*
X29904362Y-50650635D01*
X29800991Y-50495049D01*
X29669369Y-50362505D01*
X29514509Y-50258050D01*
X29342310Y-50185664D01*
X29159330Y-50148104D01*
X28972540Y-50146800D01*
X28789053Y-50181802D01*
X28615860Y-50251777D01*
X28459557Y-50354059D01*
X28326097Y-50484752D01*
X28220564Y-50638879D01*
X28146978Y-50810569D01*
X28108141Y-50993282D01*
X28105533Y-51180059D01*
X23447155Y-51180059D01*
X22998504Y-49615428D01*
X34796664Y-49615428D01*
X34832633Y-49811403D01*
X34905981Y-49996659D01*
X35013915Y-50164140D01*
X35152324Y-50307467D01*
X35315936Y-50421180D01*
X35498520Y-50500949D01*
X35693119Y-50543734D01*
X35892324Y-50547907D01*
X36088545Y-50513308D01*
X36274308Y-50441255D01*
X36442539Y-50334493D01*
X36586828Y-50197088D01*
X36701681Y-50034273D01*
X36782723Y-49852251D01*
X36826866Y-49657955D01*
X36830044Y-49430376D01*
X36815335Y-49356089D01*
X39940248Y-49356089D01*
X39973968Y-49539815D01*
X40042732Y-49713493D01*
X40143920Y-49870506D01*
X40273679Y-50004875D01*
X40427065Y-50111482D01*
X40598237Y-50186265D01*
X40780674Y-50226376D01*
X40967428Y-50230288D01*
X41151386Y-50197852D01*
X41325539Y-50130302D01*
X41483255Y-50030212D01*
X41618527Y-49901395D01*
X41726201Y-49748756D01*
X41802178Y-49578111D01*
X41843562Y-49395958D01*
X41846541Y-49182603D01*
X41833054Y-49114490D01*
X41833539Y-49114302D01*
X41991255Y-49014212D01*
X42126527Y-48885395D01*
X42234201Y-48732756D01*
X42310178Y-48562111D01*
X42351562Y-48379958D01*
X42354541Y-48166603D01*
X42318259Y-47983365D01*
X42247077Y-47810665D01*
X42143706Y-47655079D01*
X42012084Y-47522535D01*
X41857224Y-47418080D01*
X41685025Y-47345694D01*
X41502045Y-47308134D01*
X41315255Y-47306830D01*
X41131768Y-47341832D01*
X40958575Y-47411807D01*
X40802272Y-47514089D01*
X40668812Y-47644782D01*
X40563279Y-47798909D01*
X40489693Y-47970599D01*
X40450856Y-48153312D01*
X40448248Y-48340089D01*
X40463396Y-48422627D01*
X40450575Y-48427807D01*
X40294272Y-48530089D01*
X40160812Y-48660782D01*
X40055279Y-48814909D01*
X39981693Y-48986599D01*
X39942856Y-49169312D01*
X39940248Y-49356089D01*
X36815335Y-49356089D01*
X36791343Y-49234923D01*
X36715415Y-49050709D01*
X36605153Y-48884751D01*
X36464756Y-48743371D01*
X36299572Y-48631953D01*
X36115893Y-48554741D01*
X35920715Y-48514677D01*
X35721472Y-48513286D01*
X35525753Y-48550621D01*
X35341014Y-48625261D01*
X35174290Y-48734361D01*
X35031933Y-48873768D01*
X34919364Y-49038170D01*
X34840872Y-49221306D01*
X34799446Y-49416200D01*
X34796664Y-49615428D01*
X22998504Y-49615428D01*
X22663892Y-48448499D01*
X22548145Y-47070089D01*
X47814248Y-47070089D01*
X47847968Y-47253815D01*
X47916732Y-47427493D01*
X48017920Y-47584506D01*
X48147679Y-47718875D01*
X48301065Y-47825482D01*
X48472237Y-47900265D01*
X48654674Y-47940376D01*
X48841428Y-47944288D01*
X49025386Y-47911852D01*
X49199539Y-47844302D01*
X49357255Y-47744212D01*
X49492527Y-47615395D01*
X49600201Y-47462756D01*
X49661940Y-47324089D01*
X50608248Y-47324089D01*
X50641968Y-47507815D01*
X50710732Y-47681493D01*
X50811920Y-47838506D01*
X50941679Y-47972875D01*
X51095065Y-48079482D01*
X51266237Y-48154265D01*
X51448674Y-48194376D01*
X51635428Y-48198288D01*
X51819386Y-48165852D01*
X51993539Y-48098302D01*
X52031692Y-48074089D01*
X53668248Y-48074089D01*
X53701968Y-48257815D01*
X53770732Y-48431493D01*
X53871920Y-48588506D01*
X54001679Y-48722875D01*
X54155065Y-48829482D01*
X54261290Y-48875890D01*
X54179692Y-48955797D01*
X54081194Y-49099649D01*
X54012514Y-49259893D01*
X53976266Y-49430425D01*
X53973832Y-49604750D01*
X54005304Y-49776227D01*
X54069483Y-49938326D01*
X54163926Y-50084872D01*
X54285034Y-50210283D01*
X54428194Y-50309782D01*
X54587955Y-50379580D01*
X54758230Y-50417017D01*
X54932533Y-50420668D01*
X55104226Y-50390394D01*
X55266769Y-50327348D01*
X55413971Y-50233931D01*
X55540224Y-50113701D01*
X55640721Y-49971239D01*
X55711632Y-49811970D01*
X55742549Y-49675884D01*
X57190719Y-49675884D01*
X57252141Y-50010545D01*
X57377396Y-50326902D01*
X57561713Y-50612906D01*
X57798071Y-50857662D01*
X58077468Y-51051848D01*
X58389261Y-51188067D01*
X58721575Y-51261131D01*
X59061752Y-51268257D01*
X59396833Y-51209173D01*
X59714058Y-51086130D01*
X60001341Y-50903814D01*
X60247741Y-50669170D01*
X60443873Y-50391136D01*
X60582266Y-50080301D01*
X60657648Y-49748505D01*
X60663074Y-49359874D01*
X60596986Y-49026103D01*
X60467326Y-48711526D01*
X60279034Y-48428123D01*
X60039282Y-48186691D01*
X59757201Y-47996425D01*
X59443536Y-47864572D01*
X59110234Y-47796156D01*
X58930300Y-47794899D01*
X58949769Y-47787348D01*
X59096971Y-47693931D01*
X59223224Y-47573701D01*
X59323721Y-47431239D01*
X59394632Y-47271970D01*
X59433257Y-47101960D01*
X59436038Y-46902829D01*
X59402174Y-46731808D01*
X59335738Y-46570621D01*
X59239259Y-46425408D01*
X59116411Y-46301700D01*
X58971876Y-46204209D01*
X58811156Y-46136649D01*
X58640375Y-46101593D01*
X58466038Y-46100375D01*
X58294784Y-46133044D01*
X58133137Y-46198353D01*
X57987254Y-46293817D01*
X57862692Y-46415797D01*
X57764194Y-46559649D01*
X57695514Y-46719893D01*
X57659266Y-46890425D01*
X57656832Y-47064750D01*
X57688304Y-47236227D01*
X57752483Y-47398326D01*
X57846926Y-47544872D01*
X57968034Y-47670283D01*
X58111194Y-47769782D01*
X58270955Y-47839580D01*
X58406469Y-47869374D01*
X58120292Y-47984997D01*
X57835582Y-48171306D01*
X57592482Y-48409367D01*
X57400251Y-48690113D01*
X57266212Y-49002850D01*
X57195470Y-49335666D01*
X57190719Y-49675884D01*
X55742549Y-49675884D01*
X55750257Y-49641960D01*
X55753038Y-49442829D01*
X55719174Y-49271808D01*
X55652738Y-49110621D01*
X55556259Y-48965408D01*
X55433411Y-48841700D01*
X55288876Y-48744209D01*
X55237942Y-48722798D01*
X55346527Y-48619395D01*
X55454201Y-48466756D01*
X55530178Y-48296111D01*
X55571562Y-48113958D01*
X55574541Y-47900603D01*
X55538259Y-47717365D01*
X55467077Y-47544665D01*
X55363706Y-47389079D01*
X55232084Y-47256535D01*
X55077224Y-47152080D01*
X54905025Y-47079694D01*
X54722045Y-47042134D01*
X54535255Y-47040830D01*
X54351768Y-47075832D01*
X54178575Y-47145807D01*
X54022272Y-47248089D01*
X53888812Y-47378782D01*
X53783279Y-47532909D01*
X53709693Y-47704599D01*
X53670856Y-47887312D01*
X53668248Y-48074089D01*
X52031692Y-48074089D01*
X52151255Y-47998212D01*
X52286527Y-47869395D01*
X52394201Y-47716756D01*
X52470178Y-47546111D01*
X52511562Y-47363958D01*
X52514541Y-47150603D01*
X52478259Y-46967365D01*
X52407077Y-46794665D01*
X52303706Y-46639079D01*
X52172084Y-46506535D01*
X52017224Y-46402080D01*
X51845025Y-46329694D01*
X51662045Y-46292134D01*
X51475255Y-46290830D01*
X51291768Y-46325832D01*
X51118575Y-46395807D01*
X50962272Y-46498089D01*
X50828812Y-46628782D01*
X50723279Y-46782909D01*
X50649693Y-46954599D01*
X50610856Y-47137312D01*
X50608248Y-47324089D01*
X49661940Y-47324089D01*
X49676178Y-47292111D01*
X49717562Y-47109958D01*
X49720541Y-46896603D01*
X49684259Y-46713365D01*
X49613077Y-46540665D01*
X49509706Y-46385079D01*
X49378084Y-46252535D01*
X49223224Y-46148080D01*
X49051025Y-46075694D01*
X48868045Y-46038134D01*
X48681255Y-46036830D01*
X48497768Y-46071832D01*
X48324575Y-46141807D01*
X48168272Y-46244089D01*
X48034812Y-46374782D01*
X47929279Y-46528909D01*
X47855693Y-46700599D01*
X47816856Y-46883312D01*
X47814248Y-47070089D01*
X22548145Y-47070089D01*
X22430835Y-45673089D01*
X23049248Y-45673089D01*
X23082968Y-45856815D01*
X23151732Y-46030493D01*
X23252920Y-46187506D01*
X23382679Y-46321875D01*
X23536065Y-46428482D01*
X23707237Y-46503265D01*
X23889674Y-46543376D01*
X24076428Y-46547288D01*
X24260386Y-46514852D01*
X24434539Y-46447302D01*
X24592255Y-46347212D01*
X24727527Y-46218395D01*
X24835201Y-46065756D01*
X24911178Y-45895111D01*
X24931553Y-45805428D01*
X37082664Y-45805428D01*
X37118633Y-46001403D01*
X37191981Y-46186659D01*
X37299915Y-46354140D01*
X37438324Y-46497467D01*
X37601936Y-46611180D01*
X37784520Y-46690949D01*
X37979119Y-46733734D01*
X38178324Y-46737907D01*
X38374545Y-46703308D01*
X38560308Y-46631255D01*
X38728539Y-46524493D01*
X38872828Y-46387088D01*
X38987681Y-46224273D01*
X39068723Y-46042251D01*
X39112866Y-45847955D01*
X39116044Y-45620376D01*
X39077343Y-45424923D01*
X39022593Y-45292089D01*
X50608248Y-45292089D01*
X50641968Y-45475815D01*
X50710732Y-45649493D01*
X50811920Y-45806506D01*
X50941679Y-45940875D01*
X51095065Y-46047482D01*
X51266237Y-46122265D01*
X51448674Y-46162376D01*
X51635428Y-46166288D01*
X51819386Y-46133852D01*
X51993539Y-46066302D01*
X52151255Y-45966212D01*
X52286527Y-45837395D01*
X52394201Y-45684756D01*
X52470178Y-45514111D01*
X52511562Y-45331958D01*
X52514541Y-45118603D01*
X52478259Y-44935365D01*
X52407077Y-44762665D01*
X52303706Y-44607079D01*
X52227252Y-44530089D01*
X54418248Y-44530089D01*
X54451968Y-44713815D01*
X54520732Y-44887493D01*
X54621920Y-45044506D01*
X54751679Y-45178875D01*
X54905065Y-45285482D01*
X55076237Y-45360265D01*
X55258674Y-45400376D01*
X55445428Y-45404288D01*
X55629386Y-45371852D01*
X55803539Y-45304302D01*
X55961255Y-45204212D01*
X56096527Y-45075395D01*
X56204201Y-44922756D01*
X56280178Y-44752111D01*
X56321562Y-44569958D01*
X56324541Y-44356603D01*
X56288259Y-44173365D01*
X56217077Y-44000665D01*
X56113706Y-43845079D01*
X55982084Y-43712535D01*
X55827224Y-43608080D01*
X55655025Y-43535694D01*
X55549773Y-43514089D01*
X58228248Y-43514089D01*
X58261968Y-43697815D01*
X58330732Y-43871493D01*
X58431920Y-44028506D01*
X58561679Y-44162875D01*
X58715065Y-44269482D01*
X58886237Y-44344265D01*
X59068674Y-44384376D01*
X59255428Y-44388288D01*
X59439386Y-44355852D01*
X59613539Y-44288302D01*
X59771255Y-44188212D01*
X59906527Y-44059395D01*
X60014201Y-43906756D01*
X60090178Y-43736111D01*
X60131562Y-43553958D01*
X60133891Y-43387089D01*
X63943248Y-43387089D01*
X63976968Y-43570815D01*
X64045732Y-43744493D01*
X64146920Y-43901506D01*
X64276679Y-44035875D01*
X64430065Y-44142482D01*
X64601237Y-44217265D01*
X64783674Y-44257376D01*
X64970428Y-44261288D01*
X65154386Y-44228852D01*
X65328539Y-44161302D01*
X65486255Y-44061212D01*
X65621527Y-43932395D01*
X65729201Y-43779756D01*
X65805178Y-43609111D01*
X65846562Y-43426958D01*
X65849541Y-43213603D01*
X65813259Y-43030365D01*
X65742077Y-42857665D01*
X65638706Y-42702079D01*
X65507084Y-42569535D01*
X65352224Y-42465080D01*
X65180025Y-42392694D01*
X64997045Y-42355134D01*
X64810255Y-42353830D01*
X64626768Y-42388832D01*
X64453575Y-42458807D01*
X64297272Y-42561089D01*
X64163812Y-42691782D01*
X64058279Y-42845909D01*
X63984693Y-43017599D01*
X63945856Y-43200312D01*
X63943248Y-43387089D01*
X60133891Y-43387089D01*
X60134541Y-43340603D01*
X60098259Y-43157365D01*
X60027077Y-42984665D01*
X59923706Y-42829079D01*
X59792084Y-42696535D01*
X59637224Y-42592080D01*
X59465025Y-42519694D01*
X59282045Y-42482134D01*
X59095255Y-42480830D01*
X58911768Y-42515832D01*
X58738575Y-42585807D01*
X58582272Y-42688089D01*
X58448812Y-42818782D01*
X58343279Y-42972909D01*
X58269693Y-43144599D01*
X58230856Y-43327312D01*
X58228248Y-43514089D01*
X55549773Y-43514089D01*
X55472045Y-43498134D01*
X55285255Y-43496830D01*
X55101768Y-43531832D01*
X54928575Y-43601807D01*
X54772272Y-43704089D01*
X54638812Y-43834782D01*
X54533279Y-43988909D01*
X54459693Y-44160599D01*
X54420856Y-44343312D01*
X54418248Y-44530089D01*
X52227252Y-44530089D01*
X52172084Y-44474535D01*
X52017224Y-44370080D01*
X51845025Y-44297694D01*
X51662045Y-44260134D01*
X51475255Y-44258830D01*
X51291768Y-44293832D01*
X51118575Y-44363807D01*
X50962272Y-44466089D01*
X50828812Y-44596782D01*
X50723279Y-44750909D01*
X50649693Y-44922599D01*
X50610856Y-45105312D01*
X50608248Y-45292089D01*
X39022593Y-45292089D01*
X39001415Y-45240709D01*
X38891153Y-45074751D01*
X38856006Y-45039358D01*
X38951527Y-44948395D01*
X39059201Y-44795756D01*
X39135178Y-44625111D01*
X39176562Y-44442958D01*
X39179541Y-44229603D01*
X39143259Y-44046365D01*
X39072077Y-43873665D01*
X38968706Y-43718079D01*
X38837084Y-43585535D01*
X38682224Y-43481080D01*
X38510025Y-43408694D01*
X38327045Y-43371134D01*
X38140255Y-43369830D01*
X37956768Y-43404832D01*
X37783575Y-43474807D01*
X37627272Y-43577089D01*
X37493812Y-43707782D01*
X37388279Y-43861909D01*
X37314693Y-44033599D01*
X37275856Y-44216312D01*
X37273248Y-44403089D01*
X37306968Y-44586815D01*
X37375732Y-44760493D01*
X37475094Y-44914673D01*
X37460290Y-44924361D01*
X37317933Y-45063768D01*
X37205364Y-45228170D01*
X37126872Y-45411306D01*
X37085446Y-45606200D01*
X37082664Y-45805428D01*
X24931553Y-45805428D01*
X24952562Y-45712958D01*
X24955541Y-45499603D01*
X24919259Y-45316365D01*
X24848077Y-45143665D01*
X24744706Y-44988079D01*
X24613084Y-44855535D01*
X24507162Y-44784089D01*
X26732248Y-44784089D01*
X26765968Y-44967815D01*
X26834732Y-45141493D01*
X26935920Y-45298506D01*
X27065679Y-45432875D01*
X27219065Y-45539482D01*
X27390237Y-45614265D01*
X27572674Y-45654376D01*
X27759428Y-45658288D01*
X27943386Y-45625852D01*
X28117539Y-45558302D01*
X28275255Y-45458212D01*
X28410527Y-45329395D01*
X28518201Y-45176756D01*
X28594178Y-45006111D01*
X28635562Y-44823958D01*
X28638541Y-44610603D01*
X28602259Y-44427365D01*
X28531077Y-44254665D01*
X28427706Y-44099079D01*
X28296084Y-43966535D01*
X28141224Y-43862080D01*
X27969025Y-43789694D01*
X27786045Y-43752134D01*
X27599255Y-43750830D01*
X27415768Y-43785832D01*
X27242575Y-43855807D01*
X27086272Y-43958089D01*
X26952812Y-44088782D01*
X26847279Y-44242909D01*
X26773693Y-44414599D01*
X26734856Y-44597312D01*
X26732248Y-44784089D01*
X24507162Y-44784089D01*
X24458224Y-44751080D01*
X24286025Y-44678694D01*
X24103045Y-44641134D01*
X23916255Y-44639830D01*
X23732768Y-44674832D01*
X23559575Y-44744807D01*
X23403272Y-44847089D01*
X23269812Y-44977782D01*
X23164279Y-45131909D01*
X23090693Y-45303599D01*
X23051856Y-45486312D01*
X23049248Y-45673089D01*
X22430835Y-45673089D01*
X22302159Y-44140738D01*
X22592994Y-41547884D01*
X27726719Y-41547884D01*
X27788141Y-41882545D01*
X27913396Y-42198902D01*
X28097713Y-42484906D01*
X28334071Y-42729662D01*
X28613468Y-42923848D01*
X28925261Y-43060067D01*
X29257575Y-43133131D01*
X29597752Y-43140257D01*
X29932833Y-43081173D01*
X30250058Y-42958130D01*
X30537341Y-42775814D01*
X30783741Y-42541170D01*
X30979873Y-42263136D01*
X31118266Y-41952301D01*
X31193648Y-41620505D01*
X31199074Y-41231874D01*
X31198325Y-41228089D01*
X49338248Y-41228089D01*
X49371968Y-41411815D01*
X49440732Y-41585493D01*
X49541920Y-41742506D01*
X49671679Y-41876875D01*
X49825065Y-41983482D01*
X49996237Y-42058265D01*
X50178674Y-42098376D01*
X50365428Y-42102288D01*
X50549386Y-42069852D01*
X50723539Y-42002302D01*
X50881255Y-41902212D01*
X51016527Y-41773395D01*
X51124201Y-41620756D01*
X51200178Y-41450111D01*
X51241562Y-41267958D01*
X51244541Y-41054603D01*
X51208259Y-40871365D01*
X51137077Y-40698665D01*
X51033706Y-40543079D01*
X50902084Y-40410535D01*
X50747224Y-40306080D01*
X50575025Y-40233694D01*
X50443763Y-40206750D01*
X51179832Y-40206750D01*
X51211304Y-40378227D01*
X51275483Y-40540326D01*
X51369926Y-40686872D01*
X51491034Y-40812283D01*
X51634194Y-40911782D01*
X51793955Y-40981580D01*
X51964230Y-41019017D01*
X52138533Y-41022668D01*
X52310226Y-40992394D01*
X52472769Y-40929348D01*
X52619971Y-40835931D01*
X52746224Y-40715701D01*
X52846721Y-40573239D01*
X52917632Y-40413970D01*
X52956257Y-40243960D01*
X52957149Y-40180083D01*
X58228248Y-40180083D01*
X58261968Y-40363809D01*
X58330732Y-40537487D01*
X58344259Y-40558477D01*
X58343279Y-40559909D01*
X58269693Y-40731599D01*
X58230856Y-40914312D01*
X58228248Y-41101089D01*
X58261968Y-41284815D01*
X58330732Y-41458493D01*
X58431920Y-41615506D01*
X58561679Y-41749875D01*
X58715065Y-41856482D01*
X58886237Y-41931265D01*
X59068674Y-41971376D01*
X59255428Y-41975288D01*
X59439386Y-41942852D01*
X59613539Y-41875302D01*
X59771255Y-41775212D01*
X59906527Y-41646395D01*
X60014201Y-41493756D01*
X60090178Y-41323111D01*
X60131562Y-41140958D01*
X60134541Y-40927603D01*
X60098259Y-40744365D01*
X60027077Y-40571665D01*
X60019657Y-40560497D01*
X60090178Y-40402105D01*
X60131562Y-40219952D01*
X60134541Y-40006597D01*
X60098259Y-39823359D01*
X60027077Y-39650659D01*
X59923706Y-39495073D01*
X59792084Y-39362529D01*
X59637224Y-39258074D01*
X59465025Y-39185688D01*
X59282045Y-39148128D01*
X59095255Y-39146824D01*
X58911768Y-39181826D01*
X58738575Y-39251801D01*
X58582272Y-39354083D01*
X58448812Y-39484776D01*
X58343279Y-39638903D01*
X58269693Y-39810593D01*
X58230856Y-39993306D01*
X58228248Y-40180083D01*
X52957149Y-40180083D01*
X52959038Y-40044829D01*
X52925174Y-39873808D01*
X52858738Y-39712621D01*
X52762259Y-39567408D01*
X52639411Y-39443700D01*
X52494876Y-39346209D01*
X52334156Y-39278649D01*
X52163375Y-39243593D01*
X51989038Y-39242375D01*
X51817784Y-39275044D01*
X51656137Y-39340353D01*
X51510254Y-39435817D01*
X51385692Y-39557797D01*
X51287194Y-39701649D01*
X51218514Y-39861893D01*
X51182266Y-40032425D01*
X51179832Y-40206750D01*
X50443763Y-40206750D01*
X50392045Y-40196134D01*
X50205255Y-40194830D01*
X50021768Y-40229832D01*
X49848575Y-40299807D01*
X49692272Y-40402089D01*
X49558812Y-40532782D01*
X49453279Y-40686909D01*
X49379693Y-40858599D01*
X49340856Y-41041312D01*
X49338248Y-41228089D01*
X31198325Y-41228089D01*
X31132986Y-40898103D01*
X31003326Y-40583526D01*
X30815034Y-40300123D01*
X30575282Y-40058691D01*
X30293201Y-39868425D01*
X29979536Y-39736572D01*
X29821289Y-39704089D01*
X40448248Y-39704089D01*
X40481968Y-39887815D01*
X40550732Y-40061493D01*
X40651920Y-40218506D01*
X40781679Y-40352875D01*
X40935065Y-40459482D01*
X41106237Y-40534265D01*
X41288674Y-40574376D01*
X41475428Y-40578288D01*
X41659386Y-40545852D01*
X41833539Y-40478302D01*
X41991255Y-40378212D01*
X42126527Y-40249395D01*
X42234201Y-40096756D01*
X42310178Y-39926111D01*
X42351562Y-39743958D01*
X42354541Y-39530603D01*
X42318259Y-39347365D01*
X42247077Y-39174665D01*
X42143706Y-39019079D01*
X42012084Y-38886535D01*
X41857224Y-38782080D01*
X41685025Y-38709694D01*
X41502045Y-38672134D01*
X41315255Y-38670830D01*
X41131768Y-38705832D01*
X40958575Y-38775807D01*
X40802272Y-38878089D01*
X40668812Y-39008782D01*
X40563279Y-39162909D01*
X40489693Y-39334599D01*
X40450856Y-39517312D01*
X40448248Y-39704089D01*
X29821289Y-39704089D01*
X29646234Y-39668156D01*
X29305992Y-39665780D01*
X28971767Y-39729537D01*
X28656292Y-39856997D01*
X28371582Y-40043306D01*
X28128482Y-40281367D01*
X27936251Y-40562113D01*
X27802212Y-40874850D01*
X27731470Y-41207666D01*
X27726719Y-41547884D01*
X22592994Y-41547884D01*
X22784031Y-39844756D01*
X23444924Y-37761355D01*
X24168276Y-37761355D01*
X24201996Y-37945081D01*
X24270760Y-38118759D01*
X24371948Y-38275772D01*
X24501707Y-38410141D01*
X24655093Y-38516748D01*
X24826265Y-38591531D01*
X25008702Y-38631642D01*
X25195456Y-38635554D01*
X25379414Y-38603118D01*
X25553567Y-38535568D01*
X25711283Y-38435478D01*
X25801622Y-38349449D01*
X27911130Y-38349449D01*
X27944850Y-38533175D01*
X28013614Y-38706853D01*
X28114802Y-38863866D01*
X28244561Y-38998235D01*
X28397947Y-39104842D01*
X28569119Y-39179625D01*
X28751556Y-39219736D01*
X28938310Y-39223648D01*
X29122268Y-39191212D01*
X29296421Y-39123662D01*
X29454137Y-39023572D01*
X29589409Y-38894755D01*
X29697083Y-38742116D01*
X29773060Y-38571471D01*
X29814444Y-38389318D01*
X29817423Y-38175963D01*
X29781141Y-37992725D01*
X29709959Y-37820025D01*
X29606588Y-37664439D01*
X29474966Y-37531895D01*
X29320106Y-37427440D01*
X29147907Y-37355054D01*
X28964927Y-37317494D01*
X28778137Y-37316190D01*
X28594650Y-37351192D01*
X28421457Y-37421167D01*
X28265154Y-37523449D01*
X28131694Y-37654142D01*
X28026161Y-37808269D01*
X27952575Y-37979959D01*
X27913738Y-38162672D01*
X27911130Y-38349449D01*
X25801622Y-38349449D01*
X25846555Y-38306661D01*
X25954229Y-38154022D01*
X26030206Y-37983377D01*
X26071590Y-37801224D01*
X26074569Y-37587869D01*
X26038287Y-37404631D01*
X25967105Y-37231931D01*
X25922031Y-37164089D01*
X39432248Y-37164089D01*
X39465968Y-37347815D01*
X39534732Y-37521493D01*
X39635920Y-37678506D01*
X39765679Y-37812875D01*
X39919065Y-37919482D01*
X40090237Y-37994265D01*
X40272674Y-38034376D01*
X40459428Y-38038288D01*
X40643386Y-38005852D01*
X40817539Y-37938302D01*
X40975255Y-37838212D01*
X41110527Y-37709395D01*
X41218201Y-37556756D01*
X41294178Y-37386111D01*
X41335562Y-37203958D01*
X41338541Y-36990603D01*
X41302259Y-36807365D01*
X41231077Y-36634665D01*
X41127706Y-36479079D01*
X40996084Y-36346535D01*
X40841224Y-36242080D01*
X40669025Y-36169694D01*
X40486045Y-36132134D01*
X40299255Y-36130830D01*
X40115768Y-36165832D01*
X39942575Y-36235807D01*
X39786272Y-36338089D01*
X39652812Y-36468782D01*
X39547279Y-36622909D01*
X39473693Y-36794599D01*
X39434856Y-36977312D01*
X39432248Y-37164089D01*
X25922031Y-37164089D01*
X25863734Y-37076345D01*
X25732112Y-36943801D01*
X25577252Y-36839346D01*
X25405053Y-36766960D01*
X25222073Y-36729400D01*
X25035283Y-36728096D01*
X24851796Y-36763098D01*
X24678603Y-36833073D01*
X24522300Y-36935355D01*
X24388840Y-37066048D01*
X24283307Y-37220175D01*
X24209721Y-37391865D01*
X24170884Y-37574578D01*
X24168276Y-37761355D01*
X23444924Y-37761355D01*
X24037255Y-35894089D01*
X48830248Y-35894089D01*
X48863968Y-36077815D01*
X48932732Y-36251493D01*
X49033920Y-36408506D01*
X49163679Y-36542875D01*
X49317065Y-36649482D01*
X49488237Y-36724265D01*
X49670674Y-36764376D01*
X49857428Y-36768288D01*
X50041386Y-36735852D01*
X50215539Y-36668302D01*
X50373255Y-36568212D01*
X50508527Y-36439395D01*
X50616201Y-36286756D01*
X50692178Y-36116111D01*
X50733562Y-35933958D01*
X50736541Y-35720603D01*
X50722436Y-35649367D01*
X61949406Y-35649367D01*
X61983126Y-35833093D01*
X62051890Y-36006771D01*
X62153078Y-36163784D01*
X62282837Y-36298153D01*
X62436223Y-36404760D01*
X62607395Y-36479543D01*
X62789832Y-36519654D01*
X62976586Y-36523566D01*
X63160544Y-36491130D01*
X63334697Y-36423580D01*
X63492413Y-36323490D01*
X63627685Y-36194673D01*
X63735359Y-36042034D01*
X63811336Y-35871389D01*
X63852720Y-35689236D01*
X63855699Y-35475881D01*
X63819417Y-35292643D01*
X63748235Y-35119943D01*
X63644864Y-34964357D01*
X63513242Y-34831813D01*
X63358382Y-34727358D01*
X63186183Y-34654972D01*
X63003203Y-34617412D01*
X62816413Y-34616108D01*
X62632926Y-34651110D01*
X62459733Y-34721085D01*
X62303430Y-34823367D01*
X62169970Y-34954060D01*
X62064437Y-35108187D01*
X61990851Y-35279877D01*
X61952014Y-35462590D01*
X61949406Y-35649367D01*
X50722436Y-35649367D01*
X50700259Y-35537365D01*
X50629077Y-35364665D01*
X50525706Y-35209079D01*
X50394084Y-35076535D01*
X50239224Y-34972080D01*
X50067025Y-34899694D01*
X49884045Y-34862134D01*
X49697255Y-34860830D01*
X49513768Y-34895832D01*
X49340575Y-34965807D01*
X49184272Y-35068089D01*
X49050812Y-35198782D01*
X48945279Y-35352909D01*
X48871693Y-35524599D01*
X48832856Y-35707312D01*
X48830248Y-35894089D01*
X24037255Y-35894089D01*
X24091152Y-35724187D01*
X25865562Y-32496546D01*
X31462705Y-32496546D01*
X31496425Y-32680272D01*
X31565189Y-32853950D01*
X31666377Y-33010963D01*
X31796136Y-33145332D01*
X31949522Y-33251939D01*
X32120694Y-33326722D01*
X32303131Y-33366833D01*
X32489885Y-33370745D01*
X32673843Y-33338309D01*
X32847996Y-33270759D01*
X33005712Y-33170669D01*
X33140984Y-33041852D01*
X33248658Y-32889213D01*
X33324635Y-32718568D01*
X33366019Y-32536415D01*
X33368998Y-32323060D01*
X33332716Y-32139822D01*
X33309745Y-32084089D01*
X42226248Y-32084089D01*
X42259968Y-32267815D01*
X42328732Y-32441493D01*
X42429920Y-32598506D01*
X42559679Y-32732875D01*
X42713065Y-32839482D01*
X42884237Y-32914265D01*
X43066674Y-32954376D01*
X43253428Y-32958288D01*
X43437386Y-32925852D01*
X43611539Y-32858302D01*
X43630783Y-32846089D01*
X54164248Y-32846089D01*
X54197968Y-33029815D01*
X54266732Y-33203493D01*
X54367920Y-33360506D01*
X54497679Y-33494875D01*
X54651065Y-33601482D01*
X54822237Y-33676265D01*
X55004674Y-33716376D01*
X55191428Y-33720288D01*
X55375386Y-33687852D01*
X55549539Y-33620302D01*
X55707255Y-33520212D01*
X55842527Y-33391395D01*
X55950201Y-33238756D01*
X56026178Y-33068111D01*
X56067562Y-32885958D01*
X56070541Y-32672603D01*
X56034259Y-32489365D01*
X55963077Y-32316665D01*
X55859706Y-32161079D01*
X55728084Y-32028535D01*
X55573224Y-31924080D01*
X55401025Y-31851694D01*
X55218045Y-31814134D01*
X55031255Y-31812830D01*
X54847768Y-31847832D01*
X54674575Y-31917807D01*
X54518272Y-32020089D01*
X54384812Y-32150782D01*
X54279279Y-32304909D01*
X54205693Y-32476599D01*
X54166856Y-32659312D01*
X54164248Y-32846089D01*
X43630783Y-32846089D01*
X43769255Y-32758212D01*
X43904527Y-32629395D01*
X44012201Y-32476756D01*
X44088178Y-32306111D01*
X44129562Y-32123958D01*
X44132541Y-31910603D01*
X44096259Y-31727365D01*
X44025077Y-31554665D01*
X43921706Y-31399079D01*
X43790084Y-31266535D01*
X43635224Y-31162080D01*
X43463025Y-31089694D01*
X43280045Y-31052134D01*
X43093255Y-31050830D01*
X42909768Y-31085832D01*
X42736575Y-31155807D01*
X42580272Y-31258089D01*
X42446812Y-31388782D01*
X42341279Y-31542909D01*
X42267693Y-31714599D01*
X42228856Y-31897312D01*
X42226248Y-32084089D01*
X33309745Y-32084089D01*
X33261534Y-31967122D01*
X33158163Y-31811536D01*
X33026541Y-31678992D01*
X32871681Y-31574537D01*
X32699482Y-31502151D01*
X32516502Y-31464591D01*
X32329712Y-31463287D01*
X32146225Y-31498289D01*
X31973032Y-31568264D01*
X31816729Y-31670546D01*
X31683269Y-31801239D01*
X31577736Y-31955366D01*
X31504150Y-32127056D01*
X31465313Y-32309769D01*
X31462705Y-32496546D01*
X25865562Y-32496546D01*
X26173736Y-31935981D01*
X27059725Y-30880100D01*
X28229813Y-30880100D01*
X28263533Y-31063826D01*
X28332297Y-31237504D01*
X28433485Y-31394517D01*
X28563244Y-31528886D01*
X28716630Y-31635493D01*
X28887802Y-31710276D01*
X29070239Y-31750387D01*
X29256993Y-31754299D01*
X29440951Y-31721863D01*
X29615104Y-31654313D01*
X29772820Y-31554223D01*
X29908092Y-31425406D01*
X30015766Y-31272767D01*
X30091743Y-31102122D01*
X30133127Y-30919969D01*
X30136106Y-30706614D01*
X30099824Y-30523376D01*
X30028642Y-30350676D01*
X29925271Y-30195090D01*
X29793649Y-30062546D01*
X29638789Y-29958091D01*
X29466590Y-29885705D01*
X29283610Y-29848145D01*
X29096820Y-29846841D01*
X28913333Y-29881843D01*
X28740140Y-29951818D01*
X28583837Y-30054100D01*
X28450377Y-30184793D01*
X28344844Y-30338920D01*
X28271258Y-30510610D01*
X28232421Y-30693323D01*
X28229813Y-30880100D01*
X27059725Y-30880100D01*
X28798837Y-28807507D01*
X36983741Y-28807507D01*
X37017461Y-28991233D01*
X37086225Y-29164911D01*
X37187413Y-29321924D01*
X37317172Y-29456293D01*
X37470558Y-29562900D01*
X37641730Y-29637683D01*
X37824167Y-29677794D01*
X38010921Y-29681706D01*
X38194879Y-29649270D01*
X38369032Y-29581720D01*
X38526748Y-29481630D01*
X38662020Y-29352813D01*
X38769694Y-29200174D01*
X38845671Y-29029529D01*
X38887055Y-28847376D01*
X38887611Y-28807507D01*
X50008755Y-28807507D01*
X50042475Y-28991233D01*
X50111239Y-29164911D01*
X50212427Y-29321924D01*
X50342186Y-29456293D01*
X50495572Y-29562900D01*
X50666744Y-29637683D01*
X50849181Y-29677794D01*
X51035935Y-29681706D01*
X51219893Y-29649270D01*
X51394046Y-29581720D01*
X51551762Y-29481630D01*
X51687034Y-29352813D01*
X51749928Y-29263654D01*
X57146237Y-29263654D01*
X57179957Y-29447380D01*
X57248721Y-29621058D01*
X57349909Y-29778071D01*
X57479668Y-29912440D01*
X57633054Y-30019047D01*
X57804226Y-30093830D01*
X57986663Y-30133941D01*
X58173417Y-30137853D01*
X58357375Y-30105417D01*
X58531528Y-30037867D01*
X58689244Y-29937777D01*
X58824516Y-29808960D01*
X58932190Y-29656321D01*
X59008167Y-29485676D01*
X59049551Y-29303523D01*
X59052530Y-29090168D01*
X59016248Y-28906930D01*
X58945066Y-28734230D01*
X58841695Y-28578644D01*
X58710073Y-28446100D01*
X58555213Y-28341645D01*
X58383014Y-28269259D01*
X58200034Y-28231699D01*
X58013244Y-28230395D01*
X57829757Y-28265397D01*
X57656564Y-28335372D01*
X57500261Y-28437654D01*
X57366801Y-28568347D01*
X57261268Y-28722474D01*
X57187682Y-28894164D01*
X57148845Y-29076877D01*
X57146237Y-29263654D01*
X51749928Y-29263654D01*
X51794708Y-29200174D01*
X51870685Y-29029529D01*
X51912069Y-28847376D01*
X51915048Y-28634021D01*
X51878766Y-28450783D01*
X51807584Y-28278083D01*
X51704213Y-28122497D01*
X51572591Y-27989953D01*
X51417731Y-27885498D01*
X51245532Y-27813112D01*
X51062552Y-27775552D01*
X50875762Y-27774248D01*
X50692275Y-27809250D01*
X50519082Y-27879225D01*
X50362779Y-27981507D01*
X50229319Y-28112200D01*
X50123786Y-28266327D01*
X50050200Y-28438017D01*
X50011363Y-28620730D01*
X50008755Y-28807507D01*
X38887611Y-28807507D01*
X38890034Y-28634021D01*
X38853752Y-28450783D01*
X38782570Y-28278083D01*
X38679199Y-28122497D01*
X38547577Y-27989953D01*
X38392717Y-27885498D01*
X38220518Y-27813112D01*
X38037538Y-27775552D01*
X37850748Y-27774248D01*
X37667261Y-27809250D01*
X37494068Y-27879225D01*
X37337765Y-27981507D01*
X37204305Y-28112200D01*
X37098772Y-28266327D01*
X37025186Y-28438017D01*
X36986349Y-28620730D01*
X36983741Y-28807507D01*
X28798837Y-28807507D01*
X28952457Y-28624430D01*
X30335929Y-27512089D01*
X43496248Y-27512089D01*
X43529968Y-27695815D01*
X43598732Y-27869493D01*
X43699920Y-28026506D01*
X43829679Y-28160875D01*
X43983065Y-28267482D01*
X44154237Y-28342265D01*
X44336674Y-28382376D01*
X44523428Y-28386288D01*
X44707386Y-28353852D01*
X44881539Y-28286302D01*
X45039255Y-28186212D01*
X45174527Y-28057395D01*
X45282201Y-27904756D01*
X45358178Y-27734111D01*
X45399562Y-27551958D01*
X45402541Y-27338603D01*
X45366259Y-27155365D01*
X45295077Y-26982665D01*
X45191706Y-26827079D01*
X45060084Y-26694535D01*
X44905224Y-26590080D01*
X44733025Y-26517694D01*
X44550045Y-26480134D01*
X44363255Y-26478830D01*
X44179768Y-26513832D01*
X44006575Y-26583807D01*
X43850272Y-26686089D01*
X43716812Y-26816782D01*
X43611279Y-26970909D01*
X43537693Y-27142599D01*
X43498856Y-27325312D01*
X43496248Y-27512089D01*
X30335929Y-27512089D01*
X32120906Y-26076931D01*
X34615526Y-26076931D01*
X34649246Y-26260657D01*
X34718010Y-26434335D01*
X34819198Y-26591348D01*
X34948957Y-26725717D01*
X35102343Y-26832324D01*
X35273515Y-26907107D01*
X35455952Y-26947218D01*
X35642706Y-26951130D01*
X35826664Y-26918694D01*
X36000817Y-26851144D01*
X36158533Y-26751054D01*
X36293805Y-26622237D01*
X36401479Y-26469598D01*
X36477456Y-26298953D01*
X36518840Y-26116800D01*
X36521819Y-25903445D01*
X36485537Y-25720207D01*
X36414355Y-25547507D01*
X36310984Y-25391921D01*
X36179362Y-25259377D01*
X36094472Y-25202117D01*
X50264982Y-25202117D01*
X50298702Y-25385843D01*
X50367466Y-25559521D01*
X50468654Y-25716534D01*
X50598413Y-25850903D01*
X50751799Y-25957510D01*
X50922971Y-26032293D01*
X51105408Y-26072404D01*
X51292162Y-26076316D01*
X51476120Y-26043880D01*
X51650273Y-25976330D01*
X51807989Y-25876240D01*
X51943261Y-25747423D01*
X52050935Y-25594784D01*
X52126912Y-25424139D01*
X52168296Y-25241986D01*
X52171275Y-25028631D01*
X52134993Y-24845393D01*
X52063811Y-24672693D01*
X51960440Y-24517107D01*
X51828818Y-24384563D01*
X51673958Y-24280108D01*
X51501759Y-24207722D01*
X51318779Y-24170162D01*
X51131989Y-24168858D01*
X50948502Y-24203860D01*
X50775309Y-24273835D01*
X50619006Y-24376117D01*
X50485546Y-24506810D01*
X50380013Y-24660937D01*
X50306427Y-24832627D01*
X50267590Y-25015340D01*
X50264982Y-25202117D01*
X36094472Y-25202117D01*
X36024502Y-25154922D01*
X35852303Y-25082536D01*
X35669323Y-25044976D01*
X35482533Y-25043672D01*
X35299046Y-25078674D01*
X35125853Y-25148649D01*
X34969550Y-25250931D01*
X34836090Y-25381624D01*
X34730557Y-25535751D01*
X34656971Y-25707441D01*
X34618134Y-25890154D01*
X34615526Y-26076931D01*
X32120906Y-26076931D01*
X32321475Y-25915670D01*
X35826880Y-24083089D01*
X42353248Y-24083089D01*
X42386968Y-24266815D01*
X42455732Y-24440493D01*
X42556920Y-24597506D01*
X42686679Y-24731875D01*
X42840065Y-24838482D01*
X43011237Y-24913265D01*
X43193674Y-24953376D01*
X43380428Y-24957288D01*
X43564386Y-24924852D01*
X43738539Y-24857302D01*
X43896255Y-24757212D01*
X44031527Y-24628395D01*
X44139201Y-24475756D01*
X44215178Y-24305111D01*
X44256562Y-24122958D01*
X44259541Y-23909603D01*
X44223259Y-23726365D01*
X44152077Y-23553665D01*
X44048706Y-23398079D01*
X43917084Y-23265535D01*
X43762224Y-23161080D01*
X43590025Y-23088694D01*
X43407045Y-23051134D01*
X43220255Y-23049830D01*
X43036768Y-23084832D01*
X42863575Y-23154807D01*
X42707272Y-23257089D01*
X42573812Y-23387782D01*
X42468279Y-23541909D01*
X42394693Y-23713599D01*
X42355856Y-23896312D01*
X42353248Y-24083089D01*
X35826880Y-24083089D01*
X36152464Y-23912878D01*
X40299504Y-22692337D01*
X44604635Y-22300540D01*
X48903876Y-22752408D01*
M02*
